<svg width="1364" height="324" viewBox="0 0 1364 324" fill="none" xmlns="http://www.w3.org/2000/svg">
<path d="M900.599 74.54L879.779 132.53H879.939L900.719 74.88L900.599 74.54Z" fill="white"/>
<path d="M530.899 74.54L510.089 132.53H510.149L530.979 74.76L530.899 74.54Z" fill="white"/>
<path d="M536.099 89.02L551.719 132.53H520.409L512.509 154.46H559.709L573.089 191.64H603.019L548.449 54.77L536.099 89.02Z" fill="white"/>
<path d="M510.089 132.53L530.899 74.5401L530.979 74.7601L539.769 50.3701H516.779L460.639 191.64H488.839L510.149 132.53H510.089Z" fill="white"/>
<path d="M693.719 118.87C686.899 114.85 677.859 111.1 666.579 107.63C660.139 105.53 655.089 103.58 651.429 101.77C647.769 99.9799 645.229 97.9299 643.809 95.6399C642.379 93.3499 641.669 90.6499 641.669 87.5499C641.669 82.0899 643.779 77.8799 647.989 74.9099C652.199 71.9299 658.089 70.4499 665.649 70.4499C671.849 70.4499 678.319 71.3799 685.069 73.2399C691.819 75.0999 697.799 77.6399 703.009 80.8599L706.909 57.9999C701.579 54.7799 695.109 52.2099 687.489 50.2899C679.869 48.3699 672.279 47.4099 664.719 47.4099C654.429 47.4099 645.509 49.0799 637.949 52.4299C630.389 55.7799 624.539 60.5499 620.389 66.7399C616.239 72.9399 614.159 80.2499 614.159 88.6699C614.159 95.8599 615.559 102.08 618.339 107.35C621.129 112.62 625.679 117.17 631.999 121.01C638.319 124.85 646.619 128.32 656.909 131.42C664.349 133.65 670.109 135.76 674.199 137.74C678.289 139.72 681.139 141.92 682.749 144.34C684.359 146.76 685.169 149.64 685.169 152.98C685.169 158.81 682.779 163.36 678.009 166.64C673.239 169.92 666.639 171.56 658.209 171.56C650.899 171.56 643.249 170.42 635.259 168.12C627.269 165.83 620.299 162.89 614.349 159.29L611.749 182.89C615.219 185.25 619.559 187.29 624.759 189.02C629.969 190.76 635.569 192.12 641.579 193.11C647.589 194.1 653.569 194.6 659.519 194.6C676.249 194.6 689.379 190.79 698.919 183.17C708.459 175.55 713.229 164.99 713.229 151.48C713.229 144.29 711.679 138.07 708.579 132.8C705.479 127.53 700.519 122.89 693.709 118.86L693.719 118.87Z" fill="white"/>
<path d="M842.049 50.3701H722.539V73.4101H842.049V50.3701Z" fill="white"/>
<path d="M796.509 83.0701H768.069V191.64H796.509V83.0701Z" fill="white"/>
<path d="M879.779 132.53L900.599 74.5401L900.719 74.8801L909.559 50.3701H886.469L830.339 191.64H858.589L871.969 154.46H872.029L879.939 132.53H879.779Z" fill="white"/>
<path d="M905.839 89.1499L921.419 132.53H890.199L882.289 154.46H929.409L942.789 191.64H972.719L918.199 54.8799L905.839 89.1499Z" fill="white"/>
<path d="M1064.72 134.39C1071.54 130.55 1077.11 125.38 1081.45 118.87C1085.79 112.37 1087.96 104.78 1087.96 96.1001C1087.96 86.6801 1085.85 78.5701 1081.64 71.7501C1077.42 64.9401 1071.42 59.6701 1063.61 55.9501C1055.8 52.2301 1046.51 50.3701 1035.73 50.3701H1025.85V71.7501H1032.01C1050.85 71.7501 1060.26 79.8001 1060.26 95.9101C1060.26 112.02 1050.53 120.07 1031.08 120.07H1025.85V141.44H1040.37L1070.11 191.62H1101.89L1064.71 134.37L1064.72 134.39Z" fill="white"/>
<path d="M1016.2 50.3701H989.26V191.63H1016.2V50.3701Z" fill="white"/>
<path d="M460.639 275.57V244.87H471.579C473.969 244.87 475.949 245.3 477.519 246.17C479.089 247.04 480.259 248.23 481.039 249.73C481.819 251.23 482.209 252.92 482.209 254.8C482.209 256.68 481.819 258.38 481.039 259.89C480.249 261.39 479.069 262.58 477.499 263.46C475.929 264.33 473.949 264.77 471.569 264.77H464.049V260.84H471.149C472.659 260.84 473.879 260.58 474.819 260.05C475.759 259.52 476.449 258.81 476.889 257.9C477.329 256.99 477.549 255.96 477.549 254.8C477.549 253.64 477.329 252.61 476.889 251.71C476.449 250.81 475.759 250.11 474.819 249.6C473.879 249.09 472.629 248.84 471.099 248.84H465.279V275.57H460.649H460.639Z" fill="white"/>
<path d="M526.109 260.21C526.109 263.49 525.509 266.3 524.309 268.66C523.109 271.01 521.469 272.82 519.389 274.09C517.299 275.35 514.939 275.99 512.289 275.99C509.639 275.99 507.259 275.36 505.179 274.09C503.099 272.83 501.459 271.02 500.259 268.66C499.059 266.3 498.459 263.49 498.459 260.22C498.459 256.95 499.059 254.13 500.259 251.77C501.459 249.42 503.099 247.61 505.179 246.34C507.269 245.08 509.639 244.44 512.289 244.44C514.939 244.44 517.299 245.07 519.389 246.34C521.469 247.6 523.109 249.41 524.309 251.77C525.509 254.12 526.109 256.94 526.109 260.22V260.21ZM521.519 260.21C521.519 257.71 521.119 255.61 520.309 253.89C519.509 252.18 518.409 250.88 517.009 249.99C515.619 249.11 514.039 248.66 512.279 248.66C510.519 248.66 508.929 249.1 507.539 249.99C506.149 250.87 505.049 252.17 504.249 253.89C503.449 255.6 503.039 257.71 503.039 260.21C503.039 262.71 503.439 264.82 504.249 266.53C505.049 268.24 506.149 269.54 507.539 270.43C508.929 271.31 510.509 271.76 512.279 271.76C514.049 271.76 515.619 271.32 517.009 270.43C518.399 269.55 519.499 268.25 520.309 266.53C521.119 264.82 521.519 262.71 521.519 260.21Z" fill="white"/>
<path d="M549.309 275.57L540.799 244.87H545.669L551.649 268.64H551.939L558.159 244.87H562.989L569.209 268.66H569.499L575.469 244.87H580.359L571.829 275.57H567.169L560.709 252.57H560.469L554.009 275.57H549.329H549.309Z" fill="white"/>
<path d="M596.399 275.57V244.87H615.639V248.86H601.029V258.21H614.639V262.18H601.029V271.58H615.829V275.57H596.399Z" fill="white"/>
<path d="M633.679 275.57V244.87H644.619C646.999 244.87 648.979 245.28 650.549 246.1C652.119 246.92 653.299 248.05 654.079 249.5C654.859 250.94 655.249 252.61 655.249 254.5C655.249 256.39 654.859 258.03 654.069 259.46C653.289 260.88 652.109 261.99 650.529 262.78C648.959 263.57 646.979 263.96 644.599 263.96H636.309V259.97H644.179C645.679 259.97 646.899 259.76 647.849 259.33C648.789 258.9 649.489 258.28 649.929 257.46C650.369 256.64 650.589 255.66 650.589 254.51C650.589 253.36 650.369 252.35 649.919 251.5C649.469 250.65 648.779 250 647.829 249.54C646.889 249.09 645.649 248.86 644.119 248.86H638.299V275.59H633.669L633.679 275.57ZM648.829 261.72L656.419 275.57H651.139L643.709 261.72H648.839H648.829Z" fill="white"/>
<path d="M672.719 275.57V244.87H691.969V248.86H677.349V258.21H690.959V262.18H677.349V271.58H692.149V275.57H672.719Z" fill="white"/>
<path d="M719.929 275.57H709.989V244.87H720.239C723.249 244.87 725.829 245.48 727.989 246.71C730.149 247.93 731.799 249.69 732.959 251.97C734.109 254.25 734.689 256.99 734.689 260.18C734.689 263.37 734.109 266.13 732.939 268.42C731.769 270.71 730.089 272.49 727.889 273.72C725.689 274.95 723.039 275.57 719.919 275.57H719.929ZM714.619 271.52H719.669C722.009 271.52 723.949 271.08 725.499 270.19C727.049 269.3 728.209 268.02 728.979 266.34C729.749 264.66 730.129 262.6 730.129 260.17C730.129 257.74 729.749 255.72 728.979 254.04C728.209 252.36 727.079 251.09 725.569 250.22C724.059 249.35 722.189 248.92 719.949 248.92H714.609V271.53L714.619 271.52Z" fill="white"/>
<path d="M775.279 275.57V244.87H786.519C788.699 244.87 790.499 245.23 791.929 245.94C793.359 246.65 794.429 247.62 795.139 248.83C795.849 250.04 796.199 251.41 796.199 252.93C796.199 254.21 795.969 255.29 795.499 256.16C795.029 257.03 794.399 257.73 793.619 258.26C792.829 258.79 791.969 259.17 791.029 259.41V259.71C792.049 259.76 793.049 260.09 794.019 260.69C794.989 261.29 795.799 262.15 796.439 263.26C797.079 264.37 797.399 265.72 797.399 267.31C797.399 268.9 797.029 270.29 796.299 271.53C795.569 272.77 794.429 273.76 792.899 274.48C791.369 275.2 789.419 275.57 787.039 275.57H775.269H775.279ZM779.909 258.15H786.119C787.159 258.15 788.099 257.95 788.929 257.55C789.759 257.15 790.429 256.59 790.919 255.86C791.409 255.14 791.659 254.28 791.659 253.29C791.659 252.02 791.219 250.96 790.329 250.1C789.439 249.24 788.079 248.81 786.239 248.81H779.909V258.15ZM779.909 271.6H786.599C788.819 271.6 790.409 271.17 791.369 270.31C792.329 269.45 792.809 268.38 792.809 267.09C792.809 266.12 792.569 265.23 792.069 264.42C791.579 263.61 790.879 262.97 789.979 262.49C789.079 262.01 787.999 261.77 786.759 261.77H779.909V271.6Z" fill="white"/>
<path d="M812.339 244.87H817.599L825.619 258.83H825.949L833.969 244.87H839.229L828.089 263.52V275.57H823.469V263.52L812.329 244.87H812.339Z" fill="white"/>
<path d="M420.269 150.84C414.199 61.68 336.999 -5.69 247.839 0.380003C203.419 3.4 164.419 24.08 137.209 55.09L137.129 55.04C136.949 55.29 136.779 55.54 136.589 55.8C109.559 86.96 94.3591 128.39 97.3791 172.8C97.6691 177.03 98.1691 181.2 98.7691 185.32C98.7991 185.51 98.8191 185.69 98.8491 185.88C99.2591 188.6 99.7291 191.3 100.269 193.98C100.269 194.03 100.289 194.08 100.299 194.13C100.789 196.55 101.339 198.95 101.929 201.33C101.929 201.33 101.929 201.33 101.929 201.34C120.619 275.87 190.449 328.66 269.799 323.26C358.959 317.2 426.329 240 420.259 150.84H420.269ZM385.049 153.24C385.799 164.22 385.109 174.97 383.149 185.31C383.129 185.25 383.109 185.19 383.079 185.13C371.349 156.45 348.139 135.75 327.729 124.31C331.859 75.72 315.379 55.25 296.719 51.92C296.209 51.82 295.699 51.74 295.179 51.67C280.369 49.77 266.829 60.24 264.929 75.04C263.029 89.85 273.499 103.39 288.299 105.29C289.589 105.45 290.869 105.5 292.129 105.48C292.209 107.12 292.259 108.86 292.279 110.68C275.029 106.4 258.899 105.57 244.199 106.89C238.699 107.26 233.199 107.95 227.729 108.97C229.569 92.56 235.719 74.14 247.669 60.66C259.219 47.63 276.379 40.16 295.109 42.08C298.659 42.44 302.449 43.31 305.859 44.46C306.019 44.51 306.179 44.56 306.339 44.61C306.339 44.61 306.339 44.61 306.339 44.6C349.719 62.27 381.639 103.44 385.029 153.23L385.049 153.24ZM272.259 177.96C272.259 177.96 272.239 178 272.219 178.01C268.359 183.58 263.769 189.07 258.379 194.38C250.299 185.78 243.809 176.52 238.879 166.94C238.629 166.43 238.359 165.94 238.109 165.42C238.109 165.4 238.089 165.38 238.079 165.36C235.189 159.23 232.729 152.5 230.819 145.18C242.319 142.47 253.599 141.48 264.369 142C264.939 142.04 265.499 142.05 266.069 142.1C266.089 142.1 266.109 142.1 266.129 142.1C272.879 142.66 279.919 143.89 287.199 145.9C283.789 157.21 279.019 167.47 273.179 176.53C272.859 177 272.569 177.48 272.239 177.96H272.259ZM216.959 42.46C216.959 42.46 216.899 42.54 216.869 42.57C197.909 67.06 191.579 97.49 191.869 120.87C147.729 141.59 138.239 166.1 144.689 183.92C144.859 184.41 145.039 184.89 145.249 185.37C151.009 199.14 166.839 205.64 180.609 199.88C194.379 194.12 200.879 178.29 195.119 164.51C194.619 163.31 194.019 162.18 193.369 161.09C194.769 160.19 196.259 159.26 197.849 158.33C202.769 175.41 210.059 189.86 218.549 201.93C221.609 206.5 224.949 210.91 228.569 215.13C213.439 221.75 194.409 225.63 176.759 222.02C159.699 218.54 144.649 207.4 136.949 190.23C135.489 186.97 134.349 183.26 133.639 179.73C133.199 176.65 132.829 173.54 132.619 170.39C128.679 112.42 164.639 60.82 216.979 42.44L216.959 42.46ZM267.409 288.04C232.989 290.38 200.809 278.64 176.489 257.77C207.169 261.95 236.689 252.21 256.799 240.26C296.829 268.15 322.809 264.11 335.029 249.62C335.369 249.23 335.699 248.83 336.009 248.41C345.059 236.54 342.759 219.58 330.889 210.53C319.019 201.48 302.059 203.78 293.009 215.65C292.219 216.69 291.539 217.77 290.929 218.88C289.459 218.13 287.919 217.3 286.329 216.39C298.669 203.58 307.469 190.02 313.679 176.62C316.109 171.67 318.259 166.56 320.109 161.31C333.409 171.1 346.299 185.65 352.009 202.75C357.519 219.27 355.409 237.87 344.379 253.13C342.289 256.02 339.639 258.87 336.939 261.25C336.899 261.28 336.859 261.32 336.819 261.36C317.529 276.52 293.669 286.25 267.409 288.04Z" fill="url(#paint0_linear_93_213)"/>
<path style="mix-blend-mode:overlay" opacity="0.9" d="M296.719 51.9199C296.209 51.8199 295.699 51.7399 295.179 51.6699C292.559 51.3299 289.979 51.3999 287.499 51.7999C302.979 60.2199 314.269 83.6899 308.329 129.97C306.359 145.3 301.809 159.89 295.219 173.27C289.889 184.78 282.629 196.4 272.869 207.57C277.549 211.08 282.119 214.02 286.309 216.4C298.649 203.59 307.449 190.03 313.659 176.63C320.239 163.24 324.799 148.66 326.769 133.33C333.829 78.2199 316.489 55.4499 296.719 51.9199Z" fill="url(#paint1_radial_93_213)"/>
<g style="mix-blend-mode:overlay" opacity="0.8">
<path d="M308.339 129.97C314.269 83.68 302.989 60.22 287.509 51.8C286.909 51.9 286.309 52.02 285.719 52.16C300.879 60.87 311.779 84.31 305.929 129.97C303.959 145.3 299.409 159.89 292.819 173.27C287.659 184.4 280.689 195.63 271.419 206.45C271.909 206.83 272.399 207.2 272.889 207.56C282.639 196.39 289.899 184.77 295.239 173.26C301.819 159.87 306.379 145.29 308.349 129.96L308.339 129.97Z" fill="white"/>
</g>
<path style="mix-blend-mode:overlay" opacity="0.5" d="M249.499 234.95C248.049 233.84 246.649 232.68 245.249 231.52C222.399 241.05 190.739 247.03 159.289 239.73C164.439 246.29 170.189 252.35 176.499 257.77C207.179 261.95 236.699 252.21 256.809 240.26C254.419 238.6 251.989 236.84 249.509 234.94L249.499 234.95Z" fill="url(#paint2_radial_93_213)"/>
<path style="mix-blend-mode:overlay" opacity="0.6" d="M245.239 231.52C244.539 230.94 243.839 230.37 243.149 229.77C220.129 238.97 188.319 244.47 156.939 236.65C157.699 237.69 158.479 238.72 159.279 239.73C190.729 247.03 222.399 241.05 245.239 231.52Z" fill="url(#paint3_linear_93_213)"/>
<path style="mix-blend-mode:overlay" opacity="0.9" d="M144.689 183.96C144.859 184.45 145.039 184.93 145.249 185.41C146.269 187.85 147.619 190.04 149.199 192C148.749 174.38 163.429 152.88 206.479 134.87C220.739 128.91 235.649 125.56 250.539 124.57C263.179 123.43 276.869 123.91 291.419 126.77C292.119 120.96 292.379 115.53 292.349 110.72C275.089 106.44 258.949 105.6 244.239 106.92C229.359 107.91 214.439 111.26 200.179 117.22C148.919 138.66 137.879 165.06 144.699 183.95L144.689 183.96Z" fill="url(#paint4_radial_93_213)"/>
<g style="mix-blend-mode:overlay" opacity="0.8">
<path d="M206.479 134.87C163.429 152.87 148.749 174.38 149.199 192C149.589 192.48 149.989 192.92 150.409 193.37C150.379 175.89 165.229 154.72 207.689 136.96C221.949 131 236.859 127.65 251.749 126.66C263.969 125.56 277.179 125.99 291.189 128.6C291.269 127.98 291.339 127.38 291.419 126.77C276.869 123.91 263.179 123.43 250.539 124.57C235.659 125.56 220.739 128.91 206.479 134.87Z" fill="white"/>
</g>
<path style="mix-blend-mode:overlay" opacity="0.4" d="M326.809 133.34C326.579 135.15 326.269 136.95 325.969 138.74C345.649 153.76 366.659 178.2 376.059 209.08C379.169 201.34 381.549 193.33 383.079 185.16C371.349 156.5 348.169 135.8 327.759 124.36C327.509 127.26 327.199 130.24 326.809 133.34Z" fill="url(#paint5_radial_93_213)"/>
<path style="mix-blend-mode:overlay" opacity="0.5" d="M325.969 138.73C325.819 139.63 325.669 140.52 325.499 141.41C344.979 156.74 365.639 181.55 374.559 212.63C375.079 211.45 375.579 210.26 376.059 209.07C366.659 178.19 345.649 153.75 325.969 138.73Z" fill="url(#paint6_linear_93_213)"/>
<path style="mix-blend-mode:overlay" opacity="0.9" d="M335.039 249.59C335.379 249.2 335.709 248.8 336.019 248.38C337.619 246.28 338.849 244.01 339.749 241.67C324.719 250.87 298.749 248.91 261.629 220.63C249.339 211.26 238.979 200.02 230.679 187.63C223.379 177.26 216.939 165.16 212.149 151.13C206.769 153.43 201.929 155.92 197.789 158.35C202.709 175.44 210.059 189.84 218.559 201.92C226.859 214.31 237.219 225.56 249.509 234.92C293.709 268.59 322.089 264.96 335.039 249.6V249.59Z" fill="url(#paint7_radial_93_213)"/>
<g style="mix-blend-mode:overlay" opacity="0.8">
<path d="M261.639 220.62C298.759 248.9 324.719 250.86 339.759 241.66C339.979 241.09 340.159 240.51 340.339 239.93C325.219 248.7 299.459 246.42 262.849 218.52C250.559 209.15 240.199 197.91 231.899 185.52C224.839 175.49 218.599 163.83 213.859 150.39C213.279 150.63 212.719 150.87 212.159 151.11C216.949 165.14 223.389 177.24 230.689 187.61C238.989 200 249.349 211.25 261.639 220.61V220.62Z" fill="white"/>
</g>
<path style="mix-blend-mode:overlay" opacity="0.3" d="M200.139 117.18C201.829 116.47 203.529 115.84 205.239 115.21C208.409 90.6599 219.069 60.2499 241.109 36.6599C232.849 37.8399 224.729 39.7799 216.879 42.5399C197.919 67.0299 191.589 97.4599 191.879 120.84C194.509 119.6 197.249 118.38 200.139 117.17V117.18Z" fill="url(#paint8_radial_93_213)"/>
<path style="mix-blend-mode:overlay" opacity="0.4" d="M205.239 115.21C206.089 114.89 206.939 114.57 207.799 114.27C211.339 89.7399 222.489 59.4399 244.949 36.1699C243.669 36.3099 242.389 36.4699 241.119 36.6499C219.079 60.2299 208.419 90.6499 205.249 115.2L205.239 115.21Z" fill="url(#paint9_linear_93_213)"/>
<path style="mix-blend-mode:multiply" opacity="0.4" d="M247.839 0.379919C203.419 3.39992 164.419 24.0799 137.209 55.0899C136.999 55.3199 136.799 55.5599 136.599 55.7899C141.899 61.0399 159.209 71.4099 166.229 75.7299C180.009 60.9099 197.329 49.3499 216.959 42.4599C218.329 40.6899 219.749 38.9499 221.259 37.2499C239.539 16.6199 264.499 5.71992 293.449 5.71992C296.669 5.71992 303.239 6.22992 303.379 6.23992C285.819 1.20992 267.119 -0.930081 247.839 0.379919Z" fill="url(#paint10_linear_93_213)"/>
<path style="mix-blend-mode:multiply" opacity="0.4" d="M267.409 288.04C232.989 290.38 200.809 278.64 176.489 257.77C174.229 257.46 171.959 257.09 169.689 256.63C142.689 251.11 120.759 234.95 106.289 209.87C104.679 207.08 103.239 204.24 101.939 201.35C120.629 275.88 190.459 328.66 269.809 323.27C270.159 315.1 267.749 296.14 267.409 288.05V288.04Z" fill="url(#paint11_linear_93_213)"/>
<path style="mix-blend-mode:multiply" opacity="0.4" d="M420.269 150.84C415.299 150.33 391.019 152.25 385.049 153.24C385.799 164.22 385.109 174.97 383.149 185.31C383.989 187.37 384.779 189.45 385.499 191.59C394.219 217.73 391.179 244.8 376.709 269.88C375.129 272.62 373.419 275.24 371.609 277.77C371.579 277.82 371.539 277.87 371.509 277.91C371.509 277.91 371.579 277.85 371.629 277.81C404.499 245.83 423.639 200.19 420.289 150.85L420.269 150.84Z" fill="url(#paint12_linear_93_213)"/>
<path style="mix-blend-mode:multiply" opacity="0.5" d="M295.119 42.09C298.669 42.45 302.459 43.32 305.869 44.47C306.029 44.52 306.189 44.57 306.349 44.62C306.349 44.62 306.349 44.62 306.349 44.61C320.309 50.3 333.069 58.43 344.089 68.49C344.109 68.51 344.139 68.53 344.159 68.55C349.469 62.48 359.689 55.81 359.689 55.81C359.689 55.81 344.029 39.8 320.089 34.83C303.329 31.35 265.519 27.98 241.669 68.56C241.669 68.56 241.759 68.47 241.899 68.34C243.659 65.67 245.539 63.08 247.659 60.69C259.209 47.66 276.369 40.19 295.099 42.11L295.119 42.09Z" fill="url(#paint13_linear_93_213)"/>
<path style="mix-blend-mode:multiply" opacity="0.5" d="M344.369 253.13C342.279 256.02 339.629 258.87 336.929 261.25C336.809 261.36 336.679 261.48 336.559 261.59C336.559 261.59 336.559 261.59 336.559 261.6C324.659 270.85 311.229 277.83 297.009 282.35C296.979 282.36 296.959 282.37 296.929 282.38C299.529 290.01 300.199 302.2 300.199 302.2C300.199 302.2 321.899 296.65 338.169 278.4C349.559 265.62 371.389 234.57 348.169 193.63C348.169 193.63 348.199 193.76 348.239 193.94C349.669 196.8 350.969 199.72 351.989 202.75C357.499 219.27 355.389 237.87 344.359 253.13H344.369Z" fill="url(#paint14_linear_93_213)"/>
<path style="mix-blend-mode:multiply" opacity="0.5" d="M136.989 190.29C135.529 187.03 134.389 183.32 133.679 179.79C133.649 179.63 133.599 179.46 133.569 179.3C133.569 179.3 133.569 179.3 133.559 179.3C131.509 164.37 132.169 149.25 135.369 134.68C135.369 134.65 135.369 134.62 135.379 134.59C127.469 133.03 116.579 127.51 116.579 127.51C116.579 127.51 110.539 149.08 118.209 172.3C123.579 188.56 139.559 222.99 186.619 223.35C186.619 223.35 186.499 223.31 186.309 223.26C183.119 223.07 179.939 222.74 176.799 222.1C159.739 218.62 144.689 207.48 136.989 190.31V190.29Z" fill="url(#paint15_linear_93_213)"/>
<path style="mix-blend-mode:multiply" opacity="0.6" d="M288.309 105.29C289.599 105.45 290.879 105.5 292.139 105.48C292.139 105.48 291.289 88.6699 289.229 80.0399C287.169 71.4099 284.119 65.6999 280.779 62.4699C278.379 60.1499 270.819 57.2699 264.939 75.0499C263.039 89.8599 273.509 103.4 288.309 105.3V105.29Z" fill="url(#paint16_linear_93_213)"/>
<path style="mix-blend-mode:multiply" opacity="0.5" d="M195.119 164.55C194.619 163.35 194.019 162.22 193.369 161.13C193.369 161.13 179.229 170.27 172.789 176.37C166.349 182.47 162.929 187.96 161.799 192.48C160.989 195.71 162.279 203.71 180.609 199.91C194.379 194.15 200.879 178.32 195.119 164.54V164.55Z" fill="url(#paint17_linear_93_213)"/>
<path style="mix-blend-mode:multiply" opacity="0.6" d="M293.029 215.61C292.239 216.65 291.559 217.73 290.949 218.84C290.949 218.84 305.929 226.51 314.439 229.04C322.939 231.57 329.409 231.78 333.889 230.5C337.089 229.58 343.369 224.47 330.919 210.49C319.049 201.44 302.089 203.74 293.039 215.61H293.029Z" fill="url(#paint18_linear_93_213)"/>
<path style="mix-blend-mode:multiply" opacity="0.3" d="M287.209 145.9C283.799 157.21 279.029 167.47 273.189 176.53C272.869 177 272.579 177.48 272.249 177.96C272.239 177.98 272.229 178 272.209 178.01C268.349 183.58 263.759 189.07 258.369 194.38C262.069 198.32 266.079 202.14 270.479 205.76C276.009 210.12 281.419 213.63 286.319 216.4C298.659 203.59 307.459 190.03 313.669 176.63C316.099 171.68 318.249 166.57 320.099 161.32C314.409 157.13 308.639 153.79 303.329 151.53C297.829 149.19 292.459 147.35 287.209 145.9Z" fill="url(#paint19_linear_93_213)"/>
<path style="mix-blend-mode:multiply" opacity="0.3" d="M176.489 257.77C207.169 261.95 236.689 252.21 256.799 240.26C254.409 238.6 251.979 236.84 249.499 234.94C241.739 229.03 234.749 222.36 228.569 215.14C213.439 221.76 194.409 225.64 176.759 222.03C159.699 218.55 144.649 207.41 136.949 190.24C135.489 186.98 134.349 183.27 133.639 179.74C138.099 211.02 153.879 238.35 176.509 257.76L176.489 257.77Z" fill="url(#paint20_linear_93_213)"/>
<path style="mix-blend-mode:multiply" opacity="0.3" d="M258.369 194.38C250.289 185.78 243.799 176.52 238.869 166.94C238.619 166.43 238.349 165.94 238.099 165.42C238.099 165.4 238.079 165.38 238.069 165.36C235.179 159.23 232.719 152.5 230.809 145.18C225.559 146.42 220.259 147.98 214.939 149.97C208.419 152.57 202.679 155.5 197.839 158.35C202.759 175.43 210.049 189.88 218.539 201.95C221.599 206.52 224.939 210.93 228.559 215.15C235.049 212.31 240.829 208.98 245.449 205.51C250.219 201.93 254.489 198.2 258.369 194.39V194.38Z" fill="url(#paint21_linear_93_213)"/>
<path style="mix-blend-mode:multiply" opacity="0.3" d="M216.859 42.5801C197.899 67.0701 191.569 97.5001 191.859 120.88C194.499 119.64 197.249 118.41 200.149 117.2C209.139 113.44 218.389 110.73 227.729 108.98C229.569 92.5701 235.719 74.1501 247.669 60.6701C259.219 47.6401 276.379 40.1701 295.109 42.0901C298.659 42.4501 302.449 43.3201 305.859 44.4701C306.019 44.5201 306.179 44.5701 306.339 44.6201C306.339 44.6201 306.339 44.6201 306.339 44.6101C289.089 37.5801 270.029 34.2601 250.219 35.6101C238.589 36.4001 227.439 38.7801 216.939 42.4701C216.909 42.5101 216.879 42.5501 216.849 42.5801H216.859Z" fill="url(#paint22_linear_93_213)"/>
<path style="mix-blend-mode:multiply" opacity="0.3" d="M383.079 185.12C371.349 156.44 348.139 135.74 327.729 124.3C327.479 127.21 327.169 130.2 326.769 133.32C325.529 142.99 323.259 152.36 320.099 161.32C333.399 171.11 346.289 185.66 351.999 202.76C357.509 219.28 355.399 237.88 344.369 253.14C342.279 256.03 339.629 258.88 336.929 261.26C336.889 261.29 336.849 261.33 336.809 261.37C360.569 242.7 377.369 215.79 383.129 185.31C383.109 185.25 383.089 185.19 383.059 185.13L383.079 185.12Z" fill="url(#paint23_linear_93_213)"/>
<path style="mix-blend-mode:multiply" opacity="0.3" d="M227.649 128.44C228.369 134.36 229.459 139.92 230.819 145.18C242.319 142.47 253.599 141.48 264.369 142C264.939 142.04 265.499 142.05 266.069 142.1C266.089 142.1 266.109 142.1 266.129 142.1C272.879 142.66 279.919 143.89 287.199 145.9C288.759 140.73 290.059 135.36 290.989 129.75C291.999 122.77 292.329 116.32 292.289 110.69C275.039 106.41 258.909 105.58 244.209 106.9C238.709 107.27 233.209 107.96 227.739 108.98C226.949 116.02 226.949 122.7 227.639 128.44H227.649Z" fill="url(#paint24_linear_93_213)"/>
<path d="M1160.35 113.455V192H1148.46V125.344H1148L1129.21 137.616V126.264L1148.81 113.455H1160.35ZM1184.77 192.729C1182.68 192.729 1180.88 191.987 1179.37 190.504C1177.86 188.996 1177.1 187.18 1177.1 185.058C1177.1 182.962 1177.86 181.172 1179.37 179.689C1180.88 178.18 1182.68 177.426 1184.77 177.426C1186.87 177.426 1188.67 178.18 1190.18 179.689C1191.69 181.172 1192.45 182.962 1192.45 185.058C1192.45 186.464 1192.09 187.756 1191.37 188.932C1190.68 190.082 1189.76 191.003 1188.61 191.693C1187.46 192.384 1186.18 192.729 1184.77 192.729ZM1232.15 193.304C1226.09 193.278 1220.91 191.68 1216.62 188.51C1212.32 185.339 1209.04 180.724 1206.76 174.665C1204.48 168.605 1203.35 161.305 1203.35 152.766C1203.35 144.251 1204.48 136.977 1206.76 130.943C1209.06 124.909 1212.36 120.307 1216.66 117.136C1220.98 113.966 1226.14 112.381 1232.15 112.381C1238.16 112.381 1243.31 113.979 1247.61 117.175C1251.9 120.345 1255.19 124.947 1257.46 130.982C1259.76 136.99 1260.91 144.251 1260.91 152.766C1260.91 161.331 1259.78 168.643 1257.5 174.703C1255.22 180.737 1251.94 185.352 1247.64 188.548C1243.35 191.719 1238.18 193.304 1232.15 193.304ZM1232.15 183.064C1237.47 183.064 1241.62 180.469 1244.61 175.278C1247.63 170.088 1249.14 162.584 1249.14 152.766C1249.14 146.246 1248.45 140.736 1247.07 136.236C1245.71 131.71 1243.76 128.284 1241.2 125.957C1238.67 123.605 1235.65 122.429 1232.15 122.429C1226.86 122.429 1222.7 125.037 1219.69 130.253C1216.67 135.469 1215.15 142.973 1215.12 152.766C1215.12 159.311 1215.8 164.847 1217.15 169.372C1218.53 173.872 1220.49 177.286 1223.02 179.612C1225.55 181.913 1228.6 183.064 1232.15 183.064Z" fill="white"/>
<path d="M990.505 231.635C986.229 231.635 982.105 232.169 980.425 232.626C977.982 233.312 977.371 234.379 976.912 236.589L967.215 281.252C967.062 282.167 966.909 282.929 966.909 283.691C966.909 285.903 968.36 287.349 970.727 287.349C973.324 287.349 974.393 285.673 974.927 283.082L977.676 270.353C979.585 270.582 982.105 270.81 985.695 270.81C1001.5 270.81 1011.35 262.275 1011.35 249.394C1011.35 238.114 1003.49 231.635 990.505 231.635ZM985.313 263.493C982.869 263.493 980.96 263.417 979.203 263.188L984.32 239.485C985.923 239.256 988.291 238.951 990.735 238.951C999.134 238.951 1003.41 242.915 1003.41 249.469C1003.41 257.854 997.302 263.494 985.311 263.494L985.313 263.493Z" fill="white"/>
<path d="M1239.3 272.64C1238 272.64 1237.16 273.402 1235.55 275.155C1232.73 278.051 1230.97 279.651 1228.76 279.651C1226.77 279.651 1225.7 278.051 1225.7 275.459C1225.7 274.011 1226.01 272.259 1226.39 270.353L1229.22 257.091H1237.7C1240.37 257.091 1241.97 255.567 1241.97 252.823C1241.97 251.299 1240.98 250.156 1238.69 250.156H1230.74L1232.12 243.982C1232.27 243.068 1232.42 242.229 1232.42 241.467C1232.42 239.333 1230.97 237.809 1228.61 237.809C1226.08 237.809 1224.94 239.486 1224.41 242.077L1222.65 250.156H1219.06C1216.31 250.156 1214.71 251.68 1214.71 254.424C1214.71 255.948 1215.78 257.091 1218.07 257.091H1221.2L1218.37 270.199C1218.07 271.647 1217.68 274.01 1217.68 276.449C1217.68 282.623 1220.89 287.119 1227.76 287.119C1231.74 287.119 1235.25 285.138 1237.92 282.775C1240.52 280.489 1242.43 277.669 1242.43 275.839C1242.43 274.088 1241.05 272.64 1239.3 272.64Z" fill="white"/>
<path d="M1063.66 236.132C1063.66 233.919 1062.13 232.473 1059.77 232.473C1057.25 232.473 1056.1 234.15 1055.57 236.741L1046.02 281.023C1045.79 281.938 1045.64 282.7 1045.64 283.462C1045.64 285.674 1047.17 287.12 1049.46 287.12C1052.05 287.12 1053.2 285.443 1053.73 282.852L1063.28 238.57C1063.43 237.656 1063.66 236.894 1063.66 236.132Z" fill="white"/>
<path d="M1199.97 249.393C1187.75 249.393 1179.43 261.512 1179.43 273.02C1179.43 273.236 1179.43 273.449 1179.44 273.661C1177.52 276.565 1175.08 279.575 1173.4 279.575C1172.17 279.575 1171.72 278.432 1171.72 276.678C1171.72 274.545 1172.32 270.962 1173.01 267.837L1179.35 238.57C1179.5 237.656 1179.66 236.894 1179.66 236.132C1179.66 233.919 1178.21 232.473 1175.84 232.473C1173.24 232.473 1172.17 234.15 1171.64 236.741L1168.2 252.594C1166.37 250.689 1163.69 249.393 1159.65 249.393C1151.53 249.393 1143.37 255.628 1140.19 265.189C1136.69 274.228 1133.56 279.575 1131.09 279.575C1130.17 279.575 1129.64 278.813 1129.64 277.517C1129.64 273.706 1131.78 264.409 1132.69 259.911C1133 258.234 1133.15 257.548 1133.15 256.557C1133.15 253.204 1127.58 249.24 1120.32 249.24C1111.93 249.24 1104.34 254.542 1100.53 262.423C1094.87 272.402 1089.68 279.577 1087.11 279.577C1085.96 279.577 1085.58 278.128 1085.27 276.756L1083.36 266.238L1095.05 256.711C1096.12 255.796 1097.49 254.499 1097.49 252.824C1097.49 250.766 1096.12 249.395 1094.06 249.395C1092.53 249.395 1091.23 250.31 1089.93 251.376L1072.37 265.856L1078.25 238.57C1078.4 237.656 1078.63 236.894 1078.63 236.132C1078.63 233.919 1077.1 232.473 1074.74 232.473C1072.22 232.473 1071.07 234.15 1070.54 236.741L1060.99 281.023C1060.76 281.938 1060.61 282.7 1060.61 283.462C1060.61 285.674 1062.14 287.12 1064.43 287.12C1067.02 287.12 1068.17 285.443 1068.7 282.852L1069.93 277.136L1077.1 271.343L1078.86 280.184C1079.55 283.691 1081.38 287.12 1086.12 287.12C1090.83 287.12 1094.53 282.827 1098.24 277.025C1099.37 283.101 1103.7 287.12 1109.71 287.12C1115.74 287.12 1119.87 283.538 1122.54 278.737V278.889C1122.54 283.843 1125.06 287.12 1129.49 287.12C1133.49 287.12 1136.82 284.71 1139.79 279.587C1141.48 284.052 1145.24 287.12 1150.49 287.12C1156.67 287.12 1161.1 283.386 1163.93 278.203V278.66C1163.93 284.148 1166.68 287.122 1171.18 287.122C1175.16 287.122 1178.54 284.818 1181.43 281.064C1183.62 284.814 1187.55 287.122 1192.87 287.122C1205.09 287.122 1213.41 275.004 1213.41 263.419C1213.41 255.262 1208.45 249.393 1199.97 249.393ZM1123.84 264.865C1121.62 274.391 1116.89 279.803 1111.54 279.803C1107.95 279.803 1105.97 277.059 1105.97 272.945C1105.97 264.866 1111.85 256.177 1119.71 256.177C1122.08 256.177 1123.91 256.863 1125.51 257.854L1123.84 264.865ZM1166.37 260.827C1163.93 272.031 1158.35 279.805 1152.24 279.805C1148.88 279.805 1146.9 277.214 1146.9 272.947C1146.9 264.792 1152.55 256.332 1160.11 256.332C1163.01 256.332 1165.22 257.322 1166.83 258.618L1166.37 260.827ZM1193.79 279.803C1189.36 279.803 1187.52 276.602 1187.52 272.563C1187.52 265.17 1192.64 256.71 1199.05 256.71C1203.48 256.71 1205.32 259.911 1205.32 263.95C1205.32 271.42 1200.2 279.803 1193.79 279.803Z" fill="white"/>
<path d="M1030.37 249.394C1018.15 249.394 1009.82 261.512 1009.82 273.021C1009.82 281.252 1014.79 287.121 1023.26 287.121C1035.48 287.121 1043.81 275.003 1043.81 263.418C1043.81 255.263 1038.84 249.394 1030.37 249.394ZM1024.18 279.804C1019.75 279.804 1017.92 276.603 1017.92 272.564C1017.92 265.171 1023.04 256.711 1029.45 256.711C1033.88 256.711 1035.71 259.912 1035.71 263.951C1035.71 271.42 1030.6 279.804 1024.18 279.804Z" fill="white"/>
<path d="M913.768 236.366C921.55 236.366 927.859 232.702 927.859 228.183C927.859 223.664 921.55 220 913.768 220C905.986 220 899.678 223.664 899.678 228.183C899.678 232.702 905.986 236.366 913.768 236.366Z" fill="#E6007A"/>
<path d="M913.768 298C921.55 298 927.859 294.336 927.859 289.817C927.859 285.298 921.55 281.634 913.768 281.634C905.986 281.634 899.678 285.298 899.678 289.817C899.678 294.336 905.986 298 913.768 298Z" fill="#E6007A"/>
<path d="M894.131 247.683C898.022 240.957 897.997 233.672 894.076 231.413C890.154 229.153 883.821 232.774 879.93 239.501C876.039 246.227 876.064 253.511 879.985 255.771C883.906 258.031 890.24 254.41 894.131 247.683Z" fill="#E6007A"/>
<path d="M947.61 278.5C951.501 271.774 951.476 264.489 947.555 262.229C943.634 259.97 937.3 263.591 933.41 270.317C929.519 277.044 929.543 284.328 933.465 286.588C937.386 288.847 943.719 285.226 947.61 278.5Z" fill="#E6007A"/>
<path d="M894.076 286.587C897.997 284.327 898.022 277.043 894.131 270.316C890.24 263.59 883.906 259.969 879.985 262.229C876.064 264.488 876.039 271.773 879.93 278.499C883.821 285.226 890.154 288.847 894.076 286.587Z" fill="#E6007A"/>
<path d="M947.555 255.771C951.476 253.512 951.501 246.227 947.61 239.501C943.719 232.774 937.386 229.153 933.465 231.413C929.543 233.673 929.519 240.957 933.41 247.684C937.3 254.41 943.634 258.031 947.555 255.771Z" fill="#E6007A"/>
<defs>
<linearGradient id="paint0_linear_93_213" x1="148.389" y1="272.26" x2="354.739" y2="65.91" gradientUnits="userSpaceOnUse">
<stop stop-color="#E6007A"/>
<stop offset="0.21" stop-color="#703AC2"/>
<stop offset="0.46" stop-color="#0070EB"/>
<stop offset="0.77" stop-color="#0297FB"/>
<stop offset="1" stop-color="#0AE2FF"/>
</linearGradient>
<radialGradient id="paint1_radial_93_213" cx="0" cy="0" r="1" gradientUnits="userSpaceOnUse" gradientTransform="translate(304.949 129.07) scale(61.53 61.53)">
<stop stop-color="white"/>
<stop offset="1" stop-color="white" stop-opacity="0"/>
</radialGradient>
<radialGradient id="paint2_radial_93_213" cx="0" cy="0" r="1" gradientUnits="userSpaceOnUse" gradientTransform="translate(213.999 243.21) scale(35.8 35.8)">
<stop stop-color="white"/>
<stop offset="1" stop-color="white" stop-opacity="0"/>
</radialGradient>
<linearGradient id="paint3_linear_93_213" x1="160.279" y1="237.15" x2="194.789" y2="236.67" gradientUnits="userSpaceOnUse">
<stop stop-color="white" stop-opacity="0"/>
<stop offset="1" stop-color="white"/>
</linearGradient>
<radialGradient id="paint4_radial_93_213" cx="0" cy="0" r="1" gradientUnits="userSpaceOnUse" gradientTransform="translate(207.393 138.252) rotate(-120) scale(61.53)">
<stop stop-color="white"/>
<stop offset="1" stop-color="white" stop-opacity="0"/>
</radialGradient>
<radialGradient id="paint5_radial_93_213" cx="0" cy="0" r="1" gradientUnits="userSpaceOnUse" gradientTransform="translate(351.716 159.947) rotate(-120) scale(35.8 35.8)">
<stop stop-color="white"/>
<stop offset="1" stop-color="white" stop-opacity="0"/>
</radialGradient>
<linearGradient id="paint6_linear_93_213" x1="373.336" y1="209.494" x2="355.665" y2="179.848" gradientUnits="userSpaceOnUse">
<stop stop-color="white" stop-opacity="0"/>
<stop offset="1" stop-color="white"/>
</linearGradient>
<radialGradient id="paint7_radial_93_213" cx="0" cy="0" r="1" gradientUnits="userSpaceOnUse" gradientTransform="translate(261.208 215.289) rotate(120) scale(61.53 61.53)">
<stop stop-color="white"/>
<stop offset="1" stop-color="white" stop-opacity="0"/>
</radialGradient>
<radialGradient id="paint8_radial_93_213" cx="0" cy="0" r="1" gradientUnits="userSpaceOnUse" gradientTransform="translate(210.737 82.3071) rotate(120) scale(35.8 35.8)">
<stop stop-color="white"/>
<stop offset="1" stop-color="white" stop-opacity="0"/>
</radialGradient>
<linearGradient id="paint9_linear_93_213" x1="242.837" y1="38.8092" x2="226.002" y2="68.9271" gradientUnits="userSpaceOnUse">
<stop stop-color="white" stop-opacity="0"/>
<stop offset="1" stop-color="white"/>
</linearGradient>
<linearGradient id="paint10_linear_93_213" x1="250.339" y1="23.4999" x2="197.629" y2="38.8299" gradientUnits="userSpaceOnUse">
<stop stop-color="#231F20"/>
<stop offset="1" stop-color="white"/>
</linearGradient>
<linearGradient id="paint11_linear_93_213" x1="150.719" y1="224.56" x2="194.809" y2="270.57" gradientUnits="userSpaceOnUse">
<stop stop-color="#231F20"/>
<stop offset="1" stop-color="white"/>
</linearGradient>
<linearGradient id="paint12_linear_93_213" x1="387.359" y1="217.63" x2="402.699" y2="170.98" gradientUnits="userSpaceOnUse">
<stop stop-color="#231F20"/>
<stop offset="1" stop-color="white"/>
</linearGradient>
<linearGradient id="paint13_linear_93_213" x1="274.369" y1="50.17" x2="345.049" y2="66.36" gradientUnits="userSpaceOnUse">
<stop stop-color="#231F20"/>
<stop offset="1" stop-color="white"/>
</linearGradient>
<linearGradient id="paint14_linear_93_213" x1="347.745" y1="231.11" x2="298.392" y2="284.231" gradientUnits="userSpaceOnUse">
<stop stop-color="#231F20"/>
<stop offset="1" stop-color="white"/>
</linearGradient>
<linearGradient id="paint15_linear_93_213" x1="154.368" y1="204.221" x2="133.049" y2="134.915" gradientUnits="userSpaceOnUse">
<stop stop-color="#231F20"/>
<stop offset="1" stop-color="white"/>
</linearGradient>
<linearGradient id="paint16_linear_93_213" x1="289.819" y1="76.2399" x2="267.449" y2="98.6099" gradientUnits="userSpaceOnUse">
<stop stop-color="#231F20"/>
<stop offset="1" stop-color="white"/>
</linearGradient>
<linearGradient id="paint17_linear_93_213" x1="169.214" y1="177.764" x2="199.764" y2="185.957" gradientUnits="userSpaceOnUse">
<stop stop-color="#231F20"/>
<stop offset="1" stop-color="white"/>
</linearGradient>
<linearGradient id="paint18_linear_93_213" x1="317.424" y1="231.441" x2="309.245" y2="200.888" gradientUnits="userSpaceOnUse">
<stop stop-color="#231F20"/>
<stop offset="1" stop-color="white"/>
</linearGradient>
<linearGradient id="paint19_linear_93_213" x1="270.929" y1="204.28" x2="284.349" y2="185.74" gradientUnits="userSpaceOnUse">
<stop stop-color="#231F20"/>
<stop offset="1" stop-color="white"/>
</linearGradient>
<linearGradient id="paint20_linear_93_213" x1="224.719" y1="196.25" x2="197.879" y2="209.03" gradientUnits="userSpaceOnUse">
<stop stop-color="#231F20"/>
<stop offset="1" stop-color="white"/>
</linearGradient>
<linearGradient id="paint21_linear_93_213" x1="214.979" y1="151.58" x2="223.289" y2="168.83" gradientUnits="userSpaceOnUse">
<stop stop-color="#231F20"/>
<stop offset="1" stop-color="white"/>
</linearGradient>
<linearGradient id="paint22_linear_93_213" x1="253.629" y1="98.2901" x2="247.879" y2="78.4801" gradientUnits="userSpaceOnUse">
<stop stop-color="#231F20"/>
<stop offset="1" stop-color="white"/>
</linearGradient>
<linearGradient id="paint23_linear_93_213" x1="315.609" y1="188.99" x2="332.219" y2="192.82" gradientUnits="userSpaceOnUse">
<stop stop-color="#231F20"/>
<stop offset="1" stop-color="white"/>
</linearGradient>
<linearGradient id="paint24_linear_93_213" x1="289.529" y1="132.86" x2="268.449" y2="129.03" gradientUnits="userSpaceOnUse">
<stop stop-color="#231F20"/>
<stop offset="1" stop-color="white"/>
</linearGradient>
</defs>
</svg>
