<svg width="1364" height="324" viewBox="0 0 1364 324" fill="none" xmlns="http://www.w3.org/2000/svg">
<path d="M370.269 150.84C364.199 61.68 286.999 -5.69 197.839 0.380003C153.419 3.4 114.419 24.08 87.2091 55.09L87.1291 55.04C86.9491 55.29 86.7791 55.54 86.5891 55.8C59.5591 86.96 44.3591 128.39 47.3791 172.8C47.6691 177.03 48.1691 181.2 48.7691 185.32C48.7991 185.51 48.8191 185.69 48.8491 185.88C49.2591 188.6 49.7291 191.3 50.2691 193.98C50.2691 194.03 50.2891 194.08 50.2991 194.13C50.7891 196.55 51.3391 198.95 51.9291 201.33C51.9291 201.33 51.9291 201.33 51.9291 201.34C70.6191 275.87 140.449 328.66 219.799 323.26C308.959 317.2 376.329 240 370.259 150.84H370.269ZM335.049 153.24C335.799 164.22 335.109 174.97 333.149 185.31C333.129 185.25 333.109 185.19 333.079 185.13C321.349 156.45 298.139 135.75 277.729 124.31C281.859 75.72 265.379 55.25 246.719 51.92C246.209 51.82 245.699 51.74 245.179 51.67C230.369 49.77 216.829 60.24 214.929 75.04C213.029 89.85 223.499 103.39 238.299 105.29C239.589 105.45 240.869 105.5 242.129 105.48C242.209 107.12 242.259 108.86 242.279 110.68C225.029 106.4 208.899 105.57 194.199 106.89C188.699 107.26 183.199 107.95 177.729 108.97C179.569 92.56 185.719 74.14 197.669 60.66C209.219 47.63 226.379 40.16 245.109 42.08C248.659 42.44 252.449 43.31 255.859 44.46C256.019 44.51 256.179 44.56 256.339 44.61C256.339 44.61 256.339 44.61 256.339 44.6C299.719 62.27 331.639 103.44 335.029 153.23L335.049 153.24ZM222.259 177.96C222.259 177.96 222.239 178 222.219 178.01C218.359 183.58 213.769 189.07 208.379 194.38C200.299 185.78 193.809 176.52 188.879 166.94C188.629 166.43 188.359 165.94 188.109 165.42C188.109 165.4 188.089 165.38 188.079 165.36C185.189 159.23 182.729 152.5 180.819 145.18C192.319 142.47 203.599 141.48 214.369 142C214.939 142.04 215.499 142.05 216.069 142.1C216.089 142.1 216.109 142.1 216.129 142.1C222.879 142.66 229.919 143.89 237.199 145.9C233.789 157.21 229.019 167.47 223.179 176.53C222.859 177 222.569 177.48 222.239 177.96H222.259ZM166.959 42.46C166.959 42.46 166.899 42.54 166.869 42.57C147.909 67.06 141.579 97.49 141.869 120.87C97.7291 141.59 88.2391 166.1 94.6891 183.92C94.8591 184.41 95.0391 184.89 95.2491 185.37C101.009 199.14 116.839 205.64 130.609 199.88C144.379 194.12 150.879 178.29 145.119 164.51C144.619 163.31 144.019 162.18 143.369 161.09C144.769 160.19 146.259 159.26 147.849 158.33C152.769 175.41 160.059 189.86 168.549 201.93C171.609 206.5 174.949 210.91 178.569 215.13C163.439 221.75 144.409 225.63 126.759 222.02C109.699 218.54 94.6491 207.4 86.9491 190.23C85.4891 186.97 84.3491 183.26 83.6391 179.73C83.1991 176.65 82.8291 173.54 82.6191 170.39C78.6791 112.42 114.639 60.82 166.979 42.44L166.959 42.46ZM217.409 288.04C182.989 290.38 150.809 278.64 126.489 257.77C157.169 261.95 186.689 252.21 206.799 240.26C246.829 268.15 272.809 264.11 285.029 249.62C285.369 249.23 285.699 248.83 286.009 248.41C295.059 236.54 292.759 219.58 280.889 210.53C269.019 201.48 252.059 203.78 243.009 215.65C242.219 216.69 241.539 217.77 240.929 218.88C239.459 218.13 237.919 217.3 236.329 216.39C248.669 203.58 257.469 190.02 263.679 176.62C266.109 171.67 268.259 166.56 270.109 161.31C283.409 171.1 296.299 185.65 302.009 202.75C307.519 219.27 305.409 237.87 294.379 253.13C292.289 256.02 289.639 258.87 286.939 261.25C286.899 261.28 286.859 261.32 286.819 261.36C267.529 276.52 243.669 286.25 217.409 288.04Z" fill="url(#paint0_linear_93_330)"/>
<path style="mix-blend-mode:overlay" opacity="0.9" d="M246.719 51.9199C246.209 51.8199 245.699 51.7399 245.179 51.6699C242.559 51.3299 239.979 51.3999 237.499 51.7999C252.979 60.2199 264.269 83.6899 258.329 129.97C256.359 145.3 251.809 159.89 245.219 173.27C239.889 184.78 232.629 196.4 222.869 207.57C227.549 211.08 232.119 214.02 236.309 216.4C248.649 203.59 257.449 190.03 263.659 176.63C270.239 163.24 274.799 148.66 276.769 133.33C283.829 78.2199 266.489 55.4499 246.719 51.9199Z" fill="url(#paint1_radial_93_330)"/>
<g style="mix-blend-mode:overlay" opacity="0.8">
<path d="M258.339 129.97C264.269 83.68 252.989 60.22 237.509 51.8C236.909 51.9 236.309 52.02 235.719 52.16C250.879 60.87 261.779 84.31 255.929 129.97C253.959 145.3 249.409 159.89 242.819 173.27C237.659 184.4 230.689 195.63 221.419 206.45C221.909 206.83 222.399 207.2 222.889 207.56C232.639 196.39 239.899 184.77 245.239 173.26C251.819 159.87 256.379 145.29 258.349 129.96L258.339 129.97Z" fill="white"/>
</g>
<path style="mix-blend-mode:overlay" opacity="0.5" d="M199.499 234.95C198.049 233.84 196.649 232.68 195.249 231.52C172.399 241.05 140.739 247.03 109.289 239.73C114.439 246.29 120.189 252.35 126.499 257.77C157.179 261.95 186.699 252.21 206.809 240.26C204.419 238.6 201.989 236.84 199.509 234.94L199.499 234.95Z" fill="url(#paint2_radial_93_330)"/>
<path style="mix-blend-mode:overlay" opacity="0.6" d="M195.239 231.52C194.539 230.94 193.839 230.37 193.149 229.77C170.129 238.97 138.319 244.47 106.939 236.65C107.699 237.69 108.479 238.72 109.279 239.73C140.729 247.03 172.399 241.05 195.239 231.52Z" fill="url(#paint3_linear_93_330)"/>
<path style="mix-blend-mode:overlay" opacity="0.9" d="M94.6891 183.96C94.8591 184.45 95.0391 184.93 95.2491 185.41C96.2691 187.85 97.6191 190.04 99.1991 192C98.7491 174.38 113.429 152.88 156.479 134.87C170.739 128.91 185.649 125.56 200.539 124.57C213.179 123.43 226.869 123.91 241.419 126.77C242.119 120.96 242.379 115.53 242.349 110.72C225.089 106.44 208.949 105.6 194.239 106.92C179.359 107.91 164.439 111.26 150.179 117.22C98.9191 138.66 87.8791 165.06 94.6991 183.95L94.6891 183.96Z" fill="url(#paint4_radial_93_330)"/>
<g style="mix-blend-mode:overlay" opacity="0.8">
<path d="M156.479 134.87C113.429 152.87 98.7494 174.38 99.1994 192C99.5894 192.48 99.9894 192.92 100.409 193.37C100.379 175.89 115.229 154.72 157.689 136.96C171.949 131 186.859 127.65 201.749 126.66C213.969 125.56 227.179 125.99 241.189 128.6C241.269 127.98 241.339 127.38 241.419 126.77C226.869 123.91 213.179 123.43 200.539 124.57C185.659 125.56 170.739 128.91 156.479 134.87Z" fill="white"/>
</g>
<path style="mix-blend-mode:overlay" opacity="0.4" d="M276.809 133.34C276.579 135.15 276.269 136.95 275.969 138.74C295.649 153.76 316.659 178.2 326.059 209.08C329.169 201.34 331.549 193.33 333.079 185.16C321.349 156.5 298.169 135.8 277.759 124.36C277.509 127.26 277.199 130.24 276.809 133.34Z" fill="url(#paint5_radial_93_330)"/>
<path style="mix-blend-mode:overlay" opacity="0.5" d="M275.969 138.73C275.819 139.63 275.669 140.52 275.499 141.41C294.979 156.74 315.639 181.55 324.559 212.63C325.079 211.45 325.579 210.26 326.059 209.07C316.659 178.19 295.649 153.75 275.969 138.73Z" fill="url(#paint6_linear_93_330)"/>
<path style="mix-blend-mode:overlay" opacity="0.9" d="M285.039 249.59C285.379 249.2 285.709 248.8 286.019 248.38C287.619 246.28 288.849 244.01 289.749 241.67C274.719 250.87 248.749 248.91 211.629 220.63C199.339 211.26 188.979 200.02 180.679 187.63C173.379 177.26 166.939 165.16 162.149 151.13C156.769 153.43 151.929 155.92 147.789 158.35C152.709 175.44 160.059 189.84 168.559 201.92C176.859 214.31 187.219 225.56 199.509 234.92C243.709 268.59 272.089 264.96 285.039 249.6V249.59Z" fill="url(#paint7_radial_93_330)"/>
<g style="mix-blend-mode:overlay" opacity="0.8">
<path d="M211.639 220.62C248.759 248.9 274.719 250.86 289.759 241.66C289.979 241.09 290.159 240.51 290.339 239.93C275.219 248.7 249.459 246.42 212.849 218.52C200.559 209.15 190.199 197.91 181.899 185.52C174.839 175.49 168.599 163.83 163.859 150.39C163.279 150.63 162.719 150.87 162.159 151.11C166.949 165.14 173.389 177.24 180.689 187.61C188.989 200 199.349 211.25 211.639 220.61V220.62Z" fill="white"/>
</g>
<path style="mix-blend-mode:overlay" opacity="0.3" d="M150.139 117.18C151.829 116.47 153.529 115.84 155.239 115.21C158.409 90.6599 169.069 60.2499 191.109 36.6599C182.849 37.8399 174.729 39.7799 166.879 42.5399C147.919 67.0299 141.589 97.4599 141.879 120.84C144.509 119.6 147.249 118.38 150.139 117.17V117.18Z" fill="url(#paint8_radial_93_330)"/>
<path style="mix-blend-mode:overlay" opacity="0.4" d="M155.239 115.21C156.089 114.89 156.939 114.57 157.799 114.27C161.339 89.7399 172.489 59.4399 194.949 36.1699C193.669 36.3099 192.389 36.4699 191.119 36.6499C169.079 60.2299 158.419 90.6499 155.249 115.2L155.239 115.21Z" fill="url(#paint9_linear_93_330)"/>
<path style="mix-blend-mode:multiply" opacity="0.4" d="M197.84 0.379919C153.42 3.39992 114.42 24.0799 87.2096 55.0899C86.9996 55.3199 86.7996 55.5599 86.5996 55.7899C91.8996 61.0399 109.21 71.4099 116.23 75.7299C130.01 60.9099 147.33 49.3499 166.96 42.4599C168.33 40.6899 169.75 38.9499 171.26 37.2499C189.54 16.6199 214.5 5.71992 243.45 5.71992C246.67 5.71992 253.24 6.22992 253.38 6.23992C235.82 1.20992 217.12 -0.930081 197.84 0.379919Z" fill="url(#paint10_linear_93_330)"/>
<path style="mix-blend-mode:multiply" opacity="0.4" d="M217.409 288.04C182.989 290.38 150.809 278.64 126.489 257.77C124.229 257.46 121.959 257.09 119.689 256.63C92.6895 251.11 70.7595 234.95 56.2895 209.87C54.6795 207.08 53.2395 204.24 51.9395 201.35C70.6295 275.88 140.459 328.66 219.809 323.27C220.159 315.1 217.749 296.14 217.409 288.05V288.04Z" fill="url(#paint11_linear_93_330)"/>
<path style="mix-blend-mode:multiply" opacity="0.4" d="M370.27 150.84C365.3 150.33 341.02 152.25 335.05 153.24C335.8 164.22 335.11 174.97 333.15 185.31C333.99 187.37 334.78 189.45 335.5 191.59C344.22 217.73 341.18 244.8 326.71 269.88C325.13 272.62 323.42 275.24 321.61 277.77C321.58 277.82 321.54 277.87 321.51 277.91C321.51 277.91 321.58 277.85 321.63 277.81C354.5 245.83 373.64 200.19 370.29 150.85L370.27 150.84Z" fill="url(#paint12_linear_93_330)"/>
<path style="mix-blend-mode:multiply" opacity="0.5" d="M245.119 42.09C248.669 42.45 252.459 43.32 255.869 44.47C256.029 44.52 256.189 44.57 256.349 44.62C256.349 44.62 256.349 44.62 256.349 44.61C270.309 50.3 283.069 58.43 294.089 68.49C294.109 68.51 294.139 68.53 294.159 68.55C299.469 62.48 309.689 55.81 309.689 55.81C309.689 55.81 294.029 39.8 270.089 34.83C253.329 31.35 215.519 27.98 191.669 68.56C191.669 68.56 191.759 68.47 191.899 68.34C193.659 65.67 195.539 63.08 197.659 60.69C209.209 47.66 226.369 40.19 245.099 42.11L245.119 42.09Z" fill="url(#paint13_linear_93_330)"/>
<path style="mix-blend-mode:multiply" opacity="0.5" d="M294.37 253.13C292.28 256.02 289.63 258.87 286.93 261.25C286.81 261.36 286.68 261.48 286.56 261.59C286.56 261.59 286.56 261.59 286.56 261.6C274.66 270.85 261.23 277.83 247.01 282.35C246.98 282.36 246.96 282.37 246.93 282.38C249.53 290.01 250.2 302.2 250.2 302.2C250.2 302.2 271.9 296.65 288.17 278.4C299.56 265.62 321.39 234.57 298.17 193.63C298.17 193.63 298.2 193.76 298.24 193.94C299.67 196.8 300.97 199.72 301.99 202.75C307.5 219.27 305.39 237.87 294.36 253.13H294.37Z" fill="url(#paint14_linear_93_330)"/>
<path style="mix-blend-mode:multiply" opacity="0.5" d="M86.989 190.29C85.529 187.03 84.389 183.32 83.679 179.79C83.649 179.63 83.599 179.46 83.569 179.3C83.569 179.3 83.569 179.3 83.559 179.3C81.509 164.37 82.169 149.25 85.369 134.68C85.369 134.65 85.369 134.62 85.379 134.59C77.469 133.03 66.579 127.51 66.579 127.51C66.579 127.51 60.539 149.08 68.209 172.3C73.579 188.56 89.559 222.99 136.619 223.35C136.619 223.35 136.499 223.31 136.309 223.26C133.119 223.07 129.939 222.74 126.799 222.1C109.739 218.62 94.689 207.48 86.989 190.31V190.29Z" fill="url(#paint15_linear_93_330)"/>
<path style="mix-blend-mode:multiply" opacity="0.6" d="M238.309 105.29C239.599 105.45 240.879 105.5 242.139 105.48C242.139 105.48 241.289 88.6699 239.229 80.0399C237.169 71.4099 234.119 65.6999 230.779 62.4699C228.379 60.1499 220.819 57.2699 214.939 75.0499C213.039 89.8599 223.509 103.4 238.309 105.3V105.29Z" fill="url(#paint16_linear_93_330)"/>
<path style="mix-blend-mode:multiply" opacity="0.5" d="M145.12 164.55C144.62 163.35 144.02 162.22 143.37 161.13C143.37 161.13 129.23 170.27 122.79 176.37C116.35 182.47 112.93 187.96 111.8 192.48C110.99 195.71 112.28 203.71 130.61 199.91C144.38 194.15 150.88 178.32 145.12 164.54V164.55Z" fill="url(#paint17_linear_93_330)"/>
<path style="mix-blend-mode:multiply" opacity="0.6" d="M243.029 215.61C242.239 216.65 241.559 217.73 240.949 218.84C240.949 218.84 255.929 226.51 264.439 229.04C272.939 231.57 279.409 231.78 283.889 230.5C287.089 229.58 293.369 224.47 280.919 210.49C269.049 201.44 252.089 203.74 243.039 215.61H243.029Z" fill="url(#paint18_linear_93_330)"/>
<path style="mix-blend-mode:multiply" opacity="0.3" d="M237.209 145.9C233.799 157.21 229.029 167.47 223.189 176.53C222.869 177 222.579 177.48 222.249 177.96C222.239 177.98 222.229 178 222.209 178.01C218.349 183.58 213.759 189.07 208.369 194.38C212.069 198.32 216.079 202.14 220.479 205.76C226.009 210.12 231.419 213.63 236.319 216.4C248.659 203.59 257.459 190.03 263.669 176.63C266.099 171.68 268.249 166.57 270.099 161.32C264.409 157.13 258.639 153.79 253.329 151.53C247.829 149.19 242.459 147.35 237.209 145.9Z" fill="url(#paint19_linear_93_330)"/>
<path style="mix-blend-mode:multiply" opacity="0.3" d="M126.489 257.77C157.169 261.95 186.689 252.21 206.799 240.26C204.409 238.6 201.979 236.84 199.499 234.94C191.739 229.03 184.749 222.36 178.569 215.14C163.439 221.76 144.409 225.64 126.759 222.03C109.699 218.55 94.6487 207.41 86.9487 190.24C85.4887 186.98 84.3487 183.27 83.6387 179.74C88.0987 211.02 103.879 238.35 126.509 257.76L126.489 257.77Z" fill="url(#paint20_linear_93_330)"/>
<path style="mix-blend-mode:multiply" opacity="0.3" d="M208.37 194.38C200.29 185.78 193.8 176.52 188.87 166.94C188.62 166.43 188.35 165.94 188.1 165.42C188.1 165.4 188.08 165.38 188.07 165.36C185.18 159.23 182.72 152.5 180.81 145.18C175.56 146.42 170.26 147.98 164.94 149.97C158.42 152.57 152.68 155.5 147.84 158.35C152.76 175.43 160.05 189.88 168.54 201.95C171.6 206.52 174.94 210.93 178.56 215.15C185.05 212.31 190.83 208.98 195.45 205.51C200.22 201.93 204.49 198.2 208.37 194.39V194.38Z" fill="url(#paint21_linear_93_330)"/>
<path style="mix-blend-mode:multiply" opacity="0.3" d="M166.859 42.5801C147.899 67.0701 141.569 97.5001 141.859 120.88C144.499 119.64 147.249 118.41 150.149 117.2C159.139 113.44 168.389 110.73 177.729 108.98C179.569 92.5701 185.719 74.1501 197.669 60.6701C209.219 47.6401 226.379 40.1701 245.109 42.0901C248.659 42.4501 252.449 43.3201 255.859 44.4701C256.019 44.5201 256.179 44.5701 256.339 44.6201C256.339 44.6201 256.339 44.6201 256.339 44.6101C239.089 37.5801 220.029 34.2601 200.219 35.6101C188.589 36.4001 177.439 38.7801 166.939 42.4701C166.909 42.5101 166.879 42.5501 166.849 42.5801H166.859Z" fill="url(#paint22_linear_93_330)"/>
<path style="mix-blend-mode:multiply" opacity="0.3" d="M333.08 185.12C321.35 156.44 298.14 135.74 277.73 124.3C277.48 127.21 277.17 130.2 276.77 133.32C275.53 142.99 273.26 152.36 270.1 161.32C283.4 171.11 296.29 185.66 302 202.76C307.51 219.28 305.4 237.88 294.37 253.14C292.28 256.03 289.63 258.88 286.93 261.26C286.89 261.29 286.85 261.33 286.81 261.37C310.57 242.7 327.37 215.79 333.13 185.31C333.11 185.25 333.09 185.19 333.06 185.13L333.08 185.12Z" fill="url(#paint23_linear_93_330)"/>
<path style="mix-blend-mode:multiply" opacity="0.3" d="M177.648 128.44C178.368 134.36 179.458 139.92 180.818 145.18C192.318 142.47 203.598 141.48 214.368 142C214.938 142.04 215.498 142.05 216.068 142.1C216.088 142.1 216.108 142.1 216.128 142.1C222.878 142.66 229.918 143.89 237.198 145.9C238.758 140.73 240.058 135.36 240.988 129.75C241.998 122.77 242.328 116.32 242.288 110.69C225.038 106.41 208.908 105.58 194.208 106.9C188.708 107.27 183.208 107.96 177.738 108.98C176.948 116.02 176.948 122.7 177.638 128.44H177.648Z" fill="url(#paint24_linear_93_330)"/>
<path d="M850.599 115.13L829.779 173.12H829.939L850.719 115.47L850.599 115.13Z" fill="white"/>
<path d="M480.899 115.13L460.089 173.12H460.149L480.979 115.35L480.899 115.13Z" fill="white"/>
<path d="M486.099 129.61L501.719 173.12H470.409L462.509 195.05H509.709L523.089 232.23H553.019L498.449 95.3601L486.099 129.61Z" fill="white"/>
<path d="M460.089 173.12L480.899 115.13L480.979 115.35L489.769 90.9602H466.779L410.639 232.23H438.839L460.149 173.12H460.089Z" fill="white"/>
<path d="M643.718 159.46C636.898 155.44 627.858 151.69 616.578 148.22C610.138 146.12 605.088 144.17 601.428 142.36C597.768 140.57 595.228 138.52 593.808 136.23C592.378 133.94 591.668 131.24 591.668 128.14C591.668 122.68 593.778 118.47 597.988 115.5C602.198 112.52 608.088 111.04 615.648 111.04C621.848 111.04 628.318 111.97 635.068 113.83C641.818 115.69 647.798 118.23 653.008 121.45L656.908 98.59C651.578 95.37 645.108 92.8 637.488 90.88C629.868 88.96 622.278 88 614.718 88C604.428 88 595.508 89.67 587.948 93.02C580.388 96.37 574.538 101.14 570.388 107.33C566.238 113.53 564.158 120.84 564.158 129.26C564.158 136.45 565.558 142.67 568.338 147.94C571.128 153.21 575.678 157.76 581.998 161.6C588.318 165.44 596.618 168.91 606.908 172.01C614.348 174.24 620.108 176.35 624.198 178.33C628.288 180.31 631.138 182.51 632.748 184.93C634.358 187.35 635.168 190.23 635.168 193.57C635.168 199.4 632.778 203.95 628.008 207.23C623.238 210.51 616.638 212.15 608.208 212.15C600.898 212.15 593.248 211.01 585.258 208.71C577.268 206.42 570.298 203.48 564.348 199.88L561.748 223.48C565.218 225.84 569.558 227.88 574.758 229.61C579.968 231.35 585.568 232.71 591.578 233.7C597.588 234.69 603.568 235.19 609.518 235.19C626.248 235.19 639.378 231.38 648.918 223.76C658.458 216.14 663.228 205.58 663.228 192.07C663.228 184.88 661.678 178.66 658.578 173.39C655.478 168.12 650.518 163.48 643.708 159.45L643.718 159.46Z" fill="white"/>
<path d="M792.049 90.9602H672.539V114H792.049V90.9602Z" fill="white"/>
<path d="M746.508 123.66H718.068V232.23H746.508V123.66Z" fill="white"/>
<path d="M829.779 173.12L850.599 115.13L850.719 115.47L859.559 90.9602H836.469L780.339 232.23H808.589L821.969 195.05H822.029L829.939 173.12H829.779Z" fill="white"/>
<path d="M855.839 129.74L871.419 173.12H840.199L832.289 195.05H879.409L892.789 232.23H922.719L868.199 95.47L855.839 129.74Z" fill="white"/>
<path d="M1014.72 174.98C1021.54 171.14 1027.11 165.97 1031.45 159.46C1035.79 152.96 1037.96 145.37 1037.96 136.69C1037.96 127.27 1035.85 119.16 1031.64 112.34C1027.42 105.53 1021.42 100.26 1013.61 96.5402C1005.8 92.8202 996.509 90.9602 985.729 90.9602H975.849V112.34H982.009C1000.85 112.34 1010.26 120.39 1010.26 136.5C1010.26 152.61 1000.53 160.66 981.079 160.66H975.849V182.03H990.369L1020.11 232.21H1051.89L1014.71 174.96L1014.72 174.98Z" fill="white"/>
<path d="M966.199 90.9602H939.259V232.22H966.199V90.9602Z" fill="white"/>
<path d="M1082.63 232V153.455H1094.48V221.798H1130.07V232H1082.63ZM1155.44 153.455V232H1143.59V153.455H1155.44ZM1236.09 153.455V232H1225.2L1185.28 174.395H1184.55V232H1172.7V153.455H1183.67L1223.63 211.136H1224.36V153.455H1236.09ZM1253.38 232V153.455H1265.23V190.963H1266.19L1299.14 153.455H1314.06L1282.38 188.815L1314.17 232H1299.9L1274.51 196.908L1265.23 207.57V232H1253.38Z" fill="white"/>
<defs>
<linearGradient id="paint0_linear_93_330" x1="98.3891" y1="272.26" x2="304.739" y2="65.91" gradientUnits="userSpaceOnUse">
<stop stop-color="#E6007A"/>
<stop offset="0.21" stop-color="#703AC2"/>
<stop offset="0.46" stop-color="#0070EB"/>
<stop offset="0.77" stop-color="#0297FB"/>
<stop offset="1" stop-color="#0AE2FF"/>
</linearGradient>
<radialGradient id="paint1_radial_93_330" cx="0" cy="0" r="1" gradientUnits="userSpaceOnUse" gradientTransform="translate(254.949 129.07) scale(61.53 61.53)">
<stop stop-color="white"/>
<stop offset="1" stop-color="white" stop-opacity="0"/>
</radialGradient>
<radialGradient id="paint2_radial_93_330" cx="0" cy="0" r="1" gradientUnits="userSpaceOnUse" gradientTransform="translate(163.999 243.21) scale(35.8 35.8)">
<stop stop-color="white"/>
<stop offset="1" stop-color="white" stop-opacity="0"/>
</radialGradient>
<linearGradient id="paint3_linear_93_330" x1="110.279" y1="237.15" x2="144.789" y2="236.67" gradientUnits="userSpaceOnUse">
<stop stop-color="white" stop-opacity="0"/>
<stop offset="1" stop-color="white"/>
</linearGradient>
<radialGradient id="paint4_radial_93_330" cx="0" cy="0" r="1" gradientUnits="userSpaceOnUse" gradientTransform="translate(157.393 138.252) rotate(-120) scale(61.53)">
<stop stop-color="white"/>
<stop offset="1" stop-color="white" stop-opacity="0"/>
</radialGradient>
<radialGradient id="paint5_radial_93_330" cx="0" cy="0" r="1" gradientUnits="userSpaceOnUse" gradientTransform="translate(301.715 159.947) rotate(-120) scale(35.8 35.8)">
<stop stop-color="white"/>
<stop offset="1" stop-color="white" stop-opacity="0"/>
</radialGradient>
<linearGradient id="paint6_linear_93_330" x1="323.336" y1="209.494" x2="305.665" y2="179.848" gradientUnits="userSpaceOnUse">
<stop stop-color="white" stop-opacity="0"/>
<stop offset="1" stop-color="white"/>
</linearGradient>
<radialGradient id="paint7_radial_93_330" cx="0" cy="0" r="1" gradientUnits="userSpaceOnUse" gradientTransform="translate(211.208 215.289) rotate(120) scale(61.53 61.53)">
<stop stop-color="white"/>
<stop offset="1" stop-color="white" stop-opacity="0"/>
</radialGradient>
<radialGradient id="paint8_radial_93_330" cx="0" cy="0" r="1" gradientUnits="userSpaceOnUse" gradientTransform="translate(160.737 82.3071) rotate(120) scale(35.8 35.8)">
<stop stop-color="white"/>
<stop offset="1" stop-color="white" stop-opacity="0"/>
</radialGradient>
<linearGradient id="paint9_linear_93_330" x1="192.837" y1="38.8092" x2="176.002" y2="68.9271" gradientUnits="userSpaceOnUse">
<stop stop-color="white" stop-opacity="0"/>
<stop offset="1" stop-color="white"/>
</linearGradient>
<linearGradient id="paint10_linear_93_330" x1="200.34" y1="23.4999" x2="147.63" y2="38.8299" gradientUnits="userSpaceOnUse">
<stop stop-color="#231F20"/>
<stop offset="1" stop-color="white"/>
</linearGradient>
<linearGradient id="paint11_linear_93_330" x1="100.719" y1="224.56" x2="144.809" y2="270.57" gradientUnits="userSpaceOnUse">
<stop stop-color="#231F20"/>
<stop offset="1" stop-color="white"/>
</linearGradient>
<linearGradient id="paint12_linear_93_330" x1="337.36" y1="217.63" x2="352.7" y2="170.98" gradientUnits="userSpaceOnUse">
<stop stop-color="#231F20"/>
<stop offset="1" stop-color="white"/>
</linearGradient>
<linearGradient id="paint13_linear_93_330" x1="224.369" y1="50.17" x2="295.049" y2="66.36" gradientUnits="userSpaceOnUse">
<stop stop-color="#231F20"/>
<stop offset="1" stop-color="white"/>
</linearGradient>
<linearGradient id="paint14_linear_93_330" x1="297.745" y1="231.11" x2="248.393" y2="284.231" gradientUnits="userSpaceOnUse">
<stop stop-color="#231F20"/>
<stop offset="1" stop-color="white"/>
</linearGradient>
<linearGradient id="paint15_linear_93_330" x1="104.368" y1="204.221" x2="83.0488" y2="134.915" gradientUnits="userSpaceOnUse">
<stop stop-color="#231F20"/>
<stop offset="1" stop-color="white"/>
</linearGradient>
<linearGradient id="paint16_linear_93_330" x1="239.819" y1="76.2399" x2="217.449" y2="98.6099" gradientUnits="userSpaceOnUse">
<stop stop-color="#231F20"/>
<stop offset="1" stop-color="white"/>
</linearGradient>
<linearGradient id="paint17_linear_93_330" x1="119.215" y1="177.764" x2="149.764" y2="185.957" gradientUnits="userSpaceOnUse">
<stop stop-color="#231F20"/>
<stop offset="1" stop-color="white"/>
</linearGradient>
<linearGradient id="paint18_linear_93_330" x1="267.424" y1="231.441" x2="259.245" y2="200.888" gradientUnits="userSpaceOnUse">
<stop stop-color="#231F20"/>
<stop offset="1" stop-color="white"/>
</linearGradient>
<linearGradient id="paint19_linear_93_330" x1="220.929" y1="204.28" x2="234.349" y2="185.74" gradientUnits="userSpaceOnUse">
<stop stop-color="#231F20"/>
<stop offset="1" stop-color="white"/>
</linearGradient>
<linearGradient id="paint20_linear_93_330" x1="174.719" y1="196.25" x2="147.879" y2="209.03" gradientUnits="userSpaceOnUse">
<stop stop-color="#231F20"/>
<stop offset="1" stop-color="white"/>
</linearGradient>
<linearGradient id="paint21_linear_93_330" x1="164.98" y1="151.58" x2="173.29" y2="168.83" gradientUnits="userSpaceOnUse">
<stop stop-color="#231F20"/>
<stop offset="1" stop-color="white"/>
</linearGradient>
<linearGradient id="paint22_linear_93_330" x1="203.629" y1="98.2901" x2="197.879" y2="78.4801" gradientUnits="userSpaceOnUse">
<stop stop-color="#231F20"/>
<stop offset="1" stop-color="white"/>
</linearGradient>
<linearGradient id="paint23_linear_93_330" x1="265.61" y1="188.99" x2="282.22" y2="192.82" gradientUnits="userSpaceOnUse">
<stop stop-color="#231F20"/>
<stop offset="1" stop-color="white"/>
</linearGradient>
<linearGradient id="paint24_linear_93_330" x1="239.528" y1="132.86" x2="218.448" y2="129.03" gradientUnits="userSpaceOnUse">
<stop stop-color="#231F20"/>
<stop offset="1" stop-color="white"/>
</linearGradient>
</defs>
</svg>
