<svg width="1364" height="372" viewBox="0 0 1364 372" fill="none" xmlns="http://www.w3.org/2000/svg">
<path d="M368.269 150.84C362.199 61.68 284.999 -5.69 195.839 0.380003C151.419 3.4 112.419 24.08 85.2091 55.09L85.1291 55.04C84.9491 55.29 84.7791 55.54 84.5891 55.8C57.5591 86.96 42.3591 128.39 45.3791 172.8C45.6691 177.03 46.1691 181.2 46.7691 185.32C46.7991 185.51 46.8191 185.69 46.8491 185.88C47.2591 188.6 47.7291 191.3 48.2691 193.98C48.2691 194.03 48.2891 194.08 48.2991 194.13C48.7891 196.55 49.3391 198.95 49.9291 201.33C49.9291 201.33 49.9291 201.33 49.9291 201.34C68.6191 275.87 138.449 328.66 217.799 323.26C306.959 317.2 374.329 240 368.259 150.84H368.269ZM333.049 153.24C333.799 164.22 333.109 174.97 331.149 185.31C331.129 185.25 331.109 185.19 331.079 185.13C319.349 156.45 296.139 135.75 275.729 124.31C279.859 75.72 263.379 55.25 244.719 51.92C244.209 51.82 243.699 51.74 243.179 51.67C228.369 49.77 214.829 60.24 212.929 75.04C211.029 89.85 221.499 103.39 236.299 105.29C237.589 105.45 238.869 105.5 240.129 105.48C240.209 107.12 240.259 108.86 240.279 110.68C223.029 106.4 206.899 105.57 192.199 106.89C186.699 107.26 181.199 107.95 175.729 108.97C177.569 92.56 183.719 74.14 195.669 60.66C207.219 47.63 224.379 40.16 243.109 42.08C246.659 42.44 250.449 43.31 253.859 44.46C254.019 44.51 254.179 44.56 254.339 44.61C254.339 44.61 254.339 44.61 254.339 44.6C297.719 62.27 329.639 103.44 333.029 153.23L333.049 153.24ZM220.259 177.96C220.259 177.96 220.239 178 220.219 178.01C216.359 183.58 211.769 189.07 206.379 194.38C198.299 185.78 191.809 176.52 186.879 166.94C186.629 166.43 186.359 165.94 186.109 165.42C186.109 165.4 186.089 165.38 186.079 165.36C183.189 159.23 180.729 152.5 178.819 145.18C190.319 142.47 201.599 141.48 212.369 142C212.939 142.04 213.499 142.05 214.069 142.1C214.089 142.1 214.109 142.1 214.129 142.1C220.879 142.66 227.919 143.89 235.199 145.9C231.789 157.21 227.019 167.47 221.179 176.53C220.859 177 220.569 177.48 220.239 177.96H220.259ZM164.959 42.46C164.959 42.46 164.899 42.54 164.869 42.57C145.909 67.06 139.579 97.49 139.869 120.87C95.7291 141.59 86.2391 166.1 92.6891 183.92C92.8591 184.41 93.0391 184.89 93.2491 185.37C99.0091 199.14 114.839 205.64 128.609 199.88C142.379 194.12 148.879 178.29 143.119 164.51C142.619 163.31 142.019 162.18 141.369 161.09C142.769 160.19 144.259 159.26 145.849 158.33C150.769 175.41 158.059 189.86 166.549 201.93C169.609 206.5 172.949 210.91 176.569 215.13C161.439 221.75 142.409 225.63 124.759 222.02C107.699 218.54 92.6491 207.4 84.9491 190.23C83.4891 186.97 82.3491 183.26 81.6391 179.73C81.1991 176.65 80.8291 173.54 80.6191 170.39C76.6791 112.42 112.639 60.82 164.979 42.44L164.959 42.46ZM215.409 288.04C180.989 290.38 148.809 278.64 124.489 257.77C155.169 261.95 184.689 252.21 204.799 240.26C244.829 268.15 270.809 264.11 283.029 249.62C283.369 249.23 283.699 248.83 284.009 248.41C293.059 236.54 290.759 219.58 278.889 210.53C267.019 201.48 250.059 203.78 241.009 215.65C240.219 216.69 239.539 217.77 238.929 218.88C237.459 218.13 235.919 217.3 234.329 216.39C246.669 203.58 255.469 190.02 261.679 176.62C264.109 171.67 266.259 166.56 268.109 161.31C281.409 171.1 294.299 185.65 300.009 202.75C305.519 219.27 303.409 237.87 292.379 253.13C290.289 256.02 287.639 258.87 284.939 261.25C284.899 261.28 284.859 261.32 284.819 261.36C265.529 276.52 241.669 286.25 215.409 288.04Z" fill="url(#paint0_linear_93_330)"/>
<path style="mix-blend-mode:overlay" opacity="0.9" d="M244.719 51.9199C244.209 51.8199 243.699 51.7399 243.179 51.6699C240.559 51.3299 237.979 51.3999 235.499 51.7999C250.979 60.2199 262.269 83.6899 256.329 129.97C254.359 145.3 249.809 159.89 243.219 173.27C237.889 184.78 230.629 196.4 220.869 207.57C225.549 211.08 230.119 214.02 234.309 216.4C246.649 203.59 255.449 190.03 261.659 176.63C268.239 163.24 272.799 148.66 274.769 133.33C281.829 78.2199 264.489 55.4499 244.719 51.9199Z" fill="url(#paint1_radial_93_330)"/>
<g style="mix-blend-mode:overlay" opacity="0.8">
<path d="M256.339 129.97C262.269 83.68 250.989 60.22 235.509 51.8C234.909 51.9 234.309 52.02 233.719 52.16C248.879 60.87 259.779 84.31 253.929 129.97C251.959 145.3 247.409 159.89 240.819 173.27C235.659 184.4 228.689 195.63 219.419 206.45C219.909 206.83 220.399 207.2 220.889 207.56C230.639 196.39 237.899 184.77 243.239 173.26C249.819 159.87 254.379 145.29 256.349 129.96L256.339 129.97Z" fill="white"/>
</g>
<path style="mix-blend-mode:overlay" opacity="0.5" d="M197.499 234.95C196.049 233.84 194.649 232.68 193.249 231.52C170.399 241.05 138.739 247.03 107.289 239.73C112.439 246.29 118.189 252.35 124.499 257.77C155.179 261.95 184.699 252.21 204.809 240.26C202.419 238.6 199.989 236.84 197.509 234.94L197.499 234.95Z" fill="url(#paint2_radial_93_330)"/>
<path style="mix-blend-mode:overlay" opacity="0.6" d="M193.239 231.52C192.539 230.94 191.839 230.37 191.149 229.77C168.129 238.97 136.319 244.47 104.939 236.65C105.699 237.69 106.479 238.72 107.279 239.73C138.729 247.03 170.399 241.05 193.239 231.52Z" fill="url(#paint3_linear_93_330)"/>
<path style="mix-blend-mode:overlay" opacity="0.9" d="M92.6891 183.96C92.8591 184.45 93.0391 184.93 93.2491 185.41C94.2691 187.85 95.6191 190.04 97.1991 192C96.7491 174.38 111.429 152.88 154.479 134.87C168.739 128.91 183.649 125.56 198.539 124.57C211.179 123.43 224.869 123.91 239.419 126.77C240.119 120.96 240.379 115.53 240.349 110.72C223.089 106.44 206.949 105.6 192.239 106.92C177.359 107.91 162.439 111.26 148.179 117.22C96.9191 138.66 85.8791 165.06 92.6991 183.95L92.6891 183.96Z" fill="url(#paint4_radial_93_330)"/>
<g style="mix-blend-mode:overlay" opacity="0.8">
<path d="M154.479 134.87C111.429 152.87 96.7494 174.38 97.1994 192C97.5894 192.48 97.9894 192.92 98.4094 193.37C98.3794 175.89 113.229 154.72 155.689 136.96C169.949 131 184.859 127.65 199.749 126.66C211.969 125.56 225.179 125.99 239.189 128.6C239.269 127.98 239.339 127.38 239.419 126.77C224.869 123.91 211.179 123.43 198.539 124.57C183.659 125.56 168.739 128.91 154.479 134.87Z" fill="white"/>
</g>
<path style="mix-blend-mode:overlay" opacity="0.4" d="M274.809 133.34C274.579 135.15 274.269 136.95 273.969 138.74C293.649 153.76 314.659 178.2 324.059 209.08C327.169 201.34 329.549 193.33 331.079 185.16C319.349 156.5 296.169 135.8 275.759 124.36C275.509 127.26 275.199 130.24 274.809 133.34Z" fill="url(#paint5_radial_93_330)"/>
<path style="mix-blend-mode:overlay" opacity="0.5" d="M273.969 138.73C273.819 139.63 273.669 140.52 273.499 141.41C292.979 156.74 313.639 181.55 322.559 212.63C323.079 211.45 323.579 210.26 324.059 209.07C314.659 178.19 293.649 153.75 273.969 138.73Z" fill="url(#paint6_linear_93_330)"/>
<path style="mix-blend-mode:overlay" opacity="0.9" d="M283.039 249.59C283.379 249.2 283.709 248.8 284.019 248.38C285.619 246.28 286.849 244.01 287.749 241.67C272.719 250.87 246.749 248.91 209.629 220.63C197.339 211.26 186.979 200.02 178.679 187.63C171.379 177.26 164.939 165.16 160.149 151.13C154.769 153.43 149.929 155.92 145.789 158.35C150.709 175.44 158.059 189.84 166.559 201.92C174.859 214.31 185.219 225.56 197.509 234.92C241.709 268.59 270.089 264.96 283.039 249.6V249.59Z" fill="url(#paint7_radial_93_330)"/>
<g style="mix-blend-mode:overlay" opacity="0.8">
<path d="M209.639 220.62C246.759 248.9 272.719 250.86 287.759 241.66C287.979 241.09 288.159 240.51 288.339 239.93C273.219 248.7 247.459 246.42 210.849 218.52C198.559 209.15 188.199 197.91 179.899 185.52C172.839 175.49 166.599 163.83 161.859 150.39C161.279 150.63 160.719 150.87 160.159 151.11C164.949 165.14 171.389 177.24 178.689 187.61C186.989 200 197.349 211.25 209.639 220.61V220.62Z" fill="white"/>
</g>
<path style="mix-blend-mode:overlay" opacity="0.3" d="M148.139 117.18C149.829 116.47 151.529 115.84 153.239 115.21C156.409 90.6599 167.069 60.2499 189.109 36.6599C180.849 37.8399 172.729 39.7799 164.879 42.5399C145.919 67.0299 139.589 97.4599 139.879 120.84C142.509 119.6 145.249 118.38 148.139 117.17V117.18Z" fill="url(#paint8_radial_93_330)"/>
<path style="mix-blend-mode:overlay" opacity="0.4" d="M153.239 115.21C154.089 114.89 154.939 114.57 155.799 114.27C159.339 89.7399 170.489 59.4399 192.949 36.1699C191.669 36.3099 190.389 36.4699 189.119 36.6499C167.079 60.2299 156.419 90.6499 153.249 115.2L153.239 115.21Z" fill="url(#paint9_linear_93_330)"/>
<path style="mix-blend-mode:multiply" opacity="0.4" d="M195.84 0.379919C151.42 3.39992 112.42 24.0799 85.2096 55.0899C84.9996 55.3199 84.7996 55.5599 84.5996 55.7899C89.8996 61.0399 107.21 71.4099 114.23 75.7299C128.01 60.9099 145.33 49.3499 164.96 42.4599C166.33 40.6899 167.75 38.9499 169.26 37.2499C187.54 16.6199 212.5 5.71992 241.45 5.71992C244.67 5.71992 251.24 6.22992 251.38 6.23992C233.82 1.20992 215.12 -0.930081 195.84 0.379919Z" fill="url(#paint10_linear_93_330)"/>
<path style="mix-blend-mode:multiply" opacity="0.4" d="M215.409 288.04C180.989 290.38 148.809 278.64 124.489 257.77C122.229 257.46 119.959 257.09 117.689 256.63C90.6895 251.11 68.7595 234.95 54.2895 209.87C52.6795 207.08 51.2395 204.24 49.9395 201.35C68.6295 275.88 138.459 328.66 217.809 323.27C218.159 315.1 215.749 296.14 215.409 288.05V288.04Z" fill="url(#paint11_linear_93_330)"/>
<path style="mix-blend-mode:multiply" opacity="0.4" d="M368.27 150.84C363.3 150.33 339.02 152.25 333.05 153.24C333.8 164.22 333.11 174.97 331.15 185.31C331.99 187.37 332.78 189.45 333.5 191.59C342.22 217.73 339.18 244.8 324.71 269.88C323.13 272.62 321.42 275.24 319.61 277.77C319.58 277.82 319.54 277.87 319.51 277.91C319.51 277.91 319.58 277.85 319.63 277.81C352.5 245.83 371.64 200.19 368.29 150.85L368.27 150.84Z" fill="url(#paint12_linear_93_330)"/>
<path style="mix-blend-mode:multiply" opacity="0.5" d="M243.119 42.09C246.669 42.45 250.459 43.32 253.869 44.47C254.029 44.52 254.189 44.57 254.349 44.62C254.349 44.62 254.349 44.62 254.349 44.61C268.309 50.3 281.069 58.43 292.089 68.49C292.109 68.51 292.139 68.53 292.159 68.55C297.469 62.48 307.689 55.81 307.689 55.81C307.689 55.81 292.029 39.8 268.089 34.83C251.329 31.35 213.519 27.98 189.669 68.56C189.669 68.56 189.759 68.47 189.899 68.34C191.659 65.67 193.539 63.08 195.659 60.69C207.209 47.66 224.369 40.19 243.099 42.11L243.119 42.09Z" fill="url(#paint13_linear_93_330)"/>
<path style="mix-blend-mode:multiply" opacity="0.5" d="M292.37 253.13C290.28 256.02 287.63 258.87 284.93 261.25C284.81 261.36 284.68 261.48 284.56 261.59C284.56 261.59 284.56 261.59 284.56 261.6C272.66 270.85 259.23 277.83 245.01 282.35C244.98 282.36 244.96 282.37 244.93 282.38C247.53 290.01 248.2 302.2 248.2 302.2C248.2 302.2 269.9 296.65 286.17 278.4C297.56 265.62 319.39 234.57 296.17 193.63C296.17 193.63 296.2 193.76 296.24 193.94C297.67 196.8 298.97 199.72 299.99 202.75C305.5 219.27 303.39 237.87 292.36 253.13H292.37Z" fill="url(#paint14_linear_93_330)"/>
<path style="mix-blend-mode:multiply" opacity="0.5" d="M84.989 190.29C83.529 187.03 82.389 183.32 81.679 179.79C81.649 179.63 81.599 179.46 81.569 179.3C81.569 179.3 81.569 179.3 81.559 179.3C79.509 164.37 80.169 149.25 83.369 134.68C83.369 134.65 83.369 134.62 83.379 134.59C75.469 133.03 64.579 127.51 64.579 127.51C64.579 127.51 58.539 149.08 66.209 172.3C71.579 188.56 87.559 222.99 134.619 223.35C134.619 223.35 134.499 223.31 134.309 223.26C131.119 223.07 127.939 222.74 124.799 222.1C107.739 218.62 92.689 207.48 84.989 190.31V190.29Z" fill="url(#paint15_linear_93_330)"/>
<path style="mix-blend-mode:multiply" opacity="0.6" d="M236.309 105.29C237.599 105.45 238.879 105.5 240.139 105.48C240.139 105.48 239.289 88.6699 237.229 80.0399C235.169 71.4099 232.119 65.6999 228.779 62.4699C226.379 60.1499 218.819 57.2699 212.939 75.0499C211.039 89.8599 221.509 103.4 236.309 105.3V105.29Z" fill="url(#paint16_linear_93_330)"/>
<path style="mix-blend-mode:multiply" opacity="0.5" d="M143.12 164.55C142.62 163.35 142.02 162.22 141.37 161.13C141.37 161.13 127.23 170.27 120.79 176.37C114.35 182.47 110.93 187.96 109.8 192.48C108.99 195.71 110.28 203.71 128.61 199.91C142.38 194.15 148.88 178.32 143.12 164.54V164.55Z" fill="url(#paint17_linear_93_330)"/>
<path style="mix-blend-mode:multiply" opacity="0.6" d="M241.029 215.61C240.239 216.65 239.559 217.73 238.949 218.84C238.949 218.84 253.929 226.51 262.439 229.04C270.939 231.57 277.409 231.78 281.889 230.5C285.089 229.58 291.369 224.47 278.919 210.49C267.049 201.44 250.089 203.74 241.039 215.61H241.029Z" fill="url(#paint18_linear_93_330)"/>
<path style="mix-blend-mode:multiply" opacity="0.3" d="M235.209 145.9C231.799 157.21 227.029 167.47 221.189 176.53C220.869 177 220.579 177.48 220.249 177.96C220.239 177.98 220.229 178 220.209 178.01C216.349 183.58 211.759 189.07 206.369 194.38C210.069 198.32 214.079 202.14 218.479 205.76C224.009 210.12 229.419 213.63 234.319 216.4C246.659 203.59 255.459 190.03 261.669 176.63C264.099 171.68 266.249 166.57 268.099 161.32C262.409 157.13 256.639 153.79 251.329 151.53C245.829 149.19 240.459 147.35 235.209 145.9Z" fill="url(#paint19_linear_93_330)"/>
<path style="mix-blend-mode:multiply" opacity="0.3" d="M124.489 257.77C155.169 261.95 184.689 252.21 204.799 240.26C202.409 238.6 199.979 236.84 197.499 234.94C189.739 229.03 182.749 222.36 176.569 215.14C161.439 221.76 142.409 225.64 124.759 222.03C107.699 218.55 92.6487 207.41 84.9487 190.24C83.4887 186.98 82.3487 183.27 81.6387 179.74C86.0987 211.02 101.879 238.35 124.509 257.76L124.489 257.77Z" fill="url(#paint20_linear_93_330)"/>
<path style="mix-blend-mode:multiply" opacity="0.3" d="M206.37 194.38C198.29 185.78 191.8 176.52 186.87 166.94C186.62 166.43 186.35 165.94 186.1 165.42C186.1 165.4 186.08 165.38 186.07 165.36C183.18 159.23 180.72 152.5 178.81 145.18C173.56 146.42 168.26 147.98 162.94 149.97C156.42 152.57 150.68 155.5 145.84 158.35C150.76 175.43 158.05 189.88 166.54 201.95C169.6 206.52 172.94 210.93 176.56 215.15C183.05 212.31 188.83 208.98 193.45 205.51C198.22 201.93 202.49 198.2 206.37 194.39V194.38Z" fill="url(#paint21_linear_93_330)"/>
<path style="mix-blend-mode:multiply" opacity="0.3" d="M164.859 42.5801C145.899 67.0701 139.569 97.5001 139.859 120.88C142.499 119.64 145.249 118.41 148.149 117.2C157.139 113.44 166.389 110.73 175.729 108.98C177.569 92.5701 183.719 74.1501 195.669 60.6701C207.219 47.6401 224.379 40.1701 243.109 42.0901C246.659 42.4501 250.449 43.3201 253.859 44.4701C254.019 44.5201 254.179 44.5701 254.339 44.6201C254.339 44.6201 254.339 44.6201 254.339 44.6101C237.089 37.5801 218.029 34.2601 198.219 35.6101C186.589 36.4001 175.439 38.7801 164.939 42.4701C164.909 42.5101 164.879 42.5501 164.849 42.5801H164.859Z" fill="url(#paint22_linear_93_330)"/>
<path style="mix-blend-mode:multiply" opacity="0.3" d="M331.08 185.12C319.35 156.44 296.14 135.74 275.73 124.3C275.48 127.21 275.17 130.2 274.77 133.32C273.53 142.99 271.26 152.36 268.1 161.32C281.4 171.11 294.29 185.66 300 202.76C305.51 219.28 303.4 237.88 292.37 253.14C290.28 256.03 287.63 258.88 284.93 261.26C284.89 261.29 284.85 261.33 284.81 261.37C308.57 242.7 325.37 215.79 331.13 185.31C331.11 185.25 331.09 185.19 331.06 185.13L331.08 185.12Z" fill="url(#paint23_linear_93_330)"/>
<path style="mix-blend-mode:multiply" opacity="0.3" d="M175.648 128.44C176.368 134.36 177.458 139.92 178.818 145.18C190.318 142.47 201.598 141.48 212.368 142C212.938 142.04 213.498 142.05 214.068 142.1C214.088 142.1 214.108 142.1 214.128 142.1C220.878 142.66 227.918 143.89 235.198 145.9C236.758 140.73 238.058 135.36 238.988 129.75C239.998 122.77 240.328 116.32 240.288 110.69C223.038 106.41 206.908 105.58 192.208 106.9C186.708 107.27 181.208 107.96 175.738 108.98C174.948 116.02 174.948 122.7 175.638 128.44H175.648Z" fill="url(#paint24_linear_93_330)"/>
<path d="M848.599 115.35L827.779 173.35H827.939L848.719 115.7L848.599 115.35Z" fill="white"/>
<path d="M478.899 115.35L458.089 173.35H458.149L478.979 115.57L478.899 115.35Z" fill="white"/>
<path d="M484.099 129.84L499.719 173.35H468.409L460.509 195.28H507.709L521.089 232.45H551.019L496.449 95.5801L484.099 129.84Z" fill="white"/>
<path d="M458.089 173.35L478.899 115.35L478.979 115.57L487.769 91.1899H464.779L408.639 232.45H436.839L458.149 173.35H458.089Z" fill="white"/>
<path d="M641.718 159.68C634.898 155.66 625.858 151.91 614.578 148.44C608.138 146.34 603.088 144.39 599.428 142.58C595.768 140.79 593.228 138.74 591.808 136.45C590.378 134.16 589.668 131.46 589.668 128.36C589.668 122.9 591.778 118.69 595.988 115.72C600.198 112.74 606.088 111.26 613.648 111.26C619.848 111.26 626.318 112.19 633.068 114.05C639.818 115.91 645.798 118.45 651.008 121.67L654.908 98.81C649.578 95.59 643.108 93.02 635.488 91.1C627.868 89.18 620.278 88.22 612.718 88.22C602.428 88.22 593.508 89.89 585.948 93.24C578.388 96.59 572.538 101.36 568.388 107.55C564.238 113.75 562.158 121.06 562.158 129.48C562.158 136.67 563.558 142.89 566.338 148.16C569.128 153.43 573.678 157.98 579.998 161.82C586.318 165.66 594.618 169.13 604.908 172.23C612.348 174.46 618.108 176.57 622.198 178.55C626.288 180.53 629.138 182.73 630.748 185.15C632.358 187.57 633.168 190.45 633.168 193.79C633.168 199.62 630.778 204.17 626.008 207.45C621.238 210.73 614.638 212.37 606.208 212.37C598.898 212.37 591.248 211.23 583.258 208.93C575.268 206.64 568.298 203.7 562.348 200.1L559.748 223.7C563.218 226.06 567.558 228.1 572.758 229.83C577.968 231.57 583.568 232.93 589.578 233.92C595.588 234.91 601.568 235.41 607.518 235.41C624.248 235.41 637.378 231.6 646.918 223.98C656.458 216.36 661.228 205.8 661.228 192.29C661.228 185.1 659.678 178.88 656.578 173.61C653.478 168.34 648.518 163.7 641.708 159.67L641.718 159.68Z" fill="white"/>
<path d="M790.049 91.1899H670.539V114.23H790.049V91.1899Z" fill="white"/>
<path d="M744.508 123.88H716.068V232.45H744.508V123.88Z" fill="white"/>
<path d="M827.779 173.35L848.599 115.35L848.719 115.7L857.559 91.1899H834.469L778.339 232.45H806.589L819.969 195.28H820.029L827.939 173.35H827.779Z" fill="white"/>
<path d="M853.839 129.96L869.419 173.35H838.199L830.289 195.28H877.409L890.789 232.45H920.719L866.199 95.7L853.839 129.96Z" fill="white"/>
<path d="M1012.72 175.2C1019.54 171.36 1025.11 166.19 1029.45 159.68C1033.79 153.18 1035.96 145.59 1035.96 136.91C1035.96 127.49 1033.85 119.38 1029.64 112.56C1025.42 105.75 1019.42 100.48 1011.61 96.7599C1003.8 93.0399 994.509 91.1799 983.729 91.1799H973.849V112.56H980.009C998.849 112.56 1008.26 120.61 1008.26 136.72C1008.26 152.83 998.529 160.88 979.079 160.88H973.849V182.25H988.369L1018.11 232.43H1049.89L1012.71 175.18L1012.72 175.2Z" fill="white"/>
<path d="M964.199 91.1899H937.259V232.45H964.199V91.1899Z" fill="white"/>
<path d="M1085.63 232V153.455H1097.48V221.798H1133.07V232H1085.63ZM1158.44 153.455V232H1146.59V153.455H1158.44ZM1239.1 153.455V232H1228.2L1188.28 174.395H1187.55V232H1175.7V153.455H1186.67L1226.63 211.136H1227.36V153.455H1239.1ZM1256.38 232V153.455H1268.23V190.963H1269.19L1302.14 153.455H1317.06L1285.38 188.815L1317.17 232H1302.9L1277.52 196.908L1268.23 207.57V232H1256.38Z" fill="white"/>
<defs>
<linearGradient id="paint0_linear_93_330" x1="96.3891" y1="272.26" x2="302.739" y2="65.91" gradientUnits="userSpaceOnUse">
<stop stop-color="#E6007A"/>
<stop offset="0.21" stop-color="#703AC2"/>
<stop offset="0.46" stop-color="#0070EB"/>
<stop offset="0.77" stop-color="#0297FB"/>
<stop offset="1" stop-color="#0AE2FF"/>
</linearGradient>
<radialGradient id="paint1_radial_93_330" cx="0" cy="0" r="1" gradientUnits="userSpaceOnUse" gradientTransform="translate(252.949 129.07) scale(61.53 61.53)">
<stop stop-color="white"/>
<stop offset="1" stop-color="white" stop-opacity="0"/>
</radialGradient>
<radialGradient id="paint2_radial_93_330" cx="0" cy="0" r="1" gradientUnits="userSpaceOnUse" gradientTransform="translate(161.999 243.21) scale(35.8 35.8)">
<stop stop-color="white"/>
<stop offset="1" stop-color="white" stop-opacity="0"/>
</radialGradient>
<linearGradient id="paint3_linear_93_330" x1="108.279" y1="237.15" x2="142.789" y2="236.67" gradientUnits="userSpaceOnUse">
<stop stop-color="white" stop-opacity="0"/>
<stop offset="1" stop-color="white"/>
</linearGradient>
<radialGradient id="paint4_radial_93_330" cx="0" cy="0" r="1" gradientUnits="userSpaceOnUse" gradientTransform="translate(155.388 138.255) rotate(-120) scale(61.53)">
<stop stop-color="white"/>
<stop offset="1" stop-color="white" stop-opacity="0"/>
</radialGradient>
<radialGradient id="paint5_radial_93_330" cx="0" cy="0" r="1" gradientUnits="userSpaceOnUse" gradientTransform="translate(299.706 159.941) rotate(-120) scale(35.8 35.8)">
<stop stop-color="white"/>
<stop offset="1" stop-color="white" stop-opacity="0"/>
</radialGradient>
<linearGradient id="paint6_linear_93_330" x1="321.332" y1="209.498" x2="303.661" y2="179.851" gradientUnits="userSpaceOnUse">
<stop stop-color="white" stop-opacity="0"/>
<stop offset="1" stop-color="white"/>
</linearGradient>
<radialGradient id="paint7_radial_93_330" cx="0" cy="0" r="1" gradientUnits="userSpaceOnUse" gradientTransform="translate(209.212 215.292) rotate(120) scale(61.53 61.53)">
<stop stop-color="white"/>
<stop offset="1" stop-color="white" stop-opacity="0"/>
</radialGradient>
<radialGradient id="paint8_radial_93_330" cx="0" cy="0" r="1" gradientUnits="userSpaceOnUse" gradientTransform="translate(158.741 82.3105) rotate(120) scale(35.8 35.8)">
<stop stop-color="white"/>
<stop offset="1" stop-color="white" stop-opacity="0"/>
</radialGradient>
<linearGradient id="paint9_linear_93_330" x1="190.846" y1="38.804" x2="174.007" y2="68.9305" gradientUnits="userSpaceOnUse">
<stop stop-color="white" stop-opacity="0"/>
<stop offset="1" stop-color="white"/>
</linearGradient>
<linearGradient id="paint10_linear_93_330" x1="198.34" y1="23.4999" x2="145.63" y2="38.8299" gradientUnits="userSpaceOnUse">
<stop stop-color="#231F20"/>
<stop offset="1" stop-color="white"/>
</linearGradient>
<linearGradient id="paint11_linear_93_330" x1="98.7195" y1="224.56" x2="142.809" y2="270.57" gradientUnits="userSpaceOnUse">
<stop stop-color="#231F20"/>
<stop offset="1" stop-color="white"/>
</linearGradient>
<linearGradient id="paint12_linear_93_330" x1="335.36" y1="217.63" x2="350.7" y2="170.98" gradientUnits="userSpaceOnUse">
<stop stop-color="#231F20"/>
<stop offset="1" stop-color="white"/>
</linearGradient>
<linearGradient id="paint13_linear_93_330" x1="222.369" y1="50.17" x2="293.049" y2="66.36" gradientUnits="userSpaceOnUse">
<stop stop-color="#231F20"/>
<stop offset="1" stop-color="white"/>
</linearGradient>
<linearGradient id="paint14_linear_93_330" x1="295.739" y1="231.103" x2="246.387" y2="284.224" gradientUnits="userSpaceOnUse">
<stop stop-color="#231F20"/>
<stop offset="1" stop-color="white"/>
</linearGradient>
<linearGradient id="paint15_linear_93_330" x1="102.374" y1="204.224" x2="81.0546" y2="134.919" gradientUnits="userSpaceOnUse">
<stop stop-color="#231F20"/>
<stop offset="1" stop-color="white"/>
</linearGradient>
<linearGradient id="paint16_linear_93_330" x1="237.819" y1="76.2399" x2="215.449" y2="98.6099" gradientUnits="userSpaceOnUse">
<stop stop-color="#231F20"/>
<stop offset="1" stop-color="white"/>
</linearGradient>
<linearGradient id="paint17_linear_93_330" x1="117.202" y1="177.773" x2="147.755" y2="185.952" gradientUnits="userSpaceOnUse">
<stop stop-color="#231F20"/>
<stop offset="1" stop-color="white"/>
</linearGradient>
<linearGradient id="paint18_linear_93_330" x1="265.428" y1="231.444" x2="257.249" y2="200.891" gradientUnits="userSpaceOnUse">
<stop stop-color="#231F20"/>
<stop offset="1" stop-color="white"/>
</linearGradient>
<linearGradient id="paint19_linear_93_330" x1="218.929" y1="204.28" x2="232.349" y2="185.74" gradientUnits="userSpaceOnUse">
<stop stop-color="#231F20"/>
<stop offset="1" stop-color="white"/>
</linearGradient>
<linearGradient id="paint20_linear_93_330" x1="172.719" y1="196.25" x2="145.879" y2="209.03" gradientUnits="userSpaceOnUse">
<stop stop-color="#231F20"/>
<stop offset="1" stop-color="white"/>
</linearGradient>
<linearGradient id="paint21_linear_93_330" x1="162.98" y1="151.58" x2="171.29" y2="168.83" gradientUnits="userSpaceOnUse">
<stop stop-color="#231F20"/>
<stop offset="1" stop-color="white"/>
</linearGradient>
<linearGradient id="paint22_linear_93_330" x1="201.629" y1="98.2901" x2="195.879" y2="78.4801" gradientUnits="userSpaceOnUse">
<stop stop-color="#231F20"/>
<stop offset="1" stop-color="white"/>
</linearGradient>
<linearGradient id="paint23_linear_93_330" x1="263.61" y1="188.99" x2="280.22" y2="192.82" gradientUnits="userSpaceOnUse">
<stop stop-color="#231F20"/>
<stop offset="1" stop-color="white"/>
</linearGradient>
<linearGradient id="paint24_linear_93_330" x1="237.528" y1="132.86" x2="216.448" y2="129.03" gradientUnits="userSpaceOnUse">
<stop stop-color="#231F20"/>
<stop offset="1" stop-color="white"/>
</linearGradient>
</defs>
</svg>
