<svg width="1364" height="372" viewBox="0 0 1364 372" fill="none" xmlns="http://www.w3.org/2000/svg">
<mask id="mask0_93_213" style="mask-type:luminance" maskUnits="userSpaceOnUse" x="666" y="272" width="519" height="99">
<path d="M1184.08 272.05H666V370.73H1184.08V272.05Z" fill="white"/>
</mask>
<g mask="url(#mask0_93_213)">
<path d="M688.43 273.18H1161.66C1173.43 273.18 1182.97 282.72 1182.97 294.49V348.32C1182.97 360.09 1173.43 369.63 1161.66 369.63H688.43C676.66 369.63 667.12 360.09 667.12 348.32V294.49C667.12 282.72 676.66 273.18 688.43 273.18Z" fill="url(#paint0_linear_93_213)" stroke="#E6007A" stroke-width="2.24"/>
<path d="M701.53 332.61H704.77V325.84H709.53C709.71 325.84 709.95 325.84 710.24 325.81C710.55 325.79 710.82 325.77 711.07 325.73C712.74 325.47 713.98 324.77 714.78 323.64C715.6 322.5 716 321.13 716 319.54C716 317.95 715.6 316.57 714.79 315.44C713.99 314.3 712.75 313.6 711.06 313.34C710.81 313.3 710.54 313.27 710.24 313.26C709.94 313.24 709.7 313.23 709.51 313.23H701.5V332.61H701.53ZM704.77 322.81V316.27H709.4C709.58 316.27 709.78 316.27 710.01 316.3C710.23 316.32 710.44 316.35 710.63 316.39C711.17 316.52 711.59 316.77 711.89 317.12C712.2 317.46 712.42 317.85 712.55 318.28C712.68 318.71 712.75 319.13 712.75 319.54C712.75 319.95 712.68 320.37 712.55 320.8C712.42 321.23 712.2 321.62 711.89 321.96C711.58 322.3 711.16 322.54 710.63 322.67C710.44 322.72 710.24 322.76 710.01 322.78C709.79 322.8 709.58 322.81 709.4 322.81H704.77ZM728.26 333.01C730.2 333.01 731.86 332.59 733.24 331.75C734.63 330.9 735.69 329.71 736.43 328.2C737.17 326.68 737.55 324.93 737.55 322.92C737.55 320.91 737.18 319.15 736.43 317.65C735.69 316.13 734.63 314.95 733.24 314.11C731.86 313.26 730.2 312.83 728.26 312.83C726.32 312.83 724.67 313.26 723.28 314.11C721.9 314.95 720.84 316.13 720.09 317.65C719.35 319.16 718.99 320.92 718.99 322.92C718.99 324.92 719.36 326.68 720.09 328.2C720.83 329.72 721.9 330.9 723.28 331.75C724.67 332.59 726.33 333.01 728.26 333.01ZM728.26 329.96C726.31 329.93 724.85 329.28 723.87 328.01C722.89 326.74 722.41 325.04 722.42 322.92C722.42 321.5 722.65 320.26 723.08 319.21C723.51 318.15 724.16 317.33 725.02 316.75C725.88 316.16 726.96 315.87 728.26 315.89C730.22 315.92 731.68 316.57 732.65 317.84C733.63 319.11 734.12 320.81 734.12 322.93C734.12 324.34 733.9 325.58 733.46 326.64C733.03 327.7 732.38 328.52 731.51 329.1C730.65 329.68 729.57 329.97 728.27 329.96H728.26ZM744.85 332.61H748.05L752.01 318.83L755.97 332.61H759.17L764.82 313.23H761.42L757.57 327.22L753.71 313.23L750.31 313.26L746.46 327.23L742.6 313.24H739.2L744.87 332.62L744.85 332.61ZM768.36 332.61H780.87V329.57H771.6V324.09H779.26V321.05H771.6V316.27H780.87V313.23H768.36V332.61ZM785.45 332.61H788.69V325.84H793.29L796.57 332.61H800.24L796.66 325.26C797.76 324.77 798.58 324.02 799.12 323.01C799.66 322.01 799.93 320.85 799.93 319.54C799.93 317.93 799.53 316.57 798.72 315.44C797.92 314.3 796.68 313.6 794.99 313.34C794.74 313.3 794.47 313.27 794.17 313.26C793.87 313.24 793.63 313.23 793.44 313.23H785.43V332.61H785.45ZM788.69 322.81V316.27H793.32C793.5 316.27 793.7 316.27 793.93 316.3C794.15 316.32 794.36 316.35 794.55 316.39C795.09 316.52 795.51 316.77 795.82 317.12C796.13 317.46 796.35 317.85 796.48 318.28C796.61 318.71 796.68 319.13 796.68 319.54C796.68 319.95 796.61 320.37 796.48 320.8C796.35 321.23 796.13 321.62 795.82 321.96C795.51 322.3 795.09 322.54 794.55 322.67C794.36 322.72 794.16 322.76 793.93 322.78C793.71 322.8 793.5 322.81 793.32 322.81H788.69ZM804.56 332.61H817.07V329.57H807.8V324.09H815.46V321.05H807.8V316.27H817.07V313.23H804.56V332.61ZM821.65 332.61H827.83C827.98 332.61 828.3 332.61 828.79 332.6C829.28 332.6 829.75 332.56 830.19 332.51C831.73 332.31 833.03 331.77 834.09 330.88C835.15 329.98 835.95 328.84 836.5 327.46C837.05 326.08 837.32 324.57 837.32 322.93C837.32 321.29 837.05 319.78 836.5 318.4C835.95 317.02 835.15 315.88 834.09 314.98C833.03 314.08 831.73 313.54 830.19 313.35C829.74 313.3 829.28 313.26 828.79 313.26C828.31 313.26 828 313.25 827.83 313.25H821.65V332.63V332.61ZM824.95 329.56V316.29H827.83C828.1 316.29 828.44 316.29 828.85 316.32C829.26 316.32 829.64 316.37 829.97 316.44C830.87 316.61 831.6 317.01 832.18 317.64C832.75 318.27 833.18 319.04 833.46 319.97C833.75 320.89 833.89 321.87 833.89 322.93C833.89 323.99 833.76 324.91 833.49 325.84C833.22 326.76 832.8 327.55 832.21 328.19C831.64 328.83 830.89 329.24 829.98 329.41C829.65 329.47 829.28 329.51 828.86 329.53C828.45 329.55 828.11 329.56 827.84 329.56H824.96H824.95ZM848.58 332.61H857.04C858.95 332.61 860.4 332.08 861.39 331.02C862.38 329.96 862.87 328.57 862.87 326.85C862.87 325.87 862.63 324.98 862.14 324.19C861.66 323.39 860.96 322.79 860.03 322.4C860.63 322.04 861.1 321.53 861.44 320.88C861.79 320.22 861.96 319.44 861.96 318.57C861.96 317.7 861.75 316.86 861.34 316.04C860.94 315.22 860.31 314.56 859.47 314.04C858.64 313.51 857.56 313.25 856.25 313.25H848.57V332.63L848.58 332.61ZM851.86 320.97V316.26H856.22C856.99 316.26 857.59 316.48 858.02 316.93C858.45 317.38 858.67 317.94 858.67 318.61C858.67 319.38 858.43 319.97 857.96 320.37C857.49 320.76 856.92 320.96 856.22 320.96H851.86V320.97ZM851.86 329.56V324H856.73C857.64 324 858.34 324.26 858.84 324.79C859.34 325.32 859.59 325.97 859.59 326.75C859.59 327.61 859.31 328.29 858.74 328.8C858.18 329.3 857.48 329.55 856.63 329.55H851.85L851.86 329.56ZM870.8 332.61H874.08V324.67L880.66 313.23H876.88L872.44 320.95L867.99 313.23H864.21L870.8 324.67V332.61Z" fill="white"/>
<path d="M977.922 303.906C975.016 303.906 972.214 304.269 971.073 304.579C969.412 305.046 968.997 305.77 968.686 307.272L962.096 337.621C961.992 338.243 961.888 338.76 961.888 339.278C961.888 340.782 962.874 341.764 964.483 341.764C966.247 341.764 966.974 340.625 967.337 338.864L969.205 330.215C970.502 330.37 972.214 330.526 974.653 330.526C985.394 330.526 992.088 324.726 992.088 315.973C992.088 308.308 986.743 303.906 977.922 303.906ZM974.394 325.554C972.733 325.554 971.436 325.502 970.242 325.346L973.719 309.24C974.809 309.084 976.417 308.877 978.078 308.877C983.786 308.877 986.692 311.571 986.692 316.024C986.692 321.722 982.541 325.554 974.392 325.554L974.394 325.554Z" fill="white"/>
<path d="M1146.98 331.77C1146.1 331.77 1145.53 332.288 1144.44 333.479C1142.52 335.447 1141.32 336.534 1139.82 336.534C1138.47 336.534 1137.74 335.447 1137.74 333.686C1137.74 332.702 1137.95 331.511 1138.21 330.216L1140.13 321.205H1145.89C1147.71 321.205 1148.8 320.169 1148.8 318.304C1148.8 317.269 1148.12 316.492 1146.57 316.492H1141.17L1142.1 312.297C1142.2 311.676 1142.31 311.106 1142.31 310.588C1142.31 309.138 1141.32 308.102 1139.71 308.102C1138 308.102 1137.22 309.241 1136.86 311.002L1135.67 316.492H1133.23C1131.36 316.492 1130.27 317.527 1130.27 319.392C1130.27 320.428 1131 321.205 1132.55 321.205H1134.68L1132.76 330.112C1132.55 331.096 1132.29 332.701 1132.29 334.358C1132.29 338.553 1134.47 341.609 1139.14 341.609C1141.84 341.609 1144.23 340.262 1146.04 338.657C1147.81 337.103 1149.11 335.187 1149.11 333.944C1149.11 332.754 1148.17 331.77 1146.98 331.77Z" fill="white"/>
<path d="M1027.63 306.961C1027.63 305.458 1026.59 304.475 1024.99 304.475C1023.27 304.475 1022.5 305.615 1022.13 307.376L1015.65 337.465C1015.49 338.087 1015.39 338.605 1015.39 339.123C1015.39 340.626 1016.42 341.608 1017.98 341.608C1019.75 341.608 1020.52 340.469 1020.89 338.708L1027.37 308.618C1027.48 307.997 1027.63 307.479 1027.63 306.961Z" fill="white"/>
<path d="M1120.26 315.973C1111.95 315.973 1106.3 324.207 1106.3 332.027C1106.3 332.174 1106.3 332.319 1106.31 332.463C1105 334.436 1103.34 336.481 1102.2 336.481C1101.37 336.481 1101.06 335.705 1101.06 334.513C1101.06 333.063 1101.47 330.629 1101.94 328.506L1106.25 308.618C1106.35 307.997 1106.45 307.479 1106.45 306.961C1106.45 305.458 1105.47 304.475 1103.86 304.475C1102.09 304.475 1101.37 305.615 1101 307.376L1098.67 318.148C1097.42 316.853 1095.61 315.973 1092.86 315.973C1087.34 315.973 1081.8 320.209 1079.64 326.706C1077.26 332.848 1075.13 336.481 1073.45 336.481C1072.83 336.481 1072.47 335.963 1072.47 335.083C1072.47 332.493 1073.92 326.176 1074.54 323.12C1074.75 321.98 1074.85 321.514 1074.85 320.841C1074.85 318.562 1071.06 315.869 1066.13 315.869C1060.43 315.869 1055.27 319.472 1052.68 324.827C1048.84 331.607 1045.31 336.482 1043.56 336.482C1042.78 336.482 1042.53 335.498 1042.32 334.566L1041.02 327.419L1048.96 320.945C1049.69 320.324 1050.62 319.442 1050.62 318.304C1050.62 316.906 1049.69 315.974 1048.29 315.974C1047.25 315.974 1046.37 316.595 1045.48 317.32L1033.55 327.159L1037.55 308.618C1037.65 307.997 1037.81 307.479 1037.81 306.961C1037.81 305.458 1036.77 304.475 1035.16 304.475C1033.45 304.475 1032.67 305.615 1032.31 307.376L1025.82 337.465C1025.66 338.087 1025.56 338.605 1025.56 339.123C1025.56 340.626 1026.6 341.608 1028.15 341.608C1029.92 341.608 1030.7 340.469 1031.06 338.708L1031.89 334.824L1036.77 330.888L1037.96 336.896C1038.43 339.278 1039.67 341.608 1042.89 341.608C1046.09 341.608 1048.61 338.691 1051.13 334.749C1051.9 338.878 1054.84 341.608 1058.92 341.608C1063.02 341.608 1065.83 339.174 1067.64 335.912V336.015C1067.64 339.382 1069.35 341.608 1072.36 341.608C1075.08 341.608 1077.34 339.971 1079.36 336.489C1080.51 339.523 1083.07 341.608 1086.63 341.608C1090.83 341.608 1093.84 339.071 1095.76 335.549V335.86C1095.76 339.589 1097.63 341.61 1100.69 341.61C1103.4 341.61 1105.69 340.044 1107.65 337.493C1109.15 340.042 1111.82 341.61 1115.43 341.61C1123.73 341.61 1129.39 333.376 1129.39 325.504C1129.39 319.96 1126.01 315.973 1120.26 315.973ZM1068.52 326.486C1067.02 332.959 1063.8 336.636 1060.17 336.636C1057.73 336.636 1056.38 334.772 1056.38 331.976C1056.38 326.486 1060.38 320.582 1065.72 320.582C1067.33 320.582 1068.57 321.048 1069.66 321.722L1068.52 326.486ZM1097.42 323.742C1095.76 331.355 1091.98 336.638 1087.82 336.638C1085.54 336.638 1084.19 334.877 1084.19 331.977C1084.19 326.436 1088.03 320.687 1093.17 320.687C1095.14 320.687 1096.65 321.36 1097.74 322.241L1097.42 323.742ZM1116.05 336.637C1113.04 336.637 1111.8 334.461 1111.8 331.717C1111.8 326.693 1115.27 320.944 1119.63 320.944C1122.64 320.944 1123.89 323.12 1123.89 325.864C1123.89 330.94 1120.41 336.637 1116.05 336.637Z" fill="white"/>
<path d="M1005.01 315.972C996.705 315.972 991.049 324.207 991.049 332.027C991.049 337.62 994.422 341.608 1000.18 341.608C1008.48 341.608 1014.14 333.374 1014.14 325.502C1014.14 319.96 1010.77 315.972 1005.01 315.972ZM1000.8 336.636C997.794 336.636 996.549 334.461 996.549 331.716C996.549 326.693 1000.03 320.944 1004.38 320.944C1007.39 320.944 1008.64 323.119 1008.64 325.864C1008.64 330.939 1005.16 336.636 1000.8 336.636Z" fill="white"/>
<path d="M925.781 307.121C931.069 307.121 935.355 304.631 935.355 301.56C935.355 298.489 931.069 296 925.781 296C920.493 296 916.206 298.489 916.206 301.56C916.206 304.631 920.493 307.121 925.781 307.121Z" fill="white"/>
<path d="M925.781 349C931.069 349 935.355 346.51 935.355 343.439C935.355 340.368 931.069 337.879 925.781 337.879C920.493 337.879 916.206 340.368 916.206 343.439C916.206 346.51 920.493 349 925.781 349Z" fill="white"/>
<path d="M912.437 314.81C915.081 310.239 915.064 305.289 912.399 303.754C909.735 302.218 905.431 304.679 902.787 309.249C900.143 313.82 900.16 318.77 902.825 320.305C905.489 321.841 909.793 319.38 912.437 314.81Z" fill="white"/>
<path d="M948.778 335.751C951.421 331.18 951.405 326.23 948.74 324.695C946.076 323.159 941.772 325.62 939.128 330.19C936.484 334.761 936.501 339.711 939.166 341.246C941.83 342.782 946.134 340.321 948.778 335.751Z" fill="white"/>
<path d="M912.399 341.247C915.064 339.711 915.081 334.761 912.437 330.191C909.793 325.62 905.489 323.159 902.825 324.695C900.16 326.23 900.143 331.18 902.787 335.751C905.431 340.322 909.735 342.782 912.399 341.247Z" fill="white"/>
<path d="M948.74 320.308C951.405 318.772 951.421 313.822 948.778 309.252C946.134 304.681 941.83 302.221 939.166 303.756C936.501 305.291 936.484 310.241 939.128 314.812C941.772 319.383 946.076 321.843 948.74 320.308Z" fill="white"/>
</g>
<path d="M502.269 150.84C496.199 61.68 418.999 -5.69 329.839 0.380003C285.419 3.4 246.419 24.08 219.209 55.09L219.129 55.04C218.949 55.29 218.779 55.54 218.589 55.8C191.559 86.96 176.359 128.39 179.379 172.8C179.669 177.03 180.169 181.2 180.769 185.32C180.799 185.51 180.819 185.69 180.849 185.88C181.259 188.6 181.729 191.3 182.269 193.98C182.269 194.03 182.289 194.08 182.299 194.13C182.789 196.55 183.339 198.95 183.929 201.33C183.929 201.33 183.929 201.33 183.929 201.34C202.619 275.87 272.449 328.66 351.799 323.26C440.959 317.2 508.329 240 502.259 150.84H502.269ZM467.049 153.24C467.799 164.22 467.109 174.97 465.149 185.31C465.129 185.25 465.109 185.19 465.079 185.13C453.349 156.45 430.139 135.75 409.729 124.31C413.859 75.72 397.379 55.25 378.719 51.92C378.209 51.82 377.699 51.74 377.179 51.67C362.369 49.77 348.829 60.24 346.929 75.04C345.029 89.85 355.499 103.39 370.299 105.29C371.589 105.45 372.869 105.5 374.129 105.48C374.209 107.12 374.259 108.86 374.279 110.68C357.029 106.4 340.899 105.57 326.199 106.89C320.699 107.26 315.199 107.95 309.729 108.97C311.569 92.56 317.719 74.14 329.669 60.66C341.219 47.63 358.379 40.16 377.109 42.08C380.659 42.44 384.449 43.31 387.859 44.46C388.019 44.51 388.179 44.56 388.339 44.61C388.339 44.61 388.339 44.61 388.339 44.6C431.719 62.27 463.639 103.44 467.029 153.23L467.049 153.24ZM354.259 177.96C354.259 177.96 354.239 178 354.219 178.01C350.359 183.58 345.769 189.07 340.379 194.38C332.299 185.78 325.809 176.52 320.879 166.94C320.629 166.43 320.359 165.94 320.109 165.42C320.109 165.4 320.089 165.38 320.079 165.36C317.189 159.23 314.729 152.5 312.819 145.18C324.319 142.47 335.599 141.48 346.369 142C346.939 142.04 347.499 142.05 348.069 142.1C348.089 142.1 348.109 142.1 348.129 142.1C354.879 142.66 361.919 143.89 369.199 145.9C365.789 157.21 361.019 167.47 355.179 176.53C354.859 177 354.569 177.48 354.239 177.96H354.259ZM298.959 42.46C298.959 42.46 298.899 42.54 298.869 42.57C279.909 67.06 273.579 97.49 273.869 120.87C229.729 141.59 220.239 166.1 226.689 183.92C226.859 184.41 227.039 184.89 227.249 185.37C233.009 199.14 248.839 205.64 262.609 199.88C276.379 194.12 282.879 178.29 277.119 164.51C276.619 163.31 276.019 162.18 275.369 161.09C276.769 160.19 278.259 159.26 279.849 158.33C284.769 175.41 292.059 189.86 300.549 201.93C303.609 206.5 306.949 210.91 310.569 215.13C295.439 221.75 276.409 225.63 258.759 222.02C241.699 218.54 226.649 207.4 218.949 190.23C217.489 186.97 216.349 183.26 215.639 179.73C215.199 176.65 214.829 173.54 214.619 170.39C210.679 112.42 246.639 60.82 298.979 42.44L298.959 42.46ZM349.409 288.04C314.989 290.38 282.809 278.64 258.489 257.77C289.169 261.95 318.689 252.21 338.799 240.26C378.829 268.15 404.809 264.11 417.029 249.62C417.369 249.23 417.699 248.83 418.009 248.41C427.059 236.54 424.759 219.58 412.889 210.53C401.019 201.48 384.059 203.78 375.009 215.65C374.219 216.69 373.539 217.77 372.929 218.88C371.459 218.13 369.919 217.3 368.329 216.39C380.669 203.58 389.469 190.02 395.679 176.62C398.109 171.67 400.259 166.56 402.109 161.31C415.409 171.1 428.299 185.65 434.009 202.75C439.519 219.27 437.409 237.87 426.379 253.13C424.289 256.02 421.639 258.87 418.939 261.25C418.899 261.28 418.859 261.32 418.819 261.36C399.529 276.52 375.669 286.25 349.409 288.04Z" fill="url(#paint1_linear_93_213)"/>
<path style="mix-blend-mode:overlay" opacity="0.9" d="M378.719 51.9199C378.209 51.8199 377.699 51.7399 377.179 51.6699C374.559 51.3299 371.979 51.3999 369.499 51.7999C384.979 60.2199 396.269 83.6899 390.329 129.97C388.359 145.3 383.809 159.89 377.219 173.27C371.889 184.78 364.629 196.4 354.869 207.57C359.549 211.08 364.119 214.02 368.309 216.4C380.649 203.59 389.449 190.03 395.659 176.63C402.239 163.24 406.799 148.66 408.769 133.33C415.829 78.2199 398.489 55.4499 378.719 51.9199Z" fill="url(#paint2_radial_93_213)"/>
<g style="mix-blend-mode:overlay" opacity="0.8">
<path d="M390.339 129.97C396.269 83.68 384.989 60.22 369.509 51.8C368.909 51.9 368.309 52.02 367.719 52.16C382.879 60.87 393.779 84.31 387.929 129.97C385.959 145.3 381.409 159.89 374.819 173.27C369.659 184.4 362.689 195.63 353.419 206.45C353.909 206.83 354.399 207.2 354.889 207.56C364.639 196.39 371.899 184.77 377.239 173.26C383.819 159.87 388.379 145.29 390.349 129.96L390.339 129.97Z" fill="white"/>
</g>
<path style="mix-blend-mode:overlay" opacity="0.5" d="M331.499 234.95C330.049 233.84 328.649 232.68 327.249 231.52C304.399 241.05 272.739 247.03 241.289 239.73C246.439 246.29 252.189 252.35 258.499 257.77C289.179 261.95 318.699 252.21 338.809 240.26C336.419 238.6 333.989 236.84 331.509 234.94L331.499 234.95Z" fill="url(#paint3_radial_93_213)"/>
<path style="mix-blend-mode:overlay" opacity="0.6" d="M327.239 231.52C326.539 230.94 325.839 230.37 325.149 229.77C302.129 238.97 270.319 244.47 238.939 236.65C239.699 237.69 240.479 238.72 241.279 239.73C272.729 247.03 304.399 241.05 327.239 231.52Z" fill="url(#paint4_linear_93_213)"/>
<path style="mix-blend-mode:overlay" opacity="0.9" d="M226.689 183.96C226.859 184.45 227.039 184.93 227.249 185.41C228.269 187.85 229.619 190.04 231.199 192C230.749 174.38 245.429 152.88 288.479 134.87C302.739 128.91 317.649 125.56 332.539 124.57C345.179 123.43 358.869 123.91 373.419 126.77C374.119 120.96 374.379 115.53 374.349 110.72C357.089 106.44 340.949 105.6 326.239 106.92C311.359 107.91 296.439 111.26 282.179 117.22C230.919 138.66 219.879 165.06 226.699 183.95L226.689 183.96Z" fill="url(#paint5_radial_93_213)"/>
<g style="mix-blend-mode:overlay" opacity="0.8">
<path d="M288.479 134.87C245.429 152.87 230.749 174.38 231.199 192C231.589 192.48 231.989 192.92 232.409 193.37C232.379 175.89 247.229 154.72 289.689 136.96C303.949 131 318.859 127.65 333.749 126.66C345.969 125.56 359.179 125.99 373.189 128.6C373.269 127.98 373.339 127.38 373.419 126.77C358.869 123.91 345.179 123.43 332.539 124.57C317.659 125.56 302.739 128.91 288.479 134.87Z" fill="white"/>
</g>
<path style="mix-blend-mode:overlay" opacity="0.4" d="M408.809 133.34C408.579 135.15 408.269 136.95 407.969 138.74C427.649 153.76 448.659 178.2 458.059 209.08C461.169 201.34 463.549 193.33 465.079 185.16C453.349 156.5 430.169 135.8 409.759 124.36C409.509 127.26 409.199 130.24 408.809 133.34Z" fill="url(#paint6_radial_93_213)"/>
<path style="mix-blend-mode:overlay" opacity="0.5" d="M407.969 138.73C407.819 139.63 407.669 140.52 407.499 141.41C426.979 156.74 447.639 181.55 456.559 212.63C457.079 211.45 457.579 210.26 458.059 209.07C448.659 178.19 427.649 153.75 407.969 138.73Z" fill="url(#paint7_linear_93_213)"/>
<path style="mix-blend-mode:overlay" opacity="0.9" d="M417.039 249.59C417.379 249.2 417.709 248.8 418.019 248.38C419.619 246.28 420.849 244.01 421.749 241.67C406.719 250.87 380.749 248.91 343.629 220.63C331.339 211.26 320.979 200.02 312.679 187.63C305.379 177.26 298.939 165.16 294.149 151.13C288.769 153.43 283.929 155.92 279.789 158.35C284.709 175.44 292.059 189.84 300.559 201.92C308.859 214.31 319.219 225.56 331.509 234.92C375.709 268.59 404.089 264.96 417.039 249.6V249.59Z" fill="url(#paint8_radial_93_213)"/>
<g style="mix-blend-mode:overlay" opacity="0.8">
<path d="M343.639 220.62C380.759 248.9 406.719 250.86 421.759 241.66C421.979 241.09 422.159 240.51 422.339 239.93C407.219 248.7 381.459 246.42 344.849 218.52C332.559 209.15 322.199 197.91 313.899 185.52C306.839 175.49 300.599 163.83 295.859 150.39C295.279 150.63 294.719 150.87 294.159 151.11C298.949 165.14 305.389 177.24 312.689 187.61C320.989 200 331.349 211.25 343.639 220.61V220.62Z" fill="white"/>
</g>
<path style="mix-blend-mode:overlay" opacity="0.3" d="M282.139 117.18C283.829 116.47 285.529 115.84 287.239 115.21C290.409 90.6599 301.069 60.2499 323.109 36.6599C314.849 37.8399 306.729 39.7799 298.879 42.5399C279.919 67.0299 273.589 97.4599 273.879 120.84C276.509 119.6 279.249 118.38 282.139 117.17V117.18Z" fill="url(#paint9_radial_93_213)"/>
<path style="mix-blend-mode:overlay" opacity="0.4" d="M287.239 115.21C288.089 114.89 288.939 114.57 289.799 114.27C293.339 89.7399 304.489 59.4399 326.949 36.1699C325.669 36.3099 324.389 36.4699 323.119 36.6499C301.079 60.2299 290.419 90.6499 287.249 115.2L287.239 115.21Z" fill="url(#paint10_linear_93_213)"/>
<path style="mix-blend-mode:multiply" opacity="0.4" d="M329.839 0.379919C285.419 3.39992 246.419 24.0799 219.209 55.0899C218.999 55.3199 218.799 55.5599 218.599 55.7899C223.899 61.0399 241.209 71.4099 248.229 75.7299C262.009 60.9099 279.329 49.3499 298.959 42.4599C300.329 40.6899 301.749 38.9499 303.259 37.2499C321.539 16.6199 346.499 5.71992 375.449 5.71992C378.669 5.71992 385.239 6.22992 385.379 6.23992C367.819 1.20992 349.119 -0.930081 329.839 0.379919Z" fill="url(#paint11_linear_93_213)"/>
<path style="mix-blend-mode:multiply" opacity="0.4" d="M349.409 288.04C314.989 290.38 282.809 278.64 258.489 257.77C256.229 257.46 253.959 257.09 251.689 256.63C224.689 251.11 202.759 234.95 188.289 209.87C186.679 207.08 185.239 204.24 183.939 201.35C202.629 275.88 272.459 328.66 351.809 323.27C352.159 315.1 349.749 296.14 349.409 288.05V288.04Z" fill="url(#paint12_linear_93_213)"/>
<path style="mix-blend-mode:multiply" opacity="0.4" d="M502.269 150.84C497.299 150.33 473.019 152.25 467.049 153.24C467.799 164.22 467.109 174.97 465.149 185.31C465.989 187.37 466.779 189.45 467.499 191.59C476.219 217.73 473.179 244.8 458.709 269.88C457.129 272.62 455.419 275.24 453.609 277.77C453.579 277.82 453.539 277.87 453.509 277.91C453.509 277.91 453.579 277.85 453.629 277.81C486.499 245.83 505.639 200.19 502.289 150.85L502.269 150.84Z" fill="url(#paint13_linear_93_213)"/>
<path style="mix-blend-mode:multiply" opacity="0.5" d="M377.119 42.09C380.669 42.45 384.459 43.32 387.869 44.47C388.029 44.52 388.189 44.57 388.349 44.62C388.349 44.62 388.349 44.62 388.349 44.61C402.309 50.3 415.069 58.43 426.089 68.49C426.109 68.51 426.139 68.53 426.159 68.55C431.469 62.48 441.689 55.81 441.689 55.81C441.689 55.81 426.029 39.8 402.089 34.83C385.329 31.35 347.519 27.98 323.669 68.56C323.669 68.56 323.759 68.47 323.899 68.34C325.659 65.67 327.539 63.08 329.659 60.69C341.209 47.66 358.369 40.19 377.099 42.11L377.119 42.09Z" fill="url(#paint14_linear_93_213)"/>
<path style="mix-blend-mode:multiply" opacity="0.5" d="M426.369 253.13C424.279 256.02 421.629 258.87 418.929 261.25C418.809 261.36 418.679 261.48 418.559 261.59C418.559 261.59 418.559 261.59 418.559 261.6C406.659 270.85 393.229 277.83 379.009 282.35C378.979 282.36 378.959 282.37 378.929 282.38C381.529 290.01 382.199 302.2 382.199 302.2C382.199 302.2 403.899 296.65 420.169 278.4C431.559 265.62 453.389 234.57 430.169 193.63C430.169 193.63 430.199 193.76 430.239 193.94C431.669 196.8 432.969 199.72 433.989 202.75C439.499 219.27 437.389 237.87 426.359 253.13H426.369Z" fill="url(#paint15_linear_93_213)"/>
<path style="mix-blend-mode:multiply" opacity="0.5" d="M218.989 190.29C217.529 187.03 216.389 183.32 215.679 179.79C215.649 179.63 215.599 179.46 215.569 179.3C215.569 179.3 215.569 179.3 215.559 179.3C213.509 164.37 214.169 149.25 217.369 134.68C217.369 134.65 217.369 134.62 217.379 134.59C209.469 133.03 198.579 127.51 198.579 127.51C198.579 127.51 192.539 149.08 200.209 172.3C205.579 188.56 221.559 222.99 268.619 223.35C268.619 223.35 268.499 223.31 268.309 223.26C265.119 223.07 261.939 222.74 258.799 222.1C241.739 218.62 226.689 207.48 218.989 190.31V190.29Z" fill="url(#paint16_linear_93_213)"/>
<path style="mix-blend-mode:multiply" opacity="0.6" d="M370.309 105.29C371.599 105.45 372.879 105.5 374.139 105.48C374.139 105.48 373.289 88.6699 371.229 80.0399C369.169 71.4099 366.119 65.6999 362.779 62.4699C360.379 60.1499 352.819 57.2699 346.939 75.0499C345.039 89.8599 355.509 103.4 370.309 105.3V105.29Z" fill="url(#paint17_linear_93_213)"/>
<path style="mix-blend-mode:multiply" opacity="0.5" d="M277.119 164.55C276.619 163.35 276.019 162.22 275.369 161.13C275.369 161.13 261.229 170.27 254.789 176.37C248.349 182.47 244.929 187.96 243.799 192.48C242.989 195.71 244.279 203.71 262.609 199.91C276.379 194.15 282.879 178.32 277.119 164.54V164.55Z" fill="url(#paint18_linear_93_213)"/>
<path style="mix-blend-mode:multiply" opacity="0.6" d="M375.029 215.61C374.239 216.65 373.559 217.73 372.949 218.84C372.949 218.84 387.929 226.51 396.439 229.04C404.939 231.57 411.409 231.78 415.889 230.5C419.089 229.58 425.369 224.47 412.919 210.49C401.049 201.44 384.089 203.74 375.039 215.61H375.029Z" fill="url(#paint19_linear_93_213)"/>
<path style="mix-blend-mode:multiply" opacity="0.3" d="M369.209 145.9C365.799 157.21 361.029 167.47 355.189 176.53C354.869 177 354.579 177.48 354.249 177.96C354.239 177.98 354.229 178 354.209 178.01C350.349 183.58 345.759 189.07 340.369 194.38C344.069 198.32 348.079 202.14 352.479 205.76C358.009 210.12 363.419 213.63 368.319 216.4C380.659 203.59 389.459 190.03 395.669 176.63C398.099 171.68 400.249 166.57 402.099 161.32C396.409 157.13 390.639 153.79 385.329 151.53C379.829 149.19 374.459 147.35 369.209 145.9Z" fill="url(#paint20_linear_93_213)"/>
<path style="mix-blend-mode:multiply" opacity="0.3" d="M258.489 257.77C289.169 261.95 318.689 252.21 338.799 240.26C336.409 238.6 333.979 236.84 331.499 234.94C323.739 229.03 316.749 222.36 310.569 215.14C295.439 221.76 276.409 225.64 258.759 222.03C241.699 218.55 226.649 207.41 218.949 190.24C217.489 186.98 216.349 183.27 215.639 179.74C220.099 211.02 235.879 238.35 258.509 257.76L258.489 257.77Z" fill="url(#paint21_linear_93_213)"/>
<path style="mix-blend-mode:multiply" opacity="0.3" d="M340.369 194.38C332.289 185.78 325.799 176.52 320.869 166.94C320.619 166.43 320.349 165.94 320.099 165.42C320.099 165.4 320.079 165.38 320.069 165.36C317.179 159.23 314.719 152.5 312.809 145.18C307.559 146.42 302.259 147.98 296.939 149.97C290.419 152.57 284.679 155.5 279.839 158.35C284.759 175.43 292.049 189.88 300.539 201.95C303.599 206.52 306.939 210.93 310.559 215.15C317.049 212.31 322.829 208.98 327.449 205.51C332.219 201.93 336.489 198.2 340.369 194.39V194.38Z" fill="url(#paint22_linear_93_213)"/>
<path style="mix-blend-mode:multiply" opacity="0.3" d="M298.859 42.5801C279.899 67.0701 273.569 97.5001 273.859 120.88C276.499 119.64 279.249 118.41 282.149 117.2C291.139 113.44 300.389 110.73 309.729 108.98C311.569 92.5701 317.719 74.1501 329.669 60.6701C341.219 47.6401 358.379 40.1701 377.109 42.0901C380.659 42.4501 384.449 43.3201 387.859 44.4701C388.019 44.5201 388.179 44.5701 388.339 44.6201C388.339 44.6201 388.339 44.6201 388.339 44.6101C371.089 37.5801 352.029 34.2601 332.219 35.6101C320.589 36.4001 309.439 38.7801 298.939 42.4701C298.909 42.5101 298.879 42.5501 298.849 42.5801H298.859Z" fill="url(#paint23_linear_93_213)"/>
<path style="mix-blend-mode:multiply" opacity="0.3" d="M465.079 185.12C453.349 156.44 430.139 135.74 409.729 124.3C409.479 127.21 409.169 130.2 408.769 133.32C407.529 142.99 405.259 152.36 402.099 161.32C415.399 171.11 428.289 185.66 433.999 202.76C439.509 219.28 437.399 237.88 426.369 253.14C424.279 256.03 421.629 258.88 418.929 261.26C418.889 261.29 418.849 261.33 418.809 261.37C442.569 242.7 459.369 215.79 465.129 185.31C465.109 185.25 465.089 185.19 465.059 185.13L465.079 185.12Z" fill="url(#paint24_linear_93_213)"/>
<path style="mix-blend-mode:multiply" opacity="0.3" d="M309.649 128.44C310.369 134.36 311.459 139.92 312.819 145.18C324.319 142.47 335.599 141.48 346.369 142C346.939 142.04 347.499 142.05 348.069 142.1C348.089 142.1 348.109 142.1 348.129 142.1C354.879 142.66 361.919 143.89 369.199 145.9C370.759 140.73 372.059 135.36 372.989 129.75C373.999 122.77 374.329 116.32 374.289 110.69C357.039 106.41 340.909 105.58 326.209 106.9C320.709 107.27 315.209 107.96 309.739 108.98C308.949 116.02 308.949 122.7 309.639 128.44H309.649Z" fill="url(#paint25_linear_93_213)"/>
<path d="M982.599 115.35L961.779 173.35H961.939L982.719 115.7L982.599 115.35Z" fill="white"/>
<path d="M612.899 115.35L592.089 173.35H592.149L612.979 115.57L612.899 115.35Z" fill="white"/>
<path d="M618.099 129.84L633.719 173.35H602.409L594.509 195.28H641.709L655.089 232.45H685.019L630.449 95.5801L618.099 129.84Z" fill="white"/>
<path d="M592.089 173.35L612.899 115.35L612.979 115.57L621.769 91.1899H598.779L542.639 232.45H570.839L592.149 173.35H592.089Z" fill="white"/>
<path d="M775.719 159.68C768.899 155.66 759.859 151.91 748.579 148.44C742.139 146.34 737.089 144.39 733.429 142.58C729.769 140.79 727.229 138.74 725.809 136.45C724.379 134.16 723.669 131.46 723.669 128.36C723.669 122.9 725.779 118.69 729.989 115.72C734.199 112.74 740.089 111.26 747.649 111.26C753.849 111.26 760.319 112.19 767.069 114.05C773.819 115.91 779.799 118.45 785.009 121.67L788.909 98.81C783.579 95.59 777.109 93.02 769.489 91.1C761.869 89.18 754.279 88.22 746.719 88.22C736.429 88.22 727.509 89.89 719.949 93.24C712.389 96.59 706.539 101.36 702.389 107.55C698.239 113.75 696.159 121.06 696.159 129.48C696.159 136.67 697.559 142.89 700.339 148.16C703.129 153.43 707.679 157.98 713.999 161.82C720.319 165.66 728.619 169.13 738.909 172.23C746.349 174.46 752.109 176.57 756.199 178.55C760.289 180.53 763.139 182.73 764.749 185.15C766.359 187.57 767.169 190.45 767.169 193.79C767.169 199.62 764.779 204.17 760.009 207.45C755.239 210.73 748.639 212.37 740.209 212.37C732.899 212.37 725.249 211.23 717.259 208.93C709.269 206.64 702.299 203.7 696.349 200.1L693.749 223.7C697.219 226.06 701.559 228.1 706.759 229.83C711.969 231.57 717.569 232.93 723.579 233.92C729.589 234.91 735.569 235.41 741.519 235.41C758.249 235.41 771.379 231.6 780.919 223.98C790.459 216.36 795.229 205.8 795.229 192.29C795.229 185.1 793.679 178.88 790.579 173.61C787.479 168.34 782.519 163.7 775.709 159.67L775.719 159.68Z" fill="white"/>
<path d="M924.049 91.1899H804.539V114.23H924.049V91.1899Z" fill="white"/>
<path d="M878.509 123.88H850.069V232.45H878.509V123.88Z" fill="white"/>
<path d="M961.779 173.35L982.599 115.35L982.719 115.7L991.559 91.1899H968.469L912.339 232.45H940.589L953.969 195.28H954.029L961.939 173.35H961.779Z" fill="white"/>
<path d="M987.839 129.96L1003.42 173.35H972.199L964.289 195.28H1011.41L1024.79 232.45H1054.72L1000.2 95.7L987.839 129.96Z" fill="white"/>
<path d="M1146.72 175.2C1153.54 171.36 1159.11 166.19 1163.45 159.68C1167.79 153.18 1169.96 145.59 1169.96 136.91C1169.96 127.49 1167.85 119.38 1163.64 112.56C1159.42 105.75 1153.42 100.48 1145.61 96.7599C1137.8 93.0399 1128.51 91.1799 1117.73 91.1799H1107.85V112.56H1114.01C1132.85 112.56 1142.26 120.61 1142.26 136.72C1142.26 152.83 1132.53 160.88 1113.08 160.88H1107.85V182.25H1122.37L1152.11 232.43H1183.89L1146.71 175.18L1146.72 175.2Z" fill="white"/>
<path d="M1098.2 91.1899H1071.26V232.45H1098.2V91.1899Z" fill="white"/>
<defs>
<linearGradient id="paint0_linear_93_213" x1="884.51" y1="432.86" x2="961.86" y2="220.16" gradientUnits="userSpaceOnUse">
<stop stop-color="#FE3DA4"/>
<stop offset="1" stop-color="#E6007A"/>
</linearGradient>
<linearGradient id="paint1_linear_93_213" x1="230.389" y1="272.26" x2="436.739" y2="65.91" gradientUnits="userSpaceOnUse">
<stop stop-color="#E6007A"/>
<stop offset="0.21" stop-color="#703AC2"/>
<stop offset="0.46" stop-color="#0070EB"/>
<stop offset="0.77" stop-color="#0297FB"/>
<stop offset="1" stop-color="#0AE2FF"/>
</linearGradient>
<radialGradient id="paint2_radial_93_213" cx="0" cy="0" r="1" gradientUnits="userSpaceOnUse" gradientTransform="translate(386.949 129.07) scale(61.53 61.53)">
<stop stop-color="white"/>
<stop offset="1" stop-color="white" stop-opacity="0"/>
</radialGradient>
<radialGradient id="paint3_radial_93_213" cx="0" cy="0" r="1" gradientUnits="userSpaceOnUse" gradientTransform="translate(295.999 243.21) scale(35.8 35.8)">
<stop stop-color="white"/>
<stop offset="1" stop-color="white" stop-opacity="0"/>
</radialGradient>
<linearGradient id="paint4_linear_93_213" x1="242.279" y1="237.15" x2="276.789" y2="236.67" gradientUnits="userSpaceOnUse">
<stop stop-color="white" stop-opacity="0"/>
<stop offset="1" stop-color="white"/>
</linearGradient>
<radialGradient id="paint5_radial_93_213" cx="0" cy="0" r="1" gradientUnits="userSpaceOnUse" gradientTransform="translate(289.388 138.255) rotate(-120) scale(61.53)">
<stop stop-color="white"/>
<stop offset="1" stop-color="white" stop-opacity="0"/>
</radialGradient>
<radialGradient id="paint6_radial_93_213" cx="0" cy="0" r="1" gradientUnits="userSpaceOnUse" gradientTransform="translate(433.707 159.941) rotate(-120) scale(35.8 35.8)">
<stop stop-color="white"/>
<stop offset="1" stop-color="white" stop-opacity="0"/>
</radialGradient>
<linearGradient id="paint7_linear_93_213" x1="455.332" y1="209.498" x2="437.661" y2="179.851" gradientUnits="userSpaceOnUse">
<stop stop-color="white" stop-opacity="0"/>
<stop offset="1" stop-color="white"/>
</linearGradient>
<radialGradient id="paint8_radial_93_213" cx="0" cy="0" r="1" gradientUnits="userSpaceOnUse" gradientTransform="translate(343.212 215.292) rotate(120) scale(61.53 61.53)">
<stop stop-color="white"/>
<stop offset="1" stop-color="white" stop-opacity="0"/>
</radialGradient>
<radialGradient id="paint9_radial_93_213" cx="0" cy="0" r="1" gradientUnits="userSpaceOnUse" gradientTransform="translate(292.741 82.3105) rotate(120) scale(35.8 35.8)">
<stop stop-color="white"/>
<stop offset="1" stop-color="white" stop-opacity="0"/>
</radialGradient>
<linearGradient id="paint10_linear_93_213" x1="324.846" y1="38.804" x2="308.007" y2="68.9305" gradientUnits="userSpaceOnUse">
<stop stop-color="white" stop-opacity="0"/>
<stop offset="1" stop-color="white"/>
</linearGradient>
<linearGradient id="paint11_linear_93_213" x1="332.339" y1="23.4999" x2="279.629" y2="38.8299" gradientUnits="userSpaceOnUse">
<stop stop-color="#231F20"/>
<stop offset="1" stop-color="white"/>
</linearGradient>
<linearGradient id="paint12_linear_93_213" x1="232.719" y1="224.56" x2="276.809" y2="270.57" gradientUnits="userSpaceOnUse">
<stop stop-color="#231F20"/>
<stop offset="1" stop-color="white"/>
</linearGradient>
<linearGradient id="paint13_linear_93_213" x1="469.359" y1="217.63" x2="484.699" y2="170.98" gradientUnits="userSpaceOnUse">
<stop stop-color="#231F20"/>
<stop offset="1" stop-color="white"/>
</linearGradient>
<linearGradient id="paint14_linear_93_213" x1="356.369" y1="50.17" x2="427.049" y2="66.36" gradientUnits="userSpaceOnUse">
<stop stop-color="#231F20"/>
<stop offset="1" stop-color="white"/>
</linearGradient>
<linearGradient id="paint15_linear_93_213" x1="429.739" y1="231.103" x2="380.386" y2="284.224" gradientUnits="userSpaceOnUse">
<stop stop-color="#231F20"/>
<stop offset="1" stop-color="white"/>
</linearGradient>
<linearGradient id="paint16_linear_93_213" x1="236.374" y1="204.224" x2="215.055" y2="134.919" gradientUnits="userSpaceOnUse">
<stop stop-color="#231F20"/>
<stop offset="1" stop-color="white"/>
</linearGradient>
<linearGradient id="paint17_linear_93_213" x1="371.819" y1="76.2399" x2="349.449" y2="98.6099" gradientUnits="userSpaceOnUse">
<stop stop-color="#231F20"/>
<stop offset="1" stop-color="white"/>
</linearGradient>
<linearGradient id="paint18_linear_93_213" x1="251.201" y1="177.773" x2="281.754" y2="185.952" gradientUnits="userSpaceOnUse">
<stop stop-color="#231F20"/>
<stop offset="1" stop-color="white"/>
</linearGradient>
<linearGradient id="paint19_linear_93_213" x1="399.428" y1="231.444" x2="391.249" y2="200.891" gradientUnits="userSpaceOnUse">
<stop stop-color="#231F20"/>
<stop offset="1" stop-color="white"/>
</linearGradient>
<linearGradient id="paint20_linear_93_213" x1="352.929" y1="204.28" x2="366.349" y2="185.74" gradientUnits="userSpaceOnUse">
<stop stop-color="#231F20"/>
<stop offset="1" stop-color="white"/>
</linearGradient>
<linearGradient id="paint21_linear_93_213" x1="306.719" y1="196.25" x2="279.879" y2="209.03" gradientUnits="userSpaceOnUse">
<stop stop-color="#231F20"/>
<stop offset="1" stop-color="white"/>
</linearGradient>
<linearGradient id="paint22_linear_93_213" x1="296.979" y1="151.58" x2="305.289" y2="168.83" gradientUnits="userSpaceOnUse">
<stop stop-color="#231F20"/>
<stop offset="1" stop-color="white"/>
</linearGradient>
<linearGradient id="paint23_linear_93_213" x1="335.629" y1="98.2901" x2="329.879" y2="78.4801" gradientUnits="userSpaceOnUse">
<stop stop-color="#231F20"/>
<stop offset="1" stop-color="white"/>
</linearGradient>
<linearGradient id="paint24_linear_93_213" x1="397.609" y1="188.99" x2="414.219" y2="192.82" gradientUnits="userSpaceOnUse">
<stop stop-color="#231F20"/>
<stop offset="1" stop-color="white"/>
</linearGradient>
<linearGradient id="paint25_linear_93_213" x1="371.529" y1="132.86" x2="350.449" y2="129.03" gradientUnits="userSpaceOnUse">
<stop stop-color="#231F20"/>
<stop offset="1" stop-color="white"/>
</linearGradient>
</defs>
</svg>
