<svg width="477" height="335" viewBox="0 0 477 335" fill="none" xmlns="http://www.w3.org/2000/svg">
<path d="M442.642 285.989L473.24 268.206C474.862 267.262 475.864 265.51 475.864 263.63V228.064C475.864 226.184 474.862 224.432 473.24 223.488L442.642 205.705C441.02 204.76 439.006 204.77 437.393 205.705L406.795 223.488C405.173 224.432 404.17 226.184 404.17 228.064V291.62L382.711 304.084L361.252 291.62V266.684L382.711 254.22L396.862 262.447V245.719L385.336 239.015C384.543 238.556 383.632 238.308 382.711 238.308C381.791 238.308 380.88 238.556 380.087 239.015L349.489 256.797C347.867 257.742 346.864 259.494 346.864 261.374V296.939C346.864 298.819 347.867 300.571 349.489 301.516L380.087 319.298C381.709 320.234 383.714 320.234 385.336 319.298L415.934 301.516C417.556 300.571 418.558 298.819 418.558 296.939V233.374L418.941 233.154L440.008 220.911L461.467 233.374V258.311L440.008 270.774L425.875 262.566V279.294L437.384 285.98C439.006 286.915 441.02 286.915 442.633 285.98L442.642 285.989Z" fill="url(#paint0_linear_142_1718)" fill-opacity="0.5" stroke="#7F58EF" stroke-width="1.5"/>
<path d="M260.844 12.8305C313.89 34.7804 325.236 117.426 286.156 197.427L286.153 197.421C247.078 277.4 172.415 324.399 119.382 302.454C72.1452 282.915 58.0187 215.298 83.0089 144.27C83.7998 141.996 84.6526 139.722 85.5178 137.46C85.5178 137.423 85.5425 137.374 85.5672 137.324C86.5312 134.84 87.557 132.319 88.6199 129.81C88.7064 129.637 88.7559 129.476 88.8424 129.303C90.4738 125.496 92.167 121.702 94.0332 117.908C113.499 78.062 141.789 46.398 171.859 27.3402C172.069 27.1672 172.291 27.0065 172.514 26.8459L172.514 26.8458L172.538 26.92C202.621 8.097 234.408 1.89271 260.844 12.8305Z" fill="url(#paint1_linear_142_1718)" fill-opacity="0.8"/>
<path d="M311.9 39.8229L268.495 16.5878C314.903 43.061 323.283 121.43 286.168 197.439L286.205 197.402C247.286 277.094 173.033 324.071 120.024 302.739L167.879 328.606C220.924 350.556 295.611 303.53 334.678 223.517L334.641 223.554C373.72 143.553 361.72 63.5772 311.912 39.8229H311.9Z" fill="url(#paint2_linear_142_1718)" fill-opacity="0.7"/>
<path d="M286.156 197.427C325.236 117.426 313.89 34.7804 260.844 12.8305C234.408 1.89271 202.621 8.097 172.538 26.92L172.514 26.8458C172.291 27.0065 172.069 27.1671 171.859 27.3402C141.789 46.398 113.499 78.0621 94.0332 117.908C92.167 121.702 90.4738 125.496 88.8424 129.303C88.7559 129.476 88.7064 129.637 88.6199 129.81C87.557 132.319 86.5312 134.84 85.5672 137.324C85.5425 137.374 85.5178 137.423 85.5178 137.46C84.6526 139.722 83.7998 141.996 83.0089 144.27C58.0187 215.298 72.1452 282.915 119.382 302.455C172.427 324.404 247.113 277.378 286.181 197.365L286.144 197.402L286.156 197.427ZM258.2 200.331C258.2 200.331 259.547 182.064 257.161 164.242C255.592 152.476 249.672 139.104 247.595 135.989C253.244 125.496 260.387 107.477 262.822 95.0559C266.147 78.0373 263.156 67.0254 255.555 63.2311C250.685 60.7964 237.918 62.9963 229.267 77.5306C222 89.7414 223.038 100.358 224.879 104.165C227.759 110.109 232.591 111.827 232.95 112C232.221 113.459 231.566 115.918 230.639 117.414C227.722 114.719 219.108 109.022 211.618 106.809C202.139 104.004 192.894 103.361 191.67 103.238C199.852 88.246 212.421 69.6826 227.759 59.5357C237.103 53.3067 250.018 49.8462 261.079 55.7291C276.602 63.9726 283.252 93.0908 283.103 115.918C282.868 151.203 268.223 184.981 258.2 200.319V200.331ZM176.16 186.699C173.799 175.971 175.134 148.398 178.829 136.768C180.399 136.706 188.469 136.521 196.639 138.894C206.452 141.724 211.915 146.47 213.731 148.163C207.367 159.62 187.308 180.519 176.16 186.699ZM211.062 41.0341C199.79 49.0305 173.367 83.9326 164.53 108.169C127.873 118.044 114.994 139.363 110.965 154.219C108.234 164.279 110.421 176.169 120.296 177.788C128.416 179.123 141.69 170.842 146.72 156.159C148.24 151.735 149.39 144.221 149.39 144.221C149.39 144.221 152.035 143.405 153.394 143.071C150.329 154.133 148.97 164.304 148.611 178.035C148.339 185.129 149.155 195.943 149.526 200.764C133.941 203.767 120.939 203.174 111.67 194.362C97.1724 179.32 102.672 154.318 110.347 135.693C129.158 90.0628 173.7 45.5328 211.087 41.0465L211.062 41.0341ZM100.794 229.115C109.643 235.48 131.209 239.596 157.51 228.386C160.748 237.322 169.387 253.895 181.956 257.257C190.533 259.074 198.27 255.786 204.017 249.829C214.646 238.805 220.405 221.44 212.434 211.355C203.523 200.071 189.322 212.875 187.196 215.508C186.863 215.026 184.984 212.356 184.774 212.023C207.441 196.747 226.832 170.459 228.155 168.037C233.481 182.583 234.643 205.547 229.119 221.935C224.842 234.652 213.67 256.207 193.215 266.193C172.761 276.179 152.492 278.824 134.596 271.47C109.223 261.039 101.214 232.514 100.781 229.115H100.794Z" fill="url(#paint3_linear_142_1718)" fill-opacity="0.8"/>
<path d="M118.621 165.41C114.638 170.72 114.639 174.26 117.293 176.915C127.471 182.224 140.746 168.507 143.401 163.64C146.056 158.772 147.826 151.692 148.711 144.612C134.551 149.48 123.516 158.882 118.621 165.41Z" fill="url(#paint4_linear_142_1718)" fill-opacity="0.5"/>
<path d="M209.332 208.332C201.19 202.314 191.485 210.839 187.65 215.854C190.895 220.279 199.066 229.925 205.792 233.111C212.518 236.297 214.79 232.964 215.085 230.899C216.56 225.884 217.474 214.35 209.332 208.332Z" fill="url(#paint5_linear_142_1718)" fill-opacity="0.5"/>
<path d="M223.492 95.9381C222.834 105.48 229.834 110.688 232.784 111.868C234.997 105.968 240.749 91.9556 242.519 85.7607C244.596 78.4903 247.387 67.6184 243.847 66.291C240.307 64.9635 237.264 67.564 235.439 69.3884C232.342 72.4859 224.377 83.1057 223.492 95.9381Z" fill="url(#paint6_linear_142_1718)" fill-opacity="0.5"/>
<path d="M162.404 325.467C218.329 338.432 285.896 296.732 324.964 216.732L324.926 216.769C364.006 136.768 344.553 58.9796 310.553 39.1556" stroke="url(#paint7_linear_142_1718)" stroke-width="1.5" stroke-miterlimit="10" stroke-linejoin="round"/>
<path d="M150.403 319.275C205.241 331.635 272.808 288.971 311.875 208.958L311.838 208.995C350.918 128.994 331.279 54.2337 298.923 32.7783" stroke="url(#paint8_linear_142_1718)" stroke-width="1.5" stroke-miterlimit="10" stroke-linejoin="round"/>
<path d="M136.956 311.835C193.858 328.26 260.202 281.222 299.281 201.221L299.244 201.258C338.324 121.257 320.749 46.6204 283.301 24.4358" stroke="url(#paint9_linear_142_1718)" stroke-width="1.5" stroke-miterlimit="10" stroke-linejoin="round"/>
<path d="M311.9 39.8229L268.495 16.5878C314.903 43.061 323.283 121.43 286.168 197.439L286.205 197.402C247.286 277.094 173.033 324.071 120.024 302.739L167.879 328.606C220.924 350.556 295.611 303.53 334.678 223.517L334.641 223.554C373.72 143.553 361.72 63.5772 311.912 39.8229H311.9Z" stroke="url(#paint10_linear_142_1718)" stroke-width="1.5" stroke-miterlimit="10" stroke-linejoin="round"/>
<path d="M286.156 197.427C325.236 117.426 313.89 34.7804 260.844 12.8305C234.408 1.89271 202.621 8.097 172.538 26.92L172.514 26.8458C172.291 27.0065 172.069 27.1671 171.859 27.3402C141.789 46.398 113.499 78.0621 94.0332 117.908C92.167 121.702 90.4738 125.496 88.8424 129.303C88.7559 129.476 88.7064 129.637 88.6199 129.81C87.557 132.319 86.5312 134.84 85.5672 137.324C85.5425 137.374 85.5178 137.423 85.5178 137.46C84.6526 139.722 83.7998 141.996 83.0089 144.27C58.0187 215.298 72.1452 282.915 119.382 302.455C172.427 324.404 247.113 277.378 286.181 197.365L286.144 197.402L286.156 197.427ZM258.2 200.331C258.2 200.331 259.547 182.064 257.161 164.242C255.592 152.476 249.672 139.104 247.595 135.989C253.244 125.496 260.387 107.477 262.822 95.0559C266.147 78.0373 263.156 67.0254 255.555 63.2311C250.685 60.7964 237.918 62.9963 229.267 77.5306C222 89.7414 223.038 100.358 224.879 104.165C227.759 110.109 232.591 111.827 232.95 112C232.221 113.459 231.566 115.918 230.639 117.414C227.722 114.719 219.108 109.022 211.618 106.809C202.139 104.004 192.894 103.361 191.67 103.238C199.852 88.246 212.421 69.6826 227.759 59.5357C237.103 53.3067 250.018 49.8462 261.079 55.7291C276.602 63.9726 283.252 93.0908 283.103 115.918C282.868 151.203 268.223 184.981 258.2 200.319V200.331ZM176.16 186.699C173.799 175.971 175.134 148.398 178.829 136.768C180.399 136.706 188.469 136.521 196.639 138.894C206.452 141.724 211.915 146.47 213.731 148.163C207.367 159.62 187.308 180.519 176.16 186.699ZM211.062 41.0341C199.79 49.0305 173.367 83.9326 164.53 108.169C127.873 118.044 114.994 139.363 110.965 154.219C108.234 164.279 110.421 176.169 120.296 177.788C128.416 179.123 141.69 170.842 146.72 156.159C148.24 151.735 149.39 144.221 149.39 144.221C149.39 144.221 152.035 143.405 153.394 143.071C150.329 154.133 148.97 164.304 148.611 178.035C148.339 185.129 149.155 195.943 149.526 200.764C133.941 203.767 120.939 203.174 111.67 194.362C97.1724 179.32 102.672 154.318 110.347 135.693C129.158 90.0628 173.7 45.5328 211.087 41.0465L211.062 41.0341ZM100.794 229.115C109.643 235.48 131.209 239.596 157.51 228.386C160.748 237.322 169.387 253.895 181.956 257.257C190.533 259.074 198.27 255.786 204.017 249.829C214.646 238.805 220.405 221.44 212.434 211.355C203.523 200.071 189.322 212.875 187.196 215.508C186.863 215.026 184.984 212.356 184.774 212.023C207.441 196.747 226.832 170.459 228.155 168.037C233.481 182.583 234.643 205.547 229.119 221.935C224.842 234.652 213.67 256.207 193.215 266.193C172.761 276.179 152.492 278.824 134.596 271.47C109.223 261.039 101.214 232.514 100.781 229.115H100.794Z" stroke="url(#paint11_linear_142_1718)" stroke-width="1.5" stroke-miterlimit="10" stroke-linejoin="round"/>
<mask id="mask0_142_1718" style="mask-type:luminance" maskUnits="userSpaceOnUse" x="120" y="16" width="238" height="318">
<path d="M311.9 39.8229L268.495 16.5878C314.903 43.061 323.283 121.43 286.168 197.439L286.205 197.402C247.286 277.094 173.033 324.071 120.024 302.739L167.879 328.606C220.924 350.556 295.611 303.53 334.678 223.517L334.641 223.554C373.72 143.553 361.72 63.5772 311.912 39.8229H311.9Z" fill="white"/>
</mask>
<g mask="url(#mask0_142_1718)">
<path d="M191.312 138.226L352.005 225.84" stroke="#B046F5" stroke-width="1.5" stroke-miterlimit="10" stroke-linejoin="round"/>
<path d="M174.232 181.125L334.925 268.739" stroke="#B845F3" stroke-width="1.5" stroke-miterlimit="10" stroke-linejoin="round"/>
<path d="M145.138 216.027L305.844 303.641" stroke="#B942F1" stroke-width="1.5" stroke-miterlimit="10" stroke-linejoin="round"/>
<path d="M122.966 240.745L283.659 328.372" stroke="#BA41EF" stroke-width="1.5" stroke-miterlimit="10" stroke-linejoin="round"/>
<path d="M102.005 255.898L262.698 343.512" stroke="#BB40EF" stroke-width="1.5" stroke-miterlimit="10" stroke-linejoin="round"/>
<path d="M78.2505 261.719L238.944 349.333" stroke="#BC40F0" stroke-width="1.5" stroke-miterlimit="10" stroke-linejoin="round"/>
<path d="M63.222 265.105L223.915 352.732" stroke="#BC40F0" stroke-width="1.5" stroke-miterlimit="10" stroke-linejoin="round"/>
<path d="M203.671 94.9694L364.377 182.583" stroke="#B54AF8" stroke-width="1.5" stroke-miterlimit="10" stroke-linejoin="round"/>
<path d="M216.03 60.0671L376.736 147.681" stroke="#A94BFA" stroke-width="1.5" stroke-miterlimit="10" stroke-linejoin="round"/>
<path d="M219.305 30.6154L379.999 118.229" stroke="#AF4FFD" stroke-width="1.5" stroke-miterlimit="10" stroke-linejoin="round"/>
<path d="M217.254 8.80139L377.947 96.4153" stroke="#AE51FF" stroke-width="1.5" stroke-miterlimit="10" stroke-linejoin="round"/>
<path d="M208.763 -9.02032L369.457 78.606" stroke="#AD52FF" stroke-width="1.5" stroke-miterlimit="10" stroke-linejoin="round"/>
</g>
<g style="mix-blend-mode:color-dodge">
<path d="M311.9 39.8229L268.495 16.5878C314.903 43.061 323.283 121.43 286.168 197.439L286.205 197.402C247.286 277.094 173.033 324.071 120.024 302.739L167.879 328.606C220.924 350.556 295.611 303.53 334.678 223.517L334.641 223.554C373.72 143.553 361.72 63.5772 311.912 39.8229H311.9Z" fill="url(#paint12_radial_142_1718)" style="mix-blend-mode:color-dodge"/>
<path d="M311.9 39.8229L268.495 16.5878C314.903 43.061 323.283 121.43 286.168 197.439L286.205 197.402C247.286 277.094 173.033 324.071 120.024 302.739L167.879 328.606C220.924 350.556 295.611 303.53 334.678 223.517L334.641 223.554C373.72 143.553 361.72 63.5772 311.912 39.8229H311.9Z" stroke="black" stroke-width="1.5"/>
</g>
<g style="mix-blend-mode:color-dodge">
<path d="M286.156 197.427C325.236 117.426 313.89 34.7804 260.844 12.8305C234.408 1.89271 202.621 8.097 172.538 26.92L172.514 26.8458C172.291 27.0065 172.069 27.1671 171.859 27.3402C141.789 46.398 113.499 78.0621 94.0332 117.908C92.167 121.702 90.4738 125.496 88.8424 129.303C88.7559 129.476 88.7064 129.637 88.6199 129.81C87.557 132.319 86.5312 134.84 85.5672 137.324C85.5425 137.374 85.5178 137.423 85.5178 137.46C84.6526 139.722 83.7998 141.996 83.0089 144.27C58.0187 215.298 72.1452 282.915 119.382 302.455C172.427 324.404 247.113 277.378 286.181 197.365L286.144 197.402L286.156 197.427ZM258.2 200.331C258.2 200.331 259.547 182.064 257.161 164.242C255.592 152.476 249.672 139.104 247.595 135.989C253.244 125.496 260.387 107.477 262.822 95.0559C266.147 78.0373 263.156 67.0254 255.555 63.2311C250.685 60.7964 237.918 62.9963 229.267 77.5306C222 89.7415 223.038 100.358 224.879 104.165C227.759 110.109 232.591 111.827 232.95 112C232.221 113.459 231.566 115.918 230.639 117.414C227.722 114.719 219.108 109.022 211.618 106.809C202.139 104.004 192.894 103.361 191.67 103.238C199.852 88.246 212.421 69.6826 227.759 59.5357C237.103 53.3067 250.018 49.8462 261.079 55.7291C276.602 63.9727 283.252 93.0908 283.103 115.918C282.868 151.203 268.223 184.981 258.2 200.319V200.331ZM176.16 186.699C173.799 175.971 175.134 148.398 178.829 136.768C180.399 136.706 188.469 136.521 196.639 138.894C206.452 141.724 211.915 146.47 213.731 148.163C207.366 159.62 187.308 180.519 176.16 186.699ZM211.062 41.0341C199.79 49.0305 173.367 83.9327 164.53 108.169C127.873 118.044 114.994 139.363 110.965 154.219C108.234 164.279 110.421 176.169 120.296 177.788C128.416 179.123 141.69 170.842 146.72 156.159C148.24 151.735 149.39 144.221 149.39 144.221C149.39 144.221 152.035 143.405 153.394 143.071C150.329 154.133 148.97 164.304 148.611 178.035C148.339 185.129 149.155 195.943 149.526 200.764C133.941 203.767 120.939 203.174 111.67 194.362C97.1724 179.32 102.672 154.318 110.347 135.693C129.158 90.0628 173.7 45.5328 211.087 41.0465L211.062 41.0341ZM100.794 229.115C109.643 235.48 131.209 239.596 157.51 228.386C160.748 237.322 169.387 253.896 181.956 257.257C190.533 259.074 198.27 255.786 204.017 249.829C214.646 238.805 220.405 221.44 212.434 211.355C203.523 200.071 189.322 212.876 187.196 215.508C186.863 215.026 184.984 212.356 184.774 212.023C207.441 196.747 226.832 170.459 228.155 168.037C233.481 182.583 234.643 205.547 229.119 221.935C224.842 234.652 213.67 256.207 193.215 266.193C172.761 276.179 152.492 278.824 134.596 271.47C109.223 261.039 101.214 232.514 100.781 229.115H100.794Z" fill="url(#paint13_radial_142_1718)" style="mix-blend-mode:color-dodge"/>
<path d="M286.156 197.427C325.236 117.426 313.89 34.7804 260.844 12.8305C234.408 1.89271 202.621 8.097 172.538 26.92L172.514 26.8458C172.291 27.0065 172.069 27.1671 171.859 27.3402C141.789 46.398 113.499 78.0621 94.0332 117.908C92.167 121.702 90.4738 125.496 88.8424 129.303C88.7559 129.476 88.7064 129.637 88.6199 129.81C87.557 132.319 86.5312 134.84 85.5672 137.324C85.5425 137.374 85.5178 137.423 85.5178 137.46C84.6526 139.722 83.7998 141.996 83.0089 144.27C58.0187 215.298 72.1452 282.915 119.382 302.455C172.427 324.404 247.113 277.378 286.181 197.365L286.144 197.402L286.156 197.427ZM258.2 200.331C258.2 200.331 259.547 182.064 257.161 164.242C255.592 152.476 249.672 139.104 247.595 135.989C253.244 125.496 260.387 107.477 262.822 95.0559C266.147 78.0373 263.156 67.0254 255.555 63.2311C250.685 60.7964 237.918 62.9963 229.267 77.5306C222 89.7415 223.038 100.358 224.879 104.165C227.759 110.109 232.591 111.827 232.95 112C232.221 113.459 231.566 115.918 230.639 117.414C227.722 114.719 219.108 109.022 211.618 106.809C202.139 104.004 192.894 103.361 191.67 103.238C199.852 88.246 212.421 69.6826 227.759 59.5357C237.103 53.3067 250.018 49.8462 261.079 55.7291C276.602 63.9727 283.252 93.0908 283.103 115.918C282.868 151.203 268.223 184.981 258.2 200.319V200.331ZM176.16 186.699C173.799 175.971 175.134 148.398 178.829 136.768C180.399 136.706 188.469 136.521 196.639 138.894C206.452 141.724 211.915 146.47 213.731 148.163C207.366 159.62 187.308 180.519 176.16 186.699ZM211.062 41.0341C199.79 49.0305 173.367 83.9327 164.53 108.169C127.873 118.044 114.994 139.363 110.965 154.219C108.234 164.279 110.421 176.169 120.296 177.788C128.416 179.123 141.69 170.842 146.72 156.159C148.24 151.735 149.39 144.221 149.39 144.221C149.39 144.221 152.035 143.405 153.394 143.071C150.329 154.133 148.97 164.304 148.611 178.035C148.339 185.129 149.155 195.943 149.526 200.764C133.941 203.767 120.939 203.174 111.67 194.362C97.1724 179.32 102.672 154.318 110.347 135.693C129.158 90.0628 173.7 45.5328 211.087 41.0465L211.062 41.0341ZM100.794 229.115C109.643 235.48 131.209 239.596 157.51 228.386C160.748 237.322 169.387 253.896 181.956 257.257C190.533 259.074 198.27 255.786 204.017 249.829C214.646 238.805 220.405 221.44 212.434 211.355C203.523 200.071 189.322 212.876 187.196 215.508C186.863 215.026 184.984 212.356 184.774 212.023C207.441 196.747 226.832 170.459 228.155 168.037C233.481 182.583 234.643 205.547 229.119 221.935C224.842 234.652 213.67 256.207 193.215 266.193C172.761 276.179 152.492 278.824 134.596 271.47C109.223 261.039 101.214 232.514 100.781 229.115H100.794Z" stroke="black" stroke-width="1.5"/>
</g>
<path d="M232.95 112.013C232.95 112.013 240.897 91.756 243.06 84.5383C245.964 74.8487 247.904 63.9356 239.661 66.358" stroke="#A44DFC" stroke-width="1.5" stroke-miterlimit="10" stroke-linejoin="round"/>
<path d="M187.196 215.508C187.196 215.508 196.404 227.299 203.078 231.538C209.752 235.777 213.262 233.837 214.955 230.685" stroke="#B245F4" stroke-width="1.5" stroke-miterlimit="10" stroke-linejoin="round"/>
<path d="M149.39 144.22C149.39 144.22 130.975 151.426 121.878 161.251C112.782 171.077 115.699 175.304 117.157 176.638" stroke="#AA49F8" stroke-width="1.5" stroke-miterlimit="10" stroke-linejoin="round"/>
<path d="M52.0747 21.845C61.9865 21.845 70.0216 17.1787 70.0216 11.4225C70.0216 5.66631 61.9865 1 52.0747 1C42.1628 1 34.1277 5.66631 34.1277 11.4225C34.1277 17.1787 42.1628 21.845 52.0747 21.845Z" fill="#E6007A" fill-opacity="0.15" stroke="#D840DB" stroke-width="1.5"/>
<path d="M52.0747 100.348C61.9865 100.348 70.0216 95.6818 70.0216 89.9256C70.0216 84.1694 61.9865 79.5031 52.0747 79.5031C42.1628 79.5031 34.1277 84.1694 34.1277 89.9256C34.1277 95.6818 42.1628 100.348 52.0747 100.348Z" fill="#E6007A" fill-opacity="0.15" stroke="#D840DB" stroke-width="1.5"/>
<path d="M27.0607 36.2601C32.0166 27.6928 31.9852 18.4144 26.9906 15.5363C21.9959 12.6583 13.9294 17.2703 8.97348 25.8376C4.01756 34.405 4.04896 43.6833 9.04361 46.5614C14.0383 49.4395 22.1048 44.8275 27.0607 36.2601Z" fill="#E6007A" fill-opacity="0.15" stroke="#D840DB" stroke-width="1.5"/>
<path d="M95.1767 75.5106C100.133 66.9433 100.101 57.6649 95.1065 54.7868C90.1119 51.9087 82.0454 56.5208 77.0895 65.0881C72.1335 73.6554 72.1649 82.9338 77.1596 85.8119C82.1542 88.69 90.2207 84.078 95.1767 75.5106Z" fill="#E6007A" fill-opacity="0.15" stroke="#D840DB" stroke-width="1.5"/>
<path d="M26.9906 85.8122C31.9852 82.9341 32.0166 73.6557 27.0607 65.0884C22.1048 56.5211 14.0382 51.909 9.0436 54.7871C4.04896 57.6652 4.01757 66.9436 8.97349 75.5109C13.9294 84.0782 21.9959 88.6903 26.9906 85.8122Z" fill="#E6007A" fill-opacity="0.15" stroke="#D840DB" stroke-width="1.5"/>
<path d="M95.1065 46.5617C100.101 43.6836 100.133 34.4052 95.1767 25.8379C90.2207 17.2706 82.1542 12.6585 77.1596 15.5366C72.1649 18.4147 72.1335 27.6931 77.0895 36.2604C82.0454 44.8277 90.1119 49.4398 95.1065 46.5617Z" fill="#E6007A" fill-opacity="0.15" stroke="#D840DB" stroke-width="1.5"/>
<defs>
<linearGradient id="paint0_linear_142_1718" x1="346.445" y1="300.424" x2="470.726" y2="228.752" gradientUnits="userSpaceOnUse">
<stop stop-color="#A726C1"/>
<stop offset="0.88" stop-color="#803BDF"/>
<stop offset="1" stop-color="#7B3FE4"/>
</linearGradient>
<linearGradient id="paint1_linear_142_1718" x1="177.87" y1="245.455" x2="147.33" y2="61.4991" gradientUnits="userSpaceOnUse">
<stop stop-color="#40004D"/>
<stop offset="1" stop-color="#1D004F"/>
</linearGradient>
<linearGradient id="paint2_linear_142_1718" x1="226.735" y1="268.076" x2="192.648" y2="74.3481" gradientUnits="userSpaceOnUse">
<stop stop-color="#40004D"/>
<stop offset="1" stop-color="#1D004F"/>
</linearGradient>
<linearGradient id="paint3_linear_142_1718" x1="217.594" y1="281.503" x2="164.889" y2="29.3319" gradientUnits="userSpaceOnUse">
<stop stop-color="#7D0096"/>
<stop offset="1" stop-color="#5413C7"/>
</linearGradient>
<linearGradient id="paint4_linear_142_1718" x1="146.056" y1="149.48" x2="119.489" y2="174.634" gradientUnits="userSpaceOnUse">
<stop stop-color="#540BB0"/>
<stop offset="1" stop-color="#1D004F"/>
</linearGradient>
<linearGradient id="paint5_linear_142_1718" x1="197.385" y1="208.774" x2="204.912" y2="230.607" gradientUnits="userSpaceOnUse">
<stop stop-color="#540BB0"/>
<stop offset="1" stop-color="#1D004F"/>
</linearGradient>
<linearGradient id="paint6_linear_142_1718" x1="233.36" y1="102.326" x2="225.988" y2="75.4405" gradientUnits="userSpaceOnUse">
<stop stop-color="#540BB0"/>
<stop offset="1" stop-color="#1D004F"/>
</linearGradient>
<linearGradient id="paint7_linear_142_1718" x1="234.811" y1="62.965" x2="268.473" y2="314.787" gradientUnits="userSpaceOnUse">
<stop stop-color="#9D50FF"/>
<stop offset="1" stop-color="#BA3FEE"/>
</linearGradient>
<linearGradient id="paint8_linear_142_1718" x1="222.397" y1="56.5843" x2="256.236" y2="308.321" gradientUnits="userSpaceOnUse">
<stop stop-color="#9D50FF"/>
<stop offset="1" stop-color="#BA3FEE"/>
</linearGradient>
<linearGradient id="paint9_linear_142_1718" x1="209.442" y1="48.4111" x2="243.531" y2="301.935" gradientUnits="userSpaceOnUse">
<stop stop-color="#9D50FF"/>
<stop offset="1" stop-color="#BA3FEE"/>
</linearGradient>
<linearGradient id="paint10_linear_142_1718" x1="213.546" y1="42.77" x2="245.215" y2="321.033" gradientUnits="userSpaceOnUse">
<stop stop-color="#9D50FF"/>
<stop offset="1" stop-color="#BA3FEE"/>
</linearGradient>
<linearGradient id="paint11_linear_142_1718" x1="164.64" y1="32.2189" x2="192.96" y2="295.945" gradientUnits="userSpaceOnUse">
<stop stop-color="#9D50FF"/>
<stop offset="1" stop-color="#BA3FEE"/>
</linearGradient>
<radialGradient id="paint12_radial_142_1718" cx="0" cy="0" r="1" gradientUnits="userSpaceOnUse" gradientTransform="translate(291.605 198.776) rotate(14.5658) scale(120.706 133.88)">
<stop stop-color="#870029"/>
<stop offset="0.12" stop-color="#690026"/>
<stop offset="0.3" stop-color="#430014"/>
<stop offset="0.48" stop-color="#260017"/>
<stop offset="0.66" stop-color="#100008"/>
<stop offset="0.84" stop-color="#040002"/>
<stop offset="1"/>
</radialGradient>
<radialGradient id="paint13_radial_142_1718" cx="0" cy="0" r="1" gradientUnits="userSpaceOnUse" gradientTransform="translate(106.231 195.057) rotate(3.17983) scale(239.315 250.544)">
<stop stop-color="#873F00"/>
<stop offset="0.12" stop-color="#693100"/>
<stop offset="0.3" stop-color="#431F00"/>
<stop offset="0.48" stop-color="#261100"/>
<stop offset="0.66" stop-color="#100700"/>
<stop offset="0.84" stop-color="#040100"/>
<stop offset="1"/>
</radialGradient>
</defs>
</svg>
