<svg width="105" height="22" viewBox="0 0 105 22" fill="none" xmlns="http://www.w3.org/2000/svg">
<path d="M33.175 3.28174C31.9688 3.28174 30.8058 3.43228 30.3319 3.56129C29.6427 3.75473 29.4703 4.05565 29.3411 4.67902L26.6058 17.2762C26.5627 17.5342 26.5195 17.7492 26.5195 17.9642C26.5195 18.5882 26.9289 18.996 27.5964 18.996C28.3289 18.996 28.6304 18.5231 28.7812 17.7923L29.5564 14.2023C30.0949 14.2667 30.8058 14.3311 31.8181 14.3311C36.2766 14.3311 39.0548 11.9236 39.0548 8.29054C39.055 5.10895 36.8364 3.28174 33.175 3.28174ZM31.7104 12.2673C31.0211 12.2673 30.4827 12.2459 29.9872 12.1813L31.4303 5.49583C31.8827 5.43124 32.5504 5.34529 33.2397 5.34529C35.6089 5.34529 36.815 6.46318 36.815 8.31192C36.815 10.6767 35.092 12.2674 31.7098 12.2674L31.7104 12.2673Z" fill="white"/>
<path d="M103.347 14.8471C102.981 14.8471 102.744 15.0621 102.292 15.5564C101.495 16.3734 100.999 16.8247 100.375 16.8247C99.8147 16.8247 99.5131 16.3734 99.5131 15.6424C99.5131 15.234 99.5994 14.7396 99.7071 14.2022L100.504 10.4617H102.896C103.649 10.4617 104.102 10.0318 104.102 9.25785C104.102 8.82791 103.822 8.50546 103.176 8.50546H100.935L101.322 6.76421C101.365 6.50634 101.409 6.26985 101.409 6.05488C101.409 5.45288 100.999 5.02295 100.332 5.02295C99.6208 5.02295 99.2977 5.49594 99.147 6.22679L98.6516 8.50546H97.6394C96.864 8.50546 96.4116 8.9354 96.4116 9.70931C96.4116 10.1392 96.7131 10.4617 97.3593 10.4617H98.2424L97.4452 14.1589C97.3591 14.5673 97.2514 15.2337 97.2514 15.9216C97.2514 17.6629 98.1561 18.9312 100.095 18.9312C101.215 18.9312 102.205 18.3722 102.959 17.7058C103.691 17.0609 104.23 16.2656 104.23 15.7496C104.23 15.2555 103.843 14.8471 103.347 14.8471Z" fill="white"/>
<path d="M53.8086 4.55C53.8086 3.926 53.3779 3.51807 52.7102 3.51807C51.9995 3.51807 51.6764 3.99106 51.5256 4.72191L48.8333 17.2116C48.7686 17.4697 48.7256 17.6846 48.7256 17.8996C48.7256 18.5236 49.1564 18.9314 49.8025 18.9314C50.5348 18.9314 50.8578 18.4584 51.0087 17.7275L53.7014 5.2378C53.7441 4.97993 53.8086 4.76496 53.8086 4.55Z" fill="white"/>
<path d="M92.2548 8.29038C88.8087 8.29038 86.4609 11.7085 86.4609 14.9545C86.4609 15.0153 86.4625 15.0754 86.4644 15.1353C85.9239 15.9543 85.2333 16.8032 84.7594 16.8032C84.4148 16.8032 84.2855 16.4808 84.2855 15.9863C84.2855 15.3844 84.4575 14.374 84.6517 13.4926L86.4395 5.2378C86.4825 4.97993 86.5256 4.76496 86.5256 4.55C86.5256 3.926 86.1164 3.51807 85.4487 3.51807C84.7164 3.51807 84.4148 3.99106 84.2641 4.72191L83.295 9.1933C82.7779 8.65588 82.0234 8.29038 80.8824 8.29038C78.5937 8.29038 76.2919 10.049 75.3947 12.7457C74.4067 15.295 73.5238 16.8032 72.8271 16.8032C72.5688 16.8032 72.418 16.5883 72.418 16.2228C72.418 15.1479 73.021 12.5256 73.2795 11.257C73.3656 10.784 73.4087 10.5906 73.4087 10.311C73.4087 9.36521 71.8364 8.24732 69.7902 8.24732C67.4243 8.24732 65.2813 9.74273 64.2066 11.9656C62.6109 14.7801 61.1464 16.8037 60.4213 16.8037C60.0982 16.8037 59.9905 16.3951 59.9044 16.0081L59.3659 13.0415L62.6614 10.3544C62.9629 10.0964 63.3505 9.7304 63.3505 9.25804C63.3505 8.67772 62.9629 8.29085 62.3814 8.29085C61.9507 8.29085 61.5843 8.54887 61.2184 8.84979L56.2651 12.9337L57.9236 5.2378C57.9667 4.97993 58.0313 4.76496 58.0313 4.55C58.0313 3.926 57.6005 3.51807 56.9328 3.51807C56.2221 3.51807 55.899 3.99106 55.7482 4.72191L53.0559 17.2116C52.9914 17.4697 52.9482 17.6846 52.9482 17.8996C52.9482 18.5236 53.379 18.9314 54.0252 18.9314C54.7574 18.9314 55.0805 18.4584 55.2313 17.7275L55.576 16.1153L57.6005 14.4815L58.096 16.9751C58.2898 17.964 58.8067 18.9314 60.1421 18.9314C61.4707 18.9314 62.5157 17.7203 63.5628 16.0841C63.8805 17.7979 65.102 18.9314 66.7974 18.9314C68.4989 18.9314 69.6619 17.921 70.4157 16.5667V16.6096C70.4157 18.0071 71.1266 18.9314 72.3758 18.9314C73.5052 18.9314 74.4435 18.2517 75.2815 16.8065C75.7568 18.0659 76.8192 18.9314 78.2981 18.9314C80.0428 18.9314 81.2919 17.8781 82.0889 16.4162V16.5452C82.0889 18.093 82.8643 18.932 84.135 18.932C85.2569 18.932 86.211 18.2821 87.0244 17.2233C87.6435 18.281 88.7529 18.932 90.252 18.932C93.6981 18.932 96.0457 15.5141 96.0457 12.2465C96.0456 9.94568 94.6456 8.29038 92.2548 8.29038ZM70.7812 12.6541C70.156 15.3412 68.8212 16.8675 67.3135 16.8675C66.3011 16.8675 65.7411 16.0936 65.7411 14.9331C65.7411 12.6544 67.3996 10.2037 69.6174 10.2037C70.2849 10.2037 70.802 10.3973 71.2543 10.6767L70.7812 12.6541ZM82.7779 11.5153C82.0887 14.6754 80.5163 16.8681 78.7933 16.8681C77.8456 16.8681 77.2856 16.1373 77.2856 14.9337C77.2856 12.6335 78.8799 10.2474 81.0118 10.2474C81.8302 10.2474 82.4548 10.5268 82.9071 10.8923L82.7779 11.5153ZM90.5105 16.8677C89.2613 16.8677 88.7443 15.9647 88.7443 14.8255C88.7443 12.7402 90.1873 10.3541 91.9966 10.3541C93.2458 10.3541 93.7628 11.257 93.7628 12.3963C93.7625 14.503 92.3195 16.8677 90.5105 16.8677Z" fill="white"/>
<path d="M44.4179 8.29053C40.9717 8.29053 38.624 11.7086 38.624 14.9546C38.624 17.2762 40.024 18.9315 42.4148 18.9315C45.8609 18.9315 48.2087 15.5136 48.2087 12.246C48.2087 9.94583 46.8084 8.29053 44.4179 8.29053ZM42.6733 16.8678C41.424 16.8678 40.9071 15.9649 40.9071 14.8256C40.9071 12.7404 42.3502 10.3542 44.1594 10.3542C45.4087 10.3542 45.9256 11.2572 45.9256 12.3964C45.9256 14.5032 44.4825 16.8678 42.6733 16.8678Z" fill="white"/>
<path d="M11.5314 4.616C13.7263 4.616 15.5056 3.58267 15.5056 2.308C15.5056 1.03333 13.7263 0 11.5314 0C9.33646 0 7.55713 1.03333 7.55713 2.308C7.55713 3.58267 9.33646 4.616 11.5314 4.616Z" fill="#E6007A"/>
<path d="M11.5314 22C13.7263 22 15.5056 20.9667 15.5056 19.692C15.5056 18.4174 13.7263 17.384 11.5314 17.384C9.33646 17.384 7.55713 18.4174 7.55713 19.692C7.55713 20.9667 9.33646 22 11.5314 22Z" fill="#E6007A"/>
<path d="M5.99243 7.80815C7.08989 5.91096 7.08294 3.85632 5.9769 3.21899C4.87087 2.58165 3.08458 3.60296 1.98712 5.50015C0.889666 7.39733 0.896618 9.45197 2.00265 10.0893C3.10869 10.7266 4.89497 9.70533 5.99243 7.80815Z" fill="#E6007A"/>
<path d="M21.0764 16.5C22.1739 14.6029 22.1669 12.5482 21.0609 11.9109C19.9549 11.2735 18.1686 12.2949 17.0711 14.192C15.9737 16.0892 15.9806 18.1439 17.0866 18.7812C18.1927 19.4185 19.979 18.3972 21.0764 16.5Z" fill="#E6007A"/>
<path d="M5.9769 18.781C7.08293 18.1437 7.08989 16.089 5.99243 14.1919C4.89497 12.2947 3.10869 11.2734 2.00265 11.9107C0.896618 12.548 0.889667 14.6027 1.98713 16.4999C3.08458 18.397 4.87087 19.4183 5.9769 18.781Z" fill="#E6007A"/>
<path d="M21.0609 10.0894C22.1669 9.45203 22.1739 7.39739 21.0764 5.5002C19.979 3.60302 18.1927 2.58171 17.0866 3.21905C15.9806 3.85638 15.9737 5.91102 17.0711 7.8082C18.1686 9.70539 19.9549 10.7267 21.0609 10.0894Z" fill="#E6007A"/>
</svg>
