<svg width="102" height="22" viewBox="0 0 102 22" fill="none" xmlns="http://www.w3.org/2000/svg">
<path d="M32.3892 20.5814V6.71408H34.4524L34.6489 7.83343H34.7472C35.3367 7.06673 36.3385 6.51758 37.7333 6.51758C40.286 6.51758 42.33 8.60014 42.33 11.6827C42.33 14.7654 40.2878 16.8479 37.7333 16.8479C36.3578 16.8479 35.3963 16.2777 34.8858 15.6303H34.7875V20.5797H32.3909L32.3892 20.5814ZM39.9316 11.6845C39.9316 9.87739 38.7719 8.73874 37.3578 8.73874C35.9437 8.73874 34.784 9.87739 34.784 11.6845C34.784 13.4916 35.9437 14.6303 37.3578 14.6303C38.7719 14.6303 39.9316 13.4916 39.9316 11.6845Z" fill="white"/>
<path d="M43.5459 11.6847C43.5459 8.67929 45.7057 6.51953 48.5935 6.51953C51.4814 6.51953 53.6411 8.67929 53.6411 11.6847C53.6411 14.6901 51.4814 16.8499 48.5935 16.8499C45.7057 16.8499 43.5459 14.6691 43.5459 11.6847ZM51.2252 11.6847C51.2252 9.91619 50.0462 8.73894 48.5935 8.73894C47.1408 8.73894 45.9425 9.91795 45.9425 11.6847C45.9425 13.4515 47.1408 14.6112 48.5935 14.6112C50.0462 14.6112 51.2252 13.4532 51.2252 11.6847Z" fill="white"/>
<path d="M55.3779 16.6533V2.90527H57.7745V16.6551H55.3779V16.6533Z" fill="white"/>
<path d="M66.6717 6.71411H69.2245L64.9032 18.7937C64.4716 19.992 63.8821 20.5815 62.3294 20.5815H60.0117V18.3621H61.9767C62.3311 18.3621 62.5259 18.1849 62.6452 17.8901L62.8803 17.2427L58.8345 6.71411H61.3872L63.961 13.6092H64.354L66.6717 6.71411Z" fill="white"/>
<path d="M69.6824 17.1444H72.1177C72.2159 17.7918 72.8633 18.6761 74.3967 18.6761C75.8301 18.6761 76.774 17.7725 76.774 16.397V15.0022H76.6758C76.1459 15.5724 75.1634 16.083 73.9055 16.083C71.3527 16.083 69.3877 14.118 69.3877 11.2897C69.3877 8.46153 71.3527 6.51758 73.9055 6.51758C75.2213 6.51758 76.1845 7.04743 76.7933 7.79484H76.8916L77.0881 6.71408H79.1706V16.397C79.1706 19.0287 77.4021 20.7779 74.3967 20.7779C71.0387 20.7779 69.7421 18.5778 69.6824 17.1444ZM76.774 11.2915C76.774 9.74055 75.674 8.65979 74.2792 8.65979C72.8844 8.65979 71.8036 9.74055 71.8036 11.2915C71.8036 12.8425 72.9037 13.9425 74.2792 13.9425C75.6547 13.9425 76.774 12.8618 76.774 11.2915Z" fill="white"/>
<path d="M80.8354 11.6847C80.8354 8.67929 82.9952 6.51953 85.8831 6.51953C88.7709 6.51953 90.9307 8.67929 90.9307 11.6847C90.9307 14.6901 88.7709 16.8499 85.8831 16.8499C82.9952 16.8499 80.8354 14.6691 80.8354 11.6847ZM88.5148 11.6847C88.5148 9.91619 87.3358 8.73894 85.8831 8.73894C84.4304 8.73894 83.2321 9.91795 83.2321 11.6847C83.2321 13.4515 84.4304 14.6112 85.8831 14.6112C87.3358 14.6112 88.5148 13.4532 88.5148 11.6847Z" fill="white"/>
<path d="M92.5994 16.6532V6.71408H94.6609L94.8574 7.65623H94.9557C95.3487 7.20533 96.3312 6.51758 97.8225 6.51758C100.102 6.51758 101.751 8.16678 101.751 10.6809V16.6514H99.3541V10.995C99.3541 9.71774 98.4506 8.79488 97.2137 8.79488C95.9768 8.79488 94.9943 9.75809 94.9943 10.995V16.6514H92.5977L92.5994 16.6532Z" fill="white"/>
<path d="M18.4413 15.4935L24.3328 12.0916C24.6451 11.9109 24.8381 11.5758 24.8381 11.2161V4.41228C24.8381 4.05261 24.6451 3.71751 24.3328 3.5368L18.4413 0.134876C18.129 -0.0458348 17.7412 -0.0440803 17.4307 0.134876L11.5392 3.5368C11.2269 3.71751 11.0339 4.05261 11.0339 4.41228V16.5708L6.9021 18.9551L2.77031 16.5708V11.8004L6.9021 9.41604L9.6268 10.9898V7.78964L7.40739 6.50712C7.25475 6.4194 7.0793 6.37203 6.9021 6.37203C6.7249 6.37203 6.54945 6.4194 6.39681 6.50712L0.505289 9.90905C0.192992 10.0898 0 10.4249 0 10.7845V17.5884C0 17.948 0.192992 18.2831 0.505289 18.4639L6.39681 21.8658C6.70911 22.0447 7.09509 22.0447 7.40739 21.8658L13.2989 18.4639C13.6112 18.2831 13.8042 17.948 13.8042 17.5884V5.42812L13.8779 5.38601L17.9342 3.04379L22.066 5.42812V10.1985L17.9342 12.5829L15.213 11.0126V14.2128L17.4289 15.4918C17.7412 15.6707 18.129 15.6707 18.4395 15.4918L18.4413 15.4935Z" fill="url(#paint0_linear_20_1035)"/>
<defs>
<linearGradient id="paint0_linear_20_1035" x1="-0.0807063" y1="18.2551" x2="23.7714" y2="4.41053" gradientUnits="userSpaceOnUse">
<stop stop-color="#A726C1"/>
<stop offset="0.88" stop-color="#803BDF"/>
<stop offset="1" stop-color="#7B3FE4"/>
</linearGradient>
</defs>
</svg>
