<svg width="1364" height="372" viewBox="0 0 1364 372" fill="none" xmlns="http://www.w3.org/2000/svg">
<mask id="mask0_93_89" style="mask-type:luminance" maskUnits="userSpaceOnUse" x="845" y="272" width="519" height="99">
<path d="M1363.81 272.05H845.729V370.73H1363.81V272.05Z" fill="white"/>
</mask>
<g mask="url(#mask0_93_89)">
<path d="M868.159 273.18H1341.39C1353.16 273.18 1362.7 282.72 1362.7 294.49V348.32C1362.7 360.09 1353.16 369.63 1341.39 369.63H868.159C856.389 369.63 846.849 360.09 846.849 348.32V294.49C846.849 282.72 856.389 273.18 868.159 273.18Z" fill="url(#paint0_linear_93_89)" stroke="#601FCD" stroke-width="2.24"/>
<path d="M881.259 332.61H884.499V325.84H889.259C889.439 325.84 889.679 325.84 889.969 325.81C890.279 325.79 890.549 325.77 890.799 325.73C892.469 325.47 893.709 324.77 894.509 323.64C895.329 322.5 895.729 321.13 895.729 319.54C895.729 317.95 895.329 316.57 894.519 315.44C893.719 314.3 892.479 313.6 890.789 313.34C890.539 313.3 890.269 313.27 889.969 313.26C889.669 313.24 889.429 313.23 889.239 313.23H881.229V332.61H881.259ZM884.499 322.81V316.27H889.129C889.309 316.27 889.509 316.27 889.739 316.3C889.959 316.32 890.169 316.35 890.359 316.39C890.899 316.52 891.319 316.77 891.619 317.12C891.929 317.46 892.149 317.85 892.279 318.28C892.409 318.71 892.479 319.13 892.479 319.54C892.479 319.95 892.409 320.37 892.279 320.8C892.149 321.23 891.929 321.62 891.619 321.96C891.309 322.3 890.889 322.54 890.359 322.67C890.169 322.72 889.969 322.76 889.739 322.78C889.519 322.8 889.309 322.81 889.129 322.81H884.499ZM907.989 333.01C909.929 333.01 911.589 332.59 912.969 331.75C914.359 330.9 915.419 329.71 916.159 328.2C916.899 326.68 917.279 324.93 917.279 322.92C917.279 320.91 916.909 319.15 916.159 317.65C915.419 316.13 914.359 314.95 912.969 314.11C911.589 313.26 909.929 312.83 907.989 312.83C906.049 312.83 904.399 313.26 903.009 314.11C901.629 314.95 900.569 316.13 899.819 317.65C899.079 319.16 898.719 320.92 898.719 322.92C898.719 324.92 899.089 326.68 899.819 328.2C900.559 329.72 901.629 330.9 903.009 331.75C904.399 332.59 906.059 333.01 907.989 333.01ZM907.989 329.96C906.039 329.93 904.579 329.28 903.599 328.01C902.619 326.74 902.139 325.04 902.149 322.92C902.149 321.5 902.379 320.26 902.809 319.21C903.239 318.15 903.889 317.33 904.749 316.75C905.609 316.16 906.689 315.87 907.989 315.89C909.949 315.92 911.409 316.57 912.379 317.84C913.359 319.11 913.849 320.81 913.849 322.93C913.849 324.34 913.629 325.58 913.189 326.64C912.759 327.7 912.109 328.52 911.239 329.1C910.379 329.68 909.299 329.97 907.999 329.96H907.989ZM924.579 332.61H927.779L931.739 318.83L935.699 332.61H938.899L944.549 313.23H941.149L937.299 327.22L933.439 313.23L930.039 313.26L926.189 327.23L922.329 313.24H918.929L924.599 332.62L924.579 332.61ZM948.089 332.61H960.599V329.57H951.329V324.09H958.989V321.05H951.329V316.27H960.599V313.23H948.089V332.61ZM965.179 332.61H968.419V325.84H973.019L976.299 332.61H979.969L976.389 325.26C977.489 324.77 978.309 324.02 978.849 323.01C979.389 322.01 979.659 320.85 979.659 319.54C979.659 317.93 979.259 316.57 978.449 315.44C977.649 314.3 976.409 313.6 974.719 313.34C974.469 313.3 974.199 313.27 973.899 313.26C973.599 313.24 973.359 313.23 973.169 313.23H965.159V332.61H965.179ZM968.419 322.81V316.27H973.049C973.229 316.27 973.429 316.27 973.659 316.3C973.879 316.32 974.089 316.35 974.279 316.39C974.819 316.52 975.239 316.77 975.549 317.12C975.859 317.46 976.079 317.85 976.209 318.28C976.339 318.71 976.409 319.13 976.409 319.54C976.409 319.95 976.339 320.37 976.209 320.8C976.079 321.23 975.859 321.62 975.549 321.96C975.239 322.3 974.819 322.54 974.279 322.67C974.089 322.72 973.889 322.76 973.659 322.78C973.439 322.8 973.229 322.81 973.049 322.81H968.419ZM984.289 332.61H996.799V329.57H987.529V324.09H995.189V321.05H987.529V316.27H996.799V313.23H984.289V332.61ZM1001.38 332.61H1007.56C1007.71 332.61 1008.03 332.61 1008.52 332.6C1009.01 332.6 1009.48 332.56 1009.92 332.51C1011.46 332.31 1012.76 331.77 1013.82 330.88C1014.88 329.98 1015.68 328.84 1016.23 327.46C1016.78 326.08 1017.05 324.57 1017.05 322.93C1017.05 321.29 1016.78 319.78 1016.23 318.4C1015.68 317.02 1014.88 315.88 1013.82 314.98C1012.76 314.08 1011.46 313.54 1009.92 313.35C1009.47 313.3 1009.01 313.26 1008.52 313.26C1008.04 313.26 1007.73 313.25 1007.56 313.25H1001.38V332.63V332.61ZM1004.68 329.56V316.29H1007.56C1007.83 316.29 1008.17 316.29 1008.58 316.32C1008.99 316.32 1009.37 316.37 1009.7 316.44C1010.6 316.61 1011.33 317.01 1011.91 317.64C1012.48 318.27 1012.91 319.04 1013.19 319.97C1013.48 320.89 1013.62 321.87 1013.62 322.93C1013.62 323.99 1013.49 324.91 1013.22 325.84C1012.95 326.76 1012.53 327.55 1011.94 328.19C1011.37 328.83 1010.62 329.24 1009.71 329.41C1009.38 329.47 1009.01 329.51 1008.59 329.53C1008.18 329.55 1007.84 329.56 1007.57 329.56H1004.69H1004.68ZM1028.31 332.61H1036.77C1038.68 332.61 1040.13 332.08 1041.12 331.02C1042.11 329.96 1042.6 328.57 1042.6 326.85C1042.6 325.87 1042.36 324.98 1041.87 324.19C1041.39 323.39 1040.69 322.79 1039.76 322.4C1040.36 322.04 1040.83 321.53 1041.17 320.88C1041.52 320.22 1041.69 319.44 1041.69 318.57C1041.69 317.7 1041.48 316.86 1041.07 316.04C1040.67 315.22 1040.04 314.56 1039.2 314.04C1038.37 313.51 1037.29 313.25 1035.98 313.25H1028.3V332.63L1028.31 332.61ZM1031.59 320.97V316.26H1035.95C1036.72 316.26 1037.32 316.48 1037.75 316.93C1038.18 317.38 1038.4 317.94 1038.4 318.61C1038.4 319.38 1038.16 319.97 1037.69 320.37C1037.22 320.76 1036.65 320.96 1035.95 320.96H1031.59V320.97ZM1031.59 329.56V324H1036.46C1037.37 324 1038.07 324.26 1038.57 324.79C1039.07 325.32 1039.32 325.97 1039.32 326.75C1039.32 327.61 1039.04 328.29 1038.47 328.8C1037.91 329.3 1037.21 329.55 1036.36 329.55H1031.58L1031.59 329.56ZM1050.53 332.61H1053.81V324.67L1060.39 313.23H1056.61L1052.17 320.95L1047.72 313.23H1043.94L1050.53 324.67V332.61Z" fill="white"/>
<path d="M1164.43 343.24V310.39H1169.32L1169.78 313.04H1170.01C1171.41 311.22 1173.78 309.92 1177.08 309.92C1183.13 309.92 1187.97 314.85 1187.97 322.16C1187.97 329.47 1183.13 334.4 1177.08 334.4C1173.82 334.4 1171.54 333.05 1170.33 331.52H1170.1V343.24H1164.42H1164.43ZM1182.3 322.16C1182.3 317.88 1179.55 315.18 1176.2 315.18C1172.85 315.18 1170.1 317.88 1170.1 322.16C1170.1 326.44 1172.85 329.14 1176.2 329.14C1179.55 329.14 1182.3 326.44 1182.3 322.16Z" fill="white"/>
<path d="M1190.86 322.16C1190.86 315.04 1195.98 309.92 1202.82 309.92C1209.66 309.92 1214.78 315.04 1214.78 322.16C1214.78 329.28 1209.66 334.4 1202.82 334.4C1195.98 334.4 1190.86 329.23 1190.86 322.16ZM1209.05 322.16C1209.05 317.97 1206.26 315.18 1202.82 315.18C1199.38 315.18 1196.54 317.97 1196.54 322.16C1196.54 326.35 1199.38 329.09 1202.82 329.09C1206.26 329.09 1209.05 326.35 1209.05 322.16Z" fill="white"/>
<path d="M1218.89 333.94V301.37H1224.57V333.94H1218.89Z" fill="white"/>
<path d="M1245.64 310.39H1251.69L1241.45 339.01C1240.43 341.85 1239.03 343.25 1235.35 343.25H1229.86V337.99H1234.52C1235.36 337.99 1235.82 337.57 1236.1 336.87L1236.66 335.34L1227.08 310.4H1233.13L1239.23 326.73H1240.16L1245.65 310.4L1245.64 310.39Z" fill="white"/>
<path d="M1252.78 335.1H1258.55C1258.78 336.63 1260.32 338.73 1263.95 338.73C1267.35 338.73 1269.58 336.59 1269.58 333.33V330.03H1269.35C1268.09 331.38 1265.77 332.59 1262.79 332.59C1256.74 332.59 1252.09 327.93 1252.09 321.23C1252.09 314.53 1256.74 309.92 1262.79 309.92C1265.91 309.92 1268.19 311.18 1269.63 312.95H1269.86L1270.33 310.39H1275.26V333.33C1275.26 339.56 1271.07 343.71 1263.95 343.71C1255.99 343.71 1252.92 338.5 1252.78 335.1ZM1269.58 321.23C1269.58 317.56 1266.97 315 1263.67 315C1260.37 315 1257.81 317.56 1257.81 321.23C1257.81 324.9 1260.42 327.51 1263.67 327.51C1266.92 327.51 1269.58 324.95 1269.58 321.23Z" fill="white"/>
<path d="M1279.2 322.16C1279.2 315.04 1284.32 309.92 1291.16 309.92C1298 309.92 1303.12 315.04 1303.12 322.16C1303.12 329.28 1298 334.4 1291.16 334.4C1284.32 334.4 1279.2 329.23 1279.2 322.16ZM1297.39 322.16C1297.39 317.97 1294.6 315.18 1291.16 315.18C1287.72 315.18 1284.88 317.97 1284.88 322.16C1284.88 326.35 1287.72 329.09 1291.16 329.09C1294.6 329.09 1297.39 326.35 1297.39 322.16Z" fill="white"/>
<path d="M1307.07 333.94V310.39H1311.95L1312.42 312.62H1312.65C1313.58 311.55 1315.91 309.92 1319.44 309.92C1324.84 309.92 1328.75 313.83 1328.75 319.78V333.92H1323.07V320.52C1323.07 317.49 1320.93 315.31 1318 315.31C1315.07 315.31 1312.74 317.59 1312.74 320.52V333.92H1307.06L1307.07 333.94Z" fill="white"/>
<path d="M1133.88 331.19L1147.84 323.13C1148.58 322.7 1149.04 321.91 1149.04 321.06V304.94C1149.04 304.09 1148.58 303.29 1147.84 302.87L1133.88 294.81C1133.14 294.38 1132.22 294.39 1131.49 294.81L1117.53 302.87C1116.79 303.3 1116.33 304.09 1116.33 304.94V333.74L1106.54 339.39L1096.75 333.74V322.44L1106.54 316.79L1112.99 320.52V312.94L1107.73 309.9C1107.37 309.69 1106.95 309.58 1106.53 309.58C1106.11 309.58 1105.69 309.69 1105.33 309.9L1091.37 317.96C1090.63 318.39 1090.17 319.18 1090.17 320.03V336.15C1090.17 337 1090.63 337.8 1091.37 338.22L1105.33 346.28C1106.07 346.7 1106.98 346.7 1107.72 346.28L1121.68 338.22C1122.42 337.79 1122.88 337 1122.88 336.15V307.35L1123.05 307.25L1132.66 301.7L1142.45 307.35V318.65L1132.66 324.3L1126.21 320.58V328.16L1131.46 331.19C1132.2 331.61 1133.12 331.61 1133.85 331.19H1133.88Z" fill="white"/>
</g>
<path d="M323.269 150.84C317.199 61.68 239.999 -5.69 150.839 0.380003C106.419 3.4 67.4191 24.08 40.2091 55.09L40.1291 55.04C39.9491 55.29 39.7791 55.54 39.5891 55.8C12.5591 86.96 -2.64085 128.39 0.379147 172.8C0.669147 177.03 1.16915 181.2 1.76915 185.32C1.79915 185.51 1.81915 185.69 1.84915 185.88C2.25915 188.6 2.72915 191.3 3.26915 193.98C3.26915 194.03 3.28915 194.08 3.29915 194.13C3.78915 196.55 4.33915 198.95 4.92915 201.33C4.92915 201.33 4.92915 201.33 4.92915 201.34C23.6191 275.87 93.4492 328.66 172.799 323.26C261.959 317.2 329.329 240 323.259 150.84H323.269ZM288.049 153.24C288.799 164.22 288.109 174.97 286.149 185.31C286.129 185.25 286.109 185.19 286.079 185.13C274.349 156.45 251.139 135.75 230.729 124.31C234.859 75.72 218.379 55.25 199.719 51.92C199.209 51.82 198.699 51.74 198.179 51.67C183.369 49.77 169.829 60.24 167.929 75.04C166.029 89.85 176.499 103.39 191.299 105.29C192.589 105.45 193.869 105.5 195.129 105.48C195.209 107.12 195.259 108.86 195.279 110.68C178.029 106.4 161.899 105.57 147.199 106.89C141.699 107.26 136.199 107.95 130.729 108.97C132.569 92.56 138.719 74.14 150.669 60.66C162.219 47.63 179.379 40.16 198.109 42.08C201.659 42.44 205.449 43.31 208.859 44.46C209.019 44.51 209.179 44.56 209.339 44.61C209.339 44.61 209.339 44.61 209.339 44.6C252.719 62.27 284.639 103.44 288.029 153.23L288.049 153.24ZM175.259 177.96C175.259 177.96 175.239 178 175.219 178.01C171.359 183.58 166.769 189.07 161.379 194.38C153.299 185.78 146.809 176.52 141.879 166.94C141.629 166.43 141.359 165.94 141.109 165.42C141.109 165.4 141.089 165.38 141.079 165.36C138.189 159.23 135.729 152.5 133.819 145.18C145.319 142.47 156.599 141.48 167.369 142C167.939 142.04 168.499 142.05 169.069 142.1C169.089 142.1 169.109 142.1 169.129 142.1C175.879 142.66 182.919 143.89 190.199 145.9C186.789 157.21 182.019 167.47 176.179 176.53C175.859 177 175.569 177.48 175.239 177.96H175.259ZM119.959 42.46C119.959 42.46 119.899 42.54 119.869 42.57C100.909 67.06 94.5791 97.49 94.8691 120.87C50.7291 141.59 41.2391 166.1 47.6891 183.92C47.8591 184.41 48.0391 184.89 48.2491 185.37C54.0091 199.14 69.8391 205.64 83.6091 199.88C97.3791 194.12 103.879 178.29 98.1191 164.51C97.6191 163.31 97.0191 162.18 96.3691 161.09C97.7691 160.19 99.2591 159.26 100.849 158.33C105.769 175.41 113.059 189.86 121.549 201.93C124.609 206.5 127.949 210.91 131.569 215.13C116.439 221.75 97.4091 225.63 79.7591 222.02C62.6991 218.54 47.6491 207.4 39.9491 190.23C38.4891 186.97 37.3491 183.26 36.6391 179.73C36.1991 176.65 35.8291 173.54 35.6191 170.39C31.6791 112.42 67.6391 60.82 119.979 42.44L119.959 42.46ZM170.409 288.04C135.989 290.38 103.809 278.64 79.4891 257.77C110.169 261.95 139.689 252.21 159.799 240.26C199.829 268.15 225.809 264.11 238.029 249.62C238.369 249.23 238.699 248.83 239.009 248.41C248.059 236.54 245.759 219.58 233.889 210.53C222.019 201.48 205.059 203.78 196.009 215.65C195.219 216.69 194.539 217.77 193.929 218.88C192.459 218.13 190.919 217.3 189.329 216.39C201.669 203.58 210.469 190.02 216.679 176.62C219.109 171.67 221.259 166.56 223.109 161.31C236.409 171.1 249.299 185.65 255.009 202.75C260.519 219.27 258.409 237.87 247.379 253.13C245.289 256.02 242.639 258.87 239.939 261.25C239.899 261.28 239.859 261.32 239.819 261.36C220.529 276.52 196.669 286.25 170.409 288.04Z" fill="url(#paint1_linear_93_89)"/>
<path style="mix-blend-mode:overlay" opacity="0.9" d="M199.719 51.9199C199.209 51.8199 198.699 51.7399 198.179 51.6699C195.559 51.3299 192.979 51.3999 190.499 51.7999C205.979 60.2199 217.269 83.6899 211.329 129.97C209.359 145.3 204.809 159.89 198.219 173.27C192.889 184.78 185.629 196.4 175.869 207.57C180.549 211.08 185.119 214.02 189.309 216.4C201.649 203.59 210.449 190.03 216.659 176.63C223.239 163.24 227.799 148.66 229.769 133.33C236.829 78.2199 219.489 55.4499 199.719 51.9199Z" fill="url(#paint2_radial_93_89)"/>
<g style="mix-blend-mode:overlay" opacity="0.8">
<path d="M211.339 129.97C217.269 83.68 205.989 60.22 190.509 51.8C189.909 51.9 189.309 52.02 188.719 52.16C203.879 60.87 214.779 84.31 208.929 129.97C206.959 145.3 202.409 159.89 195.819 173.27C190.659 184.4 183.689 195.63 174.419 206.45C174.909 206.83 175.399 207.2 175.889 207.56C185.639 196.39 192.899 184.77 198.239 173.26C204.819 159.87 209.379 145.29 211.349 129.96L211.339 129.97Z" fill="white"/>
</g>
<path style="mix-blend-mode:overlay" opacity="0.5" d="M152.499 234.95C151.049 233.84 149.649 232.68 148.249 231.52C125.399 241.05 93.7391 247.03 62.2891 239.73C67.4391 246.29 73.1891 252.35 79.4991 257.77C110.179 261.95 139.699 252.21 159.809 240.26C157.419 238.6 154.989 236.84 152.509 234.94L152.499 234.95Z" fill="url(#paint3_radial_93_89)"/>
<path style="mix-blend-mode:overlay" opacity="0.6" d="M148.239 231.52C147.539 230.94 146.839 230.37 146.149 229.77C123.129 238.97 91.319 244.47 59.939 236.65C60.699 237.69 61.479 238.72 62.279 239.73C93.729 247.03 125.399 241.05 148.239 231.52Z" fill="url(#paint4_linear_93_89)"/>
<path style="mix-blend-mode:overlay" opacity="0.9" d="M47.6891 183.96C47.8591 184.45 48.0391 184.93 48.2491 185.41C49.2691 187.85 50.6191 190.04 52.1991 192C51.7491 174.38 66.4291 152.88 109.479 134.87C123.739 128.91 138.649 125.56 153.539 124.57C166.179 123.43 179.869 123.91 194.419 126.77C195.119 120.96 195.379 115.53 195.349 110.72C178.089 106.44 161.949 105.6 147.239 106.92C132.359 107.91 117.439 111.26 103.179 117.22C51.9191 138.66 40.8791 165.06 47.6991 183.95L47.6891 183.96Z" fill="url(#paint5_radial_93_89)"/>
<g style="mix-blend-mode:overlay" opacity="0.8">
<path d="M109.479 134.87C66.429 152.87 51.749 174.38 52.199 192C52.589 192.48 52.989 192.92 53.409 193.37C53.379 175.89 68.229 154.72 110.689 136.96C124.949 131 139.859 127.65 154.749 126.66C166.969 125.56 180.179 125.99 194.189 128.6C194.269 127.98 194.339 127.38 194.419 126.77C179.869 123.91 166.179 123.43 153.539 124.57C138.659 125.56 123.739 128.91 109.479 134.87Z" fill="white"/>
</g>
<path style="mix-blend-mode:overlay" opacity="0.4" d="M229.809 133.34C229.579 135.15 229.269 136.95 228.969 138.74C248.649 153.76 269.659 178.2 279.059 209.08C282.169 201.34 284.549 193.33 286.079 185.16C274.349 156.5 251.169 135.8 230.759 124.36C230.509 127.26 230.199 130.24 229.809 133.34Z" fill="url(#paint6_radial_93_89)"/>
<path style="mix-blend-mode:overlay" opacity="0.5" d="M228.969 138.73C228.819 139.63 228.669 140.52 228.499 141.41C247.979 156.74 268.639 181.55 277.559 212.63C278.079 211.45 278.579 210.26 279.059 209.07C269.659 178.19 248.649 153.75 228.969 138.73Z" fill="url(#paint7_linear_93_89)"/>
<path style="mix-blend-mode:overlay" opacity="0.9" d="M238.039 249.59C238.379 249.2 238.709 248.8 239.019 248.38C240.619 246.28 241.849 244.01 242.749 241.67C227.719 250.87 201.749 248.91 164.629 220.63C152.339 211.26 141.979 200.02 133.679 187.63C126.379 177.26 119.939 165.16 115.149 151.13C109.769 153.43 104.929 155.92 100.789 158.35C105.709 175.44 113.059 189.84 121.559 201.92C129.859 214.31 140.219 225.56 152.509 234.92C196.709 268.59 225.089 264.96 238.039 249.6V249.59Z" fill="url(#paint8_radial_93_89)"/>
<g style="mix-blend-mode:overlay" opacity="0.8">
<path d="M164.639 220.62C201.759 248.9 227.719 250.86 242.759 241.66C242.979 241.09 243.159 240.51 243.339 239.93C228.219 248.7 202.459 246.42 165.849 218.52C153.559 209.15 143.199 197.91 134.899 185.52C127.839 175.49 121.599 163.83 116.859 150.39C116.279 150.63 115.719 150.87 115.159 151.11C119.949 165.14 126.389 177.24 133.689 187.61C141.989 200 152.349 211.25 164.639 220.61V220.62Z" fill="white"/>
</g>
<path style="mix-blend-mode:overlay" opacity="0.3" d="M103.139 117.18C104.829 116.47 106.529 115.84 108.239 115.21C111.409 90.6599 122.069 60.2499 144.109 36.6599C135.849 37.8399 127.729 39.7799 119.879 42.5399C100.919 67.0299 94.5891 97.4599 94.8791 120.84C97.5091 119.6 100.249 118.38 103.139 117.17V117.18Z" fill="url(#paint9_radial_93_89)"/>
<path style="mix-blend-mode:overlay" opacity="0.4" d="M108.239 115.21C109.089 114.89 109.939 114.57 110.799 114.27C114.339 89.7399 125.489 59.4399 147.949 36.1699C146.669 36.3099 145.389 36.4699 144.119 36.6499C122.079 60.2299 111.419 90.6499 108.249 115.2L108.239 115.21Z" fill="url(#paint10_linear_93_89)"/>
<path style="mix-blend-mode:multiply" opacity="0.4" d="M150.839 0.379919C106.419 3.39992 67.4191 24.0799 40.2091 55.0899C39.9991 55.3199 39.7991 55.5599 39.5991 55.7899C44.8991 61.0399 62.2091 71.4099 69.2291 75.7299C83.0091 60.9099 100.329 49.3499 119.959 42.4599C121.329 40.6899 122.749 38.9499 124.259 37.2499C142.539 16.6199 167.499 5.71992 196.449 5.71992C199.669 5.71992 206.239 6.22992 206.379 6.23992C188.819 1.20992 170.119 -0.930081 150.839 0.379919Z" fill="url(#paint11_linear_93_89)"/>
<path style="mix-blend-mode:multiply" opacity="0.4" d="M170.409 288.04C135.989 290.38 103.809 278.64 79.489 257.77C77.229 257.46 74.959 257.09 72.689 256.63C45.689 251.11 23.759 234.95 9.28896 209.87C7.67896 207.08 6.23896 204.24 4.93896 201.35C23.629 275.88 93.459 328.66 172.809 323.27C173.159 315.1 170.749 296.14 170.409 288.05V288.04Z" fill="url(#paint12_linear_93_89)"/>
<path style="mix-blend-mode:multiply" opacity="0.4" d="M323.269 150.84C318.299 150.33 294.019 152.25 288.049 153.24C288.799 164.22 288.109 174.97 286.149 185.31C286.989 187.37 287.779 189.45 288.499 191.59C297.219 217.73 294.179 244.8 279.709 269.88C278.129 272.62 276.419 275.24 274.609 277.77C274.579 277.82 274.539 277.87 274.509 277.91C274.509 277.91 274.579 277.85 274.629 277.81C307.499 245.83 326.639 200.19 323.289 150.85L323.269 150.84Z" fill="url(#paint13_linear_93_89)"/>
<path style="mix-blend-mode:multiply" opacity="0.5" d="M198.119 42.09C201.669 42.45 205.459 43.32 208.869 44.47C209.029 44.52 209.189 44.57 209.349 44.62C209.349 44.62 209.349 44.62 209.349 44.61C223.309 50.3 236.069 58.43 247.089 68.49C247.109 68.51 247.139 68.53 247.159 68.55C252.469 62.48 262.689 55.81 262.689 55.81C262.689 55.81 247.029 39.8 223.089 34.83C206.329 31.35 168.519 27.98 144.669 68.56C144.669 68.56 144.759 68.47 144.899 68.34C146.659 65.67 148.539 63.08 150.659 60.69C162.209 47.66 179.369 40.19 198.099 42.11L198.119 42.09Z" fill="url(#paint14_linear_93_89)"/>
<path style="mix-blend-mode:multiply" opacity="0.5" d="M247.369 253.13C245.279 256.02 242.629 258.87 239.929 261.25C239.809 261.36 239.679 261.48 239.559 261.59C239.559 261.59 239.559 261.59 239.559 261.6C227.659 270.85 214.229 277.83 200.009 282.35C199.979 282.36 199.959 282.37 199.929 282.38C202.529 290.01 203.199 302.2 203.199 302.2C203.199 302.2 224.899 296.65 241.169 278.4C252.559 265.62 274.389 234.57 251.169 193.63C251.169 193.63 251.199 193.76 251.239 193.94C252.669 196.8 253.969 199.72 254.989 202.75C260.499 219.27 258.389 237.87 247.359 253.13H247.369Z" fill="url(#paint15_linear_93_89)"/>
<path style="mix-blend-mode:multiply" opacity="0.5" d="M39.989 190.29C38.529 187.03 37.389 183.32 36.679 179.79C36.649 179.63 36.599 179.46 36.569 179.3C36.569 179.3 36.569 179.3 36.559 179.3C34.509 164.37 35.169 149.25 38.369 134.68C38.369 134.65 38.369 134.62 38.379 134.59C30.469 133.03 19.579 127.51 19.579 127.51C19.579 127.51 13.539 149.08 21.209 172.3C26.579 188.56 42.559 222.99 89.619 223.35C89.619 223.35 89.499 223.31 89.309 223.26C86.119 223.07 82.939 222.74 79.799 222.1C62.739 218.62 47.689 207.48 39.989 190.31V190.29Z" fill="url(#paint16_linear_93_89)"/>
<path style="mix-blend-mode:multiply" opacity="0.6" d="M191.309 105.29C192.599 105.45 193.879 105.5 195.139 105.48C195.139 105.48 194.289 88.6699 192.229 80.0399C190.169 71.4099 187.119 65.6999 183.779 62.4699C181.379 60.1499 173.819 57.2699 167.939 75.0499C166.039 89.8599 176.509 103.4 191.309 105.3V105.29Z" fill="url(#paint17_linear_93_89)"/>
<path style="mix-blend-mode:multiply" opacity="0.5" d="M98.1192 164.55C97.6192 163.35 97.0192 162.22 96.3692 161.13C96.3692 161.13 82.2292 170.27 75.7892 176.37C69.3492 182.47 65.9292 187.96 64.7992 192.48C63.9892 195.71 65.2792 203.71 83.6092 199.91C97.3792 194.15 103.879 178.32 98.1192 164.54V164.55Z" fill="url(#paint18_linear_93_89)"/>
<path style="mix-blend-mode:multiply" opacity="0.6" d="M196.029 215.61C195.239 216.65 194.559 217.73 193.949 218.84C193.949 218.84 208.929 226.51 217.439 229.04C225.939 231.57 232.409 231.78 236.889 230.5C240.089 229.58 246.369 224.47 233.919 210.49C222.049 201.44 205.089 203.74 196.039 215.61H196.029Z" fill="url(#paint19_linear_93_89)"/>
<path style="mix-blend-mode:multiply" opacity="0.3" d="M190.209 145.9C186.799 157.21 182.029 167.47 176.189 176.53C175.869 177 175.579 177.48 175.249 177.96C175.239 177.98 175.229 178 175.209 178.01C171.349 183.58 166.759 189.07 161.369 194.38C165.069 198.32 169.079 202.14 173.479 205.76C179.009 210.12 184.419 213.63 189.319 216.4C201.659 203.59 210.459 190.03 216.669 176.63C219.099 171.68 221.249 166.57 223.099 161.32C217.409 157.13 211.639 153.79 206.329 151.53C200.829 149.19 195.459 147.35 190.209 145.9Z" fill="url(#paint20_linear_93_89)"/>
<path style="mix-blend-mode:multiply" opacity="0.3" d="M79.4892 257.77C110.169 261.95 139.689 252.21 159.799 240.26C157.409 238.6 154.979 236.84 152.499 234.94C144.739 229.03 137.749 222.36 131.569 215.14C116.439 221.76 97.4092 225.64 79.7592 222.03C62.6992 218.55 47.6492 207.41 39.9492 190.24C38.4892 186.98 37.3492 183.27 36.6392 179.74C41.0992 211.02 56.8792 238.35 79.5092 257.76L79.4892 257.77Z" fill="url(#paint21_linear_93_89)"/>
<path style="mix-blend-mode:multiply" opacity="0.3" d="M161.369 194.38C153.289 185.78 146.799 176.52 141.869 166.94C141.619 166.43 141.349 165.94 141.099 165.42C141.099 165.4 141.079 165.38 141.069 165.36C138.179 159.23 135.719 152.5 133.809 145.18C128.559 146.42 123.259 147.98 117.939 149.97C111.419 152.57 105.679 155.5 100.839 158.35C105.759 175.43 113.049 189.88 121.539 201.95C124.599 206.52 127.939 210.93 131.559 215.15C138.049 212.31 143.829 208.98 148.449 205.51C153.219 201.93 157.489 198.2 161.369 194.39V194.38Z" fill="url(#paint22_linear_93_89)"/>
<path style="mix-blend-mode:multiply" opacity="0.3" d="M119.859 42.5801C100.899 67.0701 94.5691 97.5001 94.8591 120.88C97.4991 119.64 100.249 118.41 103.149 117.2C112.139 113.44 121.389 110.73 130.729 108.98C132.569 92.5701 138.719 74.1501 150.669 60.6701C162.219 47.6401 179.379 40.1701 198.109 42.0901C201.659 42.4501 205.449 43.3201 208.859 44.4701C209.019 44.5201 209.179 44.5701 209.339 44.6201C209.339 44.6201 209.339 44.6201 209.339 44.6101C192.089 37.5801 173.029 34.2601 153.219 35.6101C141.589 36.4001 130.439 38.7801 119.939 42.4701C119.909 42.5101 119.879 42.5501 119.849 42.5801H119.859Z" fill="url(#paint23_linear_93_89)"/>
<path style="mix-blend-mode:multiply" opacity="0.3" d="M286.079 185.12C274.349 156.44 251.139 135.74 230.729 124.3C230.479 127.21 230.169 130.2 229.769 133.32C228.529 142.99 226.259 152.36 223.099 161.32C236.399 171.11 249.289 185.66 254.999 202.76C260.509 219.28 258.399 237.88 247.369 253.14C245.279 256.03 242.629 258.88 239.929 261.26C239.889 261.29 239.849 261.33 239.809 261.37C263.569 242.7 280.369 215.79 286.129 185.31C286.109 185.25 286.089 185.19 286.059 185.13L286.079 185.12Z" fill="url(#paint24_linear_93_89)"/>
<path style="mix-blend-mode:multiply" opacity="0.3" d="M130.649 128.44C131.369 134.36 132.459 139.92 133.819 145.18C145.319 142.47 156.599 141.48 167.369 142C167.939 142.04 168.499 142.05 169.069 142.1C169.089 142.1 169.109 142.1 169.129 142.1C175.879 142.66 182.919 143.89 190.199 145.9C191.759 140.73 193.059 135.36 193.989 129.75C194.999 122.77 195.329 116.32 195.289 110.69C178.039 106.41 161.909 105.58 147.209 106.9C141.709 107.27 136.209 107.96 130.739 108.98C129.949 116.02 129.949 122.7 130.639 128.44H130.649Z" fill="url(#paint25_linear_93_89)"/>
<path d="M803.599 115.35L782.779 173.35H782.939L803.719 115.7L803.599 115.35Z" fill="white"/>
<path d="M433.899 115.35L413.089 173.35H413.149L433.979 115.57L433.899 115.35Z" fill="white"/>
<path d="M439.099 129.84L454.719 173.35H423.409L415.509 195.28H462.709L476.089 232.45H506.019L451.449 95.5801L439.099 129.84Z" fill="white"/>
<path d="M413.089 173.35L433.899 115.35L433.979 115.57L442.769 91.1899H419.779L363.639 232.45H391.839L413.149 173.35H413.089Z" fill="white"/>
<path d="M596.719 159.68C589.899 155.66 580.859 151.91 569.579 148.44C563.139 146.34 558.089 144.39 554.429 142.58C550.769 140.79 548.229 138.74 546.809 136.45C545.379 134.16 544.669 131.46 544.669 128.36C544.669 122.9 546.779 118.69 550.989 115.72C555.199 112.74 561.089 111.26 568.649 111.26C574.849 111.26 581.319 112.19 588.069 114.05C594.819 115.91 600.799 118.45 606.009 121.67L609.909 98.81C604.579 95.59 598.109 93.02 590.489 91.1C582.869 89.18 575.279 88.22 567.719 88.22C557.429 88.22 548.509 89.89 540.949 93.24C533.389 96.59 527.539 101.36 523.389 107.55C519.239 113.75 517.159 121.06 517.159 129.48C517.159 136.67 518.559 142.89 521.339 148.16C524.129 153.43 528.679 157.98 534.999 161.82C541.319 165.66 549.619 169.13 559.909 172.23C567.349 174.46 573.109 176.57 577.199 178.55C581.289 180.53 584.139 182.73 585.749 185.15C587.359 187.57 588.169 190.45 588.169 193.79C588.169 199.62 585.779 204.17 581.009 207.45C576.239 210.73 569.639 212.37 561.209 212.37C553.899 212.37 546.249 211.23 538.259 208.93C530.269 206.64 523.299 203.7 517.349 200.1L514.749 223.7C518.219 226.06 522.559 228.1 527.759 229.83C532.969 231.57 538.569 232.93 544.579 233.92C550.589 234.91 556.569 235.41 562.519 235.41C579.249 235.41 592.379 231.6 601.919 223.98C611.459 216.36 616.229 205.8 616.229 192.29C616.229 185.1 614.679 178.88 611.579 173.61C608.479 168.34 603.519 163.7 596.709 159.67L596.719 159.68Z" fill="white"/>
<path d="M745.049 91.1899H625.539V114.23H745.049V91.1899Z" fill="white"/>
<path d="M699.509 123.88H671.069V232.45H699.509V123.88Z" fill="white"/>
<path d="M782.779 173.35L803.599 115.35L803.719 115.7L812.559 91.1899H789.469L733.339 232.45H761.589L774.969 195.28H775.029L782.939 173.35H782.779Z" fill="white"/>
<path d="M808.839 129.96L824.419 173.35H793.199L785.289 195.28H832.409L845.789 232.45H875.719L821.199 95.7L808.839 129.96Z" fill="white"/>
<path d="M967.719 175.2C974.539 171.36 980.109 166.19 984.449 159.68C988.789 153.18 990.959 145.59 990.959 136.91C990.959 127.49 988.849 119.38 984.639 112.56C980.419 105.75 974.419 100.48 966.609 96.7599C958.799 93.0399 949.509 91.1799 938.729 91.1799H928.849V112.56H935.009C953.849 112.56 963.259 120.61 963.259 136.72C963.259 152.83 953.529 160.88 934.079 160.88H928.849V182.25H943.369L973.109 232.43H1004.89L967.709 175.18L967.719 175.2Z" fill="white"/>
<path d="M919.199 91.1899H892.259V232.45H919.199V91.1899Z" fill="white"/>
<path d="M1045.53 222.13L1076.24 182.06V173.69H1031.03V183.67H1061.93V184.21L1030 224.78V232.65H1077.32V222.67H1045.54V222.13H1045.53ZM1138.36 173.69H1124.62L1101.13 198.64H1100.13V154.04H1088.65V232.64H1100.13V211.72L1105.83 206.02L1125.88 232.64H1139.97L1114.49 198.99L1138.36 173.69ZM1159.42 198.37H1194.27V188.2H1159.42V164.25H1196.84V154.04H1147.56V232.64H1197.3V222.43H1159.42V198.37ZM1240.2 218.06H1239.32L1217.44 154.04H1204.62L1232.91 232.64H1246.61L1274.9 154.04H1262.08L1240.2 218.06ZM1349.42 154.04L1324.4 215.14H1323.48L1298.46 154.04H1284.07V232.64H1295.35V175.72H1296.08L1319.26 232.52H1328.63L1351.81 175.75H1352.54V232.63H1363.82V154.03H1349.43L1349.42 154.04Z" fill="white"/>
<defs>
<linearGradient id="paint0_linear_93_89" x1="1064.24" y1="432.86" x2="1141.59" y2="220.16" gradientUnits="userSpaceOnUse">
<stop stop-color="#A726C1"/>
<stop offset="0.88" stop-color="#803BDF"/>
<stop offset="1" stop-color="#7B3FE4"/>
</linearGradient>
<linearGradient id="paint1_linear_93_89" x1="51.3891" y1="272.26" x2="257.739" y2="65.91" gradientUnits="userSpaceOnUse">
<stop stop-color="#E6007A"/>
<stop offset="0.21" stop-color="#703AC2"/>
<stop offset="0.46" stop-color="#0070EB"/>
<stop offset="0.77" stop-color="#0297FB"/>
<stop offset="1" stop-color="#0AE2FF"/>
</linearGradient>
<radialGradient id="paint2_radial_93_89" cx="0" cy="0" r="1" gradientUnits="userSpaceOnUse" gradientTransform="translate(207.949 129.07) scale(61.53 61.53)">
<stop stop-color="white"/>
<stop offset="1" stop-color="white" stop-opacity="0"/>
</radialGradient>
<radialGradient id="paint3_radial_93_89" cx="0" cy="0" r="1" gradientUnits="userSpaceOnUse" gradientTransform="translate(116.999 243.21) scale(35.8 35.8)">
<stop stop-color="white"/>
<stop offset="1" stop-color="white" stop-opacity="0"/>
</radialGradient>
<linearGradient id="paint4_linear_93_89" x1="63.279" y1="237.15" x2="97.789" y2="236.67" gradientUnits="userSpaceOnUse">
<stop stop-color="white" stop-opacity="0"/>
<stop offset="1" stop-color="white"/>
</linearGradient>
<radialGradient id="paint5_radial_93_89" cx="0" cy="0" r="1" gradientUnits="userSpaceOnUse" gradientTransform="translate(110.388 138.255) rotate(-120) scale(61.53)">
<stop stop-color="white"/>
<stop offset="1" stop-color="white" stop-opacity="0"/>
</radialGradient>
<radialGradient id="paint6_radial_93_89" cx="0" cy="0" r="1" gradientUnits="userSpaceOnUse" gradientTransform="translate(254.707 159.941) rotate(-120) scale(35.8 35.8)">
<stop stop-color="white"/>
<stop offset="1" stop-color="white" stop-opacity="0"/>
</radialGradient>
<linearGradient id="paint7_linear_93_89" x1="276.332" y1="209.498" x2="258.661" y2="179.851" gradientUnits="userSpaceOnUse">
<stop stop-color="white" stop-opacity="0"/>
<stop offset="1" stop-color="white"/>
</linearGradient>
<radialGradient id="paint8_radial_93_89" cx="0" cy="0" r="1" gradientUnits="userSpaceOnUse" gradientTransform="translate(164.212 215.292) rotate(120) scale(61.53 61.53)">
<stop stop-color="white"/>
<stop offset="1" stop-color="white" stop-opacity="0"/>
</radialGradient>
<radialGradient id="paint9_radial_93_89" cx="0" cy="0" r="1" gradientUnits="userSpaceOnUse" gradientTransform="translate(113.741 82.3105) rotate(120) scale(35.8 35.8)">
<stop stop-color="white"/>
<stop offset="1" stop-color="white" stop-opacity="0"/>
</radialGradient>
<linearGradient id="paint10_linear_93_89" x1="145.846" y1="38.804" x2="129.007" y2="68.9305" gradientUnits="userSpaceOnUse">
<stop stop-color="white" stop-opacity="0"/>
<stop offset="1" stop-color="white"/>
</linearGradient>
<linearGradient id="paint11_linear_93_89" x1="153.339" y1="23.4999" x2="100.629" y2="38.8299" gradientUnits="userSpaceOnUse">
<stop stop-color="#231F20"/>
<stop offset="1" stop-color="white"/>
</linearGradient>
<linearGradient id="paint12_linear_93_89" x1="53.719" y1="224.56" x2="97.809" y2="270.57" gradientUnits="userSpaceOnUse">
<stop stop-color="#231F20"/>
<stop offset="1" stop-color="white"/>
</linearGradient>
<linearGradient id="paint13_linear_93_89" x1="290.359" y1="217.63" x2="305.699" y2="170.98" gradientUnits="userSpaceOnUse">
<stop stop-color="#231F20"/>
<stop offset="1" stop-color="white"/>
</linearGradient>
<linearGradient id="paint14_linear_93_89" x1="177.369" y1="50.17" x2="248.049" y2="66.36" gradientUnits="userSpaceOnUse">
<stop stop-color="#231F20"/>
<stop offset="1" stop-color="white"/>
</linearGradient>
<linearGradient id="paint15_linear_93_89" x1="250.739" y1="231.103" x2="201.386" y2="284.224" gradientUnits="userSpaceOnUse">
<stop stop-color="#231F20"/>
<stop offset="1" stop-color="white"/>
</linearGradient>
<linearGradient id="paint16_linear_93_89" x1="57.3737" y1="204.224" x2="36.0546" y2="134.919" gradientUnits="userSpaceOnUse">
<stop stop-color="#231F20"/>
<stop offset="1" stop-color="white"/>
</linearGradient>
<linearGradient id="paint17_linear_93_89" x1="192.819" y1="76.2399" x2="170.449" y2="98.6099" gradientUnits="userSpaceOnUse">
<stop stop-color="#231F20"/>
<stop offset="1" stop-color="white"/>
</linearGradient>
<linearGradient id="paint18_linear_93_89" x1="72.2014" y1="177.773" x2="102.754" y2="185.952" gradientUnits="userSpaceOnUse">
<stop stop-color="#231F20"/>
<stop offset="1" stop-color="white"/>
</linearGradient>
<linearGradient id="paint19_linear_93_89" x1="220.428" y1="231.444" x2="212.249" y2="200.891" gradientUnits="userSpaceOnUse">
<stop stop-color="#231F20"/>
<stop offset="1" stop-color="white"/>
</linearGradient>
<linearGradient id="paint20_linear_93_89" x1="173.929" y1="204.28" x2="187.349" y2="185.74" gradientUnits="userSpaceOnUse">
<stop stop-color="#231F20"/>
<stop offset="1" stop-color="white"/>
</linearGradient>
<linearGradient id="paint21_linear_93_89" x1="127.719" y1="196.25" x2="100.879" y2="209.03" gradientUnits="userSpaceOnUse">
<stop stop-color="#231F20"/>
<stop offset="1" stop-color="white"/>
</linearGradient>
<linearGradient id="paint22_linear_93_89" x1="117.979" y1="151.58" x2="126.289" y2="168.83" gradientUnits="userSpaceOnUse">
<stop stop-color="#231F20"/>
<stop offset="1" stop-color="white"/>
</linearGradient>
<linearGradient id="paint23_linear_93_89" x1="156.629" y1="98.2901" x2="150.879" y2="78.4801" gradientUnits="userSpaceOnUse">
<stop stop-color="#231F20"/>
<stop offset="1" stop-color="white"/>
</linearGradient>
<linearGradient id="paint24_linear_93_89" x1="218.609" y1="188.99" x2="235.219" y2="192.82" gradientUnits="userSpaceOnUse">
<stop stop-color="#231F20"/>
<stop offset="1" stop-color="white"/>
</linearGradient>
<linearGradient id="paint25_linear_93_89" x1="192.529" y1="132.86" x2="171.449" y2="129.03" gradientUnits="userSpaceOnUse">
<stop stop-color="#231F20"/>
<stop offset="1" stop-color="white"/>
</linearGradient>
</defs>
</svg>
