<svg width="1364" height="324" viewBox="0 0 1364 324" fill="none" xmlns="http://www.w3.org/2000/svg">
<path d="M803.599 74.54L782.779 132.53H782.939L803.719 74.88L803.599 74.54Z" fill="white"/>
<path d="M433.899 74.54L413.089 132.53H413.149L433.979 74.76L433.899 74.54Z" fill="white"/>
<path d="M439.099 89.02L454.719 132.53H423.409L415.509 154.46H462.709L476.089 191.64H506.019L451.449 54.77L439.099 89.02Z" fill="white"/>
<path d="M413.089 132.53L433.899 74.5401L433.979 74.7601L442.769 50.3701H419.779L363.639 191.64H391.839L413.149 132.53H413.089Z" fill="white"/>
<path d="M596.719 118.87C589.899 114.85 580.859 111.1 569.579 107.63C563.139 105.53 558.089 103.58 554.429 101.77C550.769 99.9799 548.229 97.9299 546.809 95.6399C545.379 93.3499 544.669 90.6499 544.669 87.5499C544.669 82.0899 546.779 77.8799 550.989 74.9099C555.199 71.9299 561.089 70.4499 568.649 70.4499C574.849 70.4499 581.319 71.3799 588.069 73.2399C594.819 75.0999 600.799 77.6399 606.009 80.8599L609.909 57.9999C604.579 54.7799 598.109 52.2099 590.489 50.2899C582.869 48.3699 575.279 47.4099 567.719 47.4099C557.429 47.4099 548.509 49.0799 540.949 52.4299C533.389 55.7799 527.539 60.5499 523.389 66.7399C519.239 72.9399 517.159 80.2499 517.159 88.6699C517.159 95.8599 518.559 102.08 521.339 107.35C524.129 112.62 528.679 117.17 534.999 121.01C541.319 124.85 549.619 128.32 559.909 131.42C567.349 133.65 573.109 135.76 577.199 137.74C581.289 139.72 584.139 141.92 585.749 144.34C587.359 146.76 588.169 149.64 588.169 152.98C588.169 158.81 585.779 163.36 581.009 166.64C576.239 169.92 569.639 171.56 561.209 171.56C553.899 171.56 546.249 170.42 538.259 168.12C530.269 165.83 523.299 162.89 517.349 159.29L514.749 182.89C518.219 185.25 522.559 187.29 527.759 189.02C532.969 190.76 538.569 192.12 544.579 193.11C550.589 194.1 556.569 194.6 562.519 194.6C579.249 194.6 592.379 190.79 601.919 183.17C611.459 175.55 616.229 164.99 616.229 151.48C616.229 144.29 614.679 138.07 611.579 132.8C608.479 127.53 603.519 122.89 596.709 118.86L596.719 118.87Z" fill="white"/>
<path d="M745.049 50.3701H625.539V73.4101H745.049V50.3701Z" fill="white"/>
<path d="M699.509 83.0701H671.069V191.64H699.509V83.0701Z" fill="white"/>
<path d="M782.779 132.53L803.599 74.5401L803.719 74.8801L812.559 50.3701H789.469L733.339 191.64H761.589L774.969 154.46H775.029L782.939 132.53H782.779Z" fill="white"/>
<path d="M808.839 89.1499L824.419 132.53H793.199L785.289 154.46H832.409L845.789 191.64H875.719L821.199 54.8799L808.839 89.1499Z" fill="white"/>
<path d="M967.719 134.39C974.539 130.55 980.109 125.38 984.449 118.87C988.789 112.37 990.959 104.78 990.959 96.1001C990.959 86.6801 988.849 78.5701 984.639 71.7501C980.419 64.9401 974.419 59.6701 966.609 55.9501C958.799 52.2301 949.509 50.3701 938.729 50.3701H928.849V71.7501H935.009C953.849 71.7501 963.259 79.8001 963.259 95.9101C963.259 112.02 953.529 120.07 934.079 120.07H928.849V141.44H943.369L973.109 191.62H1004.89L967.709 134.37L967.719 134.39Z" fill="white"/>
<path d="M919.199 50.3701H892.259V191.63H919.199V50.3701Z" fill="white"/>
<path d="M1045.53 181.31L1076.24 141.24V132.87H1031.03V142.85H1061.93V143.39L1030 183.96V191.83H1077.32V181.85H1045.54V181.31H1045.53ZM1138.36 132.87H1124.62L1101.13 157.82H1100.13V113.22H1088.65V191.82H1100.13V170.9L1105.83 165.2L1125.88 191.82H1139.97L1114.49 158.17L1138.36 132.87ZM1159.42 157.55H1194.27V147.38H1159.42V123.43H1196.84V113.22H1147.56V191.82H1197.3V181.61H1159.42V157.55ZM1240.2 177.24H1239.32L1217.44 113.22H1204.62L1232.91 191.82H1246.61L1274.9 113.22H1262.08L1240.2 177.24ZM1349.42 113.22L1324.4 174.32H1323.48L1298.46 113.22H1284.07V191.82H1295.35V134.9H1296.08L1319.26 191.7H1328.63L1351.81 134.93H1352.54V191.81H1363.82V113.21H1349.43L1349.42 113.22Z" fill="white"/>
<path d="M872.769 255.19L853.909 244.28C852.729 243.62 851.399 243.27 850.049 243.27C848.699 243.27 847.369 243.62 846.189 244.28L806.609 267.21L789.709 257.4V237.86L806.609 228.05L823.509 237.86V248.42L833.219 242.85V236.74C833.219 235.38 832.849 234.05 832.179 232.87C831.499 231.69 830.529 230.71 829.359 230.02L810.499 219.16C809.329 218.47 807.999 218.11 806.639 218.11C805.279 218.11 803.949 218.47 802.779 219.16L783.919 230.02C782.749 230.71 781.779 231.69 781.099 232.87C780.419 234.05 780.059 235.38 780.059 236.74V258.51C780.059 259.86 780.409 261.18 781.069 262.36C781.729 263.53 782.679 264.52 783.829 265.22L802.689 276.13C803.869 276.79 805.199 277.14 806.549 277.14C807.899 277.14 809.229 276.79 810.409 276.13L849.989 253.2L866.879 263.01V282.57L849.989 292.38L833.089 282.57V271.95L823.439 277.55V283.66C823.439 285.02 823.809 286.35 824.479 287.53C825.159 288.71 826.129 289.69 827.299 290.38L846.159 301.24C847.329 301.94 848.659 302.3 850.019 302.3C851.379 302.3 852.709 301.93 853.879 301.24L872.739 290.38C873.909 289.69 874.879 288.71 875.559 287.53C876.239 286.35 876.599 285.02 876.599 283.66V261.89C876.599 260.54 876.239 259.21 875.569 258.03C874.899 256.86 873.929 255.87 872.769 255.18V255.19ZM920.069 242.8C915.639 242.8 912.229 244.44 910.189 247.09V243.32H900.729V291.55L910.199 291.57V274.61C912.039 276.93 915.379 278.22 919.249 278.22C929.129 278.22 935.809 271.21 935.809 260.51C935.809 249.81 929.679 242.8 920.079 242.8H920.069ZM918.079 270.04C912.969 270.04 909.629 266.22 909.629 260.51C909.629 254.8 912.959 250.91 918.079 250.91C923.199 250.91 926.459 254.68 926.459 260.51C926.459 266.34 923.069 270.04 918.079 270.04ZM957.299 242.8C946.739 242.8 939.199 250.29 939.199 260.51C939.199 270.73 946.739 278.22 957.299 278.22C967.859 278.22 975.399 270.72 975.399 260.51C975.399 250.3 967.859 242.8 957.299 242.8ZM957.299 270.04C952.189 270.04 948.719 266.16 948.719 260.51C948.719 254.86 952.199 250.91 957.299 250.91C962.399 250.91 965.879 254.79 965.879 260.51C965.879 266.23 962.409 270.04 957.299 270.04ZM981.149 277.67H990.619V228.42H981.149V277.67ZM1011.92 265.47L1004.7 243.33H995.009L1007.47 277.38L1002.43 291.55H1011.48L1016.34 277.53L1028.81 243.34L1019.07 243.32L1011.92 265.46V265.47ZM1055.4 246.74C1053.49 244.36 1050.12 242.79 1045.93 242.79C1035.91 242.79 1029.86 249.8 1029.86 260.5C1029.86 271.2 1035.89 278.21 1046.07 278.21C1050.09 278.21 1053.7 276.7 1055.47 274.19V278.72C1055.47 281.92 1053.36 284.17 1050.5 284.17H1034.7V291.6H1052C1059.76 291.6 1064.94 286.9 1064.94 279.74V243.34H1055.41V246.75L1055.4 246.74ZM1047.57 270.03C1042.52 270.03 1039.19 266.26 1039.19 260.5C1039.19 254.74 1042.52 250.9 1047.57 250.9C1052.62 250.9 1056.01 254.67 1056.01 260.5C1056.01 266.33 1052.68 270.03 1047.57 270.03ZM1088.8 242.79C1078.24 242.79 1070.7 250.28 1070.7 260.5C1070.7 270.72 1078.24 278.21 1088.8 278.21C1099.36 278.21 1106.9 270.71 1106.9 260.5C1106.9 250.29 1099.36 242.79 1088.8 242.79ZM1088.8 270.03C1083.69 270.03 1080.22 266.15 1080.22 260.5C1080.22 254.85 1083.69 250.9 1088.8 250.9C1093.91 250.9 1097.38 254.78 1097.38 260.5C1097.38 266.22 1093.9 270.03 1088.8 270.03ZM1132.03 242.79C1127.33 242.79 1123.52 244.77 1121.61 248.07V243.33H1112.09V277.66H1121.62V258.86C1121.62 254.43 1124.55 251.23 1128.7 251.23C1132.85 251.23 1135.31 254.25 1135.31 258.38V277.66H1144.84V256.27C1144.84 248.37 1139.8 242.78 1132.02 242.78L1132.03 242.79Z" fill="url(#paint0_linear_93_89)"/>
<path d="M363.639 275.57V244.87H374.579C376.969 244.87 378.949 245.3 380.519 246.17C382.089 247.04 383.259 248.23 384.039 249.73C384.819 251.23 385.209 252.92 385.209 254.8C385.209 256.68 384.819 258.38 384.039 259.89C383.249 261.39 382.069 262.58 380.499 263.46C378.929 264.33 376.949 264.77 374.569 264.77H367.049V260.84H374.149C375.659 260.84 376.879 260.58 377.819 260.05C378.759 259.52 379.449 258.81 379.889 257.9C380.329 256.99 380.549 255.96 380.549 254.8C380.549 253.64 380.329 252.61 379.889 251.71C379.449 250.81 378.759 250.11 377.819 249.6C376.879 249.09 375.629 248.84 374.099 248.84H368.279V275.57H363.649H363.639Z" fill="url(#paint1_linear_93_89)"/>
<path d="M429.109 260.21C429.109 263.49 428.509 266.3 427.309 268.66C426.109 271.01 424.469 272.82 422.389 274.09C420.299 275.35 417.939 275.99 415.289 275.99C412.639 275.99 410.259 275.36 408.179 274.09C406.099 272.83 404.459 271.02 403.259 268.66C402.059 266.3 401.459 263.49 401.459 260.22C401.459 256.95 402.059 254.13 403.259 251.77C404.459 249.42 406.099 247.61 408.179 246.34C410.269 245.08 412.639 244.44 415.289 244.44C417.939 244.44 420.299 245.07 422.389 246.34C424.469 247.6 426.109 249.41 427.309 251.77C428.509 254.12 429.109 256.94 429.109 260.22V260.21ZM424.519 260.21C424.519 257.71 424.119 255.61 423.309 253.89C422.509 252.18 421.409 250.88 420.009 249.99C418.619 249.11 417.039 248.66 415.279 248.66C413.519 248.66 411.929 249.1 410.539 249.99C409.149 250.87 408.049 252.17 407.249 253.89C406.449 255.6 406.039 257.71 406.039 260.21C406.039 262.71 406.439 264.82 407.249 266.53C408.049 268.24 409.149 269.54 410.539 270.43C411.929 271.31 413.509 271.76 415.279 271.76C417.049 271.76 418.619 271.32 420.009 270.43C421.399 269.55 422.499 268.25 423.309 266.53C424.119 264.82 424.519 262.71 424.519 260.21Z" fill="url(#paint2_linear_93_89)"/>
<path d="M452.309 275.57L443.799 244.87H448.669L454.649 268.64H454.939L461.159 244.87H465.989L472.209 268.66H472.499L478.469 244.87H483.359L474.829 275.57H470.169L463.709 252.57H463.469L457.009 275.57H452.329H452.309Z" fill="url(#paint3_linear_93_89)"/>
<path d="M499.399 275.57V244.87H518.639V248.86H504.029V258.21H517.639V262.18H504.029V271.58H518.829V275.57H499.399Z" fill="url(#paint4_linear_93_89)"/>
<path d="M536.679 275.57V244.87H547.619C549.999 244.87 551.979 245.28 553.549 246.1C555.119 246.92 556.299 248.05 557.079 249.5C557.859 250.94 558.249 252.61 558.249 254.5C558.249 256.39 557.859 258.03 557.069 259.46C556.289 260.88 555.109 261.99 553.529 262.78C551.959 263.57 549.979 263.96 547.599 263.96H539.309V259.97H547.179C548.679 259.97 549.899 259.76 550.849 259.33C551.789 258.9 552.489 258.28 552.929 257.46C553.369 256.64 553.589 255.66 553.589 254.51C553.589 253.36 553.369 252.35 552.919 251.5C552.469 250.65 551.779 250 550.829 249.54C549.889 249.09 548.649 248.86 547.119 248.86H541.299V275.59H536.669L536.679 275.57ZM551.829 261.72L559.419 275.57H554.139L546.709 261.72H551.839H551.829Z" fill="url(#paint5_linear_93_89)"/>
<path d="M575.719 275.57V244.87H594.969V248.86H580.349V258.21H593.959V262.18H580.349V271.58H595.149V275.57H575.719Z" fill="url(#paint6_linear_93_89)"/>
<path d="M622.929 275.57H612.989V244.87H623.239C626.249 244.87 628.829 245.48 630.989 246.71C633.149 247.93 634.799 249.69 635.959 251.97C637.109 254.25 637.689 256.99 637.689 260.18C637.689 263.37 637.109 266.13 635.939 268.42C634.769 270.71 633.089 272.49 630.889 273.72C628.689 274.95 626.039 275.57 622.919 275.57H622.929ZM617.619 271.52H622.669C625.009 271.52 626.949 271.08 628.499 270.19C630.049 269.3 631.209 268.02 631.979 266.34C632.749 264.66 633.129 262.6 633.129 260.17C633.129 257.74 632.749 255.72 631.979 254.04C631.209 252.36 630.079 251.09 628.569 250.22C627.059 249.35 625.189 248.92 622.949 248.92H617.609V271.53L617.619 271.52Z" fill="url(#paint7_linear_93_89)"/>
<path d="M678.279 275.57V244.87H689.519C691.699 244.87 693.499 245.23 694.929 245.94C696.359 246.65 697.429 247.62 698.139 248.83C698.849 250.04 699.199 251.41 699.199 252.93C699.199 254.21 698.969 255.29 698.499 256.16C698.029 257.03 697.399 257.73 696.619 258.26C695.829 258.79 694.969 259.17 694.029 259.41V259.71C695.049 259.76 696.049 260.09 697.019 260.69C697.989 261.29 698.799 262.15 699.439 263.26C700.079 264.37 700.399 265.72 700.399 267.31C700.399 268.9 700.029 270.29 699.299 271.53C698.569 272.77 697.429 273.76 695.899 274.48C694.369 275.2 692.419 275.57 690.039 275.57H678.269H678.279ZM682.909 258.15H689.119C690.159 258.15 691.099 257.95 691.929 257.55C692.759 257.15 693.429 256.59 693.919 255.86C694.409 255.14 694.659 254.28 694.659 253.29C694.659 252.02 694.219 250.96 693.329 250.1C692.439 249.24 691.079 248.81 689.239 248.81H682.909V258.15ZM682.909 271.6H689.599C691.819 271.6 693.409 271.17 694.369 270.31C695.329 269.45 695.809 268.38 695.809 267.09C695.809 266.12 695.569 265.23 695.069 264.42C694.579 263.61 693.879 262.97 692.979 262.49C692.079 262.01 690.999 261.77 689.759 261.77H682.909V271.6Z" fill="url(#paint8_linear_93_89)"/>
<path d="M715.339 244.87H720.599L728.619 258.83H728.949L736.969 244.87H742.229L731.089 263.52V275.57H726.469V263.52L715.329 244.87H715.339Z" fill="url(#paint9_linear_93_89)"/>
<path d="M323.269 150.84C317.199 61.68 239.999 -5.69 150.839 0.380003C106.419 3.4 67.4191 24.08 40.2091 55.09L40.1291 55.04C39.9491 55.29 39.7791 55.54 39.5891 55.8C12.5591 86.96 -2.64085 128.39 0.379147 172.8C0.669147 177.03 1.16915 181.2 1.76915 185.32C1.79915 185.51 1.81915 185.69 1.84915 185.88C2.25915 188.6 2.72915 191.3 3.26915 193.98C3.26915 194.03 3.28915 194.08 3.29915 194.13C3.78915 196.55 4.33915 198.95 4.92915 201.33C4.92915 201.33 4.92915 201.33 4.92915 201.34C23.6191 275.87 93.4492 328.66 172.799 323.26C261.959 317.2 329.329 240 323.259 150.84H323.269ZM288.049 153.24C288.799 164.22 288.109 174.97 286.149 185.31C286.129 185.25 286.109 185.19 286.079 185.13C274.349 156.45 251.139 135.75 230.729 124.31C234.859 75.72 218.379 55.25 199.719 51.92C199.209 51.82 198.699 51.74 198.179 51.67C183.369 49.77 169.829 60.24 167.929 75.04C166.029 89.85 176.499 103.39 191.299 105.29C192.589 105.45 193.869 105.5 195.129 105.48C195.209 107.12 195.259 108.86 195.279 110.68C178.029 106.4 161.899 105.57 147.199 106.89C141.699 107.26 136.199 107.95 130.729 108.97C132.569 92.56 138.719 74.14 150.669 60.66C162.219 47.63 179.379 40.16 198.109 42.08C201.659 42.44 205.449 43.31 208.859 44.46C209.019 44.51 209.179 44.56 209.339 44.61C209.339 44.61 209.339 44.61 209.339 44.6C252.719 62.27 284.639 103.44 288.029 153.23L288.049 153.24ZM175.259 177.96C175.259 177.96 175.239 178 175.219 178.01C171.359 183.58 166.769 189.07 161.379 194.38C153.299 185.78 146.809 176.52 141.879 166.94C141.629 166.43 141.359 165.94 141.109 165.42C141.109 165.4 141.089 165.38 141.079 165.36C138.189 159.23 135.729 152.5 133.819 145.18C145.319 142.47 156.599 141.48 167.369 142C167.939 142.04 168.499 142.05 169.069 142.1C169.089 142.1 169.109 142.1 169.129 142.1C175.879 142.66 182.919 143.89 190.199 145.9C186.789 157.21 182.019 167.47 176.179 176.53C175.859 177 175.569 177.48 175.239 177.96H175.259ZM119.959 42.46C119.959 42.46 119.899 42.54 119.869 42.57C100.909 67.06 94.5791 97.49 94.8691 120.87C50.7291 141.59 41.2391 166.1 47.6891 183.92C47.8591 184.41 48.0391 184.89 48.2491 185.37C54.0091 199.14 69.8391 205.64 83.6091 199.88C97.3791 194.12 103.879 178.29 98.1191 164.51C97.6191 163.31 97.0191 162.18 96.3691 161.09C97.7691 160.19 99.2591 159.26 100.849 158.33C105.769 175.41 113.059 189.86 121.549 201.93C124.609 206.5 127.949 210.91 131.569 215.13C116.439 221.75 97.4091 225.63 79.7591 222.02C62.6991 218.54 47.6491 207.4 39.9491 190.23C38.4891 186.97 37.3491 183.26 36.6391 179.73C36.1991 176.65 35.8291 173.54 35.6191 170.39C31.6791 112.42 67.6391 60.82 119.979 42.44L119.959 42.46ZM170.409 288.04C135.989 290.38 103.809 278.64 79.4891 257.77C110.169 261.95 139.689 252.21 159.799 240.26C199.829 268.15 225.809 264.11 238.029 249.62C238.369 249.23 238.699 248.83 239.009 248.41C248.059 236.54 245.759 219.58 233.889 210.53C222.019 201.48 205.059 203.78 196.009 215.65C195.219 216.69 194.539 217.77 193.929 218.88C192.459 218.13 190.919 217.3 189.329 216.39C201.669 203.58 210.469 190.02 216.679 176.62C219.109 171.67 221.259 166.56 223.109 161.31C236.409 171.1 249.299 185.65 255.009 202.75C260.519 219.27 258.409 237.87 247.379 253.13C245.289 256.02 242.639 258.87 239.939 261.25C239.899 261.28 239.859 261.32 239.819 261.36C220.529 276.52 196.669 286.25 170.409 288.04Z" fill="url(#paint10_linear_93_89)"/>
<path style="mix-blend-mode:overlay" opacity="0.9" d="M199.719 51.9199C199.209 51.8199 198.699 51.7399 198.179 51.6699C195.559 51.3299 192.979 51.3999 190.499 51.7999C205.979 60.2199 217.269 83.6899 211.329 129.97C209.359 145.3 204.809 159.89 198.219 173.27C192.889 184.78 185.629 196.4 175.869 207.57C180.549 211.08 185.119 214.02 189.309 216.4C201.649 203.59 210.449 190.03 216.659 176.63C223.239 163.24 227.799 148.66 229.769 133.33C236.829 78.2199 219.489 55.4499 199.719 51.9199Z" fill="url(#paint11_radial_93_89)"/>
<g style="mix-blend-mode:overlay" opacity="0.8">
<path d="M211.339 129.97C217.269 83.68 205.989 60.22 190.509 51.8C189.909 51.9 189.309 52.02 188.719 52.16C203.879 60.87 214.779 84.31 208.929 129.97C206.959 145.3 202.409 159.89 195.819 173.27C190.659 184.4 183.689 195.63 174.419 206.45C174.909 206.83 175.399 207.2 175.889 207.56C185.639 196.39 192.899 184.77 198.239 173.26C204.819 159.87 209.379 145.29 211.349 129.96L211.339 129.97Z" fill="white"/>
</g>
<path style="mix-blend-mode:overlay" opacity="0.5" d="M152.499 234.95C151.049 233.84 149.649 232.68 148.249 231.52C125.399 241.05 93.7391 247.03 62.2891 239.73C67.4391 246.29 73.1891 252.35 79.4991 257.77C110.179 261.95 139.699 252.21 159.809 240.26C157.419 238.6 154.989 236.84 152.509 234.94L152.499 234.95Z" fill="url(#paint12_radial_93_89)"/>
<path style="mix-blend-mode:overlay" opacity="0.6" d="M148.239 231.52C147.539 230.94 146.839 230.37 146.149 229.77C123.129 238.97 91.319 244.47 59.939 236.65C60.699 237.69 61.479 238.72 62.279 239.73C93.729 247.03 125.399 241.05 148.239 231.52Z" fill="url(#paint13_linear_93_89)"/>
<path style="mix-blend-mode:overlay" opacity="0.9" d="M47.6891 183.96C47.8591 184.45 48.0391 184.93 48.2491 185.41C49.2691 187.85 50.6191 190.04 52.1991 192C51.7491 174.38 66.4291 152.88 109.479 134.87C123.739 128.91 138.649 125.56 153.539 124.57C166.179 123.43 179.869 123.91 194.419 126.77C195.119 120.96 195.379 115.53 195.349 110.72C178.089 106.44 161.949 105.6 147.239 106.92C132.359 107.91 117.439 111.26 103.179 117.22C51.9191 138.66 40.8791 165.06 47.6991 183.95L47.6891 183.96Z" fill="url(#paint14_radial_93_89)"/>
<g style="mix-blend-mode:overlay" opacity="0.8">
<path d="M109.479 134.87C66.429 152.87 51.749 174.38 52.199 192C52.589 192.48 52.989 192.92 53.409 193.37C53.379 175.89 68.229 154.72 110.689 136.96C124.949 131 139.859 127.65 154.749 126.66C166.969 125.56 180.179 125.99 194.189 128.6C194.269 127.98 194.339 127.38 194.419 126.77C179.869 123.91 166.179 123.43 153.539 124.57C138.659 125.56 123.739 128.91 109.479 134.87Z" fill="white"/>
</g>
<path style="mix-blend-mode:overlay" opacity="0.4" d="M229.809 133.34C229.579 135.15 229.269 136.95 228.969 138.74C248.649 153.76 269.659 178.2 279.059 209.08C282.169 201.34 284.549 193.33 286.079 185.16C274.349 156.5 251.169 135.8 230.759 124.36C230.509 127.26 230.199 130.24 229.809 133.34Z" fill="url(#paint15_radial_93_89)"/>
<path style="mix-blend-mode:overlay" opacity="0.5" d="M228.969 138.73C228.819 139.63 228.669 140.52 228.499 141.41C247.979 156.74 268.639 181.55 277.559 212.63C278.079 211.45 278.579 210.26 279.059 209.07C269.659 178.19 248.649 153.75 228.969 138.73Z" fill="url(#paint16_linear_93_89)"/>
<path style="mix-blend-mode:overlay" opacity="0.9" d="M238.039 249.59C238.379 249.2 238.709 248.8 239.019 248.38C240.619 246.28 241.849 244.01 242.749 241.67C227.719 250.87 201.749 248.91 164.629 220.63C152.339 211.26 141.979 200.02 133.679 187.63C126.379 177.26 119.939 165.16 115.149 151.13C109.769 153.43 104.929 155.92 100.789 158.35C105.709 175.44 113.059 189.84 121.559 201.92C129.859 214.31 140.219 225.56 152.509 234.92C196.709 268.59 225.089 264.96 238.039 249.6V249.59Z" fill="url(#paint17_radial_93_89)"/>
<g style="mix-blend-mode:overlay" opacity="0.8">
<path d="M164.639 220.62C201.759 248.9 227.719 250.86 242.759 241.66C242.979 241.09 243.159 240.51 243.339 239.93C228.219 248.7 202.459 246.42 165.849 218.52C153.559 209.15 143.199 197.91 134.899 185.52C127.839 175.49 121.599 163.83 116.859 150.39C116.279 150.63 115.719 150.87 115.159 151.11C119.949 165.14 126.389 177.24 133.689 187.61C141.989 200 152.349 211.25 164.639 220.61V220.62Z" fill="white"/>
</g>
<path style="mix-blend-mode:overlay" opacity="0.3" d="M103.139 117.18C104.829 116.47 106.529 115.84 108.239 115.21C111.409 90.6599 122.069 60.2499 144.109 36.6599C135.849 37.8399 127.729 39.7799 119.879 42.5399C100.919 67.0299 94.5891 97.4599 94.8791 120.84C97.5091 119.6 100.249 118.38 103.139 117.17V117.18Z" fill="url(#paint18_radial_93_89)"/>
<path style="mix-blend-mode:overlay" opacity="0.4" d="M108.239 115.21C109.089 114.89 109.939 114.57 110.799 114.27C114.339 89.7399 125.489 59.4399 147.949 36.1699C146.669 36.3099 145.389 36.4699 144.119 36.6499C122.079 60.2299 111.419 90.6499 108.249 115.2L108.239 115.21Z" fill="url(#paint19_linear_93_89)"/>
<path style="mix-blend-mode:multiply" opacity="0.4" d="M150.839 0.379919C106.419 3.39992 67.4191 24.0799 40.2091 55.0899C39.9991 55.3199 39.7991 55.5599 39.5991 55.7899C44.8991 61.0399 62.2091 71.4099 69.2291 75.7299C83.0091 60.9099 100.329 49.3499 119.959 42.4599C121.329 40.6899 122.749 38.9499 124.259 37.2499C142.539 16.6199 167.499 5.71992 196.449 5.71992C199.669 5.71992 206.239 6.22992 206.379 6.23992C188.819 1.20992 170.119 -0.930081 150.839 0.379919Z" fill="url(#paint20_linear_93_89)"/>
<path style="mix-blend-mode:multiply" opacity="0.4" d="M170.409 288.04C135.989 290.38 103.809 278.64 79.489 257.77C77.229 257.46 74.959 257.09 72.689 256.63C45.689 251.11 23.759 234.95 9.28896 209.87C7.67896 207.08 6.23896 204.24 4.93896 201.35C23.629 275.88 93.459 328.66 172.809 323.27C173.159 315.1 170.749 296.14 170.409 288.05V288.04Z" fill="url(#paint21_linear_93_89)"/>
<path style="mix-blend-mode:multiply" opacity="0.4" d="M323.269 150.84C318.299 150.33 294.019 152.25 288.049 153.24C288.799 164.22 288.109 174.97 286.149 185.31C286.989 187.37 287.779 189.45 288.499 191.59C297.219 217.73 294.179 244.8 279.709 269.88C278.129 272.62 276.419 275.24 274.609 277.77C274.579 277.82 274.539 277.87 274.509 277.91C274.509 277.91 274.579 277.85 274.629 277.81C307.499 245.83 326.639 200.19 323.289 150.85L323.269 150.84Z" fill="url(#paint22_linear_93_89)"/>
<path style="mix-blend-mode:multiply" opacity="0.5" d="M198.119 42.09C201.669 42.45 205.459 43.32 208.869 44.47C209.029 44.52 209.189 44.57 209.349 44.62C209.349 44.62 209.349 44.62 209.349 44.61C223.309 50.3 236.069 58.43 247.089 68.49C247.109 68.51 247.139 68.53 247.159 68.55C252.469 62.48 262.689 55.81 262.689 55.81C262.689 55.81 247.029 39.8 223.089 34.83C206.329 31.35 168.519 27.98 144.669 68.56C144.669 68.56 144.759 68.47 144.899 68.34C146.659 65.67 148.539 63.08 150.659 60.69C162.209 47.66 179.369 40.19 198.099 42.11L198.119 42.09Z" fill="url(#paint23_linear_93_89)"/>
<path style="mix-blend-mode:multiply" opacity="0.5" d="M247.369 253.13C245.279 256.02 242.629 258.87 239.929 261.25C239.809 261.36 239.679 261.48 239.559 261.59C239.559 261.59 239.559 261.59 239.559 261.6C227.659 270.85 214.229 277.83 200.009 282.35C199.979 282.36 199.959 282.37 199.929 282.38C202.529 290.01 203.199 302.2 203.199 302.2C203.199 302.2 224.899 296.65 241.169 278.4C252.559 265.62 274.389 234.57 251.169 193.63C251.169 193.63 251.199 193.76 251.239 193.94C252.669 196.8 253.969 199.72 254.989 202.75C260.499 219.27 258.389 237.87 247.359 253.13H247.369Z" fill="url(#paint24_linear_93_89)"/>
<path style="mix-blend-mode:multiply" opacity="0.5" d="M39.989 190.29C38.529 187.03 37.389 183.32 36.679 179.79C36.649 179.63 36.599 179.46 36.569 179.3C36.569 179.3 36.569 179.3 36.559 179.3C34.509 164.37 35.169 149.25 38.369 134.68C38.369 134.65 38.369 134.62 38.379 134.59C30.469 133.03 19.579 127.51 19.579 127.51C19.579 127.51 13.539 149.08 21.209 172.3C26.579 188.56 42.559 222.99 89.619 223.35C89.619 223.35 89.499 223.31 89.309 223.26C86.119 223.07 82.939 222.74 79.799 222.1C62.739 218.62 47.689 207.48 39.989 190.31V190.29Z" fill="url(#paint25_linear_93_89)"/>
<path style="mix-blend-mode:multiply" opacity="0.6" d="M191.309 105.29C192.599 105.45 193.879 105.5 195.139 105.48C195.139 105.48 194.289 88.6699 192.229 80.0399C190.169 71.4099 187.119 65.6999 183.779 62.4699C181.379 60.1499 173.819 57.2699 167.939 75.0499C166.039 89.8599 176.509 103.4 191.309 105.3V105.29Z" fill="url(#paint26_linear_93_89)"/>
<path style="mix-blend-mode:multiply" opacity="0.5" d="M98.1192 164.55C97.6192 163.35 97.0192 162.22 96.3692 161.13C96.3692 161.13 82.2292 170.27 75.7892 176.37C69.3492 182.47 65.9292 187.96 64.7992 192.48C63.9892 195.71 65.2792 203.71 83.6092 199.91C97.3792 194.15 103.879 178.32 98.1192 164.54V164.55Z" fill="url(#paint27_linear_93_89)"/>
<path style="mix-blend-mode:multiply" opacity="0.6" d="M196.029 215.61C195.239 216.65 194.559 217.73 193.949 218.84C193.949 218.84 208.929 226.51 217.439 229.04C225.939 231.57 232.409 231.78 236.889 230.5C240.089 229.58 246.369 224.47 233.919 210.49C222.049 201.44 205.089 203.74 196.039 215.61H196.029Z" fill="url(#paint28_linear_93_89)"/>
<path style="mix-blend-mode:multiply" opacity="0.3" d="M190.209 145.9C186.799 157.21 182.029 167.47 176.189 176.53C175.869 177 175.579 177.48 175.249 177.96C175.239 177.98 175.229 178 175.209 178.01C171.349 183.58 166.759 189.07 161.369 194.38C165.069 198.32 169.079 202.14 173.479 205.76C179.009 210.12 184.419 213.63 189.319 216.4C201.659 203.59 210.459 190.03 216.669 176.63C219.099 171.68 221.249 166.57 223.099 161.32C217.409 157.13 211.639 153.79 206.329 151.53C200.829 149.19 195.459 147.35 190.209 145.9Z" fill="url(#paint29_linear_93_89)"/>
<path style="mix-blend-mode:multiply" opacity="0.3" d="M79.4892 257.77C110.169 261.95 139.689 252.21 159.799 240.26C157.409 238.6 154.979 236.84 152.499 234.94C144.739 229.03 137.749 222.36 131.569 215.14C116.439 221.76 97.4092 225.64 79.7592 222.03C62.6992 218.55 47.6492 207.41 39.9492 190.24C38.4892 186.98 37.3492 183.27 36.6392 179.74C41.0992 211.02 56.8792 238.35 79.5092 257.76L79.4892 257.77Z" fill="url(#paint30_linear_93_89)"/>
<path style="mix-blend-mode:multiply" opacity="0.3" d="M161.369 194.38C153.289 185.78 146.799 176.52 141.869 166.94C141.619 166.43 141.349 165.94 141.099 165.42C141.099 165.4 141.079 165.38 141.069 165.36C138.179 159.23 135.719 152.5 133.809 145.18C128.559 146.42 123.259 147.98 117.939 149.97C111.419 152.57 105.679 155.5 100.839 158.35C105.759 175.43 113.049 189.88 121.539 201.95C124.599 206.52 127.939 210.93 131.559 215.15C138.049 212.31 143.829 208.98 148.449 205.51C153.219 201.93 157.489 198.2 161.369 194.39V194.38Z" fill="url(#paint31_linear_93_89)"/>
<path style="mix-blend-mode:multiply" opacity="0.3" d="M119.859 42.5801C100.899 67.0701 94.5691 97.5001 94.8591 120.88C97.4991 119.64 100.249 118.41 103.149 117.2C112.139 113.44 121.389 110.73 130.729 108.98C132.569 92.5701 138.719 74.1501 150.669 60.6701C162.219 47.6401 179.379 40.1701 198.109 42.0901C201.659 42.4501 205.449 43.3201 208.859 44.4701C209.019 44.5201 209.179 44.5701 209.339 44.6201C209.339 44.6201 209.339 44.6201 209.339 44.6101C192.089 37.5801 173.029 34.2601 153.219 35.6101C141.589 36.4001 130.439 38.7801 119.939 42.4701C119.909 42.5101 119.879 42.5501 119.849 42.5801H119.859Z" fill="url(#paint32_linear_93_89)"/>
<path style="mix-blend-mode:multiply" opacity="0.3" d="M286.079 185.12C274.349 156.44 251.139 135.74 230.729 124.3C230.479 127.21 230.169 130.2 229.769 133.32C228.529 142.99 226.259 152.36 223.099 161.32C236.399 171.11 249.289 185.66 254.999 202.76C260.509 219.28 258.399 237.88 247.369 253.14C245.279 256.03 242.629 258.88 239.929 261.26C239.889 261.29 239.849 261.33 239.809 261.37C263.569 242.7 280.369 215.79 286.129 185.31C286.109 185.25 286.089 185.19 286.059 185.13L286.079 185.12Z" fill="url(#paint33_linear_93_89)"/>
<path style="mix-blend-mode:multiply" opacity="0.3" d="M130.649 128.44C131.369 134.36 132.459 139.92 133.819 145.18C145.319 142.47 156.599 141.48 167.369 142C167.939 142.04 168.499 142.05 169.069 142.1C169.089 142.1 169.109 142.1 169.129 142.1C175.879 142.66 182.919 143.89 190.199 145.9C191.759 140.73 193.059 135.36 193.989 129.75C194.999 122.77 195.329 116.32 195.289 110.69C178.039 106.41 161.909 105.58 147.209 106.9C141.709 107.27 136.209 107.96 130.739 108.98C129.949 116.02 129.949 122.7 130.639 128.44H130.649Z" fill="url(#paint34_linear_93_89)"/>
<defs>
<linearGradient id="paint0_linear_93_89" x1="346.409" y1="260.21" x2="1122.42" y2="260.21" gradientUnits="userSpaceOnUse">
<stop stop-color="#D7C5F7"/>
<stop offset="1" stop-color="#7B3FE4"/>
</linearGradient>
<linearGradient id="paint1_linear_93_89" x1="346.409" y1="260.22" x2="1122.42" y2="260.22" gradientUnits="userSpaceOnUse">
<stop stop-color="#D7C5F7"/>
<stop offset="1" stop-color="#7B3FE4"/>
</linearGradient>
<linearGradient id="paint2_linear_93_89" x1="346.409" y1="260.21" x2="1122.42" y2="260.21" gradientUnits="userSpaceOnUse">
<stop stop-color="#D7C5F7"/>
<stop offset="1" stop-color="#7B3FE4"/>
</linearGradient>
<linearGradient id="paint3_linear_93_89" x1="346.409" y1="260.22" x2="1122.42" y2="260.22" gradientUnits="userSpaceOnUse">
<stop stop-color="#D7C5F7"/>
<stop offset="1" stop-color="#7B3FE4"/>
</linearGradient>
<linearGradient id="paint4_linear_93_89" x1="346.409" y1="260.22" x2="1122.42" y2="260.22" gradientUnits="userSpaceOnUse">
<stop stop-color="#D7C5F7"/>
<stop offset="1" stop-color="#7B3FE4"/>
</linearGradient>
<linearGradient id="paint5_linear_93_89" x1="346.409" y1="260.22" x2="1122.42" y2="260.22" gradientUnits="userSpaceOnUse">
<stop stop-color="#D7C5F7"/>
<stop offset="1" stop-color="#7B3FE4"/>
</linearGradient>
<linearGradient id="paint6_linear_93_89" x1="346.409" y1="260.22" x2="1122.42" y2="260.22" gradientUnits="userSpaceOnUse">
<stop stop-color="#D7C5F7"/>
<stop offset="1" stop-color="#7B3FE4"/>
</linearGradient>
<linearGradient id="paint7_linear_93_89" x1="346.409" y1="260.22" x2="1122.42" y2="260.22" gradientUnits="userSpaceOnUse">
<stop stop-color="#D7C5F7"/>
<stop offset="1" stop-color="#7B3FE4"/>
</linearGradient>
<linearGradient id="paint8_linear_93_89" x1="346.409" y1="260.22" x2="1122.42" y2="260.22" gradientUnits="userSpaceOnUse">
<stop stop-color="#D7C5F7"/>
<stop offset="1" stop-color="#7B3FE4"/>
</linearGradient>
<linearGradient id="paint9_linear_93_89" x1="346.41" y1="260.22" x2="1122.42" y2="260.22" gradientUnits="userSpaceOnUse">
<stop stop-color="#D7C5F7"/>
<stop offset="1" stop-color="#7B3FE4"/>
</linearGradient>
<linearGradient id="paint10_linear_93_89" x1="51.3891" y1="272.26" x2="257.739" y2="65.91" gradientUnits="userSpaceOnUse">
<stop stop-color="#E6007A"/>
<stop offset="0.21" stop-color="#703AC2"/>
<stop offset="0.46" stop-color="#0070EB"/>
<stop offset="0.77" stop-color="#0297FB"/>
<stop offset="1" stop-color="#0AE2FF"/>
</linearGradient>
<radialGradient id="paint11_radial_93_89" cx="0" cy="0" r="1" gradientUnits="userSpaceOnUse" gradientTransform="translate(207.949 129.07) scale(61.53 61.53)">
<stop stop-color="white"/>
<stop offset="1" stop-color="white" stop-opacity="0"/>
</radialGradient>
<radialGradient id="paint12_radial_93_89" cx="0" cy="0" r="1" gradientUnits="userSpaceOnUse" gradientTransform="translate(116.999 243.21) scale(35.8 35.8)">
<stop stop-color="white"/>
<stop offset="1" stop-color="white" stop-opacity="0"/>
</radialGradient>
<linearGradient id="paint13_linear_93_89" x1="63.279" y1="237.15" x2="97.789" y2="236.67" gradientUnits="userSpaceOnUse">
<stop stop-color="white" stop-opacity="0"/>
<stop offset="1" stop-color="white"/>
</linearGradient>
<radialGradient id="paint14_radial_93_89" cx="0" cy="0" r="1" gradientUnits="userSpaceOnUse" gradientTransform="translate(110.393 138.252) rotate(-120) scale(61.53)">
<stop stop-color="white"/>
<stop offset="1" stop-color="white" stop-opacity="0"/>
</radialGradient>
<radialGradient id="paint15_radial_93_89" cx="0" cy="0" r="1" gradientUnits="userSpaceOnUse" gradientTransform="translate(254.716 159.947) rotate(-120) scale(35.8 35.8)">
<stop stop-color="white"/>
<stop offset="1" stop-color="white" stop-opacity="0"/>
</radialGradient>
<linearGradient id="paint16_linear_93_89" x1="276.336" y1="209.494" x2="258.665" y2="179.848" gradientUnits="userSpaceOnUse">
<stop stop-color="white" stop-opacity="0"/>
<stop offset="1" stop-color="white"/>
</linearGradient>
<radialGradient id="paint17_radial_93_89" cx="0" cy="0" r="1" gradientUnits="userSpaceOnUse" gradientTransform="translate(164.208 215.289) rotate(120) scale(61.53 61.53)">
<stop stop-color="white"/>
<stop offset="1" stop-color="white" stop-opacity="0"/>
</radialGradient>
<radialGradient id="paint18_radial_93_89" cx="0" cy="0" r="1" gradientUnits="userSpaceOnUse" gradientTransform="translate(113.737 82.3071) rotate(120) scale(35.8 35.8)">
<stop stop-color="white"/>
<stop offset="1" stop-color="white" stop-opacity="0"/>
</radialGradient>
<linearGradient id="paint19_linear_93_89" x1="145.837" y1="38.8092" x2="129.002" y2="68.9271" gradientUnits="userSpaceOnUse">
<stop stop-color="white" stop-opacity="0"/>
<stop offset="1" stop-color="white"/>
</linearGradient>
<linearGradient id="paint20_linear_93_89" x1="153.339" y1="23.4999" x2="100.629" y2="38.8299" gradientUnits="userSpaceOnUse">
<stop stop-color="#231F20"/>
<stop offset="1" stop-color="white"/>
</linearGradient>
<linearGradient id="paint21_linear_93_89" x1="53.719" y1="224.56" x2="97.809" y2="270.57" gradientUnits="userSpaceOnUse">
<stop stop-color="#231F20"/>
<stop offset="1" stop-color="white"/>
</linearGradient>
<linearGradient id="paint22_linear_93_89" x1="290.359" y1="217.63" x2="305.699" y2="170.98" gradientUnits="userSpaceOnUse">
<stop stop-color="#231F20"/>
<stop offset="1" stop-color="white"/>
</linearGradient>
<linearGradient id="paint23_linear_93_89" x1="177.369" y1="50.17" x2="248.049" y2="66.36" gradientUnits="userSpaceOnUse">
<stop stop-color="#231F20"/>
<stop offset="1" stop-color="white"/>
</linearGradient>
<linearGradient id="paint24_linear_93_89" x1="250.745" y1="231.11" x2="201.392" y2="284.231" gradientUnits="userSpaceOnUse">
<stop stop-color="#231F20"/>
<stop offset="1" stop-color="white"/>
</linearGradient>
<linearGradient id="paint25_linear_93_89" x1="57.3678" y1="204.221" x2="36.0488" y2="134.915" gradientUnits="userSpaceOnUse">
<stop stop-color="#231F20"/>
<stop offset="1" stop-color="white"/>
</linearGradient>
<linearGradient id="paint26_linear_93_89" x1="192.819" y1="76.2399" x2="170.449" y2="98.6099" gradientUnits="userSpaceOnUse">
<stop stop-color="#231F20"/>
<stop offset="1" stop-color="white"/>
</linearGradient>
<linearGradient id="paint27_linear_93_89" x1="72.2142" y1="177.764" x2="102.764" y2="185.957" gradientUnits="userSpaceOnUse">
<stop stop-color="#231F20"/>
<stop offset="1" stop-color="white"/>
</linearGradient>
<linearGradient id="paint28_linear_93_89" x1="220.424" y1="231.441" x2="212.245" y2="200.888" gradientUnits="userSpaceOnUse">
<stop stop-color="#231F20"/>
<stop offset="1" stop-color="white"/>
</linearGradient>
<linearGradient id="paint29_linear_93_89" x1="173.929" y1="204.28" x2="187.349" y2="185.74" gradientUnits="userSpaceOnUse">
<stop stop-color="#231F20"/>
<stop offset="1" stop-color="white"/>
</linearGradient>
<linearGradient id="paint30_linear_93_89" x1="127.719" y1="196.25" x2="100.879" y2="209.03" gradientUnits="userSpaceOnUse">
<stop stop-color="#231F20"/>
<stop offset="1" stop-color="white"/>
</linearGradient>
<linearGradient id="paint31_linear_93_89" x1="117.979" y1="151.58" x2="126.289" y2="168.83" gradientUnits="userSpaceOnUse">
<stop stop-color="#231F20"/>
<stop offset="1" stop-color="white"/>
</linearGradient>
<linearGradient id="paint32_linear_93_89" x1="156.629" y1="98.2901" x2="150.879" y2="78.4801" gradientUnits="userSpaceOnUse">
<stop stop-color="#231F20"/>
<stop offset="1" stop-color="white"/>
</linearGradient>
<linearGradient id="paint33_linear_93_89" x1="218.609" y1="188.99" x2="235.219" y2="192.82" gradientUnits="userSpaceOnUse">
<stop stop-color="#231F20"/>
<stop offset="1" stop-color="white"/>
</linearGradient>
<linearGradient id="paint34_linear_93_89" x1="192.529" y1="132.86" x2="171.449" y2="129.03" gradientUnits="userSpaceOnUse">
<stop stop-color="#231F20"/>
<stop offset="1" stop-color="white"/>
</linearGradient>
</defs>
</svg>
