<svg width="1863" height="1493" viewBox="0 0 1863 1493" fill="none" xmlns="http://www.w3.org/2000/svg">
<g opacity="0.4" filter="url(#filter0_f_371_1404)">
<path d="M549.01 454.778C387.032 391.747 246.311 466.849 196.197 512.279C104.279 543.237 152.929 724.101 323.796 832.033C494.662 939.965 182.879 976.007 262.772 1166.66C342.666 1357.3 614.715 1100.6 807.179 1081.02C961.149 1065.35 954.113 953.719 931.348 899.858C887.659 866.853 794.088 782.457 769.322 708.923C738.364 617.006 751.481 533.568 549.01 454.778Z" fill="#C0FFF4"/>
<path d="M1642.97 678.06C1656.28 529.798 1541.01 463.094 1481.71 448.274C1424.1 396.049 1261.94 518.017 1207.43 694.233C1152.92 870.448 1024.84 660.321 862.436 809.752C700.035 959.183 1031.79 1034.81 1108.25 1165.8C1169.42 1270.59 1276.35 1212.07 1322.17 1169.72C1341.4 1122.07 1609.14 1032.12 1673.58 978.891C1754.13 912.36 1626.34 863.387 1642.97 678.06Z" fill="#A4BDFF"/>
<path d="M1270.89 403.385C1286.77 230.302 1112.29 400.086 1054.79 364.459C999.664 284.657 902.706 97.0295 846.129 291.05C789.553 485.07 668.853 195.347 507.663 324.76C346.473 454.173 696.274 490.591 768.219 670.173C825.774 813.839 903.152 930.468 948.636 893.722C968.301 842.619 1023.59 729.389 1087.43 685.288C1167.23 630.161 1251.05 619.738 1270.89 403.385Z" fill="#A7F5FF"/>
<path d="M974.309 1097.57C1143.76 1058.87 1263.9 1108.83 1279.9 1043.11C1338.62 965.916 1618.71 767.321 1416.71 773.839C1214.71 780.358 1207.19 494.829 1001.54 515.752C646.552 551.868 856.949 697.924 708.616 822.113C589.95 921.464 585.49 1076.96 634.552 1108.77C689.235 1111.58 681.097 1281.56 742.854 1328.54C820.05 1387.26 762.501 1145.94 974.309 1097.57Z" fill="#9ED8FF"/>
</g>
<defs>
<filter id="filter0_f_371_1404" x="0.455078" y="55.9932" width="1850" height="1431.69" filterUnits="userSpaceOnUse" color-interpolation-filters="sRGB">
<feFlood flood-opacity="0" result="BackgroundImageFix"/>
<feBlend mode="normal" in="SourceGraphic" in2="BackgroundImageFix" result="shape"/>
<feGaussianBlur stdDeviation="75" result="effect1_foregroundBlur_371_1404"/>
</filter>
</defs>
</svg>
