<svg width="1456" height="1577" viewBox="0 0 1456 1577" fill="none" xmlns="http://www.w3.org/2000/svg">
<g opacity="0.4" filter="url(#filter0_f_762_506)">
<path d="M438.609 676.428C292.843 684.326 211.2 790.543 188.599 842.664C129 898.197 228.887 1019.72 397.012 1043.09C565.136 1066.47 339.082 1202.07 466.264 1320.25C593.446 1438.43 712.644 1147.77 853.111 1066.11C965.485 1000.77 921.421 917.8 885.343 884.48C840.481 874.365 739.65 842.216 695.223 794.537C639.69 734.938 620.816 666.556 438.609 676.428Z" fill="#C0FFF4"/>
<path d="M1352.95 468.22C1311.76 350.176 1200.46 339.08 1149.95 348.288C1087.78 328.294 1005.98 477.793 1025.32 631.501C1044.67 785.21 873.874 668.821 801.398 839.418C728.922 1010.01 1008.95 952.93 1112.83 1026.66C1195.94 1085.64 1257.48 1003.81 1277.86 955.53C1276.06 912.419 1449.74 750.827 1480.6 687.778C1519.18 608.966 1404.43 615.775 1352.95 468.22Z" fill="#A4BDFF"/>
<path d="M973.105 386.989C925.279 249.066 850.615 439.419 794.28 432.082C724.454 390.127 585.264 280.17 609.202 448.215C633.141 616.261 440.411 436.417 361.926 591.279C283.44 746.141 563.687 652.804 680.953 765.272C774.765 855.247 874.376 917.669 896.443 873.795C893.782 827.884 896.851 722.096 930.415 666.235C972.37 596.409 1032.89 559.393 973.105 386.989Z" fill="#A7F5FF"/>
<path d="M986.714 1020.86C1102.95 932.542 1212.18 929.141 1201.65 873.316C1219.83 793.909 1365.31 544.921 1213.02 619.896C1060.74 694.871 956.051 479.023 805.96 566.285C546.876 716.914 758.454 755.761 687.996 902.171C631.629 1019.3 682.092 1139.81 730.651 1147.15C773.462 1130.35 826.131 1263.22 889.657 1277.77C969.064 1295.94 841.424 1131.26 986.714 1020.86Z" fill="#9ED8FF"/>
</g>
<defs>
<filter id="filter0_f_762_506" x="21.2471" y="186.708" width="1617.13" height="1311.43" filterUnits="userSpaceOnUse" color-interpolation-filters="sRGB">
<feFlood flood-opacity="0" result="BackgroundImageFix"/>
<feBlend mode="normal" in="SourceGraphic" in2="BackgroundImageFix" result="shape"/>
<feGaussianBlur stdDeviation="75" result="effect1_foregroundBlur_762_506"/>
</filter>
</defs>
</svg>
