<svg width="145" height="159" viewBox="0 0 145 159" fill="none" xmlns="http://www.w3.org/2000/svg">
<path d="M121.872 46.6151C119.999 19.057 96.1507 -1.75702 68.6063 0.117276C54.8811 1.05014 42.8331 7.44328 34.4217 17.0201L34.3961 17.003C34.3362 17.08 34.2848 17.1571 34.2335 17.2341C25.882 26.8709 21.1843 39.6743 22.117 53.4019C22.2026 54.7114 22.3566 55.9951 22.5449 57.2703C22.5449 57.3303 22.562 57.3816 22.5705 57.4415C22.6989 58.2802 22.8444 59.119 23.0069 59.9406C23.0069 59.9577 23.0069 59.9748 23.0155 59.9834C23.1695 60.7279 23.3321 61.4725 23.5203 62.2086C29.2962 85.2392 50.868 101.552 75.3918 99.8827C102.936 98.0084 123.755 74.1561 121.881 46.598L121.872 46.6151ZM110.988 47.3597C111.219 50.7488 111.005 54.0695 110.398 57.2703C110.398 57.2532 110.381 57.2361 110.381 57.219C106.753 48.361 99.582 41.9593 93.2841 38.4247C94.5591 23.4133 89.4678 17.08 83.7005 16.053C83.5465 16.0188 83.3839 15.9931 83.2299 15.976C78.652 15.3855 74.4677 18.6206 73.8858 23.1993C73.2954 27.7781 76.5299 31.9631 81.1078 32.5451C81.5099 32.5964 81.9036 32.6136 82.2886 32.605C82.3143 33.1099 82.3314 33.6491 82.3314 34.214C77.0005 32.896 72.0204 32.6307 67.4768 33.0415C65.7739 33.1527 64.0797 33.3667 62.3854 33.6834C62.9502 28.6168 64.8584 22.9169 68.5464 18.7575C72.1145 14.7265 77.4198 12.4243 83.2042 13.0148C84.2995 13.1261 85.4718 13.3999 86.5242 13.7508C86.5756 13.7679 86.6269 13.7851 86.6697 13.7936C100.07 19.2539 109.936 31.9802 110.98 47.3597H110.988ZM76.1363 54.9938C76.1363 54.9938 76.1363 55.0024 76.1277 55.0109C74.9383 56.7312 73.5179 58.4257 71.8493 60.0689C69.3507 57.4158 67.3484 54.5488 65.8253 51.5876C65.7483 51.4249 65.6627 51.2795 65.5857 51.1168C65.5857 51.1168 65.5857 51.1083 65.5857 51.0997C64.6958 49.2083 63.9342 47.1286 63.3438 44.8606C66.8949 44.0219 70.3775 43.7138 73.7061 43.8764C73.8858 43.885 74.0569 43.8935 74.2366 43.9021H74.2538C76.3416 44.0733 78.5151 44.4584 80.7655 45.0746C79.713 48.5664 78.2412 51.7416 76.4357 54.5402C76.3416 54.6857 76.2475 54.8312 76.1448 54.9853L76.1363 54.9938ZM59.0568 13.1175C59.0568 13.1175 59.0397 13.1432 59.0312 13.1517C53.1697 20.7174 51.2188 30.1231 51.3044 37.3464C37.6648 43.7481 34.7383 51.3223 36.7235 56.8339C36.7749 56.9879 36.8348 57.1334 36.8947 57.2789C38.6745 61.5324 43.569 63.5437 47.8217 61.7635C52.0745 59.9834 54.0853 55.0879 52.3055 50.8344C52.1515 50.4664 51.9632 50.1155 51.7664 49.7817C52.1943 49.4993 52.6563 49.2169 53.1526 48.9259C54.6757 54.2064 56.9262 58.6654 59.5531 62.3968C60.5029 63.809 61.5298 65.1698 62.6507 66.4792C57.9787 68.5247 52.0916 69.7228 46.6409 68.6102C41.3699 67.5319 36.7235 64.0914 34.3362 58.7852C33.8827 57.7753 33.5318 56.6285 33.3094 55.5415C33.1724 54.5916 33.0612 53.633 32.9927 52.6574C31.7777 34.7446 42.8844 18.8003 59.0568 13.1175V13.1175ZM74.6474 89.0049C64.0112 89.7324 54.0682 86.1036 46.5553 79.6506C56.0363 80.9429 65.1579 77.9304 71.3701 74.2417C83.7347 82.86 91.761 81.6105 95.5431 77.1344C95.6458 77.0146 95.7485 76.8862 95.8426 76.7579C98.6407 73.0863 97.9305 67.8485 94.2596 65.0499C90.5887 62.2513 85.352 62.9617 82.5539 66.6332C82.3143 66.9499 82.1004 67.2922 81.9121 67.6346C81.4586 67.4035 80.9794 67.1468 80.4917 66.8643C84.308 62.9018 87.0205 58.7167 88.9373 54.5744C89.6903 53.0425 90.3491 51.4677 90.9224 49.8416C95.0297 52.8713 99.0172 57.3645 100.78 62.645C102.483 67.7458 101.832 73.4971 98.4268 78.2128C97.785 79.1029 96.9636 79.9844 96.1336 80.7204C96.125 80.729 96.1079 80.7461 96.0993 80.7546C90.1438 85.4361 82.7678 88.4486 74.6559 88.9964L74.6474 89.0049Z" fill="white"/>
<path style="mix-blend-mode:multiply" opacity="0.4" d="M68.6056 0.116754C54.8804 1.04962 42.8324 7.44275 34.421 17.0196C34.3611 17.0881 34.2927 17.1651 34.2328 17.2336C35.8671 18.8597 41.2237 22.0605 43.3886 23.3956C47.6499 18.8169 52.9979 15.2395 59.0647 13.117C59.484 12.5692 59.9289 12.0301 60.391 11.508C66.0385 5.13198 73.7482 1.76853 82.6986 1.76853C83.6912 1.76853 85.7192 1.93114 85.762 1.93114C80.337 0.373506 74.5611 -0.29405 68.6056 0.116754Z" fill="url(#paint0_linear_340_25315)"/>
<path style="mix-blend-mode:multiply" opacity="0.4" d="M74.6469 89.0124C64.0108 89.7399 54.0678 86.1111 46.5549 79.6581C45.8532 79.564 45.1515 79.4527 44.4499 79.3072C36.107 77.6041 29.33 72.606 24.8633 64.8606C24.367 63.9962 23.9221 63.1232 23.5199 62.2246C29.2958 85.2553 50.8675 101.568 75.3828 99.8987C75.494 97.374 74.7496 91.5115 74.6384 89.0124H74.6469Z" fill="url(#paint1_linear_340_25315)"/>
<path style="mix-blend-mode:multiply" opacity="0.4" d="M121.871 46.615C120.331 46.461 112.835 47.0515 110.987 47.3596C111.218 50.7487 111.004 54.0694 110.397 57.2702C110.653 57.9036 110.901 58.554 111.124 59.213C113.819 67.2921 112.878 75.6537 108.411 83.4076C107.924 84.2549 107.393 85.068 106.837 85.8468C106.828 85.8639 106.811 85.881 106.803 85.8896C106.803 85.8896 106.828 85.8725 106.837 85.8553C116.994 75.9704 122.907 61.8661 121.871 46.6236V46.615Z" fill="url(#paint2_linear_340_25315)"/>
<path style="mix-blend-mode:multiply" opacity="0.5" d="M83.2129 13.0058C84.3082 13.1171 85.4805 13.391 86.5329 13.7419C86.5843 13.759 86.6356 13.7761 86.6784 13.7847C90.991 15.5391 94.9357 18.0553 98.3414 21.162C98.3414 21.162 98.3585 21.1706 98.367 21.1791C100.01 19.3048 103.167 17.2423 103.167 17.2423C103.167 17.2423 98.3328 12.2955 90.9312 10.755C85.7543 9.67663 74.0742 8.64106 66.7068 21.1791C66.7068 21.1791 66.7325 21.1535 66.7752 21.1107C67.3229 20.2891 67.8962 19.4846 68.5551 18.7485C72.1233 14.7175 77.4285 12.4153 83.2129 13.0058V13.0058Z" fill="url(#paint3_linear_340_25315)"/>
<path style="mix-blend-mode:multiply" opacity="0.5" d="M98.4264 78.2211C97.7846 79.1112 96.9632 79.9927 96.1332 80.7287C96.0989 80.763 96.0561 80.7972 96.0219 80.8314C92.3425 83.6899 88.1924 85.8467 83.8028 87.2417C83.7942 87.2417 83.7857 87.2417 83.7771 87.2502C84.5814 89.6124 84.7868 93.3781 84.7868 93.3781C84.7868 93.3781 91.4868 91.6664 96.5182 86.0264C100.035 82.081 106.778 72.4784 99.6072 59.8291C99.6072 59.8291 99.6158 59.8719 99.6329 59.9232C100.078 60.8048 100.48 61.7119 100.788 62.6448C102.491 67.7456 101.841 73.4969 98.4349 78.2126L98.4264 78.2211Z" fill="url(#paint4_linear_340_25315)"/>
<path style="mix-blend-mode:multiply" opacity="0.5" d="M34.3523 58.8023C33.8988 57.7924 33.548 56.6456 33.3255 55.5587C33.3169 55.5073 33.2998 55.456 33.2913 55.4046C32.6581 50.7916 32.8634 46.1187 33.8475 41.617C33.8475 41.6085 33.8475 41.5999 33.8475 41.5913C31.4002 41.1121 28.0374 39.4004 28.0374 39.4004C28.0374 39.4004 26.172 46.0674 28.5422 53.2393C30.2023 58.2631 35.1395 68.9012 49.6776 69.0125C49.6776 69.0125 49.6348 69.0039 49.5835 68.9868C48.5994 68.9269 47.6154 68.8242 46.6485 68.6274C41.3775 67.549 36.7311 64.1085 34.3438 58.8023H34.3523Z" fill="url(#paint5_linear_340_25315)"/>
<path style="mix-blend-mode:multiply" opacity="0.6" d="M81.1079 32.5358C81.5101 32.5871 81.9037 32.6042 82.2887 32.5957C82.2887 32.5957 82.0235 27.4007 81.3903 24.7305C80.7485 22.0688 79.8073 20.2972 78.7805 19.2959C78.036 18.577 75.7 17.6869 73.8859 23.1814C73.2955 27.7602 76.53 31.9452 81.1079 32.5272V32.5358Z" fill="url(#paint6_linear_340_25315)"/>
<path style="mix-blend-mode:multiply" opacity="0.5" d="M52.3138 50.8505C52.1597 50.4825 51.9715 50.1316 51.7747 49.7979C51.7747 49.7979 47.4021 52.6221 45.417 54.505C43.4318 56.3878 42.3707 58.091 42.0199 59.486C41.7717 60.4873 42.1654 62.9521 47.83 61.7796C52.0827 59.9995 54.0936 55.1041 52.3138 50.8505V50.8505Z" fill="url(#paint7_linear_340_25315)"/>
<path style="mix-blend-mode:multiply" opacity="0.6" d="M82.562 66.6235C82.3225 66.9401 82.1085 67.2824 81.9203 67.6247C81.9203 67.6247 86.5495 69.9949 89.1765 70.7736C91.8034 71.5522 93.8057 71.6207 95.1834 71.2271C96.176 70.9447 98.1098 69.3617 94.2678 65.0491C90.5969 62.251 85.3601 62.9612 82.562 66.6321V66.6235Z" fill="url(#paint8_linear_340_25315)"/>
<path style="mix-blend-mode:multiply" opacity="0.3" d="M80.7641 45.083C79.7116 48.5748 78.2398 51.75 76.4343 54.5486C76.3402 54.6941 76.2461 54.8396 76.1434 54.9936C76.1434 54.9936 76.1434 55.0022 76.1349 55.0108C74.9455 56.731 73.525 58.4256 71.8564 60.0688C73.0031 61.2841 74.2352 62.4651 75.5958 63.5863C77.3071 64.93 78.9757 66.0169 80.4903 66.8727C84.3066 62.9102 87.0191 58.7251 88.9359 54.5828C89.6889 53.0509 90.3477 51.4761 90.921 49.85C89.1583 48.5577 87.3785 47.5222 85.7356 46.8204C84.0414 46.0929 82.3813 45.528 80.7555 45.083H80.7641Z" fill="url(#paint9_linear_340_25315)"/>
<path style="mix-blend-mode:multiply" opacity="0.3" d="M46.5547 79.6588C56.0357 80.9512 65.1572 77.9386 71.3695 74.2499C70.6336 73.7364 69.8806 73.1887 69.1105 72.6067C66.7146 70.7752 64.5582 68.7212 62.6415 66.4875C57.9695 68.5329 52.0824 69.7311 46.6317 68.6185C41.3607 67.5401 36.7143 64.0997 34.327 58.7934C33.8735 57.7835 33.5226 56.6367 33.3002 55.5498C34.6778 65.2208 39.5552 73.6594 46.5461 79.6588H46.5547Z" fill="url(#paint10_linear_340_25315)"/>
<path style="mix-blend-mode:multiply" opacity="0.3" d="M71.8568 60.0687C69.3582 57.4155 67.3559 54.5485 65.8328 51.5873C65.7558 51.4247 65.6702 51.2792 65.5932 51.1166C65.5932 51.1166 65.5932 51.108 65.5932 51.0994C64.7033 49.208 63.9418 47.1283 63.3513 44.8604C61.7255 45.2455 60.0912 45.7248 58.4483 46.341C56.4289 47.1455 54.6576 48.0526 53.1602 48.9256C54.6833 54.2061 56.9337 58.6651 59.5607 62.3965C60.5105 63.8087 61.5373 65.1695 62.6582 66.4789C64.6605 65.6059 66.4489 64.5704 67.8779 63.5006C69.3497 62.3965 70.6674 61.2412 71.8654 60.0601L71.8568 60.0687Z" fill="url(#paint11_linear_340_25315)"/>
<path style="mix-blend-mode:multiply" opacity="0.3" d="M59.031 13.1512C53.1696 20.7168 51.2186 30.1225 51.3042 37.3458C52.1171 36.9607 52.9728 36.5841 53.8627 36.2076C56.6437 35.0436 59.5016 34.2049 62.3853 33.6657C62.95 28.5991 64.8582 22.8992 68.5462 18.7398C72.1144 14.7088 77.4196 12.4066 83.204 12.9971C84.2993 13.1084 85.4716 13.3823 86.5241 13.7332C86.5754 13.7503 86.6268 13.7674 86.6695 13.776C81.3386 11.6021 75.4515 10.5751 69.3334 10.9945C65.7396 11.2427 62.2997 11.9701 59.0481 13.117C59.0396 13.1255 59.031 13.1426 59.0224 13.1512H59.031Z" fill="url(#paint12_linear_340_25315)"/>
<path style="mix-blend-mode:multiply" opacity="0.3" d="M110.389 57.2025C106.761 48.3445 99.5899 41.9428 93.2921 38.4082C93.2151 39.3068 93.121 40.2311 92.9926 41.1982C92.6076 44.1851 91.9059 47.0779 90.9304 49.8508C95.0377 52.8805 99.0252 57.3736 100.788 62.6542C102.491 67.755 101.84 73.5062 98.4348 78.2219C97.793 79.112 96.9715 79.9935 96.1415 80.7295C96.133 80.7381 96.1159 80.7552 96.1073 80.7638C103.449 74.9954 108.643 66.6766 110.423 57.2624C110.423 57.2453 110.406 57.2281 110.406 57.211L110.389 57.2025Z" fill="url(#paint13_linear_340_25315)"/>
<path style="mix-blend-mode:multiply" opacity="0.3" d="M62.3585 39.6905C62.581 41.522 62.9147 43.2337 63.3426 44.8598C66.8937 44.0211 70.3763 43.713 73.7049 43.8756C73.8846 43.8841 74.0557 43.8927 74.2354 43.9012H74.2525C76.3404 44.0724 78.5138 44.4575 80.7643 45.0737C81.2435 43.4733 81.6456 41.813 81.9366 40.0842C82.2532 37.9275 82.3473 35.9334 82.3387 34.196C77.0078 32.878 72.0278 32.6127 67.4841 33.0235C65.7813 33.1348 64.087 33.3487 62.3928 33.6654C62.1532 35.8392 62.1446 37.9018 62.3671 39.6819L62.3585 39.6905Z" fill="url(#paint14_linear_340_25315)"/>
<path d="M99.4876 131.13L94.7781 144.238H94.8157L99.5127 131.205L99.4876 131.13Z" fill="white"/>
<path d="M15.8883 131.13L11.1787 144.238H11.1975L15.907 131.174L15.8883 131.13Z" fill="white"/>
<path d="M17.0663 134.406L20.5985 144.239H13.5153L11.7305 149.199H22.4021L25.427 157.609H32.197L19.8595 126.659L17.0663 134.406Z" fill="white"/>
<path d="M11.1789 144.24L15.8885 131.132L15.9073 131.176L17.8926 125.665H12.6945L0 157.611H6.37544L11.1977 144.24H11.1789Z" fill="white"/>
<path d="M52.7094 141.152C51.1688 140.243 49.1209 139.392 46.572 138.609C45.1128 138.133 43.973 137.694 43.1463 137.287C42.3196 136.88 41.7434 136.417 41.424 135.903C41.1046 135.384 40.9418 134.776 40.9418 134.075C40.9418 132.841 41.4178 131.889 42.3697 131.219C43.3216 130.549 44.6556 130.211 46.3653 130.211C47.7682 130.211 49.2274 130.423 50.7555 130.843C52.2836 131.263 53.6363 131.839 54.8137 132.565L55.6968 127.399C54.4943 126.672 53.0288 126.09 51.3066 125.651C49.5843 125.219 47.8684 125 46.1586 125C43.8352 125 41.8123 125.376 40.1089 126.134C38.3992 126.891 37.0777 127.969 36.1383 129.371C35.1989 130.774 34.7292 132.428 34.7292 134.331C34.7292 135.96 35.0424 137.363 35.6749 138.552C36.3074 139.742 37.3345 140.776 38.7624 141.64C40.1903 142.511 42.0691 143.293 44.3926 143.995C46.071 144.502 47.3736 144.978 48.3005 145.423C49.2274 145.867 49.8724 146.368 50.2357 146.913C50.5989 147.458 50.7805 148.109 50.7805 148.867C50.7805 150.182 50.2419 151.216 49.1647 151.955C48.0876 152.694 46.5908 153.069 44.6869 153.069C43.0336 153.069 41.3051 152.813 39.4951 152.293C37.6852 151.773 36.1133 151.109 34.7668 150.295L34.1781 155.631C34.9609 156.163 35.9442 156.627 37.1216 157.015C38.299 157.409 39.564 157.716 40.923 157.942C42.282 158.167 43.6348 158.28 44.9813 158.28C48.7639 158.28 51.7325 157.416 53.8931 155.694C56.0475 153.971 57.1309 151.585 57.1309 148.529C57.1309 146.907 56.7802 145.498 56.0788 144.308C55.3773 143.118 54.2563 142.066 52.7157 141.158L52.7094 141.152Z" fill="white"/>
<path d="M86.2422 125.665H59.2186V130.876H86.2422V125.665Z" fill="white"/>
<path d="M75.9474 133.055H69.5156V157.604H75.9474V133.055Z" fill="white"/>
<path d="M94.7783 144.24L99.4878 131.132L99.5129 131.208L101.511 125.665H96.2876L83.5994 157.611H89.9873L93.0122 149.2H93.0247L94.8159 144.24H94.7783Z" fill="white"/>
<path d="M100.674 134.433L104.194 144.24H97.1356L95.3507 149.2H106.004L109.028 157.611H115.798L103.467 126.686L100.674 134.433Z" fill="white"/>
<path d="M136.595 144.666C138.135 143.796 139.394 142.631 140.378 141.159C141.361 139.687 141.849 137.971 141.849 136.011C141.849 133.882 141.373 132.047 140.421 130.506C139.469 128.966 138.11 127.776 136.344 126.937C134.578 126.097 132.48 125.678 130.038 125.678H127.802V130.513H129.192C133.451 130.513 135.58 132.335 135.58 135.974C135.58 139.612 133.382 141.435 128.979 141.435H127.796V146.269H131.077L137.804 157.618H144.993L136.589 144.673L136.595 144.666Z" fill="white"/>
<path d="M125.63 125.665H119.536V157.605H125.63V125.665Z" fill="white"/>
<defs>
<linearGradient id="paint0_linear_340_25315" x1="69.3757" y1="7.25447" x2="53.083" y2="11.9942" gradientUnits="userSpaceOnUse">
<stop stop-color="#0070EB"/>
<stop offset="1" stop-color="white"/>
</linearGradient>
<linearGradient id="paint1_linear_340_25315" x1="38.597" y1="69.388" x2="52.2221" y2="83.6096" gradientUnits="userSpaceOnUse">
<stop stop-color="#0070EB"/>
<stop offset="1" stop-color="white"/>
</linearGradient>
<linearGradient id="paint2_linear_340_25315" x1="111.706" y1="67.2494" x2="116.448" y2="52.8375" gradientUnits="userSpaceOnUse">
<stop stop-color="#0070EB"/>
<stop offset="1" stop-color="white"/>
</linearGradient>
<linearGradient id="paint3_linear_340_25315" x1="76.7953" y1="15.5049" x2="98.6327" y2="20.5013" gradientUnits="userSpaceOnUse">
<stop stop-color="#0070EB"/>
<stop offset="1" stop-color="white"/>
</linearGradient>
<linearGradient id="paint4_linear_340_25315" x1="99.4759" y1="71.4115" x2="84.215" y2="87.8277" gradientUnits="userSpaceOnUse">
<stop stop-color="#0070EB"/>
<stop offset="1" stop-color="white"/>
</linearGradient>
<linearGradient id="paint5_linear_340_25315" x1="39.7191" y1="63.1119" x2="33.1334" y2="41.6943" gradientUnits="userSpaceOnUse">
<stop stop-color="#0070EB"/>
<stop offset="1" stop-color="white"/>
</linearGradient>
<linearGradient id="paint6_linear_340_25315" x1="81.57" y1="23.558" x2="74.6633" y2="30.4719" gradientUnits="userSpaceOnUse">
<stop stop-color="#0070EB"/>
<stop offset="1" stop-color="white"/>
</linearGradient>
<linearGradient id="paint7_linear_340_25315" x1="44.3132" y1="54.9266" x2="53.7506" y2="57.4612" gradientUnits="userSpaceOnUse">
<stop stop-color="#0070EB"/>
<stop offset="1" stop-color="white"/>
</linearGradient>
<linearGradient id="paint8_linear_340_25315" x1="90.0996" y1="71.5147" x2="87.572" y2="62.0818" gradientUnits="userSpaceOnUse">
<stop stop-color="#0070EB"/>
<stop offset="1" stop-color="white"/>
</linearGradient>
<linearGradient id="paint9_linear_340_25315" x1="75.7327" y1="63.1241" x2="79.8838" y2="57.3993" gradientUnits="userSpaceOnUse">
<stop stop-color="#0070EB"/>
<stop offset="1" stop-color="white"/>
</linearGradient>
<linearGradient id="paint10_linear_340_25315" x1="61.4607" y1="60.6421" x2="53.1685" y2="64.5949" gradientUnits="userSpaceOnUse">
<stop stop-color="#0070EB"/>
<stop offset="1" stop-color="white"/>
</linearGradient>
<linearGradient id="paint11_linear_340_25315" x1="58.4483" y1="46.8373" x2="61.0161" y2="52.1689" gradientUnits="userSpaceOnUse">
<stop stop-color="#0070EB"/>
<stop offset="1" stop-color="white"/>
</linearGradient>
<linearGradient id="paint12_linear_340_25315" x1="70.3859" y1="30.3707" x2="68.614" y2="24.2516" gradientUnits="userSpaceOnUse">
<stop stop-color="#0070EB"/>
<stop offset="1" stop-color="white"/>
</linearGradient>
<linearGradient id="paint13_linear_340_25315" x1="89.5357" y1="58.4007" x2="94.6698" y2="59.5813" gradientUnits="userSpaceOnUse">
<stop stop-color="#0070EB"/>
<stop offset="1" stop-color="white"/>
</linearGradient>
<linearGradient id="paint14_linear_340_25315" x1="81.483" y1="41.0513" x2="74.9712" y2="39.8706" gradientUnits="userSpaceOnUse">
<stop stop-color="#0070EB"/>
<stop offset="1" stop-color="white"/>
</linearGradient>
</defs>
</svg>
