<svg width="188" height="60" viewBox="0 0 188 60" fill="none" xmlns="http://www.w3.org/2000/svg">
<g clip-path="url(#clip0_252_12026)">
<path d="M59.923 27.965C58.8 11.433 44.49 -1.05299 27.963 0.0700052C19.73 0.631005 12.5 4.46601 7.45403 10.211L7.43903 10.201C7.40303 10.247 7.37203 10.293 7.34103 10.339C2.33003 16.12 -0.489967 23.801 0.0700328 32.036C0.122033 32.822 0.214033 33.592 0.327033 34.356C0.327033 34.393 0.337033 34.423 0.342033 34.459C0.419033 34.962 0.507033 35.466 0.604033 35.959C0.695979 36.4147 0.798674 36.8682 0.912033 37.319C4.37803 51.135 17.321 60.92 32.035 59.919C48.562 58.795 61.053 44.486 59.929 27.955L59.923 27.965ZM53.393 28.411C53.532 30.445 53.403 32.437 53.039 34.357C53.039 34.347 53.029 34.337 53.029 34.326C50.851 29.012 46.549 25.172 42.77 23.051C43.535 14.046 40.48 10.247 37.02 9.631C36.3496 9.50506 35.6605 9.51749 34.995 9.66755C34.3296 9.8176 33.7018 10.1021 33.1503 10.5036C32.5988 10.9051 32.1352 11.415 31.788 12.0022C31.4407 12.5894 31.2172 13.2413 31.131 13.918C31.0468 14.5708 31.0921 15.2338 31.2644 15.869C31.4367 16.5043 31.7326 17.0993 32.1352 17.62C32.5378 18.1407 33.0391 18.5769 33.6105 18.9037C34.1819 19.2304 34.8121 19.4412 35.465 19.524C35.706 19.555 35.942 19.565 36.173 19.56C36.1899 19.8814 36.1985 20.2032 36.199 20.525C33 19.735 30.012 19.575 27.286 19.822C26.2609 19.8893 25.2408 20.0178 24.231 20.207C24.571 17.167 25.715 13.748 27.928 11.253C30.068 8.83501 33.252 7.45401 36.722 7.80801C37.38 7.87501 38.083 8.039 38.714 8.25C38.745 8.26 38.776 8.27 38.802 8.275C46.842 11.551 52.762 19.185 53.388 28.411H53.393ZM32.482 32.991C32.482 32.991 32.482 32.996 32.477 33.001C31.7186 34.091 30.8591 35.1072 29.91 36.036C28.4727 34.5177 27.2558 32.8049 26.295 30.948C26.249 30.85 26.198 30.763 26.151 30.665V30.655C25.588 29.4516 25.1378 28.1985 24.806 26.912C26.936 26.409 29.026 26.224 31.024 26.322L31.342 26.337H31.352C32.605 26.44 33.909 26.671 35.259 27.041C34.6323 29.1482 33.6983 31.1514 32.487 32.986L32.482 32.991ZM22.234 7.87001L22.219 7.89001C18.702 12.429 17.531 18.071 17.583 22.404C9.39903 26.244 7.64303 30.788 8.83403 34.094C8.86403 34.187 8.90103 34.274 8.93703 34.362C9.45015 35.5877 10.4289 36.5596 11.6583 37.064C12.8876 37.5684 14.2669 37.5641 15.493 37.052C16.7187 36.5389 17.6906 35.5601 18.195 34.3308C18.6994 33.1015 18.6951 31.7222 18.183 30.496C18.0898 30.2783 17.9819 30.0671 17.86 29.864C18.117 29.694 18.394 29.526 18.692 29.351C19.605 32.519 20.956 35.194 22.532 37.432C23.102 38.279 23.718 39.095 24.39 39.881C21.587 41.108 18.055 41.827 14.784 41.159C11.622 40.513 8.83403 38.449 7.40203 35.265C7.12771 34.6406 6.92119 33.9885 6.78603 33.32C6.7016 32.7458 6.63822 32.1688 6.59603 31.59C5.86603 20.844 12.531 11.279 22.234 7.87001ZM31.588 53.394C25.207 53.83 19.241 51.654 14.733 47.782C20.422 48.558 25.895 46.75 29.623 44.538C37.041 49.708 41.857 48.958 44.126 46.273C44.5706 45.7548 44.9045 45.1512 45.1073 44.4992C45.3102 43.8473 45.3776 43.1608 45.3055 42.4818C45.2334 41.8029 45.0233 41.1459 44.688 40.5511C44.3528 39.9563 43.8995 39.4363 43.356 39.023C42.8326 38.6239 42.2356 38.3319 41.5992 38.1637C40.9628 37.9955 40.2995 37.9543 39.6472 38.0425C38.9949 38.1307 38.3663 38.3466 37.7975 38.6779C37.2287 39.0091 36.7307 39.4492 36.332 39.973C36.189 40.163 36.06 40.369 35.947 40.574C35.675 40.435 35.387 40.281 35.095 40.112C37.1852 37.9556 38.8981 35.4632 40.162 32.739C40.6146 31.8169 41.0123 30.869 41.353 29.9C43.818 31.718 46.21 34.413 47.268 37.58C48.29 40.64 47.899 44.09 45.856 46.92C45.4524 47.4691 44.9911 47.9733 44.48 48.424L44.46 48.444C40.7681 51.352 36.2832 53.0758 31.594 53.389L31.588 53.394Z" fill="url(#paint0_linear_252_12026)"/>
<path style="mix-blend-mode:overlay" opacity="0.9" d="M37.02 9.62599C36.4572 9.51912 35.8801 9.51235 35.315 9.60599C38.186 11.166 40.275 15.515 39.177 24.099C38.8134 26.8907 37.9931 29.6036 36.749 32.129C35.6768 34.4335 34.2814 36.5734 32.605 38.484C33.3997 39.0818 34.2314 39.6289 35.095 40.122C37.1854 37.966 38.8986 35.4739 40.163 32.75C41.4101 30.2257 42.2305 27.5123 42.591 24.72C43.901 14.503 40.687 10.283 37.021 9.62999L37.02 9.62599Z" fill="url(#paint1_radial_252_12026)"/>
<g style="mix-blend-mode:overlay" opacity="0.8">
<path d="M39.176 24.094C40.275 15.514 38.185 11.161 35.315 9.59998C35.202 9.61498 35.095 9.64098 34.981 9.66698C37.79 11.284 39.812 15.627 38.729 24.094C38.3655 26.8857 37.5452 29.5985 36.301 32.124C35.2676 34.347 33.932 36.4166 32.332 38.274C32.424 38.346 32.512 38.413 32.604 38.479C34.279 36.5672 35.674 34.4271 36.747 32.123C37.9945 29.5988 38.8153 26.8864 39.176 24.094Z" fill="white"/>
</g>
<path style="mix-blend-mode:overlay" opacity="0.5" d="M28.2659 43.557C27.9939 43.352 27.7369 43.136 27.4759 42.92C23.2399 44.687 17.3709 45.795 11.5389 44.44C12.4887 45.6565 13.5566 46.7759 14.7269 47.782C20.4159 48.558 25.8889 46.75 29.6169 44.538C29.1588 44.2179 28.7067 43.8892 28.2609 43.552L28.2659 43.557Z" fill="url(#paint2_radial_252_12026)"/>
<path style="mix-blend-mode:overlay" opacity="0.6" d="M27.48 42.92C27.352 42.812 27.219 42.705 27.096 42.597C22.829 44.301 16.93 45.323 11.113 43.87C11.257 44.06 11.401 44.255 11.544 44.44C17.372 45.795 23.244 44.687 27.48 42.92Z" fill="url(#paint3_linear_252_12026)"/>
<path style="mix-blend-mode:overlay" opacity="0.9" d="M8.83902 34.1C8.86902 34.192 8.90602 34.28 8.94202 34.367C9.13202 34.819 9.37802 35.224 9.67602 35.589C9.59402 32.324 12.315 28.334 20.293 24.997C22.8923 23.9159 25.6519 23.2706 28.461 23.087C30.9937 22.8611 33.5456 22.9995 36.039 23.498C36.168 22.42 36.219 21.414 36.209 20.525C33.2969 19.7919 30.2821 19.5542 27.291 19.822C24.4816 20.006 21.7217 20.6513 19.122 21.732C9.62002 25.706 7.57102 30.599 8.84002 34.105V34.1H8.83902Z" fill="url(#paint4_radial_252_12026)"/>
<g style="mix-blend-mode:overlay" opacity="0.8">
<path d="M20.293 25.002C12.315 28.34 9.59303 32.329 9.67603 35.594C9.74803 35.681 9.82503 35.764 9.90203 35.846C9.89603 32.606 12.648 28.684 20.519 25.387C23.1183 24.306 25.8779 23.6606 28.687 23.477C31.129 23.261 33.5891 23.3822 35.998 23.837C36.0142 23.7243 36.0279 23.6113 36.039 23.498C33.5453 23.0025 30.9937 22.8644 28.461 23.088C25.652 23.2722 22.8924 23.9175 20.293 24.998V25.002Z" fill="white"/>
</g>
<path style="mix-blend-mode:overlay" opacity="0.4" d="M42.601 24.715C42.561 25.054 42.504 25.382 42.447 25.716C46.092 28.499 49.989 33.032 51.735 38.756C52.3121 37.3237 52.7472 35.8383 53.034 34.321C50.862 29.007 46.56 25.171 42.781 23.051C42.735 23.591 42.678 24.14 42.606 24.715H42.601Z" fill="url(#paint5_radial_252_12026)"/>
<path style="mix-blend-mode:overlay" opacity="0.5" d="M42.447 25.716C42.416 25.88 42.39 26.05 42.359 26.214C45.969 29.058 49.804 33.654 51.452 39.419C51.549 39.199 51.642 38.977 51.729 38.757C49.984 33.032 46.092 28.504 42.441 25.716H42.447Z" fill="url(#paint6_linear_252_12026)"/>
<path style="mix-blend-mode:overlay" opacity="0.9" d="M44.126 46.268C44.497 45.8309 44.7921 45.3347 44.999 44.8C42.211 46.504 37.399 46.14 30.515 40.897C28.2772 39.1876 26.3377 37.1197 24.775 34.777C23.313 32.6972 22.1562 30.4187 21.34 28.011C20.344 28.437 19.446 28.899 18.676 29.351C19.499 32.2392 20.8004 34.9691 22.526 37.427C24.066 39.727 25.986 41.807 28.266 43.547C36.46 49.79 41.723 49.117 44.12 46.267H44.126V46.268Z" fill="url(#paint7_radial_252_12026)"/>
<g style="mix-blend-mode:overlay" opacity="0.8">
<path d="M30.52 40.898C37.399 46.139 42.215 46.504 45.002 44.799C45.043 44.692 45.079 44.584 45.11 44.481C42.307 46.109 37.532 45.682 30.745 40.513C28.5072 38.8036 26.5676 36.7356 25.005 34.393C23.5969 32.387 22.4723 30.1964 21.663 27.883C21.555 27.929 21.453 27.97 21.35 28.016C22.1658 30.424 23.3222 32.7028 24.784 34.783C26.324 37.083 28.244 39.163 30.524 40.903L30.519 40.898H30.52Z" fill="white"/>
</g>
<path style="mix-blend-mode:overlay" opacity="0.3" d="M19.117 21.722C19.43 21.593 19.743 21.475 20.061 21.357C20.647 16.808 22.623 11.166 26.711 6.797C25.181 7.017 23.676 7.377 22.218 7.885C18.7 12.424 17.53 18.066 17.582 22.4C18.069 22.17 18.578 21.943 19.112 21.723L19.117 21.722Z" fill="url(#paint8_radial_252_12026)"/>
<path style="mix-blend-mode:overlay" opacity="0.4" d="M20.0601 21.357C20.2201 21.301 20.3741 21.239 20.5331 21.183C21.1901 16.633 23.2541 11.017 27.4181 6.70398C27.1821 6.72998 26.9451 6.76098 26.7091 6.79198C22.6221 11.166 20.6461 16.803 20.0611 21.352V21.357H20.0601Z" fill="url(#paint9_linear_252_12026)"/>
<path style="mix-blend-mode:multiply" opacity="0.4" d="M27.963 0.0709751C19.728 0.630975 12.5 4.46598 7.45297 10.211L7.33997 10.339C8.31997 11.315 11.534 13.235 12.833 14.036C15.4215 11.2473 18.6502 9.13101 22.24 7.86998C22.492 7.54098 22.758 7.21798 23.036 6.90498C26.424 3.07998 31.05 1.06198 36.42 1.06198C37.016 1.06198 38.233 1.15998 38.258 1.15998C34.9165 0.198752 31.4326 -0.170149 27.964 0.0699751L27.963 0.0709751Z" fill="url(#paint10_linear_252_12026)"/>
<path style="mix-blend-mode:multiply" opacity="0.4" d="M31.588 53.399C25.207 53.835 19.241 51.659 14.733 47.788C14.3096 47.7327 13.8884 47.6623 13.47 47.577C8.46399 46.555 4.39799 43.557 1.71799 38.911C1.42289 38.3976 1.15388 37.8696 0.911987 37.329C4.37799 51.145 17.321 60.931 32.03 59.929C32.097 58.415 31.65 54.899 31.583 53.399H31.588Z" fill="url(#paint11_linear_252_12026)"/>
<path style="mix-blend-mode:multiply" opacity="0.4" d="M59.9241 27.965C59.0001 27.872 54.5021 28.227 53.3941 28.411C53.5321 30.445 53.4041 32.437 53.0391 34.357C53.1931 34.737 53.3421 35.127 53.4751 35.522C55.0931 40.369 54.5281 45.385 51.8481 50.036C51.5514 50.5484 51.2293 51.0457 50.8831 51.526C50.8831 51.526 50.8981 51.515 50.9031 51.505C56.9981 45.575 60.5451 37.114 59.9241 27.97V27.965Z" fill="url(#paint12_linear_252_12026)"/>
<path style="mix-blend-mode:multiply" opacity="0.5" d="M36.728 7.80302C37.385 7.87002 38.088 8.03402 38.72 8.24502C38.75 8.25502 38.782 8.26502 38.807 8.27002C41.3824 9.32117 43.7515 10.8196 45.805 12.696C45.805 12.696 45.815 12.701 45.82 12.706C46.806 11.582 48.7 10.345 48.7 10.345C48.7 10.345 45.8 7.37702 41.359 6.45302C38.253 5.80602 31.245 5.18502 26.824 12.706L26.865 12.666C27.194 12.172 27.538 11.69 27.933 11.248C30.074 8.83002 33.257 7.44802 36.728 7.80302Z" fill="url(#paint13_linear_252_12026)"/>
<path style="mix-blend-mode:multiply" opacity="0.5" d="M45.856 46.925C45.4524 47.4741 44.9911 47.9783 44.48 48.429C44.46 48.449 44.434 48.47 44.413 48.491C42.2149 50.1945 39.7331 51.4962 37.082 52.336C37.077 52.336 37.072 52.336 37.066 52.341C37.549 53.758 37.672 56.017 37.672 56.017C37.672 56.017 41.692 54.991 44.712 51.607C46.822 49.24 50.867 43.48 46.564 35.892C46.564 35.892 46.57 35.917 46.58 35.948C46.847 36.478 47.088 37.021 47.273 37.581C48.295 40.641 47.904 44.091 45.861 46.92L45.856 46.925Z" fill="url(#paint14_linear_252_12026)"/>
<path style="mix-blend-mode:multiply" opacity="0.5" d="M7.41303 35.276C7.13829 34.6513 6.93144 33.9989 6.79603 33.33C6.79103 33.3 6.78103 33.268 6.77603 33.237C6.39603 30.47 6.51903 27.667 7.11003 24.967V24.951C5.64103 24.663 3.62403 23.637 3.62403 23.637C3.62403 23.637 2.50403 27.637 3.92703 31.939C4.92303 34.952 7.88503 41.334 16.607 41.401C16.607 41.401 16.582 41.395 16.551 41.385C15.961 41.349 15.371 41.288 14.791 41.17C11.628 40.523 8.84003 38.459 7.40703 35.276H7.41303Z" fill="url(#paint15_linear_252_12026)"/>
<path style="mix-blend-mode:multiply" opacity="0.6" d="M35.465 19.52C35.706 19.55 35.942 19.56 36.173 19.555C36.173 19.555 36.014 16.439 35.634 14.837C35.249 13.24 34.684 12.177 34.068 11.577C33.622 11.146 32.22 10.611 31.132 13.907C31.0476 14.5598 31.0928 15.2228 31.265 15.8581C31.4371 16.4934 31.7329 17.0885 32.1354 17.6093C32.5379 18.1301 33.0392 18.5664 33.6105 18.8933C34.1819 19.2201 34.8121 19.431 35.465 19.514V19.519V19.52Z" fill="url(#paint16_linear_252_12026)"/>
<path style="mix-blend-mode:multiply" opacity="0.5" d="M18.19 30.506C18.0964 30.2886 17.9881 30.0777 17.866 29.875C17.866 29.875 15.242 31.569 14.051 32.698C12.86 33.828 12.223 34.85 12.013 35.686C11.864 36.287 12.1 37.766 15.499 37.062C16.7247 36.5489 17.6965 35.5701 18.2009 34.3408C18.7053 33.1115 18.701 31.7322 18.189 30.506H18.19Z" fill="url(#paint17_linear_252_12026)"/>
<path style="mix-blend-mode:multiply" opacity="0.6" d="M36.338 39.968C36.194 40.158 36.066 40.364 35.953 40.568C35.953 40.568 38.731 41.991 40.307 42.458C41.883 42.926 43.084 42.967 43.911 42.73C44.507 42.561 45.667 41.611 43.361 39.024C42.8376 38.6251 42.2406 38.3332 41.6043 38.1651C40.9681 37.9969 40.3049 37.9558 39.6527 38.044C39.0005 38.1322 38.3721 38.3481 37.8033 38.6792C37.2346 39.0104 36.7367 39.4504 36.338 39.974V39.968Z" fill="url(#paint18_linear_252_12026)"/>
<path style="mix-blend-mode:multiply" opacity="0.3" d="M35.26 27.046C34.63 29.141 33.746 31.046 32.663 32.724C32.606 32.811 32.55 32.899 32.488 32.991C32.488 32.991 32.488 32.996 32.483 33.001C31.7245 34.091 30.8651 35.1072 29.916 36.036C30.604 36.765 31.343 37.473 32.16 38.146C33.0878 38.8758 34.0692 39.5346 35.096 40.117C37.1865 37.961 38.8997 35.4689 40.164 32.745C40.6163 31.8226 41.0136 30.8743 41.354 29.905C40.297 29.13 39.229 28.509 38.244 28.088C37.273 27.6719 36.2743 27.3237 35.255 27.046H35.261H35.26Z" fill="url(#paint19_linear_252_12026)"/>
<path style="mix-blend-mode:multiply" opacity="0.3" d="M14.734 47.788C20.422 48.563 25.895 46.756 29.623 44.543C29.1648 44.2229 28.7127 43.8942 28.267 43.557C26.8492 42.4724 25.5488 41.2424 24.387 39.887C21.583 41.113 18.051 41.832 14.78 41.164C11.618 40.518 8.83001 38.454 7.39701 35.271C7.12262 34.6463 6.9161 33.9939 6.78101 33.325C7.60801 39.126 10.534 44.188 14.729 47.787L14.734 47.788Z" fill="url(#paint20_linear_252_12026)"/>
<path style="mix-blend-mode:multiply" opacity="0.3" d="M29.915 36.035C28.4781 34.5169 27.2615 32.8045 26.301 30.948C26.255 30.85 26.203 30.763 26.157 30.665V30.655C25.594 29.4516 25.1438 28.1985 24.812 26.912C23.836 27.143 22.856 27.431 21.87 27.801C20.7754 28.2384 19.7148 28.7565 18.697 29.351C19.611 32.519 20.961 35.194 22.537 37.432C23.107 38.279 23.724 39.095 24.397 39.881C25.597 39.357 26.671 38.736 27.527 38.094C28.3703 37.4607 29.1698 36.7711 29.92 36.03L29.915 36.035Z" fill="url(#paint21_linear_252_12026)"/>
<path style="mix-blend-mode:multiply" opacity="0.3" d="M22.22 7.88999C18.703 12.429 17.532 18.071 17.584 22.404C18.0909 22.166 18.6027 21.9386 19.119 21.722C20.7647 21.0345 22.4786 20.5233 24.232 20.197C24.572 17.157 25.716 13.738 27.929 11.243C30.069 8.82499 33.253 7.44299 36.724 7.79799C37.381 7.86499 38.084 8.02899 38.716 8.23999C38.746 8.24999 38.777 8.25999 38.803 8.26499C35.5086 6.92068 31.9496 6.35004 28.4 6.59699C26.244 6.74599 24.18 7.18199 22.229 7.86999C22.224 7.87499 22.219 7.88499 22.214 7.88999H22.22Z" fill="url(#paint22_linear_252_12026)"/>
<path style="mix-blend-mode:multiply" opacity="0.3" d="M53.034 34.316C50.858 29.002 46.555 25.161 42.776 23.041C42.73 23.581 42.674 24.135 42.596 24.715C42.3669 26.4836 41.9523 28.2232 41.359 29.905C43.824 31.723 46.216 34.418 47.274 37.586C48.295 40.646 47.905 44.096 45.862 46.925C45.4584 47.4741 44.9971 47.9783 44.486 48.429L44.466 48.449C48.871 44.989 51.986 39.999 53.055 34.352C53.055 34.342 53.045 34.331 53.045 34.321L53.034 34.316Z" fill="url(#paint23_linear_252_12026)"/>
<path style="mix-blend-mode:multiply" opacity="0.3" d="M24.216 23.811C24.3417 24.8569 24.5388 25.893 24.806 26.912C26.937 26.409 29.026 26.224 31.024 26.322L31.342 26.337H31.352C32.605 26.44 33.909 26.671 35.26 27.041C35.547 26.081 35.789 25.084 35.963 24.047C36.153 22.754 36.209 21.557 36.204 20.515C33.006 19.725 30.018 19.565 27.292 19.812C26.2669 19.8792 25.2468 20.0078 24.237 20.197C24.093 21.501 24.087 22.738 24.221 23.807L24.216 23.811Z" fill="url(#paint24_linear_252_12026)"/>
<path d="M150.427 22.281L146.566 33.027H146.597L150.448 22.343L150.427 22.281ZM81.892 22.281L78.032 33.027H78.047L81.907 22.317L81.892 22.281ZM82.857 24.966L85.752 33.027H79.946L78.482 37.093H87.231L89.711 43.988H95.261L85.147 18.616L82.857 24.966Z" fill="#020617"/>
<path d="M78.0309 33.027L81.8919 22.281L81.9079 22.317L83.535 17.799H79.2739L68.8669 43.99H74.0939L78.0469 33.028L78.0309 33.027ZM112.077 30.496C110.814 29.751 109.135 29.053 107.045 28.411C105.849 28.021 104.914 27.661 104.237 27.328C103.559 26.994 103.087 26.615 102.825 26.194C102.563 25.767 102.43 25.269 102.43 24.694C102.43 23.683 102.82 22.903 103.6 22.354C104.381 21.804 105.474 21.527 106.876 21.527C108.026 21.527 109.222 21.701 110.475 22.045C111.727 22.389 112.836 22.861 113.802 23.457L114.526 19.221C113.54 18.626 112.338 18.148 110.927 17.789C109.547 17.4379 108.13 17.2586 106.706 17.255C104.802 17.255 103.143 17.563 101.747 18.185C100.345 18.805 99.2619 19.689 98.4919 20.839C97.7219 21.989 97.3369 23.344 97.3369 24.905C97.3369 26.24 97.5929 27.39 98.1119 28.365C98.6299 29.341 99.4719 30.188 100.643 30.896C101.813 31.61 103.354 32.252 105.258 32.826C106.634 33.243 107.702 33.633 108.462 33.997C109.222 34.362 109.751 34.773 110.049 35.219C110.346 35.666 110.495 36.199 110.495 36.821C110.495 37.899 110.054 38.746 109.171 39.352C108.288 39.958 107.061 40.266 105.5 40.266C104.144 40.266 102.727 40.056 101.244 39.629C99.7599 39.203 98.4709 38.659 97.3669 37.992L96.8849 42.366C97.5259 42.802 98.3329 43.182 99.2979 43.501C100.263 43.824 101.3 44.076 102.414 44.261C103.528 44.445 104.637 44.538 105.741 44.538C108.842 44.538 111.276 43.829 113.047 42.418C114.813 41.005 115.701 39.049 115.701 36.544C115.701 35.214 115.414 34.059 114.839 33.084C114.264 32.108 113.345 31.245 112.082 30.501L112.077 30.496ZM139.57 17.8H117.416V22.07H139.57V17.8ZM131.128 23.858H125.855V43.983H131.128V23.858ZM146.567 33.027L150.428 22.281L150.448 22.343L152.086 17.799H147.804L137.402 43.989H142.639L145.119 37.093H145.129L146.598 33.027H146.567ZM151.397 24.987L154.283 33.027H148.496L147.033 37.093H155.766L158.246 43.988H163.796L153.687 18.636L151.397 24.987ZM180.846 33.376C182.093 32.6777 183.156 31.6921 183.947 30.501C184.753 29.294 185.154 27.888 185.154 26.281C185.154 24.535 184.764 23.031 183.983 21.768C183.203 20.505 182.089 19.529 180.641 18.841C179.193 18.153 177.473 17.809 175.471 17.809H173.638V21.773H174.778C178.269 21.773 180.014 23.267 180.014 26.25C180.014 29.233 178.212 30.727 174.603 30.727H173.633V34.69H176.323L181.837 43.993H187.731L180.841 33.381L180.846 33.376ZM171.857 17.8H166.861V43.983H171.857V17.8Z" fill="#020617"/>
</g>
<defs>
<linearGradient id="paint0_linear_252_12026" x1="9.52703" y1="50.473" x2="47.776" y2="12.219" gradientUnits="userSpaceOnUse">
<stop stop-color="#E6007A"/>
<stop offset="0.21" stop-color="#703AC2"/>
<stop offset="0.46" stop-color="#0070EB"/>
<stop offset="0.77" stop-color="#0297FB"/>
<stop offset="1" stop-color="#0AE2FF"/>
</linearGradient>
<radialGradient id="paint1_radial_252_12026" cx="0" cy="0" r="1" gradientUnits="userSpaceOnUse" gradientTransform="translate(38.55 23.924) scale(11.408)">
<stop stop-color="white"/>
<stop offset="1" stop-color="white" stop-opacity="0"/>
</radialGradient>
<radialGradient id="paint2_radial_252_12026" cx="0" cy="0" r="1" gradientUnits="userSpaceOnUse" gradientTransform="translate(21.6899 45.087) scale(6.63838 6.63839)">
<stop stop-color="white"/>
<stop offset="1" stop-color="white" stop-opacity="0"/>
</radialGradient>
<linearGradient id="paint3_linear_252_12026" x1="11.729" y1="43.963" x2="18.127" y2="43.875" gradientUnits="userSpaceOnUse">
<stop stop-color="white" stop-opacity="0"/>
<stop offset="1" stop-color="white"/>
</linearGradient>
<radialGradient id="paint4_radial_252_12026" cx="0" cy="0" r="1" gradientUnits="userSpaceOnUse" gradientTransform="translate(20.4642 25.627) rotate(-120) scale(11.408 11.408)">
<stop stop-color="white"/>
<stop offset="1" stop-color="white" stop-opacity="0"/>
</radialGradient>
<radialGradient id="paint5_radial_252_12026" cx="0" cy="0" r="1" gradientUnits="userSpaceOnUse" gradientTransform="translate(47.2227 29.648) rotate(-120) scale(6.63838)">
<stop stop-color="white"/>
<stop offset="1" stop-color="white" stop-opacity="0"/>
</radialGradient>
<linearGradient id="paint6_linear_252_12026" x1="51.227" y1="38.832" x2="47.952" y2="33.336" gradientUnits="userSpaceOnUse">
<stop stop-color="white" stop-opacity="0"/>
<stop offset="1" stop-color="white"/>
</linearGradient>
<radialGradient id="paint7_radial_252_12026" cx="0" cy="0" r="1" gradientUnits="userSpaceOnUse" gradientTransform="translate(30.4407 39.9111) rotate(120) scale(11.408)">
<stop stop-color="white"/>
<stop offset="1" stop-color="white" stop-opacity="0"/>
</radialGradient>
<radialGradient id="paint8_radial_252_12026" cx="0" cy="0" r="1" gradientUnits="userSpaceOnUse" gradientTransform="translate(21.0824 15.2601) rotate(120) scale(6.63838)">
<stop stop-color="white"/>
<stop offset="1" stop-color="white" stop-opacity="0"/>
</radialGradient>
<linearGradient id="paint9_linear_252_12026" x1="27.0321" y1="7.19298" x2="23.9131" y2="12.78" gradientUnits="userSpaceOnUse">
<stop stop-color="white" stop-opacity="0"/>
<stop offset="1" stop-color="white"/>
</linearGradient>
<linearGradient id="paint10_linear_252_12026" x1="28.426" y1="4.35298" x2="18.65" y2="7.19698" gradientUnits="userSpaceOnUse">
<stop stop-color="#231F20"/>
<stop offset="1" stop-color="white"/>
</linearGradient>
<linearGradient id="paint11_linear_252_12026" x1="9.95799" y1="41.627" x2="18.132" y2="50.159" gradientUnits="userSpaceOnUse">
<stop stop-color="#231F20"/>
<stop offset="1" stop-color="white"/>
</linearGradient>
<linearGradient id="paint12_linear_252_12026" x1="53.8251" y1="40.343" x2="56.6691" y2="31.697" gradientUnits="userSpaceOnUse">
<stop stop-color="#231F20"/>
<stop offset="1" stop-color="white"/>
</linearGradient>
<linearGradient id="paint13_linear_252_12026" x1="32.877" y1="9.30202" x2="45.98" y2="12.301" gradientUnits="userSpaceOnUse">
<stop stop-color="#231F20"/>
<stop offset="1" stop-color="white"/>
</linearGradient>
<linearGradient id="paint14_linear_252_12026" x1="46.486" y1="42.84" x2="37.331" y2="52.69" gradientUnits="userSpaceOnUse">
<stop stop-color="#231F20"/>
<stop offset="1" stop-color="white"/>
</linearGradient>
<linearGradient id="paint15_linear_252_12026" x1="10.633" y1="37.861" x2="6.68303" y2="25.012" gradientUnits="userSpaceOnUse">
<stop stop-color="#231F20"/>
<stop offset="1" stop-color="white"/>
</linearGradient>
<linearGradient id="paint16_linear_252_12026" x1="35.742" y1="14.133" x2="31.599" y2="18.282" gradientUnits="userSpaceOnUse">
<stop stop-color="#231F20"/>
<stop offset="1" stop-color="white"/>
</linearGradient>
<linearGradient id="paint17_linear_252_12026" x1="13.389" y1="32.951" x2="19.051" y2="34.472" gradientUnits="userSpaceOnUse">
<stop stop-color="#231F20"/>
<stop offset="1" stop-color="white"/>
</linearGradient>
<linearGradient id="paint18_linear_252_12026" x1="40.861" y1="42.903" x2="39.344" y2="37.243" gradientUnits="userSpaceOnUse">
<stop stop-color="#231F20"/>
<stop offset="1" stop-color="white"/>
</linearGradient>
<linearGradient id="paint19_linear_252_12026" x1="32.242" y1="37.868" x2="34.732" y2="34.434" gradientUnits="userSpaceOnUse">
<stop stop-color="#231F20"/>
<stop offset="1" stop-color="white"/>
</linearGradient>
<linearGradient id="paint20_linear_252_12026" x1="23.678" y1="36.38" x2="18.703" y2="38.752" gradientUnits="userSpaceOnUse">
<stop stop-color="#231F20"/>
<stop offset="1" stop-color="white"/>
</linearGradient>
<linearGradient id="paint21_linear_252_12026" x1="21.87" y1="28.098" x2="23.41" y2="31.297" gradientUnits="userSpaceOnUse">
<stop stop-color="#231F20"/>
<stop offset="1" stop-color="white"/>
</linearGradient>
<linearGradient id="paint22_linear_252_12026" x1="29.033" y1="18.22" x2="27.97" y2="14.549" gradientUnits="userSpaceOnUse">
<stop stop-color="#231F20"/>
<stop offset="1" stop-color="white"/>
</linearGradient>
<linearGradient id="paint23_linear_252_12026" x1="40.523" y1="35.034" x2="43.603" y2="35.743" gradientUnits="userSpaceOnUse">
<stop stop-color="#231F20"/>
<stop offset="1" stop-color="white"/>
</linearGradient>
<linearGradient id="paint24_linear_252_12026" x1="35.691" y1="24.628" x2="31.784" y2="23.919" gradientUnits="userSpaceOnUse">
<stop stop-color="#231F20"/>
<stop offset="1" stop-color="white"/>
</linearGradient>
<clipPath id="clip0_252_12026">
<rect width="188" height="60" fill="white"/>
</clipPath>
</defs>
</svg>
