<svg width="198" height="198" viewBox="0 0 198 198" fill="none" xmlns="http://www.w3.org/2000/svg">
<path d="M168.999 69.9997L140.002 98.9966L168.999 127.993L197.996 98.9966L168.999 69.9997Z" fill="black"/>
<path d="M28.9925 70.0009L-0.00439453 98.9978L28.9925 127.995L57.9893 98.9978L28.9925 70.0009Z" fill="black"/>
<path d="M98.9954 -0.00272611L69.9985 28.9941L98.9954 57.991L127.992 28.9941L98.9954 -0.00272611Z" fill="black"/>
<path d="M98.9964 140.004L69.9995 169L98.9964 197.997L127.993 169L98.9964 140.004Z" fill="black"/>
<path d="M168.999 28.9949H127.992V70.0026H168.999V28.9949Z" fill="black"/>
<path d="M70.0024 28.9949H28.9946V70.0026H70.0024V28.9949Z" fill="black"/>
<path d="M168.999 127.992H127.992V169H168.999V127.992Z" fill="black"/>
<path d="M70.0024 127.992H28.9946V169H70.0024V127.992Z" fill="black"/>
</svg>
