<svg width="231" height="231" viewBox="0 0 231 231" fill="none" xmlns="http://www.w3.org/2000/svg">
<path d="M230.705 107.664C226.377 44.0169 171.288 -4.05466 107.66 0.274153C75.9554 2.42868 48.1245 17.1941 28.6942 39.3125L28.6349 39.273C28.4966 39.4509 28.378 39.6288 28.2594 39.8067C8.96749 62.0635 -1.88419 91.6338 0.270331 123.339C0.467994 126.363 0.823786 129.328 1.25864 132.273C1.25864 132.412 1.29818 132.53 1.31794 132.669C1.61444 134.606 1.95046 136.543 2.32602 138.44C2.32602 138.48 2.32602 138.519 2.34579 138.539C2.70158 140.259 3.07714 141.979 3.512 143.678C16.8542 196.869 66.685 234.544 123.335 230.69C186.963 226.361 235.054 171.272 230.725 107.625L230.705 107.664ZM205.563 109.384C206.096 117.211 205.602 124.881 204.199 132.273C204.199 132.234 204.159 132.194 204.159 132.155C195.778 111.697 179.214 96.9114 164.666 88.748C167.612 54.0779 155.851 39.4509 142.528 37.0789C142.172 36.9999 141.797 36.9406 141.441 36.901C130.866 35.5372 121.2 43.0088 119.856 53.5838C118.492 64.1587 125.964 73.8244 136.539 75.1685C137.468 75.2871 138.377 75.3267 139.267 75.3069C139.326 76.4731 139.366 77.7184 139.366 79.023C127.051 75.979 115.547 75.3662 105.051 76.315C101.118 76.5719 97.2041 77.0661 93.2904 77.7975C94.595 66.0958 99.0028 52.9315 107.522 43.3251C115.765 34.0152 128.02 28.698 141.382 30.0619C143.912 30.3189 146.62 30.9514 149.051 31.7618C149.17 31.8014 149.288 31.8409 149.387 31.8607C180.341 44.4715 203.132 73.864 205.543 109.384H205.563ZM125.055 127.015C125.055 127.015 125.055 127.035 125.035 127.055C122.287 131.028 119.006 134.942 115.152 138.737C109.38 132.609 104.755 125.988 101.236 119.148C101.059 118.773 100.861 118.437 100.683 118.061C100.683 118.061 100.683 118.042 100.683 118.022C98.6273 113.653 96.8681 108.85 95.5042 103.612C103.707 101.675 111.752 100.964 119.441 101.339C119.856 101.359 120.252 101.379 120.667 101.398H120.706C125.529 101.794 130.55 102.683 135.748 104.106C133.317 112.171 129.917 119.504 125.747 125.968C125.529 126.304 125.312 126.64 125.075 126.996L125.055 127.015ZM85.6013 30.2991C85.6013 30.2991 85.5618 30.3584 85.542 30.3782C72.0021 47.8516 67.4954 69.5747 67.6931 86.2574C36.1856 101.043 29.4256 118.536 34.0113 131.265C34.1299 131.621 34.2683 131.957 34.4067 132.293C38.5181 142.117 49.8244 146.762 59.6482 142.651C69.472 138.539 74.1171 127.233 70.0057 117.409C69.6499 116.559 69.2151 115.749 68.7604 114.978C69.7488 114.326 70.8161 113.673 71.9626 113.001C75.481 125.197 80.6795 135.495 86.7477 144.113C88.9418 147.375 91.3137 150.518 93.9031 153.542C83.1107 158.266 69.5116 161.033 56.9204 158.464C44.7444 155.973 34.0113 148.027 28.4966 135.772C27.4489 133.44 26.6385 130.791 26.1246 128.281C25.8083 126.086 25.5514 123.873 25.3933 121.619C22.5864 80.2485 48.2431 43.4239 85.6013 30.2991V30.2991ZM121.615 205.567C97.046 207.247 74.0776 198.866 56.7228 183.962C78.6238 186.947 99.6946 179.989 114.045 171.47C142.607 191.374 161.148 188.489 169.885 178.151C170.122 177.874 170.359 177.578 170.576 177.281C177.04 168.801 175.399 156.704 166.92 150.241C158.44 143.777 146.343 145.418 139.879 153.898C139.326 154.629 138.832 155.42 138.397 156.21C137.349 155.677 136.242 155.084 135.116 154.431C143.932 145.279 150.197 135.614 154.625 126.047C156.365 122.509 157.887 118.872 159.211 115.116C168.699 122.113 177.91 132.491 181.982 144.687C185.915 156.467 184.413 169.75 176.546 180.641C175.063 182.697 173.166 184.733 171.249 186.433C171.229 186.453 171.189 186.492 171.169 186.512C157.412 197.324 140.374 204.282 121.635 205.547L121.615 205.567Z" fill="url(#paint0_linear_649_555)"/>
<path style="mix-blend-mode:overlay" opacity="0.9" d="M142.532 37.0591C142.177 36.9801 141.801 36.9208 141.445 36.8812C139.568 36.6441 137.729 36.6836 135.97 36.9801C147.019 42.989 155.064 59.7311 150.834 92.7802C149.431 103.731 146.169 114.128 141.485 123.695C137.67 131.917 132.491 140.2 125.534 148.165C128.874 150.676 132.135 152.771 135.12 154.471C143.936 145.319 150.202 135.653 154.629 126.086C159.334 116.539 162.575 106.122 163.979 95.172C169.019 55.8371 156.646 39.5892 142.532 37.0789V37.0591Z" fill="url(#paint1_radial_649_555)"/>
<g style="mix-blend-mode:overlay" opacity="0.8">
<path d="M150.837 92.7606C155.067 59.7312 147.022 42.9694 135.973 36.9604C135.538 37.0197 135.123 37.1186 134.688 37.2174C145.5 43.4438 153.288 60.166 149.117 92.7606C147.714 103.711 144.453 114.108 139.768 123.675C136.092 131.621 131.11 139.626 124.489 147.355C124.845 147.632 125.181 147.889 125.536 148.146C132.494 140.18 137.673 131.878 141.488 123.675C146.192 114.128 149.434 103.711 150.837 92.7606V92.7606Z" fill="white"/>
</g>
<path style="mix-blend-mode:overlay" opacity="0.5" d="M108.836 167.695C107.788 166.904 106.8 166.074 105.792 165.244C89.4847 172.043 66.8919 176.313 44.4374 171.094C48.1139 175.779 52.2055 180.108 56.7122 183.962C78.6133 186.947 99.6841 179.989 114.034 171.47C112.334 170.284 110.595 169.019 108.816 167.675L108.836 167.695Z" fill="url(#paint2_radial_649_555)"/>
<path style="mix-blend-mode:overlay" opacity="0.6" d="M105.81 165.243C105.316 164.828 104.802 164.413 104.327 163.998C87.9015 170.56 65.19 174.494 42.7949 168.9C43.3483 169.631 43.9018 170.383 44.4552 171.094C66.8899 176.312 89.5025 172.043 105.81 165.243V165.243Z" fill="url(#paint3_linear_649_555)"/>
<path style="mix-blend-mode:overlay" opacity="0.9" d="M34.0299 131.285C34.1485 131.641 34.2869 131.977 34.4252 132.313C35.1566 134.052 36.1054 135.614 37.2518 137.017C36.9355 124.446 47.4117 109.087 78.1284 96.2393C88.3081 91.9895 98.9423 89.5978 109.577 88.8863C118.59 88.0758 128.374 88.4119 138.752 90.4675C139.246 86.3166 139.443 82.4424 139.404 79.0229C127.089 75.9591 115.566 75.3661 105.07 76.3149C94.4554 77.0265 83.8014 79.4182 73.6217 83.668C37.0344 98.967 29.1476 117.804 34.0299 131.305V131.285Z" fill="url(#paint4_radial_649_555)"/>
<g style="mix-blend-mode:overlay" opacity="0.8">
<path d="M78.1278 96.2592C47.411 109.107 36.9349 124.466 37.2511 137.037C37.5279 137.373 37.8243 137.689 38.1208 138.006C38.1011 125.533 48.6958 110.432 78.9975 97.7417C89.1771 93.4919 99.8114 91.1002 110.446 90.3886C119.163 89.598 128.591 89.9142 138.593 91.7722C138.652 91.3374 138.711 90.9025 138.751 90.4677C128.374 88.4317 118.589 88.076 109.576 88.8864C98.9614 89.598 88.3074 91.9897 78.1278 96.2394V96.2592Z" fill="white"/>
</g>
<path style="mix-blend-mode:overlay" opacity="0.4" d="M164.015 95.1522C163.857 96.4568 163.639 97.7218 163.422 99.0066C177.456 109.72 192.458 127.174 199.179 149.213C201.393 143.678 203.093 137.966 204.18 132.135C195.819 111.677 179.255 96.9114 164.707 88.7479C164.529 90.8234 164.311 92.9384 164.035 95.1522H164.015Z" fill="url(#paint5_radial_649_555)"/>
<path style="mix-blend-mode:overlay" opacity="0.5" d="M163.418 99.0067C163.299 99.6392 163.2 100.292 163.082 100.924C176.978 111.875 191.743 129.565 198.088 151.763C198.463 150.913 198.819 150.063 199.155 149.213C192.435 127.174 177.452 109.74 163.398 99.0067H163.418Z" fill="url(#paint6_linear_649_555)"/>
<path style="mix-blend-mode:overlay" opacity="0.9" d="M169.879 178.131C170.116 177.854 170.354 177.558 170.571 177.261C171.718 175.759 172.587 174.138 173.24 172.478C162.506 179.04 143.985 177.637 117.479 157.456C108.703 150.775 101.31 142.749 95.3802 133.894C90.1619 126.482 85.5761 117.864 82.1566 107.842C78.3219 109.483 74.8628 111.262 71.8979 113.001C75.4163 125.197 80.6543 135.475 86.7226 144.094C92.6525 152.949 100.045 160.954 108.821 167.655C140.368 191.691 160.629 189.101 169.859 178.131H169.879Z" fill="url(#paint7_radial_649_555)"/>
<g style="mix-blend-mode:overlay" opacity="0.8">
<path d="M117.51 157.456C143.997 177.637 162.538 179.04 173.271 172.478C173.429 172.063 173.568 171.648 173.686 171.252C162.894 177.518 144.511 175.878 118.38 155.973C109.604 149.292 102.211 141.267 96.2815 132.412C91.2411 125.256 86.7937 116.935 83.4136 107.348C82.9985 107.526 82.6032 107.684 82.2079 107.862C85.6274 117.883 90.2132 126.502 95.4315 133.914C101.361 142.769 108.754 150.775 117.53 157.475L117.51 157.456Z" fill="white"/>
</g>
<path style="mix-blend-mode:overlay" opacity="0.3" d="M73.6036 83.6285C74.8093 83.1343 76.015 82.6797 77.2406 82.2251C79.4939 64.7122 87.1039 42.9891 102.838 26.168C96.9475 27.0179 91.156 28.4016 85.5424 30.3584C72.0025 47.8318 67.4958 69.5549 67.6934 86.2376C69.5712 85.3482 71.5281 84.4785 73.5838 83.6285H73.6036Z" fill="url(#paint8_radial_649_555)"/>
<path style="mix-blend-mode:overlay" opacity="0.4" d="M77.245 82.2249C77.8577 82.0075 78.4507 81.7703 79.0635 81.5529C81.5936 64.04 89.5396 42.4157 105.57 25.812C104.661 25.9108 103.752 26.0294 102.842 26.148C87.1084 42.9889 79.4983 64.6923 77.245 82.2052V82.2249Z" fill="url(#paint9_linear_649_555)"/>
<path style="mix-blend-mode:multiply" opacity="0.4" d="M107.664 0.274163C75.9591 2.42869 48.1282 17.1941 28.698 39.3125C28.5596 39.4707 28.4015 39.6486 28.2631 39.8067C32.0385 43.5623 44.4122 50.9549 49.413 54.0384C59.2566 43.4635 71.6105 35.2012 85.6248 30.2991C86.5934 29.0341 87.6212 27.7888 88.6886 26.5831C101.734 11.8572 119.544 4.08905 140.219 4.08905C142.512 4.08905 147.197 4.46461 147.296 4.46461C134.764 0.867151 121.422 -0.674618 107.664 0.274163Z" fill="url(#paint10_linear_649_555)"/>
<path style="mix-blend-mode:multiply" opacity="0.4" d="M121.623 205.586C97.0536 207.266 74.0852 198.886 56.7304 183.982C55.1096 183.764 53.4888 183.507 51.8679 183.171C32.5958 179.238 16.9409 167.694 6.62296 149.806C5.47651 147.81 4.44867 145.793 3.51965 143.718C16.8619 196.909 66.6926 234.583 123.323 230.729C123.58 224.898 121.86 211.358 121.603 205.586H121.623Z" fill="url(#paint11_linear_649_555)"/>
<path style="mix-blend-mode:multiply" opacity="0.4" d="M230.71 107.664C227.152 107.309 209.836 108.673 205.567 109.384C206.101 117.212 205.606 124.881 204.203 132.273C204.796 133.736 205.369 135.238 205.883 136.76C212.11 155.42 209.935 174.731 199.617 192.64C198.491 194.597 197.265 196.474 195.98 198.273C195.96 198.313 195.921 198.352 195.901 198.372C195.901 198.372 195.96 198.332 195.98 198.293C219.443 175.463 233.101 142.888 230.71 107.684V107.664Z" fill="url(#paint12_linear_649_555)"/>
<path style="mix-blend-mode:multiply" opacity="0.5" d="M141.413 30.0423C143.943 30.2993 146.651 30.9318 149.082 31.7422C149.201 31.7817 149.32 31.8213 149.419 31.841C159.381 35.8931 168.493 41.7044 176.36 48.8795C176.36 48.8795 176.399 48.8993 176.419 48.9191C180.214 44.5903 187.508 39.8266 187.508 39.8266C187.508 39.8266 176.34 28.4017 159.242 24.8438C147.284 22.3532 120.303 19.9615 103.284 48.9191C103.284 48.9191 103.343 48.8598 103.442 48.7609C104.707 46.8634 106.032 45.0054 107.554 43.3055C115.796 33.9955 128.051 28.6784 141.413 30.0423V30.0423Z" fill="url(#paint13_linear_649_555)"/>
<path style="mix-blend-mode:multiply" opacity="0.5" d="M176.554 180.661C175.072 182.717 173.174 184.753 171.257 186.453C171.178 186.532 171.079 186.611 171 186.69C162.5 193.292 152.914 198.273 142.774 201.495C142.754 201.495 142.734 201.495 142.714 201.514C144.572 206.97 145.047 215.667 145.047 215.667C145.047 215.667 160.524 211.714 172.146 198.688C180.27 189.576 195.846 167.398 179.282 138.183C179.282 138.183 179.302 138.282 179.341 138.401C180.369 140.437 181.298 142.532 182.01 144.686C185.943 156.467 184.441 169.75 176.574 180.641L176.554 180.661Z" fill="url(#paint14_linear_649_555)"/>
<path style="mix-blend-mode:multiply" opacity="0.5" d="M28.544 135.811C27.4964 133.479 26.686 130.83 26.1721 128.32C26.1523 128.201 26.1128 128.083 26.093 127.964C24.6303 117.31 25.1047 106.518 27.3778 96.1208C27.3778 96.101 27.3778 96.0813 27.3778 96.0615C21.7247 94.9546 13.9565 91.0013 13.9565 91.0013C13.9565 91.0013 9.64746 106.399 15.1227 122.963C18.9574 134.566 30.3625 159.136 63.9454 159.393C63.9454 159.393 63.8466 159.373 63.728 159.333C61.4548 159.195 59.1817 158.958 56.9481 158.503C44.7721 156.013 34.039 148.067 28.5242 135.811H28.544Z" fill="url(#paint15_linear_649_555)"/>
<path style="mix-blend-mode:multiply" opacity="0.6" d="M136.533 75.1485C137.462 75.2671 138.371 75.3067 139.261 75.2869C139.261 75.2869 138.648 63.2888 137.185 57.1217C135.703 50.9744 133.529 46.8828 131.157 44.5701C129.437 42.9097 124.041 40.8541 119.85 53.544C118.486 64.119 125.958 73.7847 136.533 75.1288V75.1485Z" fill="url(#paint16_linear_649_555)"/>
<path style="mix-blend-mode:multiply" opacity="0.5" d="M70.0166 117.448C69.6608 116.598 69.2259 115.788 68.7713 115.017C68.7713 115.017 58.6708 121.54 54.085 125.889C49.4992 130.237 47.0482 134.171 46.2378 137.393C45.6645 139.705 46.5738 145.398 59.6591 142.69C69.4829 138.578 74.128 127.272 70.0166 117.448V117.448Z" fill="url(#paint17_linear_649_555)"/>
<path style="mix-blend-mode:multiply" opacity="0.6" d="M139.892 153.878C139.338 154.609 138.844 155.4 138.409 156.19C138.409 156.19 149.103 161.666 155.171 163.464C161.239 165.263 165.865 165.421 169.047 164.512C171.34 163.86 175.807 160.203 166.932 150.241C158.452 143.777 146.355 145.418 139.892 153.897V153.878Z" fill="url(#paint18_linear_649_555)"/>
<path style="mix-blend-mode:multiply" opacity="0.3" d="M135.753 104.126C133.322 112.19 129.922 119.524 125.752 125.987C125.534 126.323 125.317 126.659 125.08 127.015C125.08 127.015 125.08 127.035 125.06 127.055C122.312 131.028 119.031 134.941 115.177 138.737C117.825 141.543 120.672 144.271 123.815 146.861C127.768 149.964 131.622 152.474 135.121 154.451C143.937 145.299 150.203 135.633 154.63 126.066C156.37 122.528 157.892 118.891 159.216 115.136C155.144 112.151 151.033 109.759 147.238 108.138C143.324 106.458 139.489 105.154 135.734 104.126H135.753Z" fill="url(#paint19_linear_649_555)"/>
<path style="mix-blend-mode:multiply" opacity="0.3" d="M56.7316 183.982C78.6326 186.966 99.7035 180.009 114.054 171.489C112.354 170.303 110.614 169.038 108.835 167.694C103.301 163.464 98.3198 158.72 93.8922 153.561C83.0998 158.285 69.5006 161.053 56.9095 158.483C44.7335 155.993 34.0004 148.047 28.4856 135.791C27.438 133.459 26.6276 130.81 26.1136 128.3C29.296 150.636 40.5628 170.125 56.7118 183.982H56.7316Z" fill="url(#paint20_linear_649_555)"/>
<path style="mix-blend-mode:multiply" opacity="0.3" d="M115.184 138.737C109.412 132.609 104.787 125.987 101.269 119.148C101.091 118.773 100.893 118.437 100.715 118.061C100.715 118.061 100.715 118.041 100.715 118.022C98.6594 113.653 96.9003 108.85 95.5364 103.612C91.7808 104.502 88.0054 105.608 84.2103 107.032C79.5455 108.89 75.4538 110.985 71.9948 113.001C75.5131 125.197 80.7117 135.495 86.7799 144.113C88.974 147.375 91.3459 150.517 93.9353 153.542C98.5606 151.525 102.692 149.134 105.993 146.663C109.393 144.113 112.437 141.445 115.204 138.717L115.184 138.737Z" fill="url(#paint21_linear_649_555)"/>
<path style="mix-blend-mode:multiply" opacity="0.3" d="M85.5557 30.3781C72.0158 47.8515 67.5091 69.5746 67.7068 86.2573C69.5845 85.3678 71.5612 84.4981 73.6169 83.6284C80.0409 80.9402 86.6428 79.0031 93.3041 77.7578C94.6086 66.0562 99.0165 52.8919 107.536 43.2854C115.778 33.9755 128.033 28.6584 141.395 30.0223C143.925 30.2792 146.633 30.9118 149.065 31.7222C149.183 31.7617 149.302 31.8012 149.401 31.821C137.086 26.8004 123.487 24.4284 109.354 25.397C101.052 25.9702 93.1064 27.6503 85.5952 30.299C85.5755 30.3188 85.5557 30.3583 85.5359 30.3781H85.5557Z" fill="url(#paint22_linear_649_555)"/>
<path style="mix-blend-mode:multiply" opacity="0.3" d="M204.19 132.115C195.809 111.657 179.245 96.8716 164.697 88.7081C164.519 90.7836 164.301 92.9183 164.005 95.1519C163.115 102.05 161.494 108.731 159.241 115.136C168.729 122.133 177.94 132.51 182.012 144.706C185.945 156.487 184.443 169.77 176.576 180.661C175.094 182.716 173.196 184.752 171.279 186.452C171.259 186.472 171.219 186.512 171.2 186.531C188.159 173.209 200.157 153.996 204.269 132.253C204.269 132.214 204.229 132.174 204.229 132.135L204.19 132.115Z" fill="url(#paint23_linear_649_555)"/>
<path style="mix-blend-mode:multiply" opacity="0.3" d="M93.2385 91.6732C93.7524 95.9032 94.5233 99.8564 95.5116 103.612C103.715 101.675 111.759 100.963 119.449 101.339C119.864 101.359 120.259 101.378 120.674 101.398H120.714C125.537 101.793 130.557 102.683 135.756 104.106C136.863 100.41 137.792 96.5752 138.464 92.5824C139.195 87.6013 139.412 82.9958 139.393 78.9832C127.078 75.9392 115.574 75.3265 105.078 76.2753C101.145 76.5322 97.2313 77.0264 93.3175 77.7577C92.7641 82.7784 92.7443 87.542 93.2583 91.6534L93.2385 91.6732Z" fill="url(#paint24_linear_649_555)"/>
<defs>
<linearGradient id="paint0_linear_649_555" x1="36.6798" y1="194.32" x2="183.938" y2="47.0412" gradientUnits="userSpaceOnUse">
<stop stop-color="#E6007A"/>
<stop offset="0.21" stop-color="#703AC2"/>
<stop offset="0.46" stop-color="#0070EB"/>
<stop offset="0.77" stop-color="#0297FB"/>
<stop offset="1" stop-color="#0AE2FF"/>
</linearGradient>
<radialGradient id="paint1_radial_649_555" cx="0" cy="0" r="1" gradientUnits="userSpaceOnUse" gradientTransform="translate(148.423 92.1082) scale(43.9206 43.9206)">
<stop stop-color="white"/>
<stop offset="1" stop-color="white" stop-opacity="0"/>
</radialGradient>
<radialGradient id="paint2_radial_649_555" cx="0" cy="0" r="1" gradientUnits="userSpaceOnUse" gradientTransform="translate(83.5153 173.585) scale(25.5578 25.5578)">
<stop stop-color="white"/>
<stop offset="1" stop-color="white" stop-opacity="0"/>
</radialGradient>
<linearGradient id="paint3_linear_649_555" x1="45.1668" y1="169.256" x2="69.7956" y2="168.92" gradientUnits="userSpaceOnUse">
<stop stop-color="white" stop-opacity="0"/>
<stop offset="1" stop-color="white"/>
</linearGradient>
<radialGradient id="paint4_radial_649_555" cx="0" cy="0" r="1" gradientUnits="userSpaceOnUse" gradientTransform="translate(78.791 98.6689) rotate(-120) scale(43.9206 43.9206)">
<stop stop-color="white"/>
<stop offset="1" stop-color="white" stop-opacity="0"/>
</radialGradient>
<radialGradient id="paint5_radial_649_555" cx="0" cy="0" r="1" gradientUnits="userSpaceOnUse" gradientTransform="translate(181.81 114.146) rotate(-120) scale(25.5578 25.5578)">
<stop stop-color="white"/>
<stop offset="1" stop-color="white" stop-opacity="0"/>
</radialGradient>
<linearGradient id="paint6_linear_649_555" x1="197.221" y1="149.503" x2="184.615" y2="128.342" gradientUnits="userSpaceOnUse">
<stop stop-color="white" stop-opacity="0"/>
<stop offset="1" stop-color="white"/>
</linearGradient>
<radialGradient id="paint7_radial_649_555" cx="0" cy="0" r="1" gradientUnits="userSpaceOnUse" gradientTransform="translate(117.19 153.656) rotate(120) scale(43.9206 43.9206)">
<stop stop-color="white"/>
<stop offset="1" stop-color="white" stop-opacity="0"/>
</radialGradient>
<radialGradient id="paint8_radial_649_555" cx="0" cy="0" r="1" gradientUnits="userSpaceOnUse" gradientTransform="translate(81.1736 58.7488) rotate(120) scale(25.5578 25.5578)">
<stop stop-color="white"/>
<stop offset="1" stop-color="white" stop-opacity="0"/>
</radialGradient>
<linearGradient id="paint9_linear_649_555" x1="104.083" y1="27.694" x2="92.0768" y2="49.2011" gradientUnits="userSpaceOnUse">
<stop stop-color="white" stop-opacity="0"/>
<stop offset="1" stop-color="white"/>
</linearGradient>
<linearGradient id="paint10_linear_649_555" x1="109.443" y1="16.7592" x2="71.8082" y2="27.7097" gradientUnits="userSpaceOnUse">
<stop stop-color="#231F20"/>
<stop offset="1" stop-color="white"/>
</linearGradient>
<linearGradient id="paint11_linear_649_555" x1="38.3478" y1="160.262" x2="69.8157" y2="193.114" gradientUnits="userSpaceOnUse">
<stop stop-color="#231F20"/>
<stop offset="1" stop-color="white"/>
</linearGradient>
<linearGradient id="paint12_linear_649_555" x1="207.227" y1="155.321" x2="218.178" y2="122.035" gradientUnits="userSpaceOnUse">
<stop stop-color="#231F20"/>
<stop offset="1" stop-color="white"/>
</linearGradient>
<linearGradient id="paint13_linear_649_555" x1="126.588" y1="35.814" x2="177.032" y2="47.3575" gradientUnits="userSpaceOnUse">
<stop stop-color="#231F20"/>
<stop offset="1" stop-color="white"/>
</linearGradient>
<linearGradient id="paint14_linear_649_555" x1="178.979" y1="164.934" x2="143.733" y2="202.855" gradientUnits="userSpaceOnUse">
<stop stop-color="#231F20"/>
<stop offset="1" stop-color="white"/>
</linearGradient>
<linearGradient id="paint15_linear_649_555" x1="40.9413" y1="145.765" x2="25.7336" y2="96.2977" gradientUnits="userSpaceOnUse">
<stop stop-color="#231F20"/>
<stop offset="1" stop-color="white"/>
</linearGradient>
<linearGradient id="paint16_linear_649_555" x1="137.6" y1="54.4137" x2="121.649" y2="70.3849" gradientUnits="userSpaceOnUse">
<stop stop-color="#231F20"/>
<stop offset="1" stop-color="white"/>
</linearGradient>
<linearGradient id="paint17_linear_649_555" x1="51.5353" y1="126.862" x2="73.3352" y2="132.718" gradientUnits="userSpaceOnUse">
<stop stop-color="#231F20"/>
<stop offset="1" stop-color="white"/>
</linearGradient>
<linearGradient id="paint18_linear_649_555" x1="157.303" y1="165.176" x2="151.465" y2="143.386" gradientUnits="userSpaceOnUse">
<stop stop-color="#231F20"/>
<stop offset="1" stop-color="white"/>
</linearGradient>
<linearGradient id="paint19_linear_649_555" x1="124.131" y1="145.793" x2="133.718" y2="132.57" gradientUnits="userSpaceOnUse">
<stop stop-color="#231F20"/>
<stop offset="1" stop-color="white"/>
</linearGradient>
<linearGradient id="paint20_linear_649_555" x1="91.1644" y1="140.061" x2="72.0109" y2="149.193" gradientUnits="userSpaceOnUse">
<stop stop-color="#231F20"/>
<stop offset="1" stop-color="white"/>
</linearGradient>
<linearGradient id="paint21_linear_649_555" x1="84.2103" y1="108.178" x2="90.1402" y2="120.492" gradientUnits="userSpaceOnUse">
<stop stop-color="#231F20"/>
<stop offset="1" stop-color="white"/>
</linearGradient>
<linearGradient id="paint22_linear_649_555" x1="111.786" y1="70.1478" x2="107.694" y2="56.0149" gradientUnits="userSpaceOnUse">
<stop stop-color="#231F20"/>
<stop offset="1" stop-color="white"/>
</linearGradient>
<linearGradient id="paint23_linear_649_555" x1="156.019" y1="134.882" x2="167.879" y2="137.61" gradientUnits="userSpaceOnUse">
<stop stop-color="#231F20"/>
<stop offset="1" stop-color="white"/>
</linearGradient>
<linearGradient id="paint24_linear_649_555" x1="137.416" y1="94.816" x2="122.374" y2="92.0883" gradientUnits="userSpaceOnUse">
<stop stop-color="#231F20"/>
<stop offset="1" stop-color="white"/>
</linearGradient>
</defs>
</svg>
