<svg width="24" height="24" viewBox="0 0 24 24" fill="none" xmlns="http://www.w3.org/2000/svg">
<mask id="mask0_916_930" style="mask-type:luminance" maskUnits="userSpaceOnUse" x="0" y="0" width="24" height="24">
<path d="M24 0H0V24H24V0Z" fill="white"/>
</mask>
<g mask="url(#mask0_916_930)">
<path fill-rule="evenodd" clip-rule="evenodd" d="M22.5801 6.67767C21.7133 4.95111 20.4604 3.50716 18.9627 2.42163C16.9614 0.969782 14.5259 0.158203 12.0012 0.158203V2.12952C13.5414 2.12794 15.0714 2.49031 16.483 3.20951C16.948 3.44637 17.3885 3.71637 17.803 4.01635C18.6596 4.6353 19.4033 5.38293 20.0135 6.2332L22.5793 6.67689H22.5801V6.67767ZM23.2638 8.34427C24.0683 10.8192 24.013 13.3661 23.2638 15.6635C22.6812 17.4508 21.6785 19.0858 20.3333 20.4193L19.9622 17.8377C20.2725 17.4129 20.552 16.9606 20.7951 16.4829C21.032 16.0179 21.2293 15.5403 21.3888 15.054C22.0346 13.0827 22.0417 10.9645 21.388 8.95374L23.2638 8.34427ZM15.0525 21.3879C14.0514 21.7132 13.0235 21.8743 12.0012 21.875C10.9575 21.8758 9.91774 21.7093 8.91747 21.3769L6.57825 22.5272C8.23538 23.3813 10.093 23.8464 12.0012 23.8464C13.2138 23.8464 14.447 23.6593 15.6627 23.2645C16.877 22.8698 17.9838 22.2974 18.9635 21.5853L17.8046 19.9906C16.9772 20.5898 16.0519 21.0627 15.0525 21.3879ZM2.13037 11.9663C2.12721 13.0006 2.28827 14.0403 2.61748 15.0524C3.27118 17.0616 4.5209 18.7708 6.2009 19.9866L5.04194 21.5822C3.08642 20.1635 1.54458 18.1361 0.7409 15.6619C0.136164 13.8027 0.0177426 11.9016 0.313795 10.0969L2.13037 11.9663ZM6.19854 4.01635C4.95275 4.92031 3.92957 6.11162 3.21038 7.52241C2.97275 7.98821 2.77539 8.46663 2.6159 8.95374L0.74011 8.34427C1.5059 5.994 2.99723 3.90504 5.03959 2.42163C6.02012 1.70873 7.12775 1.13478 8.34353 0.740046C8.96089 0.53952 9.5822 0.393468 10.2035 0.29715L8.98458 2.60794L8.9538 2.61741C7.95274 2.94268 7.0267 3.41557 6.19854 4.01635Z" fill="url(#paint0_linear_916_930)"/>
<path d="M23.2147 8.44292C23.9646 10.8027 23.9559 13.2887 23.1902 15.639C22.6273 17.3656 21.6611 18.9564 20.3901 20.2511L20.0459 17.8582C20.3538 17.4334 20.6301 16.9834 20.8661 16.5192C21.1014 16.0574 21.3027 15.5726 21.4645 15.0792C22.1119 13.1016 22.1198 11.0024 21.4874 9.00502L23.1989 8.39793M23.2652 8.34424L21.388 8.9545C22.0416 10.9653 22.0345 13.0834 21.3888 15.0548C21.2293 15.5411 21.0319 16.0187 20.7951 16.4837C20.552 16.9613 20.2725 17.4137 19.9623 17.8384L20.3333 20.42C21.6785 19.0866 22.681 17.4516 23.2636 15.6642C24.0128 13.3661 24.068 10.8192 23.2636 8.34424H23.2652Z" fill="#2A3039"/>
<path d="M17.7871 20.1011L18.8916 21.5412C17.9119 22.2422 16.7916 22.8154 15.6382 23.1904C14.4579 23.574 13.2342 23.7682 12.0011 23.7682C10.1932 23.7682 8.38292 23.3403 6.75503 22.5288L8.92291 21.463C9.91845 21.7891 10.9511 21.9548 11.9924 21.9548H12.0011C13.0416 21.954 14.0766 21.7883 15.0769 21.4638C16.0511 21.1472 16.9621 20.6893 17.7871 20.1019M17.8045 19.9922C16.9771 20.5914 16.0519 21.0643 15.0524 21.3896C14.0514 21.7148 13.0234 21.8759 12.0011 21.8767H11.9924C10.9511 21.8767 9.91531 21.7093 8.91661 21.3785L6.57739 22.5288C8.23449 23.383 10.0913 23.848 12.0003 23.848C13.2129 23.848 14.4461 23.6609 15.6619 23.2662C16.8761 22.8714 17.9829 22.2991 18.9627 21.5869L17.8037 19.9922H17.8045Z" fill="#2A3039"/>
<path d="M0.3676 10.2648L2.05234 11.9977C2.05234 13.0391 2.21813 14.074 2.54339 15.0759C3.19155 17.0701 4.41761 18.7722 6.09128 20.0038L5.06023 21.4967C3.07155 20.0338 1.58181 17.993 0.816023 15.6372C0.245232 13.8814 0.0944434 12.0751 0.3676 10.2648ZM0.313918 10.0967C0.0178646 11.9014 0.136286 13.8025 0.741023 15.6617C1.54471 18.1359 3.08654 20.1632 5.04207 21.5819L6.20102 19.9864C4.52102 18.7706 3.2713 17.0614 2.6176 15.0514C2.28839 14.0393 2.12734 12.9996 2.1305 11.9654L0.313918 10.0967Z" fill="#2A3039"/>
<path d="M12.0325 0.237151C13.2467 0.245045 14.4965 0.440835 15.6554 0.820574C16.8238 1.20347 17.9212 1.76321 18.916 2.48478C20.3867 3.55137 21.6018 4.96216 22.4378 6.57268L20.0591 6.16136C19.4441 5.31109 18.7004 4.56821 17.8494 3.95321C17.4286 3.64846 16.981 3.37532 16.5191 3.14005C15.121 2.42794 13.6281 2.06163 12.0799 2.05136L12.0325 0.237151ZM12.0049 0.158203H12.001V2.12952H12.0136C13.5499 2.12952 15.0752 2.49189 16.4836 3.20951C16.9486 3.44637 17.3891 3.71637 17.8036 4.01635C18.6602 4.63531 19.4039 5.38293 20.0141 6.2332L22.5799 6.67689C21.7131 4.95033 20.4602 3.50638 18.9626 2.42084C16.962 0.971361 14.5281 0.158203 12.0049 0.158203Z" fill="#2A3039"/>
<path d="M10.0599 0.39981L8.9301 2.54165H8.92932C7.92905 2.86691 6.99432 3.3414 6.15195 3.95245C4.87694 4.87691 3.86327 6.06587 3.14012 7.48611C2.9159 7.92588 2.72327 8.38533 2.56616 8.8543L0.826163 8.33798C1.20669 7.1964 1.77037 6.07928 2.47537 5.1043C3.20484 4.09534 4.08273 3.21427 5.08617 2.4856C6.08405 1.76086 7.18773 1.19876 8.36799 0.815072C8.91984 0.635863 9.48826 0.496124 10.0599 0.39981ZM10.2035 0.296387C9.58222 0.392704 8.96091 0.538757 8.34352 0.739283C7.12775 1.13402 6.02012 1.70797 5.03958 2.42086C2.99722 3.90507 1.5059 5.99403 0.740112 8.34429L2.6159 8.95377C2.77538 8.46665 2.97275 7.98824 3.21037 7.52244C3.9296 6.11165 4.95274 4.92033 6.19853 4.01638C7.02669 3.4156 7.95273 2.94271 8.95379 2.61744C8.96405 2.61428 8.97431 2.61112 8.9846 2.60797L10.2035 0.297178V0.296387Z" fill="#2A3039"/>
<path d="M23.2761 15.6886L21.4005 15.0791C21.241 15.5654 21.0437 16.0431 20.8068 16.5081C20.5637 16.9857 20.2842 17.4381 19.974 17.8628L20.345 20.4444C21.6902 19.111 22.6927 17.476 23.2753 15.6886H23.2761Z" fill="url(#paint1_linear_916_930)"/>
<path d="M12.0014 23.8469V21.8756C10.9577 21.8764 9.91795 21.7098 8.91768 21.3774L6.57849 22.5277C8.23559 23.3819 10.0932 23.8469 12.0014 23.8469Z" fill="url(#paint2_linear_916_930)"/>
<path d="M0.740983 15.6617L2.61822 15.0514C2.28904 14.0393 2.12799 12.9996 2.13115 11.9654L0.313907 10.0967C0.0178742 11.9014 0.136287 13.8025 0.740983 15.6617Z" fill="url(#paint3_linear_916_930)"/>
<path d="M18.9627 2.42139L17.8037 4.0169C18.6603 4.63586 19.404 5.38348 20.0142 6.23375L22.58 6.67744C21.7132 4.95088 20.4603 3.50693 18.9627 2.42139Z" fill="url(#paint4_linear_916_930)"/>
<path d="M8.34349 0.740259C7.12772 1.135 6.02009 1.70894 5.03955 2.42184L6.19851 4.01658C7.02666 3.41577 7.95271 2.94288 8.95376 2.61763C8.96402 2.61447 8.97428 2.61131 8.98454 2.60815L10.2035 0.297363C9.58217 0.393678 8.96085 0.539731 8.34349 0.740259Z" fill="url(#paint5_linear_916_930)"/>
<path d="M17.8539 13.9044L17.8894 13.8681L23.2554 8.3465L15.6686 7.03361L15.6181 7.02491L15.5944 6.97991L12.0015 0.169922L8.4086 6.97991L8.38491 7.02491L8.3344 7.03361L0.747559 8.3465L6.11362 13.8681L6.14914 13.9044L6.14204 13.9549L5.04624 21.5765L11.9557 18.1794L12.0015 18.1565L12.0473 18.1786L18.9568 21.5757L17.861 13.9549L17.8539 13.9044ZM12.8391 16.227L12.7965 16.2057L12.0497 15.8394L11.3036 16.2065L11.2602 16.2278L7.69649 17.9805L8.26256 14.0465L8.26886 13.9991L8.38573 13.1781L7.80862 12.582L7.77307 12.5457L5.00518 9.69807L8.91782 9.02071L8.96441 9.01283L9.78544 8.87072L10.1739 8.13412L10.196 8.0923L12.0489 4.57992L13.9018 8.0923L13.9239 8.13412L14.3123 8.87072L15.1333 9.01283L15.1799 9.02071L19.0934 9.69807L16.3255 12.5457L16.2923 12.5797L15.712 13.1773L15.8305 14.0015L15.8375 14.0481L16.4028 17.9789L12.8375 16.2254L12.8391 16.227Z" fill="url(#paint6_linear_916_930)"/>
<path d="M15.9044 12.9809L12.8957 12.0035L18.6817 10.123L19.0946 9.69823L18.5112 9.59716L12.7244 11.4777L14.5844 8.91823L14.3136 8.87164L14.1541 8.56927L12.2775 11.1524V5.0119L12.0494 4.58008L11.7249 5.19586V11.1524L9.90437 8.64664L9.78515 8.87164L9.42909 8.93321L11.278 11.4777L5.52517 9.60821L5.00488 9.69823L5.46199 10.1696L11.1067 12.0035L8.17069 12.9572L8.38462 13.1782L8.3412 13.483L11.2773 12.5293L7.78938 17.3309L7.69541 17.9806L8.16912 17.7477L11.7249 12.8537V15.999L12.0486 15.8403L12.2775 15.9524V12.8537L15.7788 17.6735L16.4041 17.9806L16.3339 17.4966L12.7244 12.5293L15.7615 13.5153L15.7133 13.1782L15.9044 12.9809Z" fill="url(#paint7_radial_916_930)"/>
<path d="M8.38458 7.0249L8.33407 7.03357L3.26721 7.91068L5.00485 9.69803L8.91749 9.02146L8.96408 9.0128L9.73222 8.88095L8.38458 7.0249Z" fill="url(#paint8_linear_916_930)"/>
<path d="M7.70447 17.9166L8.26103 14.0466L8.26733 13.9993L8.38416 13.1782L6.14853 13.9045L6.14141 13.9551L5.40015 19.1095L7.63737 18.009L7.70447 17.9166Z" fill="url(#paint9_linear_916_930)"/>
<path d="M16.3099 17.9348L12.8378 16.2272L12.7952 16.2059L12.0483 15.8403L12.001 15.8632V18.1567L12.0468 18.1788L16.7654 20.499L16.4181 18.0832L16.3099 17.9348Z" fill="url(#paint10_linear_916_930)"/>
<path d="M19.0947 9.72607L16.3268 12.5737L16.2936 12.6077L15.7134 13.2053L15.7181 13.2377L17.8536 13.9316L17.8892 13.8953L21.531 10.1477L19.0947 9.72607Z" fill="url(#paint11_linear_916_930)"/>
<path d="M15.5936 7.00696L13.1883 2.44775L12.0499 4.60697L13.9027 8.11934L13.9248 8.16117L14.2974 8.86854L15.6173 7.05196L15.5936 7.00696Z" fill="url(#paint12_linear_916_930)"/>
<path d="M4.98165 9.73242L3.20862 7.91979L3.30257 7.90479L5.03849 9.67716L4.98165 9.73242Z" fill="url(#paint13_linear_916_930)"/>
<path d="M5.39429 19.1535L5.4069 19.0627L7.65912 17.9551L7.65517 18.0443L5.39429 19.1535Z" fill="url(#paint14_linear_916_930)"/>
<path d="M16.7269 20.4795L16.3669 18.0068L16.4538 18.0487L16.8098 20.5205L16.7269 20.4795Z" fill="url(#paint15_linear_916_930)"/>
<path d="M21.496 10.156L19.0875 9.73752L19.1009 9.66016L21.5639 10.0881L21.496 10.156Z" fill="url(#paint16_linear_916_930)"/>
<path d="M12.085 4.59794L12.0148 4.56161L13.1657 2.37793L13.2115 2.46082L12.085 4.59794Z" fill="url(#paint17_linear_916_930)"/>
<path d="M16.4537 18.0485L12.0492 15.8838L7.64636 18.0485L8.34347 13.1917L7.74503 12.5735L4.92505 9.67219L9.76056 8.83612L12.0508 4.49561L14.3403 8.83612L19.1758 9.67298L15.755 13.1925L16.4537 18.0501V18.0485ZM5.0853 9.72428L8.42714 13.1648L8.30083 14.0522L7.74584 17.9119L12.0492 15.7961L12.8561 16.1917L16.3542 17.9119L15.6714 13.164L19.0148 9.72428L14.2882 8.90639L13.8682 8.11059L12.0501 4.66456L9.81189 8.90717L5.08609 9.72428H5.0853Z" fill="#3B424C"/>
</g>
<defs>
<linearGradient id="paint0_linear_916_930" x1="3.57274" y1="3.57187" x2="20.5464" y2="20.5456" gradientUnits="userSpaceOnUse">
<stop stop-color="#7C838E"/>
<stop offset="0.21" stop-color="#BCC2CC"/>
<stop offset="0.37" stop-color="#ACB5C1"/>
<stop offset="0.8" stop-color="#69707C"/>
<stop offset="1" stop-color="#323A45"/>
</linearGradient>
<linearGradient id="paint1_linear_916_930" x1="20.1129" y1="19.0375" x2="22.3235" y2="15.8403" gradientUnits="userSpaceOnUse">
<stop stop-color="#0A0D10"/>
<stop offset="1" stop-color="#0A0D10" stop-opacity="0"/>
</linearGradient>
<linearGradient id="paint2_linear_916_930" x1="7.82978" y1="22.2135" x2="11.6193" y2="22.8846" gradientUnits="userSpaceOnUse">
<stop stop-color="#0A0D10"/>
<stop offset="1" stop-color="#0A0D10" stop-opacity="0"/>
</linearGradient>
<linearGradient id="paint3_linear_916_930" x1="1.2841" y1="11.1704" x2="1.44201" y2="14.9204" gradientUnits="userSpaceOnUse">
<stop stop-color="#252C36"/>
<stop offset="1" stop-color="#252C36" stop-opacity="0"/>
</linearGradient>
<linearGradient id="paint4_linear_916_930" x1="21.1803" y1="6.43822" x2="18.8513" y2="3.43822" gradientUnits="userSpaceOnUse">
<stop stop-color="#252C36"/>
<stop offset="1" stop-color="#252C36" stop-opacity="0"/>
</linearGradient>
<linearGradient id="paint5_linear_916_930" x1="9.47481" y1="1.41052" x2="5.68534" y2="3.02894" gradientUnits="userSpaceOnUse">
<stop stop-color="#252C36"/>
<stop offset="1" stop-color="#252C36" stop-opacity="0"/>
</linearGradient>
<linearGradient id="paint6_linear_916_930" x1="3.24624" y1="4.05729" x2="20.1804" y2="20.9915" gradientUnits="userSpaceOnUse">
<stop stop-color="#7C838E"/>
<stop offset="0.21" stop-color="#BCC2CC"/>
<stop offset="0.37" stop-color="#ACB5C1"/>
<stop offset="0.8" stop-color="#69707C"/>
<stop offset="1" stop-color="#323A45"/>
</linearGradient>
<radialGradient id="paint7_radial_916_930" cx="0" cy="0" r="1" gradientUnits="userSpaceOnUse" gradientTransform="translate(12.0597 13.2215) rotate(-90) scale(6.50449 6.83841)">
<stop stop-color="#8795A3"/>
<stop offset="0.71" stop-color="#3E4852"/>
<stop offset="1" stop-color="#171A1F"/>
</radialGradient>
<linearGradient id="paint8_linear_916_930" x1="5.19748" y1="9.69725" x2="6.85537" y2="8.03936" gradientUnits="userSpaceOnUse">
<stop stop-color="#22262C"/>
<stop offset="0.12" stop-color="#454D58"/>
<stop offset="1" stop-color="#454D58" stop-opacity="0"/>
</linearGradient>
<linearGradient id="paint9_linear_916_930" x1="7.68474" y1="17.8006" x2="6.38206" y2="15.077" gradientUnits="userSpaceOnUse">
<stop stop-color="#22262C"/>
<stop offset="0.12" stop-color="#454D58"/>
<stop offset="1" stop-color="#454D58" stop-opacity="0"/>
</linearGradient>
<linearGradient id="paint10_linear_916_930" x1="16.3202" y1="17.9348" x2="14.0702" y2="18.2111" gradientUnits="userSpaceOnUse">
<stop stop-color="#101215"/>
<stop offset="0.12" stop-color="#2D333C"/>
<stop offset="1" stop-color="#2D333C" stop-opacity="0"/>
</linearGradient>
<linearGradient id="paint11_linear_916_930" x1="18.9573" y1="9.8003" x2="18.5626" y2="12.0108" gradientUnits="userSpaceOnUse">
<stop stop-color="#22262C"/>
<stop offset="0.12" stop-color="#454D58"/>
<stop offset="1" stop-color="#454D58" stop-opacity="0"/>
</linearGradient>
<linearGradient id="paint12_linear_916_930" x1="12.1241" y1="4.69381" x2="13.9793" y2="5.79896" gradientUnits="userSpaceOnUse">
<stop stop-color="#22262C"/>
<stop offset="0.12" stop-color="#454D58"/>
<stop offset="1" stop-color="#454D58" stop-opacity="0"/>
</linearGradient>
<linearGradient id="paint13_linear_916_930" x1="3.27657" y1="7.93477" x2="5.31283" y2="8.55045" gradientUnits="userSpaceOnUse">
<stop offset="0.702552" stop-color="white"/>
<stop offset="1" stop-color="white" stop-opacity="0"/>
</linearGradient>
<linearGradient id="paint14_linear_916_930" x1="5.40853" y1="19.1054" x2="5.68562" y2="17.6671" gradientUnits="userSpaceOnUse">
<stop offset="0.702552" stop-color="white"/>
<stop offset="1" stop-color="white" stop-opacity="0"/>
</linearGradient>
<linearGradient id="paint15_linear_916_930" x1="16.6977" y1="20.4873" x2="17.7541" y2="19.2847" gradientUnits="userSpaceOnUse">
<stop offset="0.702552" stop-color="white"/>
<stop offset="1" stop-color="white" stop-opacity="0"/>
</linearGradient>
<linearGradient id="paint16_linear_916_930" x1="21.5134" y1="10.1054" x2="21.2676" y2="10.6503" gradientUnits="userSpaceOnUse">
<stop offset="0.702552" stop-color="white"/>
<stop offset="1" stop-color="white" stop-opacity="0"/>
</linearGradient>
<linearGradient id="paint17_linear_916_930" x1="13.1848" y1="2.4474" x2="12.0795" y2="4.49996" gradientUnits="userSpaceOnUse">
<stop offset="0.702552" stop-color="white"/>
<stop offset="1" stop-color="white" stop-opacity="0"/>
</linearGradient>
</defs>
</svg>
