<svg width="221" height="49" viewBox="0 0 221 49" fill="none" xmlns="http://www.w3.org/2000/svg">
<g clip-path="url(#clip0_264_12088)">
<path d="M69.3197 8.37012C66.7597 8.37012 64.2798 8.69012 63.2798 8.97012C61.8098 9.38012 61.4497 10.0201 61.1697 11.3501L55.3597 38.1801C55.2697 38.7301 55.1797 39.1901 55.1797 39.6501C55.1797 40.9801 56.0497 41.8501 57.4697 41.8501C59.0297 41.8501 59.6697 40.8401 59.9897 39.2901L61.6398 31.6401C62.7798 31.7801 64.2998 31.9101 66.4498 31.9101C75.9298 31.9101 81.8298 26.7801 81.8298 19.0401C81.8298 12.2601 77.1098 8.37012 69.3298 8.37012H69.3197ZM66.2098 27.5101C64.7398 27.5101 63.5997 27.4601 62.5497 27.3301L65.6197 13.0901C66.5797 12.9501 67.9997 12.7701 69.4697 12.7701C74.5097 12.7701 77.0697 15.1501 77.0697 19.0901C77.0697 24.1301 73.4097 27.5101 66.2197 27.5101H66.2098ZM218.49 33.0001C217.71 33.0001 217.21 33.4601 216.25 34.5101C214.56 36.2501 213.5 37.2101 212.18 37.2101C210.99 37.2101 210.35 36.2501 210.35 34.6901C210.35 33.8201 210.53 32.7701 210.76 31.6201L212.45 23.6501H217.53C219.13 23.6501 220.09 22.7301 220.09 21.0901C220.09 20.1701 219.49 19.4901 218.12 19.4901H213.36L214.18 15.7801C214.27 15.2301 214.36 14.7301 214.36 14.2701C214.36 12.9901 213.49 12.0701 212.07 12.0701C210.56 12.0701 209.87 13.0801 209.55 14.6301L208.5 19.4801H206.35C204.7 19.4801 203.74 20.4001 203.74 22.0401C203.74 22.9601 204.38 23.6401 205.75 23.6401H207.63L205.94 31.5201C205.76 32.3901 205.53 33.8101 205.53 35.2701C205.53 38.9801 207.45 41.6801 211.57 41.6801C213.95 41.6801 216.06 40.4901 217.66 39.0701C219.22 37.7001 220.36 36.0001 220.36 34.9001C220.36 33.8001 219.54 32.9801 218.48 32.9801L218.49 33.0001ZM113.18 11.0701C113.18 9.74012 112.26 8.87012 110.84 8.87012C109.33 8.87012 108.64 9.88012 108.32 11.4301L102.6 38.0301C102.46 38.5801 102.37 39.0401 102.37 39.5001C102.37 40.8301 103.29 41.7001 104.66 41.7001C106.22 41.7001 106.9 40.6901 107.22 39.1401L112.94 12.5401C113.03 11.9901 113.17 11.5301 113.17 11.0701H113.18ZM194.91 19.0401C187.58 19.0401 182.59 26.3201 182.59 33.2301C182.59 33.3601 182.59 33.4901 182.59 33.6201C181.44 35.3601 179.97 37.1701 178.97 37.1701C178.24 37.1701 177.96 36.4801 177.96 35.4301C177.96 34.1501 178.33 32.0001 178.74 30.1201L182.54 12.5401C182.63 11.9901 182.72 11.5301 182.72 11.0701C182.72 9.74012 181.85 8.87012 180.43 8.87012C178.87 8.87012 178.23 9.88012 177.91 11.4301L175.85 20.9501C174.75 19.8101 173.15 19.0301 170.72 19.0301C165.85 19.0301 160.96 22.7801 159.05 28.5201C156.95 33.9501 155.07 37.1601 153.59 37.1601C153.04 37.1601 152.72 36.7001 152.72 35.9201C152.72 33.6301 154 28.0401 154.55 25.3401C154.73 24.3301 154.82 23.9201 154.82 23.3301C154.82 21.3201 151.48 18.9301 147.13 18.9301C142.1 18.9301 137.54 22.1101 135.26 26.8501C131.87 32.8401 128.75 37.1501 127.21 37.1501C126.52 37.1501 126.29 36.2801 126.11 35.4601L124.97 29.1401L131.98 23.4201C132.62 22.8701 133.45 22.0901 133.45 21.0801C133.45 19.8401 132.63 19.0201 131.39 19.0201C130.47 19.0201 129.7 19.5701 128.92 20.2101L118.39 28.9101L121.92 12.5201C122.01 11.9701 122.15 11.5101 122.15 11.0501C122.15 9.72012 121.23 8.85012 119.81 8.85012C118.3 8.85012 117.61 9.86012 117.29 11.4101L111.57 38.0101C111.43 38.5601 111.34 39.0201 111.34 39.4801C111.34 40.8101 112.26 41.6801 113.63 41.6801C115.19 41.6801 115.87 40.6701 116.19 39.1201L116.92 35.6901L121.22 32.2101L122.27 37.5201C122.68 39.6301 123.78 41.6901 126.62 41.6901C129.46 41.6901 131.67 39.1101 133.89 35.6301C134.57 39.2801 137.16 41.6901 140.77 41.6901C144.38 41.6901 146.86 39.5401 148.46 36.6501V36.7401C148.46 39.7201 149.97 41.6801 152.63 41.6801C155.03 41.6801 157.03 40.2301 158.81 37.1501C159.82 39.8301 162.08 41.6801 165.22 41.6801C168.93 41.6801 171.58 39.4401 173.28 36.3201V36.5901C173.28 39.8901 174.93 41.6701 177.63 41.6701C180.01 41.6701 182.04 40.2901 183.77 38.0301C185.09 40.2801 187.44 41.6701 190.63 41.6701C197.96 41.6701 202.95 34.3901 202.95 27.4301C202.95 22.5301 199.97 19.0101 194.89 19.0101L194.91 19.0401ZM149.26 28.3301C147.93 34.0501 145.09 37.3001 141.89 37.3001C139.74 37.3001 138.55 35.6501 138.55 33.1801C138.55 28.3301 142.08 23.1101 146.79 23.1101C148.21 23.1101 149.31 23.5201 150.27 24.1201L149.26 28.3301ZM174.76 25.9001C173.29 32.6301 169.95 37.3001 166.29 37.3001C164.28 37.3001 163.08 35.7401 163.08 33.1801C163.08 28.2801 166.47 23.2001 171 23.2001C172.74 23.2001 174.07 23.8001 175.03 24.5701L174.76 25.9001ZM191.2 37.3001C188.54 37.3001 187.45 35.3801 187.45 32.9501C187.45 28.5101 190.52 23.4301 194.36 23.4301C197.02 23.4301 198.11 25.3501 198.11 27.7801C198.11 32.2701 195.04 37.3001 191.2 37.3001ZM93.2197 19.0301C85.8897 19.0301 80.8998 26.3101 80.8998 33.2201C80.8998 38.1601 83.8798 41.6901 88.9598 41.6901C96.2898 41.6901 101.28 34.4101 101.28 27.4501C101.28 22.5501 98.2997 19.0301 93.2197 19.0301ZM89.5097 37.3001C86.8497 37.3001 85.7597 35.3801 85.7597 32.9501C85.7597 28.5101 88.8297 23.4301 92.6697 23.4301C95.3297 23.4301 96.4197 25.3501 96.4197 27.7801C96.4197 32.2701 93.3497 37.3001 89.5097 37.3001Z" fill="black"/>
<path d="M23.3094 1.37988C18.6394 1.37988 14.8593 3.57988 14.8593 6.29988C14.8593 9.01988 18.6394 11.2199 23.3094 11.2199C27.9794 11.2199 31.7594 9.01988 31.7594 6.29988C31.7594 3.57988 27.9794 1.37988 23.3094 1.37988ZM23.3094 38.4099C18.6394 38.4099 14.8593 40.6099 14.8593 43.3299C14.8593 46.0499 18.6394 48.2499 23.3094 48.2499C27.9794 48.2499 31.7594 46.0499 31.7594 43.3299C31.7594 40.6099 27.9794 38.4099 23.3094 38.4099ZM11.4994 8.23988C9.14933 6.87988 5.34935 9.05988 3.01935 13.0999C0.689344 17.1399 0.699312 21.5199 3.04932 22.8699C5.39932 24.2299 9.19936 22.0499 11.5294 18.0099C13.8594 13.9699 13.8494 9.58988 11.4994 8.23988ZM43.5694 26.7499C41.2194 25.3899 37.4194 27.5699 35.0894 31.6099C32.7594 35.6499 32.7694 40.0299 35.1194 41.3799C37.4694 42.7399 41.2693 40.5599 43.5993 36.5199C45.9293 32.4799 45.9194 28.0999 43.5694 26.7499ZM3.05933 26.7499C0.709322 28.1099 0.689354 32.4799 3.02936 36.5199C5.36936 40.5599 9.15934 42.7399 11.5094 41.3799C13.8594 40.0199 13.8793 35.6499 11.5393 31.6099C9.20931 27.5699 5.40933 25.3899 3.05933 26.7499ZM43.5694 22.8699C45.9194 21.5099 45.9393 17.1399 43.5993 13.0999C41.2693 9.05988 37.4694 6.87988 35.1194 8.23988C32.7694 9.59988 32.7494 13.9699 35.0894 18.0099C37.4194 22.0499 41.2194 24.2299 43.5694 22.8699Z" fill="#E6007A"/>
</g>
<defs>
<clipPath id="clip0_264_12088">
<rect width="220" height="48" fill="white" transform="translate(0.5 0.5)"/>
</clipPath>
</defs>
</svg>
