<svg width="878" height="252" viewBox="0 0 878 252" fill="none" xmlns="http://www.w3.org/2000/svg">
<path d="M218.906 102.147C214.796 41.7673 162.526 -3.85272 102.146 0.25728C72.0656 2.30728 45.6556 16.3073 27.2256 37.3073L27.1756 37.2673C27.0556 37.4373 26.9356 37.6073 26.8156 37.7773C8.50563 58.8773 -1.78437 86.9373 0.255634 117.017C0.445634 119.887 0.785633 122.707 1.19563 125.497C1.21563 125.627 1.23563 125.747 1.24563 125.877C1.52563 127.717 1.84563 129.547 2.20563 131.357C2.20563 131.387 2.21563 131.427 2.22563 131.457C2.55563 133.097 2.92563 134.727 3.33563 136.337C15.9956 186.807 63.2756 222.547 117.016 218.897C177.396 214.787 223.016 162.517 218.906 102.137V102.147ZM195.056 103.767C195.566 111.197 195.096 118.477 193.766 125.477C193.746 125.437 193.736 125.397 193.716 125.357C185.776 105.937 170.056 91.9173 156.236 84.1773C159.036 51.2773 147.866 37.4073 135.236 35.1573C134.896 35.0873 134.546 35.0373 134.196 34.9873C124.166 33.6973 114.996 40.7873 113.716 50.8173C112.426 60.8473 119.516 70.0173 129.546 71.2973C130.416 71.4073 131.286 71.4373 132.146 71.4273C132.206 72.5373 132.236 73.7173 132.246 74.9473C120.566 72.0573 109.646 71.4873 99.6856 72.3773C95.9656 72.6273 92.2356 73.0973 88.5356 73.7873C89.7756 62.6773 93.9456 50.2073 102.036 41.0773C109.856 32.2573 121.476 27.1973 134.166 28.4973C136.566 28.7473 139.136 29.3373 141.446 30.1073C141.556 30.1473 141.666 30.1773 141.766 30.2073C171.136 42.1773 192.756 70.0473 195.056 103.767ZM118.676 120.507C118.676 120.507 118.656 120.527 118.656 120.547C116.046 124.317 112.936 128.037 109.276 131.637C103.806 125.817 99.4056 119.547 96.0756 113.057C95.9056 112.707 95.7256 112.377 95.5556 112.027C95.5556 112.017 95.5456 111.997 95.5356 111.987C93.5756 107.837 91.9056 103.277 90.6256 98.3173C98.4156 96.4873 106.046 95.8073 113.346 96.1673C113.736 96.1973 114.106 96.1973 114.496 96.2373C114.506 96.2373 114.526 96.2373 114.536 96.2373C119.106 96.6173 123.876 97.4473 128.806 98.8073C126.496 106.467 123.266 113.407 119.316 119.547C119.096 119.867 118.906 120.187 118.686 120.517L118.676 120.507ZM81.2256 28.7573C81.2256 28.7573 81.1856 28.8073 81.1656 28.8373C68.3256 45.4173 64.0456 66.0273 64.2356 81.8673C34.3456 95.8973 27.9156 112.497 32.2856 124.567C32.3956 124.897 32.5256 125.227 32.6656 125.547C36.5656 134.877 47.2856 139.267 56.6156 135.367C65.9456 131.467 70.3356 120.747 66.4456 111.417C66.1056 110.607 65.6956 109.837 65.2556 109.107C66.1956 108.497 67.2156 107.867 68.2956 107.237C71.6256 118.807 76.5656 128.587 82.3156 136.767C84.3856 139.857 86.6556 142.847 89.0956 145.707C78.8556 150.187 65.9656 152.817 54.0056 150.377C42.4556 148.017 32.2656 140.477 27.0456 128.847C26.0556 126.647 25.2856 124.127 24.8056 121.737C24.5056 119.647 24.2556 117.547 24.1156 115.417C21.4456 76.1673 45.7956 41.2173 81.2356 28.7773L81.2256 28.7573ZM115.386 195.057C92.0756 196.647 70.2856 188.687 53.8156 174.557C74.5956 177.387 94.5856 170.797 108.196 162.707C135.306 181.597 152.896 178.857 161.166 169.047C161.396 168.787 161.616 168.507 161.826 168.227C167.956 160.187 166.396 148.697 158.356 142.577C150.316 136.447 138.826 138.007 132.706 146.047C132.176 146.747 131.716 147.487 131.296 148.227C130.306 147.717 129.256 147.157 128.176 146.547C136.536 137.877 142.486 128.697 146.696 119.617C148.346 116.267 149.796 112.807 151.056 109.247C160.066 115.877 168.796 125.727 172.656 137.307C176.386 148.487 174.956 161.087 167.496 171.417C166.076 173.377 164.286 175.307 162.456 176.917C162.426 176.937 162.406 176.967 162.376 176.987C149.316 187.247 133.156 193.847 115.376 195.047L115.386 195.057Z" fill="url(#paint0_linear_264_12103)"/>
<path style="mix-blend-mode:overlay" opacity="0.9" d="M135.245 35.157C134.905 35.087 134.555 35.037 134.205 34.987C132.435 34.757 130.685 34.807 129.005 35.077C139.485 40.777 147.135 56.667 143.115 88.017C141.785 98.397 138.695 108.277 134.235 117.337C130.625 125.127 125.705 132.997 119.105 140.567C122.275 142.947 125.375 144.937 128.205 146.547C136.565 137.877 142.515 128.697 146.725 119.617C151.185 110.557 154.265 100.677 155.605 90.297C160.385 52.977 148.645 37.557 135.255 35.167L135.245 35.157Z" fill="url(#paint1_radial_264_12103)"/>
<g style="mix-blend-mode:overlay" opacity="0.8">
<path d="M143.106 88.0176C147.126 56.6776 139.486 40.7876 128.996 35.0776C128.586 35.1376 128.186 35.2276 127.786 35.3176C138.046 41.2176 145.436 57.0876 141.466 88.0076C140.136 98.3876 137.046 108.267 132.586 117.327C129.096 124.867 124.366 132.467 118.096 139.797C118.426 140.057 118.766 140.307 119.096 140.547C125.706 132.987 130.616 125.117 134.226 117.317C138.686 108.257 141.766 98.3776 143.106 87.9976V88.0176Z" fill="white"/>
</g>
<path style="mix-blend-mode:overlay" opacity="0.5" d="M103.266 159.107C102.276 158.357 101.336 157.567 100.386 156.787C84.9158 163.237 63.4658 167.287 42.1758 162.347C45.6658 166.787 49.5558 170.897 53.8258 174.567C74.6058 177.397 94.5958 170.807 108.206 162.717C106.586 161.587 104.946 160.397 103.256 159.117L103.266 159.107Z" fill="url(#paint2_radial_264_12103)"/>
<path style="mix-blend-mode:overlay" opacity="0.6" d="M100.386 156.777C99.9159 156.387 99.4359 155.997 98.9659 155.597C83.3759 161.827 61.8359 165.547 40.5859 160.257C41.1059 160.957 41.6259 161.657 42.1659 162.337C63.4559 167.277 84.9059 163.227 100.376 156.777H100.386Z" fill="url(#paint3_linear_264_12103)"/>
<path style="mix-blend-mode:overlay" opacity="0.9" d="M32.2955 124.567C32.4055 124.897 32.5355 125.227 32.6755 125.547C33.3655 127.197 34.2755 128.687 35.3455 130.007C35.0455 118.077 44.9855 103.517 74.1355 91.3175C83.7955 87.2775 93.8855 85.0175 103.966 84.3375C112.526 83.5675 121.796 83.8875 131.646 85.8275C132.116 81.8875 132.296 78.2175 132.276 74.9575C120.586 72.0575 109.656 71.4875 99.6955 72.3875C89.6155 73.0575 79.5155 75.3275 69.8655 79.3675C35.1555 93.8875 27.6755 111.767 32.2955 124.557V124.567Z" fill="url(#paint4_radial_264_12103)"/>
<g style="mix-blend-mode:overlay" opacity="0.8">
<path d="M74.1364 91.3274C44.9864 103.517 35.0464 118.087 35.3464 130.017C35.6064 130.337 35.8864 130.647 36.1664 130.947C36.1464 119.107 46.1964 104.777 74.9564 92.7474C84.6164 88.7074 94.7064 86.4474 104.787 85.7674C113.057 85.0274 122.007 85.3074 131.497 87.0874C131.557 86.6674 131.597 86.2574 131.647 85.8474C121.797 83.9074 112.527 83.5874 103.967 84.3574C93.8864 85.0274 83.7864 87.2974 74.1364 91.3374V91.3274Z" fill="white"/>
</g>
<path style="mix-blend-mode:overlay" opacity="0.4" d="M155.627 90.2875C155.467 91.5175 155.267 92.7275 155.057 93.9475C168.377 104.117 182.607 120.667 188.977 141.577C191.087 136.337 192.687 130.917 193.727 125.377C185.787 105.967 170.087 91.9575 156.267 84.2075C156.097 86.1675 155.887 88.1875 155.617 90.2875H155.627Z" fill="url(#paint5_radial_264_12103)"/>
<path style="mix-blend-mode:overlay" opacity="0.5" d="M155.056 93.9473C154.956 94.5573 154.856 95.1573 154.736 95.7673C167.926 106.147 181.916 122.947 187.956 143.997C188.306 143.197 188.646 142.397 188.966 141.587C182.596 120.677 168.366 104.127 155.046 93.9573L155.056 93.9473Z" fill="url(#paint6_linear_264_12103)"/>
<path style="mix-blend-mode:overlay" opacity="0.9" d="M161.196 169.017C161.426 168.757 161.646 168.477 161.856 168.197C162.936 166.777 163.776 165.237 164.386 163.647C154.206 169.877 136.626 168.547 111.486 149.397C103.166 143.057 96.1461 135.437 90.5261 127.047C85.5861 120.017 81.2261 111.827 77.9761 102.327C74.3261 103.887 71.0561 105.567 68.2461 107.217C71.5761 118.787 76.5561 128.537 82.3061 136.717C87.9261 145.107 94.9361 152.727 103.266 159.067C133.196 181.867 152.417 179.407 161.187 169.007L161.196 169.017Z" fill="url(#paint7_radial_264_12103)"/>
<g style="mix-blend-mode:overlay" opacity="0.8">
<path d="M111.487 149.407C136.627 168.557 154.207 169.887 164.387 163.657C164.537 163.267 164.657 162.877 164.777 162.487C154.537 168.427 137.097 166.887 112.307 147.987C103.987 141.647 96.9663 134.027 91.3463 125.637C86.5663 118.847 82.3463 110.947 79.1363 101.847C78.7463 102.007 78.3663 102.167 77.9863 102.337C81.2363 111.837 85.5863 120.027 90.5363 127.057C96.1563 135.447 103.167 143.067 111.497 149.407H111.487Z" fill="white"/>
</g>
<path style="mix-blend-mode:overlay" opacity="0.3" d="M69.8463 79.3476C70.9863 78.8676 72.1463 78.4376 73.2963 78.0176C75.4463 61.3976 82.6563 40.7976 97.5863 24.8276C91.9963 25.6276 86.4963 26.9476 81.1763 28.8076C68.3363 45.3876 64.0563 65.9976 64.2463 81.8376C66.0263 80.9976 67.8863 80.1676 69.8363 79.3576L69.8463 79.3476Z" fill="url(#paint8_radial_264_12103)"/>
<path style="mix-blend-mode:overlay" opacity="0.4" d="M73.2949 78.0173C73.8749 77.8073 74.4449 77.5873 75.0249 77.3873C77.4249 60.7773 84.9749 40.2573 100.185 24.5073C99.3149 24.6073 98.4549 24.7073 97.5849 24.8373C82.6549 40.8073 75.4349 61.4073 73.2949 78.0273V78.0173Z" fill="url(#paint9_linear_264_12103)"/>
<path style="mix-blend-mode:multiply" opacity="0.4" d="M102.147 0.257531C72.0666 2.30753 45.6566 16.3075 27.2266 37.3075C27.0866 37.4675 26.9466 37.6275 26.8066 37.7875C30.3966 41.3475 42.1166 48.3675 46.8766 51.2875C56.2066 41.2475 67.9366 33.4175 81.2266 28.7575C82.1566 27.5575 83.1166 26.3775 84.1366 25.2275C96.5166 11.2575 113.417 3.87753 133.027 3.87753C135.207 3.87753 139.657 4.22753 139.747 4.22753C127.857 0.817531 115.197 -0.632469 102.137 0.257531H102.147Z" fill="url(#paint10_linear_264_12103)"/>
<path style="mix-blend-mode:multiply" opacity="0.4" d="M115.396 195.057C92.0859 196.647 70.2959 188.687 53.8259 174.557C52.2959 174.347 50.7559 174.097 49.2159 173.787C30.9259 170.047 16.0859 159.107 6.28594 142.127C5.19594 140.237 4.21594 138.307 3.33594 136.357C15.9959 186.827 63.2759 222.567 117.016 218.917C117.256 213.387 115.626 200.547 115.396 195.067V195.057Z" fill="url(#paint11_linear_264_12103)"/>
<path style="mix-blend-mode:multiply" opacity="0.4" d="M218.907 102.147C215.537 101.807 199.097 103.097 195.057 103.767C195.567 111.197 195.097 118.477 193.767 125.477C194.337 126.867 194.877 128.287 195.357 129.737C201.267 147.437 199.207 165.767 189.407 182.747C188.337 184.597 187.177 186.377 185.957 188.087C185.937 188.117 185.907 188.157 185.887 188.187C185.887 188.187 185.937 188.147 185.967 188.117C208.227 166.467 221.187 135.557 218.917 102.147H218.907Z" fill="url(#paint12_linear_264_12103)"/>
<path style="mix-blend-mode:multiply" opacity="0.5" d="M134.155 28.4972C136.555 28.7472 139.125 29.3372 141.435 30.1072C141.545 30.1472 141.655 30.1772 141.755 30.2072C151.205 34.0572 159.855 39.5672 167.315 46.3772C167.335 46.3872 167.345 46.3972 167.365 46.4172C170.965 42.3072 177.885 37.7872 177.885 37.7872C177.885 37.7872 167.285 26.9472 151.065 23.5772C139.715 21.2172 114.115 18.9372 97.9648 46.4172C97.9648 46.4172 98.0248 46.3572 98.1248 46.2672C99.3148 44.4572 100.585 42.7072 102.025 41.0872C109.845 32.2672 121.465 27.2072 134.155 28.5072V28.4972Z" fill="url(#paint13_linear_264_12103)"/>
<path style="mix-blend-mode:multiply" opacity="0.5" d="M167.507 171.407C166.087 173.367 164.297 175.297 162.467 176.907C162.387 176.977 162.297 177.067 162.217 177.137C154.157 183.397 145.067 188.127 135.437 191.187C135.417 191.187 135.397 191.207 135.377 191.207C137.137 196.377 137.587 204.627 137.587 204.627C137.587 204.627 152.277 200.867 163.297 188.507C171.017 179.857 185.797 158.827 170.067 131.097C170.067 131.097 170.087 131.187 170.117 131.307C171.087 133.247 171.967 135.217 172.657 137.277C176.387 148.457 174.957 161.057 167.497 171.387L167.507 171.407Z" fill="url(#paint14_linear_264_12103)"/>
<path style="mix-blend-mode:multiply" opacity="0.5" d="M27.0756 128.867C26.0856 126.667 25.3156 124.147 24.8356 121.757C24.8156 121.647 24.7856 121.537 24.7656 121.427C23.3756 111.317 23.8256 101.077 25.9856 91.2072C25.9856 91.1872 25.9856 91.1672 25.9856 91.1472C20.6256 90.0872 13.2556 86.3472 13.2556 86.3472C13.2556 86.3472 9.16557 100.947 14.3556 116.677C17.9956 127.687 28.8156 150.997 60.6856 151.247C60.6856 151.247 60.6056 151.217 60.4756 151.187C58.3156 151.057 56.1556 150.837 54.0356 150.397C42.4856 148.037 32.2956 140.497 27.0756 128.867Z" fill="url(#paint15_linear_264_12103)"/>
<path style="mix-blend-mode:multiply" opacity="0.6" d="M129.546 71.3072C130.416 71.4172 131.286 71.4472 132.146 71.4372C132.146 71.4372 131.576 60.0472 130.176 54.2072C128.776 48.3672 126.716 44.4972 124.446 42.3072C122.826 40.7372 117.696 38.7872 113.716 50.8272C112.426 60.8572 119.516 70.0272 129.546 71.3072Z" fill="url(#paint16_linear_264_12103)"/>
<path style="mix-blend-mode:multiply" opacity="0.5" d="M66.4459 111.427C66.1059 110.617 65.6959 109.847 65.2559 109.117C65.2559 109.117 55.6859 115.307 51.3259 119.437C46.9659 123.567 44.6459 127.287 43.8859 130.347C43.3359 132.537 44.2059 137.947 56.6259 135.377C65.9559 131.477 70.3459 120.757 66.4559 111.427H66.4459Z" fill="url(#paint17_linear_264_12103)"/>
<path style="mix-blend-mode:multiply" opacity="0.6" d="M132.746 146.007C132.216 146.707 131.756 147.447 131.336 148.187C131.336 148.187 141.486 153.387 147.236 155.097C152.996 156.807 157.376 156.957 160.406 156.087C162.576 155.467 166.826 152.007 158.396 142.537C150.356 136.407 138.866 137.967 132.746 146.007Z" fill="url(#paint18_linear_264_12103)"/>
<path style="mix-blend-mode:multiply" opacity="0.3" d="M128.805 98.7974C126.495 106.457 123.265 113.397 119.315 119.537C119.095 119.857 118.905 120.177 118.685 120.507C118.685 120.517 118.665 120.527 118.665 120.547C116.055 124.317 112.945 128.037 109.285 131.637C111.795 134.307 114.505 136.887 117.485 139.337C121.225 142.287 124.895 144.667 128.215 146.547C136.575 137.877 142.525 128.697 146.735 119.617C148.385 116.267 149.835 112.807 151.095 109.247C147.235 106.407 143.335 104.147 139.735 102.617C136.015 101.027 132.375 99.7874 128.815 98.8074L128.805 98.7974Z" fill="url(#paint19_linear_264_12103)"/>
<path style="mix-blend-mode:multiply" opacity="0.3" d="M53.8248 174.557C74.6048 177.387 94.5949 170.797 108.205 162.707C106.585 161.577 104.945 160.387 103.255 159.107C97.9949 155.107 93.2648 150.587 89.0848 145.697C78.8448 150.177 65.9549 152.807 53.9949 150.367C42.4449 148.007 32.2549 140.467 27.0349 128.837C26.0449 126.637 25.2749 124.117 24.7949 121.727C27.8149 142.907 38.5048 161.417 53.8248 174.567V174.557Z" fill="url(#paint20_linear_264_12103)"/>
<path style="mix-blend-mode:multiply" opacity="0.3" d="M109.275 131.627C103.805 125.807 99.4049 119.537 96.0749 113.047C95.9049 112.697 95.7249 112.367 95.5549 112.017C95.5549 112.007 95.5449 111.987 95.5349 111.977C93.5749 107.827 91.9049 103.267 90.6249 98.3076C87.0649 99.1476 83.4849 100.197 79.8749 101.547C75.4549 103.307 71.5749 105.287 68.2949 107.217C71.6249 118.787 76.5649 128.567 82.3149 136.747C84.3849 139.837 86.6549 142.827 89.0949 145.687C93.4849 143.767 97.4049 141.507 100.535 139.157C103.765 136.727 106.655 134.207 109.285 131.627H109.275Z" fill="url(#paint21_linear_264_12103)"/>
<path style="mix-blend-mode:multiply" opacity="0.3" d="M81.1645 28.837C68.3245 45.417 64.0445 66.027 64.2345 81.857C66.0245 81.017 67.8845 80.187 69.8445 79.367C75.9345 76.817 82.1945 74.987 88.5245 73.797C89.7645 62.687 93.9345 50.217 102.025 41.087C109.845 32.267 121.465 27.207 134.155 28.507C136.555 28.757 139.125 29.347 141.435 30.117C141.545 30.157 141.655 30.187 141.755 30.217C130.075 25.457 117.165 23.207 103.755 24.117C95.8745 24.657 88.3345 26.267 81.2145 28.757C81.1945 28.787 81.1745 28.807 81.1545 28.837H81.1645Z" fill="url(#paint22_linear_264_12103)"/>
<path style="mix-blend-mode:multiply" opacity="0.3" d="M193.726 125.357C185.786 105.937 170.066 91.9172 156.246 84.1772C156.076 86.1472 155.866 88.1772 155.596 90.2872C154.756 96.8372 153.216 103.177 151.076 109.247C160.086 115.877 168.816 125.727 172.676 137.307C176.406 148.487 174.976 161.087 167.516 171.417C166.096 173.377 164.306 175.307 162.476 176.917C162.446 176.937 162.426 176.967 162.396 176.987C178.486 164.347 189.866 146.117 193.766 125.477C193.746 125.437 193.736 125.397 193.716 125.357H193.726Z" fill="url(#paint23_linear_264_12103)"/>
<path style="mix-blend-mode:multiply" opacity="0.3" d="M88.4656 86.9773C88.9556 90.9873 89.6856 94.7473 90.6156 98.3173C98.4056 96.4873 106.036 95.8073 113.336 96.1673C113.726 96.1973 114.096 96.1973 114.486 96.2373C114.496 96.2373 114.516 96.2373 114.526 96.2373C119.096 96.6173 123.866 97.4473 128.796 98.8073C129.856 95.3073 130.726 91.6673 131.366 87.8673C132.056 83.1473 132.276 78.7773 132.246 74.9573C120.566 72.0673 109.646 71.4973 99.6856 72.3873C95.9656 72.6373 92.2356 73.1073 88.5356 73.7973C88.0056 78.5673 87.9956 83.0873 88.4656 86.9773Z" fill="url(#paint24_linear_264_12103)"/>
<path d="M549.487 81.3872L535.396 120.657H535.496L549.576 81.6172L549.487 81.3872Z" fill="#020617"/>
<path d="M299.147 81.3872L285.057 120.657H285.097L299.197 81.5372L299.147 81.3872Z" fill="#020617"/>
<path d="M302.665 91.1971L313.245 120.657H292.045L286.695 135.507H318.655L327.715 160.677H347.985L311.035 67.9971L302.665 91.1971Z" fill="#020617"/>
<path d="M285.056 120.657L299.146 81.3873L299.196 81.5373L305.156 65.0273H289.586L251.576 160.677H270.666L285.096 120.657H285.056Z" fill="#020617"/>
<path d="M409.406 111.407C404.786 108.687 398.666 106.147 391.026 103.797C386.666 102.377 383.246 101.047 380.766 99.8271C378.286 98.6171 376.566 97.2271 375.606 95.6771C374.636 94.1271 374.156 92.2971 374.156 90.1971C374.156 86.5071 375.586 83.6571 378.436 81.6371C381.286 79.6271 385.276 78.6171 390.396 78.6171C394.596 78.6171 398.976 79.2471 403.546 80.5071C408.116 81.7671 412.166 83.4871 415.696 85.6671L418.336 70.1871C414.726 68.0071 410.346 66.2671 405.186 64.9671C400.026 63.6671 394.886 63.0171 389.766 63.0171C382.796 63.0171 376.756 64.1471 371.646 66.4171C366.526 68.6871 362.566 71.9171 359.756 76.1071C356.946 80.3071 355.536 85.2571 355.536 90.9571C355.536 95.8271 356.486 100.037 358.366 103.607C360.256 107.177 363.336 110.257 367.616 112.857C371.896 115.457 377.516 117.807 384.486 119.907C389.516 121.417 393.426 122.847 396.196 124.187C398.966 125.527 400.896 127.017 401.986 128.657C403.076 130.297 403.626 132.247 403.626 134.507C403.626 138.457 402.006 141.537 398.776 143.757C395.546 145.977 391.076 147.087 385.376 147.087C380.426 147.087 375.246 146.317 369.836 144.757C364.426 143.207 359.706 141.217 355.676 138.777L353.916 154.757C356.266 156.357 359.206 157.737 362.726 158.907C366.246 160.077 370.046 161.007 374.116 161.677C378.186 162.347 382.236 162.687 386.256 162.687C397.586 162.687 406.476 160.107 412.936 154.947C419.396 149.787 422.626 142.637 422.626 133.487C422.626 128.617 421.576 124.407 419.476 120.837C417.376 117.267 414.026 114.127 409.406 111.397V111.407Z" fill="#020617"/>
<path d="M509.846 65.0273H428.916V80.6273H509.846V65.0273Z" fill="#020617"/>
<path d="M479.006 87.1572H459.746V160.677H479.006V87.1572Z" fill="#020617"/>
<path d="M535.396 120.657L549.486 81.3873L549.576 81.6173L555.556 65.0273H539.926L501.916 160.677H521.046L530.106 135.507H530.146L535.496 120.657H535.396Z" fill="#020617"/>
<path d="M553.036 91.2776L563.586 120.657H542.446L537.096 135.507H568.996L578.056 160.677H598.326L561.406 68.0776L553.036 91.2776Z" fill="#020617"/>
<path d="M660.627 121.917C665.247 119.317 669.017 115.817 671.957 111.407C674.897 107.007 676.367 101.867 676.367 95.9871C676.367 89.6071 674.937 84.1171 672.087 79.4971C669.237 74.8871 665.167 71.3171 659.877 68.7971C654.587 66.2771 648.297 65.0171 640.997 65.0171H634.307V79.4971H638.477C651.227 79.4971 657.607 84.9471 657.607 95.8571C657.607 106.767 651.017 112.217 637.847 112.217H634.307V126.687H644.137L664.277 160.667H685.797L660.627 121.897V121.917Z" fill="#020617"/>
<path d="M627.765 65.0273H609.525V160.687H627.765V65.0273Z" fill="#020617"/>
<path d="M733.68 83.3772L744.17 73.6972C750.54 68.1572 755.46 63.4072 758.92 59.4372C762.39 55.4672 764.79 51.8472 766.14 48.5572C767.48 45.2772 768.15 41.9572 768.15 38.6172C768.15 33.3672 766.8 28.7472 764.1 24.7572C761.4 20.7772 757.6 17.6672 752.69 15.4372C747.78 13.2072 742 12.0972 735.34 12.0972C728.68 12.0972 723.23 13.2772 718.36 15.6272C713.49 17.9872 709.72 21.3272 707.03 25.6672C704.35 30.0072 703 35.1572 703 41.1272H723.09C723.09 38.4772 723.6 36.2172 724.61 34.3572C725.62 32.4972 727.04 31.0772 728.87 30.0972C730.7 29.1172 732.82 28.6172 735.25 28.6172C737.68 28.6172 739.78 29.0872 741.63 30.0272C743.49 30.9672 744.94 32.3072 746 34.0372C747.06 35.7672 747.59 37.8372 747.59 40.2672C747.59 42.4372 747.15 44.4472 746.26 46.2872C745.37 48.1272 744.09 49.9572 742.4 51.7672C740.72 53.5772 738.67 55.5672 736.28 57.7372L704.29 85.7472V100.997H769.22V83.9072H733.67V83.3472L733.68 83.3772ZM788.39 80.1272C785.31 80.1272 782.67 81.2072 780.49 83.3572C778.31 85.5172 777.23 88.1072 777.26 91.1272C777.23 94.2072 778.31 96.8372 780.49 99.0072C782.68 101.177 785.31 102.267 788.39 102.267C790.36 102.267 792.18 101.767 793.85 100.767C795.52 99.7672 796.88 98.4272 797.92 96.7372C798.96 95.0572 799.5 93.1772 799.53 91.1272C799.5 88.0972 798.37 85.5072 796.13 83.3572C793.89 81.1972 791.31 80.1272 788.4 80.1272H788.39ZM871.17 32.7972C868.17 26.0572 863.9 20.9272 858.34 17.3972C852.79 13.8672 846.18 12.1072 838.53 12.1072C830.88 12.1072 824.29 13.8672 818.76 17.3972C813.24 20.9272 808.98 26.0472 806 32.7772C803.02 39.4972 801.51 47.6772 801.48 57.2972C801.45 66.9172 802.94 75.1472 805.93 81.9872C808.93 88.8272 813.2 94.0672 818.73 97.7072C824.27 101.347 830.87 103.167 838.52 103.167C846.17 103.167 852.8 101.357 858.33 97.7472C863.86 94.1372 868.12 88.9072 871.12 82.0472C874.12 75.1972 875.62 66.9472 875.62 57.2872C875.65 47.6972 874.16 39.5272 871.17 32.7872V32.7972ZM849.63 78.8172C846.8 83.4872 843.11 85.8172 838.54 85.8172C835.51 85.8172 832.84 84.7872 830.53 82.7172C828.22 80.6472 826.43 77.4972 825.16 73.2772C823.89 69.0472 823.27 63.7272 823.3 57.3072C823.33 47.8272 824.74 40.7972 827.54 36.2172C830.34 31.6372 834.01 29.3472 838.55 29.3472C841.61 29.3472 844.27 30.3572 846.56 32.3872C848.85 34.4172 850.63 37.4872 851.91 41.6172C853.2 45.7472 853.84 50.9772 853.84 57.3172C853.87 66.9972 852.47 74.1672 849.64 78.8372L849.63 78.8172Z" fill="#03E2FE"/>
<path d="M249.869 242V210.727H262.909C265.251 210.727 267.21 211.058 268.788 211.72C270.376 212.382 271.567 213.308 272.361 214.499C273.166 215.69 273.568 217.069 273.568 218.637C273.568 219.828 273.318 220.892 272.819 221.828C272.321 222.755 271.633 223.523 270.758 224.134C269.882 224.745 268.87 225.173 267.719 225.417V225.722C268.982 225.783 270.147 226.124 271.216 226.745C272.295 227.366 273.16 228.232 273.812 229.341C274.463 230.441 274.789 231.744 274.789 233.25C274.789 234.93 274.362 236.432 273.507 237.755C272.651 239.068 271.415 240.107 269.796 240.87C268.177 241.623 266.213 242 263.902 242H249.869ZM257.427 235.907H262.1C263.739 235.907 264.945 235.597 265.719 234.976C266.503 234.355 266.895 233.49 266.895 232.38C266.895 231.576 266.706 230.884 266.33 230.303C265.953 229.713 265.419 229.26 264.726 228.944C264.034 228.618 263.204 228.456 262.237 228.456H257.427V235.907ZM257.427 223.585H261.611C262.436 223.585 263.169 223.447 263.81 223.172C264.452 222.897 264.95 222.5 265.307 221.981C265.673 221.462 265.856 220.836 265.856 220.103C265.856 219.054 265.485 218.23 264.742 217.629C263.998 217.029 262.996 216.728 261.733 216.728H257.427V223.585ZM297.343 210.727H304.886V230.899C304.886 233.23 304.331 235.261 303.222 236.991C302.112 238.712 300.565 240.045 298.58 240.992C296.595 241.929 294.289 242.397 291.662 242.397C289.005 242.397 286.684 241.929 284.699 240.992C282.714 240.045 281.172 238.712 280.073 236.991C278.973 235.261 278.423 233.23 278.423 230.899V210.727H285.982V230.242C285.982 231.321 286.216 232.283 286.684 233.128C287.163 233.973 287.83 234.635 288.685 235.113C289.54 235.592 290.532 235.831 291.662 235.831C292.792 235.831 293.78 235.592 294.625 235.113C295.48 234.635 296.147 233.973 296.625 233.128C297.104 232.283 297.343 231.321 297.343 230.242V210.727ZM317.182 210.727V242H309.624V210.727H317.182ZM321.927 242V210.727H329.486V235.862H342.496V242H321.927ZM357.968 242H346.409V210.727H357.953C361.139 210.727 363.883 211.353 366.183 212.605C368.494 213.847 370.276 215.639 371.528 217.98C372.78 220.312 373.406 223.101 373.406 226.348C373.406 229.606 372.78 232.405 371.528 234.747C370.286 237.088 368.509 238.885 366.199 240.137C363.888 241.379 361.144 242 357.968 242ZM353.967 235.556H357.678C359.429 235.556 360.91 235.261 362.122 234.67C363.343 234.07 364.264 233.098 364.885 231.754C365.517 230.4 365.832 228.598 365.832 226.348C365.832 224.099 365.517 222.307 364.885 220.973C364.254 219.63 363.323 218.663 362.091 218.072C360.869 217.471 359.363 217.171 357.571 217.171H353.967V235.556ZM385.378 210.727V242H377.819V210.727H385.378ZM416.738 210.727V242H410.325L397.88 223.951H397.681V242H390.123V210.727H396.628L408.935 228.746H409.195V210.727H416.738ZM442.014 220.943C441.841 220.301 441.586 219.737 441.25 219.248C440.914 218.749 440.502 218.327 440.013 217.98C439.525 217.634 438.965 217.375 438.334 217.202C437.702 217.018 437.01 216.927 436.257 216.927C434.74 216.927 433.427 217.293 432.317 218.026C431.218 218.759 430.368 219.828 429.767 221.233C429.166 222.628 428.866 224.323 428.866 226.318C428.866 228.323 429.156 230.033 429.737 231.449C430.317 232.864 431.157 233.943 432.256 234.686C433.356 235.429 434.689 235.8 436.257 235.8C437.641 235.8 438.812 235.576 439.769 235.129C440.736 234.67 441.469 234.024 441.968 233.189C442.467 232.355 442.716 231.372 442.716 230.242L444.121 230.41H436.516V224.898H450V229.036C450 231.835 449.404 234.233 448.213 236.228C447.032 238.223 445.403 239.755 443.327 240.824C441.26 241.893 438.883 242.428 436.196 242.428C433.213 242.428 430.592 241.781 428.332 240.488C426.072 239.195 424.311 237.353 423.048 234.961C421.786 232.558 421.155 229.708 421.155 226.409C421.155 223.844 421.537 221.569 422.3 219.584C423.064 217.589 424.127 215.899 425.492 214.514C426.866 213.13 428.454 212.081 430.256 211.369C432.068 210.656 434.017 210.3 436.104 210.3C437.916 210.3 439.601 210.559 441.158 211.078C442.726 211.598 444.111 212.331 445.312 213.277C446.523 214.224 447.506 215.349 448.259 216.652C449.012 217.955 449.481 219.385 449.664 220.943H442.014ZM462.67 216.866V210.727H489.102V216.866H479.619V242H472.168V216.866H462.67ZM492.794 242V210.727H500.352V223.279H512.675V210.727H520.218V242H512.675V229.433H500.352V242H492.794ZM524.96 242V210.727H546.765V216.866H532.518V223.279H545.65V229.433H532.518V235.862H546.765V242H524.96ZM579.656 210.727H587.2V230.899C587.2 233.23 586.645 235.261 585.535 236.991C584.426 238.712 582.878 240.045 580.893 240.992C578.908 241.929 576.602 242.397 573.976 242.397C571.319 242.397 568.998 241.929 567.013 240.992C565.028 240.045 563.486 238.712 562.386 236.991C561.287 235.261 560.737 233.23 560.737 230.899V210.727H568.296V230.242C568.296 231.321 568.53 232.283 568.998 233.128C569.476 233.973 570.143 234.635 570.998 235.113C571.853 235.592 572.846 235.831 573.976 235.831C575.106 235.831 576.093 235.592 576.938 235.113C577.793 234.635 578.46 233.973 578.939 233.128C579.417 232.283 579.656 231.321 579.656 230.242V210.727ZM618.553 210.727V242H612.139L599.694 223.951H599.496V242H591.937V210.727H598.442L610.75 228.746H611.009V210.727H618.553ZM640.209 220.103C640.107 218.983 639.654 218.113 638.85 217.492C638.056 216.861 636.921 216.545 635.445 216.545C634.468 216.545 633.653 216.672 633.002 216.927C632.35 217.181 631.862 217.533 631.536 217.98C631.21 218.418 631.042 218.922 631.032 219.492C631.011 219.96 631.103 220.373 631.307 220.729C631.52 221.085 631.826 221.401 632.223 221.676C632.63 221.94 633.119 222.175 633.689 222.378C634.259 222.582 634.9 222.76 635.613 222.913L638.3 223.523C639.848 223.859 641.212 224.307 642.393 224.867C643.584 225.427 644.581 226.094 645.386 226.868C646.2 227.641 646.816 228.532 647.233 229.54C647.651 230.548 647.864 231.678 647.875 232.93C647.864 234.905 647.366 236.6 646.378 238.015C645.391 239.43 643.971 240.514 642.118 241.267C640.275 242.02 638.051 242.397 635.445 242.397C632.829 242.397 630.548 242.005 628.604 241.221C626.66 240.437 625.148 239.246 624.069 237.648C622.99 236.05 622.435 234.029 622.404 231.586H629.642C629.703 232.594 629.973 233.434 630.452 234.105C630.93 234.777 631.587 235.286 632.421 235.632C633.266 235.979 634.244 236.152 635.353 236.152C636.371 236.152 637.237 236.014 637.949 235.739C638.672 235.464 639.227 235.083 639.614 234.594C640 234.105 640.199 233.546 640.209 232.914C640.199 232.324 640.016 231.82 639.659 231.403C639.303 230.975 638.753 230.609 638.01 230.303C637.277 229.988 636.341 229.698 635.201 229.433L631.933 228.669C629.225 228.048 627.092 227.046 625.535 225.661C623.977 224.267 623.203 222.383 623.214 220.011C623.203 218.077 623.723 216.382 624.771 214.926C625.82 213.471 627.27 212.336 629.123 211.521C630.976 210.707 633.088 210.3 635.46 210.3C637.883 210.3 639.985 210.712 641.767 211.537C643.558 212.351 644.948 213.496 645.935 214.972C646.923 216.448 647.427 218.159 647.447 220.103H640.209ZM650.669 216.866V210.727H677.101V216.866H667.618V242H660.167V216.866H650.669ZM708.882 226.364C708.882 229.804 708.22 232.721 706.896 235.113C705.573 237.506 703.781 239.323 701.521 240.565C699.272 241.807 696.747 242.428 693.948 242.428C691.138 242.428 688.608 241.801 686.358 240.549C684.109 239.297 682.322 237.48 680.999 235.098C679.686 232.706 679.029 229.794 679.029 226.364C679.029 222.923 679.686 220.006 680.999 217.614C682.322 215.222 684.109 213.405 686.358 212.163C688.608 210.921 691.138 210.3 693.948 210.3C696.747 210.3 699.272 210.921 701.521 212.163C703.781 213.405 705.573 215.222 706.896 217.614C708.22 220.006 708.882 222.923 708.882 226.364ZM701.155 226.364C701.155 224.328 700.865 222.607 700.285 221.202C699.715 219.798 698.89 218.734 697.811 218.011C696.742 217.288 695.454 216.927 693.948 216.927C692.451 216.927 691.163 217.288 690.084 218.011C689.005 218.734 688.176 219.798 687.595 221.202C687.025 222.607 686.74 224.328 686.74 226.364C686.74 228.4 687.025 230.12 687.595 231.525C688.176 232.93 689.005 233.993 690.084 234.716C691.163 235.439 692.451 235.8 693.948 235.8C695.454 235.8 696.742 235.439 697.811 234.716C698.89 233.993 699.715 232.93 700.285 231.525C700.865 230.12 701.155 228.4 701.155 226.364ZM713.295 242V210.727H726.213C728.554 210.727 730.575 211.185 732.275 212.102C733.985 213.008 735.304 214.275 736.23 215.904C737.156 217.522 737.619 219.406 737.619 221.554C737.619 223.712 737.146 225.6 736.199 227.219C735.263 228.827 733.924 230.074 732.183 230.96C730.443 231.846 728.376 232.288 725.984 232.288H718.013V226.333H724.579C725.719 226.333 726.671 226.135 727.434 225.738C728.208 225.341 728.793 224.786 729.19 224.073C729.588 223.35 729.786 222.511 729.786 221.554C729.786 220.587 729.588 219.752 729.19 219.049C728.793 218.337 728.208 217.787 727.434 217.4C726.661 217.013 725.709 216.82 724.579 216.82H720.853V242H713.295ZM741.345 242V210.727H754.264C756.605 210.727 758.626 211.185 760.326 212.102C762.036 213.008 763.354 214.275 764.281 215.904C765.207 217.522 765.67 219.406 765.67 221.554C765.67 223.712 765.197 225.6 764.25 227.219C763.314 228.827 761.975 230.074 760.234 230.96C758.493 231.846 756.427 232.288 754.035 232.288H746.064V226.333H752.63C753.77 226.333 754.722 226.135 755.485 225.738C756.259 225.341 756.844 224.786 757.241 224.073C757.638 223.35 757.837 222.511 757.837 221.554C757.837 220.587 757.638 219.752 757.241 219.049C756.844 218.337 756.259 217.787 755.485 217.4C754.712 217.013 753.76 216.82 752.63 216.82H748.904V242H741.345ZM772.381 242H764.258L774.809 210.727H784.872L795.424 242H787.3L779.955 218.607H779.711L772.381 242ZM771.297 229.692H788.277V235.434H771.297V229.692ZM798.791 242V210.727H811.831C814.173 210.727 816.132 211.058 817.71 211.72C819.298 212.382 820.489 213.308 821.283 214.499C822.087 215.69 822.49 217.069 822.49 218.637C822.49 219.828 822.24 220.892 821.741 221.828C821.242 222.755 820.555 223.523 819.68 224.134C818.804 224.745 817.791 225.173 816.641 225.417V225.722C817.903 225.783 819.069 226.124 820.138 226.745C821.217 227.366 822.082 228.232 822.734 229.341C823.385 230.441 823.711 231.744 823.711 233.25C823.711 234.93 823.284 236.432 822.428 237.755C821.573 239.068 820.336 240.107 818.718 240.87C817.099 241.623 815.135 242 812.824 242H798.791ZM806.349 235.907H811.022C812.661 235.907 813.867 235.597 814.641 234.976C815.425 234.355 815.817 233.49 815.817 232.38C815.817 231.576 815.628 230.884 815.252 230.303C814.875 229.713 814.34 229.26 813.648 228.944C812.956 228.618 812.126 228.456 811.159 228.456H806.349V235.907ZM806.349 223.585H810.533C811.358 223.585 812.091 223.447 812.732 223.172C813.373 222.897 813.872 222.5 814.228 221.981C814.595 221.462 814.778 220.836 814.778 220.103C814.778 219.054 814.407 218.23 813.664 217.629C812.92 217.029 811.918 216.728 810.655 216.728H806.349V223.585ZM827.345 242V210.727H834.904V235.862H847.914V242H827.345ZM851.827 242V210.727H873.632V216.866H859.385V223.279H872.517V229.433H859.385V235.862H873.632V242H851.827Z" fill="#03E2FE"/>
<defs>
<linearGradient id="paint0_linear_264_12103" x1="34.7956" y1="184.367" x2="174.536" y2="44.6373" gradientUnits="userSpaceOnUse">
<stop stop-color="#E6007A"/>
<stop offset="0.21" stop-color="#703AC2"/>
<stop offset="0.46" stop-color="#006BE7"/>
<stop offset="0.77" stop-color="#0094F8"/>
<stop offset="1" stop-color="#03E2FE"/>
</linearGradient>
<radialGradient id="paint1_radial_264_12103" cx="0" cy="0" r="1" gradientUnits="userSpaceOnUse" gradientTransform="translate(140.815 87.397) scale(41.67 41.67)">
<stop stop-color="white"/>
<stop offset="1" stop-color="white" stop-opacity="0"/>
</radialGradient>
<radialGradient id="paint2_radial_264_12103" cx="0" cy="0" r="1" gradientUnits="userSpaceOnUse" gradientTransform="translate(79.2258 164.697) scale(24.24 24.24)">
<stop stop-color="white"/>
<stop offset="1" stop-color="white" stop-opacity="0"/>
</radialGradient>
<linearGradient id="paint3_linear_264_12103" x1="42.8459" y1="160.597" x2="66.2159" y2="160.267" gradientUnits="userSpaceOnUse">
<stop stop-color="white" stop-opacity="0"/>
<stop offset="1" stop-color="white"/>
</linearGradient>
<radialGradient id="paint4_radial_264_12103" cx="0" cy="0" r="1" gradientUnits="userSpaceOnUse" gradientTransform="translate(74.7517 93.625) rotate(-120) scale(41.67 41.67)">
<stop stop-color="white"/>
<stop offset="1" stop-color="white" stop-opacity="0"/>
</radialGradient>
<radialGradient id="paint5_radial_264_12103" cx="0" cy="0" r="1" gradientUnits="userSpaceOnUse" gradientTransform="translate(172.483 108.318) rotate(-120) scale(24.24)">
<stop stop-color="white"/>
<stop offset="1" stop-color="white" stop-opacity="0"/>
</radialGradient>
<linearGradient id="paint6_linear_264_12103" x1="187.121" y1="141.874" x2="175.159" y2="121.795" gradientUnits="userSpaceOnUse">
<stop stop-color="white" stop-opacity="0"/>
<stop offset="1" stop-color="white"/>
</linearGradient>
<radialGradient id="paint7_radial_264_12103" cx="0" cy="0" r="1" gradientUnits="userSpaceOnUse" gradientTransform="translate(111.201 145.8) rotate(120) scale(41.67)">
<stop stop-color="white"/>
<stop offset="1" stop-color="white" stop-opacity="0"/>
</radialGradient>
<radialGradient id="paint8_radial_264_12103" cx="0" cy="0" r="1" gradientUnits="userSpaceOnUse" gradientTransform="translate(77.0253 55.7357) rotate(120) scale(24.24 24.24)">
<stop stop-color="white"/>
<stop offset="1" stop-color="white" stop-opacity="0"/>
</radialGradient>
<linearGradient id="paint9_linear_264_12103" x1="98.7645" y1="26.2794" x2="87.3653" y2="46.6834" gradientUnits="userSpaceOnUse">
<stop stop-color="white" stop-opacity="0"/>
<stop offset="1" stop-color="white"/>
</linearGradient>
<linearGradient id="paint10_linear_264_12103" x1="103.837" y1="15.9175" x2="68.1366" y2="26.2975" gradientUnits="userSpaceOnUse">
<stop stop-color="#231F20"/>
<stop offset="1" stop-color="white"/>
</linearGradient>
<linearGradient id="paint11_linear_264_12103" x1="36.3759" y1="152.067" x2="66.2359" y2="183.227" gradientUnits="userSpaceOnUse">
<stop stop-color="#231F20"/>
<stop offset="1" stop-color="white"/>
</linearGradient>
<linearGradient id="paint12_linear_264_12103" x1="196.627" y1="147.377" x2="207.007" y2="115.787" gradientUnits="userSpaceOnUse">
<stop stop-color="#231F20"/>
<stop offset="1" stop-color="white"/>
</linearGradient>
<linearGradient id="paint13_linear_264_12103" x1="120.105" y1="33.9772" x2="167.965" y2="44.9372" gradientUnits="userSpaceOnUse">
<stop stop-color="#231F20"/>
<stop offset="1" stop-color="white"/>
</linearGradient>
<linearGradient id="paint14_linear_264_12103" x1="169.792" y1="156.498" x2="136.371" y2="192.466" gradientUnits="userSpaceOnUse">
<stop stop-color="#231F20"/>
<stop offset="1" stop-color="white"/>
</linearGradient>
<linearGradient id="paint15_linear_264_12103" x1="38.8498" y1="138.294" x2="24.4114" y2="91.3662" gradientUnits="userSpaceOnUse">
<stop stop-color="#231F20"/>
<stop offset="1" stop-color="white"/>
</linearGradient>
<linearGradient id="paint16_linear_264_12103" x1="130.566" y1="51.6272" x2="115.426" y2="66.7772" gradientUnits="userSpaceOnUse">
<stop stop-color="#231F20"/>
<stop offset="1" stop-color="white"/>
</linearGradient>
<linearGradient id="paint17_linear_264_12103" x1="48.8993" y1="120.387" x2="69.5809" y2="125.928" gradientUnits="userSpaceOnUse">
<stop stop-color="#231F20"/>
<stop offset="1" stop-color="white"/>
</linearGradient>
<linearGradient id="paint18_linear_264_12103" x1="149.276" y1="156.732" x2="143.726" y2="136.045" gradientUnits="userSpaceOnUse">
<stop stop-color="#231F20"/>
<stop offset="1" stop-color="white"/>
</linearGradient>
<linearGradient id="paint19_linear_264_12103" x1="117.775" y1="138.327" x2="126.865" y2="125.787" gradientUnits="userSpaceOnUse">
<stop stop-color="#231F20"/>
<stop offset="1" stop-color="white"/>
</linearGradient>
<linearGradient id="paint20_linear_264_12103" x1="86.4849" y1="132.897" x2="68.3149" y2="141.557" gradientUnits="userSpaceOnUse">
<stop stop-color="#231F20"/>
<stop offset="1" stop-color="white"/>
</linearGradient>
<linearGradient id="paint21_linear_264_12103" x1="79.8949" y1="102.647" x2="85.5149" y2="114.327" gradientUnits="userSpaceOnUse">
<stop stop-color="#231F20"/>
<stop offset="1" stop-color="white"/>
</linearGradient>
<linearGradient id="paint22_linear_264_12103" x1="106.055" y1="66.567" x2="102.165" y2="53.147" gradientUnits="userSpaceOnUse">
<stop stop-color="#231F20"/>
<stop offset="1" stop-color="white"/>
</linearGradient>
<linearGradient id="paint23_linear_264_12103" x1="148.036" y1="127.977" x2="159.286" y2="130.577" gradientUnits="userSpaceOnUse">
<stop stop-color="#231F20"/>
<stop offset="1" stop-color="white"/>
</linearGradient>
<linearGradient id="paint24_linear_264_12103" x1="130.376" y1="89.9773" x2="116.096" y2="87.3773" gradientUnits="userSpaceOnUse">
<stop stop-color="#231F20"/>
<stop offset="1" stop-color="white"/>
</linearGradient>
</defs>
</svg>
