<svg width="228" height="228" viewBox="0 0 228 228" fill="none" xmlns="http://www.w3.org/2000/svg">
<path d="M226.716 106.35C222.481 44.0689 168.583 -2.97086 106.332 1.26504C75.3126 3.37332 48.0836 17.8218 29.0736 39.4655L29.0156 39.4268C28.8802 39.6009 28.7642 39.775 28.6482 39.9491C9.77354 61.7282 -0.843441 90.6638 1.26448 121.688C1.45787 124.648 1.80597 127.549 2.23142 130.431C2.23142 130.566 2.2701 130.682 2.28944 130.818C2.57952 132.713 2.90828 134.609 3.27572 136.466C3.27572 136.504 3.27572 136.543 3.29505 136.562C3.64315 138.245 4.01059 139.928 4.43604 141.591C17.4897 193.641 66.2427 230.507 121.668 226.735C183.919 222.499 230.97 168.593 226.735 106.311L226.716 106.35ZM202.117 108.033C202.639 115.692 202.156 123.197 200.782 130.431C200.782 130.392 200.744 130.354 200.744 130.315C192.544 110.296 176.338 95.8281 162.105 87.8399C164.986 53.914 153.48 39.6009 140.446 37.2799C140.097 37.2025 139.73 37.1445 139.382 37.1058C129.036 35.7712 119.579 43.0825 118.264 53.4304C116.93 63.7784 124.24 73.2367 134.586 74.5519C135.495 74.668 136.384 74.7066 137.255 74.6873C137.313 75.8285 137.351 77.047 137.351 78.3236C125.303 75.3449 114.048 74.7453 103.779 75.6738C99.9308 75.9252 96.1018 76.4088 92.2727 77.1244C93.5491 65.6739 97.8616 52.7922 106.197 43.3919C114.261 34.2819 126.251 29.0789 139.324 30.4135C141.799 30.6649 144.449 31.2838 146.827 32.0769C146.943 32.1155 147.059 32.1542 147.156 32.1736C177.441 44.5138 199.738 73.2753 202.098 108.033H202.117ZM123.35 125.286C123.35 125.286 123.35 125.305 123.331 125.325C120.643 129.212 117.432 133.042 113.661 136.756C108.014 130.76 103.489 124.28 100.047 117.588C99.8728 117.22 99.6794 116.892 99.5054 116.524C99.5054 116.524 99.5054 116.505 99.5054 116.485C97.4942 112.211 95.773 107.511 94.4386 102.385C102.464 100.49 110.335 99.7932 117.858 100.161C118.264 100.18 118.651 100.199 119.057 100.219H119.096C123.814 100.606 128.726 101.476 133.812 102.869C131.434 110.76 128.107 117.936 124.027 124.261C123.814 124.59 123.601 124.919 123.369 125.267L123.35 125.286ZM84.7499 30.6456C84.7499 30.6456 84.7112 30.7036 84.6919 30.7229C71.4448 47.8213 67.0356 69.0781 67.229 85.4028C36.403 99.8706 29.7892 116.988 34.2757 129.445C34.3918 129.793 34.5272 130.122 34.6625 130.45C38.685 140.063 49.7468 144.609 59.3581 140.586C68.9695 136.562 73.5141 125.499 69.4916 115.886C69.1435 115.054 68.7181 114.261 68.2733 113.507C69.2402 112.868 70.2845 112.23 71.4062 111.573C74.8485 123.507 79.9346 133.584 85.8716 142.017C88.0182 145.208 90.3388 148.284 92.8722 151.243C82.3132 155.866 69.0082 158.574 56.6894 156.059C44.7767 153.622 34.2757 145.847 28.8802 133.855C27.8553 131.572 27.0624 128.98 26.5596 126.524C26.2502 124.377 25.9988 122.211 25.8441 120.006C23.0979 79.5228 48.1997 43.4887 84.7499 30.6456V30.6456ZM119.985 202.151C95.9471 203.795 73.4754 195.594 56.496 181.01C77.9233 183.931 98.5385 177.123 112.578 168.786C140.523 188.264 158.663 185.44 167.21 175.324C167.442 175.053 167.675 174.763 167.887 174.473C174.211 166.175 172.606 154.338 164.31 148.013C156.013 141.688 144.178 143.293 137.854 151.591C137.313 152.307 136.829 153.08 136.404 153.854C135.379 153.332 134.296 152.752 133.194 152.113C141.819 143.158 147.949 133.7 152.281 124.338C153.983 120.876 155.472 117.317 156.767 113.642C166.05 120.489 175.062 130.644 179.046 142.578C182.894 154.106 181.424 167.103 173.728 177.761C172.277 179.772 170.421 181.765 168.545 183.428C168.525 183.447 168.487 183.486 168.467 183.505C155.008 194.086 138.338 200.894 120.004 202.132L119.985 202.151Z" fill="url(#paint0_linear_371_1405)" stroke="#0075FF"/>
<path style="mix-blend-mode:multiply" opacity="0.6" d="M134.58 74.5322C135.489 74.6482 136.378 74.6869 137.249 74.6676C137.249 74.6676 136.649 62.927 135.218 56.8923C133.768 50.8769 131.64 46.8731 129.32 44.6101C127.637 42.9853 122.358 40.9738 118.258 53.3914C116.924 63.7393 124.234 73.1976 134.58 74.5128V74.5322Z" fill="url(#paint1_linear_371_1405)"/>
<path style="mix-blend-mode:multiply" opacity="0.5" d="M69.5025 115.924C69.1544 115.092 68.7289 114.299 68.2841 113.545C68.2841 113.545 58.402 119.928 53.9154 124.183C49.4288 128.438 47.0308 132.287 46.2379 135.44C45.6771 137.703 46.5667 143.274 59.369 140.624C68.9803 136.601 73.5249 125.537 69.5025 115.924V115.924Z" fill="url(#paint2_linear_371_1405)"/>
<path style="mix-blend-mode:multiply" opacity="0.6" d="M137.866 151.572C137.324 152.287 136.841 153.061 136.416 153.835C136.416 153.835 146.878 159.192 152.815 160.952C158.752 162.713 163.277 162.867 166.391 161.978C168.634 161.339 173.004 157.761 164.321 148.013C156.025 141.688 144.19 143.293 137.866 151.591V151.572Z" fill="url(#paint3_linear_371_1405)"/>
<defs>
<linearGradient id="paint0_linear_371_1405" x1="1" y1="167.361" x2="221.682" y2="167.361" gradientUnits="userSpaceOnUse">
<stop stop-color="#0047FF"/>
<stop offset="1" stop-color="#00D4FF"/>
</linearGradient>
<linearGradient id="paint1_linear_371_1405" x1="135.624" y1="54.2424" x2="120.015" y2="69.8681" gradientUnits="userSpaceOnUse">
<stop stop-color="#231F20"/>
<stop offset="1" stop-color="white"/>
</linearGradient>
<linearGradient id="paint2_linear_371_1405" x1="51.4209" y1="125.136" x2="72.7498" y2="130.864" gradientUnits="userSpaceOnUse">
<stop stop-color="#231F20"/>
<stop offset="1" stop-color="white"/>
</linearGradient>
<linearGradient id="paint3_linear_371_1405" x1="154.901" y1="162.628" x2="149.187" y2="141.306" gradientUnits="userSpaceOnUse">
<stop stop-color="#231F20"/>
<stop offset="1" stop-color="white"/>
</linearGradient>
</defs>
</svg>
