<svg width="723" height="104" viewBox="0 0 723 104" fill="none" xmlns="http://www.w3.org/2000/svg">
<g clip-path="url(#clip0_364_1374)">
<path d="M695.131 30.808C703.494 30.808 710.15 33.5387 715.099 39C720.134 44.376 722.651 51.8 722.651 61.272V103H700.891V64.216C700.891 59.4373 699.654 55.7253 697.179 53.08C694.704 50.4347 691.376 49.112 687.195 49.112C683.014 49.112 679.686 50.4347 677.211 53.08C674.736 55.7253 673.499 59.4373 673.499 64.216V103H651.611V31.576H673.499V41.048C675.718 37.8906 678.704 35.416 682.459 33.624C686.214 31.7466 690.438 30.808 695.131 30.808Z" fill="#020617"/>
<path d="M606.463 104.024C599.466 104.024 593.151 102.531 587.519 99.544C581.972 96.5573 577.578 92.2907 574.335 86.744C571.178 81.1973 569.599 74.712 569.599 67.288C569.599 59.9493 571.22 53.5067 574.463 47.96C577.706 42.328 582.143 38.0187 587.775 35.032C593.407 32.0453 599.722 30.552 606.719 30.552C613.716 30.552 620.031 32.0453 625.663 35.032C631.295 38.0187 635.732 42.328 638.975 47.96C642.218 53.5067 643.839 59.9493 643.839 67.288C643.839 74.6267 642.175 81.112 638.847 86.744C635.605 92.2907 631.124 96.5573 625.407 99.544C619.775 102.531 613.46 104.024 606.463 104.024ZM606.463 85.08C610.644 85.08 614.186 83.544 617.087 80.472C620.074 77.4 621.567 73.0053 621.567 67.288C621.567 61.5707 620.116 57.176 617.215 54.104C614.399 51.032 610.9 49.496 606.719 49.496C602.452 49.496 598.911 51.032 596.095 54.104C593.279 57.0907 591.871 61.4853 591.871 67.288C591.871 73.0053 593.236 77.4 595.967 80.472C598.783 83.544 602.282 85.08 606.463 85.08Z" fill="#020617"/>
<path d="M551.049 24.152C547.209 24.152 544.052 23.0427 541.577 20.824C539.188 18.52 537.993 15.704 537.993 12.376C537.993 8.96266 539.188 6.14665 541.577 3.92799C544.052 1.62399 547.209 0.471985 551.049 0.471985C554.804 0.471985 557.876 1.62399 560.265 3.92799C562.74 6.14665 563.977 8.96266 563.977 12.376C563.977 15.704 562.74 18.52 560.265 20.824C557.876 23.0427 554.804 24.152 551.049 24.152ZM561.929 31.576V103H540.041V31.576H561.929Z" fill="#020617"/>
<path d="M501.562 104.024C495.333 104.024 489.786 102.957 484.922 100.824C480.058 98.6907 476.218 95.7893 473.402 92.12C470.586 88.3653 469.007 84.184 468.666 79.576H490.298C490.554 82.0507 491.706 84.056 493.754 85.592C495.802 87.128 498.319 87.896 501.306 87.896C504.037 87.896 506.127 87.384 507.578 86.36C509.114 85.2507 509.882 83.8427 509.882 82.136C509.882 80.088 508.815 78.5947 506.682 77.656C504.549 76.632 501.093 75.5227 496.314 74.328C491.194 73.1333 486.927 71.896 483.514 70.616C480.101 69.2507 477.157 67.16 474.682 64.344C472.207 61.4427 470.97 57.56 470.97 52.696C470.97 48.6 472.079 44.888 474.298 41.56C476.602 38.1467 479.93 35.4587 484.282 33.496C488.719 31.5333 493.967 30.552 500.026 30.552C508.986 30.552 516.026 32.7707 521.146 37.208C526.351 41.6453 529.338 47.5333 530.106 54.872H509.882C509.541 52.3973 508.431 50.4347 506.554 48.984C504.762 47.5333 502.373 46.808 499.386 46.808C496.826 46.808 494.863 47.32 493.498 48.344C492.133 49.2827 491.45 50.6053 491.45 52.312C491.45 54.36 492.517 55.896 494.65 56.92C496.869 57.944 500.282 58.968 504.89 59.992C510.181 61.3573 514.49 62.7227 517.818 64.088C521.146 65.368 524.047 67.5013 526.522 70.488C529.082 73.3893 530.405 77.3147 530.49 82.264C530.49 86.4453 529.295 90.2 526.906 93.528C524.602 96.7707 521.231 99.3307 516.794 101.208C512.442 103.085 507.365 104.024 501.562 104.024Z" fill="#020617"/>
<path d="M434.027 104.024C427.798 104.024 422.251 102.957 417.387 100.824C412.523 98.6907 408.683 95.7893 405.867 92.12C403.051 88.3653 401.472 84.184 401.131 79.576H422.763C423.019 82.0507 424.171 84.056 426.219 85.592C428.267 87.128 430.784 87.896 433.771 87.896C436.502 87.896 438.592 87.384 440.043 86.36C441.579 85.2507 442.347 83.8427 442.347 82.136C442.347 80.088 441.28 78.5947 439.147 77.656C437.014 76.632 433.558 75.5227 428.779 74.328C423.659 73.1333 419.392 71.896 415.979 70.616C412.566 69.2507 409.622 67.16 407.147 64.344C404.672 61.4427 403.435 57.56 403.435 52.696C403.435 48.6 404.544 44.888 406.763 41.56C409.067 38.1467 412.395 35.4587 416.747 33.496C421.184 31.5333 426.432 30.552 432.491 30.552C441.451 30.552 448.491 32.7707 453.611 37.208C458.816 41.6453 461.803 47.5333 462.571 54.872H442.347C442.006 52.3973 440.896 50.4347 439.019 48.984C437.227 47.5333 434.838 46.808 431.851 46.808C429.291 46.808 427.328 47.32 425.963 48.344C424.598 49.2827 423.915 50.6053 423.915 52.312C423.915 54.36 424.982 55.896 427.115 56.92C429.334 57.944 432.747 58.968 437.355 59.992C442.646 61.3573 446.955 62.7227 450.283 64.088C453.611 65.368 456.512 67.5013 458.987 70.488C461.547 73.3893 462.87 77.3147 462.955 82.264C462.955 86.4453 461.76 90.2 459.371 93.528C457.067 96.7707 453.696 99.3307 449.259 101.208C444.907 103.085 439.83 104.024 434.027 104.024Z" fill="#020617"/>
<path d="M382.069 24.152C378.229 24.152 375.072 23.0427 372.597 20.824C370.208 18.52 369.013 15.704 369.013 12.376C369.013 8.96266 370.208 6.14665 372.597 3.92799C375.072 1.62399 378.229 0.471985 382.069 0.471985C385.824 0.471985 388.896 1.62399 391.285 3.92799C393.76 6.14665 394.997 8.96266 394.997 12.376C394.997 15.704 393.76 18.52 391.285 20.824C388.896 23.0427 385.824 24.152 382.069 24.152ZM392.949 31.576V103H371.061V31.576H392.949Z" fill="#020617"/>
<path d="M359.161 13.144V103H337.273V49.112L317.177 103H299.513L279.289 48.984V103H257.401V13.144H283.257L308.473 75.352L333.433 13.144H359.161Z" fill="#020617"/>
<path d="M205.094 43.48C207.654 39.5546 210.854 36.4826 214.694 34.264C218.534 31.96 222.801 30.808 227.494 30.808V53.976H221.478C216.017 53.976 211.921 55.1706 209.19 57.56C206.459 59.864 205.094 63.96 205.094 69.848V103H183.206V31.576H205.094V43.48Z" fill="#020617"/>
<path d="M171.324 31.5759V103H149.436V93.2719C147.217 96.4293 144.188 98.9893 140.348 100.952C136.593 102.829 132.412 103.768 127.804 103.768C122.343 103.768 117.521 102.573 113.34 100.184C109.159 97.7093 105.916 94.1679 103.612 89.5599C101.308 84.9519 100.156 79.5333 100.156 73.3039V31.5759H121.916V70.3599C121.916 75.1386 123.153 78.8506 125.628 81.4959C128.103 84.1413 131.431 85.4639 135.612 85.4639C139.879 85.4639 143.249 84.1413 145.724 81.4959C148.199 78.8506 149.436 75.1386 149.436 70.3599V31.5759H171.324Z" fill="#020617"/>
<path d="M46.5071 103.896C38.0591 103.896 30.2937 101.933 23.2111 98.008C16.2137 94.0827 10.6244 88.6213 6.44307 81.624C2.34707 74.5413 0.299072 66.6053 0.299072 57.816C0.299072 49.0267 2.34707 41.1333 6.44307 34.136C10.6244 27.1387 16.2137 21.6773 23.2111 17.752C30.2937 13.8267 38.0591 11.864 46.5071 11.864C54.9551 11.864 62.6777 13.8267 69.6751 17.752C76.7577 21.6773 82.3044 27.1387 86.3151 34.136C90.4111 41.1333 92.4591 49.0267 92.4591 57.816C92.4591 66.6053 90.4111 74.5413 86.3151 81.624C82.2191 88.6213 76.6724 94.0827 69.6751 98.008C62.6777 101.933 54.9551 103.896 46.5071 103.896ZM46.5071 83.928C53.6751 83.928 59.3924 81.5387 63.6591 76.76C68.0111 71.9813 70.1871 65.6667 70.1871 57.816C70.1871 49.88 68.0111 43.5653 63.6591 38.872C59.3924 34.0933 53.6751 31.704 46.5071 31.704C39.2537 31.704 33.4511 34.0507 29.0991 38.744C24.8324 43.4373 22.6991 49.7947 22.6991 57.816C22.6991 65.752 24.8324 72.1093 29.0991 76.888C33.4511 81.5813 39.2537 83.928 46.5071 83.928Z" fill="#020617"/>
<mask id="mask0_364_1374" style="mask-type:alpha" maskUnits="userSpaceOnUse" x="0" y="0" width="723" height="105">
<path d="M695.131 30.808C703.494 30.808 710.15 33.5387 715.099 39C720.134 44.376 722.651 51.8 722.651 61.272V103H700.891V64.216C700.891 59.4373 699.654 55.7253 697.179 53.08C694.704 50.4347 691.376 49.112 687.195 49.112C683.014 49.112 679.686 50.4347 677.211 53.08C674.736 55.7253 673.499 59.4373 673.499 64.216V103H651.611V31.576H673.499V41.048C675.718 37.8906 678.704 35.416 682.459 33.624C686.214 31.7466 690.438 30.808 695.131 30.808Z" fill="#020617"/>
<path d="M606.463 104.024C599.466 104.024 593.151 102.531 587.519 99.544C581.972 96.5573 577.578 92.2907 574.335 86.744C571.178 81.1973 569.599 74.712 569.599 67.288C569.599 59.9493 571.22 53.5067 574.463 47.96C577.706 42.328 582.143 38.0187 587.775 35.032C593.407 32.0453 599.722 30.552 606.719 30.552C613.716 30.552 620.031 32.0453 625.663 35.032C631.295 38.0187 635.732 42.328 638.975 47.96C642.218 53.5067 643.839 59.9493 643.839 67.288C643.839 74.6267 642.175 81.112 638.847 86.744C635.605 92.2907 631.124 96.5573 625.407 99.544C619.775 102.531 613.46 104.024 606.463 104.024ZM606.463 85.08C610.644 85.08 614.186 83.544 617.087 80.472C620.074 77.4 621.567 73.0053 621.567 67.288C621.567 61.5707 620.116 57.176 617.215 54.104C614.399 51.032 610.9 49.496 606.719 49.496C602.452 49.496 598.911 51.032 596.095 54.104C593.279 57.0907 591.871 61.4853 591.871 67.288C591.871 73.0053 593.236 77.4 595.967 80.472C598.783 83.544 602.282 85.08 606.463 85.08Z" fill="#020617"/>
<path d="M551.049 24.152C547.209 24.152 544.052 23.0427 541.577 20.824C539.188 18.52 537.993 15.704 537.993 12.376C537.993 8.96266 539.188 6.14665 541.577 3.92799C544.052 1.62399 547.209 0.471985 551.049 0.471985C554.804 0.471985 557.876 1.62399 560.265 3.92799C562.74 6.14665 563.977 8.96266 563.977 12.376C563.977 15.704 562.74 18.52 560.265 20.824C557.876 23.0427 554.804 24.152 551.049 24.152ZM561.929 31.576V103H540.041V31.576H561.929Z" fill="#020617"/>
<path d="M501.562 104.024C495.333 104.024 489.786 102.957 484.922 100.824C480.058 98.6907 476.218 95.7893 473.402 92.12C470.586 88.3653 469.007 84.184 468.666 79.576H490.298C490.554 82.0507 491.706 84.056 493.754 85.592C495.802 87.128 498.319 87.896 501.306 87.896C504.037 87.896 506.127 87.384 507.578 86.36C509.114 85.2507 509.882 83.8427 509.882 82.136C509.882 80.088 508.815 78.5947 506.682 77.656C504.549 76.632 501.093 75.5227 496.314 74.328C491.194 73.1333 486.927 71.896 483.514 70.616C480.101 69.2507 477.157 67.16 474.682 64.344C472.207 61.4427 470.97 57.56 470.97 52.696C470.97 48.6 472.079 44.888 474.298 41.56C476.602 38.1467 479.93 35.4587 484.282 33.496C488.719 31.5333 493.967 30.552 500.026 30.552C508.986 30.552 516.026 32.7707 521.146 37.208C526.351 41.6453 529.338 47.5333 530.106 54.872H509.882C509.541 52.3973 508.431 50.4347 506.554 48.984C504.762 47.5333 502.373 46.808 499.386 46.808C496.826 46.808 494.863 47.32 493.498 48.344C492.133 49.2827 491.45 50.6053 491.45 52.312C491.45 54.36 492.517 55.896 494.65 56.92C496.869 57.944 500.282 58.968 504.89 59.992C510.181 61.3573 514.49 62.7227 517.818 64.088C521.146 65.368 524.047 67.5013 526.522 70.488C529.082 73.3893 530.405 77.3147 530.49 82.264C530.49 86.4453 529.295 90.2 526.906 93.528C524.602 96.7707 521.231 99.3307 516.794 101.208C512.442 103.085 507.365 104.024 501.562 104.024Z" fill="#020617"/>
<path d="M434.027 104.024C427.798 104.024 422.251 102.957 417.387 100.824C412.523 98.6907 408.683 95.7893 405.867 92.12C403.051 88.3653 401.472 84.184 401.131 79.576H422.763C423.019 82.0507 424.171 84.056 426.219 85.592C428.267 87.128 430.784 87.896 433.771 87.896C436.502 87.896 438.592 87.384 440.043 86.36C441.579 85.2507 442.347 83.8427 442.347 82.136C442.347 80.088 441.28 78.5947 439.147 77.656C437.014 76.632 433.558 75.5227 428.779 74.328C423.659 73.1333 419.392 71.896 415.979 70.616C412.566 69.2507 409.622 67.16 407.147 64.344C404.672 61.4427 403.435 57.56 403.435 52.696C403.435 48.6 404.544 44.888 406.763 41.56C409.067 38.1467 412.395 35.4587 416.747 33.496C421.184 31.5333 426.432 30.552 432.491 30.552C441.451 30.552 448.491 32.7707 453.611 37.208C458.816 41.6453 461.803 47.5333 462.571 54.872H442.347C442.006 52.3973 440.896 50.4347 439.019 48.984C437.227 47.5333 434.838 46.808 431.851 46.808C429.291 46.808 427.328 47.32 425.963 48.344C424.598 49.2827 423.915 50.6053 423.915 52.312C423.915 54.36 424.982 55.896 427.115 56.92C429.334 57.944 432.747 58.968 437.355 59.992C442.646 61.3573 446.955 62.7227 450.283 64.088C453.611 65.368 456.512 67.5013 458.987 70.488C461.547 73.3893 462.87 77.3147 462.955 82.264C462.955 86.4453 461.76 90.2 459.371 93.528C457.067 96.7707 453.696 99.3307 449.259 101.208C444.907 103.085 439.83 104.024 434.027 104.024Z" fill="#020617"/>
<path d="M382.069 24.152C378.229 24.152 375.072 23.0427 372.597 20.824C370.208 18.52 369.013 15.704 369.013 12.376C369.013 8.96266 370.208 6.14665 372.597 3.92799C375.072 1.62399 378.229 0.471985 382.069 0.471985C385.824 0.471985 388.896 1.62399 391.285 3.92799C393.76 6.14665 394.997 8.96266 394.997 12.376C394.997 15.704 393.76 18.52 391.285 20.824C388.896 23.0427 385.824 24.152 382.069 24.152ZM392.949 31.576V103H371.061V31.576H392.949Z" fill="#020617"/>
<path d="M359.161 13.144V103H337.273V49.112L317.177 103H299.513L279.289 48.984V103H257.401V13.144H283.257L308.473 75.352L333.433 13.144H359.161Z" fill="#020617"/>
<path d="M205.094 43.48C207.654 39.5546 210.854 36.4826 214.694 34.264C218.534 31.96 222.801 30.808 227.494 30.808V53.976H221.478C216.017 53.976 211.921 55.1706 209.19 57.56C206.459 59.864 205.094 63.96 205.094 69.848V103H183.206V31.576H205.094V43.48Z" fill="#020617"/>
<path d="M171.324 31.5759V103H149.436V93.2719C147.217 96.4293 144.188 98.9893 140.348 100.952C136.593 102.829 132.412 103.768 127.804 103.768C122.343 103.768 117.521 102.573 113.34 100.184C109.159 97.7093 105.916 94.1679 103.612 89.5599C101.308 84.9519 100.156 79.5333 100.156 73.3039V31.5759H121.916V70.3599C121.916 75.1386 123.153 78.8506 125.628 81.4959C128.103 84.1413 131.431 85.4639 135.612 85.4639C139.879 85.4639 143.249 84.1413 145.724 81.4959C148.199 78.8506 149.436 75.1386 149.436 70.3599V31.5759H171.324Z" fill="#020617"/>
<path d="M46.5071 103.896C38.0591 103.896 30.2937 101.933 23.2111 98.008C16.2137 94.0827 10.6244 88.6213 6.44307 81.624C2.34707 74.5413 0.299072 66.6053 0.299072 57.816C0.299072 49.0267 2.34707 41.1333 6.44307 34.136C10.6244 27.1387 16.2137 21.6773 23.2111 17.752C30.2937 13.8267 38.0591 11.864 46.5071 11.864C54.9551 11.864 62.6777 13.8267 69.6751 17.752C76.7577 21.6773 82.3044 27.1387 86.3151 34.136C90.4111 41.1333 92.4591 49.0267 92.4591 57.816C92.4591 66.6053 90.4111 74.5413 86.3151 81.624C82.2191 88.6213 76.6724 94.0827 69.6751 98.008C62.6777 101.933 54.9551 103.896 46.5071 103.896ZM46.5071 83.928C53.6751 83.928 59.3924 81.5387 63.6591 76.76C68.0111 71.9813 70.1871 65.6667 70.1871 57.816C70.1871 49.88 68.0111 43.5653 63.6591 38.872C59.3924 34.0933 53.6751 31.704 46.5071 31.704C39.2537 31.704 33.4511 34.0507 29.0991 38.744C24.8324 43.4373 22.6991 49.7947 22.6991 57.816C22.6991 65.752 24.8324 72.1093 29.0991 76.888C33.4511 81.5813 39.2537 83.928 46.5071 83.928Z" fill="#020617"/>
</mask>
<g mask="url(#mask0_364_1374)">
<g style="mix-blend-mode:plus-lighter" filter="url(#filter0_f_364_1374)">
<circle cx="-1" cy="45" r="99" fill="#00B3FF"/>
</g>
<g style="mix-blend-mode:plus-lighter" filter="url(#filter1_f_364_1374)">
<circle cx="357" cy="118" r="99" fill="#00B3FF"/>
</g>
<g style="mix-blend-mode:plus-lighter" filter="url(#filter2_f_364_1374)">
<circle cx="698" cy="-6" r="99" fill="#00B3FF"/>
</g>
</g>
</g>
<defs>
<filter id="filter0_f_364_1374" x="-250" y="-204" width="498" height="498" filterUnits="userSpaceOnUse" color-interpolation-filters="sRGB">
<feFlood flood-opacity="0" result="BackgroundImageFix"/>
<feBlend mode="normal" in="SourceGraphic" in2="BackgroundImageFix" result="shape"/>
<feGaussianBlur stdDeviation="75" result="effect1_foregroundBlur_364_1374"/>
</filter>
<filter id="filter1_f_364_1374" x="108" y="-131" width="498" height="498" filterUnits="userSpaceOnUse" color-interpolation-filters="sRGB">
<feFlood flood-opacity="0" result="BackgroundImageFix"/>
<feBlend mode="normal" in="SourceGraphic" in2="BackgroundImageFix" result="shape"/>
<feGaussianBlur stdDeviation="75" result="effect1_foregroundBlur_364_1374"/>
</filter>
<filter id="filter2_f_364_1374" x="449" y="-255" width="498" height="498" filterUnits="userSpaceOnUse" color-interpolation-filters="sRGB">
<feFlood flood-opacity="0" result="BackgroundImageFix"/>
<feBlend mode="normal" in="SourceGraphic" in2="BackgroundImageFix" result="shape"/>
<feGaussianBlur stdDeviation="75" result="effect1_foregroundBlur_364_1374"/>
</filter>
<clipPath id="clip0_364_1374">
<rect width="723" height="104" fill="white"/>
</clipPath>
</defs>
</svg>
