<svg width="781" height="781" viewBox="0 0 781 781" fill="none" xmlns="http://www.w3.org/2000/svg">
<path d="M503.753 382.816C499.498 320.259 445.353 273.012 382.816 277.266C351.654 279.384 324.3 293.896 305.203 315.636L305.144 315.597C305.008 315.772 304.892 315.947 304.775 316.121C285.814 337.997 275.148 367.061 277.266 398.222C277.46 401.195 277.81 404.109 278.237 407.004C278.237 407.14 278.276 407.256 278.295 407.392C278.587 409.296 278.917 411.2 279.286 413.065C279.286 413.104 279.286 413.143 279.306 413.162C279.655 414.852 280.024 416.543 280.452 418.213C293.565 470.493 342.542 507.522 398.222 503.734C460.759 499.479 508.027 445.334 503.772 382.777L503.753 382.816ZM479.041 384.507C479.565 392.2 479.08 399.738 477.7 407.004C477.7 406.965 477.661 406.926 477.661 406.887C469.424 386.78 453.144 372.248 438.845 364.224C441.74 330.148 430.18 315.772 417.086 313.44C416.736 313.363 416.367 313.304 416.018 313.266C405.624 311.925 396.124 319.269 394.803 329.662C393.462 340.056 400.806 349.556 411.2 350.877C412.113 350.994 413.006 351.033 413.881 351.013C413.939 352.16 413.978 353.384 413.978 354.666C401.874 351.674 390.567 351.072 380.251 352.004C376.385 352.257 372.539 352.742 368.692 353.461C369.974 341.96 374.307 329.021 382.68 319.58C390.781 310.429 402.826 305.203 415.959 306.544C418.446 306.796 421.108 307.418 423.497 308.214C423.614 308.253 423.73 308.292 423.827 308.312C454.251 320.706 476.651 349.595 479.021 384.507H479.041ZM399.912 401.836C399.912 401.836 399.912 401.855 399.893 401.875C397.192 405.78 393.967 409.626 390.179 413.357C384.506 407.334 379.96 400.826 376.502 394.104C376.327 393.735 376.133 393.404 375.958 393.035C375.958 393.035 375.958 393.016 375.958 392.996C373.937 388.703 372.208 383.982 370.868 378.834C378.93 376.93 386.837 376.23 394.395 376.6C394.803 376.619 395.191 376.638 395.599 376.658H395.638C400.378 377.046 405.313 377.921 410.422 379.319C408.033 387.246 404.691 394.453 400.592 400.806C400.378 401.137 400.165 401.467 399.932 401.817L399.912 401.836ZM361.135 306.777C361.135 306.777 361.096 306.835 361.076 306.854C347.768 324.028 343.339 345.379 343.533 361.776C312.566 376.308 305.921 393.502 310.429 406.013C310.545 406.363 310.681 406.693 310.817 407.023C314.858 416.679 325.971 421.244 335.626 417.203C345.282 413.162 349.847 402.05 345.806 392.394C345.457 391.559 345.029 390.762 344.582 390.005C345.554 389.363 346.603 388.722 347.73 388.062C351.188 400.049 356.297 410.17 362.261 418.641C364.418 421.846 366.749 424.935 369.294 427.908C358.687 432.551 345.321 435.271 332.945 432.745C320.978 430.297 310.429 422.487 305.008 410.442C303.979 408.15 303.182 405.547 302.677 403.079C302.366 400.923 302.114 398.747 301.958 396.532C299.199 355.87 324.416 319.677 361.135 306.777V306.777ZM396.532 479.041C372.383 480.693 349.808 472.455 332.751 457.807C354.277 460.74 374.986 453.902 389.091 445.529C417.164 465.092 435.387 462.256 443.974 452.095C444.207 451.823 444.44 451.532 444.654 451.24C451.007 442.906 449.394 431.016 441.06 424.663C432.725 418.311 420.836 419.923 414.483 428.257C413.939 428.976 413.453 429.753 413.026 430.531C411.996 430.006 410.908 429.423 409.801 428.782C418.465 419.787 424.624 410.287 428.976 400.884C430.685 397.406 432.181 393.832 433.483 390.141C442.808 397.018 451.861 407.217 455.864 419.204C459.73 430.783 458.253 443.838 450.521 454.543C449.064 456.563 447.199 458.565 445.314 460.235C445.295 460.255 445.256 460.294 445.237 460.313C431.715 470.94 414.968 477.778 396.551 479.022L396.532 479.041Z" fill="url(#paint0_linear_371_1489)" stroke="#0075FF"/>
<path style="mix-blend-mode:multiply" opacity="0.6" d="M411.194 350.858C412.107 350.974 413.001 351.013 413.875 350.994C413.875 350.994 413.273 339.201 411.835 333.14C410.378 327.098 408.241 323.076 405.91 320.803C404.219 319.171 398.916 317.151 394.797 329.623C393.457 340.017 400.8 349.517 411.194 350.838V350.858Z" fill="url(#paint1_linear_371_1489)"/>
<path style="mix-blend-mode:multiply" opacity="0.5" d="M345.817 392.433C345.468 391.597 345.04 390.801 344.593 390.043C344.593 390.043 334.666 396.454 330.159 400.728C325.652 405.002 323.243 408.868 322.446 412.035C321.883 414.308 322.776 419.903 335.637 417.242C345.293 413.201 349.858 402.088 345.817 392.433V392.433Z" fill="url(#paint2_linear_371_1489)"/>
<path style="mix-blend-mode:multiply" opacity="0.6" d="M414.495 428.238C413.951 428.957 413.465 429.734 413.038 430.511C413.038 430.511 423.548 435.892 429.512 437.66C435.476 439.428 440.023 439.584 443.15 438.69C445.404 438.049 449.795 434.455 441.072 424.663C432.737 418.31 420.847 419.923 414.495 428.257V428.238Z" fill="url(#paint3_linear_371_1489)"/>
<circle opacity="0.3" cx="390.5" cy="390.5" r="182.359" stroke="#0075FF"/>
<circle opacity="0.3" cx="390.5" cy="390.5" r="240.269" stroke="#0075FF"/>
<circle opacity="0.3" cx="390.5" cy="390.5" r="312.787" stroke="#0075FF"/>
<circle opacity="0.3" cx="390.5" cy="390.5" r="390" stroke="#0075FF"/>
<defs>
<linearGradient id="paint0_linear_371_1489" x1="277" y1="444.097" x2="498.696" y2="444.097" gradientUnits="userSpaceOnUse">
<stop stop-color="#0047FF"/>
<stop offset="1" stop-color="#00D4FF"/>
</linearGradient>
<linearGradient id="paint1_linear_371_1489" x1="412.243" y1="330.478" x2="396.565" y2="346.176" gradientUnits="userSpaceOnUse">
<stop stop-color="#231F20"/>
<stop offset="1" stop-color="white"/>
</linearGradient>
<linearGradient id="paint2_linear_371_1489" x1="327.653" y1="401.685" x2="349.079" y2="407.441" gradientUnits="userSpaceOnUse">
<stop stop-color="#231F20"/>
<stop offset="1" stop-color="white"/>
</linearGradient>
<linearGradient id="paint3_linear_371_1489" x1="431.608" y1="439.343" x2="425.869" y2="417.926" gradientUnits="userSpaceOnUse">
<stop stop-color="#231F20"/>
<stop offset="1" stop-color="white"/>
</linearGradient>
</defs>
</svg>
