<svg width="427" height="88" viewBox="0 0 427 88" fill="none" xmlns="http://www.w3.org/2000/svg">
<path d="M87.8874 41.015C86.2384 16.7685 65.2523 -1.54442 41.0133 0.104648C28.9353 0.925415 18.3331 6.55031 10.9311 14.9764L10.9085 14.9613C10.8558 15.0291 10.8106 15.0968 10.7654 15.1646C3.41617 23.6434 -0.717785 34.9082 0.102983 46.9863C0.178283 48.1384 0.313822 49.2679 0.479482 50.3898C0.479482 50.4425 0.494542 50.4877 0.502072 50.5404C0.615021 51.2784 0.743031 52.0163 0.8861 52.7392C0.8861 52.7542 0.8861 52.7693 0.89363 52.7768C1.02917 53.4319 1.17224 54.0871 1.3379 54.7346C6.42063 74.9978 25.4037 89.3499 46.9846 87.8816C71.2236 86.2325 89.544 65.2465 87.895 40.9999L87.8874 41.015ZM78.3093 41.6701C78.5126 44.652 78.3244 47.5736 77.7897 50.3898C77.7897 50.3748 77.7747 50.3597 77.7747 50.3447C74.582 42.5511 68.2719 36.9187 62.7298 33.8088C63.8518 20.6012 59.3714 15.0291 54.2962 14.1255C54.1607 14.0953 54.0176 14.0728 53.8821 14.0577C49.8535 13.5381 46.1714 16.3845 45.6593 20.413C45.1398 24.4415 47.9861 28.1237 52.0146 28.6357C52.3685 28.6809 52.7149 28.696 53.0538 28.6884C53.0764 29.1327 53.0914 29.6071 53.0914 30.1041C48.4003 28.9445 44.0178 28.711 40.0194 29.0725C38.5209 29.1704 37.03 29.3586 35.5391 29.6372C36.036 25.1795 37.7152 20.1645 40.9606 16.5049C44.1006 12.9583 48.7692 10.9328 53.8595 11.4523C54.8233 11.5502 55.8549 11.7912 56.7811 12.0999C56.8263 12.115 56.8715 12.13 56.9091 12.1376C68.7011 16.9417 77.3831 28.1387 78.3018 41.6701H78.3093ZM47.6397 48.3869C47.6397 48.3869 47.6397 48.3944 47.6322 48.4019C46.5855 49.9154 45.3355 51.4064 43.8672 52.8521C41.6684 50.5178 39.9064 47.9953 38.5661 45.3899C38.4983 45.2469 38.423 45.1188 38.3553 44.9758C38.3553 44.9758 38.3553 44.9682 38.3553 44.9607C37.5721 43.2966 36.902 41.4668 36.3824 39.4714C39.5073 38.7334 42.572 38.4623 45.5012 38.6054C45.6593 38.6129 45.8099 38.6205 45.9681 38.628H45.9831C47.8204 38.7786 49.7331 39.1175 51.7134 39.6596C50.7873 42.7318 49.4921 45.5255 47.9033 47.9878C47.8204 48.1158 47.7376 48.2438 47.6472 48.3793L47.6397 48.3869ZM32.6099 11.5427C32.6099 11.5427 32.5948 11.5653 32.5873 11.5728C27.4293 18.2293 25.7124 26.5047 25.7877 32.86C13.785 38.4925 11.2097 45.1565 12.9567 50.0058C13.0018 50.1413 13.0545 50.2694 13.1073 50.3974C14.6735 54.1398 18.9806 55.9093 22.723 54.3431C26.4654 52.7768 28.235 48.4697 26.6687 44.7273C26.5332 44.4035 26.3675 44.0948 26.1944 43.8011C26.5708 43.5526 26.9775 43.3041 27.4142 43.0481C28.7545 47.6941 30.7349 51.6172 33.0466 54.9003C33.8825 56.1427 34.7861 57.34 35.7725 58.4921C31.6611 60.2918 26.4805 61.3459 21.6839 60.367C17.0454 59.4183 12.9567 56.3912 10.8558 51.7226C10.4567 50.8341 10.148 49.8251 9.95219 48.8688C9.83171 48.033 9.73382 47.1896 9.67358 46.3312C8.60433 30.5709 18.3782 16.5426 32.6099 11.5427V11.5427ZM46.3295 78.311C36.9697 78.951 28.2199 75.7583 21.6086 70.0807C29.9518 71.2177 37.9788 68.5672 43.4455 65.3218C54.3263 72.9045 61.3895 71.8051 64.7177 67.8669C64.8081 67.7615 64.8984 67.6485 64.9813 67.5356C67.4436 64.3052 66.8186 59.6969 63.5882 57.2346C60.3578 54.7723 55.7495 55.3973 53.2872 58.6276C53.0764 58.9062 52.8881 59.2074 52.7225 59.5086C52.3234 59.3053 51.9017 59.0794 51.4725 58.8309C54.8308 55.3446 57.2179 51.6624 58.9046 48.0179C59.5672 46.67 60.147 45.2845 60.6515 43.8538C64.2659 46.5194 67.7749 50.4727 69.3261 55.1187C70.8245 59.6065 70.2522 64.6667 67.2553 68.8157C66.6906 69.5988 65.9677 70.3744 65.2373 71.022C65.2297 71.0295 65.2147 71.0446 65.2072 71.0521C59.9663 75.171 53.4755 77.8215 46.337 78.3035L46.3295 78.311Z" fill="url(#paint0_linear_340_25194)"/>
<path style="mix-blend-mode:overlay" opacity="0.9" d="M54.2977 14.1182C54.1621 14.088 54.0191 14.0655 53.8835 14.0504C53.1682 13.96 52.4679 13.9751 51.7977 14.088C56.007 16.3772 59.0717 22.755 57.4603 35.3452C56.9256 39.5168 55.6832 43.4775 53.8986 47.1221C52.4453 50.2545 50.4725 53.4096 47.8219 56.4442C49.0945 57.4005 50.3369 58.1986 51.4739 58.8462C54.8323 55.3598 57.2193 51.6777 58.906 48.0332C60.6982 44.3962 61.9331 40.4279 62.4677 36.2563C64.3878 21.2716 59.6741 15.082 54.2977 14.1257V14.1182Z" fill="url(#paint1_radial_340_25194)"/>
<g style="mix-blend-mode:overlay" opacity="0.8">
<path d="M57.4614 35.3374C59.0728 22.7549 56.0081 16.3694 51.7989 14.0803C51.6332 14.1029 51.4751 14.1406 51.3094 14.1782C55.4283 16.5502 58.3951 22.9205 56.8063 35.3374C56.2717 39.5091 55.0292 43.4698 53.2446 47.1143C51.844 50.1414 49.9465 53.191 47.424 56.1352C47.5595 56.2407 47.6875 56.3386 47.823 56.4364C50.4736 53.4019 52.4464 50.2393 53.8997 47.1143C55.6919 43.4774 56.9268 39.5091 57.4614 35.3374V35.3374Z" fill="white"/>
</g>
<path style="mix-blend-mode:overlay" opacity="0.5" d="M41.461 63.8837C41.0619 63.5825 40.6854 63.2662 40.3014 62.95C34.0892 65.5403 25.4824 67.1667 16.9283 65.1788C18.3289 66.9634 19.8876 68.6125 21.6045 70.0808C29.9477 71.2179 37.9746 68.5673 43.4414 65.3219C42.7938 64.8701 42.1312 64.3882 41.4535 63.8761L41.461 63.8837Z" fill="url(#paint2_radial_340_25194)"/>
<path style="mix-blend-mode:overlay" opacity="0.6" d="M40.3081 62.9497C40.1198 62.7916 39.924 62.6335 39.7433 62.4753C33.4859 64.9753 24.834 66.4738 16.3025 64.3428C16.5133 64.6214 16.7242 64.9075 16.935 65.1786C25.4815 67.1665 34.0958 65.54 40.3081 62.9497V62.9497Z" fill="url(#paint3_linear_340_25194)"/>
<path style="mix-blend-mode:overlay" opacity="0.9" d="M12.9634 50.0129C13.0086 50.1484 13.0613 50.2764 13.114 50.4045C13.3926 51.0671 13.7541 51.662 14.1908 52.1966C14.0703 47.4075 18.0612 41.5567 29.7628 36.6622C33.6407 35.0433 37.6919 34.1322 41.743 33.8611C45.1767 33.5524 48.904 33.6804 52.8572 34.4635C53.0455 32.8822 53.1208 31.4063 53.1057 30.1036C48.4145 28.9365 44.0246 28.7106 40.0262 29.072C35.9826 29.3431 31.9239 30.2542 28.046 31.8732C14.108 37.7014 11.1035 44.8775 12.9634 50.0204V50.0129Z" fill="url(#paint4_radial_340_25194)"/>
<g style="mix-blend-mode:overlay" opacity="0.8">
<path d="M29.7627 36.67C18.0612 41.5644 14.0703 47.4152 14.1907 52.2043C14.2962 52.3323 14.4091 52.4528 14.5221 52.5733C14.5145 47.8219 18.5506 42.069 30.0941 37.2347C33.972 35.6158 38.0231 34.7046 42.0742 34.4336C45.395 34.1324 48.9868 34.2528 52.7969 34.9607C52.8195 34.795 52.8421 34.6293 52.8572 34.4637C48.9039 33.6881 45.1766 33.5525 41.7429 33.8613C37.6993 34.1324 33.6407 35.0435 29.7627 36.6624V36.67Z" fill="white"/>
</g>
<path style="mix-blend-mode:overlay" opacity="0.4" d="M62.4816 36.2481C62.4214 36.745 62.3386 37.227 62.2557 37.7164C67.602 41.7977 73.3173 48.4466 75.8775 56.8425C76.7208 54.7342 77.3684 52.558 77.7825 50.3366C74.5974 42.5431 68.2872 36.9182 62.7452 33.8083C62.6774 34.599 62.5946 35.4047 62.4892 36.2481H62.4816Z" fill="url(#paint5_radial_340_25194)"/>
<path style="mix-blend-mode:overlay" opacity="0.5" d="M62.2544 37.7163C62.2092 37.9573 62.1715 38.2058 62.1263 38.4467C67.4199 42.6183 73.0448 49.3577 75.4619 57.8138C75.605 57.49 75.7405 57.1662 75.8685 56.8424C73.3084 48.4465 67.6006 41.8051 62.2468 37.7163H62.2544Z" fill="url(#paint6_linear_340_25194)"/>
<path style="mix-blend-mode:overlay" opacity="0.9" d="M64.7154 67.8591C64.8057 67.7537 64.8961 67.6407 64.9789 67.5278C65.4157 66.9555 65.747 66.3381 65.9955 65.7055C61.9067 68.2055 54.8511 67.6709 44.7534 59.9828C41.4101 57.4376 38.5939 54.3805 36.3349 51.007C34.347 48.1833 32.6 44.9002 31.2973 41.0825C29.8365 41.7075 28.5188 42.3852 27.3893 43.0478C28.7296 47.6938 30.7251 51.6094 33.0368 54.8925C35.2958 58.2659 38.112 61.3156 41.4553 63.8682C53.4731 73.0247 61.1913 72.0383 64.7078 67.8591H64.7154Z" fill="url(#paint7_radial_340_25194)"/>
<g style="mix-blend-mode:overlay" opacity="0.8">
<path d="M44.7658 59.9833C54.856 67.6714 61.9191 68.206 66.0079 65.706C66.0681 65.5479 66.1208 65.3898 66.166 65.2392C62.0546 67.6262 55.0517 67.0012 45.0971 59.4185C41.7538 56.8734 38.9376 53.8162 36.6786 50.4428C34.7585 47.7169 33.0642 44.5468 31.7766 40.8948C31.6185 40.9625 31.4679 41.0228 31.3173 41.0906C32.6199 44.9083 34.3669 48.1913 36.3548 51.0151C38.6138 54.3885 41.43 57.4381 44.7733 59.9908L44.7658 59.9833Z" fill="white"/>
</g>
<path style="mix-blend-mode:overlay" opacity="0.3" d="M28.0395 31.8581C28.4988 31.6699 28.9581 31.4967 29.425 31.3235C30.2834 24.652 33.1824 16.3765 39.1763 9.96851C36.9324 10.2923 34.7261 10.8194 32.5876 11.5649C27.4295 18.2214 25.7127 26.4968 25.788 32.8521C26.5033 32.5133 27.2488 32.1819 28.0319 31.8581H28.0395Z" fill="url(#paint8_radial_340_25194)"/>
<path style="mix-blend-mode:overlay" opacity="0.4" d="M29.4266 31.3233C29.6601 31.2405 29.886 31.1501 30.1194 31.0673C31.0832 24.3957 34.1103 16.1579 40.2171 9.83276C39.8707 9.87041 39.5243 9.91559 39.178 9.96077C33.1841 16.3763 30.2851 24.6442 29.4266 31.3158V31.3233Z" fill="url(#paint9_linear_340_25194)"/>
<path style="mix-blend-mode:multiply" opacity="0.4" d="M41.015 0.104443C28.9369 0.92521 18.3347 6.5501 10.9327 14.9761C10.88 15.0364 10.8198 15.1042 10.7671 15.1644C12.2053 16.5951 16.9191 19.4113 18.8242 20.586C22.5741 16.5574 27.2803 13.4099 32.6191 11.5425C32.988 11.0606 33.3796 10.5862 33.7862 10.1268C38.756 4.51701 45.5405 1.55773 53.4169 1.55773C54.2904 1.55773 56.075 1.7008 56.1126 1.7008C51.3386 0.330342 46.2559 -0.256996 41.015 0.104443Z" fill="url(#paint10_linear_340_25194)"/>
<path style="mix-blend-mode:multiply" opacity="0.4" d="M46.3323 78.3188C36.9725 78.9589 28.2227 75.7662 21.6114 70.0886C20.9939 70.0057 20.3765 69.9078 19.759 69.7798C12.4173 68.2814 6.45355 63.8839 2.5229 57.0692C2.08617 56.3087 1.69461 55.5406 1.3407 54.75C6.42343 75.0132 25.4065 89.3653 46.9799 87.897C47.0778 85.6756 46.4227 80.5176 46.3248 78.3188H46.3323Z" fill="url(#paint11_linear_340_25194)"/>
<path style="mix-blend-mode:multiply" opacity="0.4" d="M87.8892 41.0148C86.5338 40.8793 79.9375 41.3989 78.3111 41.6699C78.5144 44.6518 78.3261 47.5734 77.7915 50.3896C78.0174 50.9469 78.2358 51.5191 78.4315 52.099C80.8035 59.2073 79.9752 66.564 76.0445 73.3862C75.6153 74.1317 75.1485 74.847 74.659 75.5322C74.6515 75.5473 74.6364 75.5624 74.6289 75.5699C74.6289 75.5699 74.6515 75.5548 74.659 75.5398C83.5971 66.8426 88.8003 54.4332 87.8892 41.0224V41.0148Z" fill="url(#paint12_linear_340_25194)"/>
<path style="mix-blend-mode:multiply" opacity="0.5" d="M53.8714 11.4447C54.8352 11.5426 55.8668 11.7835 56.793 12.0922C56.8382 12.1073 56.8834 12.1224 56.921 12.1299C60.7161 13.6735 64.1875 15.8874 67.1844 18.6207C67.1844 18.6207 67.1994 18.6283 67.207 18.6358C68.6527 16.9867 71.4313 15.172 71.4313 15.172C71.4313 15.172 67.1769 10.8197 60.6634 9.46429C56.1078 8.51551 45.8294 7.60438 39.3461 18.6358C39.3461 18.6358 39.3687 18.6132 39.4063 18.5756C39.8882 17.8527 40.3927 17.1449 40.9725 16.4973C44.1125 12.9507 48.7811 10.9251 53.8714 11.4447V11.4447Z" fill="url(#paint13_linear_340_25194)"/>
<path style="mix-blend-mode:multiply" opacity="0.5" d="M67.2585 68.8233C66.6938 69.6064 65.9709 70.382 65.2405 71.0296C65.2104 71.0597 65.1727 71.0898 65.1426 71.1199C61.9047 73.6349 58.2527 75.5325 54.3898 76.7599C54.3823 76.7599 54.3747 76.7599 54.3672 76.7674C55.075 78.8457 55.2557 82.1589 55.2557 82.1589C55.2557 82.1589 61.1517 80.6529 65.5793 75.6906C68.6741 72.2193 74.6078 63.7707 68.2976 52.6414C68.2976 52.6414 68.3052 52.679 68.3202 52.7242C68.7118 53.4998 69.0657 54.2979 69.3368 55.1187C70.8353 59.6066 70.263 64.6667 67.266 68.8157L67.2585 68.8233Z" fill="url(#paint14_linear_340_25194)"/>
<path style="mix-blend-mode:multiply" opacity="0.5" d="M10.8738 51.7372C10.4747 50.8487 10.166 49.8396 9.97023 48.8833C9.9627 48.8382 9.94764 48.793 9.94011 48.7478C9.38289 44.6891 9.56361 40.5778 10.4296 36.617C10.4296 36.6095 10.4296 36.6019 10.4296 36.5944C8.27599 36.1727 5.3167 34.6667 5.3167 34.6667C5.3167 34.6667 3.67517 40.5326 5.76097 46.8427C7.22179 51.2628 11.5666 60.6226 24.36 60.7205C24.36 60.7205 24.3224 60.7129 24.2772 60.6979C23.4112 60.6452 22.5453 60.5548 21.6944 60.3816C17.0559 59.4328 12.9672 56.4058 10.8663 51.7372H10.8738Z" fill="url(#paint15_linear_340_25194)"/>
<path style="mix-blend-mode:multiply" opacity="0.6" d="M52.0121 28.6283C52.366 28.6735 52.7124 28.6885 53.0512 28.681C53.0512 28.681 52.8178 24.1103 52.2606 21.761C51.6958 19.4191 50.8675 17.8604 49.9639 16.9794C49.3088 16.3469 47.2531 15.5638 45.6568 20.398C45.1372 24.4266 47.9835 28.1087 52.0121 28.6208V28.6283Z" fill="url(#paint16_linear_340_25194)"/>
<path style="mix-blend-mode:multiply" opacity="0.5" d="M26.673 44.7423C26.5375 44.4186 26.3718 44.1098 26.1987 43.8162C26.1987 43.8162 22.3508 46.3011 20.6039 47.9576C18.8569 49.6142 17.9232 51.1127 17.6145 52.3401C17.3961 53.2211 17.7425 55.3897 22.7273 54.3581C26.4697 52.7919 28.2393 48.4847 26.673 44.7423V44.7423Z" fill="url(#paint17_linear_340_25194)"/>
<path style="mix-blend-mode:multiply" opacity="0.6" d="M53.292 58.62C53.0812 58.8986 52.893 59.1998 52.7273 59.501C52.7273 59.501 56.801 61.5868 59.1127 62.272C61.4244 62.9572 63.1864 63.0175 64.3988 62.6711C65.2722 62.4226 66.974 61.0296 63.5931 57.2345C60.3627 54.7722 55.7543 55.3971 53.292 58.6275V58.62Z" fill="url(#paint18_linear_340_25194)"/>
<path style="mix-blend-mode:multiply" opacity="0.3" d="M51.7152 39.6672C50.789 42.7395 49.4938 45.5331 47.905 47.9954C47.8222 48.1234 47.7393 48.2514 47.649 48.3869C47.649 48.3869 47.649 48.3945 47.6415 48.402C46.5948 49.9155 45.3448 51.4065 43.8765 52.8522C44.8855 53.9215 45.9698 54.9606 47.1671 55.947C48.6731 57.1293 50.1414 58.0856 51.4742 58.8386C54.8326 55.3522 57.2196 51.67 58.9063 48.0255C59.5689 46.6776 60.1487 45.2921 60.6532 43.8614C59.1021 42.7244 57.5358 41.8133 56.0901 41.1958C54.5991 40.5558 53.1383 40.0588 51.7076 39.6672H51.7152Z" fill="url(#paint19_linear_340_25194)"/>
<path style="mix-blend-mode:multiply" opacity="0.3" d="M21.6119 70.0877C29.9551 71.2247 37.9821 68.5741 43.4489 65.3287C42.8013 64.8769 42.1386 64.395 41.4609 63.883C39.3526 62.2716 37.455 60.4644 35.7683 58.499C31.6569 60.2987 26.4763 61.3529 21.6797 60.374C17.0412 59.4252 12.9525 56.3982 10.8516 51.7296C10.4525 50.8411 10.1438 49.832 9.948 48.8757C11.1603 57.3846 15.4524 64.8092 21.6044 70.0877H21.6119Z" fill="url(#paint20_linear_340_25194)"/>
<path style="mix-blend-mode:multiply" opacity="0.3" d="M43.8795 52.852C41.6808 50.5177 39.9187 47.9951 38.5784 45.3898C38.5106 45.2467 38.4353 45.1187 38.3676 44.9756C38.3676 44.9756 38.3676 44.9681 38.3676 44.9605C37.5845 43.2964 36.9143 41.4666 36.3947 39.4712C34.964 39.81 33.5258 40.2317 32.08 40.7739C30.303 41.4817 28.7443 42.2799 27.4265 43.0479C28.7668 47.6939 30.7472 51.617 33.0589 54.9001C33.8948 56.1426 34.7984 57.3398 35.7848 58.4919C37.5468 57.7239 39.1206 56.8127 40.3781 55.8715C41.6732 54.9001 42.8328 53.8836 43.887 52.8444L43.8795 52.852Z" fill="url(#paint21_linear_340_25194)"/>
<path style="mix-blend-mode:multiply" opacity="0.3" d="M32.5925 11.5719C27.4344 18.2284 25.7176 26.5038 25.7929 32.8591C26.5082 32.5203 27.2612 32.189 28.0443 31.8576C30.4916 30.8336 33.0066 30.0956 35.5442 29.6212C36.0412 25.1635 37.7204 20.1485 40.9658 16.4889C44.1058 12.9423 48.7744 10.9168 53.8646 11.4363C54.8285 11.5342 55.8601 11.7752 56.7863 12.0839C56.8314 12.099 56.8766 12.114 56.9143 12.1216C52.2231 10.2089 47.0425 9.30535 41.6585 9.67432C38.496 9.89269 35.4689 10.5327 32.6075 11.5418C32.6 11.5493 32.5925 11.5643 32.5849 11.5719H32.5925Z" fill="url(#paint22_linear_340_25194)"/>
<path style="mix-blend-mode:multiply" opacity="0.3" d="M77.7863 50.3288C74.5935 42.5353 68.2834 36.9028 62.7414 33.793C62.6736 34.5836 62.5908 35.3969 62.4778 36.2477C62.139 38.8757 61.5215 41.4208 60.6631 43.8605C64.2775 46.5262 67.7864 50.4794 69.3376 55.1254C70.8361 59.6133 70.2638 64.6734 67.2669 68.8224C66.7021 69.6055 65.9793 70.3811 65.2488 71.0287C65.2413 71.0362 65.2263 71.0513 65.2187 71.0588C71.6794 65.9836 76.2501 58.6645 77.8164 50.3815C77.8164 50.3665 77.8013 50.3514 77.8013 50.3363L77.7863 50.3288Z" fill="url(#paint23_linear_340_25194)"/>
<path style="mix-blend-mode:multiply" opacity="0.3" d="M35.5192 34.9229C35.715 36.5343 36.0087 38.0403 36.3852 39.471C39.5101 38.7331 42.5748 38.462 45.504 38.6051C45.6621 38.6126 45.8127 38.6201 45.9708 38.6277H45.9859C47.8232 38.7783 49.7358 39.1171 51.7162 39.6593C52.1379 38.2512 52.4918 36.7903 52.7478 35.2693C53.0264 33.3717 53.1093 31.6173 53.1017 30.0887C48.4106 28.9291 44.0281 28.6956 40.0297 29.0571C38.5312 29.155 37.0403 29.3432 35.5494 29.6218C35.3385 31.5344 35.331 33.3491 35.5268 34.9154L35.5192 34.9229Z" fill="url(#paint24_linear_340_25194)"/>
<path d="M408.47 41.3199C409.11 40.2799 410.03 39.4399 411.23 38.7999C412.43 38.1599 413.804 37.8399 415.35 37.8399C417.19 37.8399 418.857 38.3065 420.35 39.2399C421.844 40.1732 423.017 41.5065 423.87 43.2399C424.75 44.9732 425.19 46.9865 425.19 49.2799C425.19 51.5732 424.75 53.5999 423.87 55.3599C423.017 57.0932 421.844 58.4399 420.35 59.3999C418.857 60.3332 417.19 60.7999 415.35 60.7999C413.777 60.7999 412.404 60.4932 411.23 59.8799C410.057 59.2399 409.137 58.3999 408.47 57.3599V60.4799H401.63V30.8799H408.47V41.3199ZM418.23 49.2799C418.23 47.5732 417.75 46.2399 416.79 45.2799C415.857 44.2932 414.697 43.7999 413.31 43.7999C411.95 43.7999 410.79 44.2932 409.83 45.2799C408.897 46.2665 408.43 47.6132 408.43 49.3199C408.43 51.0266 408.897 52.3732 409.83 53.3599C410.79 54.3466 411.95 54.8399 413.31 54.8399C414.67 54.8399 415.83 54.3466 416.79 53.3599C417.75 52.3466 418.23 50.9865 418.23 49.2799Z" fill="#020617"/>
<path d="M373.922 49.2798C373.922 46.9865 374.349 44.9732 375.202 43.2398C376.082 41.5065 377.269 40.1732 378.762 39.2398C380.255 38.3065 381.922 37.8398 383.762 37.8398C385.335 37.8398 386.709 38.1598 387.882 38.7998C389.082 39.4398 390.002 40.2798 390.642 41.3198V38.1598H397.482V60.4798H390.642V57.3198C389.975 58.3598 389.042 59.1998 387.842 59.8398C386.669 60.4798 385.295 60.7998 383.722 60.7998C381.909 60.7998 380.255 60.3332 378.762 59.3998C377.269 58.4398 376.082 57.0932 375.202 55.3598C374.349 53.5998 373.922 51.5732 373.922 49.2798ZM390.642 49.3198C390.642 47.6132 390.162 46.2665 389.202 45.2798C388.269 44.2932 387.122 43.7998 385.762 43.7998C384.402 43.7998 383.242 44.2932 382.282 45.2798C381.349 46.2398 380.882 47.5732 380.882 49.2798C380.882 50.9865 381.349 52.3465 382.282 53.3598C383.242 54.3465 384.402 54.8398 385.762 54.8398C387.122 54.8398 388.269 54.3465 389.202 53.3598C390.162 52.3732 390.642 51.0265 390.642 49.3198Z" fill="#020617"/>
<path d="M363.859 55.1999H372.819V60.4799H357.019V32.3999H363.859V55.1999Z" fill="#020617"/>
<path d="M336.79 37.9199C339.403 37.9199 341.483 38.7733 343.03 40.4799C344.603 42.1599 345.39 44.4799 345.39 47.4399V60.4799H338.59V48.3599C338.59 46.8666 338.203 45.7066 337.43 44.8799C336.656 44.0533 335.616 43.6399 334.31 43.6399C333.003 43.6399 331.963 44.0533 331.19 44.8799C330.416 45.7066 330.03 46.8666 330.03 48.3599V60.4799H323.19V38.1599H330.03V41.1199C330.723 40.1333 331.656 39.3599 332.83 38.7999C334.003 38.2133 335.323 37.9199 336.79 37.9199Z" fill="#020617"/>
<path d="M295.481 49.2798C295.481 46.9865 295.908 44.9732 296.761 43.2398C297.641 41.5065 298.828 40.1732 300.321 39.2398C301.815 38.3065 303.481 37.8398 305.321 37.8398C306.895 37.8398 308.268 38.1598 309.441 38.7998C310.641 39.4398 311.561 40.2798 312.201 41.3198V38.1598H319.041V60.4798H312.201V57.3198C311.535 58.3598 310.601 59.1998 309.401 59.8398C308.228 60.4798 306.855 60.7998 305.281 60.7998C303.468 60.7998 301.815 60.3332 300.321 59.3998C298.828 58.4398 297.641 57.0932 296.761 55.3598C295.908 53.5998 295.481 51.5732 295.481 49.2798ZM312.201 49.3198C312.201 47.6132 311.721 46.2665 310.761 45.2798C309.828 44.2932 308.681 43.7998 307.321 43.7998C305.961 43.7998 304.801 44.2932 303.841 45.2798C302.908 46.2398 302.441 47.5732 302.441 49.2798C302.441 50.9865 302.908 52.3465 303.841 53.3598C304.801 54.3465 305.961 54.8398 307.321 54.8398C308.681 54.8398 309.828 54.3465 310.761 53.3598C311.721 52.3732 312.201 51.0265 312.201 49.3198Z" fill="#020617"/>
<path d="M277.333 41.3198C278 40.2798 278.92 39.4398 280.093 38.7998C281.266 38.1598 282.64 37.8398 284.213 37.8398C286.053 37.8398 287.72 38.3065 289.213 39.2398C290.706 40.1732 291.88 41.5065 292.733 43.2398C293.613 44.9732 294.053 46.9865 294.053 49.2798C294.053 51.5732 293.613 53.5998 292.733 55.3598C291.88 57.0932 290.706 58.4398 289.213 59.3998C287.72 60.3332 286.053 60.7998 284.213 60.7998C282.666 60.7998 281.293 60.4798 280.093 59.8398C278.92 59.1998 278 58.3732 277.333 57.3598V71.1198H270.493V38.1598H277.333V41.3198ZM287.093 49.2798C287.093 47.5732 286.613 46.2398 285.653 45.2798C284.72 44.2932 283.56 43.7998 282.173 43.7998C280.813 43.7998 279.653 44.2932 278.693 45.2798C277.76 46.2665 277.293 47.6132 277.293 49.3198C277.293 51.0265 277.76 52.3732 278.693 53.3598C279.653 54.3465 280.813 54.8398 282.173 54.8398C283.533 54.8398 284.693 54.3465 285.653 53.3598C286.613 52.3465 287.093 50.9865 287.093 49.2798Z" fill="#020617"/>
<path d="M242.784 49.2798C242.784 46.9865 243.211 44.9732 244.064 43.2398C244.944 41.5065 246.131 40.1732 247.624 39.2398C249.118 38.3065 250.784 37.8398 252.624 37.8398C254.198 37.8398 255.571 38.1598 256.744 38.7998C257.944 39.4398 258.864 40.2798 259.504 41.3198V38.1598H266.344V60.4798H259.504V57.3198C258.838 58.3598 257.904 59.1998 256.704 59.8398C255.531 60.4798 254.158 60.7998 252.584 60.7998C250.771 60.7998 249.118 60.3332 247.624 59.3998C246.131 58.4398 244.944 57.0932 244.064 55.3598C243.211 53.5998 242.784 51.5732 242.784 49.2798ZM259.504 49.3198C259.504 47.6132 259.024 46.2665 258.064 45.2798C257.131 44.2932 255.984 43.7998 254.624 43.7998C253.264 43.7998 252.104 44.2932 251.144 45.2798C250.211 46.2398 249.744 47.5732 249.744 49.2798C249.744 50.9865 250.211 52.3465 251.144 53.3598C252.104 54.3465 253.264 54.8398 254.624 54.8398C255.984 54.8398 257.131 54.3465 258.064 53.3598C259.024 52.3732 259.504 51.0265 259.504 49.3198Z" fill="#020617"/>
<path d="M239.419 32.3999V51.5199C239.419 54.4799 238.579 56.7599 236.899 58.3599C235.246 59.9599 233.006 60.7599 230.179 60.7599C227.219 60.7599 224.846 59.9199 223.059 58.2399C221.273 56.5599 220.379 54.1732 220.379 51.0799H227.179C227.179 52.2532 227.419 53.1466 227.899 53.7599C228.379 54.3466 229.073 54.6399 229.979 54.6399C230.806 54.6399 231.446 54.3732 231.899 53.8399C232.353 53.3066 232.579 52.5332 232.579 51.5199V32.3999H239.419Z" fill="#020617"/>
<path d="M204.673 41.8799C205.473 40.6533 206.473 39.6933 207.673 38.9999C208.873 38.2799 210.207 37.9199 211.673 37.9199V45.1599H209.793C208.087 45.1599 206.807 45.5333 205.953 46.2799C205.1 46.9999 204.673 48.2799 204.673 50.1199V60.4799H197.833V38.1599H204.673V41.8799Z" fill="#020617"/>
<path d="M170.125 49.2798C170.125 46.9865 170.552 44.9732 171.405 43.2398C172.285 41.5065 173.472 40.1732 174.965 39.2398C176.458 38.3065 178.125 37.8398 179.965 37.8398C181.538 37.8398 182.912 38.1598 184.085 38.7998C185.285 39.4398 186.205 40.2798 186.845 41.3198V38.1598H193.685V60.4798H186.845V57.3198C186.178 58.3598 185.245 59.1998 184.045 59.8398C182.872 60.4798 181.498 60.7998 179.925 60.7998C178.112 60.7998 176.458 60.3332 174.965 59.3998C173.472 58.4398 172.285 57.0932 171.405 55.3598C170.552 53.5998 170.125 51.5732 170.125 49.2798ZM186.845 49.3198C186.845 47.6132 186.365 46.2665 185.405 45.2798C184.472 44.2932 183.325 43.7998 181.965 43.7998C180.605 43.7998 179.445 44.2932 178.485 45.2798C177.552 46.2398 177.085 47.5732 177.085 49.2798C177.085 50.9865 177.552 52.3465 178.485 53.3598C179.445 54.3465 180.605 54.8398 181.965 54.8398C183.325 54.8398 184.472 54.3465 185.405 53.3598C186.365 52.3732 186.845 51.0265 186.845 49.3198Z" fill="#020617"/>
<path d="M168.475 54.68V60.48H164.995C162.515 60.48 160.582 59.88 159.195 58.68C157.808 57.4533 157.115 55.4666 157.115 52.72V43.84H154.395V38.16H157.115V32.72H163.955V38.16H168.435V43.84H163.955V52.8C163.955 53.4666 164.115 53.9466 164.435 54.24C164.755 54.5333 165.288 54.68 166.035 54.68H168.475Z" fill="#020617"/>
<path d="M143.61 60.7998C141.664 60.7998 139.93 60.4665 138.41 59.7998C136.89 59.1332 135.69 58.2265 134.81 57.0798C133.93 55.9065 133.437 54.5998 133.33 53.1598H140.09C140.17 53.9332 140.53 54.5598 141.17 55.0398C141.81 55.5198 142.597 55.7598 143.53 55.7598C144.384 55.7598 145.037 55.5998 145.49 55.2798C145.97 54.9332 146.21 54.4932 146.21 53.9598C146.21 53.3198 145.877 52.8532 145.21 52.5598C144.544 52.2398 143.464 51.8932 141.97 51.5198C140.37 51.1465 139.037 50.7598 137.97 50.3598C136.904 49.9332 135.984 49.2798 135.21 48.3998C134.437 47.4932 134.05 46.2798 134.05 44.7598C134.05 43.4798 134.397 42.3198 135.09 41.2798C135.81 40.2132 136.85 39.3732 138.21 38.7598C139.597 38.1465 141.237 37.8398 143.13 37.8398C145.93 37.8398 148.13 38.5332 149.73 39.9198C151.357 41.3065 152.29 43.1465 152.53 45.4398H146.21C146.104 44.6665 145.757 44.0532 145.17 43.5998C144.61 43.1465 143.864 42.9198 142.93 42.9198C142.13 42.9198 141.517 43.0798 141.09 43.3998C140.664 43.6932 140.45 44.1065 140.45 44.6398C140.45 45.2798 140.784 45.7598 141.45 46.0798C142.144 46.3998 143.21 46.7198 144.65 47.0398C146.304 47.4665 147.65 47.8932 148.69 48.3198C149.73 48.7198 150.637 49.3865 151.41 50.3198C152.21 51.2265 152.624 52.4532 152.65 53.9998C152.65 55.3065 152.277 56.4798 151.53 57.5198C150.81 58.5332 149.757 59.3332 148.37 59.9198C147.01 60.5065 145.424 60.7998 143.61 60.7998Z" fill="#020617"/>
<path d="M123.318 55.5199H112.838L111.158 60.4799H103.998L114.158 32.3999H122.078L132.238 60.4799H124.998L123.318 55.5199ZM121.558 50.2399L118.078 39.9599L114.638 50.2399H121.558Z" fill="#020617"/>
<defs>
<linearGradient id="paint0_linear_340_25194" x1="13.9732" y1="74.0264" x2="70.0715" y2="17.9206" gradientUnits="userSpaceOnUse">
<stop stop-color="#E6007A"/>
<stop offset="0.21" stop-color="#703AC2"/>
<stop offset="0.46" stop-color="#0070EB"/>
<stop offset="0.77" stop-color="#0297FB"/>
<stop offset="1" stop-color="#0AE2FF"/>
</linearGradient>
<radialGradient id="paint1_radial_340_25194" cx="0" cy="0" r="1" gradientUnits="userSpaceOnUse" gradientTransform="translate(56.5416 35.0891) scale(16.7316 16.7316)">
<stop stop-color="white"/>
<stop offset="1" stop-color="white" stop-opacity="0"/>
</radialGradient>
<radialGradient id="paint2_radial_340_25194" cx="0" cy="0" r="1" gradientUnits="userSpaceOnUse" gradientTransform="translate(31.8151 66.1276) scale(9.73626 9.73626)">
<stop stop-color="white"/>
<stop offset="1" stop-color="white" stop-opacity="0"/>
</radialGradient>
<linearGradient id="paint3_linear_340_25194" x1="17.2061" y1="64.4783" x2="26.5884" y2="64.3503" gradientUnits="userSpaceOnUse">
<stop stop-color="white" stop-opacity="0"/>
<stop offset="1" stop-color="white"/>
</linearGradient>
<radialGradient id="paint4_radial_340_25194" cx="0" cy="0" r="1" gradientUnits="userSpaceOnUse" gradientTransform="translate(30.0152 37.5878) rotate(-120) scale(16.7316 16.7316)">
<stop stop-color="white"/>
<stop offset="1" stop-color="white" stop-opacity="0"/>
</radialGradient>
<radialGradient id="paint5_radial_340_25194" cx="0" cy="0" r="1" gradientUnits="userSpaceOnUse" gradientTransform="translate(69.2607 43.4839) rotate(-120) scale(9.73626)">
<stop stop-color="white"/>
<stop offset="1" stop-color="white" stop-opacity="0"/>
</radialGradient>
<linearGradient id="paint6_linear_340_25194" x1="75.1315" y1="56.9529" x2="70.3295" y2="48.8915" gradientUnits="userSpaceOnUse">
<stop stop-color="white" stop-opacity="0"/>
<stop offset="1" stop-color="white"/>
</linearGradient>
<radialGradient id="paint7_radial_340_25194" cx="0" cy="0" r="1" gradientUnits="userSpaceOnUse" gradientTransform="translate(44.6434 58.5354) rotate(120) scale(16.7316 16.7316)">
<stop stop-color="white"/>
<stop offset="1" stop-color="white" stop-opacity="0"/>
</radialGradient>
<radialGradient id="paint8_radial_340_25194" cx="0" cy="0" r="1" gradientUnits="userSpaceOnUse" gradientTransform="translate(30.9233 22.3802) rotate(120) scale(9.73626)">
<stop stop-color="white"/>
<stop offset="1" stop-color="white" stop-opacity="0"/>
</radialGradient>
<linearGradient id="paint9_linear_340_25194" x1="39.6506" y1="10.5497" x2="35.0768" y2="18.7428" gradientUnits="userSpaceOnUse">
<stop stop-color="white" stop-opacity="0"/>
<stop offset="1" stop-color="white"/>
</linearGradient>
<linearGradient id="paint10_linear_340_25194" x1="41.6927" y1="6.38444" x2="27.3556" y2="10.556" gradientUnits="userSpaceOnUse">
<stop stop-color="#231F20"/>
<stop offset="1" stop-color="white"/>
</linearGradient>
<linearGradient id="paint11_linear_340_25194" x1="14.6085" y1="61.0526" x2="26.5962" y2="73.5674" gradientUnits="userSpaceOnUse">
<stop stop-color="#231F20"/>
<stop offset="1" stop-color="white"/>
</linearGradient>
<linearGradient id="paint12_linear_340_25194" x1="78.9436" y1="59.1696" x2="83.1152" y2="46.4891" gradientUnits="userSpaceOnUse">
<stop stop-color="#231F20"/>
<stop offset="1" stop-color="white"/>
</linearGradient>
<linearGradient id="paint13_linear_340_25194" x1="48.2239" y1="13.6434" x2="67.4404" y2="18.0409" gradientUnits="userSpaceOnUse">
<stop stop-color="#231F20"/>
<stop offset="1" stop-color="white"/>
</linearGradient>
<linearGradient id="paint14_linear_340_25194" x1="68.1821" y1="62.8319" x2="54.7552" y2="77.2779" gradientUnits="userSpaceOnUse">
<stop stop-color="#231F20"/>
<stop offset="1" stop-color="white"/>
</linearGradient>
<linearGradient id="paint15_linear_340_25194" x1="15.5966" y1="55.5289" x2="9.80319" y2="36.6844" gradientUnits="userSpaceOnUse">
<stop stop-color="#231F20"/>
<stop offset="1" stop-color="white"/>
</linearGradient>
<linearGradient id="paint16_linear_340_25194" x1="52.4187" y1="20.7293" x2="46.342" y2="26.8136" gradientUnits="userSpaceOnUse">
<stop stop-color="#231F20"/>
<stop offset="1" stop-color="white"/>
</linearGradient>
<linearGradient id="paint17_linear_340_25194" x1="19.6326" y1="48.3286" x2="27.9373" y2="50.5594" gradientUnits="userSpaceOnUse">
<stop stop-color="#231F20"/>
<stop offset="1" stop-color="white"/>
</linearGradient>
<linearGradient id="paint18_linear_340_25194" x1="59.925" y1="62.9242" x2="57.7008" y2="54.6233" gradientUnits="userSpaceOnUse">
<stop stop-color="#231F20"/>
<stop offset="1" stop-color="white"/>
</linearGradient>
<linearGradient id="paint19_linear_340_25194" x1="47.2875" y1="55.5404" x2="50.9396" y2="50.5029" gradientUnits="userSpaceOnUse">
<stop stop-color="#231F20"/>
<stop offset="1" stop-color="white"/>
</linearGradient>
<linearGradient id="paint20_linear_340_25194" x1="34.7291" y1="53.3561" x2="27.4326" y2="56.8349" gradientUnits="userSpaceOnUse">
<stop stop-color="#231F20"/>
<stop offset="1" stop-color="white"/>
</linearGradient>
<linearGradient id="paint21_linear_340_25194" x1="32.08" y1="41.2106" x2="34.339" y2="45.9018" gradientUnits="userSpaceOnUse">
<stop stop-color="#231F20"/>
<stop offset="1" stop-color="white"/>
</linearGradient>
<linearGradient id="paint22_linear_340_25194" x1="42.5847" y1="26.7222" x2="41.026" y2="21.3383" gradientUnits="userSpaceOnUse">
<stop stop-color="#231F20"/>
<stop offset="1" stop-color="white"/>
</linearGradient>
<linearGradient id="paint23_linear_340_25194" x1="59.4357" y1="51.383" x2="63.9537" y2="52.4221" gradientUnits="userSpaceOnUse">
<stop stop-color="#231F20"/>
<stop offset="1" stop-color="white"/>
</linearGradient>
<linearGradient id="paint24_linear_340_25194" x1="52.3487" y1="36.1202" x2="46.6184" y2="35.081" gradientUnits="userSpaceOnUse">
<stop stop-color="#231F20"/>
<stop offset="1" stop-color="white"/>
</linearGradient>
</defs>
</svg>
