<svg width="463" height="322" viewBox="0 0 463 322" fill="none" xmlns="http://www.w3.org/2000/svg">
<path opacity="0.15" d="M234.82 165.93L356.005 242.091C357.669 243.133 357.663 244.82 355.993 245.85L234.322 321.23C232.652 322.266 229.958 322.254 228.294 321.212L107.109 245.051C105.445 244.009 105.451 242.322 107.121 241.292L228.791 165.912C230.461 164.876 233.156 164.888 234.82 165.93Z" fill="black"/>
<path d="M106.174 191.658L86.0151 191.61V205.268C85.9397 206.11 86.4124 206.967 87.4398 207.611L227.612 295.746C228.64 296.39 230.003 296.684 231.346 296.643V191.952L106.167 191.658H106.174Z" fill="white" stroke="#0075FF"/>
<path d="M356.346 192.247L231.346 191.952V296.643C232.524 296.609 233.681 296.328 234.579 295.767L375.313 208.535C376.286 207.933 376.772 207.138 376.765 206.344H376.779V192.295L356.339 192.247H356.346Z" fill="white" stroke="#0075FF"/>
<path d="M235.16 102.351L375.333 190.486C377.258 191.692 377.251 193.644 375.319 194.836L234.585 282.067C232.653 283.266 229.537 283.252 227.612 282.046L87.4393 193.911C85.5145 192.705 85.5214 190.753 87.453 189.561L228.187 102.33C230.119 101.132 233.236 101.145 235.16 102.351Z" fill="white" stroke="#0075FF"/>
<path d="M146.935 196.705C146.717 196.841 146.325 196.842 146.106 196.707L138.445 191.991C136.823 193.242 136.47 195.216 138.478 196.452C139.851 197.297 141.395 197.593 143.273 197.382C143.469 197.361 143.664 197.382 143.803 197.467C144.022 197.602 144.022 197.801 143.804 197.937C143.723 197.987 143.643 198.009 143.551 198.023C141.431 198.384 139.241 197.847 137.73 196.917C135.146 195.326 135.613 192.767 138.075 191.237C140.537 189.707 144.662 189.413 147.246 191.004C149.83 192.594 149.398 195.175 146.935 196.705ZM146.473 195.965C148.256 194.657 148.471 192.726 146.463 191.49C144.456 190.254 141.357 190.41 139.228 191.505L146.473 195.965Z" fill="#0075FF"/>
<path d="M160.882 199.554C161.101 199.689 161.067 199.91 160.871 200.032C160.653 200.168 160.318 200.176 160.099 200.041L158.046 198.777L149.968 203.796C149.773 203.917 149.415 203.925 149.196 203.79C148.977 203.655 149 203.427 149.184 203.313L157.261 198.294L155.289 197.079C155.069 196.944 155.08 196.738 155.299 196.602C155.495 196.48 155.852 196.458 156.071 196.593L158.044 197.808L160.966 195.992C161.185 195.856 161.519 195.862 161.738 195.997C161.958 196.132 161.97 196.339 161.751 196.474L158.828 198.29L160.882 199.554Z" fill="#0075FF"/>
<path d="M169.44 209.676L164.562 212.708C164.343 212.843 164.055 212.865 163.859 212.745C163.64 212.61 163.697 212.446 163.916 212.31L168.794 209.278C170.44 208.256 171.128 206.644 169.282 205.508C166.917 204.052 163.807 204.686 161.829 206.072C161.771 206.108 161.518 206.251 161.483 206.273L157.813 208.553C157.594 208.689 157.329 208.725 157.11 208.59C156.891 208.456 156.948 208.292 157.167 208.156L173.195 198.196C173.391 198.074 173.679 198.024 173.898 198.159C174.117 198.294 174.026 198.479 173.841 198.594L164.774 204.228C166.732 203.981 168.576 204.134 169.949 204.979C172.199 206.364 171.523 208.382 169.44 209.676Z" fill="#0075FF"/>
<path d="M182.547 218.627C182.329 218.763 181.937 218.763 181.718 218.629L174.058 213.913C172.436 215.164 172.083 217.138 174.09 218.374C175.463 219.219 177.007 219.515 178.885 219.304C179.081 219.283 179.277 219.303 179.415 219.389C179.634 219.524 179.635 219.723 179.416 219.859C179.336 219.909 179.255 219.931 179.163 219.945C177.044 220.306 174.853 219.769 173.342 218.839C170.758 217.248 171.225 214.689 173.687 213.159C176.15 211.629 180.274 211.335 182.858 212.926C185.442 214.516 185.01 217.097 182.547 218.627ZM182.097 217.894C183.88 216.586 184.094 214.655 182.087 213.419C180.08 212.183 176.981 212.339 174.852 213.434L182.097 217.894Z" fill="#0075FF"/>
<path d="M196.219 221.79C195.978 221.94 195.701 221.941 195.436 221.82C192.853 220.643 189.996 221.148 187.856 222.478L184.197 224.751C183.978 224.887 183.644 224.881 183.425 224.746C183.206 224.611 183.194 224.404 183.413 224.268L191.766 219.078C191.985 218.942 192.319 218.948 192.538 219.083C192.757 219.218 192.769 219.425 192.551 219.561L190.848 220.619C192.564 220.351 194.834 220.496 196.149 221.306C196.345 221.427 196.438 221.654 196.219 221.79Z" fill="#0075FF"/>
<path d="M204.571 232.183C204.353 232.319 203.961 232.32 203.742 232.185L196.081 227.47C194.46 228.72 194.106 230.695 196.114 231.93C197.487 232.775 199.031 233.072 200.909 232.861C201.105 232.839 201.3 232.86 201.439 232.945C201.658 233.08 201.659 233.28 201.44 233.416C201.359 233.466 201.279 233.487 201.187 233.502C199.067 233.862 196.877 233.325 195.366 232.395C192.782 230.804 193.249 228.245 195.711 226.715C198.174 225.185 202.298 224.892 204.882 226.482C207.478 228.066 207.034 230.653 204.571 232.183ZM204.12 231.45C205.903 230.143 206.118 228.211 204.111 226.976C202.104 225.74 199.005 225.896 196.875 226.991L204.12 231.45Z" fill="#0075FF"/>
<path d="M221.184 237.258L218.526 238.909L212.808 242.463C212.589 242.598 212.232 242.578 212.036 242.457C211.816 242.322 211.804 242.116 212.023 241.98L213.599 241C211.699 241.382 209.671 241.258 208.241 240.377C205.956 238.971 206.655 236.967 208.738 235.673L213.639 232.628C213.835 232.506 214.192 232.498 214.411 232.633C214.631 232.768 214.608 232.996 214.424 233.11L209.522 236.156C207.877 237.179 207.166 238.776 209.012 239.913C211.596 241.503 214.612 240.385 217.27 238.734L220.388 236.796C220.584 236.675 220.941 236.667 221.16 236.802C221.368 236.901 221.368 237.143 221.184 237.258Z" fill="#0075FF"/>
<path d="M237.091 251.29L232.189 254.336C231.97 254.472 231.613 254.451 231.417 254.33C231.198 254.195 231.186 253.989 231.404 253.853L236.306 250.807C237.952 249.785 238.628 248.209 236.782 247.072C234.475 245.652 231.124 246.635 229.203 247.829L225.428 250.174C225.21 250.31 224.853 250.29 224.657 250.169C224.437 250.034 224.425 249.827 224.644 249.692L229.546 246.646C231.191 245.623 231.891 244.061 230.056 242.932C227.726 241.498 224.927 242.038 222.569 243.604L222.373 243.725L218.68 246.02C218.461 246.156 218.127 246.15 217.908 246.015C217.688 245.88 217.677 245.673 217.895 245.537L226.272 240.332C226.491 240.196 226.825 240.203 227.044 240.338C227.263 240.473 227.275 240.679 227.056 240.815L225.664 241.68C227.484 241.349 229.466 241.615 230.839 242.46C232.408 243.426 232.63 244.787 231.676 245.993C233.737 245.497 235.984 245.627 237.576 246.607C239.837 247.999 239.173 249.996 237.091 251.29Z" fill="#0075FF"/>
<path fill-rule="evenodd" clip-rule="evenodd" d="M263.396 193.772L278.264 156.507L278.264 156.507L278.264 156.507L218.077 165.82L218.077 165.82L218.077 165.82L218.077 165.82L218.077 165.82L227.346 188.082L227.346 188.082L263.396 193.772L250.993 173.418L250.993 173.418L263.396 193.772ZM213.772 168.489L204.543 202.223L223.069 190.735L213.772 168.489ZM204.543 202.223L223.068 190.735L259.091 196.441L204.543 202.223Z" fill="url(#paint0_linear_404_338)"/>
<g opacity="0.9">
<path d="M325.264 146.625C325.184 146.199 324.882 145.782 324.358 145.454L233.539 88.3559C232.292 87.5748 230.273 87.566 229.021 88.3425L137.843 144.855C137.172 145.272 136.862 145.827 136.911 146.372C136.951 146.843 137.257 147.309 137.834 147.673L228.649 204.771C229.314 205.188 230.197 205.379 231.067 205.352C231.83 205.33 232.58 205.148 233.162 204.784L324.341 148.272C325.064 147.824 325.366 147.211 325.255 146.625H325.264Z" fill="black" fill-opacity="0.15"/>
<path d="M228.184 153.821L109.577 79.2452C108.824 78.7699 108.424 78.1614 108.372 77.547V93.4213C108.308 94.1342 108.708 94.8587 109.577 95.4035L228.184 169.979C229.053 170.524 230.207 170.773 231.343 170.738V154.58C230.207 154.615 229.048 154.366 228.184 153.821Z" fill="url(#paint1_linear_404_338)" stroke="white" stroke-width="0.5"/>
<path d="M354.366 77.8777C354.511 78.6427 354.117 79.4426 353.172 80.028L234.09 153.838C233.331 154.308 232.345 154.551 231.354 154.58V170.739C232.351 170.71 233.331 170.472 234.09 169.997L353.172 96.1863C353.995 95.6763 354.406 90.4373 354.401 89.765L354.412 94.3316V77.8777H354.372H354.366Z" fill="url(#paint2_linear_404_338)" stroke="white" stroke-width="0.5"/>
<path d="M354.309 77.8773C354.205 77.3209 353.811 76.776 353.127 76.3472L234.514 1.77161C232.885 0.751541 230.248 0.739949 228.614 1.75423L109.532 75.5647C108.657 76.1095 108.251 76.834 108.315 77.5469C108.367 78.1613 108.767 78.7698 109.52 79.2451L228.127 153.821C228.996 154.365 230.15 154.615 231.286 154.58C232.283 154.551 233.262 154.313 234.021 153.838L353.104 80.0275C354.048 79.4422 354.442 78.6423 354.298 77.8773H354.309Z" fill="url(#paint3_linear_404_338)" stroke="white" stroke-width="0.5"/>
</g>
<path d="M260.238 79.3993L248.806 83.6192L248.831 83.6317L260.213 79.4432L260.244 79.3931L260.238 79.3993Z" fill="white"/>
<path d="M205.706 44.8891L194.274 49.109H194.28L205.681 44.9142L205.7 44.8829L205.706 44.8891Z" fill="white"/>
<path d="M204.385 46.9115L200.415 52.9971L195.801 50.0733L191.475 51.6635L198.437 56.0712L195.05 61.274L199.464 64.0663L211.147 44.426L204.385 46.9115Z" fill="white"/>
<path d="M194.273 49.1091L205.706 44.8892L205.687 44.9205L210.502 43.1487L207.108 41.0012L178.458 50.7807L182.616 53.4103L194.28 49.1153H194.273V49.1091Z" fill="white"/>
<path d="M223.33 64.7988C222.904 63.7345 222.109 62.4948 220.944 61.0673C220.3 60.2409 219.836 59.5647 219.554 59.0325C219.273 58.5004 219.191 58.0433 219.317 57.6677C219.436 57.292 219.724 56.9351 220.168 56.6096C220.957 56.0273 221.871 55.7769 222.923 55.8583C223.975 55.9334 225.058 56.3278 226.172 57.0353C227.086 57.6113 227.906 58.3188 228.633 59.1452C229.359 59.9717 229.879 60.8044 230.179 61.6308L234.048 59.5647C233.729 58.7258 233.141 57.8492 232.295 56.9351C231.45 56.0211 230.467 55.2071 229.353 54.5059C227.838 53.548 226.279 52.8906 224.682 52.54C223.086 52.1894 221.533 52.1518 220.03 52.421C218.521 52.6903 217.163 53.2788 215.948 54.1678C214.909 54.9317 214.22 55.7268 213.87 56.547C213.519 57.3671 213.538 58.275 213.913 59.2767C214.289 60.2722 215.015 61.4179 216.086 62.7077C216.862 63.6405 217.407 64.4044 217.726 64.9929C218.046 65.5877 218.146 66.0823 218.033 66.4955C217.92 66.9025 217.626 67.2844 217.144 67.6412C216.305 68.2611 215.297 68.524 214.12 68.4238C212.943 68.3299 211.735 67.8854 210.489 67.0965C209.412 66.4141 208.448 65.5814 207.602 64.5859C206.757 63.5967 206.15 62.6325 205.793 61.6934L202.005 63.9598C202.174 64.5358 202.525 65.1557 203.038 65.8256C203.558 66.4955 204.184 67.1654 204.929 67.8291C205.674 68.4927 206.482 69.1063 207.358 69.6635C209.825 71.2225 212.311 72.0489 214.815 72.124C217.319 72.2054 219.548 71.5292 221.495 70.0892C222.535 69.3254 223.198 68.5178 223.505 67.6663C223.806 66.8148 223.743 65.8631 223.324 64.7988H223.33Z" fill="white"/>
<path d="M255.085 71.3665L237.454 60.2096L234.13 62.6576L251.76 73.8145L255.085 71.3665Z" fill="white"/>
<path d="M243.659 70.5902L239.464 67.9355L223.812 79.4806L228.007 82.1352L243.659 70.5902Z" fill="white"/>
<path d="M248.805 83.6253L260.238 79.4055L260.206 79.4555L265.046 77.6712L261.64 75.5175L232.99 85.2907L237.16 87.9265L244.491 85.2218H244.498L248.824 83.6315L248.799 83.619L248.805 83.6253Z" fill="white"/>
<path d="M258.904 81.4466L254.947 87.5134L250.339 84.5958L246.013 86.1923L252.963 90.5875L249.575 95.7903L253.989 98.5826L265.666 78.9548L258.904 81.4466Z" fill="white"/>
<path d="M275.815 101.087C277.374 101.312 278.939 101.287 280.523 100.999C282.101 100.711 283.516 100.11 284.768 99.1835C286.126 98.1818 286.984 97.1237 287.347 96.003C287.704 94.8823 287.579 93.7616 286.965 92.6409C286.352 91.514 285.25 90.4496 283.66 89.4479L282.201 88.5275L279.121 90.8002L280.028 91.3762C282.808 93.1355 283.034 94.8698 280.711 96.579C278.388 98.2945 275.79 98.2381 272.922 96.4225L272.152 95.9341L269.072 98.2068L271.213 99.5654L268.364 107.673L273.054 110.641L275.827 101.087H275.815Z" fill="white"/>
<path d="M280.774 87.6261L276.798 85.1092L256.431 100.129L260.407 102.646L280.774 87.6261Z" fill="white"/>
<path d="M179.986 76.2813L192.846 74.5407L194.355 73.4326L186.034 68.1672L184.237 69.4882L189.922 73.0882L189.822 73.1571L176.649 74.8162L175.234 75.8618L183.943 81.3714L185.74 80.0503L179.892 76.3501L179.992 76.2813H179.986ZM205.781 80.6701L203.252 79.0674L194.442 79.6434L194.261 79.5244L202.287 73.6079L200.177 72.268L186.034 82.6924L188.144 84.0322L191.907 81.2587L193.979 81.1648L192.877 87.0312L195.469 88.6715L196.834 81.2399L205.781 80.6639V80.6701ZM205.217 86.3926L211.629 90.4496L213.457 89.1035L207.046 85.0465L211.353 81.8722L218.24 86.2298L220.075 84.8775L211.003 79.1362L196.859 89.5606L206.013 95.3519L207.847 93.9995L200.879 89.5856L205.205 86.3926H205.217ZM216.543 98.4135L216.381 98.3133L223.869 87.2754L221.508 85.779L212.574 99.4966L215.097 101.093L234.443 93.962L232.083 92.4719L216.537 98.4135H216.543ZM248.161 102.646L232.565 107.836L232.396 107.73L238.782 96.7105L236.134 95.0326L221.99 105.457L224.069 106.772L234.312 99.2211L234.443 99.3088L228.489 109.545L230.211 110.635L244.692 105.808L244.824 105.895L234.593 113.44L236.672 114.754L250.815 104.33L248.167 102.652L248.161 102.646Z" fill="white"/>
<defs>
<linearGradient id="paint0_linear_404_338" x1="201.351" y1="176.192" x2="225.867" y2="215.725" gradientUnits="userSpaceOnUse">
<stop stop-color="#0047FF"/>
<stop offset="1" stop-color="#00D4FF"/>
</linearGradient>
<linearGradient id="paint1_linear_404_338" x1="108.204" y1="83.7081" x2="350.777" y2="83.7081" gradientUnits="userSpaceOnUse">
<stop stop-color="#0047FF"/>
<stop offset="1" stop-color="#00D4FF"/>
</linearGradient>
<linearGradient id="paint2_linear_404_338" x1="112.644" y1="85.9285" x2="350.777" y2="85.9285" gradientUnits="userSpaceOnUse">
<stop stop-color="#0047FF"/>
<stop offset="1" stop-color="#00D4FF"/>
</linearGradient>
<linearGradient id="paint3_linear_404_338" x1="108.308" y1="114.054" x2="348.538" y2="114.054" gradientUnits="userSpaceOnUse">
<stop stop-color="#0047FF"/>
<stop offset="1" stop-color="#00D4FF"/>
</linearGradient>
</defs>
</svg>
