<svg width="336" height="239" viewBox="0 0 336 239" fill="none" xmlns="http://www.w3.org/2000/svg">
<path d="M136.99 1.34137L238.764 60.4857C237.845 59.9517 236.571 60.0268 235.166 60.8382L133.391 1.69389C134.797 0.882471 136.07 0.806683 136.99 1.34137H136.99Z" fill="#EFF8FF" stroke="#0075FF" stroke-width="0.5" stroke-linejoin="round"/>
<path d="M136.563 237.413L34.7882 178.297C33.8961 177.768 33.3343 176.645 33.3016 175.025L33.004 65.4849L134.779 124.633L135.076 234.174C135.076 235.761 135.639 236.883 136.564 237.413H136.563Z" fill="#EBF5FF" stroke="#0075FF" stroke-width="0.5" stroke-linejoin="round"/>
<path d="M235.155 60.8383L139.828 115.879C137.034 117.489 134.768 121.399 134.768 124.62L33 65.471C33 62.2511 35.234 58.3407 38.0277 56.7304L133.387 1.69043L235.155 60.8383Z" fill="#EFF8FF" stroke="#0075FF" stroke-width="0.5" stroke-linejoin="round"/>
<path d="M235.165 60.8382C237.959 59.2251 240.229 60.519 240.239 63.7292L240.549 173.292C240.558 176.502 238.302 180.41 235.509 182.022L140.16 237.072C137.367 238.685 135.096 237.39 135.087 234.181L134.776 124.618C134.767 121.408 137.023 117.5 139.816 115.888L235.165 60.8382Z" fill="#E3EFFE" stroke="#0075FF" stroke-width="0.5" stroke-linejoin="round"/>
<path d="M227.583 74.9019C229.93 73.5467 231.839 74.6342 231.847 77.3319L232.107 169.409C232.115 172.107 230.219 175.391 227.872 176.746L147.74 223.01C145.393 224.365 143.484 223.278 143.477 220.58L143.216 128.503C143.208 125.805 145.105 122.521 147.452 121.166L227.583 74.9019Z" fill="#B1CAE9" stroke="#0075FF" stroke-width="0.5" stroke-linejoin="round"/>
<path d="M214.716 127.222C214.803 157.133 185.197 191.63 164.108 186.18C160.394 182.346 158.195 176.255 158.165 168.291C158.105 148.053 172.34 123.419 189.991 113.226C197.005 109.184 203.483 108.026 208.773 109.422C212.517 113.285 214.686 119.347 214.716 127.222H214.716Z" fill="#475569" stroke="#0075FF" stroke-width="0.5" stroke-linejoin="round"/>
<path d="M189.989 113.221L188.361 108.514C168.903 119.749 153.206 146.935 153.269 169.259C153.333 191.618 169.131 200.622 188.59 189.387C208.017 178.171 223.714 150.984 223.651 128.624C223.587 106.3 207.789 97.2974 188.361 108.514L189.989 113.221C207.602 103.05 221.934 111.217 221.99 131.457C222.049 151.732 207.81 176.393 190.197 186.559C172.552 196.748 158.221 188.582 158.165 168.306C158.105 148.068 172.343 123.407 189.989 113.22V113.221Z" fill="#E3EFFE"/>
<path d="M189.989 113.221L188.361 108.514M189.989 113.221C207.602 103.05 221.934 111.217 221.99 131.457C222.049 151.732 207.81 176.393 190.197 186.559C172.552 196.748 158.221 188.582 158.165 168.306C158.105 148.068 172.343 123.407 189.989 113.22V113.221ZM188.361 108.514C168.903 119.749 153.206 146.935 153.269 169.259C153.333 191.618 169.131 200.622 188.59 189.387C208.017 178.171 223.714 150.984 223.651 128.624C223.587 106.3 207.789 97.2974 188.361 108.514Z" stroke="#0075FF" stroke-width="0.5" stroke-linejoin="round"/>
<path d="M138.931 133.764C137.617 134.523 136.557 136.359 136.561 137.866C136.566 139.375 137.633 139.984 138.946 139.225C140.258 138.468 141.318 136.632 141.313 135.122C141.309 133.615 140.242 133.007 138.93 133.764H138.931Z" fill="#B1CAE9" stroke="#0075FF" stroke-width="0.5" stroke-linejoin="round"/>
<path d="M138.931 155.845C137.617 156.603 136.557 158.44 136.561 159.946C136.566 161.456 137.633 162.064 138.946 161.306C140.258 160.548 141.318 158.713 141.313 157.203C141.309 155.696 140.242 155.087 138.93 155.845H138.931Z" fill="#B1CAE9" stroke="#0075FF" stroke-width="0.5" stroke-linejoin="round"/>
<path d="M138.931 177.925C137.617 178.684 136.557 180.52 136.561 182.027C136.566 183.536 137.633 184.145 138.946 183.386C140.258 182.629 141.318 180.793 141.313 179.283C141.309 177.776 140.242 177.168 138.93 177.925H138.931Z" fill="#B1CAE9" stroke="#0075FF" stroke-width="0.5" stroke-linejoin="round"/>
<path d="M138.931 200.007C137.617 200.765 136.557 202.602 136.561 204.108C136.566 205.618 137.633 206.226 138.946 205.468C140.258 204.71 141.318 202.875 141.313 201.365C141.309 199.858 140.242 199.25 138.93 200.007H138.931Z" fill="#B1CAE9" stroke="#0075FF" stroke-width="0.5" stroke-linejoin="round"/>
<path d="M138.931 222.087C137.617 222.846 136.557 224.682 136.561 226.189C136.566 227.698 137.633 228.307 138.946 227.548C140.258 226.791 141.318 224.955 141.313 223.445C141.309 221.939 140.242 221.33 138.93 222.087H138.931Z" fill="#B1CAE9" stroke="#0075FF" stroke-width="0.5" stroke-linejoin="round"/>
<path d="M216.062 146.537V150.199C216.062 151.729 215.344 153.259 213.905 154.581C205.9 161.936 187.07 158.344 187.071 150.2V146.538C187.07 154.768 205.996 158.186 213.905 150.919C215.344 149.597 216.062 148.066 216.063 146.537H216.062Z" fill="url(#paint0_linear_340_25291)" stroke="#0075FF" stroke-width="0.5" stroke-linejoin="round"/>
<path d="M192.155 152.894L192.166 156.562C198.676 159.794 208.956 159.128 213.903 154.582C215.342 153.26 216.061 151.729 216.061 150.199V146.537C216.059 153.807 201.317 157.454 192.155 152.895V152.894Z" fill="#0075FF" stroke="#0075FF" stroke-width="0.5" stroke-linejoin="round"/>
<path d="M211.739 140.586C216.909 143.552 217.198 147.892 213.903 150.919C208.155 156.2 195.159 156.261 189.298 150.99C186.353 148.338 186.324 144.825 189.225 142.157C194.372 137.427 205.298 136.892 211.739 140.587V140.586Z" fill="url(#paint1_linear_340_25291)" stroke="#0075FF" stroke-width="0.5" stroke-linejoin="round"/>
<path d="M210.709 150.335C206.25 153.886 197.18 154.016 192.479 150.387C189.637 148.172 189.59 144.993 192.416 142.745C196.961 139.124 206.103 139.127 210.645 142.693C213.46 144.883 213.559 148.057 210.709 150.335Z" fill="#0075FF" stroke="#0075FF" stroke-width="0.5" stroke-linejoin="round"/>
<path d="M212.764 147.082C212.605 148.238 211.916 149.371 210.711 150.334C204.483 155.296 191.226 153 190.368 147.108C190.527 145.952 191.211 144.819 192.421 143.856C198.518 139 211.895 141.105 212.764 147.082Z" fill="url(#paint2_linear_340_25291)" stroke="#0075FF" stroke-width="0.5" stroke-linejoin="round"/>
<path d="M216.062 141.323V144.985C216.062 146.515 215.344 148.046 213.905 149.367C205.9 156.722 187.07 153.13 187.071 144.986V141.324C187.07 149.554 205.996 152.972 213.905 145.705C215.344 144.383 216.062 142.852 216.062 141.323Z" fill="#48BFFF" stroke="#0075FF" stroke-width="0.5" stroke-linejoin="round"/>
<path d="M213.833 136.874C216.777 139.523 216.807 143.039 213.903 145.706C208.155 150.987 195.159 151.048 189.298 145.777C186.353 143.125 186.324 139.612 189.225 136.944C194.996 131.64 207.994 131.62 213.833 136.875V136.874Z" fill="#48BFFF" stroke="#0075FF" stroke-width="0.5" stroke-linejoin="round"/>
<path d="M210.709 145.122C206.25 148.673 197.18 148.803 192.479 145.174C189.637 142.959 189.59 139.78 192.416 137.532C196.961 133.912 206.103 133.915 210.645 137.48C213.46 139.671 213.559 142.844 210.709 145.122Z" fill="#0075FF" stroke="#0075FF" stroke-width="0.5" stroke-linejoin="round"/>
<path d="M212.764 141.87C212.605 143.026 211.916 144.159 210.711 145.122C204.483 150.084 191.226 147.788 190.368 141.896C190.527 140.74 191.211 139.607 192.421 138.644C198.518 133.788 211.895 135.893 212.764 141.87Z" fill="url(#paint3_linear_340_25291)" stroke="#0075FF" stroke-width="0.5" stroke-linejoin="round"/>
<path d="M216.06 136.111V139.773C216.06 141.303 215.342 142.834 213.903 144.155C205.898 151.51 187.068 147.918 187.069 139.774V136.112C187.068 144.343 205.994 147.76 213.903 140.493C215.342 139.172 216.06 137.641 216.061 136.111H216.06Z" fill="#48BFFF" stroke="#0075FF" stroke-width="0.5" stroke-linejoin="round"/>
<path d="M213.832 131.662C216.777 134.31 216.806 137.826 213.902 140.493C208.754 145.224 197.828 145.757 191.388 142.063C186.235 139.106 185.923 134.768 189.223 131.73C194.995 126.427 207.993 126.406 213.831 131.662H213.832Z" fill="url(#paint4_linear_340_25291)" stroke="#0075FF" stroke-width="0.5" stroke-linejoin="round"/>
<path d="M210.71 139.909C204.481 144.871 191.225 142.575 190.367 136.683C190.139 135.156 190.822 133.588 192.417 132.318C196.962 128.698 206.104 128.701 210.647 132.266C213.461 134.457 213.561 137.631 210.71 139.908V139.909Z" fill="#0075FF" stroke="#0075FF" stroke-width="0.5" stroke-linejoin="round"/>
<path d="M212.764 136.657C212.605 137.812 211.916 138.946 210.711 139.909C204.483 144.87 191.226 142.575 190.368 136.683C190.527 135.527 191.211 134.394 192.421 133.431C198.518 128.575 211.895 130.679 212.764 136.657Z" fill="url(#paint5_linear_340_25291)" stroke="#0075FF" stroke-width="0.5" stroke-linejoin="round"/>
<path d="M216.062 130.898V134.56C216.062 136.09 215.344 137.621 213.905 138.943C205.9 146.297 187.07 142.705 187.071 134.561V130.899C187.07 133.526 189.096 135.534 191.391 136.85C200.464 142.054 216.061 138.276 216.062 130.898Z" fill="#48BFFF" stroke="#0075FF" stroke-width="0.5" stroke-linejoin="round"/>
<path d="M211.739 124.947C216.909 127.913 217.198 132.253 213.903 135.28C208.155 140.562 195.159 140.622 189.298 135.351C186.353 132.699 186.324 129.187 189.225 126.518C194.372 121.788 205.298 121.253 211.739 124.948V124.947Z" fill="url(#paint6_linear_340_25291)" stroke="#0075FF" stroke-width="0.5" stroke-linejoin="round"/>
<path d="M210.71 134.695C206.543 138.015 198.477 138.296 193.648 135.527C189.489 133.153 189.408 129.499 192.418 127.105C196.963 123.484 206.105 123.487 210.647 127.052C213.462 129.243 213.561 132.417 210.71 134.695V134.695Z" fill="#0075FF" stroke="#0075FF" stroke-width="0.5" stroke-linejoin="round"/>
<path d="M212.764 131.443C212.605 132.599 211.916 133.732 210.711 134.695C204.527 139.622 191.231 137.396 190.368 131.469C190.527 130.314 191.211 129.18 192.421 128.217C198.518 123.361 211.895 125.466 212.764 131.443Z" fill="url(#paint7_linear_340_25291)" stroke="#0075FF" stroke-width="0.5" stroke-linejoin="round"/>
<path d="M216.064 125.685V129.347C216.064 130.878 215.345 132.408 213.906 133.73C205.902 141.085 187.071 137.492 187.072 129.349V125.686C187.071 133.917 205.998 137.334 213.906 130.068C215.345 128.746 216.064 127.215 216.064 125.685H216.064Z" fill="#48BFFF" stroke="#0075FF" stroke-width="0.5" stroke-linejoin="round"/>
<path d="M213.567 121.337C216.512 123.985 216.541 127.501 213.638 130.168C207.89 135.45 194.894 135.51 189.032 130.239C186.088 127.587 186.059 124.075 188.959 121.406C194.731 116.102 207.729 116.082 213.567 121.337V121.337Z" fill="url(#paint8_linear_340_25291)" stroke="#0075FF" stroke-width="0.5" stroke-linejoin="round"/>
<path d="M210.71 129.483C206.543 132.803 198.477 133.084 193.648 130.314C189.489 127.941 189.408 124.287 192.418 121.892C196.963 118.272 206.105 118.275 210.647 121.84C213.462 124.031 213.561 127.204 210.71 129.482V129.483Z" fill="#0075FF" stroke="#0075FF" stroke-width="0.5" stroke-linejoin="round"/>
<path d="M212.764 126.231C212.605 127.387 211.916 128.52 210.711 129.483C204.527 134.409 191.231 132.184 190.368 126.257C190.527 125.101 191.211 123.968 192.421 123.005C198.518 118.149 211.895 120.254 212.764 126.231Z" fill="#56D6FF" stroke="#0075FF" stroke-width="0.5" stroke-linejoin="round"/>
<path d="M188.642 151.377V155.04C188.642 156.57 187.923 158.1 186.484 159.422C178.48 166.777 159.649 163.184 159.65 155.041V151.379C159.649 159.609 178.576 163.027 186.484 155.76C187.923 154.438 188.642 152.907 188.642 151.377H188.642Z" fill="url(#paint9_linear_340_25291)" stroke="#0075FF" stroke-width="0.5" stroke-linejoin="round"/>
<path d="M164.734 157.735L164.745 161.403C171.255 164.635 181.535 163.968 186.482 159.423C187.922 158.101 188.64 156.57 188.641 155.04V151.378C188.639 158.648 173.897 162.295 164.734 157.736V157.735Z" fill="#0075FF" stroke="#0075FF" stroke-width="0.5" stroke-linejoin="round"/>
<path d="M184.318 145.427C189.488 148.392 189.777 152.732 186.482 155.76C180.734 161.041 167.739 161.102 161.877 155.831C158.933 153.179 158.903 149.666 161.804 146.998C166.951 142.267 177.877 141.733 184.318 145.428V145.427Z" fill="url(#paint10_linear_340_25291)" stroke="#0075FF" stroke-width="0.5" stroke-linejoin="round"/>
<path d="M183.291 155.175C179.124 158.495 171.057 158.776 166.229 156.007C162.126 153.664 161.945 150.014 164.999 147.584C169.166 144.264 177.232 143.979 182.056 146.748C186.173 149.098 186.338 152.74 183.291 155.174V155.175Z" fill="#0075FF" stroke="#0075FF" stroke-width="0.5" stroke-linejoin="round"/>
<path d="M185.344 151.923C185.185 153.078 184.496 154.212 183.291 155.175C179.123 158.495 171.057 158.776 166.228 156.006C164.64 155.099 163.21 153.749 162.948 151.948C163.107 150.793 163.791 149.659 165.001 148.696C171.2 143.758 184.483 146.005 185.344 151.923Z" fill="url(#paint11_linear_340_25291)" stroke="#0075FF" stroke-width="0.5" stroke-linejoin="round"/>
<path d="M188.642 146.164V149.826C188.642 151.357 187.923 152.887 186.484 154.209C178.485 161.558 159.649 157.979 159.65 149.828V146.165C159.649 154.396 178.576 157.813 186.484 150.547C187.923 149.225 188.642 147.694 188.642 146.164H188.642Z" fill="url(#paint12_linear_340_25291)" stroke="#0075FF" stroke-width="0.5" stroke-linejoin="round"/>
<path d="M186.412 141.715C189.357 144.363 189.386 147.88 186.482 150.547C180.734 155.828 167.739 155.889 161.877 150.618C158.933 147.966 158.903 144.453 161.804 141.785C167.576 136.481 180.574 136.461 186.412 141.716V141.715Z" fill="url(#paint13_linear_340_25291)" stroke="#0075FF" stroke-width="0.5" stroke-linejoin="round"/>
<path d="M185.344 146.711C184.52 152.685 171.34 154.862 165.061 150.015C162.219 147.8 162.172 144.621 164.998 142.373C171.698 137.036 186.282 140.164 185.344 146.711Z" fill="#0075FF" stroke="#0075FF" stroke-width="0.5" stroke-linejoin="round"/>
<path d="M185.344 146.711C184.521 152.685 171.34 154.862 165.061 150.015C163.822 149.049 163.118 147.906 162.948 146.736C163.107 145.581 163.791 144.447 165.001 143.484C171.097 138.628 184.474 140.733 185.344 146.711Z" fill="url(#paint14_linear_340_25291)" stroke="#0075FF" stroke-width="0.5" stroke-linejoin="round"/>
<path d="M188.642 140.953V144.615C188.642 146.145 187.923 147.676 186.484 148.997C178.48 156.352 159.649 152.76 159.65 144.616V140.954C159.649 149.184 178.576 152.602 186.484 145.335C187.923 144.013 188.642 142.482 188.642 140.953H188.642Z" fill="url(#paint15_linear_340_25291)" stroke="#0075FF" stroke-width="0.5" stroke-linejoin="round"/>
<path d="M186.412 136.504C189.357 139.152 189.386 142.668 186.482 145.335C180.734 150.617 167.739 150.677 161.877 145.406C158.933 142.754 158.903 139.242 161.804 136.573C167.576 131.269 180.574 131.249 186.412 136.504V136.504Z" fill="url(#paint16_linear_340_25291)" stroke="#0075FF" stroke-width="0.5" stroke-linejoin="round"/>
<path d="M183.291 144.75C179.124 148.07 171.057 148.351 166.229 145.581C162.126 143.239 161.945 139.589 164.999 137.159C169.544 133.539 178.686 133.542 183.228 137.107C186.043 139.298 186.142 142.471 183.291 144.749V144.75Z" fill="#0075FF" stroke="#0075FF" stroke-width="0.5" stroke-linejoin="round"/>
<path d="M185.344 141.499C185.185 142.654 184.496 143.788 183.291 144.751C177.107 149.677 163.811 147.451 162.948 141.524C163.107 140.369 163.791 139.235 165.001 138.272C171.097 133.416 184.474 135.521 185.344 141.499Z" fill="url(#paint17_linear_340_25291)" stroke="#0075FF" stroke-width="0.5" stroke-linejoin="round"/>
<path d="M188.642 135.74V139.402C188.642 140.932 187.923 142.463 186.484 143.784C178.48 151.139 159.649 147.547 159.65 139.403V135.741C159.649 143.971 178.576 147.389 186.484 140.122C187.923 138.8 188.642 137.269 188.642 135.74H188.642Z" fill="url(#paint18_linear_340_25291)" stroke="#0075FF" stroke-width="0.5" stroke-linejoin="round"/>
<path d="M186.412 131.29C189.357 133.939 189.386 137.455 186.482 140.122C180.734 145.403 167.739 145.464 161.877 140.193C158.933 137.541 158.903 134.028 161.804 131.36C167.576 126.056 180.574 126.036 186.412 131.291V131.29Z" fill="url(#paint19_linear_340_25291)" stroke="#0075FF" stroke-width="0.5" stroke-linejoin="round"/>
<path d="M183.292 139.538C177.063 144.499 163.807 142.204 162.949 136.312C161.972 129.78 176.462 126.584 183.228 131.895C186.043 134.086 186.142 137.259 183.292 139.537V139.538Z" fill="#0075FF" stroke="#0075FF" stroke-width="0.5" stroke-linejoin="round"/>
<path d="M185.344 136.285C185.185 137.441 184.496 138.574 183.291 139.537C177.062 144.499 163.806 142.203 162.948 136.311C163.107 135.155 163.791 134.022 165.001 133.059C171.097 128.203 184.474 130.308 185.344 136.285Z" fill="#56D6FF" stroke="#0075FF" stroke-width="0.5" stroke-linejoin="round"/>
<path d="M212.036 172.404V176.066C212.036 177.597 211.318 179.127 209.879 180.449C201.875 187.804 183.044 184.211 183.045 176.068V172.406C183.044 180.636 201.971 184.053 209.879 176.787C211.318 175.465 212.036 173.934 212.037 172.404H212.036Z" fill="url(#paint20_linear_340_25291)" stroke="#0075FF" stroke-width="0.5" stroke-linejoin="round"/>
<path d="M188.131 178.761L188.142 182.429C194.652 185.662 204.932 184.995 209.879 180.449C211.318 179.127 212.037 177.596 212.037 176.066V172.404C212.035 179.674 197.294 183.321 188.131 178.762V178.761Z" fill="#0075FF" stroke="#0075FF" stroke-width="0.5" stroke-linejoin="round"/>
<path d="M209.809 167.955C212.754 170.604 212.783 174.12 209.879 176.787C204.131 182.068 191.135 182.129 185.274 176.858C182.329 174.206 182.3 170.693 185.201 168.025C190.973 162.721 203.97 162.701 209.809 167.956V167.955Z" fill="url(#paint21_linear_340_25291)" stroke="#0075FF" stroke-width="0.5" stroke-linejoin="round"/>
<path d="M206.688 176.202C200.46 181.164 187.203 178.868 186.345 172.976C186.117 171.449 186.8 169.881 188.396 168.611C192.941 164.991 202.083 164.994 206.625 168.559C209.44 170.75 209.539 173.924 206.688 176.201V176.202Z" fill="#0075FF" stroke="#0075FF" stroke-width="0.5" stroke-linejoin="round"/>
<path d="M208.743 172.951C208.583 174.106 207.894 175.24 206.689 176.203C200.461 181.164 187.204 178.868 186.346 172.976C186.506 171.821 187.19 170.688 188.4 169.725C194.496 164.869 207.873 166.973 208.743 172.951Z" fill="url(#paint22_linear_340_25291)" stroke="#0075FF" stroke-width="0.5" stroke-linejoin="round"/>
<path d="M212.036 167.191V170.854C212.036 172.384 211.318 173.914 209.879 175.236C201.875 182.591 183.044 178.998 183.045 170.855V167.193C183.044 175.423 201.971 178.84 209.879 171.574C211.318 170.252 212.036 168.721 212.037 167.191H212.036Z" fill="url(#paint23_linear_340_25291)" stroke="#0075FF" stroke-width="0.5" stroke-linejoin="round"/>
<path d="M207.714 161.241C212.884 164.206 213.174 168.547 209.878 171.574C204.73 176.305 193.805 176.837 187.365 173.143C182.211 170.187 181.899 165.849 185.199 162.811C190.347 158.081 201.273 157.546 207.713 161.241H207.714Z" fill="url(#paint24_linear_340_25291)" stroke="#0075FF" stroke-width="0.5" stroke-linejoin="round"/>
<path d="M208.742 167.738C208.582 168.893 207.893 170.027 206.688 170.99C200.504 175.916 187.208 173.69 186.345 167.764C186.117 166.237 186.8 164.669 188.396 163.399C195.096 158.061 209.68 161.19 208.742 167.737V167.738Z" fill="#0075FF" stroke="#0075FF" stroke-width="0.5" stroke-linejoin="round"/>
<path d="M208.743 167.738C208.583 168.893 207.894 170.027 206.689 170.99C200.505 175.916 187.209 173.69 186.346 167.764C186.506 166.608 187.19 165.475 188.4 164.512C194.496 159.656 207.873 161.76 208.743 167.738Z" fill="url(#paint25_linear_340_25291)" stroke="#0075FF" stroke-width="0.5" stroke-linejoin="round"/>
<path d="M212.038 161.979V165.641C212.038 167.171 211.32 168.701 209.881 170.023C201.877 177.378 183.046 173.785 183.047 165.642V161.98C183.047 163.537 183.79 165.093 185.276 166.432C193.376 173.717 212.038 170.066 212.039 161.979H212.038Z" fill="url(#paint26_linear_340_25291)" stroke="#0075FF" stroke-width="0.5" stroke-linejoin="round"/>
<path d="M207.715 156.029C212.885 158.994 213.174 163.334 209.879 166.362C204.131 171.643 191.135 171.704 185.274 166.433C182.329 163.781 182.3 160.268 185.201 157.6C190.348 152.869 201.274 152.335 207.715 156.03V156.029Z" fill="url(#paint27_linear_340_25291)" stroke="#0075FF" stroke-width="0.5" stroke-linejoin="round"/>
<path d="M206.688 165.777C200.46 170.739 187.203 168.443 186.345 162.551C186.117 161.024 186.8 159.456 188.396 158.187C192.941 154.566 202.083 154.569 206.625 158.135C209.44 160.325 209.539 163.499 206.688 165.777V165.777Z" fill="#0075FF" stroke="#0075FF" stroke-width="0.5" stroke-linejoin="round"/>
<path d="M208.743 162.525C208.583 163.681 207.894 164.814 206.689 165.777C200.461 170.739 187.204 168.443 186.346 162.551C186.506 161.396 187.19 160.262 188.4 159.299C194.496 154.443 207.873 156.548 208.743 162.525Z" fill="url(#paint28_linear_340_25291)" stroke="#0075FF" stroke-width="0.5" stroke-linejoin="round"/>
<path d="M212.038 156.766V160.428C212.038 161.959 211.32 163.489 209.881 164.811C201.877 172.166 183.046 168.573 183.047 160.43V156.768C183.047 158.324 183.79 159.881 185.276 161.22C191.147 166.5 204.14 166.424 209.881 161.149C211.32 159.827 212.038 158.296 212.039 156.766H212.038Z" fill="url(#paint29_linear_340_25291)" stroke="#0075FF" stroke-width="0.5" stroke-linejoin="round"/>
<path d="M207.715 150.816C212.885 153.781 213.174 158.122 209.879 161.149C204.131 166.43 191.135 166.491 185.274 161.22C182.329 158.568 182.3 155.055 185.201 152.387C190.348 147.657 201.274 147.122 207.715 150.817V150.816Z" fill="url(#paint30_linear_340_25291)" stroke="#0075FF" stroke-width="0.5" stroke-linejoin="round"/>
<path d="M206.689 160.565C202.231 164.116 193.161 164.246 188.46 160.617C185.617 158.402 185.571 155.223 188.396 152.975C192.942 149.354 202.083 149.357 206.626 152.923C209.44 155.113 209.54 158.287 206.689 160.565Z" fill="#0075FF" stroke="#0075FF" stroke-width="0.5" stroke-linejoin="round"/>
<path d="M208.743 157.313C208.583 158.468 207.894 159.602 206.689 160.565C200.461 165.526 187.204 163.23 186.346 157.338C186.506 156.183 187.19 155.049 188.4 154.086C194.496 149.23 207.873 151.335 208.743 157.313Z" fill="#56D6FF" stroke="#0075FF" stroke-width="0.5" stroke-linejoin="round"/>
<path d="M186.735 180.831V184.493C186.735 186.023 186.016 187.553 184.577 188.875C176.573 196.23 157.742 192.637 157.743 184.494V180.832C157.742 189.062 176.669 192.48 184.577 185.213C186.016 183.891 186.735 182.36 186.735 180.831H186.735Z" fill="url(#paint31_linear_340_25291)" stroke="#0075FF" stroke-width="0.5" stroke-linejoin="round"/>
<path d="M162.827 187.188L162.838 190.856C169.348 194.088 179.628 193.422 184.575 188.876C186.015 187.554 186.733 186.023 186.734 184.493V180.831C186.732 188.101 171.99 191.748 162.827 187.189V187.188Z" fill="#0075FF" stroke="#0075FF" stroke-width="0.5" stroke-linejoin="round"/>
<path d="M184.507 176.381C187.451 179.03 187.48 182.546 184.577 185.213C179.429 189.944 168.503 190.476 162.063 186.782C156.909 183.826 156.597 179.488 159.898 176.45C165.669 171.146 178.667 171.126 184.506 176.381H184.507Z" fill="url(#paint32_linear_340_25291)" stroke="#0075FF" stroke-width="0.5" stroke-linejoin="round"/>
<path d="M183.439 181.377C183.28 182.533 182.591 183.666 181.386 184.629C177.218 187.949 169.152 188.23 164.323 185.461C160.22 183.118 160.039 179.468 163.093 177.038C169.794 171.701 184.377 174.829 183.439 181.376V181.377Z" fill="#0075FF" stroke="#0075FF" stroke-width="0.5" stroke-linejoin="round"/>
<path d="M183.436 181.377C183.277 182.533 182.588 183.666 181.383 184.629C175.199 189.555 161.903 187.33 161.04 181.403C161.199 180.247 161.883 179.114 163.093 178.151C169.19 173.295 182.567 175.4 183.436 181.377Z" fill="url(#paint33_linear_340_25291)" stroke="#0075FF" stroke-width="0.5" stroke-linejoin="round"/>
<path d="M183.437 176.165C183.278 177.32 182.589 178.454 181.384 179.417C175.155 184.378 161.899 182.082 161.041 176.19C160.813 174.663 161.496 173.096 163.091 171.826C169.792 166.488 184.375 169.617 183.437 176.164V176.165Z" fill="#0075FF" stroke="#0075FF" stroke-width="0.5" stroke-linejoin="round"/>
<path d="M183.436 176.164C183.277 177.32 182.588 178.453 181.383 179.416C175.155 184.378 161.898 182.082 161.04 176.19C161.199 175.034 161.883 173.901 163.093 172.938C169.19 168.082 182.567 170.187 183.436 176.164Z" fill="url(#paint34_linear_340_25291)" stroke="#0075FF" stroke-width="0.5" stroke-linejoin="round"/>
<path d="M181.384 174.204C175.2 179.13 161.904 176.905 161.041 170.978C160.813 169.451 161.496 167.883 163.091 166.613C167.636 162.993 176.778 162.996 181.321 166.561C184.135 168.752 184.235 171.926 181.384 174.203V174.204Z" fill="#0075FF" stroke="#0075FF" stroke-width="0.5" stroke-linejoin="round"/>
<path d="M183.436 170.952C183.277 172.107 182.588 173.241 181.383 174.204C175.199 179.13 161.903 176.904 161.04 170.978C161.868 164.966 175.156 162.833 181.323 167.674C182.562 168.639 183.266 169.782 183.436 170.952Z" fill="url(#paint35_linear_340_25291)" stroke="#0075FF" stroke-width="0.5" stroke-linejoin="round"/>
<path d="M181.385 168.991C176.927 172.542 167.856 172.672 163.155 169.044C160.313 166.828 160.266 163.649 163.092 161.401C167.637 157.781 176.779 157.784 181.322 161.349C184.136 163.54 184.236 166.714 181.385 168.991Z" fill="#0075FF" stroke="#0075FF" stroke-width="0.5" stroke-linejoin="round"/>
<path d="M183.436 165.739C183.277 166.894 182.588 168.028 181.383 168.991C175.155 173.952 161.898 171.657 161.04 165.765C161.199 164.609 161.883 163.476 163.093 162.513C169.19 157.657 182.567 159.761 183.436 165.739Z" fill="url(#paint36_linear_340_25291)" stroke="#0075FF" stroke-width="0.5" stroke-linejoin="round"/>
<path d="M186.733 175.618V179.28C186.733 180.811 186.014 182.341 184.575 183.663C176.571 191.018 157.74 187.425 157.741 179.282V175.62C157.74 183.85 176.667 187.267 184.575 180.001C186.014 178.679 186.733 177.148 186.733 175.618H186.733Z" fill="url(#paint37_linear_340_25291)" stroke="#0075FF" stroke-width="0.5" stroke-linejoin="round"/>
<path d="M182.411 169.668C187.581 172.633 187.87 176.973 184.575 180C178.827 185.282 165.832 185.342 159.97 180.071C157.026 177.419 156.996 173.907 159.897 171.238C165.044 166.508 175.97 165.973 182.411 169.668V169.668Z" fill="url(#paint38_linear_340_25291)" stroke="#0075FF" stroke-width="0.5" stroke-linejoin="round"/>
<path d="M186.733 170.406V174.068C186.733 175.598 186.014 177.129 184.575 178.45C176.571 185.805 157.74 182.213 157.741 174.069V170.407C157.74 178.637 176.667 182.055 184.575 174.788C186.014 173.466 186.733 171.935 186.733 170.406H186.733Z" fill="url(#paint39_linear_340_25291)" stroke="#0075FF" stroke-width="0.5" stroke-linejoin="round"/>
<path d="M182.411 164.456C187.581 167.421 187.87 171.761 184.575 174.789C178.827 180.07 165.832 180.131 159.97 174.859C157.026 172.208 156.996 168.695 159.897 166.026C165.044 161.296 175.97 160.762 182.411 164.456V164.456Z" fill="url(#paint40_linear_340_25291)" stroke="#0075FF" stroke-width="0.5" stroke-linejoin="round"/>
<path d="M186.733 165.193V168.856C186.733 170.386 186.014 171.916 184.575 173.238C176.576 180.587 157.74 177.009 157.741 168.857V165.195C157.74 173.425 176.667 176.842 184.575 169.576C186.014 168.254 186.733 166.723 186.733 165.193H186.733Z" fill="url(#paint41_linear_340_25291)" stroke="#0075FF" stroke-width="0.5" stroke-linejoin="round"/>
<path d="M182.411 159.243C187.581 162.208 187.87 166.548 184.575 169.576C178.827 174.857 165.832 174.918 159.97 169.647C157.026 166.995 156.996 163.482 159.897 160.813C165.044 156.083 175.97 155.549 182.411 159.243V159.243Z" fill="url(#paint42_linear_340_25291)" stroke="#0075FF" stroke-width="0.5" stroke-linejoin="round"/>
<path d="M186.733 159.98V163.642C186.733 165.172 186.014 166.703 184.575 168.025C176.571 175.379 157.74 171.787 157.741 163.644V159.981C157.741 161.538 158.484 163.095 159.97 164.433C168.07 171.719 186.732 168.068 186.733 159.98H186.733Z" fill="url(#paint43_linear_340_25291)" stroke="#0075FF" stroke-width="0.5" stroke-linejoin="round"/>
<path d="M182.411 154.03C187.581 156.996 187.87 161.336 184.575 164.363C178.827 169.645 165.832 169.705 159.97 164.434C157.026 161.782 156.996 158.27 159.897 155.601C165.044 150.871 175.97 150.336 182.411 154.031V154.03Z" fill="url(#paint44_linear_340_25291)" stroke="#0075FF" stroke-width="0.5" stroke-linejoin="round"/>
<path d="M181.384 163.778C175.156 168.74 161.899 166.444 161.041 160.552C160.064 154.021 174.555 150.825 181.321 156.136C184.135 158.327 184.235 161.5 181.384 163.778V163.778Z" fill="#0075FF" stroke="#0075FF" stroke-width="0.5" stroke-linejoin="round"/>
<path d="M183.436 160.526C183.277 161.682 182.588 162.815 181.383 163.778C175.155 168.74 161.898 166.444 161.04 160.552C161.868 154.54 175.156 152.407 181.323 157.248C182.562 158.214 183.266 159.357 183.436 160.526Z" fill="#56D6FF" stroke="#0075FF" stroke-width="0.5" stroke-linejoin="round"/>
<path d="M221.996 131.442C222.056 151.739 207.821 176.404 190.199 186.567C179.471 192.777 169.962 192.184 164.108 186.18C169.398 187.547 175.905 186.418 182.919 182.347C200.54 172.183 214.775 147.518 214.715 127.222C214.685 119.347 212.516 113.284 208.772 109.421C216.766 111.472 221.966 119.258 221.996 131.442V131.442Z" fill="#EFF8FF" stroke="#0075FF" stroke-width="0.5" stroke-linejoin="round"/>
<path d="M221.996 130.121L227.328 129.873L229.882 164.452L224.864 173.808L203.63 189.825L193.415 196.22L164.813 203.401L170.261 192.693L184.824 190.43C184.824 190.43 195.293 185.243 203.981 175.928C218.569 160.288 225.53 130.176 221.996 129.873" fill="#B1CAE9"/>
<path d="M192.523 106.419V111.904C208.953 103.907 221.936 112.2 221.989 131.457C222.047 151.732 207.809 176.393 190.196 186.559C174.024 195.898 160.67 189.785 158.505 173.093H153.452C155.23 192.609 170.286 199.953 188.589 189.386C208.016 178.17 223.712 150.983 223.649 128.623C223.589 107.921 209.991 98.7052 192.522 106.418L192.523 106.419Z" fill="#E3EFFE" stroke="#0075FF" stroke-width="0.5" stroke-linejoin="round"/>
<path d="M187.081 112.275C187.081 112.275 158.999 132.303 156.978 158.335C156.978 158.335 148.033 132.6 148.658 131.085C149.281 129.599 155.433 122.616 158.167 121.041C160.901 119.466 168.182 115.454 171.717 114.176C175.254 112.928 180.424 111.472 180.424 111.472L187.081 112.275H187.081Z" fill="#B1CAE9"/>
<path d="M158.173 168.453C157.895 148.757 172.02 123.593 189.989 113.22C192.708 111.65 195.333 110.568 197.855 109.848V104.564C194.829 105.337 191.654 106.611 188.361 108.513C169.133 119.614 153.607 146.283 153.301 168.453H158.173Z" fill="#E3EFFE" stroke="#0075FF" stroke-width="0.5" stroke-linejoin="round"/>
<path d="M233.367 119.796L233.282 137.695C233.28 138.403 232.813 139.112 231.881 139.653C228.94 141.362 223.641 140.204 223.648 137.669L223.732 119.771C223.73 120.489 224.205 121.208 225.156 121.758C227.043 122.847 230.089 122.845 231.965 121.755C232.898 121.213 233.364 120.505 233.367 119.796Z" fill="#EBF5FF" stroke="#0075FF" stroke-width="0.5" stroke-linejoin="round"/>
<path d="M231.965 121.755C230.458 122.631 228.2 122.802 226.391 122.274V140.195C228.185 140.695 230.396 140.516 231.88 139.654C232.812 139.113 233.278 138.404 233.281 137.696L233.365 119.797C233.363 120.506 232.897 121.214 231.964 121.756L231.965 121.755Z" fill="#EBF5FF" stroke="#0075FF" stroke-width="0.5" stroke-linejoin="round"/>
<path d="M231.965 121.755C231.748 121.881 231.514 121.991 231.268 122.088V139.951C231.482 139.862 231.689 139.765 231.881 139.653C232.813 139.111 233.28 138.403 233.282 137.694L233.367 119.796C233.364 120.504 232.898 121.213 231.965 121.755Z" fill="#E3EFFE" stroke="#0075FF" stroke-width="0.5" stroke-linejoin="round"/>
<path d="M231.945 117.813C233.832 118.902 233.841 120.665 231.965 121.755C230.088 122.846 227.042 122.847 225.156 121.758C223.265 120.667 223.257 118.902 225.134 117.812C227.01 116.721 230.053 116.721 231.945 117.813H231.945Z" fill="white" stroke="#0075FF" stroke-width="0.5" stroke-linejoin="round"/>
<path d="M237.353 99.3568L244.244 95.3519C250.495 91.7196 259.151 92.2321 268.705 97.7479L261.814 101.753C252.259 96.237 243.604 95.7246 237.353 99.3568Z" fill="#EFF8FF" stroke="#0075FF" stroke-width="0.5" stroke-linejoin="round"/>
<path d="M260.222 106.354C277.467 116.309 291.382 140.41 291.323 160.187C291.268 180.004 277.263 187.984 260.019 178.027C242.807 168.092 228.891 143.991 228.949 124.176C229.003 104.395 243.009 96.4138 260.222 106.354Z" fill="#E3EFFE" stroke="#0075FF" stroke-width="0.5" stroke-linejoin="round"/>
<path d="M292.968 179.191L286.077 183.196C292.251 179.607 296.077 171.973 296.108 161.118C296.17 139.301 280.831 112.732 261.814 101.753L268.705 97.748C287.722 108.728 303.061 135.296 302.999 157.113C302.968 167.969 299.142 175.603 292.968 179.191Z" fill="#EBF5FF" stroke="#0075FF" stroke-width="0.5" stroke-linejoin="round"/>
<path d="M260.223 106.354L261.814 101.754C280.831 112.733 296.17 139.302 296.108 161.118C296.046 182.97 280.606 191.769 261.59 180.789C242.604 169.828 227.264 143.259 227.326 121.407C227.388 99.5907 242.828 90.7923 261.814 101.754L260.223 106.354C243.01 96.4138 229.004 104.395 228.95 124.176C228.892 143.991 242.808 168.092 260.02 178.027C277.265 187.984 291.269 180.004 291.324 160.187C291.382 140.41 277.468 116.309 260.223 106.354Z" fill="#B1CAE9"/>
<path d="M260.223 106.354L261.814 101.754M260.223 106.354C243.01 96.4138 229.004 104.395 228.95 124.176C228.892 143.991 242.808 168.092 260.02 178.027C277.265 187.984 291.269 180.004 291.324 160.187C291.382 140.41 277.468 116.309 260.223 106.354ZM261.814 101.754C280.831 112.733 296.17 139.302 296.108 161.118C296.046 182.97 280.606 191.769 261.59 180.789C242.604 169.828 227.264 143.259 227.326 121.407C227.388 99.5907 242.828 90.7923 261.814 101.754Z" stroke="#0075FF" stroke-width="0.5" stroke-linejoin="round"/>
<path d="M247.794 124.481L250.852 122.704C253.625 121.092 257.467 121.32 261.707 123.767L258.649 125.544C254.409 123.096 250.568 122.869 247.794 124.481Z" fill="#EFF8FF" stroke="#0075FF" stroke-width="0.5" stroke-linejoin="round"/>
<path d="M257.944 127.586C265.598 132.004 271.772 142.699 271.746 151.476C271.722 160.269 265.507 163.811 257.855 159.392C250.216 154.983 244.041 144.288 244.067 135.495C244.09 126.717 250.306 123.175 257.945 127.586H257.944Z" fill="white" stroke="#0075FF" stroke-width="0.5" stroke-linejoin="round"/>
<path d="M272.474 159.909L269.416 161.686C272.156 160.094 273.854 156.706 273.867 151.889C273.894 142.208 267.087 130.417 258.649 125.545L261.706 123.768C270.145 128.64 276.953 140.43 276.925 150.112C276.911 154.93 275.213 158.317 272.474 159.909Z" fill="#EBF5FF" stroke="#0075FF" stroke-width="0.5" stroke-linejoin="round"/>
<path d="M257.943 127.586L258.648 125.544C267.087 130.417 273.895 142.207 273.867 151.888C273.839 161.586 266.988 165.49 258.549 160.618C250.123 155.754 243.316 143.963 243.343 134.266C243.371 124.585 250.223 120.68 258.648 125.544L257.943 127.586C250.304 123.175 244.089 126.717 244.064 135.495C244.039 144.288 250.214 154.983 257.852 159.392C265.505 163.811 271.719 160.27 271.744 151.475C271.769 142.699 265.595 132.004 257.942 127.586H257.943Z" fill="#B1CAE9"/>
<path d="M257.943 127.586L258.648 125.544M257.943 127.586C250.304 123.175 244.089 126.717 244.064 135.495C244.039 144.288 250.214 154.983 257.852 159.392C265.505 163.811 271.719 160.27 271.744 151.475C271.769 142.699 265.595 132.004 257.942 127.586H257.943ZM258.648 125.544C267.087 130.417 273.895 142.207 273.867 151.888C273.839 161.586 266.988 165.49 258.549 160.618C250.123 155.754 243.316 143.963 243.343 134.266C243.371 124.585 250.223 120.68 258.648 125.544Z" stroke="#0075FF" stroke-width="0.5" stroke-linejoin="round"/>
<line x1="189.229" y1="130.718" x2="189.229" y2="133.482" stroke="#0075FF" stroke-width="0.5" stroke-linecap="round"/>
<line x1="191.405" y1="132.35" x2="191.405" y2="135.114" stroke="#0075FF" stroke-width="0.5" stroke-linecap="round"/>
<line x1="193.581" y1="132.894" x2="193.581" y2="136.202" stroke="#0075FF" stroke-width="0.5" stroke-linecap="round"/>
<line x1="195.757" y1="133.655" x2="195.757" y2="136.963" stroke="#0075FF" stroke-width="0.5" stroke-linecap="round"/>
<line x1="197.933" y1="133.981" x2="197.933" y2="137.289" stroke="#0075FF" stroke-width="0.5" stroke-linecap="round"/>
<line x1="200.108" y1="134.308" x2="200.108" y2="137.616" stroke="#0075FF" stroke-width="0.5" stroke-linecap="round"/>
<line x1="202.284" y1="134.308" x2="202.284" y2="137.616" stroke="#0075FF" stroke-width="0.5" stroke-linecap="round"/>
<line x1="204.46" y1="133.981" x2="204.46" y2="137.289" stroke="#0075FF" stroke-width="0.5" stroke-linecap="round"/>
<line x1="206.636" y1="133.655" x2="206.636" y2="136.963" stroke="#0075FF" stroke-width="0.5" stroke-linecap="round"/>
<line x1="208.812" y1="133.111" x2="208.812" y2="136.419" stroke="#0075FF" stroke-width="0.5" stroke-linecap="round"/>
<line x1="210.988" y1="132.132" x2="210.988" y2="135.44" stroke="#0075FF" stroke-width="0.5" stroke-linecap="round"/>
<line x1="213.165" y1="130.718" x2="213.165" y2="134.026" stroke="#0075FF" stroke-width="0.5" stroke-linecap="round"/>
<line x1="189.774" y1="135.94" x2="189.774" y2="139.248" stroke="#0075FF" stroke-width="0.5" stroke-linecap="round"/>
<line x1="191.95" y1="137.246" x2="191.95" y2="140.553" stroke="#0075FF" stroke-width="0.5" stroke-linecap="round"/>
<line x1="194.126" y1="138.333" x2="194.126" y2="141.641" stroke="#0075FF" stroke-width="0.5" stroke-linecap="round"/>
<line x1="196.302" y1="138.769" x2="196.302" y2="142.077" stroke="#0075FF" stroke-width="0.5" stroke-linecap="round"/>
<line x1="198.479" y1="139.095" x2="198.479" y2="142.403" stroke="#0075FF" stroke-width="0.5" stroke-linecap="round"/>
<line x1="200.653" y1="139.421" x2="200.653" y2="142.729" stroke="#0075FF" stroke-width="0.5" stroke-linecap="round"/>
<line x1="202.829" y1="139.421" x2="202.829" y2="142.729" stroke="#0075FF" stroke-width="0.5" stroke-linecap="round"/>
<line x1="205.005" y1="139.095" x2="205.005" y2="142.403" stroke="#0075FF" stroke-width="0.5" stroke-linecap="round"/>
<line x1="207.181" y1="138.769" x2="207.181" y2="142.077" stroke="#0075FF" stroke-width="0.5" stroke-linecap="round"/>
<line x1="209.357" y1="138.225" x2="209.357" y2="141.533" stroke="#0075FF" stroke-width="0.5" stroke-linecap="round"/>
<line x1="211.534" y1="137.246" x2="211.534" y2="140.553" stroke="#0075FF" stroke-width="0.5" stroke-linecap="round"/>
<line x1="191.403" y1="142.319" x2="191.403" y2="145.41" stroke="#0075FF" stroke-width="0.5" stroke-linecap="round"/>
<line x1="193.58" y1="143.229" x2="193.58" y2="146.537" stroke="#0075FF" stroke-width="0.5" stroke-linecap="round"/>
<line x1="195.756" y1="143.991" x2="195.756" y2="147.299" stroke="#0075FF" stroke-width="0.5" stroke-linecap="round"/>
<line x1="197.932" y1="144.317" x2="197.932" y2="147.625" stroke="#0075FF" stroke-width="0.5" stroke-linecap="round"/>
<line x1="200.108" y1="144.644" x2="200.108" y2="147.951" stroke="#0075FF" stroke-width="0.5" stroke-linecap="round"/>
<line x1="202.282" y1="144.644" x2="202.282" y2="147.951" stroke="#0075FF" stroke-width="0.5" stroke-linecap="round"/>
<line x1="204.458" y1="144.317" x2="204.458" y2="147.625" stroke="#0075FF" stroke-width="0.5" stroke-linecap="round"/>
<line x1="206.635" y1="143.991" x2="206.635" y2="147.299" stroke="#0075FF" stroke-width="0.5" stroke-linecap="round"/>
<line x1="208.811" y1="143.446" x2="208.811" y2="146.754" stroke="#0075FF" stroke-width="0.5" stroke-linecap="round"/>
<line x1="210.987" y1="142.468" x2="210.987" y2="145.776" stroke="#0075FF" stroke-width="0.5" stroke-linecap="round"/>
<line x1="189.774" y1="146.494" x2="189.774" y2="149.585" stroke="#0075FF" stroke-width="0.5" stroke-linecap="round"/>
<line x1="191.95" y1="147.799" x2="191.95" y2="149.054" stroke="#0075FF" stroke-width="0.5" stroke-linecap="round"/>
<line x1="207.181" y1="149.323" x2="207.181" y2="150.362" stroke="#0075FF" stroke-width="0.5" stroke-linecap="round"/>
<line x1="209.357" y1="148.778" x2="209.357" y2="150.33" stroke="#0075FF" stroke-width="0.5" stroke-linecap="round"/>
<path d="M46.8512 185.159V132.835L63.7795 107.187" stroke="#0075FF" stroke-width="0.75" stroke-linecap="round" stroke-linejoin="round"/>
<path d="M55.5718 190.289V145.147" stroke="#0075FF" stroke-width="0.75" stroke-linecap="round" stroke-linejoin="round"/>
<path d="M65.3184 196.137V141.762" stroke="#0075FF" stroke-width="0.75" stroke-linecap="round" stroke-linejoin="round"/>
<path d="M90.9673 136.426L103.279 121.037C103.279 117.275 103.279 109.136 103.279 106.674C103.279 103.596 105.844 100.518 107.383 99.4919C108.614 98.6712 111.315 97.098 112.512 96.4141" stroke="#0075FF" stroke-width="0.75" stroke-linecap="round" stroke-linejoin="round"/>
<path d="M96.6101 174.387L111.999 151.303C111.999 138.991 111.999 113.856 111.999 111.804C111.999 109.239 113.538 104.622 116.616 103.083C119.079 101.852 125.166 98.4662 127.902 96.9272" stroke="#0075FF" stroke-width="0.75" stroke-linecap="round" stroke-linejoin="round"/>
<path d="M108.922 207.217V175.926L122.259 153.868C122.259 142.753 122.259 119.909 122.259 117.446C122.259 114.368 124.824 110.778 127.902 108.726C130.364 107.084 145.343 98.4661 152.525 94.3623" stroke="#0075FF" stroke-width="0.75" stroke-linecap="round" stroke-linejoin="round"/>
<path d="M92.9964 175.499C92.9873 177.568 94.5052 180.196 96.3074 181.238C97.9233 182.168 99.0469 181.515 99.0524 179.678C99.058 177.611 97.5402 174.983 95.7386 173.943C94.1707 173.036 93.0026 173.62 92.9964 175.499Z" stroke="#0075FF" stroke-width="0.75" stroke-linejoin="round"/>
<path d="M87.0049 137.183C86.9959 139.252 88.5137 141.88 90.3159 142.922C91.936 143.858 93.0554 143.189 93.061 141.362C93.0666 139.295 91.5487 136.667 89.7472 135.627C88.1751 134.718 87.0112 135.306 87.0049 137.183Z" stroke="#0075FF" stroke-width="0.75" stroke-linejoin="round"/>
<path d="M61.7627 135.655C61.7571 137.726 63.275 140.353 65.0737 141.394C66.7049 142.337 67.8132 141.649 67.8188 139.836C67.8243 137.767 66.3065 135.139 64.505 134.098C62.9371 133.192 61.769 133.776 61.7627 135.655Z" stroke="#0075FF" stroke-width="0.75" stroke-linejoin="round"/>
<path d="M60.294 101.23C60.2884 103.3 61.8062 105.928 63.605 106.969C65.2056 107.897 66.3445 107.258 66.35 105.41C66.3556 103.34 64.8377 100.712 63.0362 99.6728C61.437 98.7529 60.3002 99.3815 60.294 101.23Z" stroke="#0075FF" stroke-width="0.75" stroke-linejoin="round"/>
<path d="M105.851 208.547C105.851 210.656 107.339 213.225 109.168 214.274C110.785 215.231 111.901 214.55 111.925 212.714C111.925 210.606 110.436 208.039 108.608 206.991C107.039 206.093 105.851 206.664 105.851 208.547Z" stroke="#0075FF" stroke-width="0.75" stroke-linejoin="round"/>
<defs>
<linearGradient id="paint0_linear_340_25291" x1="187.071" y1="155.398" x2="215.381" y2="155.398" gradientUnits="userSpaceOnUse">
<stop stop-color="#387CFF"/>
<stop offset="1" stop-color="#00D4FF"/>
</linearGradient>
<linearGradient id="paint1_linear_340_25291" x1="187.069" y1="150.492" x2="215.38" y2="150.492" gradientUnits="userSpaceOnUse">
<stop stop-color="#387CFF"/>
<stop offset="1" stop-color="#00D4FF"/>
</linearGradient>
<linearGradient id="paint2_linear_340_25291" x1="190.368" y1="149.912" x2="212.237" y2="149.912" gradientUnits="userSpaceOnUse">
<stop stop-color="#387CFF"/>
<stop offset="1" stop-color="#00D4FF"/>
</linearGradient>
<linearGradient id="paint3_linear_340_25291" x1="190.368" y1="144.7" x2="212.237" y2="144.7" gradientUnits="userSpaceOnUse">
<stop stop-color="#387CFF"/>
<stop offset="1" stop-color="#00D4FF"/>
</linearGradient>
<linearGradient id="paint4_linear_340_25291" x1="187.067" y1="140.066" x2="215.378" y2="140.066" gradientUnits="userSpaceOnUse">
<stop stop-color="#4098FF"/>
<stop offset="1" stop-color="#4FE1FF"/>
</linearGradient>
<linearGradient id="paint5_linear_340_25291" x1="190.368" y1="139.487" x2="212.237" y2="139.487" gradientUnits="userSpaceOnUse">
<stop stop-color="#387CFF"/>
<stop offset="1" stop-color="#00D4FF"/>
</linearGradient>
<linearGradient id="paint6_linear_340_25291" x1="187.069" y1="134.853" x2="215.38" y2="134.853" gradientUnits="userSpaceOnUse">
<stop stop-color="#4098FF"/>
<stop offset="1" stop-color="#4FE1FF"/>
</linearGradient>
<linearGradient id="paint7_linear_340_25291" x1="190.368" y1="134.269" x2="212.237" y2="134.269" gradientUnits="userSpaceOnUse">
<stop stop-color="#387CFF"/>
<stop offset="1" stop-color="#00D4FF"/>
</linearGradient>
<linearGradient id="paint8_linear_340_25291" x1="186.804" y1="129.741" x2="215.114" y2="129.741" gradientUnits="userSpaceOnUse">
<stop stop-color="#4098FF"/>
<stop offset="1" stop-color="#4FE1FF"/>
</linearGradient>
<linearGradient id="paint9_linear_340_25291" x1="159.65" y1="160.239" x2="187.96" y2="160.239" gradientUnits="userSpaceOnUse">
<stop stop-color="#387CFF"/>
<stop offset="1" stop-color="#00D4FF"/>
</linearGradient>
<linearGradient id="paint10_linear_340_25291" x1="159.648" y1="155.333" x2="187.96" y2="155.333" gradientUnits="userSpaceOnUse">
<stop stop-color="#387CFF"/>
<stop offset="1" stop-color="#00D4FF"/>
</linearGradient>
<linearGradient id="paint11_linear_340_25291" x1="162.948" y1="154.751" x2="184.817" y2="154.751" gradientUnits="userSpaceOnUse">
<stop stop-color="#387CFF"/>
<stop offset="1" stop-color="#00D4FF"/>
</linearGradient>
<linearGradient id="paint12_linear_340_25291" x1="159.65" y1="155.025" x2="187.96" y2="155.025" gradientUnits="userSpaceOnUse">
<stop stop-color="#387CFF"/>
<stop offset="1" stop-color="#00D4FF"/>
</linearGradient>
<linearGradient id="paint13_linear_340_25291" x1="159.648" y1="150.12" x2="187.958" y2="150.12" gradientUnits="userSpaceOnUse">
<stop stop-color="#4098FF"/>
<stop offset="1" stop-color="#4FE1FF"/>
</linearGradient>
<linearGradient id="paint14_linear_340_25291" x1="162.948" y1="149.539" x2="184.817" y2="149.539" gradientUnits="userSpaceOnUse">
<stop stop-color="#387CFF"/>
<stop offset="1" stop-color="#00D4FF"/>
</linearGradient>
<linearGradient id="paint15_linear_340_25291" x1="159.65" y1="149.814" x2="187.96" y2="149.814" gradientUnits="userSpaceOnUse">
<stop stop-color="#387CFF"/>
<stop offset="1" stop-color="#00D4FF"/>
</linearGradient>
<linearGradient id="paint16_linear_340_25291" x1="159.648" y1="144.908" x2="187.958" y2="144.908" gradientUnits="userSpaceOnUse">
<stop stop-color="#4098FF"/>
<stop offset="1" stop-color="#4FE1FF"/>
</linearGradient>
<linearGradient id="paint17_linear_340_25291" x1="162.948" y1="144.324" x2="184.817" y2="144.324" gradientUnits="userSpaceOnUse">
<stop stop-color="#387CFF"/>
<stop offset="1" stop-color="#00D4FF"/>
</linearGradient>
<linearGradient id="paint18_linear_340_25291" x1="159.65" y1="144.601" x2="187.96" y2="144.601" gradientUnits="userSpaceOnUse">
<stop stop-color="#387CFF"/>
<stop offset="1" stop-color="#00D4FF"/>
</linearGradient>
<linearGradient id="paint19_linear_340_25291" x1="159.648" y1="139.695" x2="187.958" y2="139.695" gradientUnits="userSpaceOnUse">
<stop stop-color="#4098FF"/>
<stop offset="1" stop-color="#4FE1FF"/>
</linearGradient>
<linearGradient id="paint20_linear_340_25291" x1="183.045" y1="181.266" x2="211.355" y2="181.266" gradientUnits="userSpaceOnUse">
<stop stop-color="#387CFF"/>
<stop offset="1" stop-color="#00D4FF"/>
</linearGradient>
<linearGradient id="paint21_linear_340_25291" x1="183.045" y1="176.36" x2="211.355" y2="176.36" gradientUnits="userSpaceOnUse">
<stop stop-color="#4098FF"/>
<stop offset="1" stop-color="#4FE1FF"/>
</linearGradient>
<linearGradient id="paint22_linear_340_25291" x1="186.346" y1="175.781" x2="208.216" y2="175.781" gradientUnits="userSpaceOnUse">
<stop stop-color="#387CFF"/>
<stop offset="1" stop-color="#00D4FF"/>
</linearGradient>
<linearGradient id="paint23_linear_340_25291" x1="183.045" y1="176.053" x2="211.355" y2="176.053" gradientUnits="userSpaceOnUse">
<stop stop-color="#387CFF"/>
<stop offset="1" stop-color="#00D4FF"/>
</linearGradient>
<linearGradient id="paint24_linear_340_25291" x1="183.043" y1="171.147" x2="211.356" y2="171.147" gradientUnits="userSpaceOnUse">
<stop stop-color="#4098FF"/>
<stop offset="1" stop-color="#4FE1FF"/>
</linearGradient>
<linearGradient id="paint25_linear_340_25291" x1="186.346" y1="170.563" x2="208.216" y2="170.563" gradientUnits="userSpaceOnUse">
<stop stop-color="#387CFF"/>
<stop offset="1" stop-color="#00D4FF"/>
</linearGradient>
<linearGradient id="paint26_linear_340_25291" x1="183.047" y1="170.84" x2="211.357" y2="170.84" gradientUnits="userSpaceOnUse">
<stop stop-color="#387CFF"/>
<stop offset="1" stop-color="#00D4FF"/>
</linearGradient>
<linearGradient id="paint27_linear_340_25291" x1="183.045" y1="165.935" x2="211.356" y2="165.935" gradientUnits="userSpaceOnUse">
<stop stop-color="#4098FF"/>
<stop offset="1" stop-color="#4FE1FF"/>
</linearGradient>
<linearGradient id="paint28_linear_340_25291" x1="186.346" y1="165.355" x2="208.216" y2="165.355" gradientUnits="userSpaceOnUse">
<stop stop-color="#387CFF"/>
<stop offset="1" stop-color="#00D4FF"/>
</linearGradient>
<linearGradient id="paint29_linear_340_25291" x1="183.047" y1="165.627" x2="211.357" y2="165.627" gradientUnits="userSpaceOnUse">
<stop stop-color="#387CFF"/>
<stop offset="1" stop-color="#00D4FF"/>
</linearGradient>
<linearGradient id="paint30_linear_340_25291" x1="183.045" y1="160.722" x2="211.356" y2="160.722" gradientUnits="userSpaceOnUse">
<stop stop-color="#4098FF"/>
<stop offset="1" stop-color="#4FE1FF"/>
</linearGradient>
<linearGradient id="paint31_linear_340_25291" x1="157.743" y1="189.692" x2="186.053" y2="189.692" gradientUnits="userSpaceOnUse">
<stop stop-color="#387CFF"/>
<stop offset="1" stop-color="#00D4FF"/>
</linearGradient>
<linearGradient id="paint32_linear_340_25291" x1="157.741" y1="184.786" x2="186.053" y2="184.786" gradientUnits="userSpaceOnUse">
<stop stop-color="#387CFF"/>
<stop offset="1" stop-color="#00D4FF"/>
</linearGradient>
<linearGradient id="paint33_linear_340_25291" x1="161.04" y1="184.202" x2="182.909" y2="184.202" gradientUnits="userSpaceOnUse">
<stop stop-color="#387CFF"/>
<stop offset="1" stop-color="#00D4FF"/>
</linearGradient>
<linearGradient id="paint34_linear_340_25291" x1="161.04" y1="178.994" x2="182.909" y2="178.994" gradientUnits="userSpaceOnUse">
<stop stop-color="#387CFF"/>
<stop offset="1" stop-color="#00D4FF"/>
</linearGradient>
<linearGradient id="paint35_linear_340_25291" x1="161.04" y1="173.769" x2="182.909" y2="173.769" gradientUnits="userSpaceOnUse">
<stop stop-color="#387CFF"/>
<stop offset="1" stop-color="#00D4FF"/>
</linearGradient>
<linearGradient id="paint36_linear_340_25291" x1="161.04" y1="168.569" x2="182.909" y2="168.569" gradientUnits="userSpaceOnUse">
<stop stop-color="#387CFF"/>
<stop offset="1" stop-color="#00D4FF"/>
</linearGradient>
<linearGradient id="paint37_linear_340_25291" x1="157.741" y1="184.479" x2="186.051" y2="184.479" gradientUnits="userSpaceOnUse">
<stop stop-color="#387CFF"/>
<stop offset="1" stop-color="#00D4FF"/>
</linearGradient>
<linearGradient id="paint38_linear_340_25291" x1="157.741" y1="179.573" x2="186.053" y2="179.573" gradientUnits="userSpaceOnUse">
<stop stop-color="#4098FF"/>
<stop offset="1" stop-color="#4FE1FF"/>
</linearGradient>
<linearGradient id="paint39_linear_340_25291" x1="157.741" y1="179.267" x2="186.051" y2="179.267" gradientUnits="userSpaceOnUse">
<stop stop-color="#387CFF"/>
<stop offset="1" stop-color="#00D4FF"/>
</linearGradient>
<linearGradient id="paint40_linear_340_25291" x1="157.741" y1="174.362" x2="186.053" y2="174.362" gradientUnits="userSpaceOnUse">
<stop stop-color="#4098FF"/>
<stop offset="1" stop-color="#4FE1FF"/>
</linearGradient>
<linearGradient id="paint41_linear_340_25291" x1="157.741" y1="174.054" x2="186.051" y2="174.054" gradientUnits="userSpaceOnUse">
<stop stop-color="#387CFF"/>
<stop offset="1" stop-color="#00D4FF"/>
</linearGradient>
<linearGradient id="paint42_linear_340_25291" x1="157.741" y1="169.149" x2="186.053" y2="169.149" gradientUnits="userSpaceOnUse">
<stop stop-color="#4098FF"/>
<stop offset="1" stop-color="#4FE1FF"/>
</linearGradient>
<linearGradient id="paint43_linear_340_25291" x1="157.741" y1="168.841" x2="186.051" y2="168.841" gradientUnits="userSpaceOnUse">
<stop stop-color="#387CFF"/>
<stop offset="1" stop-color="#00D4FF"/>
</linearGradient>
<linearGradient id="paint44_linear_340_25291" x1="157.741" y1="163.936" x2="186.053" y2="163.936" gradientUnits="userSpaceOnUse">
<stop stop-color="#4098FF"/>
<stop offset="1" stop-color="#4FE1FF"/>
</linearGradient>
</defs>
</svg>
