<svg width="336" height="237" viewBox="0 0 336 237" fill="none" xmlns="http://www.w3.org/2000/svg">
<g clip-path="url(#clip0_340_25291)">
<path d="M136.99 0.341369L238.764 59.4857C237.845 58.9517 236.571 59.0268 235.166 59.8382L133.391 0.693887C134.797 -0.117529 136.07 -0.193317 136.99 0.341369H136.99Z" fill="#EFF8FF" stroke="#0075FF" stroke-width="0.5" stroke-linejoin="round"/>
<path d="M136.563 236.413L34.7882 177.297C33.8961 176.768 33.3343 175.645 33.3016 174.025L33.004 64.4849L134.779 123.633L135.076 233.174C135.076 234.761 135.639 235.883 136.564 236.413H136.563Z" fill="#EBF5FF" stroke="#0075FF" stroke-width="0.5" stroke-linejoin="round"/>
<path d="M235.155 59.8383L139.828 114.879C137.034 116.489 134.768 120.399 134.768 123.62L33 64.471C33 61.2511 35.234 57.3407 38.0277 55.7304L133.387 0.69043L235.155 59.8383Z" fill="#EFF8FF" stroke="#0075FF" stroke-width="0.5" stroke-linejoin="round"/>
<path d="M235.165 59.8382C237.959 58.2251 240.229 59.519 240.239 62.7292L240.549 172.292C240.558 175.502 238.302 179.41 235.509 181.022L140.16 236.072C137.367 237.685 135.096 236.39 135.087 233.181L134.776 123.618C134.767 120.408 137.023 116.5 139.816 114.888L235.165 59.8382Z" fill="#E3EFFE" stroke="#0075FF" stroke-width="0.5" stroke-linejoin="round"/>
<path d="M227.583 73.9019C229.93 72.5467 231.839 73.6342 231.847 76.3319L232.107 168.409C232.115 171.107 230.219 174.391 227.872 175.746L147.74 222.01C145.393 223.365 143.484 222.278 143.477 219.58L143.216 127.503C143.208 124.805 145.105 121.521 147.452 120.166L227.583 73.9019Z" fill="#B1CAE9" stroke="#0075FF" stroke-width="0.5" stroke-linejoin="round"/>
<path d="M214.716 126.222C214.803 156.133 185.197 190.63 164.108 185.18C160.394 181.346 158.195 175.255 158.165 167.291C158.105 147.053 172.34 122.419 189.991 112.226C197.005 108.184 203.483 107.026 208.773 108.422C212.517 112.285 214.686 118.347 214.716 126.222H214.716Z" fill="#475569" stroke="#0075FF" stroke-width="0.5" stroke-linejoin="round"/>
<path d="M189.989 112.221L188.361 107.514C168.903 118.749 153.206 145.935 153.269 168.259C153.333 190.618 169.131 199.622 188.59 188.387C208.017 177.171 223.714 149.984 223.651 127.624C223.587 105.3 207.789 96.2974 188.361 107.514L189.989 112.221C207.602 102.05 221.934 110.217 221.99 130.457C222.049 150.732 207.81 175.393 190.197 185.559C172.552 195.748 158.221 187.582 158.165 167.306C158.105 147.068 172.343 122.407 189.989 112.22V112.221Z" fill="#E3EFFE"/>
<path d="M189.989 112.221L188.361 107.514M189.989 112.221C207.602 102.05 221.934 110.217 221.99 130.457C222.049 150.732 207.81 175.393 190.197 185.559C172.552 195.748 158.221 187.582 158.165 167.306C158.105 147.068 172.343 122.407 189.989 112.22V112.221ZM188.361 107.514C168.903 118.749 153.206 145.935 153.269 168.259C153.333 190.618 169.131 199.622 188.59 188.387C208.017 177.171 223.714 149.984 223.651 127.624C223.587 105.3 207.789 96.2974 188.361 107.514Z" stroke="#0075FF" stroke-width="0.5" stroke-linejoin="round"/>
<path d="M138.931 132.764C137.617 133.523 136.557 135.359 136.561 136.866C136.566 138.375 137.633 138.984 138.946 138.225C140.258 137.468 141.318 135.632 141.313 134.122C141.309 132.615 140.242 132.007 138.93 132.764H138.931Z" fill="#B1CAE9" stroke="#0075FF" stroke-width="0.5" stroke-linejoin="round"/>
<path d="M138.931 154.845C137.617 155.603 136.557 157.44 136.561 158.946C136.566 160.456 137.633 161.064 138.946 160.306C140.258 159.548 141.318 157.713 141.313 156.203C141.309 154.696 140.242 154.087 138.93 154.845H138.931Z" fill="#B1CAE9" stroke="#0075FF" stroke-width="0.5" stroke-linejoin="round"/>
<path d="M138.931 176.925C137.617 177.684 136.557 179.52 136.561 181.027C136.566 182.536 137.633 183.145 138.946 182.386C140.258 181.629 141.318 179.793 141.313 178.283C141.309 176.776 140.242 176.168 138.93 176.925H138.931Z" fill="#B1CAE9" stroke="#0075FF" stroke-width="0.5" stroke-linejoin="round"/>
<path d="M138.931 199.007C137.617 199.765 136.557 201.602 136.561 203.108C136.566 204.618 137.633 205.226 138.946 204.468C140.258 203.71 141.318 201.875 141.313 200.365C141.309 198.858 140.242 198.25 138.93 199.007H138.931Z" fill="#B1CAE9" stroke="#0075FF" stroke-width="0.5" stroke-linejoin="round"/>
<path d="M138.931 221.087C137.617 221.846 136.557 223.682 136.561 225.189C136.566 226.698 137.633 227.307 138.946 226.548C140.258 225.791 141.318 223.955 141.313 222.445C141.309 220.939 140.242 220.33 138.93 221.087H138.931Z" fill="#B1CAE9" stroke="#0075FF" stroke-width="0.5" stroke-linejoin="round"/>
<path d="M216.062 145.537V149.199C216.062 150.729 215.344 152.259 213.905 153.581C205.9 160.936 187.07 157.344 187.071 149.2V145.538C187.07 153.768 205.996 157.186 213.905 149.919C215.344 148.597 216.062 147.066 216.063 145.537H216.062Z" fill="url(#paint0_linear_340_25291)" stroke="#0075FF" stroke-width="0.5" stroke-linejoin="round"/>
<path d="M192.155 151.894L192.166 155.562C198.676 158.794 208.956 158.128 213.903 153.582C215.342 152.26 216.061 150.729 216.061 149.199V145.537C216.059 152.807 201.317 156.454 192.155 151.895V151.894Z" fill="#0075FF" stroke="#0075FF" stroke-width="0.5" stroke-linejoin="round"/>
<path d="M211.739 139.586C216.909 142.552 217.198 146.892 213.903 149.919C208.155 155.2 195.159 155.261 189.298 149.99C186.353 147.338 186.324 143.825 189.225 141.157C194.372 136.427 205.298 135.892 211.739 139.587V139.586Z" fill="url(#paint1_linear_340_25291)" stroke="#0075FF" stroke-width="0.5" stroke-linejoin="round"/>
<path d="M210.709 149.335C206.25 152.886 197.18 153.016 192.479 149.387C189.637 147.172 189.59 143.993 192.416 141.745C196.961 138.124 206.103 138.127 210.645 141.693C213.46 143.883 213.559 147.057 210.709 149.335Z" fill="#0075FF" stroke="#0075FF" stroke-width="0.5" stroke-linejoin="round"/>
<path d="M212.764 146.082C212.605 147.238 211.916 148.371 210.711 149.334C204.483 154.296 191.226 152 190.368 146.108C190.527 144.952 191.211 143.819 192.421 142.856C198.518 138 211.895 140.105 212.764 146.082Z" fill="url(#paint2_linear_340_25291)" stroke="#0075FF" stroke-width="0.5" stroke-linejoin="round"/>
<path d="M216.062 140.323V143.985C216.062 145.515 215.344 147.046 213.905 148.367C205.9 155.722 187.07 152.13 187.071 143.986V140.324C187.07 148.554 205.996 151.972 213.905 144.705C215.344 143.383 216.062 141.852 216.062 140.323Z" fill="#48BFFF" stroke="#0075FF" stroke-width="0.5" stroke-linejoin="round"/>
<path d="M213.833 135.874C216.777 138.523 216.807 142.039 213.903 144.706C208.155 149.987 195.159 150.048 189.298 144.777C186.353 142.125 186.324 138.612 189.225 135.944C194.996 130.64 207.994 130.62 213.833 135.875V135.874Z" fill="#48BFFF" stroke="#0075FF" stroke-width="0.5" stroke-linejoin="round"/>
<path d="M210.709 144.122C206.25 147.673 197.18 147.803 192.479 144.174C189.637 141.959 189.59 138.78 192.416 136.532C196.961 132.912 206.103 132.915 210.645 136.48C213.46 138.671 213.559 141.844 210.709 144.122Z" fill="#0075FF" stroke="#0075FF" stroke-width="0.5" stroke-linejoin="round"/>
<path d="M212.764 140.87C212.605 142.026 211.916 143.159 210.711 144.122C204.483 149.084 191.226 146.788 190.368 140.896C190.527 139.74 191.211 138.607 192.421 137.644C198.518 132.788 211.895 134.893 212.764 140.87Z" fill="url(#paint3_linear_340_25291)" stroke="#0075FF" stroke-width="0.5" stroke-linejoin="round"/>
<path d="M216.06 135.111V138.773C216.06 140.303 215.342 141.834 213.903 143.155C205.898 150.51 187.068 146.918 187.069 138.774V135.112C187.068 143.343 205.994 146.76 213.903 139.493C215.342 138.172 216.06 136.641 216.061 135.111H216.06Z" fill="#48BFFF" stroke="#0075FF" stroke-width="0.5" stroke-linejoin="round"/>
<path d="M213.832 130.662C216.777 133.31 216.806 136.826 213.902 139.493C208.754 144.224 197.828 144.757 191.388 141.063C186.235 138.106 185.923 133.768 189.223 130.73C194.995 125.427 207.993 125.406 213.831 130.662H213.832Z" fill="url(#paint4_linear_340_25291)" stroke="#0075FF" stroke-width="0.5" stroke-linejoin="round"/>
<path d="M210.71 138.909C204.481 143.871 191.225 141.575 190.367 135.683C190.139 134.156 190.822 132.588 192.417 131.318C196.962 127.698 206.104 127.701 210.647 131.266C213.461 133.457 213.561 136.631 210.71 138.908V138.909Z" fill="#0075FF" stroke="#0075FF" stroke-width="0.5" stroke-linejoin="round"/>
<path d="M212.764 135.657C212.605 136.812 211.916 137.946 210.711 138.909C204.483 143.87 191.226 141.575 190.368 135.683C190.527 134.527 191.211 133.394 192.421 132.431C198.518 127.575 211.895 129.679 212.764 135.657Z" fill="url(#paint5_linear_340_25291)" stroke="#0075FF" stroke-width="0.5" stroke-linejoin="round"/>
<path d="M216.062 129.898V133.56C216.062 135.09 215.344 136.621 213.905 137.943C205.9 145.297 187.07 141.705 187.071 133.561V129.899C187.07 132.526 189.096 134.534 191.391 135.85C200.464 141.054 216.061 137.276 216.062 129.898Z" fill="#48BFFF" stroke="#0075FF" stroke-width="0.5" stroke-linejoin="round"/>
<path d="M211.739 123.947C216.909 126.913 217.198 131.253 213.903 134.28C208.155 139.562 195.159 139.622 189.298 134.351C186.353 131.699 186.324 128.187 189.225 125.518C194.372 120.788 205.298 120.253 211.739 123.948V123.947Z" fill="url(#paint6_linear_340_25291)" stroke="#0075FF" stroke-width="0.5" stroke-linejoin="round"/>
<path d="M210.71 133.695C206.543 137.015 198.477 137.296 193.648 134.527C189.489 132.153 189.408 128.499 192.418 126.105C196.963 122.484 206.105 122.487 210.647 126.052C213.462 128.243 213.561 131.417 210.71 133.695V133.695Z" fill="#0075FF" stroke="#0075FF" stroke-width="0.5" stroke-linejoin="round"/>
<path d="M212.764 130.443C212.605 131.599 211.916 132.732 210.711 133.695C204.527 138.622 191.231 136.396 190.368 130.469C190.527 129.314 191.211 128.18 192.421 127.217C198.518 122.361 211.895 124.466 212.764 130.443Z" fill="url(#paint7_linear_340_25291)" stroke="#0075FF" stroke-width="0.5" stroke-linejoin="round"/>
<path d="M216.064 124.685V128.347C216.064 129.878 215.345 131.408 213.906 132.73C205.902 140.085 187.071 136.492 187.072 128.349V124.686C187.071 132.917 205.998 136.334 213.906 129.068C215.345 127.746 216.064 126.215 216.064 124.685H216.064Z" fill="#48BFFF" stroke="#0075FF" stroke-width="0.5" stroke-linejoin="round"/>
<path d="M213.567 120.337C216.512 122.985 216.541 126.501 213.638 129.168C207.89 134.45 194.894 134.51 189.032 129.239C186.088 126.587 186.059 123.075 188.959 120.406C194.731 115.102 207.729 115.082 213.567 120.337V120.337Z" fill="url(#paint8_linear_340_25291)" stroke="#0075FF" stroke-width="0.5" stroke-linejoin="round"/>
<path d="M210.71 128.483C206.543 131.803 198.477 132.084 193.648 129.314C189.489 126.941 189.408 123.287 192.418 120.892C196.963 117.272 206.105 117.275 210.647 120.84C213.462 123.031 213.561 126.204 210.71 128.482V128.483Z" fill="#0075FF" stroke="#0075FF" stroke-width="0.5" stroke-linejoin="round"/>
<path d="M212.764 125.231C212.605 126.387 211.916 127.52 210.711 128.483C204.527 133.409 191.231 131.184 190.368 125.257C190.527 124.101 191.211 122.968 192.421 122.005C198.518 117.149 211.895 119.254 212.764 125.231Z" fill="#56D6FF" stroke="#0075FF" stroke-width="0.5" stroke-linejoin="round"/>
<path d="M188.642 150.377V154.04C188.642 155.57 187.923 157.1 186.484 158.422C178.48 165.777 159.649 162.184 159.65 154.041V150.379C159.649 158.609 178.576 162.027 186.484 154.76C187.923 153.438 188.642 151.907 188.642 150.377H188.642Z" fill="url(#paint9_linear_340_25291)" stroke="#0075FF" stroke-width="0.5" stroke-linejoin="round"/>
<path d="M164.734 156.735L164.745 160.403C171.255 163.635 181.535 162.968 186.482 158.423C187.922 157.101 188.64 155.57 188.641 154.04V150.378C188.639 157.648 173.897 161.295 164.734 156.736V156.735Z" fill="#0075FF" stroke="#0075FF" stroke-width="0.5" stroke-linejoin="round"/>
<path d="M184.318 144.427C189.488 147.392 189.777 151.732 186.482 154.76C180.734 160.041 167.739 160.102 161.877 154.831C158.933 152.179 158.903 148.666 161.804 145.998C166.951 141.267 177.877 140.733 184.318 144.428V144.427Z" fill="url(#paint10_linear_340_25291)" stroke="#0075FF" stroke-width="0.5" stroke-linejoin="round"/>
<path d="M183.291 154.175C179.124 157.495 171.057 157.776 166.229 155.007C162.126 152.664 161.945 149.014 164.999 146.584C169.166 143.264 177.232 142.979 182.056 145.748C186.173 148.098 186.338 151.74 183.291 154.174V154.175Z" fill="#0075FF" stroke="#0075FF" stroke-width="0.5" stroke-linejoin="round"/>
<path d="M185.344 150.923C185.185 152.078 184.496 153.212 183.291 154.175C179.123 157.495 171.057 157.776 166.228 155.006C164.64 154.099 163.21 152.749 162.948 150.948C163.107 149.793 163.791 148.659 165.001 147.696C171.2 142.758 184.483 145.005 185.344 150.923Z" fill="url(#paint11_linear_340_25291)" stroke="#0075FF" stroke-width="0.5" stroke-linejoin="round"/>
<path d="M188.642 145.164V148.826C188.642 150.357 187.923 151.887 186.484 153.209C178.485 160.558 159.649 156.979 159.65 148.828V145.165C159.649 153.396 178.576 156.813 186.484 149.547C187.923 148.225 188.642 146.694 188.642 145.164H188.642Z" fill="url(#paint12_linear_340_25291)" stroke="#0075FF" stroke-width="0.5" stroke-linejoin="round"/>
<path d="M186.412 140.715C189.357 143.363 189.386 146.88 186.482 149.547C180.734 154.828 167.739 154.889 161.877 149.618C158.933 146.966 158.903 143.453 161.804 140.785C167.576 135.481 180.574 135.461 186.412 140.716V140.715Z" fill="url(#paint13_linear_340_25291)" stroke="#0075FF" stroke-width="0.5" stroke-linejoin="round"/>
<path d="M185.344 145.711C184.52 151.685 171.34 153.862 165.061 149.015C162.219 146.8 162.172 143.621 164.998 141.373C171.698 136.036 186.282 139.164 185.344 145.711Z" fill="#0075FF" stroke="#0075FF" stroke-width="0.5" stroke-linejoin="round"/>
<path d="M185.344 145.711C184.521 151.685 171.34 153.862 165.061 149.015C163.822 148.049 163.118 146.906 162.948 145.736C163.107 144.581 163.791 143.447 165.001 142.484C171.097 137.628 184.474 139.733 185.344 145.711Z" fill="url(#paint14_linear_340_25291)" stroke="#0075FF" stroke-width="0.5" stroke-linejoin="round"/>
<path d="M188.642 139.953V143.615C188.642 145.145 187.923 146.676 186.484 147.997C178.48 155.352 159.649 151.76 159.65 143.616V139.954C159.649 148.184 178.576 151.602 186.484 144.335C187.923 143.013 188.642 141.482 188.642 139.953H188.642Z" fill="url(#paint15_linear_340_25291)" stroke="#0075FF" stroke-width="0.5" stroke-linejoin="round"/>
<path d="M186.412 135.504C189.357 138.152 189.386 141.668 186.482 144.335C180.734 149.617 167.739 149.677 161.877 144.406C158.933 141.754 158.903 138.242 161.804 135.573C167.576 130.269 180.574 130.249 186.412 135.504V135.504Z" fill="url(#paint16_linear_340_25291)" stroke="#0075FF" stroke-width="0.5" stroke-linejoin="round"/>
<path d="M183.291 143.75C179.124 147.07 171.057 147.351 166.229 144.581C162.126 142.239 161.945 138.589 164.999 136.159C169.544 132.539 178.686 132.542 183.228 136.107C186.043 138.298 186.142 141.471 183.291 143.749V143.75Z" fill="#0075FF" stroke="#0075FF" stroke-width="0.5" stroke-linejoin="round"/>
<path d="M185.344 140.499C185.185 141.654 184.496 142.788 183.291 143.751C177.107 148.677 163.811 146.451 162.948 140.524C163.107 139.369 163.791 138.235 165.001 137.272C171.097 132.416 184.474 134.521 185.344 140.499Z" fill="url(#paint17_linear_340_25291)" stroke="#0075FF" stroke-width="0.5" stroke-linejoin="round"/>
<path d="M188.642 134.74V138.402C188.642 139.932 187.923 141.463 186.484 142.784C178.48 150.139 159.649 146.547 159.65 138.403V134.741C159.649 142.971 178.576 146.389 186.484 139.122C187.923 137.8 188.642 136.269 188.642 134.74H188.642Z" fill="url(#paint18_linear_340_25291)" stroke="#0075FF" stroke-width="0.5" stroke-linejoin="round"/>
<path d="M186.412 130.29C189.357 132.939 189.386 136.455 186.482 139.122C180.734 144.403 167.739 144.464 161.877 139.193C158.933 136.541 158.903 133.028 161.804 130.36C167.576 125.056 180.574 125.036 186.412 130.291V130.29Z" fill="url(#paint19_linear_340_25291)" stroke="#0075FF" stroke-width="0.5" stroke-linejoin="round"/>
<path d="M183.292 138.538C177.063 143.499 163.807 141.204 162.949 135.312C161.972 128.78 176.462 125.584 183.228 130.895C186.043 133.086 186.142 136.259 183.292 138.537V138.538Z" fill="#0075FF" stroke="#0075FF" stroke-width="0.5" stroke-linejoin="round"/>
<path d="M185.344 135.285C185.185 136.441 184.496 137.574 183.291 138.537C177.062 143.499 163.806 141.203 162.948 135.311C163.107 134.155 163.791 133.022 165.001 132.059C171.097 127.203 184.474 129.308 185.344 135.285Z" fill="#56D6FF" stroke="#0075FF" stroke-width="0.5" stroke-linejoin="round"/>
<path d="M212.036 171.404V175.066C212.036 176.597 211.318 178.127 209.879 179.449C201.875 186.804 183.044 183.211 183.045 175.068V171.406C183.044 179.636 201.971 183.053 209.879 175.787C211.318 174.465 212.036 172.934 212.037 171.404H212.036Z" fill="url(#paint20_linear_340_25291)" stroke="#0075FF" stroke-width="0.5" stroke-linejoin="round"/>
<path d="M188.131 177.761L188.142 181.429C194.652 184.662 204.932 183.995 209.879 179.449C211.318 178.127 212.037 176.596 212.037 175.066V171.404C212.035 178.674 197.294 182.321 188.131 177.762V177.761Z" fill="#0075FF" stroke="#0075FF" stroke-width="0.5" stroke-linejoin="round"/>
<path d="M209.809 166.955C212.754 169.604 212.783 173.12 209.879 175.787C204.131 181.068 191.135 181.129 185.274 175.858C182.329 173.206 182.3 169.693 185.201 167.025C190.973 161.721 203.97 161.701 209.809 166.956V166.955Z" fill="url(#paint21_linear_340_25291)" stroke="#0075FF" stroke-width="0.5" stroke-linejoin="round"/>
<path d="M206.688 175.202C200.46 180.164 187.203 177.868 186.345 171.976C186.117 170.449 186.8 168.881 188.396 167.611C192.941 163.991 202.083 163.994 206.625 167.559C209.44 169.75 209.539 172.924 206.688 175.201V175.202Z" fill="#0075FF" stroke="#0075FF" stroke-width="0.5" stroke-linejoin="round"/>
<path d="M208.743 171.951C208.583 173.106 207.894 174.24 206.689 175.203C200.461 180.164 187.204 177.868 186.346 171.976C186.506 170.821 187.19 169.688 188.4 168.725C194.496 163.869 207.873 165.973 208.743 171.951Z" fill="url(#paint22_linear_340_25291)" stroke="#0075FF" stroke-width="0.5" stroke-linejoin="round"/>
<path d="M212.036 166.191V169.854C212.036 171.384 211.318 172.914 209.879 174.236C201.875 181.591 183.044 177.998 183.045 169.855V166.193C183.044 174.423 201.971 177.84 209.879 170.574C211.318 169.252 212.036 167.721 212.037 166.191H212.036Z" fill="url(#paint23_linear_340_25291)" stroke="#0075FF" stroke-width="0.5" stroke-linejoin="round"/>
<path d="M207.714 160.241C212.884 163.206 213.174 167.547 209.878 170.574C204.73 175.305 193.805 175.837 187.365 172.143C182.211 169.187 181.899 164.849 185.199 161.811C190.347 157.081 201.273 156.546 207.713 160.241H207.714Z" fill="url(#paint24_linear_340_25291)" stroke="#0075FF" stroke-width="0.5" stroke-linejoin="round"/>
<path d="M208.742 166.738C208.582 167.893 207.893 169.027 206.688 169.99C200.504 174.916 187.208 172.69 186.345 166.764C186.117 165.237 186.8 163.669 188.396 162.399C195.096 157.061 209.68 160.19 208.742 166.737V166.738Z" fill="#0075FF" stroke="#0075FF" stroke-width="0.5" stroke-linejoin="round"/>
<path d="M208.743 166.738C208.583 167.893 207.894 169.027 206.689 169.99C200.505 174.916 187.209 172.69 186.346 166.764C186.506 165.608 187.19 164.475 188.4 163.512C194.496 158.656 207.873 160.76 208.743 166.738Z" fill="url(#paint25_linear_340_25291)" stroke="#0075FF" stroke-width="0.5" stroke-linejoin="round"/>
<path d="M212.038 160.979V164.641C212.038 166.171 211.32 167.701 209.881 169.023C201.877 176.378 183.046 172.785 183.047 164.642V160.98C183.047 162.537 183.79 164.093 185.276 165.432C193.376 172.717 212.038 169.066 212.039 160.979H212.038Z" fill="url(#paint26_linear_340_25291)" stroke="#0075FF" stroke-width="0.5" stroke-linejoin="round"/>
<path d="M207.715 155.029C212.885 157.994 213.174 162.334 209.879 165.362C204.131 170.643 191.135 170.704 185.274 165.433C182.329 162.781 182.3 159.268 185.201 156.6C190.348 151.869 201.274 151.335 207.715 155.03V155.029Z" fill="url(#paint27_linear_340_25291)" stroke="#0075FF" stroke-width="0.5" stroke-linejoin="round"/>
<path d="M206.688 164.777C200.46 169.739 187.203 167.443 186.345 161.551C186.117 160.024 186.8 158.456 188.396 157.187C192.941 153.566 202.083 153.569 206.625 157.135C209.44 159.325 209.539 162.499 206.688 164.777V164.777Z" fill="#0075FF" stroke="#0075FF" stroke-width="0.5" stroke-linejoin="round"/>
<path d="M208.743 161.525C208.583 162.681 207.894 163.814 206.689 164.777C200.461 169.739 187.204 167.443 186.346 161.551C186.506 160.396 187.19 159.262 188.4 158.299C194.496 153.443 207.873 155.548 208.743 161.525Z" fill="url(#paint28_linear_340_25291)" stroke="#0075FF" stroke-width="0.5" stroke-linejoin="round"/>
<path d="M212.038 155.766V159.428C212.038 160.959 211.32 162.489 209.881 163.811C201.877 171.166 183.046 167.573 183.047 159.43V155.768C183.047 157.324 183.79 158.881 185.276 160.22C191.147 165.5 204.14 165.424 209.881 160.149C211.32 158.827 212.038 157.296 212.039 155.766H212.038Z" fill="url(#paint29_linear_340_25291)" stroke="#0075FF" stroke-width="0.5" stroke-linejoin="round"/>
<path d="M207.715 149.816C212.885 152.781 213.174 157.122 209.879 160.149C204.131 165.43 191.135 165.491 185.274 160.22C182.329 157.568 182.3 154.055 185.201 151.387C190.348 146.657 201.274 146.122 207.715 149.817V149.816Z" fill="url(#paint30_linear_340_25291)" stroke="#0075FF" stroke-width="0.5" stroke-linejoin="round"/>
<path d="M206.689 159.565C202.231 163.116 193.161 163.246 188.46 159.617C185.617 157.402 185.571 154.223 188.396 151.975C192.942 148.354 202.083 148.357 206.626 151.923C209.44 154.113 209.54 157.287 206.689 159.565Z" fill="#0075FF" stroke="#0075FF" stroke-width="0.5" stroke-linejoin="round"/>
<path d="M208.743 156.313C208.583 157.468 207.894 158.602 206.689 159.565C200.461 164.526 187.204 162.23 186.346 156.338C186.506 155.183 187.19 154.049 188.4 153.086C194.496 148.23 207.873 150.335 208.743 156.313Z" fill="#56D6FF" stroke="#0075FF" stroke-width="0.5" stroke-linejoin="round"/>
<path d="M186.735 179.831V183.493C186.735 185.023 186.016 186.553 184.577 187.875C176.573 195.23 157.742 191.637 157.743 183.494V179.832C157.742 188.062 176.669 191.48 184.577 184.213C186.016 182.891 186.735 181.36 186.735 179.831H186.735Z" fill="url(#paint31_linear_340_25291)" stroke="#0075FF" stroke-width="0.5" stroke-linejoin="round"/>
<path d="M162.827 186.188L162.838 189.856C169.348 193.088 179.628 192.422 184.575 187.876C186.015 186.554 186.733 185.023 186.734 183.493V179.831C186.732 187.101 171.99 190.748 162.827 186.189V186.188Z" fill="#0075FF" stroke="#0075FF" stroke-width="0.5" stroke-linejoin="round"/>
<path d="M184.507 175.381C187.451 178.03 187.48 181.546 184.577 184.213C179.429 188.944 168.503 189.476 162.063 185.782C156.909 182.826 156.597 178.488 159.898 175.45C165.669 170.146 178.667 170.126 184.506 175.381H184.507Z" fill="url(#paint32_linear_340_25291)" stroke="#0075FF" stroke-width="0.5" stroke-linejoin="round"/>
<path d="M183.439 180.377C183.28 181.533 182.591 182.666 181.386 183.629C177.218 186.949 169.152 187.23 164.323 184.461C160.22 182.118 160.039 178.468 163.093 176.038C169.794 170.701 184.377 173.829 183.439 180.376V180.377Z" fill="#0075FF" stroke="#0075FF" stroke-width="0.5" stroke-linejoin="round"/>
<path d="M183.436 180.377C183.277 181.533 182.588 182.666 181.383 183.629C175.199 188.555 161.903 186.33 161.04 180.403C161.199 179.247 161.883 178.114 163.093 177.151C169.19 172.295 182.567 174.4 183.436 180.377Z" fill="url(#paint33_linear_340_25291)" stroke="#0075FF" stroke-width="0.5" stroke-linejoin="round"/>
<path d="M183.437 175.165C183.278 176.32 182.589 177.454 181.384 178.417C175.155 183.378 161.899 181.082 161.041 175.19C160.813 173.663 161.496 172.096 163.091 170.826C169.792 165.488 184.375 168.617 183.437 175.164V175.165Z" fill="#0075FF" stroke="#0075FF" stroke-width="0.5" stroke-linejoin="round"/>
<path d="M183.436 175.164C183.277 176.32 182.588 177.453 181.383 178.416C175.155 183.378 161.898 181.082 161.04 175.19C161.199 174.034 161.883 172.901 163.093 171.938C169.19 167.082 182.567 169.187 183.436 175.164Z" fill="url(#paint34_linear_340_25291)" stroke="#0075FF" stroke-width="0.5" stroke-linejoin="round"/>
<path d="M181.384 173.204C175.2 178.13 161.904 175.905 161.041 169.978C160.813 168.451 161.496 166.883 163.091 165.613C167.636 161.993 176.778 161.996 181.321 165.561C184.135 167.752 184.235 170.926 181.384 173.203V173.204Z" fill="#0075FF" stroke="#0075FF" stroke-width="0.5" stroke-linejoin="round"/>
<path d="M183.436 169.952C183.277 171.107 182.588 172.241 181.383 173.204C175.199 178.13 161.903 175.904 161.04 169.978C161.868 163.966 175.156 161.833 181.323 166.674C182.562 167.639 183.266 168.782 183.436 169.952Z" fill="url(#paint35_linear_340_25291)" stroke="#0075FF" stroke-width="0.5" stroke-linejoin="round"/>
<path d="M181.385 167.991C176.927 171.542 167.856 171.672 163.155 168.044C160.313 165.828 160.266 162.649 163.092 160.401C167.637 156.781 176.779 156.784 181.322 160.349C184.136 162.54 184.236 165.714 181.385 167.991Z" fill="#0075FF" stroke="#0075FF" stroke-width="0.5" stroke-linejoin="round"/>
<path d="M183.436 164.739C183.277 165.894 182.588 167.028 181.383 167.991C175.155 172.952 161.898 170.657 161.04 164.765C161.199 163.609 161.883 162.476 163.093 161.513C169.19 156.657 182.567 158.761 183.436 164.739Z" fill="url(#paint36_linear_340_25291)" stroke="#0075FF" stroke-width="0.5" stroke-linejoin="round"/>
<path d="M186.733 174.618V178.28C186.733 179.811 186.014 181.341 184.575 182.663C176.571 190.018 157.74 186.425 157.741 178.282V174.62C157.74 182.85 176.667 186.267 184.575 179.001C186.014 177.679 186.733 176.148 186.733 174.618H186.733Z" fill="url(#paint37_linear_340_25291)" stroke="#0075FF" stroke-width="0.5" stroke-linejoin="round"/>
<path d="M182.411 168.668C187.581 171.633 187.87 175.973 184.575 179C178.827 184.282 165.832 184.342 159.97 179.071C157.026 176.419 156.996 172.907 159.897 170.238C165.044 165.508 175.97 164.973 182.411 168.668V168.668Z" fill="url(#paint38_linear_340_25291)" stroke="#0075FF" stroke-width="0.5" stroke-linejoin="round"/>
<path d="M186.733 169.406V173.068C186.733 174.598 186.014 176.129 184.575 177.45C176.571 184.805 157.74 181.213 157.741 173.069V169.407C157.74 177.637 176.667 181.055 184.575 173.788C186.014 172.466 186.733 170.935 186.733 169.406H186.733Z" fill="url(#paint39_linear_340_25291)" stroke="#0075FF" stroke-width="0.5" stroke-linejoin="round"/>
<path d="M182.411 163.456C187.581 166.421 187.87 170.761 184.575 173.789C178.827 179.07 165.832 179.131 159.97 173.859C157.026 171.208 156.996 167.695 159.897 165.026C165.044 160.296 175.97 159.762 182.411 163.456V163.456Z" fill="url(#paint40_linear_340_25291)" stroke="#0075FF" stroke-width="0.5" stroke-linejoin="round"/>
<path d="M186.733 164.193V167.856C186.733 169.386 186.014 170.916 184.575 172.238C176.576 179.587 157.74 176.009 157.741 167.857V164.195C157.74 172.425 176.667 175.842 184.575 168.576C186.014 167.254 186.733 165.723 186.733 164.193H186.733Z" fill="url(#paint41_linear_340_25291)" stroke="#0075FF" stroke-width="0.5" stroke-linejoin="round"/>
<path d="M182.411 158.243C187.581 161.208 187.87 165.548 184.575 168.576C178.827 173.857 165.832 173.918 159.97 168.647C157.026 165.995 156.996 162.482 159.897 159.813C165.044 155.083 175.97 154.549 182.411 158.243V158.243Z" fill="url(#paint42_linear_340_25291)" stroke="#0075FF" stroke-width="0.5" stroke-linejoin="round"/>
<path d="M186.733 158.98V162.642C186.733 164.172 186.014 165.703 184.575 167.025C176.571 174.379 157.74 170.787 157.741 162.644V158.981C157.741 160.538 158.484 162.095 159.97 163.433C168.07 170.719 186.732 167.068 186.733 158.98H186.733Z" fill="url(#paint43_linear_340_25291)" stroke="#0075FF" stroke-width="0.5" stroke-linejoin="round"/>
<path d="M182.411 153.03C187.581 155.996 187.87 160.336 184.575 163.363C178.827 168.645 165.832 168.705 159.97 163.434C157.026 160.782 156.996 157.27 159.897 154.601C165.044 149.871 175.97 149.336 182.411 153.031V153.03Z" fill="url(#paint44_linear_340_25291)" stroke="#0075FF" stroke-width="0.5" stroke-linejoin="round"/>
<path d="M181.384 162.778C175.156 167.74 161.899 165.444 161.041 159.552C160.064 153.021 174.555 149.825 181.321 155.136C184.135 157.327 184.235 160.5 181.384 162.778V162.778Z" fill="#0075FF" stroke="#0075FF" stroke-width="0.5" stroke-linejoin="round"/>
<path d="M183.436 159.526C183.277 160.682 182.588 161.815 181.383 162.778C175.155 167.74 161.898 165.444 161.04 159.552C161.868 153.54 175.156 151.407 181.323 156.248C182.562 157.214 183.266 158.357 183.436 159.526Z" fill="#56D6FF" stroke="#0075FF" stroke-width="0.5" stroke-linejoin="round"/>
<path d="M221.996 130.442C222.056 150.739 207.821 175.404 190.199 185.567C179.471 191.777 169.962 191.184 164.108 185.18C169.398 186.547 175.905 185.418 182.919 181.347C200.54 171.183 214.775 146.518 214.715 126.222C214.685 118.347 212.516 112.284 208.772 108.421C216.766 110.472 221.966 118.258 221.996 130.442V130.442Z" fill="#EFF8FF" stroke="#0075FF" stroke-width="0.5" stroke-linejoin="round"/>
<path d="M221.996 129.121L227.328 128.873L229.882 163.452L224.864 172.808L203.63 188.825L193.415 195.22L164.813 202.401L170.261 191.693L184.824 189.43C184.824 189.43 195.293 184.243 203.981 174.928C218.569 159.288 225.53 129.176 221.996 128.873" fill="#B1CAE9"/>
<path d="M192.523 105.419V110.904C208.953 102.907 221.936 111.2 221.989 130.457C222.047 150.732 207.809 175.393 190.196 185.559C174.024 194.898 160.67 188.785 158.505 172.093H153.452C155.23 191.609 170.286 198.953 188.589 188.386C208.016 177.17 223.712 149.983 223.649 127.623C223.589 106.921 209.991 97.7052 192.522 105.418L192.523 105.419Z" fill="#E3EFFE" stroke="#0075FF" stroke-width="0.5" stroke-linejoin="round"/>
<path d="M187.081 111.275C187.081 111.275 158.999 131.303 156.978 157.335C156.978 157.335 148.033 131.6 148.658 130.085C149.281 128.599 155.433 121.616 158.167 120.041C160.901 118.466 168.182 114.454 171.717 113.176C175.254 111.928 180.424 110.472 180.424 110.472L187.081 111.275H187.081Z" fill="#B1CAE9"/>
<path d="M158.173 167.453C157.895 147.757 172.02 122.593 189.989 112.22C192.708 110.65 195.333 109.568 197.855 108.848V103.564C194.829 104.337 191.654 105.611 188.361 107.513C169.133 118.614 153.607 145.283 153.301 167.453H158.173Z" fill="#E3EFFE" stroke="#0075FF" stroke-width="0.5" stroke-linejoin="round"/>
<path d="M233.367 118.796L233.282 136.695C233.28 137.403 232.813 138.112 231.881 138.653C228.94 140.362 223.641 139.204 223.648 136.669L223.732 118.771C223.73 119.489 224.205 120.208 225.156 120.758C227.043 121.847 230.089 121.845 231.965 120.755C232.898 120.213 233.364 119.505 233.367 118.796Z" fill="#EBF5FF" stroke="#0075FF" stroke-width="0.5" stroke-linejoin="round"/>
<path d="M231.965 120.755C230.458 121.631 228.2 121.802 226.391 121.274V139.195C228.185 139.695 230.396 139.516 231.88 138.654C232.812 138.113 233.278 137.404 233.281 136.696L233.365 118.797C233.363 119.506 232.897 120.214 231.964 120.756L231.965 120.755Z" fill="#EBF5FF" stroke="#0075FF" stroke-width="0.5" stroke-linejoin="round"/>
<path d="M231.965 120.755C231.748 120.881 231.514 120.991 231.268 121.088V138.951C231.482 138.862 231.689 138.765 231.881 138.653C232.813 138.111 233.28 137.403 233.282 136.694L233.367 118.796C233.364 119.504 232.898 120.213 231.965 120.755Z" fill="#E3EFFE" stroke="#0075FF" stroke-width="0.5" stroke-linejoin="round"/>
<path d="M231.945 116.813C233.832 117.902 233.841 119.665 231.965 120.755C230.088 121.846 227.042 121.847 225.156 120.758C223.265 119.667 223.257 117.902 225.134 116.812C227.01 115.721 230.053 115.721 231.945 116.813H231.945Z" fill="white" stroke="#0075FF" stroke-width="0.5" stroke-linejoin="round"/>
<path d="M237.353 98.3568L244.244 94.3519C250.495 90.7196 259.151 91.2321 268.705 96.7479L261.814 100.753C252.259 95.237 243.604 94.7246 237.353 98.3568Z" fill="#EFF8FF" stroke="#0075FF" stroke-width="0.5" stroke-linejoin="round"/>
<path d="M260.222 105.354C277.467 115.309 291.382 139.41 291.323 159.187C291.268 179.004 277.263 186.984 260.019 177.027C242.807 167.092 228.891 142.991 228.949 123.176C229.003 103.395 243.009 95.4138 260.222 105.354Z" fill="#E3EFFE" stroke="#0075FF" stroke-width="0.5" stroke-linejoin="round"/>
<path d="M292.968 178.191L286.077 182.196C292.251 178.607 296.077 170.973 296.108 160.118C296.17 138.301 280.831 111.732 261.814 100.753L268.705 96.748C287.722 107.728 303.061 134.296 302.999 156.113C302.968 166.969 299.142 174.603 292.968 178.191Z" fill="#EBF5FF" stroke="#0075FF" stroke-width="0.5" stroke-linejoin="round"/>
<path d="M260.223 105.354L261.814 100.754C280.831 111.733 296.17 138.302 296.108 160.118C296.046 181.97 280.606 190.769 261.59 179.789C242.604 168.828 227.264 142.259 227.326 120.407C227.388 98.5907 242.828 89.7923 261.814 100.754L260.223 105.354C243.01 95.4138 229.004 103.395 228.95 123.176C228.892 142.991 242.808 167.092 260.02 177.027C277.265 186.984 291.269 179.004 291.324 159.187C291.382 139.41 277.468 115.309 260.223 105.354Z" fill="#B1CAE9"/>
<path d="M260.223 105.354L261.814 100.754M260.223 105.354C243.01 95.4138 229.004 103.395 228.95 123.176C228.892 142.991 242.808 167.092 260.02 177.027C277.265 186.984 291.269 179.004 291.324 159.187C291.382 139.41 277.468 115.309 260.223 105.354ZM261.814 100.754C280.831 111.733 296.17 138.302 296.108 160.118C296.046 181.97 280.606 190.769 261.59 179.789C242.604 168.828 227.264 142.259 227.326 120.407C227.388 98.5907 242.828 89.7923 261.814 100.754Z" stroke="#0075FF" stroke-width="0.5" stroke-linejoin="round"/>
<path d="M247.794 123.481L250.852 121.704C253.625 120.092 257.467 120.32 261.707 122.767L258.649 124.544C254.409 122.096 250.568 121.869 247.794 123.481Z" fill="#EFF8FF" stroke="#0075FF" stroke-width="0.5" stroke-linejoin="round"/>
<path d="M257.944 126.586C265.598 131.004 271.772 141.699 271.746 150.476C271.722 159.269 265.507 162.811 257.855 158.392C250.216 153.983 244.041 143.288 244.067 134.495C244.09 125.717 250.306 122.175 257.945 126.586H257.944Z" fill="white" stroke="#0075FF" stroke-width="0.5" stroke-linejoin="round"/>
<path d="M272.474 158.909L269.416 160.686C272.156 159.094 273.854 155.706 273.867 150.889C273.894 141.208 267.087 129.417 258.649 124.545L261.706 122.768C270.145 127.64 276.953 139.43 276.925 149.112C276.911 153.93 275.213 157.317 272.474 158.909Z" fill="#EBF5FF" stroke="#0075FF" stroke-width="0.5" stroke-linejoin="round"/>
<path d="M257.943 126.586L258.648 124.544C267.087 129.417 273.895 141.207 273.867 150.888C273.839 160.586 266.988 164.49 258.549 159.618C250.123 154.754 243.316 142.963 243.343 133.266C243.371 123.585 250.223 119.68 258.648 124.544L257.943 126.586C250.304 122.175 244.089 125.717 244.064 134.495C244.039 143.288 250.214 153.983 257.852 158.392C265.505 162.811 271.719 159.27 271.744 150.475C271.769 141.699 265.595 131.004 257.942 126.586H257.943Z" fill="#B1CAE9"/>
<path d="M257.943 126.586L258.648 124.544M257.943 126.586C250.304 122.175 244.089 125.717 244.064 134.495C244.039 143.288 250.214 153.983 257.852 158.392C265.505 162.811 271.719 159.27 271.744 150.475C271.769 141.699 265.595 131.004 257.942 126.586H257.943ZM258.648 124.544C267.087 129.417 273.895 141.207 273.867 150.888C273.839 160.586 266.988 164.49 258.549 159.618C250.123 154.754 243.316 142.963 243.343 133.266C243.371 123.585 250.223 119.68 258.648 124.544Z" stroke="#0075FF" stroke-width="0.5" stroke-linejoin="round"/>
<line x1="189.229" y1="129.718" x2="189.229" y2="132.482" stroke="#0075FF" stroke-width="0.5" stroke-linecap="round"/>
<line x1="191.405" y1="131.35" x2="191.405" y2="134.114" stroke="#0075FF" stroke-width="0.5" stroke-linecap="round"/>
<line x1="193.581" y1="131.894" x2="193.581" y2="135.202" stroke="#0075FF" stroke-width="0.5" stroke-linecap="round"/>
<line x1="195.757" y1="132.655" x2="195.757" y2="135.963" stroke="#0075FF" stroke-width="0.5" stroke-linecap="round"/>
<line x1="197.933" y1="132.981" x2="197.933" y2="136.289" stroke="#0075FF" stroke-width="0.5" stroke-linecap="round"/>
<line x1="200.108" y1="133.308" x2="200.108" y2="136.616" stroke="#0075FF" stroke-width="0.5" stroke-linecap="round"/>
<line x1="202.284" y1="133.308" x2="202.284" y2="136.616" stroke="#0075FF" stroke-width="0.5" stroke-linecap="round"/>
<line x1="204.46" y1="132.981" x2="204.46" y2="136.289" stroke="#0075FF" stroke-width="0.5" stroke-linecap="round"/>
<line x1="206.636" y1="132.655" x2="206.636" y2="135.963" stroke="#0075FF" stroke-width="0.5" stroke-linecap="round"/>
<line x1="208.812" y1="132.111" x2="208.812" y2="135.419" stroke="#0075FF" stroke-width="0.5" stroke-linecap="round"/>
<line x1="210.988" y1="131.132" x2="210.988" y2="134.44" stroke="#0075FF" stroke-width="0.5" stroke-linecap="round"/>
<line x1="213.165" y1="129.718" x2="213.165" y2="133.026" stroke="#0075FF" stroke-width="0.5" stroke-linecap="round"/>
<line x1="189.774" y1="134.94" x2="189.774" y2="138.248" stroke="#0075FF" stroke-width="0.5" stroke-linecap="round"/>
<line x1="191.95" y1="136.246" x2="191.95" y2="139.553" stroke="#0075FF" stroke-width="0.5" stroke-linecap="round"/>
<line x1="194.126" y1="137.333" x2="194.126" y2="140.641" stroke="#0075FF" stroke-width="0.5" stroke-linecap="round"/>
<line x1="196.302" y1="137.769" x2="196.302" y2="141.077" stroke="#0075FF" stroke-width="0.5" stroke-linecap="round"/>
<line x1="198.479" y1="138.095" x2="198.479" y2="141.403" stroke="#0075FF" stroke-width="0.5" stroke-linecap="round"/>
<line x1="200.653" y1="138.421" x2="200.653" y2="141.729" stroke="#0075FF" stroke-width="0.5" stroke-linecap="round"/>
<line x1="202.829" y1="138.421" x2="202.829" y2="141.729" stroke="#0075FF" stroke-width="0.5" stroke-linecap="round"/>
<line x1="205.005" y1="138.095" x2="205.005" y2="141.403" stroke="#0075FF" stroke-width="0.5" stroke-linecap="round"/>
<line x1="207.181" y1="137.769" x2="207.181" y2="141.077" stroke="#0075FF" stroke-width="0.5" stroke-linecap="round"/>
<line x1="209.357" y1="137.225" x2="209.357" y2="140.533" stroke="#0075FF" stroke-width="0.5" stroke-linecap="round"/>
<line x1="211.534" y1="136.246" x2="211.534" y2="139.553" stroke="#0075FF" stroke-width="0.5" stroke-linecap="round"/>
<line x1="191.403" y1="141.319" x2="191.403" y2="144.41" stroke="#0075FF" stroke-width="0.5" stroke-linecap="round"/>
<line x1="193.58" y1="142.229" x2="193.58" y2="145.537" stroke="#0075FF" stroke-width="0.5" stroke-linecap="round"/>
<line x1="195.756" y1="142.991" x2="195.756" y2="146.299" stroke="#0075FF" stroke-width="0.5" stroke-linecap="round"/>
<line x1="197.932" y1="143.317" x2="197.932" y2="146.625" stroke="#0075FF" stroke-width="0.5" stroke-linecap="round"/>
<line x1="200.108" y1="143.644" x2="200.108" y2="146.951" stroke="#0075FF" stroke-width="0.5" stroke-linecap="round"/>
<line x1="202.282" y1="143.644" x2="202.282" y2="146.951" stroke="#0075FF" stroke-width="0.5" stroke-linecap="round"/>
<line x1="204.458" y1="143.317" x2="204.458" y2="146.625" stroke="#0075FF" stroke-width="0.5" stroke-linecap="round"/>
<line x1="206.635" y1="142.991" x2="206.635" y2="146.299" stroke="#0075FF" stroke-width="0.5" stroke-linecap="round"/>
<line x1="208.811" y1="142.446" x2="208.811" y2="145.754" stroke="#0075FF" stroke-width="0.5" stroke-linecap="round"/>
<line x1="210.987" y1="141.468" x2="210.987" y2="144.776" stroke="#0075FF" stroke-width="0.5" stroke-linecap="round"/>
<line x1="189.774" y1="145.494" x2="189.774" y2="148.585" stroke="#0075FF" stroke-width="0.5" stroke-linecap="round"/>
<line x1="191.95" y1="146.799" x2="191.95" y2="148.054" stroke="#0075FF" stroke-width="0.5" stroke-linecap="round"/>
<line x1="207.181" y1="148.323" x2="207.181" y2="149.362" stroke="#0075FF" stroke-width="0.5" stroke-linecap="round"/>
<line x1="209.357" y1="147.778" x2="209.357" y2="149.33" stroke="#0075FF" stroke-width="0.5" stroke-linecap="round"/>
<path d="M46.8512 184.159V131.835L63.7795 106.187" stroke="#0075FF" stroke-width="0.75" stroke-linecap="round" stroke-linejoin="round"/>
<path d="M55.5718 189.289V144.147" stroke="#0075FF" stroke-width="0.75" stroke-linecap="round" stroke-linejoin="round"/>
<path d="M65.3184 195.137V140.762" stroke="#0075FF" stroke-width="0.75" stroke-linecap="round" stroke-linejoin="round"/>
<path d="M90.9673 135.426L103.279 120.037C103.279 116.275 103.279 108.136 103.279 105.674C103.279 102.596 105.844 99.5179 107.383 98.4919C108.614 97.6712 111.315 96.098 112.512 95.4141" stroke="#0075FF" stroke-width="0.75" stroke-linecap="round" stroke-linejoin="round"/>
<path d="M96.6101 173.387L111.999 150.303C111.999 137.991 111.999 112.856 111.999 110.804C111.999 108.239 113.538 103.622 116.616 102.083C119.079 100.852 125.166 97.4662 127.902 95.9272" stroke="#0075FF" stroke-width="0.75" stroke-linecap="round" stroke-linejoin="round"/>
<path d="M108.922 206.217V174.926L122.259 152.868C122.259 141.753 122.259 118.909 122.259 116.446C122.259 113.368 124.824 109.778 127.902 107.726C130.364 106.084 145.343 97.4661 152.525 93.3623" stroke="#0075FF" stroke-width="0.75" stroke-linecap="round" stroke-linejoin="round"/>
<path d="M92.9964 174.499C92.9873 176.568 94.5052 179.196 96.3074 180.238C97.9233 181.168 99.0469 180.515 99.0524 178.678C99.058 176.611 97.5402 173.983 95.7386 172.943C94.1707 172.036 93.0026 172.62 92.9964 174.499Z" stroke="#0075FF" stroke-width="0.75" stroke-linejoin="round"/>
<path d="M87.0049 136.183C86.9959 138.252 88.5137 140.88 90.3159 141.922C91.936 142.858 93.0554 142.189 93.061 140.362C93.0666 138.295 91.5487 135.667 89.7472 134.627C88.1751 133.718 87.0112 134.306 87.0049 136.183Z" stroke="#0075FF" stroke-width="0.75" stroke-linejoin="round"/>
<path d="M61.7627 134.655C61.7571 136.726 63.275 139.353 65.0737 140.394C66.7049 141.337 67.8132 140.649 67.8188 138.836C67.8243 136.767 66.3065 134.139 64.505 133.098C62.9371 132.192 61.769 132.776 61.7627 134.655Z" stroke="#0075FF" stroke-width="0.75" stroke-linejoin="round"/>
<path d="M60.294 100.23C60.2884 102.3 61.8062 104.928 63.605 105.969C65.2056 106.897 66.3445 106.258 66.35 104.41C66.3556 102.34 64.8377 99.7123 63.0362 98.6728C61.437 97.7529 60.3002 98.3815 60.294 100.23Z" stroke="#0075FF" stroke-width="0.75" stroke-linejoin="round"/>
<path d="M105.851 207.547C105.851 209.656 107.339 212.225 109.168 213.274C110.785 214.231 111.901 213.55 111.925 211.714C111.925 209.606 110.436 207.039 108.608 205.991C107.039 205.093 105.851 205.664 105.851 207.547Z" stroke="#0075FF" stroke-width="0.75" stroke-linejoin="round"/>
</g>
<defs>
<linearGradient id="paint0_linear_340_25291" x1="187.071" y1="154.398" x2="215.381" y2="154.398" gradientUnits="userSpaceOnUse">
<stop stop-color="#387CFF"/>
<stop offset="1" stop-color="#00D4FF"/>
</linearGradient>
<linearGradient id="paint1_linear_340_25291" x1="187.069" y1="149.492" x2="215.38" y2="149.492" gradientUnits="userSpaceOnUse">
<stop stop-color="#387CFF"/>
<stop offset="1" stop-color="#00D4FF"/>
</linearGradient>
<linearGradient id="paint2_linear_340_25291" x1="190.368" y1="148.912" x2="212.237" y2="148.912" gradientUnits="userSpaceOnUse">
<stop stop-color="#387CFF"/>
<stop offset="1" stop-color="#00D4FF"/>
</linearGradient>
<linearGradient id="paint3_linear_340_25291" x1="190.368" y1="143.7" x2="212.237" y2="143.7" gradientUnits="userSpaceOnUse">
<stop stop-color="#387CFF"/>
<stop offset="1" stop-color="#00D4FF"/>
</linearGradient>
<linearGradient id="paint4_linear_340_25291" x1="187.067" y1="139.066" x2="215.378" y2="139.066" gradientUnits="userSpaceOnUse">
<stop stop-color="#4098FF"/>
<stop offset="1" stop-color="#4FE1FF"/>
</linearGradient>
<linearGradient id="paint5_linear_340_25291" x1="190.368" y1="138.487" x2="212.237" y2="138.487" gradientUnits="userSpaceOnUse">
<stop stop-color="#387CFF"/>
<stop offset="1" stop-color="#00D4FF"/>
</linearGradient>
<linearGradient id="paint6_linear_340_25291" x1="187.069" y1="133.853" x2="215.38" y2="133.853" gradientUnits="userSpaceOnUse">
<stop stop-color="#4098FF"/>
<stop offset="1" stop-color="#4FE1FF"/>
</linearGradient>
<linearGradient id="paint7_linear_340_25291" x1="190.368" y1="133.269" x2="212.237" y2="133.269" gradientUnits="userSpaceOnUse">
<stop stop-color="#387CFF"/>
<stop offset="1" stop-color="#00D4FF"/>
</linearGradient>
<linearGradient id="paint8_linear_340_25291" x1="186.804" y1="128.741" x2="215.114" y2="128.741" gradientUnits="userSpaceOnUse">
<stop stop-color="#4098FF"/>
<stop offset="1" stop-color="#4FE1FF"/>
</linearGradient>
<linearGradient id="paint9_linear_340_25291" x1="159.65" y1="159.239" x2="187.96" y2="159.239" gradientUnits="userSpaceOnUse">
<stop stop-color="#387CFF"/>
<stop offset="1" stop-color="#00D4FF"/>
</linearGradient>
<linearGradient id="paint10_linear_340_25291" x1="159.648" y1="154.333" x2="187.96" y2="154.333" gradientUnits="userSpaceOnUse">
<stop stop-color="#387CFF"/>
<stop offset="1" stop-color="#00D4FF"/>
</linearGradient>
<linearGradient id="paint11_linear_340_25291" x1="162.948" y1="153.751" x2="184.817" y2="153.751" gradientUnits="userSpaceOnUse">
<stop stop-color="#387CFF"/>
<stop offset="1" stop-color="#00D4FF"/>
</linearGradient>
<linearGradient id="paint12_linear_340_25291" x1="159.65" y1="154.025" x2="187.96" y2="154.025" gradientUnits="userSpaceOnUse">
<stop stop-color="#387CFF"/>
<stop offset="1" stop-color="#00D4FF"/>
</linearGradient>
<linearGradient id="paint13_linear_340_25291" x1="159.648" y1="149.12" x2="187.958" y2="149.12" gradientUnits="userSpaceOnUse">
<stop stop-color="#4098FF"/>
<stop offset="1" stop-color="#4FE1FF"/>
</linearGradient>
<linearGradient id="paint14_linear_340_25291" x1="162.948" y1="148.539" x2="184.817" y2="148.539" gradientUnits="userSpaceOnUse">
<stop stop-color="#387CFF"/>
<stop offset="1" stop-color="#00D4FF"/>
</linearGradient>
<linearGradient id="paint15_linear_340_25291" x1="159.65" y1="148.814" x2="187.96" y2="148.814" gradientUnits="userSpaceOnUse">
<stop stop-color="#387CFF"/>
<stop offset="1" stop-color="#00D4FF"/>
</linearGradient>
<linearGradient id="paint16_linear_340_25291" x1="159.648" y1="143.908" x2="187.958" y2="143.908" gradientUnits="userSpaceOnUse">
<stop stop-color="#4098FF"/>
<stop offset="1" stop-color="#4FE1FF"/>
</linearGradient>
<linearGradient id="paint17_linear_340_25291" x1="162.948" y1="143.324" x2="184.817" y2="143.324" gradientUnits="userSpaceOnUse">
<stop stop-color="#387CFF"/>
<stop offset="1" stop-color="#00D4FF"/>
</linearGradient>
<linearGradient id="paint18_linear_340_25291" x1="159.65" y1="143.601" x2="187.96" y2="143.601" gradientUnits="userSpaceOnUse">
<stop stop-color="#387CFF"/>
<stop offset="1" stop-color="#00D4FF"/>
</linearGradient>
<linearGradient id="paint19_linear_340_25291" x1="159.648" y1="138.695" x2="187.958" y2="138.695" gradientUnits="userSpaceOnUse">
<stop stop-color="#4098FF"/>
<stop offset="1" stop-color="#4FE1FF"/>
</linearGradient>
<linearGradient id="paint20_linear_340_25291" x1="183.045" y1="180.266" x2="211.355" y2="180.266" gradientUnits="userSpaceOnUse">
<stop stop-color="#387CFF"/>
<stop offset="1" stop-color="#00D4FF"/>
</linearGradient>
<linearGradient id="paint21_linear_340_25291" x1="183.045" y1="175.36" x2="211.355" y2="175.36" gradientUnits="userSpaceOnUse">
<stop stop-color="#4098FF"/>
<stop offset="1" stop-color="#4FE1FF"/>
</linearGradient>
<linearGradient id="paint22_linear_340_25291" x1="186.346" y1="174.781" x2="208.216" y2="174.781" gradientUnits="userSpaceOnUse">
<stop stop-color="#387CFF"/>
<stop offset="1" stop-color="#00D4FF"/>
</linearGradient>
<linearGradient id="paint23_linear_340_25291" x1="183.045" y1="175.053" x2="211.355" y2="175.053" gradientUnits="userSpaceOnUse">
<stop stop-color="#387CFF"/>
<stop offset="1" stop-color="#00D4FF"/>
</linearGradient>
<linearGradient id="paint24_linear_340_25291" x1="183.043" y1="170.147" x2="211.356" y2="170.147" gradientUnits="userSpaceOnUse">
<stop stop-color="#4098FF"/>
<stop offset="1" stop-color="#4FE1FF"/>
</linearGradient>
<linearGradient id="paint25_linear_340_25291" x1="186.346" y1="169.563" x2="208.216" y2="169.563" gradientUnits="userSpaceOnUse">
<stop stop-color="#387CFF"/>
<stop offset="1" stop-color="#00D4FF"/>
</linearGradient>
<linearGradient id="paint26_linear_340_25291" x1="183.047" y1="169.84" x2="211.357" y2="169.84" gradientUnits="userSpaceOnUse">
<stop stop-color="#387CFF"/>
<stop offset="1" stop-color="#00D4FF"/>
</linearGradient>
<linearGradient id="paint27_linear_340_25291" x1="183.045" y1="164.935" x2="211.356" y2="164.935" gradientUnits="userSpaceOnUse">
<stop stop-color="#4098FF"/>
<stop offset="1" stop-color="#4FE1FF"/>
</linearGradient>
<linearGradient id="paint28_linear_340_25291" x1="186.346" y1="164.355" x2="208.216" y2="164.355" gradientUnits="userSpaceOnUse">
<stop stop-color="#387CFF"/>
<stop offset="1" stop-color="#00D4FF"/>
</linearGradient>
<linearGradient id="paint29_linear_340_25291" x1="183.047" y1="164.627" x2="211.357" y2="164.627" gradientUnits="userSpaceOnUse">
<stop stop-color="#387CFF"/>
<stop offset="1" stop-color="#00D4FF"/>
</linearGradient>
<linearGradient id="paint30_linear_340_25291" x1="183.045" y1="159.722" x2="211.356" y2="159.722" gradientUnits="userSpaceOnUse">
<stop stop-color="#4098FF"/>
<stop offset="1" stop-color="#4FE1FF"/>
</linearGradient>
<linearGradient id="paint31_linear_340_25291" x1="157.743" y1="188.692" x2="186.053" y2="188.692" gradientUnits="userSpaceOnUse">
<stop stop-color="#387CFF"/>
<stop offset="1" stop-color="#00D4FF"/>
</linearGradient>
<linearGradient id="paint32_linear_340_25291" x1="157.741" y1="183.786" x2="186.053" y2="183.786" gradientUnits="userSpaceOnUse">
<stop stop-color="#387CFF"/>
<stop offset="1" stop-color="#00D4FF"/>
</linearGradient>
<linearGradient id="paint33_linear_340_25291" x1="161.04" y1="183.202" x2="182.909" y2="183.202" gradientUnits="userSpaceOnUse">
<stop stop-color="#387CFF"/>
<stop offset="1" stop-color="#00D4FF"/>
</linearGradient>
<linearGradient id="paint34_linear_340_25291" x1="161.04" y1="177.994" x2="182.909" y2="177.994" gradientUnits="userSpaceOnUse">
<stop stop-color="#387CFF"/>
<stop offset="1" stop-color="#00D4FF"/>
</linearGradient>
<linearGradient id="paint35_linear_340_25291" x1="161.04" y1="172.769" x2="182.909" y2="172.769" gradientUnits="userSpaceOnUse">
<stop stop-color="#387CFF"/>
<stop offset="1" stop-color="#00D4FF"/>
</linearGradient>
<linearGradient id="paint36_linear_340_25291" x1="161.04" y1="167.569" x2="182.909" y2="167.569" gradientUnits="userSpaceOnUse">
<stop stop-color="#387CFF"/>
<stop offset="1" stop-color="#00D4FF"/>
</linearGradient>
<linearGradient id="paint37_linear_340_25291" x1="157.741" y1="183.479" x2="186.051" y2="183.479" gradientUnits="userSpaceOnUse">
<stop stop-color="#387CFF"/>
<stop offset="1" stop-color="#00D4FF"/>
</linearGradient>
<linearGradient id="paint38_linear_340_25291" x1="157.741" y1="178.573" x2="186.053" y2="178.573" gradientUnits="userSpaceOnUse">
<stop stop-color="#4098FF"/>
<stop offset="1" stop-color="#4FE1FF"/>
</linearGradient>
<linearGradient id="paint39_linear_340_25291" x1="157.741" y1="178.267" x2="186.051" y2="178.267" gradientUnits="userSpaceOnUse">
<stop stop-color="#387CFF"/>
<stop offset="1" stop-color="#00D4FF"/>
</linearGradient>
<linearGradient id="paint40_linear_340_25291" x1="157.741" y1="173.362" x2="186.053" y2="173.362" gradientUnits="userSpaceOnUse">
<stop stop-color="#4098FF"/>
<stop offset="1" stop-color="#4FE1FF"/>
</linearGradient>
<linearGradient id="paint41_linear_340_25291" x1="157.741" y1="173.054" x2="186.051" y2="173.054" gradientUnits="userSpaceOnUse">
<stop stop-color="#387CFF"/>
<stop offset="1" stop-color="#00D4FF"/>
</linearGradient>
<linearGradient id="paint42_linear_340_25291" x1="157.741" y1="168.149" x2="186.053" y2="168.149" gradientUnits="userSpaceOnUse">
<stop stop-color="#4098FF"/>
<stop offset="1" stop-color="#4FE1FF"/>
</linearGradient>
<linearGradient id="paint43_linear_340_25291" x1="157.741" y1="167.841" x2="186.051" y2="167.841" gradientUnits="userSpaceOnUse">
<stop stop-color="#387CFF"/>
<stop offset="1" stop-color="#00D4FF"/>
</linearGradient>
<linearGradient id="paint44_linear_340_25291" x1="157.741" y1="162.936" x2="186.053" y2="162.936" gradientUnits="userSpaceOnUse">
<stop stop-color="#4098FF"/>
<stop offset="1" stop-color="#4FE1FF"/>
</linearGradient>
<clipPath id="clip0_340_25291">
<rect width="336" height="237" fill="white"/>
</clipPath>
</defs>
</svg>
