<svg width="336" height="237" viewBox="0 0 336 237" fill="none" xmlns="http://www.w3.org/2000/svg">
<path d="M178.468 87.9095C174.074 77.3679 145.446 79.2583 114.537 92.15C83.6272 105.042 62.1523 124.047 66.546 134.589C67.2783 136.36 70.0713 143.036 70.8036 144.807C75.1973 155.366 103.825 153.458 134.734 140.567C165.644 127.675 187.119 108.669 182.725 98.1276C181.993 96.3565 179.2 89.6807 178.468 87.9095V87.9095Z" fill="url(#paint0_linear_340_25292)" stroke="#0075FF" stroke-width="0.5" stroke-linejoin="round"/>
<g style="mix-blend-mode:multiply" opacity="0.3">
<path d="M178.468 87.9095C174.074 77.3679 145.446 79.2583 114.537 92.15C83.6272 105.042 62.1523 124.047 66.546 134.589C67.2783 136.36 70.0713 143.036 70.8036 144.807C75.1973 155.366 103.825 153.458 134.734 140.567C165.644 127.675 187.119 108.669 182.725 98.1276C181.993 96.3565 179.2 89.6807 178.468 87.9095V87.9095Z" fill="url(#paint1_linear_340_25292)"/>
<path d="M178.468 87.9095C174.074 77.3679 145.446 79.2583 114.537 92.15C83.6272 105.042 62.1523 124.047 66.546 134.589C67.2783 136.36 70.0713 143.036 70.8036 144.807C75.1973 155.366 103.825 153.458 134.734 140.567C165.644 127.675 187.119 108.669 182.725 98.1276C181.993 96.3565 179.2 89.6807 178.468 87.9095V87.9095Z" stroke="#0075FF" stroke-width="0.5" stroke-linejoin="round"/>
</g>
<path d="M178.468 87.9095C174.074 77.3679 145.446 79.2583 114.537 92.15C83.6272 105.042 62.1523 124.047 66.546 134.589C67.2783 136.36 70.0713 143.036 70.8036 144.807C75.1973 155.366 103.825 153.458 134.734 140.567C165.644 127.675 187.119 108.669 182.725 98.1276C181.993 96.3565 179.2 89.6807 178.468 87.9095V87.9095Z" stroke="#0075FF" stroke-width="0.5" stroke-linejoin="round"/>
<mask id="mask0_340_25292" style="mask-type:alpha" maskUnits="userSpaceOnUse" x="65" y="81" width="119" height="71">
<path d="M178.468 87.9095C174.074 77.3679 145.447 79.2583 114.537 92.15C83.6274 105.042 62.1525 124.047 66.5463 134.589C67.2786 136.36 70.0715 143.036 70.8038 144.807C75.1976 155.366 103.825 153.458 134.735 140.567C165.644 127.675 187.119 108.669 182.725 98.1276C181.993 96.3565 179.2 89.6807 178.468 87.9095V87.9095Z" fill="url(#paint2_linear_340_25292)"/>
</mask>
<g mask="url(#mask0_340_25292)">
<path d="M51.1879 75.5109L91.782 187.58" stroke="#0075FF" stroke-width="0.5" stroke-linejoin="round"/>
<path d="M59.0379 73.6608L99.6319 185.73" stroke="#0075FF" stroke-width="0.5" stroke-linejoin="round"/>
<path d="M66.8858 71.8131L107.48 183.882" stroke="#0075FF" stroke-width="0.5" stroke-linejoin="round"/>
<path d="M74.7358 69.965L115.33 182.034" stroke="#0075FF" stroke-width="0.5" stroke-linejoin="round"/>
<path d="M90.4359 66.2692L131.03 178.338" stroke="#0075FF" stroke-width="0.5" stroke-linejoin="round"/>
<path d="M98.2858 64.4211L138.88 176.49" stroke="#0075FF" stroke-width="0.5" stroke-linejoin="round"/>
<path d="M82.5858 68.1178L123.18 180.187" stroke="#0075FF" stroke-width="0.5" stroke-linejoin="round"/>
<path d="M106.138 62.5734L146.732 174.643" stroke="#0075FF" stroke-width="0.5" stroke-linejoin="round"/>
<path d="M113.988 60.7257L154.582 172.795" stroke="#0075FF" stroke-width="0.5" stroke-linejoin="round"/>
<path d="M121.838 58.8776L162.432 170.947" stroke="#0075FF" stroke-width="0.5" stroke-linejoin="round"/>
<path d="M129.688 57.0299L170.282 169.099" stroke="#0075FF" stroke-width="0.5" stroke-linejoin="round"/>
<path d="M137.538 55.1813L178.132 167.251" stroke="#0075FF" stroke-width="0.5" stroke-linejoin="round"/>
<path d="M145.386 53.3336L185.98 165.403" stroke="#0075FF" stroke-width="0.5" stroke-linejoin="round"/>
<path d="M153.236 51.485L193.83 163.554" stroke="#0075FF" stroke-width="0.5" stroke-linejoin="round"/>
<path d="M161.086 49.6369L200.702 161.926" stroke="#0075FF" stroke-width="0.5" stroke-linejoin="round"/>
</g>
<path d="M66.546 134.589C70.9398 145.148 99.5674 143.24 130.477 130.348C161.387 117.457 182.861 98.4512 178.468 87.9095C174.074 77.3679 145.446 79.2583 114.537 92.15C83.6272 105.042 62.1523 124.047 66.546 134.589Z" fill="url(#paint3_linear_340_25292)" stroke="#0075FF" stroke-width="0.5" stroke-linejoin="round"/>
<path opacity="0.2" d="M97.559 140.193C107.419 138.541 118.779 135.237 130.478 130.367C161.03 117.628 182.352 98.912 178.588 88.3022C114.385 99.2015 82.7088 115.704 97.559 140.193Z" fill="white"/>
<g style="mix-blend-mode:multiply" opacity="0.5">
<path d="M115.612 94.7051C89.5217 105.587 71.4187 121.715 75.1823 130.741C76.5958 134.147 80.9555 136.054 87.2056 136.514C82.4201 135.85 79.0992 134.147 77.9412 131.337C74.3989 122.839 91.7185 107.512 116.617 97.1234C141.532 86.7351 164.59 85.2024 168.133 93.7174C169.308 96.5274 168.184 100.087 165.288 103.952C169.359 99.1841 171.079 94.7392 169.648 91.3332C165.885 82.3072 141.685 83.8229 115.595 94.6881L115.612 94.7051Z" fill="url(#paint4_linear_340_25292)"/>
</g>
<path d="M115.612 94.7051C89.5217 105.587 71.4187 121.715 75.1823 130.741C76.5958 134.147 80.9555 136.054 87.2056 136.514C82.4201 135.85 79.0992 134.147 77.9412 131.337C74.3989 122.839 91.7185 107.512 116.617 97.1234C141.532 86.7351 164.59 85.2024 168.133 93.7174C169.308 96.5274 168.184 100.087 165.288 103.952C169.359 99.1841 171.079 94.7392 169.648 91.3332C165.885 82.3072 141.685 83.8229 115.595 94.6881L115.612 94.7051Z" stroke="#0075FF" stroke-width="0.5" stroke-linejoin="round"/>
<path d="M150.061 111.327C164.068 100.751 163.666 92.3644 149.168 92.557C141.954 92.662 132.587 94.8857 123.29 98.3875C123.22 98.4225 123.15 98.44 123.08 98.475C113.782 101.994 104.555 106.809 97.5691 112.079C96.9038 112.587 96.291 113.077 95.6782 113.568C95.6431 113.585 95.6256 113.62 95.5906 113.638C95.1879 113.97 94.8202 114.286 94.4525 114.601C94.4525 114.601 94.4525 114.601 94.435 114.601C94.1024 114.898 93.7872 115.179 93.472 115.459C83.8246 124.371 85.558 131.007 98.4621 130.832C112.96 130.621 136.054 121.885 150.044 111.327H150.061ZM144.336 111.414C142.62 112.71 140.711 113.988 138.68 115.196C138.68 115.196 138.68 115.196 138.698 115.179C141.727 111.729 141.674 109.138 140.501 107.667C149.256 101.942 150.184 99.438 147.925 98.9302C147.872 98.9302 147.802 98.8952 147.732 98.8952C145.806 98.5801 142.007 99.7532 139.258 101.487C136.492 103.22 135.809 104.883 137.735 105.198C137.91 105.233 138.085 105.233 138.278 105.251C138.015 105.444 137.735 105.654 137.437 105.864C135.546 105.251 133.252 105.076 130.801 105.146C129.908 105.146 128.963 105.216 127.965 105.303C130.994 103.378 135.003 101.241 139.065 99.7181C142.987 98.2474 146.839 97.4595 149.343 97.7921C149.816 97.8622 150.254 97.9847 150.569 98.1423C150.569 98.1423 150.604 98.1423 150.621 98.1598C154.228 100.489 152.162 105.549 144.336 111.449V111.414ZM123.15 113.69C121.626 114.321 120.016 114.951 118.317 115.546C118.527 114.478 119.105 113.358 119.963 112.185C120.016 112.114 120.051 112.062 120.103 111.992C120.698 111.257 121.451 110.434 122.379 109.558C124.568 109.313 126.441 109.243 127.982 109.383C128.07 109.383 128.14 109.383 128.227 109.401C129.155 109.506 130.013 109.698 130.784 109.978C128.385 111.292 125.934 112.482 123.535 113.515C123.412 113.568 123.29 113.62 123.15 113.673V113.69ZM137.455 97.3544C137.455 97.3544 137.437 97.3544 137.42 97.3544C130.451 100.138 124.41 103.693 120.541 106.459C110.403 108.648 104.87 111.502 102.857 113.638C102.804 113.69 102.752 113.76 102.699 113.813C101.264 115.476 102.577 116.334 105.623 115.721C108.67 115.126 112.294 113.288 113.73 111.624C113.852 111.484 113.958 111.344 114.028 111.204C114.395 111.099 114.763 111.011 115.166 110.906C113.047 112.955 111.734 114.706 110.999 116.177C110.701 116.737 110.473 117.28 110.298 117.787C106.901 118.488 103.382 118.838 101.316 118.313C99.32 117.805 98.8998 116.404 100.616 114.321C100.931 113.935 101.386 113.48 101.876 113.06C102.332 112.692 102.787 112.325 103.277 111.957C112.399 105.111 126.476 99.2279 137.455 97.3544ZM104.012 126.664C98.4096 126.752 95.5206 125.176 95.328 122.567C99.2675 123.233 105.361 122.252 110.403 120.957C111.786 124.476 116.391 124.161 120.663 122.515C120.786 122.462 120.891 122.427 121.014 122.375C124.375 121.027 126.862 119.013 126.582 117.875C126.301 116.737 123.36 116.912 119.998 118.26C119.7 118.383 119.42 118.505 119.14 118.628C119.053 118.523 118.948 118.418 118.86 118.313C122.87 116.877 126.459 115.319 129.646 113.778C130.836 113.2 132.027 112.622 133.182 112.009C133.55 113.235 133.077 115.038 131.064 117.087C129.138 119.066 125.706 121.254 121.486 122.988C120.681 123.32 119.806 123.635 119 123.898C119 123.898 118.983 123.898 118.965 123.898C113.52 125.579 108.285 126.594 104.012 126.647V126.664Z" fill="white" stroke="#0075FF" stroke-width="0.5" stroke-linejoin="round"/>
<path d="M158.122 36.8857C142.532 55.0465 149.603 86.7188 173.902 107.623C198.202 128.528 230.53 130.743 246.111 112.569C248.72 109.525 251.281 106.552 253.881 103.495C269.463 85.3207 262.391 53.6484 238.092 32.7439C213.801 11.8529 181.474 9.63776 165.892 27.812C163.283 30.8559 160.723 33.8283 158.122 36.8857V36.8857Z" fill="url(#paint5_linear_340_25292)"/>
<g style="mix-blend-mode:multiply" opacity="0.3">
<path d="M158.122 36.8857C142.532 55.0465 149.603 86.7188 173.902 107.623C198.202 128.528 230.53 130.743 246.111 112.569C248.72 109.525 251.281 106.552 253.881 103.495C269.463 85.3207 262.391 53.6484 238.092 32.7439C213.801 11.8529 181.474 9.63776 165.892 27.812C163.283 30.8559 160.723 33.8283 158.122 36.8857V36.8857Z" fill="url(#paint6_linear_340_25292)"/>
</g>
<mask id="mask1_340_25292" style="mask-type:alpha" maskUnits="userSpaceOnUse" x="149" y="15" width="114" height="110">
<path d="M158.12 36.8852C142.53 55.046 149.601 86.7183 173.901 107.623C198.201 128.527 230.528 130.742 246.109 112.568C248.719 109.524 251.279 106.552 253.88 103.494C269.461 85.3203 262.39 53.6479 238.09 32.7434C213.799 11.8524 181.472 9.63727 165.891 27.8115C163.281 30.8554 160.721 33.8278 158.12 36.8852V36.8852Z" fill="url(#paint7_linear_340_25292)"/>
</mask>
<g mask="url(#mask1_340_25292)">
<path d="M226.013 -24.8549L141.806 54.5779" stroke="#0075FF" stroke-width="0.5" stroke-linejoin="round"/>
<path d="M230.691 -18.5727L146.484 60.8601" stroke="#0075FF" stroke-width="0.5" stroke-linejoin="round"/>
<path d="M235.369 -12.2924L151.161 67.1404" stroke="#0075FF" stroke-width="0.5" stroke-linejoin="round"/>
<path d="M240.046 -6.00966L155.839 73.4231" stroke="#0075FF" stroke-width="0.5" stroke-linejoin="round"/>
<path d="M249.398 6.55577L165.19 85.9885" stroke="#0075FF" stroke-width="0.5" stroke-linejoin="round"/>
<path d="M254.075 12.8385L169.868 92.2712" stroke="#0075FF" stroke-width="0.5" stroke-linejoin="round"/>
<path d="M244.722 0.273541L160.514 79.7063" stroke="#0075FF" stroke-width="0.5" stroke-linejoin="round"/>
<path d="M258.753 19.1222L174.545 98.5549" stroke="#0075FF" stroke-width="0.5" stroke-linejoin="round"/>
<path d="M263.428 25.4049L179.221 104.838" stroke="#0075FF" stroke-width="0.5" stroke-linejoin="round"/>
<path d="M268.106 31.6876L183.899 111.12" stroke="#0075FF" stroke-width="0.5" stroke-linejoin="round"/>
<path d="M272.782 37.9698L188.574 117.403" stroke="#0075FF" stroke-width="0.5" stroke-linejoin="round"/>
<path d="M277.459 44.2525L193.252 123.685" stroke="#0075FF" stroke-width="0.5" stroke-linejoin="round"/>
<path d="M282.135 50.5338L197.927 129.967" stroke="#0075FF" stroke-width="0.5" stroke-linejoin="round"/>
<path d="M286.813 56.815L202.605 136.248" stroke="#0075FF" stroke-width="0.5" stroke-linejoin="round"/>
<path d="M291.488 63.0986L206.708 141.745" stroke="#0075FF" stroke-width="0.5" stroke-linejoin="round"/>
</g>
<path d="M158.122 36.8857C142.532 55.0465 149.603 86.7188 173.902 107.623C198.202 128.528 230.53 130.743 246.111 112.569C248.72 109.525 251.281 106.552 253.881 103.495C269.463 85.3207 262.391 53.6484 238.092 32.7439C213.801 11.8529 181.474 9.63776 165.892 27.812C163.283 30.8559 160.723 33.8283 158.122 36.8857V36.8857Z" stroke="#0075FF" stroke-width="0.5" stroke-linejoin="round"/>
<path d="M246.118 112.579C261.697 94.4078 254.626 62.7324 230.324 41.8302C206.022 20.9279 173.691 18.7141 158.111 36.8855C142.532 55.0568 149.602 86.7322 173.905 107.634C198.207 128.537 230.538 130.751 246.118 112.579Z" fill="url(#paint8_linear_340_25292)" stroke="#0075FF" stroke-width="0.5" stroke-linejoin="round"/>
<path opacity="0.1" d="M155.566 40.2802C143.446 58.8045 151.047 87.9734 173.899 107.624C196.751 127.274 226.689 130.409 243.135 115.62L155.566 40.2802Z" fill="white"/>
<g style="mix-blend-mode:multiply" opacity="0.5">
<path d="M177.669 103.231C198.189 120.874 225.618 122.584 238.94 107.048C243.975 101.178 246.274 93.6853 246.079 85.6679C245.754 92.1672 243.611 98.1995 239.461 103.038C226.902 117.681 200.852 115.894 181.267 99.0495C161.682 82.205 155.979 56.6687 168.537 42.0249C172.687 37.1867 178.315 34.1453 184.696 32.8564C176.762 33.8726 169.709 37.2741 164.66 43.1521C151.338 58.6886 157.163 85.5795 177.669 103.231Z" fill="url(#paint9_linear_340_25292)"/>
</g>
<path d="M177.669 103.231C198.189 120.874 225.618 122.584 238.94 107.048C243.975 101.178 246.274 93.6853 246.079 85.6679C245.754 92.1672 243.611 98.1995 239.461 103.038C226.902 117.681 200.852 115.894 181.267 99.0495C161.682 82.2049 155.979 56.6687 168.537 42.0249C172.687 37.1867 178.315 34.1453 184.696 32.8564C176.762 33.8726 169.709 37.2741 164.66 43.1521C151.338 58.6886 157.163 85.5795 177.669 103.231Z" stroke="#0075FF" stroke-width="0.5" stroke-linejoin="round"/>
<path d="M239.032 106.484C239.032 106.484 239.338 106.069 239.908 105.265C240.187 104.867 240.555 104.372 240.964 103.791C241.396 103.215 241.711 102.463 242.166 101.659C242.386 101.261 242.602 100.827 242.854 100.389C243.083 99.9465 243.224 99.4272 243.431 98.9216C243.805 97.879 244.305 96.7922 244.546 95.547C244.853 94.3157 245.21 93.0129 245.313 91.5877C245.408 90.8843 245.486 90.154 245.578 89.4147C245.589 88.6705 245.604 87.9039 245.611 87.1238C245.717 85.5597 245.462 83.9443 245.345 82.2758C245.294 81.4372 245.067 80.5976 244.926 79.7405C244.749 78.8877 244.671 78.0085 244.391 77.1463C243.889 75.422 243.468 73.6443 242.738 71.8964C242.391 71.0203 242.12 70.1132 241.702 69.2457C241.296 68.3693 240.878 67.5018 240.472 66.6254C240.094 65.7312 239.554 64.8855 239.064 64.0265C238.56 63.1765 238.114 62.2685 237.548 61.4406C236.401 59.7936 235.331 58.0573 233.991 56.499C231.519 53.2265 228.472 50.3141 225.42 47.5407C222.149 44.8737 218.873 42.3457 215.259 40.3898C213.52 39.3091 211.655 38.5056 209.83 37.6173C208.917 37.1731 207.964 36.8721 207.061 36.4997C206.139 36.1586 205.231 35.7503 204.278 35.5076C203.342 35.2337 202.42 34.9509 201.494 34.6904C200.572 34.4076 199.632 34.2726 198.719 34.0615C196.889 33.6035 195.067 33.4504 193.294 33.2259C192.412 33.0912 191.516 33.1403 190.652 33.0909C189.779 33.0862 188.937 32.9832 188.095 33.0549C186.424 33.1896 184.781 33.1899 183.266 33.5316C182.504 33.6665 181.743 33.8015 181.008 33.9187C180.291 34.1211 179.587 34.3147 178.906 34.5128C177.513 34.8328 176.284 35.3733 175.101 35.8647C173.895 36.2932 172.899 36.9515 171.931 37.4754C171.455 37.7509 170.975 37.9905 170.567 38.2797C170.168 38.5825 169.782 38.8764 169.414 39.1389C168.705 39.7046 167.987 40.1402 167.489 40.6442C166.982 41.1347 166.555 41.5718 166.205 41.9196C165.505 42.6154 165.127 42.981 165.127 42.981C165.127 42.981 165.496 42.6019 166.165 41.888C166.506 41.5267 166.919 41.0985 167.409 40.581C167.889 40.05 168.575 39.5963 169.289 39.0083C169.639 38.7187 170.025 38.4248 170.429 38.0997C170.828 37.7969 171.308 37.5573 171.779 37.246C172.734 36.6727 173.726 35.9785 174.927 35.5141C176.106 34.9868 177.335 34.388 178.728 34.0098C179.423 33.8027 180.131 33.5868 180.853 33.3619C181.592 33.2224 182.367 33.0785 183.142 32.9346C184.697 32.5662 186.359 32.5347 188.047 32.3687C188.894 32.2746 189.763 32.3598 190.649 32.3556C191.527 32.3961 192.427 32.3246 193.336 32.4415C195.149 32.6394 197.012 32.7658 198.883 33.1971C200.781 33.494 202.647 34.0643 204.548 34.6303C205.515 34.8641 206.432 35.2859 207.376 35.6316C208.316 35.9997 209.291 36.3053 210.204 36.7495C212.042 37.6289 213.952 38.4416 215.736 39.5315C219.417 41.5012 222.84 44.1062 226.076 46.7192C229.221 49.6052 232.264 52.54 234.776 55.9024C236.12 57.4966 237.209 59.2598 238.355 60.9651C238.917 61.8154 239.385 62.728 239.884 63.6005C240.37 64.4818 240.91 65.3275 241.293 66.2576C242.13 68.0509 242.972 69.8218 243.559 71.6452C244.271 73.4244 244.669 75.2557 245.139 77.0202C245.406 77.8914 245.466 78.8018 245.629 79.6635C245.744 80.5384 245.97 81.378 246.004 82.2479C246.089 83.9566 246.313 85.6121 246.179 87.1941C246.146 87.9919 246.117 88.7674 246.093 89.5205C245.988 90.2687 245.874 91.0034 245.773 91.7292C245.622 93.1675 245.216 94.4835 244.872 95.7191C244.582 96.9774 244.06 98.0597 243.641 99.0931C243.42 99.6076 243.249 100.109 243.006 100.56C242.754 100.998 242.515 101.428 242.273 101.821C241.787 102.607 241.449 103.354 241.009 103.917C240.569 104.479 240.205 104.953 239.904 105.346C239.302 106.132 238.987 106.533 238.987 106.533L239.032 106.484Z" fill="#0075FF"/>
<path d="M214.41 46.2041C196.579 35.4541 177.047 38.7073 170.742 53.4669C167.606 60.8236 168.348 69.6422 172.094 77.9793L172.083 77.9881C172.128 78.0427 172.152 78.1148 172.187 78.1782C175.974 86.4998 182.736 94.327 191.615 99.6681C192.466 100.177 193.31 100.656 194.156 101.095C194.194 101.119 194.232 101.143 194.271 101.147C194.833 101.437 195.394 101.726 195.968 101.987C195.968 101.987 195.977 101.997 195.997 102C196.503 102.243 197.019 102.478 197.537 102.692C213.572 109.541 229.666 105.529 235.274 92.3944C241.57 77.6239 232.231 56.9431 214.41 46.2041V46.2041ZM211.924 52.0303C214.116 53.3602 216.145 54.8811 217.994 56.5319C217.994 56.5319 217.965 56.5189 217.946 56.5168C211.398 54.5981 205.434 55.5062 201.498 57.1995C192.409 50.1754 187.062 50.0763 184.848 52.5517C184.774 52.6133 184.728 52.6879 184.673 52.7515C183.057 54.8241 183.963 58.3218 186.677 60.5628C189.391 62.8039 192.901 62.9337 194.506 60.8699C194.64 60.6855 194.765 60.4902 194.87 60.2928C195.201 60.4974 195.54 60.7129 195.898 60.9503C193.622 63.0909 192.107 65.5025 191.132 67.9822C190.741 68.8944 190.416 69.8436 190.157 70.8298C187.122 68.395 184.065 65.0036 182.456 61.3705C180.888 57.8511 180.878 54.1817 182.831 51.4992C183.2 50.9921 183.684 50.5175 184.191 50.1347C184.213 50.1171 184.234 50.0995 184.255 50.0819C191.322 45.6143 201.991 45.9988 211.945 52.0127L211.924 52.0303ZM207.271 72.9428C207.271 72.9428 207.271 72.9428 207.28 72.9537C208.044 74.2887 208.72 75.7335 209.299 77.2772C206.958 77.4125 204.613 77.2195 202.343 76.7262C202.226 76.6938 202.108 76.6811 201.983 76.6377C200.544 76.2838 199.037 75.7834 197.455 75.1257C197.888 72.9653 198.647 71.0688 199.651 69.4472C199.707 69.3638 199.755 69.2695 199.811 69.1861C200.486 68.205 201.316 67.2606 202.309 66.3835C204.218 68.4084 205.814 70.4893 207.08 72.6041C207.14 72.7199 207.211 72.827 207.281 72.934L207.271 72.9428ZM176.326 63.8314L176.344 63.8532C179.511 70.0402 184.888 75.0238 189.443 78.0399C189.762 87.6679 193.724 92.3698 197.731 93.7064C197.837 93.7476 197.953 93.78 198.061 93.8015C201.21 94.7077 203.802 93.0782 203.84 90.1596C203.879 87.2409 201.343 84.1541 198.194 83.248C197.912 83.168 197.649 83.1098 197.385 83.0714C197.323 82.7366 197.273 82.3733 197.223 82.0101C200.951 83.4856 204.361 84.2309 207.424 84.4915C208.565 84.6144 209.701 84.6673 210.822 84.6589C210.837 87.9014 209.998 91.3899 207.809 93.6791C205.705 95.898 202.271 96.7904 198.3 95.7361C197.543 95.5352 196.735 95.2294 195.98 94.8796C195.343 94.5425 194.716 94.1966 194.083 93.8201C182.502 86.8356 175.496 74.429 176.317 63.8205L176.326 63.8314ZM228.22 88.1546C225.793 93.858 220.809 97.357 214.723 98.4209C218.113 94.1634 218.691 88.2609 218.063 83.5405C226.832 80.9366 228.228 76.3251 226.435 72.5131C226.384 72.4082 226.333 72.3033 226.282 72.1984C224.738 69.2284 221.251 67.3514 218.499 68.029C215.746 68.7066 214.773 71.6636 216.317 74.6336C216.455 74.8871 216.612 75.1427 216.772 75.3785C216.503 75.5087 216.215 75.6367 215.897 75.7714C214.445 72.1552 212.549 68.9983 210.47 66.2689C209.711 65.2426 208.91 64.2318 208.047 63.254C211.058 62.455 214.963 62.3491 218.762 63.693C222.434 64.9936 225.858 67.7685 227.906 71.4985C228.295 72.2065 228.627 72.9979 228.855 73.7284C228.855 73.7284 228.864 73.7393 228.873 73.7502C230.203 78.7549 230.093 83.7734 228.232 88.1261L228.22 88.1546Z" fill="white" stroke="#0075FF" stroke-width="0.5" stroke-linejoin="round"/>
<path d="M221.532 185.307C226.116 163.292 205.218 140.314 174.839 133.988C144.46 127.661 116.11 140.384 111.525 162.398L108.654 176.186C104.07 198.2 124.984 221.182 155.363 227.508C185.742 233.835 214.092 221.112 218.677 199.098L221.548 185.31L221.532 185.307Z" fill="url(#paint10_linear_340_25292)" stroke="#0075FF" stroke-width="0.5" stroke-linejoin="round"/>
<g style="mix-blend-mode:multiply" opacity="0.3">
<path d="M221.532 185.307C226.116 163.292 205.218 140.314 174.839 133.988C144.46 127.661 116.11 140.384 111.525 162.398L108.654 176.186C104.07 198.2 124.984 221.182 155.363 227.508C185.742 233.835 214.092 221.112 218.677 199.098L221.548 185.31L221.532 185.307Z" fill="url(#paint11_linear_340_25292)"/>
<path d="M221.532 185.307C226.116 163.292 205.218 140.314 174.839 133.988C144.46 127.661 116.11 140.384 111.525 162.398L108.654 176.186C104.07 198.2 124.984 221.182 155.363 227.508C185.742 233.835 214.092 221.112 218.677 199.098L221.548 185.31L221.532 185.307Z" stroke="#0075FF" stroke-width="0.5" stroke-linejoin="round"/>
</g>
<mask id="mask2_340_25292" style="mask-type:alpha" maskUnits="userSpaceOnUse" x="107" y="132" width="116" height="98">
<path d="M221.531 185.307C226.116 163.293 205.217 140.315 174.839 133.988C144.46 127.662 116.11 140.384 111.525 162.399L108.654 176.186C104.069 198.201 124.984 221.182 155.363 227.509C185.742 233.835 214.092 221.113 218.676 199.098L221.548 185.311L221.531 185.307Z" fill="url(#paint12_linear_340_25292)" stroke="#29256A" stroke-width="0.5" stroke-linejoin="round"/>
</mask>
<g mask="url(#mask2_340_25292)">
<path d="M112.339 106.594L95.9487 227.43" stroke="#0075FF" stroke-width="0.5" stroke-linejoin="round"/>
<path d="M120.332 108.643L103.941 229.479" stroke="#0075FF" stroke-width="0.5" stroke-linejoin="round"/>
<path d="M128.324 110.692L111.933 231.528" stroke="#0075FF" stroke-width="0.5" stroke-linejoin="round"/>
<path d="M136.314 112.742L119.923 233.578" stroke="#0075FF" stroke-width="0.5" stroke-linejoin="round"/>
<path d="M152.296 116.843L135.905 237.679" stroke="#0075FF" stroke-width="0.5" stroke-linejoin="round"/>
<path d="M160.288 118.894L143.897 239.73" stroke="#0075FF" stroke-width="0.5" stroke-linejoin="round"/>
<path d="M144.306 114.792L127.915 235.628" stroke="#0075FF" stroke-width="0.5" stroke-linejoin="round"/>
<path d="M168.28 120.945L151.889 241.781" stroke="#0075FF" stroke-width="0.5" stroke-linejoin="round"/>
<path d="M176.272 122.995L159.882 243.831" stroke="#0075FF" stroke-width="0.5" stroke-linejoin="round"/>
<path d="M184.264 125.045L167.874 245.881" stroke="#0075FF" stroke-width="0.5" stroke-linejoin="round"/>
<path d="M192.257 127.095L175.866 247.931" stroke="#0075FF" stroke-width="0.5" stroke-linejoin="round"/>
<path d="M200.247 129.146L183.856 249.982" stroke="#0075FF" stroke-width="0.5" stroke-linejoin="round"/>
<path d="M208.239 131.195L191.848 252.032" stroke="#0075FF" stroke-width="0.5" stroke-linejoin="round"/>
<path d="M216.231 133.245L199.84 254.081" stroke="#0075FF" stroke-width="0.5" stroke-linejoin="round"/>
<path d="M224.221 135.295L206.839 255.867" stroke="#0075FF" stroke-width="0.5" stroke-linejoin="round"/>
</g>
<path d="M221.532 185.307C226.116 163.292 205.218 140.314 174.839 133.988C144.46 127.661 116.11 140.384 111.525 162.398L108.654 176.186C104.07 198.2 124.984 221.182 155.363 227.508C185.742 233.835 214.092 221.112 218.677 199.098L221.548 185.31L221.532 185.307Z" stroke="#0075FF" stroke-width="0.5" stroke-linejoin="round"/>
<path d="M158.235 213.72C188.617 220.047 216.963 207.328 221.548 185.31C226.133 163.293 205.221 140.315 174.839 133.988C144.457 127.661 116.111 140.38 111.525 162.398C106.94 184.416 127.853 207.393 158.235 213.72Z" fill="url(#paint13_linear_340_25292)" stroke="#0075FF" stroke-width="0.5" stroke-linejoin="round"/>
<path opacity="0.2" d="M128.668 200.337C136.582 206.551 146.717 211.34 158.227 213.737C188.26 219.991 216.277 207.629 221.35 186.077C169.646 145.868 136.137 145.002 128.668 200.337Z" fill="white"/>
<g style="mix-blend-mode:multiply" opacity="0.5">
<path d="M173.727 139.319C148.09 133.98 124.115 144.918 120.195 163.74C118.715 170.848 120.301 178.079 124.251 184.601C121.451 179.074 120.418 173.143 121.638 167.285C125.335 149.532 148.171 139.284 172.655 144.383C197.139 149.482 213.986 167.994 210.289 185.747C209.069 191.604 205.751 196.647 200.977 200.597C207.203 196.194 211.544 190.197 213.027 183.072C216.951 164.233 199.347 144.654 173.694 139.312L173.727 139.319Z" fill="url(#paint14_linear_340_25292)"/>
</g>
<path d="M173.727 139.319C148.09 133.98 124.115 144.918 120.195 163.74C118.715 170.848 120.301 178.079 124.251 184.601C121.451 179.074 120.418 173.143 121.638 167.285C125.335 149.532 148.171 139.284 172.655 144.383C197.139 149.482 213.986 167.994 210.289 185.747C209.069 191.604 205.751 196.647 200.977 200.597C207.203 196.194 211.544 190.197 213.027 183.072C216.951 164.233 199.347 144.654 173.694 139.312L173.727 139.319Z" stroke="#0075FF" stroke-width="0.5" stroke-linejoin="round"/>
<path d="M203.692 179.799C205.059 165.073 189.663 150.846 169.284 147.991C159.134 146.571 149.663 148.241 142.55 152.109L142.534 152.106C142.478 152.145 142.441 152.17 142.385 152.209C135.319 156.086 130.595 162.158 129.902 169.487C129.835 170.178 129.816 170.877 129.828 171.583C129.822 171.615 129.816 171.646 129.826 171.681C129.836 172.141 129.862 172.604 129.906 173.054C129.906 173.054 129.906 173.054 129.903 173.07C129.938 173.485 129.988 173.904 130.057 174.31C131.994 187.192 146.175 198.752 164.309 201.295C184.688 204.15 202.308 194.522 203.692 179.799V179.799ZM195.643 178.68C195.476 180.497 194.974 182.201 194.233 183.795C194.233 183.795 194.236 183.779 194.239 183.763C192.458 178.615 187.848 174.255 183.581 171.515C186.016 163.814 182.902 159.787 178.79 158.45C178.683 158.413 178.561 158.374 178.454 158.337C175.162 157.385 171.767 158.507 170.889 160.827C170.01 163.147 171.959 165.791 175.251 166.743C175.543 166.831 175.825 166.885 176.107 166.938C176.072 167.21 176.033 167.497 175.979 167.781C172.21 166.346 168.584 165.526 165.209 165.098C163.959 164.926 162.685 164.799 161.417 164.722C162.344 162.149 164.292 159.411 167.416 157.746C170.434 156.127 174.55 155.649 178.735 156.771C179.522 156.986 180.357 157.291 181.091 157.611C181.123 157.617 181.17 157.626 181.195 157.663C190.475 162.386 196.429 170.437 195.661 178.667L195.643 178.68ZM169.346 177.843C168.298 178.576 167.093 179.28 165.709 179.901C164.14 178.163 162.952 176.383 162.137 174.609C162.089 174.518 162.041 174.427 162.012 174.324C161.543 173.204 161.202 172.01 160.988 170.743C163.673 170.794 166.256 171.121 168.685 171.664C168.81 171.688 168.936 171.712 169.077 171.738C170.578 172.122 172.14 172.615 173.738 173.261C172.622 174.947 171.227 176.4 169.613 177.632C169.52 177.696 169.442 177.763 169.349 177.827L169.346 177.843ZM160.999 153.502C160.999 153.502 160.999 153.502 160.981 153.514C155.936 156.663 153.572 161.335 152.915 165.136C142.281 166.602 139.383 170.158 140.291 173.324C140.307 173.409 140.339 173.497 140.371 173.585C141.249 176.058 144.636 177.797 147.93 177.458C151.224 177.118 153.186 174.824 152.308 172.35C152.234 172.14 152.129 171.924 152.021 171.723C152.362 171.641 152.736 171.548 153.123 171.474C153.711 174.449 154.909 177.114 156.464 179.438C157.013 180.311 157.646 181.167 158.328 182.017C154.694 182.439 150.266 182.253 146.382 180.91C142.62 179.607 139.562 177.161 138.351 174.052C138.121 173.469 137.972 172.802 137.923 172.204C137.925 171.681 137.927 171.158 137.976 170.643C138.867 161.079 148.602 154.256 161.012 153.52L160.999 153.502ZM164.859 195.494C156.985 194.391 150.063 191.098 145.206 186.674C152.017 188.671 159.006 188.362 163.934 187.285C172.147 193.524 178.145 193.992 181.364 192.165C181.454 192.117 181.545 192.069 181.619 192.017C184.037 190.481 184.042 187.635 181.626 185.655C179.211 183.675 175.301 183.325 172.883 184.862C172.677 185.003 172.488 185.147 172.314 185.294C172.009 185.105 171.688 184.913 171.342 184.684C174.526 183.129 176.932 181.312 178.753 179.416C179.454 178.715 180.096 177.986 180.681 177.214C183.386 179.379 185.869 182.288 186.626 185.311C187.369 188.234 186.311 191.158 183.352 193.148C182.792 193.532 182.11 193.877 181.427 194.14C181.427 194.14 181.412 194.137 181.393 194.15C176.554 195.784 170.85 196.337 164.859 195.494V195.494Z" fill="white" stroke="#0075FF" stroke-width="0.5" stroke-linejoin="round"/>
<defs>
<linearGradient id="paint0_linear_340_25292" x1="65.9758" y1="133.017" x2="180.535" y2="133.017" gradientUnits="userSpaceOnUse">
<stop stop-color="#387CFF"/>
<stop offset="1" stop-color="#00D4FF"/>
</linearGradient>
<linearGradient id="paint1_linear_340_25292" x1="65.9758" y1="133.017" x2="180.535" y2="133.017" gradientUnits="userSpaceOnUse">
<stop stop-color="#387CFF"/>
<stop offset="1" stop-color="#00D4FF"/>
</linearGradient>
<linearGradient id="paint2_linear_340_25292" x1="92.7074" y1="95.7814" x2="175.513" y2="139.366" gradientUnits="userSpaceOnUse">
<stop stop-color="#E6C1FF"/>
<stop offset="0.40625" stop-color="#B6C7FF"/>
<stop offset="1" stop-color="#AFF1FF"/>
</linearGradient>
<linearGradient id="paint3_linear_340_25292" x1="65.9758" y1="125.495" x2="176.378" y2="125.495" gradientUnits="userSpaceOnUse">
<stop stop-color="#387CFF"/>
<stop offset="1" stop-color="#00D4FF"/>
</linearGradient>
<linearGradient id="paint4_linear_340_25292" x1="74.6873" y1="123.036" x2="167.899" y2="123.036" gradientUnits="userSpaceOnUse">
<stop stop-color="#387CFF"/>
<stop offset="1" stop-color="#00D4FF"/>
</linearGradient>
<linearGradient id="paint5_linear_340_25292" x1="179.304" y1="121.086" x2="261.313" y2="66.8759" gradientUnits="userSpaceOnUse">
<stop stop-color="#387CFF"/>
<stop offset="1" stop-color="#00D4FF"/>
</linearGradient>
<linearGradient id="paint6_linear_340_25292" x1="179.304" y1="121.086" x2="261.313" y2="66.8759" gradientUnits="userSpaceOnUse">
<stop stop-color="#387CFF"/>
<stop offset="1" stop-color="#00D4FF"/>
</linearGradient>
<linearGradient id="paint7_linear_340_25292" x1="150.829" y1="30.8414" x2="250.786" y2="112.859" gradientUnits="userSpaceOnUse">
<stop stop-color="#E6007A"/>
<stop offset="0.21" stop-color="#703AC2"/>
<stop offset="0.46" stop-color="#0070EB"/>
<stop offset="0.77" stop-color="#0297FB"/>
<stop offset="1" stop-color="#0AE2FF"/>
</linearGradient>
<linearGradient id="paint8_linear_340_25292" x1="194.684" y1="125.507" x2="249.876" y2="61.3368" gradientUnits="userSpaceOnUse">
<stop stop-color="#387CFF"/>
<stop offset="1" stop-color="#00D4FF"/>
</linearGradient>
<linearGradient id="paint9_linear_340_25292" x1="182.598" y1="115.093" x2="238.954" y2="77.8405" gradientUnits="userSpaceOnUse">
<stop stop-color="#387CFF"/>
<stop offset="1" stop-color="#00D4FF"/>
</linearGradient>
<linearGradient id="paint10_linear_340_25292" x1="105.491" y1="191.373" x2="212.925" y2="213.746" gradientUnits="userSpaceOnUse">
<stop stop-color="#387CFF"/>
<stop offset="1" stop-color="#00D4FF"/>
</linearGradient>
<linearGradient id="paint11_linear_340_25292" x1="105.491" y1="191.373" x2="212.925" y2="213.746" gradientUnits="userSpaceOnUse">
<stop stop-color="#387CFF"/>
<stop offset="1" stop-color="#00D4FF"/>
</linearGradient>
<linearGradient id="paint12_linear_340_25292" x1="94.0863" y1="206.017" x2="213.078" y2="214.041" gradientUnits="userSpaceOnUse">
<stop stop-color="#E6007A"/>
<stop offset="0.21" stop-color="#703AC2"/>
<stop offset="0.46" stop-color="#0070EB"/>
<stop offset="0.77" stop-color="#0297FB"/>
<stop offset="1" stop-color="#0AE2FF"/>
</linearGradient>
<linearGradient id="paint13_linear_340_25292" x1="107.605" y1="181.224" x2="215.039" y2="203.597" gradientUnits="userSpaceOnUse">
<stop stop-color="#387CFF"/>
<stop offset="1" stop-color="#00D4FF"/>
</linearGradient>
<linearGradient id="paint14_linear_340_25292" x1="119.125" y1="168.878" x2="209.773" y2="187.755" gradientUnits="userSpaceOnUse">
<stop stop-color="#387CFF"/>
<stop offset="1" stop-color="#00D4FF"/>
</linearGradient>
</defs>
</svg>
