<svg width="1540" height="198" viewBox="0 0 1540 198" fill="none" xmlns="http://www.w3.org/2000/svg">
<path d="M561.816 28.3861V47.1938H524.411V168.93H501.362V47.1938H463.747V28.3861H561.826H561.816Z" fill="black"/>
<path d="M706.93 140.215H648.082L637.975 168.93H613.909L664.266 28.1865H690.956L741.313 168.93H717.047L706.94 140.215H706.93ZM700.455 121.407L677.606 56.0938L654.558 121.407H700.465H700.455Z" fill="black"/>
<path d="M883.393 168.93L851.036 112.716H833.445V168.93H810.397V28.3861H858.928C869.714 28.3861 878.843 30.2719 886.326 34.0534C893.809 37.8249 899.397 42.8835 903.108 49.2193C906.81 55.555 908.666 62.6391 908.666 70.4515C908.666 79.6209 906.002 87.9422 900.674 95.4253C895.346 102.909 887.154 107.997 876.099 110.691L910.881 168.93H883.383H883.393ZM833.445 94.3078H858.928C867.548 94.3078 874.064 92.1527 878.444 87.8324C882.824 83.5221 885.019 77.7251 885.019 70.4415C885.019 63.1579 882.864 57.4707 878.544 53.35C874.223 49.2392 867.688 47.1838 858.928 47.1838H833.445V94.2979V94.3078Z" fill="black"/>
<path d="M1344.6 150.332H1392.12V168.94H1321.55V28.3861H1344.6V150.322V150.332Z" fill="black"/>
<path d="M1485.01 46.9942V88.2514H1533.54V107.059H1485.01V150.132H1539.61V168.94H1461.95V28.1865H1539.61V46.9942H1485.01Z" fill="black"/>
<path d="M385.792 50.1372C376.014 46.4255 365.468 44.6595 355.5 44.6595C343.188 44.6595 330.287 48.9598 330.287 62.8386C330.287 73.784 337.91 79.2617 358.044 87.4632C382.669 97.4308 397.336 107.398 397.336 130.467C397.336 158.224 373.29 170.337 348.077 170.337C335.565 170.337 319.731 167.992 306.251 162.514L310.94 143.557C323.642 149.224 337.331 151.769 347.688 151.769C363.911 151.769 374.657 145.323 374.657 132.023C374.657 119.9 364.101 113.654 344.166 105.632C321.098 96.2535 307.418 84.7194 307.418 64.7842C307.418 37.4158 332.243 26.0813 354.722 26.0813C367.623 26.0813 380.135 27.8373 390.292 31.559L385.792 50.1272V50.1372Z" fill="black"/>
<path d="M1075.04 28.3861V47.1938H1037.64V168.93H1014.59V47.1938H976.973V28.3861H1075.05H1075.04Z" fill="black"/>
<path d="M1220.16 140.215H1161.31L1151.2 168.93H1127.13L1177.49 28.1865H1204.18L1254.54 168.93H1230.27L1220.17 140.215H1220.16ZM1213.69 121.407L1190.84 56.0938L1167.79 121.407H1213.7H1213.69Z" fill="black"/>
<path d="M168.999 69.9997L140.002 98.9966L168.999 127.993L197.996 98.9966L168.999 69.9997Z" fill="black"/>
<path d="M28.9925 70.0009L-0.00439453 98.9978L28.9925 127.995L57.9893 98.9978L28.9925 70.0009Z" fill="black"/>
<path d="M98.9954 -0.00272611L69.9985 28.9941L98.9954 57.991L127.992 28.9941L98.9954 -0.00272611Z" fill="black"/>
<path d="M98.9964 140.004L69.9995 169L98.9964 197.997L127.993 169L98.9964 140.004Z" fill="black"/>
<path d="M168.999 28.9948H127.992V70.0025H168.999V28.9948Z" fill="black"/>
<path d="M70.0024 28.9948H28.9946V70.0025H70.0024V28.9948Z" fill="black"/>
<path d="M168.999 127.992H127.992V169H168.999V127.992Z" fill="black"/>
<path d="M70.0024 127.992H28.9946V169H70.0024V127.992Z" fill="black"/>
</svg>
