<svg width="427" height="88" viewBox="0 0 427 88" fill="none" xmlns="http://www.w3.org/2000/svg">
<path d="M129.858 28.9475L130.107 39.1631H129.179C128.742 36.6017 127.665 34.545 125.948 32.993C124.245 31.4261 122.4 30.6426 120.411 30.6426C118.874 30.6426 117.654 31.0569 116.75 31.8857C115.861 32.6993 115.417 33.641 115.417 34.7108C115.417 35.3888 115.575 35.9914 115.892 36.5188C116.327 37.227 117.029 37.9276 117.992 38.6207C118.7 39.1179 120.336 39.9994 122.897 41.2651C126.482 43.0279 128.901 44.6929 130.152 46.2598C131.386 47.8269 132.005 49.6199 132.005 51.6389C132.005 54.2004 131.003 56.4077 128.999 58.2609C127.01 60.0992 124.479 61.0183 121.405 61.0183C120.441 61.0183 119.529 60.9203 118.671 60.7244C117.812 60.5286 116.735 60.1594 115.439 59.617C114.716 59.3157 114.12 59.165 113.654 59.165C113.262 59.165 112.848 59.3157 112.411 59.617C111.974 59.9184 111.62 60.3779 111.349 60.9957H110.513V49.424H111.349C112.012 52.6785 113.285 55.1647 115.168 56.8823C117.066 58.5849 119.108 59.4362 121.293 59.4362C122.98 59.4362 124.321 58.9767 125.315 58.0576C126.324 57.1384 126.83 56.0687 126.83 54.8482C126.83 54.125 126.634 53.4243 126.241 52.7464C125.865 52.0683 125.285 51.428 124.502 50.8253C123.718 50.2075 122.331 49.4089 120.343 48.4296C117.555 47.0584 115.552 45.8907 114.332 44.9264C113.111 43.9621 112.17 42.8847 111.507 41.6945C110.859 40.5041 110.535 39.1932 110.535 37.7619C110.535 35.321 111.431 33.2417 113.224 31.5241C115.018 29.8063 117.277 28.9475 120.004 28.9475C120.998 28.9475 121.963 29.068 122.897 29.3091C123.605 29.4899 124.464 29.829 125.473 30.3261C126.498 30.8083 127.214 31.0494 127.621 31.0494C128.012 31.0494 128.321 30.9288 128.547 30.6878C128.772 30.4467 128.984 29.8666 129.179 28.9475H129.858Z" fill="url(#paint0_linear_340_25193)"/>
<path d="M144.148 31.4336V39.1631H149.165V41.4006H144.148V54.4414C144.148 55.6618 144.201 56.4529 144.306 56.8145C144.427 57.161 144.63 57.4474 144.917 57.6733C145.202 57.8843 145.467 57.9898 145.708 57.9898C146.687 57.9898 147.613 57.244 148.487 55.7523L149.165 56.2494C147.945 59.1424 145.963 60.5889 143.222 60.5889C141.881 60.5889 140.743 60.2198 139.809 59.4815C138.89 58.7281 138.302 57.8918 138.047 56.9727C137.895 56.4605 137.82 55.0742 137.82 52.8141V41.4006H135.063V40.6096C136.961 39.2686 138.573 37.8598 139.9 36.3832C141.24 34.9067 142.408 33.2568 143.402 31.4336H144.148Z" fill="url(#paint1_linear_340_25193)"/>
<path d="M163.161 57.1765C160.585 59.4518 158.272 60.5894 156.224 60.5894C155.018 60.5894 154.015 60.1976 153.218 59.414C152.419 58.6155 152.02 57.6211 152.02 56.4307C152.02 54.8186 152.712 53.3721 154.098 52.0913C155.484 50.7955 158.506 49.0779 163.161 46.9383V44.8138C163.161 43.2167 163.07 42.2148 162.89 41.8079C162.724 41.386 162.4 41.0244 161.918 40.7231C161.436 40.4066 160.893 40.2484 160.291 40.2484C159.311 40.2484 158.506 40.4669 157.873 40.9039C157.481 41.1751 157.286 41.4915 157.286 41.8531C157.286 42.1695 157.496 42.5612 157.918 43.0284C158.49 43.6762 158.777 44.3016 158.777 44.9042C158.777 45.6425 158.498 46.2753 157.94 46.8027C157.398 47.315 156.683 47.5711 155.793 47.5711C154.844 47.5711 154.046 47.2849 153.398 46.7124C152.765 46.1398 152.449 45.4693 152.449 44.7008C152.449 43.616 152.878 42.5839 153.737 41.6045C154.596 40.61 155.793 39.8492 157.33 39.3218C158.868 38.7944 160.464 38.5308 162.121 38.5308C164.125 38.5308 165.707 38.9602 166.867 39.819C168.042 40.6627 168.803 41.5819 169.15 42.5764C169.361 43.2092 169.466 44.6632 169.466 46.9383V55.1425C169.466 56.1068 169.504 56.717 169.579 56.9731C169.654 57.2143 169.768 57.3951 169.918 57.5156C170.069 57.6361 170.243 57.6964 170.438 57.6964C170.83 57.6964 171.229 57.4177 171.635 56.8602L172.314 57.4026C171.56 58.5176 170.777 59.3312 169.964 59.8435C169.165 60.3407 168.253 60.5894 167.229 60.5894C166.023 60.5894 165.082 60.3106 164.404 59.7531C163.726 59.1805 163.312 58.3217 163.161 57.1765ZM163.161 55.5267V48.4526C161.338 49.5224 159.982 50.6675 159.093 51.8879C158.506 52.7016 158.212 53.5228 158.212 54.3514C158.212 55.0445 158.46 55.6547 158.957 56.1821C159.334 56.5889 159.861 56.7923 160.539 56.7923C161.293 56.7923 162.167 56.3705 163.161 55.5267Z" fill="url(#paint2_linear_340_25193)"/>
<path d="M183.734 39.1635V43.955C185.135 41.7702 186.362 40.3238 187.418 39.6156C188.472 38.8924 189.489 38.5308 190.469 38.5308C191.312 38.5308 191.982 38.7944 192.48 39.3218C192.992 39.8341 193.248 40.5649 193.248 41.5141C193.248 42.5236 192.999 43.3071 192.502 43.8645C192.02 44.422 191.432 44.7008 190.74 44.7008C189.941 44.7008 189.247 44.4446 188.66 43.9324C188.073 43.4201 187.726 43.1339 187.621 43.0735C187.47 42.9832 187.297 42.9379 187.101 42.9379C186.664 42.9379 186.249 43.1037 185.858 43.4352C185.24 43.9475 184.774 44.6783 184.457 45.6275C183.975 47.089 183.734 48.7012 183.734 50.4641V55.3233L183.756 56.5889C183.756 57.4478 183.809 57.9978 183.914 58.2388C184.095 58.6456 184.359 58.947 184.705 59.1429C185.067 59.3237 185.67 59.4366 186.514 59.4819V60.2955H175.101V59.4819C176.019 59.4065 176.638 59.1579 176.954 58.7361C177.285 58.299 177.451 57.1615 177.451 55.3233V43.6386C177.451 42.4332 177.391 41.6648 177.271 41.3333C177.119 40.9114 176.901 40.6025 176.615 40.4066C176.329 40.2108 175.823 40.0751 175.101 39.9998V39.1635H183.734Z" fill="url(#paint3_linear_340_25193)"/>
<path d="M204.239 31.4336V39.1631H209.257V41.4006H204.239V54.4414C204.239 55.6618 204.293 56.4529 204.398 56.8145C204.518 57.161 204.722 57.4474 205.007 57.6733C205.294 57.8843 205.558 57.9898 205.798 57.9898C206.778 57.9898 207.704 57.244 208.578 55.7523L209.257 56.2494C208.036 59.1424 206.055 60.5889 203.312 60.5889C201.971 60.5889 200.834 60.2198 199.9 59.4815C198.981 58.7281 198.394 57.8918 198.137 56.9727C197.987 56.4605 197.911 55.0742 197.911 52.8141V41.4006H195.154V40.6096C197.053 39.2686 198.665 37.8598 199.99 36.3832C201.332 34.9067 202.499 33.2568 203.494 31.4336H204.239Z" fill="url(#paint4_linear_340_25193)"/>
<path d="M223.255 57.1765C220.678 59.4518 218.365 60.5894 216.316 60.5894C215.111 60.5894 214.109 60.1976 213.31 59.414C212.512 58.6155 212.113 57.6211 212.113 56.4307C212.113 54.8186 212.806 53.3721 214.192 52.0913C215.578 50.7955 218.598 49.0779 223.255 46.9383V44.8138C223.255 43.2167 223.164 42.2148 222.982 41.8079C222.818 41.386 222.494 41.0244 222.011 40.7231C221.529 40.4066 220.987 40.2484 220.384 40.2484C219.405 40.2484 218.598 40.4669 217.965 40.9039C217.574 41.1751 217.378 41.4915 217.378 41.8531C217.378 42.1695 217.589 42.5612 218.011 43.0284C218.584 43.6762 218.87 44.3016 218.87 44.9042C218.87 45.6425 218.592 46.2753 218.034 46.8027C217.491 47.315 216.776 47.5711 215.887 47.5711C214.937 47.5711 214.139 47.2849 213.491 46.7124C212.859 46.1398 212.542 45.4693 212.542 44.7008C212.542 43.616 212.972 42.5839 213.83 41.6045C214.689 40.61 215.887 39.8492 217.423 39.3218C218.96 38.7944 220.557 38.5308 222.215 38.5308C224.218 38.5308 225.8 38.9602 226.961 39.819C228.136 40.6627 228.897 41.5819 229.243 42.5764C229.454 43.2092 229.559 44.6632 229.559 46.9383V55.1425C229.559 56.1068 229.597 56.717 229.672 56.9731C229.748 57.2143 229.86 57.3951 230.011 57.5156C230.162 57.6361 230.335 57.6964 230.531 57.6964C230.922 57.6964 231.322 57.4177 231.729 56.8602L232.407 57.4026C231.654 58.5176 230.87 59.3312 230.056 59.8435C229.259 60.3407 228.347 60.5894 227.323 60.5894C226.117 60.5894 225.175 60.3106 224.497 59.7531C223.819 59.1805 223.405 58.3217 223.255 57.1765ZM223.255 55.5267V48.4526C221.431 49.5224 220.075 50.6675 219.187 51.8879C218.598 52.7016 218.305 53.5228 218.305 54.3514C218.305 55.0445 218.554 55.6547 219.051 56.1821C219.427 56.5889 219.955 56.7923 220.633 56.7923C221.386 56.7923 222.26 56.3705 223.255 55.5267Z" fill="url(#paint5_linear_340_25193)"/>
<path d="M243.33 29.6484V55.9108C243.33 57.4024 243.503 58.3592 243.849 58.7811C244.196 59.1879 244.874 59.4214 245.884 59.4817V60.2953H234.471V59.4817C235.405 59.4516 236.098 59.1803 236.55 58.668C236.851 58.3216 237.003 57.4024 237.003 55.9108V34.033C237.003 32.5564 236.829 31.6147 236.483 31.2079C236.135 30.786 235.465 30.5449 234.471 30.4846V29.6484H243.33Z" fill="url(#paint6_linear_340_25193)"/>
<path d="M266.162 48.9725H254.569C254.704 51.775 255.45 53.9898 256.806 55.6171C257.846 56.8677 259.096 57.493 260.557 57.493C261.461 57.493 262.282 57.2444 263.021 56.7471C263.759 56.2348 264.55 55.3233 265.394 54.0125L266.162 54.5096C265.017 56.8451 263.751 58.5024 262.365 59.4819C260.979 60.4462 259.375 60.9283 257.551 60.9283C254.418 60.9283 252.045 59.7229 250.434 57.3122C249.137 55.3685 248.49 52.9577 248.49 50.0799C248.49 46.5541 249.439 43.7516 251.337 41.6723C253.25 39.578 255.488 38.5308 258.049 38.5308C260.189 38.5308 262.042 39.4122 263.609 41.1751C265.191 42.9228 266.041 45.522 266.162 48.9725ZM260.603 47.4582C260.603 45.0323 260.467 43.3674 260.196 42.4633C259.94 41.5593 259.533 40.8737 258.975 40.4066C258.659 40.1355 258.237 39.9998 257.71 39.9998C256.926 39.9998 256.286 40.3841 255.789 41.1525C254.9 42.4935 254.456 44.3317 254.456 46.6671V47.4582H260.603Z" fill="url(#paint7_linear_340_25193)"/>
<path d="M308.71 49.5373L307.557 60.2953H280.347V59.4591H281.365C282.254 59.4591 282.969 59.3009 283.511 58.9845C283.903 58.7735 284.205 58.4119 284.415 57.8996C284.581 57.538 284.664 56.5887 284.664 55.0519V34.8919C284.664 33.3248 284.581 32.3454 284.415 31.9537C284.249 31.562 283.911 31.2229 283.399 30.9366C282.902 30.6353 282.224 30.4846 281.365 30.4846H280.347V29.6484H296.688V30.4846H295.353C294.465 30.4846 293.749 30.6428 293.207 30.9593C292.815 31.1702 292.506 31.5318 292.28 32.0441C292.114 32.4057 292.031 33.3549 292.031 34.8919V54.4191C292.031 55.9861 292.122 56.988 292.303 57.425C292.484 57.8469 292.838 58.1633 293.365 58.3743C293.741 58.5099 294.653 58.5777 296.099 58.5777H298.653C300.281 58.5777 301.636 58.2913 302.721 57.7188C303.806 57.1462 304.74 56.2422 305.524 55.0067C306.322 53.7711 307.076 51.9481 307.784 49.5373H308.71Z" fill="url(#paint8_linear_340_25193)"/>
<path d="M323.117 57.1765C320.541 59.4518 318.228 60.5894 316.179 60.5894C314.973 60.5894 313.972 60.1976 313.173 59.414C312.375 58.6155 311.975 57.6211 311.975 56.4307C311.975 54.8186 312.669 53.3721 314.055 52.0913C315.441 50.7955 318.462 49.0779 323.117 46.9383V44.8138C323.117 43.2167 323.027 42.2148 322.846 41.8079C322.68 41.386 322.357 41.0244 321.875 40.7231C321.392 40.4066 320.85 40.2484 320.247 40.2484C319.268 40.2484 318.462 40.4669 317.829 40.9039C317.437 41.1751 317.241 41.4915 317.241 41.8531C317.241 42.1695 317.453 42.5612 317.874 43.0284C318.447 43.6762 318.733 44.3016 318.733 44.9042C318.733 45.6425 318.454 46.2753 317.896 46.8027C317.354 47.315 316.638 47.5711 315.75 47.5711C314.801 47.5711 314.002 47.2849 313.354 46.7124C312.722 46.1398 312.406 45.4693 312.406 44.7008C312.406 43.616 312.835 42.5839 313.693 41.6045C314.552 40.61 315.75 39.8492 317.287 39.3218C318.823 38.7944 320.421 38.5308 322.078 38.5308C324.082 38.5308 325.664 38.9602 326.823 39.819C327.999 40.6627 328.759 41.5819 329.107 42.5764C329.317 43.2092 329.423 44.6632 329.423 46.9383V55.1425C329.423 56.1068 329.461 56.717 329.536 56.9731C329.611 57.2143 329.724 57.3951 329.874 57.5156C330.025 57.6361 330.198 57.6964 330.394 57.6964C330.786 57.6964 331.185 57.4177 331.592 56.8602L332.271 57.4026C331.517 58.5176 330.733 59.3312 329.92 59.8435C329.121 60.3407 328.209 60.5894 327.185 60.5894C325.98 60.5894 325.039 60.3106 324.36 59.7531C323.682 59.1805 323.267 58.3217 323.117 57.1765ZM323.117 55.5267V48.4526C321.294 49.5224 319.939 50.6675 319.049 51.8879C318.462 52.7016 318.168 53.5228 318.168 54.3514C318.168 55.0445 318.416 55.6547 318.914 56.1821C319.29 56.5889 319.818 56.7923 320.496 56.7923C321.25 56.7923 322.122 56.3705 323.117 55.5267Z" fill="url(#paint9_linear_340_25193)"/>
<path d="M342.316 29.6484V41.2879C344.094 39.4497 346.038 38.5306 348.148 38.5306C349.593 38.5306 350.956 38.96 352.238 39.8189C353.519 40.6626 354.52 41.868 355.243 43.435C355.967 45.0019 356.328 46.8101 356.328 48.8592C356.328 51.1645 355.868 53.2589 354.949 55.1423C354.031 57.0258 352.803 58.4646 351.266 59.4591C349.728 60.4385 347.974 60.9281 346 60.9281C344.855 60.9281 343.838 60.7473 342.949 60.3858C342.061 60.0242 341.187 59.4364 340.327 58.6228L336.824 60.9055H336.057V34.033C336.057 32.8125 336.004 32.0591 335.899 31.7729C335.747 31.351 335.507 31.0421 335.175 30.8462C334.859 30.6353 334.316 30.5147 333.548 30.4846V29.6484H342.316ZM342.316 43.2993V52.7014C342.316 54.615 342.362 55.8354 342.452 56.3627C342.603 57.2517 342.964 57.975 343.536 58.5325C344.11 59.0749 344.84 59.3461 345.729 59.3461C346.497 59.3461 347.153 59.1276 347.695 58.6906C348.253 58.2537 348.712 57.3874 349.074 56.0916C349.451 54.7958 349.639 52.4603 349.639 49.0852C349.639 45.8458 349.232 43.6233 348.419 42.418C347.831 41.544 347.04 41.1071 346.046 41.1071C344.75 41.1071 343.507 41.8379 342.316 43.2993Z" fill="url(#paint10_linear_340_25193)"/>
<path d="M372.791 38.5759L373.13 45.7857H372.361C371.443 43.6461 370.486 42.1845 369.492 41.4011C368.513 40.6176 367.533 40.2258 366.553 40.2258C365.936 40.2258 365.408 40.4368 364.971 40.8586C364.534 41.2655 364.316 41.7401 364.316 42.2825C364.316 42.6893 364.467 43.0811 364.769 43.4577C365.25 44.0756 366.599 45.1378 368.813 46.6445C371.028 48.1362 372.482 49.4094 373.176 50.4641C373.884 51.5037 374.238 52.6714 374.238 53.9672C374.238 55.1425 373.943 56.2952 373.356 57.4252C372.768 58.5553 371.94 59.4216 370.87 60.0243C369.8 60.627 368.618 60.9283 367.322 60.9283C366.312 60.9283 364.965 60.6119 363.276 59.9791C362.825 59.8133 362.516 59.7305 362.35 59.7305C361.853 59.7305 361.439 60.1072 361.107 60.8605H360.361L359.999 53.2667H360.768C361.447 55.2555 362.372 56.7471 363.547 57.7416C364.738 58.7361 365.861 59.2332 366.915 59.2332C367.639 59.2332 368.226 59.0148 368.678 58.5778C369.145 58.1258 369.379 57.5834 369.379 56.9505C369.379 56.2273 369.153 55.602 368.701 55.0747C368.248 54.5473 367.239 53.7487 365.673 52.6789C363.367 51.0819 361.876 49.8613 361.198 49.0176C360.203 47.7821 359.706 46.4185 359.706 44.9268C359.706 43.2995 360.264 41.8305 361.378 40.5197C362.509 39.1937 364.136 38.5308 366.26 38.5308C367.405 38.5308 368.513 38.8095 369.582 39.3669C369.988 39.593 370.32 39.706 370.577 39.706C370.848 39.706 371.066 39.6533 371.232 39.5478C371.398 39.4273 371.661 39.1033 372.023 38.5759H372.791Z" fill="url(#paint11_linear_340_25193)"/>
<mask id="mask0_340_25193" style="mask-type:luminance" maskUnits="userSpaceOnUse" x="0" y="0" width="88" height="88">
<path d="M87.994 0H0V88H87.994V0Z" fill="white"/>
</mask>
<g mask="url(#mask0_340_25193)">
<path fill-rule="evenodd" clip-rule="evenodd" d="M82.7879 24.4841C79.6097 18.1533 75.0161 12.8589 69.5252 8.87856C62.1875 3.55513 53.2578 0.579346 44.0011 0.579346V7.80751C49.6484 7.80172 55.258 9.1304 60.4334 11.7675C62.1382 12.636 63.7534 13.626 65.2731 14.7259C68.4137 16.9954 71.1403 19.7367 73.3778 22.8543L82.785 24.4812H82.7879V24.4841ZM85.2946 30.5949C88.2441 39.6698 88.0415 49.0083 85.2946 57.432C83.1584 63.9856 79.4824 69.9807 74.55 74.8699L73.1896 65.4041C74.3272 63.8467 75.3519 62.188 76.2433 60.4367C77.1118 58.7317 77.8354 56.9804 78.4201 55.1973C80.7878 47.9691 80.8138 40.2025 78.4172 32.8296L85.2946 30.5949ZM55.1885 78.4217C51.5182 79.6144 47.7495 80.2049 44.0011 80.2078C40.1745 80.2106 36.3624 79.5999 32.695 78.3811L24.1185 82.5988C30.1942 85.7309 37.0049 87.4359 44.0011 87.4359C48.4471 87.4359 52.9684 86.7499 57.4259 85.3025C61.8778 83.8551 65.9359 81.7564 69.528 79.1454L65.2788 73.298C62.2453 75.4951 58.853 77.2291 55.1885 78.4217ZM7.81067 43.8759C7.79909 47.6681 8.38958 51.4804 9.59661 55.1914C11.9933 62.5585 16.5753 68.8257 22.7349 73.2835L18.4857 79.1338C11.3159 73.9319 5.66292 66.4983 2.71628 57.4261C0.499069 50.6091 0.0648879 43.6386 1.15034 37.0212L7.81067 43.8759ZM22.7263 14.7259C18.1587 18.0404 14.4073 22.4086 11.7704 27.5815C10.8992 29.2894 10.1756 31.0436 9.59081 32.8296L2.71339 30.5949C5.52109 21.9773 10.9889 14.3178 18.4771 8.87856C22.0721 6.26461 26.1332 4.16014 30.5907 2.71277C32.8542 1.97751 35.1322 1.44198 37.4102 1.08882L32.941 9.56172L32.8282 9.59645C29.1579 10.7891 25.7627 12.523 22.7263 14.7259Z" fill="url(#paint12_linear_340_25193)"/>
<path d="M85.1145 30.9571C87.8644 39.6095 87.8325 48.7249 85.0248 57.3425C82.961 63.6734 79.418 69.5063 74.7578 74.2536L73.4959 65.4797C74.6247 63.9223 75.6378 62.2723 76.5032 60.5702C77.3658 58.8768 78.104 57.0994 78.6974 55.2903C81.0709 48.0388 81.0998 40.3418 78.7812 33.0181L85.0567 30.7921M85.2998 30.5952L78.4166 32.8328C80.8132 40.2057 80.7872 47.9723 78.4195 55.2005C77.8348 56.9837 77.1112 58.735 76.2428 60.4399C75.3513 62.1912 74.3266 63.85 73.1891 65.4073L74.5495 74.8731C79.4818 69.9838 83.1578 63.9889 85.294 57.4352C88.0409 49.0086 88.2435 39.6702 85.294 30.5952H85.2998Z" fill="#2A3039"/>
<path d="M65.2155 73.7032L69.2649 78.9833C65.6727 81.5537 61.5654 83.6554 57.3365 85.0303C53.0092 86.4372 48.5226 87.1493 44.0014 87.1493C37.3728 87.1493 30.7357 85.5803 24.7671 82.6045L32.7155 78.6966C36.3655 79.8922 40.1517 80.5001 43.9695 80.5001H44.0014C47.8164 80.4972 51.6111 79.8893 55.2785 78.6995C58.8503 77.5388 62.1906 75.8598 65.2155 73.7061M65.2791 73.3037C62.2456 75.5009 58.8532 77.2348 55.1888 78.4274C51.5185 79.6201 47.7498 80.2107 44.0014 80.2135H43.9695C40.1517 80.2135 36.354 79.5998 32.6924 78.3869L24.1158 82.6045C30.1915 85.7366 36.9995 87.4417 43.9985 87.4417C48.4445 87.4417 52.9658 86.7556 57.4233 85.3083C61.8751 83.8609 65.9333 81.7622 69.5254 79.1511L65.2762 73.3037H65.2791Z" fill="#2A3039"/>
<path d="M1.34741 37.6379L7.52436 43.9917C7.52436 47.8099 8.13221 51.6049 9.32477 55.2784C11.7012 62.5904 16.1964 68.8315 22.3328 73.3472L18.5525 78.8212C11.2612 73.4573 5.79921 65.9744 2.99151 57.3365C0.898757 50.8986 0.345901 44.2754 1.34741 37.6379ZM1.15059 37.0212C0.0651319 43.6386 0.499313 50.6091 2.71653 57.4263C5.66317 66.4983 11.3162 73.932 18.4859 79.1339L22.7352 73.2836C16.5756 68.8257 11.9936 62.5585 9.59685 55.1886C8.38983 51.4775 7.79934 47.6652 7.81092 43.873L1.15059 37.0212Z" fill="#2A3039"/>
<path d="M44.1169 0.869066C48.5687 0.898009 53.1508 1.61591 57.4 3.00828C61.6839 4.41222 65.7073 6.4646 69.3545 9.11039C74.7469 13.0212 79.2017 18.1941 82.2669 24.0993L73.5457 22.5912C71.2909 19.4735 68.5642 16.7496 65.4439 14.4946C63.9011 13.3772 62.2599 12.3757 60.5666 11.513C55.4404 8.90196 49.9669 7.5588 44.2906 7.52117L44.1169 0.869066ZM44.0157 0.57959H44.0012V7.80775H44.0475C49.6802 7.80775 55.2725 9.13644 60.4364 11.7677C62.1412 12.6362 63.7564 13.6262 65.2761 14.7261C68.4166 16.9956 71.1432 19.7369 73.3807 22.8546L82.788 24.4814C79.6098 18.1507 75.0162 12.8562 69.5253 8.87591C62.1905 3.56117 53.2667 0.57959 44.0157 0.57959Z" fill="#2A3039"/>
<path d="M36.8827 1.4654L32.7406 9.31882H32.7377C29.0703 10.5114 25.6432 12.2512 22.5547 14.4917C17.88 17.8814 14.1635 22.241 11.5121 27.4485C10.69 29.061 9.98372 30.7456 9.40771 32.4652L3.02814 30.572C4.42332 26.3862 6.49001 22.2901 9.07484 18.7152C11.7494 15.0157 14.9681 11.7851 18.6471 9.1133C22.3058 6.45593 26.3523 4.39487 30.6796 2.98803C32.7029 2.33093 34.787 1.81855 36.8827 1.4654ZM37.4095 1.08618C35.1315 1.43935 32.8535 1.97487 30.5899 2.71013C26.1324 4.1575 22.0713 6.26197 18.4763 8.87593C10.9881 14.318 5.52034 21.9775 2.71265 30.5952L9.59007 32.8299C10.1748 31.0438 10.8984 29.2896 11.7696 27.5817C14.4066 22.4088 18.1579 18.0407 22.7255 14.7261C25.7619 12.5233 29.1571 10.7894 32.8274 9.59672C32.865 9.58514 32.9026 9.57355 32.9404 9.56197L37.4095 1.08908V1.08618Z" fill="#2A3039"/>
<path d="M85.3414 57.5243L78.4639 55.2896C77.8792 57.0728 77.1556 58.8241 76.2873 60.5291C75.3957 62.2804 74.371 63.9391 73.2335 65.4964L74.5939 74.9622C79.5262 70.073 83.2022 64.078 85.3384 57.5243H85.3414Z" fill="url(#paint13_linear_340_25193)"/>
<path d="M44.0013 87.4388V80.2106C40.1747 80.2135 36.3626 79.6028 32.6952 78.384L24.1188 82.6017C30.1944 85.7338 37.0053 87.4388 44.0013 87.4388Z" fill="url(#paint14_linear_340_25193)"/>
<path d="M2.71653 57.4263L9.59975 55.1886C8.39272 51.4775 7.80223 47.6652 7.81382 43.873L1.15059 37.0212C0.065132 43.6386 0.499313 50.6091 2.71653 57.4263Z" fill="url(#paint15_linear_340_25193)"/>
<path d="M69.5252 8.87842L65.276 14.7286C68.4166 16.9981 71.1432 19.7394 73.3807 22.8571L82.788 24.484C79.6098 18.1532 75.0161 12.8587 69.5252 8.87842Z" fill="url(#paint16_linear_340_25193)"/>
<path d="M30.5914 2.71331C26.1339 4.16068 22.0728 6.26515 18.4778 8.87909L22.727 14.7265C25.7634 12.5235 29.1586 10.7896 32.8289 9.59699C32.8665 9.58541 32.9041 9.57384 32.9418 9.56226L37.4109 1.08936C35.1329 1.44251 32.8549 1.97804 30.5914 2.71331Z" fill="url(#paint17_linear_340_25193)"/>
<path d="M65.4585 50.9827L65.5888 50.8496L85.2629 30.6038L57.4464 25.7899L57.2612 25.758L57.1743 25.593L44.0013 0.623047L30.8282 25.593L30.7413 25.758L30.5561 25.7899L2.73962 30.6038L22.4138 50.8496L22.5441 50.9827L22.5181 51.1681L18.5004 79.1139L43.8334 66.6578L44.0013 66.5738L44.1691 66.6549L69.5021 79.111L65.4846 51.1681L65.4585 50.9827ZM47.0724 59.4991L46.9161 59.421L44.1779 58.0778L41.4425 59.4239L41.2833 59.502L28.2173 65.9283L30.2927 51.5038L30.3159 51.3302L30.7443 48.3196L28.6284 46.1341L28.4981 46.0009L18.3498 35.5596L32.6952 33.076L32.866 33.0471L35.8763 32.526L37.3004 29.8251L37.3815 29.6717L44.1749 16.793L50.9684 29.6717L51.0495 29.8251L52.4736 32.526L55.4839 33.0471L55.6547 33.076L70.003 35.5596L59.8547 46.0009L59.7331 46.1254L57.6056 48.3167L58.0398 51.3388L58.0658 51.5097L60.1384 65.9226L47.0666 59.4933L47.0724 59.4991Z" fill="url(#paint18_linear_340_25193)"/>
<path d="M58.3114 47.5959L47.2803 44.0122L68.4944 37.1169L70.0083 35.5595L67.8692 35.1889L46.6522 42.0843L53.4717 32.6995L52.4789 32.5287L51.8943 31.42L45.0139 40.8917V18.3763L44.1774 16.793L42.9877 19.0508V40.8917L36.3129 31.7037L35.8758 32.5287L34.5704 32.7545L41.3494 42.0843L20.257 35.2295L18.3494 35.5595L20.0253 37.2877L40.7213 44.0122L29.9565 47.5089L30.7409 48.3196L30.5817 49.4369L41.3465 45.94L28.5585 63.5458L28.214 65.9282L29.9508 65.0743L42.9877 47.1297V58.6624L44.1744 58.0805L45.0139 58.4916V47.1297L57.8512 64.8021L60.1437 65.9282L59.8861 64.1537L46.6522 45.94L57.7875 49.5556L57.611 48.3196L58.3114 47.5959Z" fill="url(#paint19_radial_340_25193)"/>
<path d="M30.7408 25.7578L30.5556 25.7896L11.9784 29.0057L18.3493 35.5593L32.6947 33.0785L32.8655 33.0468L35.6818 32.5633L30.7408 25.7578Z" fill="url(#paint20_linear_340_25193)"/>
<path d="M28.2489 65.6933L30.2896 51.5033L30.3127 51.3296L30.7411 48.3191L22.5438 50.9822L22.5177 51.1675L19.7997 70.0672L28.0028 66.032L28.2489 65.6933Z" fill="url(#paint21_linear_340_25193)"/>
<path d="M59.7996 65.7604L47.0695 59.4989L46.9131 59.4209L44.1749 58.0806L44.0012 58.1645V66.5737L44.169 66.6548L61.4697 75.1625L60.1961 66.3046L59.7996 65.7604Z" fill="url(#paint22_linear_340_25193)"/>
<path d="M70.0085 35.6609L59.8602 46.1022L59.7386 46.2267L57.6112 48.418L57.6286 48.5367L65.4582 51.0812L65.5886 50.9481L78.941 37.2067L70.0085 35.6609Z" fill="url(#paint23_linear_340_25193)"/>
<path d="M57.1744 25.691L48.3547 8.97388L44.1808 16.891L50.9743 29.7697L51.0553 29.9231L52.4216 32.5168L57.2612 25.856L57.1744 25.691Z" fill="url(#paint24_linear_340_25193)"/>
<path d="M18.2651 35.684L11.764 29.0377L12.1085 28.9827L18.4736 35.4814L18.2651 35.684Z" fill="url(#paint25_linear_340_25193)"/>
<path d="M19.7775 70.2295L19.8237 69.8966L28.0818 65.8352L28.0674 66.1624L19.7775 70.2295Z" fill="url(#paint26_linear_340_25193)"/>
<path d="M61.3276 75.09L60.0078 66.0237L60.3262 66.177L61.6316 75.2405L61.3276 75.09Z" fill="url(#paint27_linear_340_25193)"/>
<path d="M78.8135 37.2381L69.9823 35.7038L70.0314 35.4202L79.0624 36.9891L78.8135 37.2381Z" fill="url(#paint28_linear_340_25193)"/>
<path d="M44.3081 16.8593L44.0504 16.7261L48.2706 8.71924L48.4386 9.02319L44.3081 16.8593Z" fill="url(#paint29_linear_340_25193)"/>
<path d="M60.3266 66.1771L44.178 58.2397L28.0352 66.1771L30.5911 48.3687L28.397 46.1021L18.0577 35.464L35.7867 32.3984L44.1838 16.4832L52.5779 32.3984L70.3071 35.4668L57.765 48.3716L60.3266 66.1829V66.1771ZM18.6453 35.655L30.8979 48.2703L30.4348 51.5239L28.3999 65.6763L44.178 57.9184L47.1362 59.3687L59.9619 65.6763L57.4582 48.2674L69.7165 35.655L52.3869 32.656L50.847 29.7381L44.181 17.1027L35.9749 32.6589L18.6482 35.655H18.6453Z" fill="#3B424C"/>
</g>
<defs>
<linearGradient id="paint0_linear_340_25193" x1="119.417" y1="44.8041" x2="376.017" y2="44.8041" gradientUnits="userSpaceOnUse">
<stop stop-color="#272B33"/>
<stop offset="1" stop-color="#0B0C10"/>
</linearGradient>
<linearGradient id="paint1_linear_340_25193" x1="119.417" y1="44.8041" x2="376.018" y2="44.8041" gradientUnits="userSpaceOnUse">
<stop stop-color="#272B33"/>
<stop offset="1" stop-color="#0B0C10"/>
</linearGradient>
<linearGradient id="paint2_linear_340_25193" x1="119.417" y1="44.8046" x2="376.017" y2="44.8046" gradientUnits="userSpaceOnUse">
<stop stop-color="#272B33"/>
<stop offset="1" stop-color="#0B0C10"/>
</linearGradient>
<linearGradient id="paint3_linear_340_25193" x1="119.416" y1="44.8046" x2="376.016" y2="44.8046" gradientUnits="userSpaceOnUse">
<stop stop-color="#272B33"/>
<stop offset="1" stop-color="#0B0C10"/>
</linearGradient>
<linearGradient id="paint4_linear_340_25193" x1="119.417" y1="44.8041" x2="376.017" y2="44.8041" gradientUnits="userSpaceOnUse">
<stop stop-color="#272B33"/>
<stop offset="1" stop-color="#0B0C10"/>
</linearGradient>
<linearGradient id="paint5_linear_340_25193" x1="119.418" y1="44.8046" x2="376.018" y2="44.8046" gradientUnits="userSpaceOnUse">
<stop stop-color="#272B33"/>
<stop offset="1" stop-color="#0B0C10"/>
</linearGradient>
<linearGradient id="paint6_linear_340_25193" x1="119.418" y1="44.8044" x2="376.018" y2="44.8044" gradientUnits="userSpaceOnUse">
<stop stop-color="#272B33"/>
<stop offset="1" stop-color="#0B0C10"/>
</linearGradient>
<linearGradient id="paint7_linear_340_25193" x1="119.417" y1="44.8046" x2="376.017" y2="44.8046" gradientUnits="userSpaceOnUse">
<stop stop-color="#272B33"/>
<stop offset="1" stop-color="#0B0C10"/>
</linearGradient>
<linearGradient id="paint8_linear_340_25193" x1="119.417" y1="44.8044" x2="376.017" y2="44.8044" gradientUnits="userSpaceOnUse">
<stop stop-color="#272B33"/>
<stop offset="1" stop-color="#0B0C10"/>
</linearGradient>
<linearGradient id="paint9_linear_340_25193" x1="119.417" y1="44.8046" x2="376.017" y2="44.8046" gradientUnits="userSpaceOnUse">
<stop stop-color="#272B33"/>
<stop offset="1" stop-color="#0B0C10"/>
</linearGradient>
<linearGradient id="paint10_linear_340_25193" x1="119.417" y1="44.8044" x2="376.018" y2="44.8044" gradientUnits="userSpaceOnUse">
<stop stop-color="#272B33"/>
<stop offset="1" stop-color="#0B0C10"/>
</linearGradient>
<linearGradient id="paint11_linear_340_25193" x1="119.416" y1="44.8046" x2="376.017" y2="44.8046" gradientUnits="userSpaceOnUse">
<stop stop-color="#272B33"/>
<stop offset="1" stop-color="#0B0C10"/>
</linearGradient>
<linearGradient id="paint12_linear_340_25193" x1="13.099" y1="13.0961" x2="75.3358" y2="75.3288" gradientUnits="userSpaceOnUse">
<stop stop-color="#7C838E"/>
<stop offset="0.21" stop-color="#BCC2CC"/>
<stop offset="0.37" stop-color="#ACB5C1"/>
<stop offset="0.8" stop-color="#69707C"/>
<stop offset="1" stop-color="#323A45"/>
</linearGradient>
<linearGradient id="paint13_linear_340_25193" x1="73.743" y1="69.8038" x2="81.8484" y2="58.0806" gradientUnits="userSpaceOnUse">
<stop stop-color="#0A0D10"/>
<stop offset="1" stop-color="#0A0D10" stop-opacity="0"/>
</linearGradient>
<linearGradient id="paint14_linear_340_25193" x1="28.7065" y1="81.4495" x2="42.6005" y2="83.9098" gradientUnits="userSpaceOnUse">
<stop stop-color="#0A0D10"/>
<stop offset="1" stop-color="#0A0D10" stop-opacity="0"/>
</linearGradient>
<linearGradient id="paint15_linear_340_25193" x1="4.70797" y1="40.9581" x2="5.28696" y2="54.7081" gradientUnits="userSpaceOnUse">
<stop stop-color="#252C36"/>
<stop offset="1" stop-color="#252C36" stop-opacity="0"/>
</linearGradient>
<linearGradient id="paint16_linear_340_25193" x1="77.6559" y1="23.6068" x2="69.1163" y2="12.6074" gradientUnits="userSpaceOnUse">
<stop stop-color="#252C36"/>
<stop offset="1" stop-color="#252C36" stop-opacity="0"/>
</linearGradient>
<linearGradient id="paint17_linear_340_25193" x1="34.7393" y1="5.17094" x2="20.8452" y2="11.1045" gradientUnits="userSpaceOnUse">
<stop stop-color="#252C36"/>
<stop offset="1" stop-color="#252C36" stop-opacity="0"/>
</linearGradient>
<linearGradient id="paint18_linear_340_25193" x1="11.9008" y1="14.8767" x2="73.9929" y2="76.9646" gradientUnits="userSpaceOnUse">
<stop stop-color="#7C838E"/>
<stop offset="0.21" stop-color="#BCC2CC"/>
<stop offset="0.37" stop-color="#ACB5C1"/>
<stop offset="0.8" stop-color="#69707C"/>
<stop offset="1" stop-color="#323A45"/>
</linearGradient>
<radialGradient id="paint19_radial_340_25193" cx="0" cy="0" r="1" gradientUnits="userSpaceOnUse" gradientTransform="translate(44.2152 48.4782) rotate(-90) scale(23.8498 25.0725)">
<stop stop-color="#8795A3"/>
<stop offset="0.71" stop-color="#3E4852"/>
<stop offset="1" stop-color="#171A1F"/>
</radialGradient>
<linearGradient id="paint20_linear_340_25193" x1="19.0556" y1="35.5564" x2="25.1345" y2="29.4779" gradientUnits="userSpaceOnUse">
<stop stop-color="#22262C"/>
<stop offset="0.12" stop-color="#454D58"/>
<stop offset="1" stop-color="#454D58" stop-opacity="0"/>
</linearGradient>
<linearGradient id="paint21_linear_340_25193" x1="28.1765" y1="65.2678" x2="23.4" y2="55.2812" gradientUnits="userSpaceOnUse">
<stop stop-color="#22262C"/>
<stop offset="0.12" stop-color="#454D58"/>
<stop offset="1" stop-color="#454D58" stop-opacity="0"/>
</linearGradient>
<linearGradient id="paint22_linear_340_25193" x1="59.8372" y1="65.7604" x2="51.5877" y2="66.7734" gradientUnits="userSpaceOnUse">
<stop stop-color="#101215"/>
<stop offset="0.12" stop-color="#2D333C"/>
<stop offset="1" stop-color="#2D333C" stop-opacity="0"/>
</linearGradient>
<linearGradient id="paint23_linear_340_25193" x1="69.5049" y1="35.933" x2="68.0574" y2="44.0383" gradientUnits="userSpaceOnUse">
<stop stop-color="#22262C"/>
<stop offset="0.12" stop-color="#454D58"/>
<stop offset="1" stop-color="#454D58" stop-opacity="0"/>
</linearGradient>
<linearGradient id="paint24_linear_340_25193" x1="44.4528" y1="17.2094" x2="51.2553" y2="21.2616" gradientUnits="userSpaceOnUse">
<stop stop-color="#22262C"/>
<stop offset="0.12" stop-color="#454D58"/>
<stop offset="1" stop-color="#454D58" stop-opacity="0"/>
</linearGradient>
<linearGradient id="paint25_linear_340_25193" x1="12.0132" y1="29.0926" x2="19.4795" y2="31.3501" gradientUnits="userSpaceOnUse">
<stop offset="0.702552" stop-color="white"/>
<stop offset="1" stop-color="white" stop-opacity="0"/>
</linearGradient>
<linearGradient id="paint26_linear_340_25193" x1="19.8297" y1="70.053" x2="20.8457" y2="64.7794" gradientUnits="userSpaceOnUse">
<stop offset="0.702552" stop-color="white"/>
<stop offset="1" stop-color="white" stop-opacity="0"/>
</linearGradient>
<linearGradient id="paint27_linear_340_25193" x1="61.2208" y1="75.1189" x2="65.0941" y2="70.7091" gradientUnits="userSpaceOnUse">
<stop offset="0.702552" stop-color="white"/>
<stop offset="1" stop-color="white" stop-opacity="0"/>
</linearGradient>
<linearGradient id="paint28_linear_340_25193" x1="78.8773" y1="37.0527" x2="77.976" y2="39.0508" gradientUnits="userSpaceOnUse">
<stop offset="0.702552" stop-color="white"/>
<stop offset="1" stop-color="white" stop-opacity="0"/>
</linearGradient>
<linearGradient id="paint29_linear_340_25193" x1="48.3403" y1="8.97395" x2="44.2876" y2="16.5" gradientUnits="userSpaceOnUse">
<stop offset="0.702552" stop-color="white"/>
<stop offset="1" stop-color="white" stop-opacity="0"/>
</linearGradient>
</defs>
</svg>
