<svg width="212" height="88" viewBox="0 0 212 88" fill="none" xmlns="http://www.w3.org/2000/svg">
<g clip-path="url(#clip0_389_1529)">
<path d="M75.518 49.985C67.8922 49.985 60.8257 47.7425 56.1148 43.5606C54.4302 42.0662 53.0879 40.2341 52.1776 38.1867C51.2673 36.1393 50.8099 33.9236 50.836 31.6878C50.8307 29.4612 51.2977 27.2581 52.2069 25.2205C53.116 23.1828 54.4472 21.3556 56.1148 19.8565C60.4892 15.9321 68.2287 13.4404 75.518 13.4404C83.5813 13.4404 90.0379 15.4462 94.9717 19.8648C96.6327 21.3634 97.955 23.1909 98.8522 25.2281C99.7495 27.2653 100.202 29.4664 100.179 31.6878C100.168 33.9114 99.7006 36.1097 98.8057 38.1502C97.9107 40.1907 96.6065 42.0312 94.9717 43.5606C90.3744 47.7674 83.1565 49.985 75.518 49.985V45.1761C79.5602 45.1761 83.3121 43.7974 85.9326 41.2226C88.5531 38.6479 89.7434 35.525 89.7434 31.6712C89.7434 27.9918 88.4353 24.5533 85.9326 22.1198C83.3458 19.6073 79.5055 18.1912 75.518 18.1912C71.5305 18.1912 67.6734 19.5949 65.0866 22.1198C62.5923 24.5575 61.301 28.0084 61.301 31.6712C61.2636 33.431 61.5788 35.1807 62.2284 36.8199C62.8781 38.459 63.8494 39.9553 65.0866 41.2226C67.6734 43.7683 71.5053 45.1761 75.518 45.1761V49.985ZM19.8362 13.4404C15.7604 13.4404 11.1294 14.1962 7.21758 15.9321C3.56659 17.5434 0.592799 20.1306 0.592799 24.4204C0.587314 26.6669 1.45267 28.8303 3.01137 30.4669C4.06713 31.4303 5.77064 33.0665 10.2208 34.03C12.2104 34.4453 16.4628 35.1139 20.6985 35.5541C24.9341 35.9943 29.0394 36.3846 30.7219 36.829C32.0595 37.1653 34.3098 37.6222 34.3098 40.1138C34.3098 42.6055 31.9417 43.353 31.5295 43.515C31.1173 43.6769 28.2739 44.9643 23.1675 44.9643C19.7843 44.8716 16.4317 44.3024 13.2114 43.2741C11.306 42.6013 9.30807 41.7168 7.44472 39.4701C6.69273 38.4122 6.27554 37.1577 6.24595 35.8655H1.61911V48.6561H6.7591V46.9244C6.75829 46.796 6.79217 46.6696 6.85726 46.5584C6.92235 46.4472 7.01629 46.3551 7.12941 46.2916C7.24253 46.2282 7.37074 46.1956 7.50083 46.1974C7.63092 46.1991 7.7582 46.235 7.86954 46.3015C10.2912 47.3418 12.8101 48.1458 15.3902 48.7018C18.0906 49.2583 19.8362 49.6611 23.1928 49.6611C26.7347 49.7276 30.2646 49.2355 33.6494 48.2035C35.897 47.5952 38.0059 46.5676 39.862 45.1761C40.9059 44.3844 41.7497 43.3644 42.327 42.1964C42.9043 41.0283 43.1994 39.744 43.1891 38.4444C43.2066 35.9754 42.2414 33.5982 40.5013 31.8248C39.5337 30.8977 38.4128 30.1407 37.1868 29.5865C35.8689 28.9986 34.5007 28.5275 33.0984 28.1787C30.4317 27.535 24.442 26.7294 21.5776 26.447C18.5743 26.1397 13.3629 25.7119 11.2808 25.0766C10.6498 24.8814 9.36275 24.2792 9.36275 22.805C9.36275 21.7543 9.95162 20.8656 11.1125 20.1472C12.9591 19.0052 16.6858 18.295 20.5723 18.295C24.3342 18.2502 28.0653 18.9697 31.5337 20.4088C32.4655 20.8096 33.3418 21.3259 34.1415 21.9454C35.4451 23.0446 36.3479 24.5354 36.7115 26.1895H40.8631V15.0559H36.2362V16.3474C36.2362 16.7627 35.8156 17.3108 34.9744 16.8582C32.8881 15.7868 27.0246 13.4695 19.8362 13.4404ZM121.412 15.4836L144.025 35.6288L143.793 22.0658C143.768 20.2842 143.44 19.5409 141.488 19.5409H137.24V15.4836H156.589V19.5409H152.437C150.452 19.5409 150.334 20.1721 150.3 22.0658L150.649 47.9834H144.025L117.976 25.035V41.3181C117.997 43.0914 118.081 43.9261 119.927 43.9261H124.554V47.9834H105.588V43.9261H110.03C111.687 43.9261 111.62 42.3646 111.62 41.2268V22.2194C111.62 20.9736 111.443 19.545 108.844 19.545H105.243V15.4836H121.412ZM178.663 43.9178C179.045 43.9178 179.427 43.8942 179.807 43.8472C180.004 43.7888 180.186 43.6887 180.34 43.5539C180.494 43.419 180.616 43.2527 180.699 43.0665C180.757 42.7779 180.786 42.4844 180.787 42.1902V35.7742C180.787 35.5582 180.787 35.5541 180.509 35.2135C180.232 34.873 168.665 21.9246 168.139 21.3432C167.483 20.6372 166.33 19.545 164.576 19.545H160.559V15.4836H183.231V19.5367H180.497C179.866 19.5367 179.445 20.1306 179.983 20.7826C179.983 20.7826 187.614 29.7941 187.685 29.8896C187.757 29.9852 187.82 30.0059 187.916 29.9187C188.013 29.8315 195.736 20.8656 195.795 20.7826C195.886 20.6643 195.941 20.5226 195.953 20.3744C195.965 20.2262 195.934 20.0777 195.863 19.9464C195.792 19.8152 195.685 19.7069 195.553 19.6343C195.422 19.5616 195.272 19.5278 195.122 19.5367H192.316V15.4836H210.903V19.545H206.752C205.246 19.545 204.649 19.8191 203.5 21.0816L190.987 35.1762C190.864 35.3506 190.811 35.5633 190.835 35.7742V42.1861C190.838 42.4804 190.869 42.7739 190.928 43.0623C191.009 43.2487 191.13 43.4153 191.284 43.5502C191.437 43.6852 191.619 43.7851 191.816 43.843C192.192 43.8921 192.571 43.9157 192.951 43.9136H197.195V47.9751H174.642V43.9136L178.663 43.9178Z" fill="black"/>
</g>
<g clip-path="url(#clip1_389_1529)">
<path d="M6.97203 63.7209L5.78346 64.4259C5.62498 64.0342 5.38727 63.7993 5.22879 63.7209C4.99108 63.5643 4.75336 63.5643 4.43641 63.5643C3.96098 63.486 3.64402 63.6426 3.40631 63.7993C3.16859 64.0342 3.01012 64.3475 3.01012 64.6609C3.01012 65.1308 3.32707 65.5224 4.04022 65.7574L4.99108 66.1491C5.78346 66.4624 6.33813 66.854 6.65508 67.2456C6.97203 67.6373 7.20975 68.2639 7.20975 68.8905C7.20975 69.7521 6.89279 70.457 6.33813 71.0836C5.78346 71.6319 4.99108 71.9452 4.11945 71.9452C3.32707 71.9452 2.61393 71.7102 2.05926 71.2403C1.58383 70.7703 1.26688 70.0654 1.1084 69.2038L2.53469 68.8905C2.61393 69.4388 2.69316 69.8304 2.85164 70.0654C3.16859 70.457 3.56479 70.692 4.11945 70.692C4.59488 70.692 4.91184 70.5353 5.22879 70.222C5.54574 69.9087 5.70422 69.5171 5.70422 69.1255C5.70422 68.9688 5.70422 68.8122 5.62498 68.6555C5.62498 68.4205 5.54574 68.2639 5.46651 68.1072C5.38727 67.9506 5.22879 67.8722 5.07031 67.7939C4.8326 67.6373 4.67412 67.5589 4.43641 67.4023L3.48555 67.089C2.21773 66.5407 1.50459 65.6791 1.50459 64.6609C1.50459 63.9559 1.7423 63.3293 2.29697 62.8593C2.85164 62.3894 3.56479 62.1544 4.35717 62.1544C5.54574 62.1544 6.33813 62.7027 6.97203 63.7209ZM8.71528 68.7338C8.71528 67.8722 9.03223 67.1673 9.66614 66.5407C10.3 65.9141 11.0132 65.6008 11.964 65.6008C12.8357 65.6008 13.6281 65.9141 14.262 66.5407C14.8959 67.1673 15.2128 67.8722 15.2128 68.8122C15.2128 69.6738 14.8959 70.457 14.262 71.0836C13.6281 71.7102 12.8357 71.9452 11.964 71.9452C11.0924 71.9452 10.3 71.6319 9.66614 71.0053C8.95299 70.457 8.71528 69.6738 8.71528 68.7338ZM10.1416 68.8122C10.1416 69.4388 10.3 69.9087 10.617 70.222C10.9339 70.5353 11.4094 70.7703 11.8848 70.7703C12.4395 70.7703 12.8357 70.6137 13.1526 70.222C13.4696 69.9087 13.6281 69.4388 13.6281 68.8122C13.6281 68.1856 13.4696 67.7939 13.1526 67.4023C12.8357 67.089 12.3602 66.854 11.8848 66.854C11.3301 66.854 10.9339 67.0107 10.617 67.4023C10.3 67.7939 10.1416 68.2639 10.1416 68.8122ZM16.5599 65.8358H17.9862V66.384C18.4616 65.9141 19.0163 65.6791 19.6502 65.6791C20.3633 65.6791 20.918 65.9141 21.3142 66.3057C21.6311 66.6973 21.7896 67.2456 21.7896 68.1072V71.7886H20.3633V68.4205C20.3633 67.7939 20.2841 67.4023 20.1256 67.1673C19.9671 67.0107 19.6502 66.9323 19.254 66.9323C18.7785 66.9323 18.4616 67.089 18.3031 67.4023C18.1446 67.7156 17.9862 68.1856 17.9862 68.9688V71.8669H16.5599V65.8358ZM25.7515 70.692L23.0574 65.8358H24.6422L26.4647 69.2821L28.2079 65.8358H29.7927L24.9591 75.0783H23.3744L25.7515 70.692ZM35.894 71.7886V61.6844L42.867 68.8905V62.3111H44.2933V72.3369L37.3203 65.1308V71.7102H35.894V71.7886ZM51.9794 69.1255H47.6213C47.6213 69.5954 47.7798 69.9871 48.0967 70.3004C48.4137 70.6137 48.7306 70.692 49.2061 70.692C49.523 70.692 49.84 70.6137 50.0777 70.457C50.3154 70.3004 50.5531 69.9871 50.8701 69.5171L52.0586 70.1437C51.9002 70.457 51.6624 70.692 51.504 70.927C51.2662 71.162 51.1078 71.3186 50.8701 71.4753C50.6323 71.6319 50.3946 71.7102 50.1569 71.7886C49.9192 71.8669 49.6022 71.8669 49.2853 71.8669C48.4137 71.8669 47.7005 71.5536 47.1459 71.0053C46.5912 70.457 46.3535 69.6738 46.3535 68.7338C46.3535 67.7939 46.5912 67.0107 47.1459 66.4624C47.7005 65.9141 48.4137 65.6008 49.2853 65.6008C50.1569 65.6008 50.8701 65.9141 51.4247 66.4624C51.9002 67.0107 52.2171 67.7939 52.2171 68.7338L51.9794 69.1255ZM50.5531 68.0289C50.3946 67.2456 49.9192 66.9323 49.1268 66.9323C48.9683 66.9323 48.8099 66.9323 48.6514 67.0107C48.4929 67.089 48.3344 67.1673 48.2552 67.2456C48.0967 67.324 48.0175 67.4806 47.9382 67.5589C47.859 67.6373 47.7798 67.8722 47.7798 68.0289H50.5531ZM55.3074 67.089V71.7886H53.8811V67.089H53.2472V65.8358H53.8811V63.6426H55.3074V65.8358H56.4167V67.089H55.3074ZM59.1108 65.8358L60.6956 69.2038L62.3596 65.2875L64.1029 69.2038L65.6876 65.8358H67.2724L64.1029 72.2585L62.4388 68.4205L60.7748 72.2585L57.6053 65.8358H59.1108ZM67.6686 68.7338C67.6686 67.8722 67.9855 67.1673 68.6194 66.5407C69.2533 65.9924 69.9665 65.6791 70.8381 65.6791C71.7097 65.6791 72.5021 65.9924 73.136 66.619C73.7699 67.2456 74.0869 67.9506 74.0869 68.8905C74.0869 69.7521 73.7699 70.5353 73.136 71.162C72.5021 71.7886 71.7097 72.0236 70.8381 72.0236C69.9665 72.0236 69.1741 71.7102 68.5402 71.0836C67.9855 70.457 67.6686 69.6738 67.6686 68.7338ZM69.0949 68.8122C69.0949 69.4388 69.2533 69.9087 69.5703 70.222C69.8873 70.5353 70.3627 70.7703 70.8381 70.7703C71.3928 70.7703 71.789 70.6137 72.1059 70.222C72.4229 69.9087 72.5813 69.4388 72.5813 68.8122C72.5813 68.1856 72.4229 67.7939 72.1059 67.4023C71.8682 67.089 71.3928 66.9323 70.8381 66.9323C70.2834 66.9323 69.8873 67.089 69.5703 67.4806C69.2533 67.7939 69.0949 68.2639 69.0949 68.8122ZM75.5924 65.8358H77.0187V66.384C77.2564 66.1491 77.4941 65.9141 77.7318 65.8358C77.9696 65.7574 78.2073 65.6791 78.445 65.6791C78.8412 65.6791 79.1581 65.8358 79.6336 66.0707L78.9997 67.324C78.7619 67.1673 78.445 67.0107 78.2073 67.0107C77.4149 67.0107 77.0979 67.5589 77.0979 68.7338V71.7886H75.5924V65.8358ZM82.1692 61.4495V67.7156L84.1501 65.7574H86.0519L83.437 68.2639L86.2103 71.7102H84.3879L82.4069 69.2038L82.1692 69.4388V71.7102H80.7429V61.4495H82.1692ZM99.2847 62.8593V64.5825C98.413 63.8776 97.6207 63.5643 96.6698 63.5643C95.7189 63.5643 94.8473 63.8776 94.2134 64.5825C93.5003 65.2875 93.1833 66.1491 93.1833 67.089C93.1833 68.1072 93.5003 68.8905 94.2134 69.5954C94.9266 70.3004 95.7189 70.6137 96.6698 70.6137C97.1452 70.6137 97.6207 70.5353 97.9376 70.3787C98.0961 70.3004 98.3338 70.222 98.5715 70.0654C98.8092 69.9087 99.0469 69.7521 99.2054 69.5954V71.3186C98.413 71.7886 97.5414 72.0236 96.5906 72.0236C95.2435 72.0236 94.0549 71.5536 93.1041 70.6137C92.1532 69.6738 91.6778 68.4989 91.6778 67.1673C91.6778 65.9924 92.074 64.8958 92.8664 63.9559C93.8172 62.781 95.1643 62.2327 96.749 62.2327C97.6999 62.1544 98.4923 62.3894 99.2847 62.8593ZM100.869 68.7338C100.869 67.8722 101.186 67.1673 101.82 66.5407C102.454 65.9141 103.167 65.6008 104.118 65.6008C104.99 65.6008 105.782 65.9141 106.416 66.5407C107.05 67.1673 107.367 67.8722 107.367 68.8122C107.367 69.6738 107.05 70.457 106.416 71.0836C105.782 71.7102 104.99 71.9452 104.118 71.9452C103.247 71.9452 102.454 71.6319 101.82 71.0053C101.186 70.457 100.869 69.6738 100.869 68.7338ZM102.296 68.8122C102.296 69.4388 102.454 69.9087 102.771 70.222C103.088 70.5353 103.564 70.7703 104.039 70.7703C104.594 70.7703 104.99 70.6137 105.307 70.222C105.624 69.9087 105.782 69.4388 105.782 68.8122C105.782 68.1856 105.624 67.7939 105.307 67.4023C104.99 67.089 104.514 66.854 104.039 66.854C103.484 66.854 103.088 67.0107 102.771 67.4023C102.454 67.7939 102.296 68.2639 102.296 68.8122ZM108.476 65.8358H109.903V66.384C110.14 66.0707 110.378 65.9141 110.616 65.8358C110.853 65.7574 111.091 65.6791 111.408 65.6791C112.121 65.6791 112.597 65.9924 112.993 66.5407C113.468 65.9141 114.023 65.6791 114.736 65.6791C116.083 65.6791 116.796 66.4624 116.796 68.1072V71.7886H115.37V68.4989C115.37 67.9506 115.291 67.5589 115.132 67.324C115.053 67.0107 114.815 66.9323 114.419 66.9323C114.023 66.9323 113.785 67.089 113.548 67.324C113.31 67.5589 113.31 68.1072 113.31 68.7338V71.7886H111.884V68.4989C111.884 67.4023 111.567 66.9323 110.933 66.9323C110.537 66.9323 110.22 67.089 110.061 67.4023C109.903 67.7156 109.823 68.1856 109.823 68.8122V71.8669H108.397V65.8358H108.476ZM118.302 65.8358H119.728V66.384C119.966 66.0707 120.204 65.9141 120.441 65.8358C120.679 65.7574 120.917 65.6791 121.234 65.6791C121.947 65.6791 122.422 65.9924 122.818 66.5407C123.294 65.9141 123.849 65.6791 124.562 65.6791C125.909 65.6791 126.622 66.4624 126.622 68.1072V71.7886H125.196V68.4989C125.196 67.9506 125.116 67.5589 124.958 67.324C124.799 67.089 124.562 66.9323 124.245 66.9323C123.849 66.9323 123.611 67.089 123.373 67.324C123.215 67.6373 123.135 68.1072 123.135 68.7338V71.7886H121.709V68.4989C121.709 67.4023 121.392 66.9323 120.758 66.9323C120.362 66.9323 120.045 67.089 119.887 67.4023C119.728 67.7156 119.649 68.1856 119.649 68.8122V71.8669H118.223V65.8358H118.302ZM129.712 65.8358V69.2821C129.712 70.3004 130.108 70.7703 130.901 70.7703C131.693 70.7703 132.089 70.3004 132.089 69.2821V65.8358H133.516V69.2821C133.516 69.7521 133.436 70.1437 133.357 70.5353C133.278 70.8487 133.04 71.162 132.723 71.3969C132.248 71.7886 131.693 72.0236 130.901 72.0236C130.188 72.0236 129.554 71.7886 129.078 71.3969C128.761 71.162 128.603 70.8487 128.444 70.5353C128.365 70.222 128.286 69.8304 128.286 69.2821V65.8358H129.712ZM135.18 65.8358H136.606V66.384C137.081 65.9141 137.636 65.6791 138.27 65.6791C138.983 65.6791 139.538 65.9141 139.934 66.3057C140.251 66.6973 140.409 67.2456 140.409 68.1072V71.7886H138.983V68.4205C138.983 67.7939 138.904 67.4023 138.745 67.1673C138.587 66.9323 138.27 66.854 137.874 66.854C137.398 66.854 137.081 67.0107 136.923 67.324C136.764 67.6373 136.606 68.1072 136.606 68.8905V71.7886H135.18V65.8358ZM142.232 63.3293C142.232 63.0943 142.311 62.8593 142.47 62.7027C142.628 62.546 142.866 62.4677 143.103 62.4677C143.341 62.4677 143.579 62.546 143.737 62.7027C143.896 62.8593 143.975 63.0943 143.975 63.3293C143.975 63.5643 143.896 63.7993 143.737 63.9559C143.579 64.1126 143.341 64.1909 143.103 64.1909C142.866 64.1909 142.628 64.1126 142.47 63.9559C142.311 63.7993 142.232 63.5643 142.232 63.3293ZM143.817 65.8358V71.7886H142.39V65.8358H143.817ZM150.235 66.0707V67.8722C149.918 67.4806 149.601 67.2456 149.363 67.089C149.126 66.9323 148.809 66.854 148.492 66.854C147.937 66.854 147.541 67.0107 147.224 67.4023C146.907 67.7939 146.669 68.1856 146.669 68.7338C146.669 69.2821 146.828 69.7521 147.145 70.1437C147.462 70.5353 147.937 70.692 148.412 70.692C148.729 70.692 149.046 70.6137 149.284 70.457C149.522 70.3004 149.839 70.0654 150.156 69.6738V71.4753C149.601 71.7886 149.046 71.9452 148.492 71.9452C147.541 71.9452 146.748 71.6319 146.115 71.0836C145.481 70.457 145.164 69.7521 145.164 68.8122C145.164 67.8722 145.481 67.1673 146.115 66.5407C146.748 65.9141 147.541 65.6008 148.492 65.6008C149.205 65.6791 149.759 65.8358 150.235 66.0707ZM156.336 65.8358H157.763V71.7886H156.336V71.162C155.782 71.7102 155.148 71.9452 154.514 71.9452C153.642 71.9452 153.008 71.6319 152.454 71.0836C151.899 70.457 151.661 69.7521 151.661 68.8122C151.661 67.9506 151.899 67.1673 152.454 66.5407C153.008 65.9141 153.642 65.6791 154.514 65.6791C155.227 65.6791 155.861 65.9924 156.415 66.5407V65.8358H156.336ZM153.008 68.8122C153.008 69.3604 153.167 69.8304 153.484 70.222C153.801 70.6137 154.197 70.7703 154.672 70.7703C155.227 70.7703 155.623 70.6137 155.94 70.222C156.257 69.8304 156.415 69.3604 156.415 68.8122C156.415 68.2639 156.257 67.7939 155.94 67.4023C155.623 67.089 155.227 66.9323 154.672 66.9323C154.197 66.9323 153.801 67.089 153.484 67.4806C153.167 67.7939 153.008 68.2639 153.008 68.8122ZM161.407 67.089V71.7886H159.981V67.089H159.347V65.8358H159.981V63.6426H161.407V65.8358H162.517V67.089H161.407ZM163.705 63.3293C163.705 63.0943 163.785 62.8593 163.943 62.7027C164.102 62.546 164.339 62.4677 164.577 62.4677C164.815 62.4677 165.052 62.546 165.211 62.7027C165.369 62.8593 165.449 63.0943 165.449 63.3293C165.449 63.5643 165.369 63.7993 165.211 63.9559C165.052 64.1126 164.815 64.1909 164.577 64.1909C164.339 64.1909 164.102 64.1126 163.943 63.9559C163.864 63.7993 163.705 63.5643 163.705 63.3293ZM165.369 65.8358V71.7886H163.943V65.8358H165.369ZM167.113 68.7338C167.113 67.8722 167.43 67.1673 168.064 66.5407C168.697 65.9141 169.411 65.6008 170.361 65.6008C171.233 65.6008 172.025 65.9141 172.659 66.5407C173.293 67.1673 173.61 67.8722 173.61 68.8122C173.61 69.6738 173.293 70.457 172.659 71.0836C172.025 71.7102 171.233 71.9452 170.361 71.9452C169.49 71.9452 168.697 71.6319 168.064 71.0053C167.35 70.457 167.113 69.6738 167.113 68.7338ZM168.539 68.8122C168.539 69.4388 168.697 69.9087 169.014 70.222C169.331 70.5353 169.807 70.7703 170.282 70.7703C170.837 70.7703 171.233 70.6137 171.55 70.222C171.867 69.8304 172.025 69.4388 172.025 68.8122C172.025 68.1856 171.867 67.7939 171.55 67.4023C171.233 67.089 170.758 66.854 170.282 66.854C169.728 66.854 169.331 67.0107 169.014 67.4023C168.697 67.7939 168.539 68.2639 168.539 68.8122ZM174.957 65.8358H176.384V66.384C176.859 65.9141 177.414 65.6791 178.048 65.6791C178.761 65.6791 179.315 65.9141 179.712 66.3057C180.028 66.6973 180.187 67.2456 180.187 68.1072V71.7886H178.761V68.4205C178.761 67.7939 178.681 67.4023 178.523 67.1673C178.364 66.9323 178.048 66.854 177.651 66.854C177.176 66.854 176.859 67.0107 176.7 67.324C176.542 67.6373 176.384 68.1072 176.384 68.8905V71.7886H174.957V65.8358ZM185.654 66.854L184.466 67.4806C184.387 67.089 184.149 66.9323 183.832 66.9323C183.673 66.9323 183.594 67.0107 183.515 67.089C183.436 67.1673 183.357 67.2456 183.357 67.4023C183.357 67.6373 183.594 67.8722 184.149 68.1072C184.862 68.4205 185.417 68.7338 185.654 68.9688C185.892 69.2038 186.051 69.5954 186.051 70.0654C186.051 70.6137 185.813 71.0836 185.417 71.4753C185.021 71.8669 184.466 72.0236 183.911 72.0236C182.881 72.0236 182.168 71.5536 181.772 70.5353L182.96 69.9871C183.119 70.3004 183.277 70.457 183.357 70.5353C183.515 70.692 183.753 70.7703 183.99 70.7703C184.466 70.7703 184.704 70.5353 184.704 70.1437C184.704 69.9087 184.545 69.6738 184.149 69.4388C183.99 69.3605 183.832 69.2821 183.753 69.2038C183.594 69.1255 183.436 69.0471 183.357 68.9688C182.96 68.8122 182.643 68.5772 182.485 68.3422C182.247 68.1072 182.168 67.7939 182.168 67.4023C182.168 66.854 182.326 66.4624 182.723 66.1491C183.119 65.8358 183.515 65.6791 184.07 65.6791C184.704 65.6791 185.337 66.0707 185.654 66.854ZM193.974 62.3111V71.7886H192.548V62.3111H193.974ZM196.272 65.8358H197.699V66.384C198.174 65.9141 198.729 65.6791 199.363 65.6791C200.076 65.6791 200.63 65.9141 201.027 66.3057C201.344 66.6973 201.502 67.2456 201.502 68.1072V71.7886H200.076V68.4205C200.076 67.7939 199.997 67.4023 199.838 67.1673C199.68 66.9323 199.363 66.854 198.966 66.854C198.491 66.854 198.174 67.0107 198.016 67.324C197.857 67.6373 197.699 68.1072 197.699 68.8905V71.7886H196.272V65.8358ZM207.92 66.0707V67.8722C207.603 67.4806 207.286 67.2456 207.049 67.089C206.811 66.9323 206.494 66.854 206.177 66.854C205.622 66.854 205.226 67.0107 204.909 67.4023C204.592 67.7939 204.355 68.1856 204.355 68.7338C204.355 69.2821 204.513 69.7521 204.83 70.1437C205.147 70.5353 205.622 70.692 206.098 70.692C206.415 70.692 206.732 70.6137 206.97 70.457C207.207 70.3004 207.524 70.0654 207.841 69.6738V71.4753C207.286 71.7886 206.732 71.9452 206.177 71.9452C205.226 71.9452 204.434 71.6319 203.8 71.0836C203.166 70.457 202.849 69.7521 202.849 68.8122C202.849 67.8722 203.166 67.1673 203.8 66.5407C204.434 65.9141 205.226 65.6008 206.177 65.6008C206.811 65.6791 207.366 65.8358 207.92 66.0707ZM209.743 71.0836C209.743 70.8487 209.822 70.692 209.981 70.457C210.139 70.222 210.377 70.222 210.614 70.222C210.852 70.222 211.09 70.3004 211.248 70.457C211.407 70.6137 211.486 70.8487 211.486 71.0836C211.486 71.3186 211.407 71.5536 211.248 71.7102C211.09 71.8669 210.852 71.9452 210.614 71.9452C210.377 71.9452 210.139 71.8669 209.981 71.7102C209.822 71.5536 209.743 71.3186 209.743 71.0836Z" fill="black"/>
</g>
<defs>
<clipPath id="clip0_389_1529">
<rect width="210.311" height="36.9975" fill="white" transform="translate(0.592773 13)"/>
</clipPath>
<clipPath id="clip1_389_1529">
<rect width="210.298" height="13.5505" fill="white" transform="translate(1.1084 61.4495)"/>
</clipPath>
</defs>
</svg>
