<svg width="376" height="88" viewBox="0 0 376 88" fill="none" xmlns="http://www.w3.org/2000/svg">
<path d="M130.739 28.9475L130.988 39.1631H130.061C129.624 36.6017 128.546 34.545 126.829 32.993C125.126 31.4261 123.281 30.6426 121.292 30.6426C119.755 30.6426 118.535 31.0569 117.631 31.8857C116.742 32.6993 116.298 33.641 116.298 34.7108C116.298 35.3888 116.456 35.9914 116.773 36.5188C117.209 37.227 117.91 37.9276 118.874 38.6207C119.582 39.1179 121.217 39.9994 123.778 41.2651C127.363 43.0279 129.782 44.6929 131.033 46.2598C132.268 47.8269 132.886 49.6199 132.886 51.6389C132.886 54.2004 131.884 56.4077 129.88 58.2609C127.891 60.0992 125.36 61.0183 122.286 61.0183C121.322 61.0183 120.41 60.9203 119.552 60.7244C118.693 60.5286 117.616 60.1594 116.32 59.617C115.597 59.3157 115.001 59.165 114.535 59.165C114.143 59.165 113.729 59.3157 113.292 59.617C112.855 59.9184 112.501 60.3779 112.23 60.9957H111.394V49.424H112.23C112.893 52.6785 114.166 55.1647 116.049 56.8823C117.948 58.5849 119.989 59.4362 122.174 59.4362C123.861 59.4362 125.202 58.9767 126.196 58.0576C127.205 57.1384 127.711 56.0687 127.711 54.8482C127.711 54.125 127.515 53.4243 127.122 52.7464C126.746 52.0683 126.166 51.428 125.383 50.8253C124.599 50.2075 123.212 49.4089 121.224 48.4296C118.437 47.0584 116.433 45.8907 115.213 44.9264C113.993 43.9621 113.051 42.8847 112.388 41.6945C111.74 40.5041 111.416 39.1932 111.416 37.7619C111.416 35.321 112.312 33.2417 114.105 31.5241C115.899 29.8063 118.158 28.9475 120.885 28.9475C121.879 28.9475 122.844 29.068 123.778 29.3091C124.486 29.4899 125.345 29.829 126.354 30.3261C127.379 30.8083 128.095 31.0494 128.502 31.0494C128.893 31.0494 129.202 30.9288 129.428 30.6878C129.653 30.4467 129.865 29.8666 130.061 28.9475H130.739Z" fill="url(#paint0_linear_359_956)"/>
<path d="M145.029 31.4336V39.1631H150.046V41.4006H145.029V54.4414C145.029 55.6618 145.082 56.4529 145.187 56.8145C145.308 57.161 145.511 57.4474 145.798 57.6733C146.083 57.8843 146.348 57.9898 146.589 57.9898C147.568 57.9898 148.494 57.244 149.368 55.7523L150.046 56.2494C148.826 59.1424 146.844 60.5889 144.103 60.5889C142.762 60.5889 141.624 60.2198 140.69 59.4815C139.771 58.7281 139.183 57.8918 138.928 56.9727C138.776 56.4605 138.701 55.0742 138.701 52.8141V41.4006H135.944V40.6096C137.842 39.2686 139.454 37.8598 140.781 36.3832C142.121 34.9067 143.289 33.2568 144.283 31.4336H145.029Z" fill="url(#paint1_linear_359_956)"/>
<path d="M164.042 57.1765C161.466 59.4518 159.153 60.5894 157.105 60.5894C155.899 60.5894 154.896 60.1976 154.099 59.414C153.3 58.6155 152.901 57.6211 152.901 56.4307C152.901 54.8186 153.593 53.3721 154.979 52.0913C156.366 50.7955 159.387 49.0779 164.042 46.9383V44.8138C164.042 43.2167 163.952 42.2148 163.771 41.8079C163.605 41.386 163.281 41.0244 162.799 40.7231C162.318 40.4066 161.774 40.2484 161.172 40.2484C160.192 40.2484 159.387 40.4669 158.754 40.9039C158.362 41.1751 158.167 41.4915 158.167 41.8531C158.167 42.1695 158.377 42.5612 158.799 43.0284C159.371 43.6762 159.658 44.3016 159.658 44.9042C159.658 45.6425 159.379 46.2753 158.822 46.8027C158.28 47.315 157.564 47.5711 156.674 47.5711C155.725 47.5711 154.927 47.2849 154.279 46.7124C153.646 46.1398 153.33 45.4693 153.33 44.7008C153.33 43.616 153.759 42.5839 154.618 41.6045C155.477 40.61 156.674 39.8492 158.211 39.3218C159.749 38.7944 161.345 38.5308 163.002 38.5308C165.006 38.5308 166.588 38.9602 167.748 39.819C168.923 40.6627 169.684 41.5819 170.031 42.5764C170.242 43.2092 170.347 44.6632 170.347 46.9383V55.1425C170.347 56.1068 170.385 56.717 170.46 56.9731C170.535 57.2143 170.649 57.3951 170.8 57.5156C170.95 57.6361 171.124 57.6964 171.32 57.6964C171.711 57.6964 172.111 57.4177 172.517 56.8602L173.195 57.4026C172.441 58.5176 171.658 59.3312 170.845 59.8435C170.046 60.3407 169.135 60.5894 168.11 60.5894C166.904 60.5894 165.963 60.3106 165.285 59.7531C164.608 59.1805 164.193 58.3217 164.042 57.1765ZM164.042 55.5267V48.4526C162.219 49.5224 160.863 50.6675 159.974 51.8879C159.387 52.7016 159.093 53.5228 159.093 54.3514C159.093 55.0445 159.342 55.6547 159.838 56.1821C160.216 56.5889 160.742 56.7923 161.42 56.7923C162.174 56.7923 163.048 56.3705 164.042 55.5267Z" fill="url(#paint2_linear_359_956)"/>
<path d="M184.615 39.1635V43.955C186.016 41.7702 187.243 40.3238 188.299 39.6156C189.353 38.8924 190.37 38.5308 191.35 38.5308C192.193 38.5308 192.863 38.7944 193.361 39.3218C193.873 39.8341 194.129 40.5649 194.129 41.5141C194.129 42.5236 193.88 43.3071 193.383 43.8645C192.901 44.422 192.313 44.7008 191.621 44.7008C190.822 44.7008 190.129 44.4446 189.541 43.9324C188.954 43.4201 188.607 43.1339 188.502 43.0735C188.351 42.9832 188.178 42.9379 187.982 42.9379C187.545 42.9379 187.13 43.1037 186.739 43.4352C186.121 43.9475 185.655 44.6783 185.338 45.6275C184.856 47.089 184.615 48.7012 184.615 50.4641V55.3233L184.637 56.5889C184.637 57.4478 184.69 57.9978 184.795 58.2388C184.976 58.6456 185.24 58.947 185.586 59.1429C185.948 59.3237 186.551 59.4366 187.395 59.4819V60.2955H175.982V59.4819C176.9 59.4065 177.519 59.1579 177.835 58.7361C178.166 58.299 178.332 57.1615 178.332 55.3233V43.6386C178.332 42.4332 178.272 41.6648 178.152 41.3333C178 40.9114 177.782 40.6025 177.496 40.4066C177.21 40.2108 176.705 40.0751 175.982 39.9998V39.1635H184.615Z" fill="url(#paint3_linear_359_956)"/>
<path d="M205.12 31.4336V39.1631H210.137V41.4006H205.12V54.4414C205.12 55.6618 205.173 56.4529 205.279 56.8145C205.399 57.161 205.603 57.4474 205.888 57.6733C206.175 57.8843 206.439 57.9898 206.679 57.9898C207.659 57.9898 208.585 57.244 209.459 55.7523L210.137 56.2494C208.917 59.1424 206.936 60.5889 204.193 60.5889C202.852 60.5889 201.715 60.2198 200.781 59.4815C199.862 58.7281 199.275 57.8918 199.018 56.9727C198.868 56.4605 198.792 55.0742 198.792 52.8141V41.4006H196.035V40.6096C197.934 39.2686 199.546 37.8598 200.871 36.3832C202.213 34.9067 203.38 33.2568 204.375 31.4336H205.12Z" fill="url(#paint4_linear_359_956)"/>
<path d="M224.136 57.1765C221.559 59.4518 219.246 60.5894 217.197 60.5894C215.992 60.5894 214.99 60.1976 214.191 59.414C213.394 58.6155 212.994 57.6211 212.994 56.4307C212.994 54.8186 213.687 53.3721 215.073 52.0913C216.459 50.7955 219.479 49.0779 224.136 46.9383V44.8138C224.136 43.2167 224.045 42.2148 223.864 41.8079C223.699 41.386 223.375 41.0244 222.892 40.7231C222.41 40.4066 221.868 40.2484 221.265 40.2484C220.286 40.2484 219.479 40.4669 218.846 40.9039C218.455 41.1751 218.259 41.4915 218.259 41.8531C218.259 42.1695 218.47 42.5612 218.892 43.0284C219.465 43.6762 219.751 44.3016 219.751 44.9042C219.751 45.6425 219.473 46.2753 218.915 46.8027C218.372 47.315 217.657 47.5711 216.768 47.5711C215.819 47.5711 215.02 47.2849 214.373 46.7124C213.74 46.1398 213.423 45.4693 213.423 44.7008C213.423 43.616 213.853 42.5839 214.711 41.6045C215.57 40.61 216.768 39.8492 218.304 39.3218C219.841 38.7944 221.439 38.5308 223.096 38.5308C225.099 38.5308 226.681 38.9602 227.842 39.819C229.017 40.6627 229.778 41.5819 230.124 42.5764C230.335 43.2092 230.441 44.6632 230.441 46.9383V55.1425C230.441 56.1068 230.478 56.717 230.553 56.9731C230.629 57.2143 230.742 57.3951 230.892 57.5156C231.044 57.6361 231.216 57.6964 231.412 57.6964C231.804 57.6964 232.203 57.4177 232.61 56.8602L233.288 57.4026C232.535 58.5176 231.752 59.3312 230.937 59.8435C230.14 60.3407 229.228 60.5894 228.204 60.5894C226.998 60.5894 226.056 60.3106 225.378 59.7531C224.7 59.1805 224.286 58.3217 224.136 57.1765ZM224.136 55.5267V48.4526C222.313 49.5224 220.956 50.6675 220.068 51.8879C219.479 52.7016 219.186 53.5228 219.186 54.3514C219.186 55.0445 219.435 55.6547 219.932 56.1821C220.308 56.5889 220.836 56.7923 221.514 56.7923C222.267 56.7923 223.141 56.3705 224.136 55.5267Z" fill="url(#paint5_linear_359_956)"/>
<path d="M244.21 29.6484V55.9108C244.21 57.4024 244.384 58.3592 244.73 58.7811C245.077 59.1879 245.755 59.4214 246.765 59.4817V60.2953H235.352V59.4817C236.286 59.4516 236.979 59.1803 237.431 58.668C237.732 58.3216 237.884 57.4024 237.884 55.9108V34.033C237.884 32.5564 237.71 31.6147 237.364 31.2079C237.016 30.786 236.346 30.5449 235.352 30.4846V29.6484H244.21Z" fill="url(#paint6_linear_359_956)"/>
<path d="M267.043 48.9725H255.45C255.585 51.775 256.331 53.9898 257.687 55.6171C258.727 56.8677 259.977 57.493 261.438 57.493C262.342 57.493 263.163 57.2444 263.902 56.7471C264.64 56.2348 265.431 55.3233 266.275 54.0125L267.043 54.5096C265.898 56.8451 264.632 58.5024 263.246 59.4819C261.86 60.4462 260.256 60.9283 258.433 60.9283C255.3 60.9283 252.927 59.7229 251.315 57.3122C250.018 55.3685 249.371 52.9577 249.371 50.0799C249.371 46.5541 250.32 43.7516 252.218 41.6723C254.131 39.578 256.369 38.5308 258.93 38.5308C261.07 38.5308 262.923 39.4122 264.49 41.1751C266.072 42.9228 266.922 45.522 267.043 48.9725ZM261.484 47.4582C261.484 45.0323 261.348 43.3674 261.077 42.4633C260.821 41.5593 260.414 40.8737 259.856 40.4066C259.54 40.1355 259.119 39.9998 258.591 39.9998C257.808 39.9998 257.167 40.3841 256.67 41.1525C255.781 42.4935 255.337 44.3317 255.337 46.6671V47.4582H261.484Z" fill="url(#paint7_linear_359_956)"/>
<path d="M309.591 49.5373L308.438 60.2953H281.229V59.4591H282.246C283.135 59.4591 283.85 59.3009 284.393 58.9845C284.784 58.7735 285.086 58.4119 285.296 57.8996C285.462 57.538 285.545 56.5887 285.545 55.0519V34.8919C285.545 33.3248 285.462 32.3454 285.296 31.9537C285.13 31.562 284.792 31.2229 284.28 30.9366C283.783 30.6353 283.105 30.4846 282.246 30.4846H281.229V29.6484H297.569V30.4846H296.234C295.346 30.4846 294.63 30.6428 294.088 30.9593C293.697 31.1702 293.387 31.5318 293.161 32.0441C292.995 32.4057 292.912 33.3549 292.912 34.8919V54.4191C292.912 55.9861 293.003 56.988 293.184 57.425C293.365 57.8469 293.719 58.1633 294.246 58.3743C294.623 58.5099 295.534 58.5777 296.98 58.5777H299.535C301.162 58.5777 302.517 58.2913 303.602 57.7188C304.687 57.1462 305.621 56.2422 306.405 55.0067C307.203 53.7711 307.957 51.9481 308.665 49.5373H309.591Z" fill="url(#paint8_linear_359_956)"/>
<path d="M323.998 57.1765C321.423 59.4518 319.109 60.5894 317.06 60.5894C315.855 60.5894 314.853 60.1976 314.055 59.414C313.256 58.6155 312.856 57.6211 312.856 56.4307C312.856 54.8186 313.55 53.3721 314.936 52.0913C316.323 50.7955 319.343 49.0779 323.998 46.9383V44.8138C323.998 43.2167 323.908 42.2148 323.727 41.8079C323.561 41.386 323.238 41.0244 322.756 40.7231C322.273 40.4066 321.731 40.2484 321.128 40.2484C320.149 40.2484 319.343 40.4669 318.71 40.9039C318.318 41.1751 318.122 41.4915 318.122 41.8531C318.122 42.1695 318.334 42.5612 318.755 43.0284C319.328 43.6762 319.614 44.3016 319.614 44.9042C319.614 45.6425 319.335 46.2753 318.777 46.8027C318.235 47.315 317.52 47.5711 316.631 47.5711C315.682 47.5711 314.883 47.2849 314.235 46.7124C313.603 46.1398 313.287 45.4693 313.287 44.7008C313.287 43.616 313.716 42.5839 314.575 41.6045C315.433 40.61 316.631 39.8492 318.168 39.3218C319.705 38.7944 321.302 38.5308 322.959 38.5308C324.963 38.5308 326.545 38.9602 327.704 39.819C328.88 40.6627 329.64 41.5819 329.988 42.5764C330.198 43.2092 330.304 44.6632 330.304 46.9383V55.1425C330.304 56.1068 330.342 56.717 330.417 56.9731C330.492 57.2143 330.605 57.3951 330.755 57.5156C330.906 57.6361 331.08 57.6964 331.275 57.6964C331.667 57.6964 332.066 57.4177 332.474 56.8602L333.152 57.4026C332.398 58.5176 331.614 59.3312 330.801 59.8435C330.002 60.3407 329.09 60.5894 328.066 60.5894C326.861 60.5894 325.92 60.3106 325.242 59.7531C324.563 59.1805 324.149 58.3217 323.998 57.1765ZM323.998 55.5267V48.4526C322.175 49.5224 320.82 50.6675 319.93 51.8879C319.343 52.7016 319.05 53.5228 319.05 54.3514C319.05 55.0445 319.297 55.6547 319.795 56.1821C320.171 56.5889 320.699 56.7923 321.377 56.7923C322.131 56.7923 323.004 56.3705 323.998 55.5267Z" fill="url(#paint9_linear_359_956)"/>
<path d="M343.197 29.6484V41.2879C344.975 39.4497 346.919 38.5306 349.029 38.5306C350.475 38.5306 351.838 38.96 353.119 39.8189C354.4 40.6626 355.401 41.868 356.124 43.435C356.848 45.0019 357.209 46.8101 357.209 48.8592C357.209 51.1645 356.75 53.2589 355.83 55.1423C354.912 57.0258 353.684 58.4646 352.147 59.4591C350.61 60.4385 348.855 60.9281 346.881 60.9281C345.736 60.9281 344.72 60.7473 343.83 60.3858C342.942 60.0242 342.068 59.4364 341.208 58.6228L337.706 60.9055H336.938V34.033C336.938 32.8125 336.885 32.0591 336.78 31.7729C336.628 31.351 336.388 31.0421 336.056 30.8462C335.74 30.6353 335.198 30.5147 334.429 30.4846V29.6484H343.197ZM343.197 43.2993V52.7014C343.197 54.615 343.243 55.8354 343.333 56.3627C343.484 57.2517 343.846 57.975 344.418 58.5325C344.991 59.0749 345.721 59.3461 346.61 59.3461C347.378 59.3461 348.034 59.1276 348.576 58.6906C349.134 58.2537 349.593 57.3874 349.955 56.0916C350.332 54.7958 350.52 52.4603 350.52 49.0852C350.52 45.8458 350.113 43.6233 349.3 42.418C348.712 41.544 347.921 41.1071 346.927 41.1071C345.631 41.1071 344.388 41.8379 343.197 43.2993Z" fill="url(#paint10_linear_359_956)"/>
<path d="M373.672 38.5759L374.011 45.7857H373.242C372.324 43.6461 371.367 42.1845 370.373 41.4011C369.394 40.6176 368.415 40.2258 367.434 40.2258C366.817 40.2258 366.289 40.4368 365.852 40.8586C365.415 41.2655 365.197 41.7401 365.197 42.2825C365.197 42.6893 365.348 43.0811 365.65 43.4577C366.131 44.0756 367.48 45.1378 369.695 46.6445C371.909 48.1362 373.363 49.4094 374.057 50.4641C374.765 51.5037 375.119 52.6714 375.119 53.9672C375.119 55.1425 374.824 56.2952 374.237 57.4252C373.65 58.5553 372.821 59.4216 371.751 60.0243C370.681 60.627 369.499 60.9283 368.203 60.9283C367.193 60.9283 365.846 60.6119 364.157 59.9791C363.706 59.8133 363.397 59.7305 363.231 59.7305C362.734 59.7305 362.32 60.1072 361.988 60.8605H361.242L360.881 53.2667H361.649C362.328 55.2555 363.254 56.7471 364.428 57.7415C365.619 58.7361 366.742 59.2332 367.796 59.2332C368.52 59.2332 369.107 59.0148 369.56 58.5778C370.026 58.1258 370.26 57.5834 370.26 56.9505C370.26 56.2273 370.034 55.602 369.582 55.0747C369.129 54.5473 368.12 53.7487 366.554 52.6789C364.248 51.0819 362.757 49.8613 362.079 49.0176C361.084 47.7821 360.587 46.4185 360.587 44.9268C360.587 43.2995 361.145 41.8305 362.259 40.5197C363.39 39.1937 365.017 38.5308 367.141 38.5308C368.286 38.5308 369.394 38.8095 370.463 39.3669C370.869 39.593 371.201 39.706 371.458 39.706C371.729 39.706 371.947 39.6533 372.113 39.5478C372.279 39.4273 372.542 39.1033 372.904 38.5759H373.672Z" fill="url(#paint11_linear_359_956)"/>
<mask id="mask0_359_956" style="mask-type:luminance" maskUnits="userSpaceOnUse" x="0" y="0" width="89" height="88">
<path d="M88.8751 0H0.881104V88H88.8751V0Z" fill="white"/>
</mask>
<g mask="url(#mask0_359_956)">
<path fill-rule="evenodd" clip-rule="evenodd" d="M83.669 24.4841C80.4908 18.1533 75.8972 12.8589 70.4063 8.87856C63.0686 3.55513 54.1389 0.579346 44.8822 0.579346V7.80751C50.5295 7.80172 56.1391 9.1304 61.3145 11.7675C63.0193 12.636 64.6346 13.626 66.1542 14.7259C69.2948 16.9954 72.0214 19.7367 74.2589 22.8543L83.6661 24.4812H83.669V24.4841ZM86.1757 30.5949C89.1252 39.6698 88.9226 49.0083 86.1757 57.432C84.0395 63.9856 80.3635 69.9807 75.4311 74.8699L74.0707 65.4041C75.2083 63.8467 76.233 62.188 77.1244 60.4367C77.9929 58.7317 78.7165 56.9804 79.3012 55.1973C81.6689 47.9691 81.6949 40.2025 79.2983 32.8296L86.1757 30.5949ZM56.0696 78.4217C52.3994 79.6144 48.6306 80.2049 44.8822 80.2078C41.0556 80.2106 37.2435 79.5999 33.5761 78.3811L24.9996 82.5988C31.0753 85.7309 37.886 87.4359 44.8822 87.4359C49.3282 87.4359 53.8495 86.7499 58.307 85.3025C62.7589 83.8551 66.817 81.7564 70.4091 79.1454L66.1599 73.298C63.1264 75.4951 59.7341 77.2291 56.0696 78.4217ZM8.69178 43.8759C8.68019 47.6681 9.27068 51.4804 10.4777 55.1914C12.8744 62.5585 17.4564 68.8257 23.616 73.2835L19.3668 79.1338C12.197 73.9319 6.54403 66.4983 3.59739 57.4261C1.38017 50.6091 0.945991 43.6386 2.03144 37.0212L8.69178 43.8759ZM23.6074 14.7259C19.0398 18.0404 15.2884 22.4086 12.6515 27.5815C11.7803 29.2894 11.0567 31.0436 10.4719 32.8296L3.59449 30.5949C6.4022 21.9773 11.87 14.3178 19.3582 8.87856C22.9532 6.26461 27.0143 4.16014 31.4718 2.71277C33.7353 1.97751 36.0133 1.44198 38.2913 1.08882L33.8221 9.56172L33.7093 9.59645C30.039 10.7891 26.6438 12.523 23.6074 14.7259Z" fill="url(#paint12_linear_359_956)"/>
<path d="M85.9955 30.9571C88.7453 39.6095 88.7135 48.7249 85.9058 57.3425C83.842 63.6734 80.299 69.5063 75.6388 74.2536L74.3768 65.4797C75.5057 63.9223 76.5188 62.2723 77.3842 60.5702C78.2468 58.8768 78.9849 57.0994 79.5784 55.2903C81.9518 48.0388 81.9808 40.3418 79.6622 33.0181L85.9376 30.7921M86.1808 30.5952L79.2976 32.8328C81.6942 40.2057 81.6682 47.9723 79.3005 55.2005C78.7158 56.9837 77.9921 58.735 77.1238 60.4399C76.2322 62.1912 75.2076 63.85 74.0701 65.4073L75.4305 74.8731C80.3627 69.9838 84.0388 63.9889 86.1749 57.4352C88.9219 49.0086 89.1245 39.6702 86.1749 30.5952H86.1808Z" fill="#2A3039"/>
<path d="M66.0967 73.7032L70.1461 78.9833C66.5539 81.5537 62.4467 83.6554 58.2177 85.0303C53.8904 86.4372 49.4039 87.1493 44.8826 87.1493C38.2541 87.1493 31.6169 85.5803 25.6484 82.6045L33.5967 78.6966C37.2468 79.8922 41.0329 80.5001 44.8507 80.5001H44.8826C48.6976 80.4972 52.4923 79.8893 56.1597 78.6995C59.7316 77.5388 63.0718 75.8598 66.0967 73.7061M66.1603 73.3037C63.1268 75.5009 59.7344 77.2348 56.07 78.4274C52.3997 79.6201 48.631 80.2107 44.8826 80.2135H44.8507C41.0329 80.2135 37.2353 79.5998 33.5736 78.3869L24.9971 82.6045C31.0727 85.7366 37.8807 87.4417 44.8797 87.4417C49.3258 87.4417 53.847 86.7556 58.3045 85.3083C62.7563 83.8609 66.8145 81.7622 70.4067 79.1511L66.1574 73.3037H66.1603Z" fill="#2A3039"/>
<path d="M2.22851 37.6379L8.40547 43.9917C8.40547 47.8099 9.01332 51.6049 10.2059 55.2784C12.5823 62.5904 17.0775 68.8315 23.2139 73.3472L19.4336 78.8212C12.1423 73.4573 6.68031 65.9744 3.87262 57.3365C1.77986 50.8986 1.227 44.2754 2.22851 37.6379ZM2.03169 37.0212C0.946235 43.6386 1.38042 50.6091 3.59763 57.4263C6.54427 66.4983 12.1973 73.932 19.367 79.1339L23.6163 73.2836C17.4567 68.8257 12.8747 62.5585 10.478 55.1886C9.27093 51.4775 8.68044 47.6652 8.69202 43.873L2.03169 37.0212Z" fill="#2A3039"/>
<path d="M44.998 0.869066C49.4498 0.898009 54.0319 1.61591 58.2811 3.00828C62.565 4.41222 66.5884 6.4646 70.2356 9.11039C75.628 13.0212 80.0828 18.1941 83.148 24.0993L74.4268 22.5912C72.172 19.4735 69.4453 16.7496 66.325 14.4946C64.7822 13.3772 63.141 12.3757 61.4477 11.513C56.3215 8.90196 50.848 7.5588 45.1717 7.52117L44.998 0.869066ZM44.8968 0.57959H44.8823V7.80775H44.9286C50.5613 7.80775 56.1536 9.13644 61.3175 11.7677C63.0223 12.6362 64.6375 13.6262 66.1572 14.7261C69.2977 16.9956 72.0243 19.7369 74.2618 22.8546L83.6691 24.4814C80.4909 18.1507 75.8973 12.8562 70.4064 8.87591C63.0716 3.56117 54.1478 0.57959 44.8968 0.57959Z" fill="#2A3039"/>
<path d="M37.7638 1.4654L33.6217 9.31882H33.6188C29.9514 10.5114 26.5243 12.2512 23.4358 14.4917C18.7611 17.8814 15.0446 22.241 12.3932 27.4485C11.5711 29.061 10.8648 30.7456 10.2888 32.4652L3.90925 30.572C5.30442 26.3862 7.37111 22.2901 9.95594 18.7152C12.6305 15.0157 15.8492 11.7851 19.5282 9.1133C23.1869 6.45593 27.2334 4.39487 31.5607 2.98803C33.5841 2.33093 35.6681 1.81855 37.7638 1.4654ZM38.2906 1.08618C36.0126 1.43935 33.7346 1.97487 31.471 2.71013C27.0135 4.1575 22.9524 6.26197 19.3574 8.87593C11.8692 14.318 6.40145 21.9775 3.59375 30.5952L10.4712 32.8299C11.0559 31.0438 11.7795 29.2896 12.6507 27.5817C15.2877 22.4088 19.039 18.0407 23.6066 14.7261C26.643 12.5233 30.0382 10.7894 33.7085 9.59672C33.7461 9.58514 33.7837 9.57355 33.8215 9.56197L38.2906 1.08908V1.08618Z" fill="#2A3039"/>
<path d="M86.2224 57.5243L79.3449 55.2896C78.7602 57.0728 78.0366 58.8241 77.1682 60.5291C76.2767 62.2804 75.252 63.9391 74.1145 65.4964L75.4749 74.9622C80.4072 70.073 84.0832 64.078 86.2194 57.5243H86.2224Z" fill="url(#paint13_linear_359_956)"/>
<path d="M44.8823 87.4388V80.2106C41.0557 80.2135 37.2436 79.6028 33.5762 78.384L24.9998 82.6017C31.0754 85.7338 37.8862 87.4388 44.8823 87.4388Z" fill="url(#paint14_linear_359_956)"/>
<path d="M3.59763 57.4263L10.4809 55.1886C9.27383 51.4775 8.68334 47.6652 8.69492 43.873L2.03169 37.0212C0.946236 43.6386 1.38042 50.6091 3.59763 57.4263Z" fill="url(#paint15_linear_359_956)"/>
<path d="M70.4064 8.87842L66.1572 14.7286C69.2978 16.9981 72.0244 19.7394 74.2619 22.8571L83.6692 24.484C80.491 18.1532 75.8974 12.8587 70.4064 8.87842Z" fill="url(#paint16_linear_359_956)"/>
<path d="M31.4725 2.71331C27.015 4.16068 22.9539 6.26515 19.3589 8.87909L23.6081 14.7265C26.6445 12.5235 30.0397 10.7896 33.71 9.59699C33.7476 9.58541 33.7852 9.57384 33.8229 9.56226L38.292 1.08936C36.014 1.44251 33.736 1.97804 31.4725 2.71331Z" fill="url(#paint17_linear_359_956)"/>
<path d="M66.3394 50.9827L66.4698 50.8496L86.1439 30.6038L58.3274 25.7899L58.1422 25.758L58.0553 25.593L44.8823 0.623047L31.7092 25.593L31.6223 25.758L31.4371 25.7899L3.62061 30.6038L23.2948 50.8496L23.425 50.9827L23.399 51.1681L19.3814 79.1139L44.7144 66.6578L44.8823 66.5738L45.0501 66.6549L70.3831 79.111L66.3656 51.1681L66.3394 50.9827ZM47.9534 59.499L47.7971 59.421L45.0589 58.0778L42.3235 59.4239L42.1643 59.502L29.0983 65.9283L31.1737 51.5038L31.1968 51.3302L31.6253 48.3196L29.5094 46.1341L29.3791 46.0009L19.2308 35.5596L33.5762 33.0759L33.747 33.0471L36.7572 32.526L38.1814 29.8251L38.2625 29.6717L45.0559 16.793L51.8494 29.6717L51.9305 29.8251L53.3546 32.526L56.3649 33.0471L56.5357 33.0759L70.8839 35.5596L60.7357 46.0009L60.6141 46.1254L58.4866 48.3167L58.9208 51.3388L58.9468 51.5097L61.0193 65.9226L47.9475 59.4933L47.9534 59.499Z" fill="url(#paint18_linear_359_956)"/>
<path d="M59.1925 47.5959L48.1614 44.0122L69.3755 37.1169L70.8894 35.5595L68.7503 35.1889L47.5333 42.0843L54.3528 32.6995L53.36 32.5287L52.7754 31.42L45.895 40.8917V18.3763L45.0585 16.793L43.8688 19.0508V40.8917L37.194 31.7037L36.7569 32.5287L35.4515 32.7545L42.2305 42.0843L21.1381 35.2295L19.2305 35.5595L20.9064 37.2877L41.6024 44.0122L30.8376 47.5089L31.622 48.3196L31.4628 49.4369L42.2276 45.94L29.4396 63.5458L29.0951 65.9282L30.8319 65.0743L43.8688 47.1297V58.6624L45.0555 58.0805L45.895 58.4916V47.1297L58.7323 64.8021L61.0248 65.9282L60.7672 64.1537L47.5333 45.94L58.6687 49.5556L58.4921 48.3196L59.1925 47.5959Z" fill="url(#paint19_radial_359_956)"/>
<path d="M31.6218 25.7578L31.4366 25.7896L12.8594 29.0057L19.2303 35.5593L33.5756 33.0785L33.7465 33.0468L36.5628 32.5633L31.6218 25.7578Z" fill="url(#paint20_linear_359_956)"/>
<path d="M29.1299 65.6933L31.1706 51.5033L31.1937 51.3296L31.622 48.3191L23.4247 50.9822L23.3986 51.1675L20.6807 70.0672L28.8838 66.032L29.1299 65.6933Z" fill="url(#paint21_linear_359_956)"/>
<path d="M60.6807 65.7604L47.9506 59.4989L47.7942 59.4209L45.056 58.0806L44.8823 58.1645V66.5737L45.0501 66.6548L62.3508 75.1625L61.0772 66.3046L60.6807 65.7604Z" fill="url(#paint22_linear_359_956)"/>
<path d="M70.8895 35.6609L60.7412 46.1022L60.6196 46.2267L58.4922 48.418L58.5096 48.5367L66.3392 51.0812L66.4695 50.9481L79.822 37.2067L70.8895 35.6609Z" fill="url(#paint23_linear_359_956)"/>
<path d="M58.0556 25.691L49.2359 8.97388L45.062 16.891L51.8555 29.7697L51.9365 29.9231L53.3028 32.5168L58.1424 25.856L58.0556 25.691Z" fill="url(#paint24_linear_359_956)"/>
<path d="M19.1461 35.684L12.645 29.0377L12.9895 28.9827L19.3545 35.4814L19.1461 35.684Z" fill="url(#paint25_linear_359_956)"/>
<path d="M20.6584 70.2295L20.7047 69.8966L28.9628 65.8352L28.9483 66.1624L20.6584 70.2295Z" fill="url(#paint26_linear_359_956)"/>
<path d="M62.2087 75.09L60.8889 66.0237L61.2073 66.177L62.5128 75.2405L62.2087 75.09Z" fill="url(#paint27_linear_359_956)"/>
<path d="M79.6947 37.2381L70.8635 35.7038L70.9126 35.4202L79.9437 36.9891L79.6947 37.2381Z" fill="url(#paint28_linear_359_956)"/>
<path d="M45.1893 16.8593L44.9316 16.7261L49.1519 8.71924L49.3198 9.02319L45.1893 16.8593Z" fill="url(#paint29_linear_359_956)"/>
<path d="M61.2079 66.1771L45.0592 58.2397L28.9164 66.1771L31.4723 48.3687L29.2782 46.1021L18.939 35.464L36.668 32.3984L45.0651 16.4832L53.4592 32.3984L71.1883 35.4668L58.6462 48.3716L61.2079 66.1829V66.1771ZM19.5265 35.655L31.7791 48.2703L31.316 51.5239L29.2812 65.6763L45.0592 57.9184L48.0175 59.3687L60.8431 65.6763L58.3394 48.2674L70.5977 35.655L53.2681 32.656L51.7282 29.7381L45.0622 17.1027L36.8562 32.6589L19.5294 35.655H19.5265Z" fill="#3B424C"/>
</g>
<defs>
<linearGradient id="paint0_linear_359_956" x1="120.298" y1="44.8041" x2="376.899" y2="44.8041" gradientUnits="userSpaceOnUse">
<stop stop-color="#272B33"/>
<stop offset="1" stop-color="#0B0C10"/>
</linearGradient>
<linearGradient id="paint1_linear_359_956" x1="120.298" y1="44.8041" x2="376.899" y2="44.8041" gradientUnits="userSpaceOnUse">
<stop stop-color="#272B33"/>
<stop offset="1" stop-color="#0B0C10"/>
</linearGradient>
<linearGradient id="paint2_linear_359_956" x1="120.298" y1="44.8046" x2="376.898" y2="44.8046" gradientUnits="userSpaceOnUse">
<stop stop-color="#272B33"/>
<stop offset="1" stop-color="#0B0C10"/>
</linearGradient>
<linearGradient id="paint3_linear_359_956" x1="120.297" y1="44.8046" x2="376.897" y2="44.8046" gradientUnits="userSpaceOnUse">
<stop stop-color="#272B33"/>
<stop offset="1" stop-color="#0B0C10"/>
</linearGradient>
<linearGradient id="paint4_linear_359_956" x1="120.298" y1="44.8041" x2="376.898" y2="44.8041" gradientUnits="userSpaceOnUse">
<stop stop-color="#272B33"/>
<stop offset="1" stop-color="#0B0C10"/>
</linearGradient>
<linearGradient id="paint5_linear_359_956" x1="120.299" y1="44.8046" x2="376.899" y2="44.8046" gradientUnits="userSpaceOnUse">
<stop stop-color="#272B33"/>
<stop offset="1" stop-color="#0B0C10"/>
</linearGradient>
<linearGradient id="paint6_linear_359_956" x1="120.299" y1="44.8044" x2="376.899" y2="44.8044" gradientUnits="userSpaceOnUse">
<stop stop-color="#272B33"/>
<stop offset="1" stop-color="#0B0C10"/>
</linearGradient>
<linearGradient id="paint7_linear_359_956" x1="120.298" y1="44.8046" x2="376.898" y2="44.8046" gradientUnits="userSpaceOnUse">
<stop stop-color="#272B33"/>
<stop offset="1" stop-color="#0B0C10"/>
</linearGradient>
<linearGradient id="paint8_linear_359_956" x1="120.299" y1="44.8044" x2="376.899" y2="44.8044" gradientUnits="userSpaceOnUse">
<stop stop-color="#272B33"/>
<stop offset="1" stop-color="#0B0C10"/>
</linearGradient>
<linearGradient id="paint9_linear_359_956" x1="120.298" y1="44.8046" x2="376.898" y2="44.8046" gradientUnits="userSpaceOnUse">
<stop stop-color="#272B33"/>
<stop offset="1" stop-color="#0B0C10"/>
</linearGradient>
<linearGradient id="paint10_linear_359_956" x1="120.299" y1="44.8044" x2="376.899" y2="44.8044" gradientUnits="userSpaceOnUse">
<stop stop-color="#272B33"/>
<stop offset="1" stop-color="#0B0C10"/>
</linearGradient>
<linearGradient id="paint11_linear_359_956" x1="120.297" y1="44.8046" x2="376.898" y2="44.8046" gradientUnits="userSpaceOnUse">
<stop stop-color="#272B33"/>
<stop offset="1" stop-color="#0B0C10"/>
</linearGradient>
<linearGradient id="paint12_linear_359_956" x1="13.9801" y1="13.0961" x2="76.2169" y2="75.3288" gradientUnits="userSpaceOnUse">
<stop stop-color="#7C838E"/>
<stop offset="0.21" stop-color="#BCC2CC"/>
<stop offset="0.37" stop-color="#ACB5C1"/>
<stop offset="0.8" stop-color="#69707C"/>
<stop offset="1" stop-color="#323A45"/>
</linearGradient>
<linearGradient id="paint13_linear_359_956" x1="74.624" y1="69.8038" x2="82.7293" y2="58.0806" gradientUnits="userSpaceOnUse">
<stop stop-color="#0A0D10"/>
<stop offset="1" stop-color="#0A0D10" stop-opacity="0"/>
</linearGradient>
<linearGradient id="paint14_linear_359_956" x1="29.5875" y1="81.4495" x2="43.4814" y2="83.9098" gradientUnits="userSpaceOnUse">
<stop stop-color="#0A0D10"/>
<stop offset="1" stop-color="#0A0D10" stop-opacity="0"/>
</linearGradient>
<linearGradient id="paint15_linear_359_956" x1="5.58907" y1="40.9581" x2="6.16807" y2="54.7081" gradientUnits="userSpaceOnUse">
<stop stop-color="#252C36"/>
<stop offset="1" stop-color="#252C36" stop-opacity="0"/>
</linearGradient>
<linearGradient id="paint16_linear_359_956" x1="78.5371" y1="23.6068" x2="69.9976" y2="12.6074" gradientUnits="userSpaceOnUse">
<stop stop-color="#252C36"/>
<stop offset="1" stop-color="#252C36" stop-opacity="0"/>
</linearGradient>
<linearGradient id="paint17_linear_359_956" x1="35.6204" y1="5.17094" x2="21.7263" y2="11.1045" gradientUnits="userSpaceOnUse">
<stop stop-color="#252C36"/>
<stop offset="1" stop-color="#252C36" stop-opacity="0"/>
</linearGradient>
<linearGradient id="paint18_linear_359_956" x1="12.7818" y1="14.8767" x2="74.8739" y2="76.9646" gradientUnits="userSpaceOnUse">
<stop stop-color="#7C838E"/>
<stop offset="0.21" stop-color="#BCC2CC"/>
<stop offset="0.37" stop-color="#ACB5C1"/>
<stop offset="0.8" stop-color="#69707C"/>
<stop offset="1" stop-color="#323A45"/>
</linearGradient>
<radialGradient id="paint19_radial_359_956" cx="0" cy="0" r="1" gradientUnits="userSpaceOnUse" gradientTransform="translate(45.0963 48.4782) rotate(-90) scale(23.8498 25.0725)">
<stop stop-color="#8795A3"/>
<stop offset="0.71" stop-color="#3E4852"/>
<stop offset="1" stop-color="#171A1F"/>
</radialGradient>
<linearGradient id="paint20_linear_359_956" x1="19.9365" y1="35.5564" x2="26.0155" y2="29.4779" gradientUnits="userSpaceOnUse">
<stop stop-color="#22262C"/>
<stop offset="0.12" stop-color="#454D58"/>
<stop offset="1" stop-color="#454D58" stop-opacity="0"/>
</linearGradient>
<linearGradient id="paint21_linear_359_956" x1="29.0575" y1="65.2678" x2="24.281" y2="55.2812" gradientUnits="userSpaceOnUse">
<stop stop-color="#22262C"/>
<stop offset="0.12" stop-color="#454D58"/>
<stop offset="1" stop-color="#454D58" stop-opacity="0"/>
</linearGradient>
<linearGradient id="paint22_linear_359_956" x1="60.7183" y1="65.7604" x2="52.4688" y2="66.7734" gradientUnits="userSpaceOnUse">
<stop stop-color="#101215"/>
<stop offset="0.12" stop-color="#2D333C"/>
<stop offset="1" stop-color="#2D333C" stop-opacity="0"/>
</linearGradient>
<linearGradient id="paint23_linear_359_956" x1="70.3859" y1="35.933" x2="68.9383" y2="44.0383" gradientUnits="userSpaceOnUse">
<stop stop-color="#22262C"/>
<stop offset="0.12" stop-color="#454D58"/>
<stop offset="1" stop-color="#454D58" stop-opacity="0"/>
</linearGradient>
<linearGradient id="paint24_linear_359_956" x1="45.3341" y1="17.2094" x2="52.1365" y2="21.2616" gradientUnits="userSpaceOnUse">
<stop stop-color="#22262C"/>
<stop offset="0.12" stop-color="#454D58"/>
<stop offset="1" stop-color="#454D58" stop-opacity="0"/>
</linearGradient>
<linearGradient id="paint25_linear_359_956" x1="12.8942" y1="29.0926" x2="20.3605" y2="31.3501" gradientUnits="userSpaceOnUse">
<stop offset="0.702552" stop-color="white"/>
<stop offset="1" stop-color="white" stop-opacity="0"/>
</linearGradient>
<linearGradient id="paint26_linear_359_956" x1="20.7107" y1="70.053" x2="21.7267" y2="64.7794" gradientUnits="userSpaceOnUse">
<stop offset="0.702552" stop-color="white"/>
<stop offset="1" stop-color="white" stop-opacity="0"/>
</linearGradient>
<linearGradient id="paint27_linear_359_956" x1="62.1019" y1="75.1189" x2="65.9752" y2="70.7091" gradientUnits="userSpaceOnUse">
<stop offset="0.702552" stop-color="white"/>
<stop offset="1" stop-color="white" stop-opacity="0"/>
</linearGradient>
<linearGradient id="paint28_linear_359_956" x1="79.7586" y1="37.0527" x2="78.8572" y2="39.0508" gradientUnits="userSpaceOnUse">
<stop offset="0.702552" stop-color="white"/>
<stop offset="1" stop-color="white" stop-opacity="0"/>
</linearGradient>
<linearGradient id="paint29_linear_359_956" x1="49.2216" y1="8.97395" x2="45.1689" y2="16.5" gradientUnits="userSpaceOnUse">
<stop offset="0.702552" stop-color="white"/>
<stop offset="1" stop-color="white" stop-opacity="0"/>
</linearGradient>
</defs>
</svg>
