<svg width="17" height="24" viewBox="0 0 17 24" fill="none" xmlns="http://www.w3.org/2000/svg">
<g clip-path="url(#clip0_729_2444)">
<path d="M8.5 12C8.5 9.81338 10.2726 8.04071 12.4593 8.04071C14.6459 8.04071 16.4186 9.81338 16.4186 12C16.4186 14.1867 14.6459 15.9593 12.4593 15.9593C10.2726 15.9593 8.5 14.1867 8.5 12Z" fill="#1ABCFE"/>
<path d="M0.581055 19.9186C0.581055 17.732 2.35368 15.9593 4.54033 15.9593H8.49961V19.9186C8.49961 22.1052 6.727 23.8778 4.54033 23.8778C2.35368 23.8778 0.581055 22.1052 0.581055 19.9186Z" fill="#0ACF83"/>
<path d="M8.5 0.122192V8.04072H12.4593C14.6459 8.04072 16.4186 6.26811 16.4186 4.08147C16.4186 1.89482 14.6459 0.122192 12.4593 0.122192H8.5Z" fill="#FF7262"/>
<path d="M0.581055 4.08147C0.581055 6.26811 2.35368 8.04072 4.54033 8.04072H8.49961V0.122192H4.54033C2.35368 0.122192 0.581055 1.89482 0.581055 4.08147Z" fill="#F24E1E"/>
<path d="M0.581055 12C0.581055 14.1867 2.35368 15.9593 4.54033 15.9593H8.49961V8.04071H4.54033C2.35368 8.04071 0.581055 9.81338 0.581055 12Z" fill="#A259FF"/>
</g>
<defs>
<clipPath id="clip0_729_2444">
<rect width="16" height="24" fill="white" transform="translate(0.5)"/>
</clipPath>
</defs>
</svg>
